<svg width="154" height="140" viewBox="0 0 154 140" fill="none" xmlns="http://www.w3.org/2000/svg">
<path d="M55.999 34.999H62.9989V42H55.999V34.999Z" fill="white"/>
<path d="M48.999 42.0002H55.999V49H48.999V42.0002Z" fill="white"/>
<path d="M48.999 27.9992H55.999V34.999H48.999V27.9992Z" fill="white"/>
<path d="M55.999 27.9992H62.9989V34.999H55.999V27.9992Z" fill="white"/>
<path d="M62.9985 27.9992H69.9985V34.999H62.9985V27.9992Z" fill="white"/>
<path d="M83.9985 27.9992H90.9984V34.999H83.9985V27.9992Z" fill="white"/>
<path d="M90.9983 27.9992H97.9981V34.999H90.9983V27.9992Z" fill="white"/>
<path d="M97.9983 27.9992H104.998V34.999H97.9983V27.9992Z" fill="white"/>
<path d="M41.999 34.999H48.9991V42H41.999V34.999Z" fill="white"/>
<path d="M48.999 34.999H55.999V42H48.999V34.999Z" fill="white"/>
<path d="M62.9985 34.999H69.9985V42H62.9985V34.999Z" fill="white"/>
<path d="M69.9985 34.999H76.9985V42H69.9985V34.999Z" fill="white"/>
<path d="M76.9983 34.999H83.9984V42H76.9983V34.999Z" fill="white"/>
<path d="M83.9985 34.999H90.9984V42H83.9985V34.999Z" fill="white"/>
<path d="M90.9983 34.999H97.9981V42H90.9983V34.999Z" fill="white"/>
<path d="M97.9983 34.999H104.998V42H97.9983V34.999Z" fill="white"/>
<path d="M104.998 34.999H111.998V42H104.998V34.999Z" fill="white"/>
<path d="M34.9993 42.0002H41.9991V49H34.9993V42.0002Z" fill="white"/>
<path d="M41.999 42.0002H48.9991V49H41.999V42.0002Z" fill="white"/>
<path d="M55.999 42.0002H62.9989V49H55.999V42.0002Z" fill="white"/>
<path d="M62.9985 42.0002H69.9985V49H62.9985V42.0002Z" fill="white"/>
<path d="M69.9985 42.0002H76.9985V49H69.9985V42.0002Z" fill="white"/>
<path d="M76.9983 42.0002H83.9984V49H76.9983V42.0002Z" fill="white"/>
<path d="M83.9985 42.0002H90.9984V49H83.9985V42.0002Z" fill="white"/>
<path d="M90.9983 42.0002H97.9981V49H90.9983V42.0002Z" fill="white"/>
<path d="M97.9983 42.0002H104.998V49H97.9983V42.0002Z" fill="white"/>
<path d="M104.998 42.0002H111.998V49H104.998V42.0002Z" fill="white"/>
<path d="M111.998 42.0002H118.998V49H111.998V42.0002Z" fill="white"/>
<path d="M34.9993 48.9999H41.9993V55.9998H34.9993V48.9999Z" fill="white"/>
<path d="M41.9993 48.9999H48.9992V55.9998H41.9993V48.9999Z" fill="white"/>
<path d="M48.9993 48.9999H55.9991V55.9998H48.9993V48.9999Z" fill="white"/>
<path d="M55.999 48.9999H62.9987V55.9998H55.999V48.9999Z" fill="white"/>
<path d="M62.9988 48.9999H69.9987V55.9998H62.9988V48.9999Z" fill="white"/>
<path d="M69.9985 48.9999H76.9986V55.9998H69.9985V48.9999Z" fill="white"/>
<path d="M76.9983 48.9999H83.9984V55.9998H76.9983V48.9999Z" fill="white"/>
<path d="M83.9985 48.9999H90.9984V55.9998H83.9985V48.9999Z" fill="white"/>
<path d="M90.9983 48.9999H97.9981V55.9998H90.9983V48.9999Z" fill="white"/>
<path d="M97.9983 48.9999H104.998V55.9998H97.9983V48.9999Z" fill="white"/>
<path d="M104.998 48.9999H111.998V55.9998H104.998V48.9999Z" fill="white"/>
<path d="M111.998 48.9999H118.998V55.9998H111.998V48.9999Z" fill="white"/>
<path d="M41.9993 55.9997H48.9991V62.9995H41.9993V55.9997Z" fill="white"/>
<path d="M48.999 55.9997H55.999V62.9995H48.999V55.9997Z" fill="white"/>
<path d="M55.999 55.9997H62.9987V62.9995H55.999V55.9997Z" fill="white"/>
<path d="M62.9988 55.9997H69.9987V62.9995H62.9988V55.9997Z" fill="white"/>
<path d="M69.9985 55.9997H76.9984V62.9995H69.9985V55.9997Z" fill="white"/>
<path d="M76.9983 55.9997H83.9984V62.9995H76.9983V55.9997Z" fill="white"/>
<path d="M83.9985 55.9997H90.9984V62.9995H83.9985V55.9997Z" fill="white"/>
<path d="M90.9983 55.9997H97.9981V62.9995H90.9983V55.9997Z" fill="white"/>
<path d="M97.9983 55.9997H104.998V62.9995H97.9983V55.9997Z" fill="white"/>
<path d="M104.998 55.9997H111.998V62.9995H104.998V55.9997Z" fill="white"/>
<path d="M48.999 62.9994H55.999V69.9993H48.999V62.9994Z" fill="white"/>
<path d="M55.999 62.9994H62.9987V69.9993H55.999V62.9994Z" fill="white"/>
<path d="M62.9988 62.9994H69.9987V69.9993H62.9988V62.9994Z" fill="white"/>
<path d="M69.9985 62.9994H76.9984V69.9993H69.9985V62.9994Z" fill="white"/>
<path d="M76.9983 62.9994H83.9984V69.9993H76.9983V62.9994Z" fill="white"/>
<path d="M83.9985 62.9994H90.9984V69.9993H83.9985V62.9994Z" fill="white"/>
<path d="M90.9983 62.9994H97.9981V69.9993H90.9983V62.9994Z" fill="white"/>
<path d="M97.9983 62.9994H104.998V69.9993H97.9983V62.9994Z" fill="white"/>
<path d="M55.999 69.9992H62.9989V76.999H55.999V69.9992Z" fill="white"/>
<path d="M62.9988 69.9992H69.9987V76.999H62.9988V69.9992Z" fill="white"/>
<path d="M69.9985 69.9992H76.9984V76.999H69.9985V69.9992Z" fill="white"/>
<path d="M76.9983 69.9992H83.9984V76.999H76.9983V69.9992Z" fill="white"/>
<path d="M83.9985 69.9992H90.9984V76.999H83.9985V69.9992Z" fill="white"/>
<path d="M90.9983 69.9992H97.9981V76.999H90.9983V69.9992Z" fill="white"/>
<path d="M62.9988 76.998H69.9987V83.999H62.9988V76.998Z" fill="white"/>
<path d="M69.9985 76.998H76.9984V83.999H69.9985V76.998Z" fill="white"/>
<path d="M76.9983 76.998H83.9984V83.999H76.9983V76.998Z" fill="white"/>
<path d="M83.9985 76.998H90.9984V83.999H83.9985V76.998Z" fill="white"/>
<path d="M69.9983 83.9992H76.9982V90.999H69.9983V83.9992Z" fill="white"/>
<path d="M76.9983 83.9992H83.9985V90.999H76.9983V83.9992Z" fill="white"/>
<path d="M34.9993 13.9994H41.9991V20.9993H34.9993V13.9994Z" fill="white"/>
<path d="M41.999 13.9994H48.9991V20.9993H41.999V13.9994Z" fill="white"/>
<path d="M48.999 13.9994H55.999V20.9993H48.999V13.9994Z" fill="white"/>
<path d="M55.999 13.9994H62.9989V20.9993H55.999V13.9994Z" fill="white"/>
<path d="M62.9985 13.9994H69.9985V20.9993H62.9985V13.9994Z" fill="white"/>
<path d="M69.9985 13.9994H76.9985V20.9993H69.9985V13.9994Z" fill="white"/>
<path d="M76.9983 13.9994H83.9984V20.9993H76.9983V13.9994Z" fill="white"/>
<path d="M83.9985 13.9994H90.9984V20.9993H83.9985V13.9994Z" fill="white"/>
<path d="M90.9983 13.9994H97.9981V20.9993H90.9983V13.9994Z" fill="white"/>
<path d="M97.9983 13.9994H104.998V20.9993H97.9983V13.9994Z" fill="white"/>
<path d="M104.998 13.9994H111.998V20.9993H104.998V13.9994Z" fill="white"/>
<path d="M111.998 13.9994H118.998V20.9993H111.998V13.9994Z" fill="white"/>
<path d="M20.9995 20.9992H27.9992V27.999H20.9995V20.9992Z" fill="white"/>
<path d="M27.9993 20.9992H34.9991V27.999H27.9993V20.9992Z" fill="white"/>
<path d="M34.9993 20.9992H41.9993V27.999H34.9993V20.9992Z" fill="white"/>
<path d="M41.9993 20.9992H48.9991V27.999H41.9993V20.9992Z" fill="white"/>
<path d="M48.999 20.9992H55.999V27.999H48.999V20.9992Z" fill="white"/>
<path d="M55.999 20.9992H62.9989V27.999H55.999V20.9992Z" fill="white"/>
<path d="M62.9988 20.9992H69.9987V27.999H62.9988V20.9992Z" fill="white"/>
<path d="M69.9985 20.9992H76.9984V27.999H69.9985V20.9992Z" fill="white"/>
<path d="M76.9983 20.9992H83.9984V27.999H76.9983V20.9992Z" fill="white"/>
<path d="M83.9985 20.9992H90.9984V27.999H83.9985V20.9992Z" fill="white"/>
<path d="M90.9983 20.9992H97.9981V27.999H90.9983V20.9992Z" fill="white"/>
<path d="M97.9983 20.9992H104.998V27.999H97.9983V20.9992Z" fill="white"/>
<path d="M104.998 20.9992H111.998V27.999H104.998V20.9992Z" fill="white"/>
<path d="M111.998 20.9992H118.998V27.999H111.998V20.9992Z" fill="white"/>
<path d="M118.998 20.9992H125.997V27.999H118.998V20.9992Z" fill="white"/>
<path d="M125.998 20.9992H132.997V27.999H125.998V20.9992Z" fill="white"/>
<path d="M20.9995 27.9992H27.9992V34.999H20.9995V27.9992Z" fill="white"/>
<path d="M27.9993 27.9992H34.9991V34.999H27.9993V27.9992Z" fill="white"/>
<path d="M34.9993 27.9992H41.9991V34.999H34.9993V27.9992Z" fill="white"/>
<path d="M41.999 27.9992H48.9991V34.999H41.999V27.9992Z" fill="white"/>
<path d="M69.9985 27.9992H76.9985V34.999H69.9985V27.9992Z" fill="white"/>
<path d="M76.9983 27.9992H83.9984V34.999H76.9983V27.9992Z" fill="white"/>
<path d="M104.998 27.9992H111.998V34.999H104.998V27.9992Z" fill="white"/>
<path d="M111.998 27.9992H118.998V34.999H111.998V27.9992Z" fill="white"/>
<path d="M118.998 27.9992H125.997V34.999H118.998V27.9992Z" fill="white"/>
<path d="M125.998 27.9992H132.997V34.999H125.998V27.9992Z" fill="white"/>
<path d="M13.9998 34.999H20.9997V42H13.9998V34.999Z" fill="white"/>
<path d="M20.9995 34.999H27.9992V42H20.9995V34.999Z" fill="white"/>
<path d="M27.9993 34.999H34.9991V42H27.9993V34.999Z" fill="white"/>
<path d="M34.9993 34.999H41.9991V42H34.9993V34.999Z" fill="white"/>
<path d="M111.998 34.999H118.998V42H111.998V34.999Z" fill="white"/>
<path d="M118.998 34.999H125.997V42H118.998V34.999Z" fill="white"/>
<path d="M125.998 34.999H132.997V42H125.998V34.999Z" fill="white"/>
<path d="M132.997 34.999H139.997V42H132.997V34.999Z" fill="white"/>
<path d="M13.9998 42.0002H20.9997V49H13.9998V42.0002Z" fill="white"/>
<path d="M20.9995 42.0002H27.9993V49H20.9995V42.0002Z" fill="white"/>
<path d="M27.9993 42.0002H34.9991V49H27.9993V42.0002Z" fill="white"/>
<path d="M118.998 42.0002H125.997V49H118.998V42.0002Z" fill="white"/>
<path d="M125.998 42.0002H132.997V49H125.998V42.0002Z" fill="white"/>
<path d="M132.997 42.0002H139.997V49H132.997V42.0002Z" fill="white"/>
<path d="M13.9998 48.9999H20.9997V55.9998H13.9998V48.9999Z" fill="white"/>
<path d="M20.9995 48.9999H27.9993V55.9998H20.9995V48.9999Z" fill="white"/>
<path d="M27.9995 48.9999H34.9992V55.9998H27.9995V48.9999Z" fill="white"/>
<path d="M118.998 48.9999H125.997V55.9998H118.998V48.9999Z" fill="white"/>
<path d="M125.998 48.9999H132.997V55.9998H125.998V48.9999Z" fill="white"/>
<path d="M132.997 48.9999H139.997V55.9998H132.997V48.9999Z" fill="white"/>
<path d="M13.9998 55.9997H20.9996V62.9995H13.9998V55.9997Z" fill="white"/>
<path d="M20.9995 55.9997H27.9993V62.9995H20.9995V55.9997Z" fill="white"/>
<path d="M27.9995 55.9997H34.9992V62.9995H27.9995V55.9997Z" fill="white"/>
<path d="M34.9993 55.9997H41.9993V62.9995H34.9993V55.9997Z" fill="white"/>
<path d="M111.998 55.9997H118.998V62.9995H111.998V55.9997Z" fill="white"/>
<path d="M118.998 55.9997H125.997V62.9995H118.998V55.9997Z" fill="white"/>
<path d="M125.998 55.9997H132.997V62.9995H125.998V55.9997Z" fill="white"/>
<path d="M132.997 55.9997H139.997V62.9995H132.997V55.9997Z" fill="white"/>
<path d="M13.9998 62.9994H20.9996V69.9993H13.9998V62.9994Z" fill="white"/>
<path d="M20.9995 62.9994H27.9993V69.9993H20.9995V62.9994Z" fill="white"/>
<path d="M27.9995 62.9994H34.9992V69.9993H27.9995V62.9994Z" fill="white"/>
<path d="M34.9993 62.9994H41.9993V69.9993H34.9993V62.9994Z" fill="white"/>
<path d="M41.9993 62.9994H48.9991V69.9993H41.9993V62.9994Z" fill="white"/>
<path d="M104.998 62.9994H111.998V69.9993H104.998V62.9994Z" fill="white"/>
<path d="M111.998 62.9994H118.998V69.9993H111.998V62.9994Z" fill="white"/>
<path d="M118.998 62.9994H125.997V69.9993H118.998V62.9994Z" fill="white"/>
<path d="M125.998 62.9994H132.997V69.9993H125.998V62.9994Z" fill="white"/>
<path d="M132.997 62.9994H139.997V69.9993H132.997V62.9994Z" fill="white"/>
<path d="M13.9998 69.9992H20.9996V76.999H13.9998V69.9992Z" fill="white"/>
<path d="M20.9995 69.9992H27.9992V76.999H20.9995V69.9992Z" fill="white"/>
<path d="M27.9993 69.9992H34.9991V76.999H27.9993V69.9992Z" fill="white"/>
<path d="M34.9993 69.9992H41.9993V76.999H34.9993V69.9992Z" fill="white"/>
<path d="M41.9993 69.9992H48.9991V76.999H41.9993V69.9992Z" fill="white"/>
<path d="M48.999 69.9992H55.999V76.999H48.999V69.9992Z" fill="white"/>
<path d="M97.9983 69.9992H104.998V76.999H97.9983V69.9992Z" fill="white"/>
<path d="M104.998 69.9992H111.998V76.999H104.998V69.9992Z" fill="white"/>
<path d="M111.998 69.9992H118.998V76.999H111.998V69.9992Z" fill="white"/>
<path d="M118.998 69.9992H125.997V76.999H118.998V69.9992Z" fill="white"/>
<path d="M125.998 69.9992H132.997V76.999H125.998V69.9992Z" fill="white"/>
<path d="M132.997 69.9992H139.997V76.999H132.997V69.9992Z" fill="white"/>
<path d="M20.9995 76.998H27.9993V83.999H20.9995V76.998Z" fill="white"/>
<path d="M27.9995 76.998H34.9992V83.999H27.9995V76.998Z" fill="white"/>
<path d="M34.9993 76.998H41.9993V83.999H34.9993V76.998Z" fill="white"/>
<path d="M41.9993 76.998H48.9991V83.999H41.9993V76.998Z" fill="white"/>
<path d="M48.999 76.998H55.999V83.999H48.999V76.998Z" fill="white"/>
<path d="M55.999 76.998H62.9987V83.999H55.999V76.998Z" fill="white"/>
<path d="M90.9983 76.998H97.9981V83.999H90.9983V76.998Z" fill="white"/>
<path d="M97.9983 76.998H104.998V83.999H97.9983V76.998Z" fill="white"/>
<path d="M104.998 76.998H111.998V83.999H104.998V76.998Z" fill="white"/>
<path d="M111.998 76.998H118.998V83.999H111.998V76.998Z" fill="white"/>
<path d="M118.998 76.998H125.997V83.999H118.998V76.998Z" fill="white"/>
<path d="M125.998 76.998H132.997V83.999H125.998V76.998Z" fill="white"/>
<path d="M20.9993 83.9992H27.9992V90.999H20.9993V83.9992Z" fill="white"/>
<path d="M27.9993 83.9992H34.999V90.999H27.9993V83.9992Z" fill="white"/>
<path d="M34.999 83.9992H41.999V90.999H34.999V83.9992Z" fill="white"/>
<path d="M41.9988 83.9992H48.9987V90.999H41.9988V83.9992Z" fill="white"/>
<path d="M48.9988 83.9992H55.9986V90.999H48.9988V83.9992Z" fill="white"/>
<path d="M55.9985 83.9992H62.9984V90.999H55.9985V83.9992Z" fill="white"/>
<path d="M62.9985 83.9992H69.9985V90.999H62.9985V83.9992Z" fill="white"/>
<path d="M83.9985 83.9992H90.9984V90.999H83.9985V83.9992Z" fill="white"/>
<path d="M90.9983 83.9992H97.9981V90.999H90.9983V83.9992Z" fill="white"/>
<path d="M97.9983 83.9992H104.998V90.999H97.9983V83.9992Z" fill="white"/>
<path d="M104.998 83.9992H111.998V90.999H104.998V83.9992Z" fill="white"/>
<path d="M111.998 83.9992H118.998V90.999H111.998V83.9992Z" fill="white"/>
<path d="M118.998 83.9992H125.997V90.999H118.998V83.9992Z" fill="white"/>
<path d="M125.998 83.9992H132.997V90.999H125.998V83.9992Z" fill="white"/>
<path d="M34.999 90.9988H41.999V97.9998H34.999V90.9988Z" fill="white"/>
<path d="M41.9988 90.9988H48.9987V97.9998H41.9988V90.9988Z" fill="white"/>
<path d="M48.9988 90.9988H55.9986V97.9998H48.9988V90.9988Z" fill="white"/>
<path d="M55.9985 90.9988H62.9984V97.9998H55.9985V90.9988Z" fill="white"/>
<path d="M62.9985 90.9988H69.9985V97.9998H62.9985V90.9988Z" fill="white"/>
<path d="M69.9983 90.9988H76.9981V97.9998H69.9983V90.9988Z" fill="white"/>
<path d="M76.9983 90.9988H83.9986V97.9998H76.9983V90.9988Z" fill="white"/>
<path d="M83.9985 90.9988H90.9984V97.9998H83.9985V90.9988Z" fill="white"/>
<path d="M90.9983 90.9988H97.9981V97.9998H90.9983V90.9988Z" fill="white"/>
<path d="M97.9983 90.9988H104.998V97.9998H97.9983V90.9988Z" fill="white"/>
<path d="M104.998 90.9988H111.998V97.9998H104.998V90.9988Z" fill="white"/>
<path d="M111.998 90.9988H118.998V97.9998H111.998V90.9988Z" fill="white"/>
<path d="M48.9988 97.9997H55.9986V105H48.9988V97.9997Z" fill="white"/>
<path d="M55.9985 97.9997H62.9984V105H55.9985V97.9997Z" fill="white"/>
<path d="M62.9985 97.9997H69.9985V105H62.9985V97.9997Z" fill="white"/>
<path d="M48.9988 105H55.9986V112H48.9988V105Z" fill="white"/>
<path d="M55.9985 105H62.9984V112H55.9985V105Z" fill="white"/>
<path d="M48.9988 111.999H55.9986V118.999H48.9988V111.999Z" fill="white"/>
<path d="M7 34.9992H13.9998V41.999H7V34.9992Z" fill="black"/>
<path d="M7 41.9989H13.9998V48.9988H7V41.9989Z" fill="black"/>
<path d="M7 48.9987H14V55.9985H7V48.9987Z" fill="black"/>
<path d="M7 55.9985H14V62.9983H7V55.9985Z" fill="black"/>
<path d="M7 62.9982H14V69.998H7V62.9982Z" fill="black"/>
<path d="M7 69.9982H13.9998V76.998H7V69.9982Z" fill="black"/>
<path d="M34.9993 6.99968H41.9993V13.9995H34.9993V6.99968Z" fill="black"/>
<path d="M41.9993 6.99968H48.9991V13.9995H41.9993V6.99968Z" fill="black"/>
<path d="M48.999 6.99968H55.999V13.9995H48.999V6.99968Z" fill="black"/>
<path d="M55.999 6.99968H62.9989V13.9995H55.999V6.99968Z" fill="black"/>
<path d="M62.9988 6.99968H69.9987V13.9995H62.9988V6.99968Z" fill="black"/>
<path d="M69.9985 6.99968H76.9984V13.9995H69.9985V6.99968Z" fill="black"/>
<path d="M76.9983 6.99968H83.9984V13.9995H76.9983V6.99968Z" fill="black"/>
<path d="M83.9985 6.99968H90.9984V13.9995H83.9985V6.99968Z" fill="black"/>
<path d="M90.9983 6.99968H97.9981V13.9995H90.9983V6.99968Z" fill="black"/>
<path d="M97.9983 6.99968H104.998V13.9995H97.9983V6.99968Z" fill="black"/>
<path d="M104.998 6.99968H111.998V13.9995H104.998V6.99968Z" fill="black"/>
<path d="M111.998 6.99968H118.998V13.9995H111.998V6.99968Z" fill="black"/>
<path d="M20.9995 13.9994H27.9992V20.9993H20.9995V13.9994Z" fill="black"/>
<path d="M27.9993 13.9994H34.9991V20.9993H27.9993V13.9994Z" fill="black"/>
<path d="M118.998 13.9994H125.997V20.9993H118.998V13.9994Z" fill="black"/>
<path d="M125.998 13.9994H132.997V20.9993H125.998V13.9994Z" fill="black"/>
<path d="M13.9998 20.9992H20.9997V27.999H13.9998V20.9992Z" fill="black"/>
<path d="M132.997 20.9992H139.997V27.999H132.997V20.9992Z" fill="black"/>
<path d="M13.9998 27.9992H20.9997V34.999H13.9998V27.9992Z" fill="black"/>
<path d="M132.997 27.9992H139.997V34.999H132.997V27.9992Z" fill="black"/>
<path d="M13.9998 76.998H20.9996V83.999H13.9998V76.998Z" fill="black"/>
<path d="M132.997 76.998H139.997V83.999H132.997V76.998Z" fill="black"/>
<path d="M139.997 34.9992H146.997V41.999H139.997V34.9992Z" fill="black"/>
<path d="M139.997 41.9989H146.997V48.9988H139.997V41.9989Z" fill="black"/>
<path d="M139.997 48.9987H146.997V55.9985H139.997V48.9987Z" fill="black"/>
<path d="M139.997 55.9985H146.997V62.9983H139.997V55.9985Z" fill="black"/>
<path d="M139.997 62.9982H146.997V69.998H139.997V62.9982Z" fill="black"/>
<path d="M139.997 69.9982H146.997V76.998H139.997V69.9982Z" fill="black"/>
<path d="M13.9993 83.9992H20.9993V90.999H13.9993V83.9992Z" fill="black"/>
<path d="M132.997 83.9992H139.997V90.999H132.997V83.9992Z" fill="black"/>
<path d="M20.9993 90.9988H27.9992V97.9998H20.9993V90.9988Z" fill="black"/>
<path d="M27.9993 90.9988H34.999V97.9998H27.9993V90.9988Z" fill="black"/>
<path d="M118.998 90.9988H125.997V97.9998H118.998V90.9988Z" fill="black"/>
<path d="M125.998 90.9988H132.997V97.9998H125.998V90.9988Z" fill="black"/>
<path d="M34.999 97.9997H41.999V105H34.999V97.9997Z" fill="black"/>
<path d="M41.9988 97.9997H48.9987V105H41.9988V97.9997Z" fill="black"/>
<path d="M69.9983 97.9997H76.9982V105H69.9983V97.9997Z" fill="black"/>
<path d="M76.9983 97.9997H83.9985V105H76.9983V97.9997Z" fill="black"/>
<path d="M83.9985 97.9997H90.9984V105H83.9985V97.9997Z" fill="black"/>
<path d="M90.9983 97.9997H97.9981V105H90.9983V97.9997Z" fill="black"/>
<path d="M97.9983 97.9997H104.998V105H97.9983V97.9997Z" fill="black"/>
<path d="M104.998 97.9997H111.998V105H104.998V97.9997Z" fill="black"/>
<path d="M111.998 97.9997H118.998V105H111.998V97.9997Z" fill="black"/>
<path d="M41.9988 105H48.9987V112H41.9988V105Z" fill="black"/>
<path d="M62.9985 105H69.9985V112H62.9985V105Z" fill="black"/>
<path d="M41.9988 111.999H48.9987V118.999H41.9988V111.999Z" fill="black"/>
<path d="M55.9985 111.999H62.9984V118.999H55.9985V111.999Z" fill="black"/>
<path d="M41.9988 118.999H48.9986V125.999H41.9988V118.999Z" fill="black"/>
<path d="M48.9988 118.999H55.9986V125.999H48.9988V118.999Z" fill="black"/>
<path d="M41.9988 125.999H48.9987V132.999H41.9988V125.999Z" fill="black"/>
<path d="M7 20.998H13.9998V27.999H7V20.998Z" fill="white"/>
<path d="M7 27.9992H13.9998V34.999H7V27.9992Z" fill="white"/>
<path d="M0 34.9992H6.99995V41.999H0V34.9992Z" fill="white"/>
<path d="M0 41.9989H6.99983V48.9988H0V41.9989Z" fill="white"/>
<path d="M0 48.9987H6.99983V55.9985H0V48.9987Z" fill="white"/>
<path d="M0 55.9985H6.99983V62.9983H0V55.9985Z" fill="white"/>
<path d="M0 62.9982H6.99983V69.998H0V62.9982Z" fill="white"/>
<path d="M0 69.9982H6.99995V76.998H0V69.9982Z" fill="white"/>
<path d="M7 76.998H14V83.9978H7V76.998Z" fill="white"/>
<path d="M34.9993 -7.39098e-05H41.9993V6.99976H34.9993V-7.39098e-05Z" fill="white"/>
<path d="M41.9993 -7.39098e-05H48.9991V6.99976H41.9993V-7.39098e-05Z" fill="white"/>
<path d="M48.999 -7.39098e-05H55.999V6.99976H48.999V-7.39098e-05Z" fill="white"/>
<path d="M55.999 -7.39098e-05H62.9989V6.99976H55.999V-7.39098e-05Z" fill="white"/>
<path d="M62.9988 -7.39098e-05H69.9987V6.99976H62.9988V-7.39098e-05Z" fill="white"/>
<path d="M69.9985 -7.39098e-05H76.9984V6.99976H69.9985V-7.39098e-05Z" fill="white"/>
<path d="M76.9983 -7.39098e-05H83.9984V6.99976H76.9983V-7.39098e-05Z" fill="white"/>
<path d="M83.9985 -7.39098e-05H90.9984V6.99976H83.9985V-7.39098e-05Z" fill="white"/>
<path d="M90.9983 -7.39098e-05H97.9981V6.99976H90.9983V-7.39098e-05Z" fill="white"/>
<path d="M97.9983 -7.39098e-05H104.998V6.99976H97.9983V-7.39098e-05Z" fill="white"/>
<path d="M104.998 -7.39098e-05H111.998V6.99976H104.998V-7.39098e-05Z" fill="white"/>
<path d="M111.998 -7.39098e-05H118.998V6.99976H111.998V-7.39098e-05Z" fill="white"/>
<path d="M20.9995 6.99968H27.9992V13.9995H20.9995V6.99968Z" fill="white"/>
<path d="M27.9993 6.99968H34.9991V13.9995H27.9993V6.99968Z" fill="white"/>
<path d="M118.998 6.99968H125.997V13.9995H118.998V6.99968Z" fill="white"/>
<path d="M125.998 6.99968H132.997V13.9995H125.998V6.99968Z" fill="white"/>
<path d="M13.9998 13.9994H20.9997V20.9993H13.9998V13.9994Z" fill="white"/>
<path d="M132.997 13.9994H139.997V20.9993H132.997V13.9994Z" fill="white"/>
<path d="M139.997 20.998H146.997V27.999H139.997V20.998Z" fill="white"/>
<path d="M139.997 27.9992H146.997V34.999H139.997V27.9992Z" fill="white"/>
<path d="M146.997 34.9992H153.997V41.999H146.997V34.9992Z" fill="white"/>
<path d="M146.997 41.9989H153.997V48.9988H146.997V41.9989Z" fill="white"/>
<path d="M146.997 48.9987H153.997V55.9985H146.997V48.9987Z" fill="white"/>
<path d="M146.997 55.9985H153.997V62.9983H146.997V55.9985Z" fill="white"/>
<path d="M146.997 62.9982H153.997V69.998H146.997V62.9982Z" fill="white"/>
<path d="M146.997 69.9982H153.997V76.998H146.997V69.9982Z" fill="white"/>
<path d="M139.997 76.998H146.997V83.9978H139.997V76.998Z" fill="white"/>
<path d="M6.99951 83.9992H13.9996V90.999H6.99951V83.9992Z" fill="white"/>
<path d="M13.9993 90.9988H20.9991V97.9998H13.9993V90.9988Z" fill="white"/>
<path d="M132.997 90.9988H139.997V97.9998H132.997V90.9988Z" fill="white"/>
<path d="M20.9993 97.9997H27.9992V105H20.9993V97.9997Z" fill="white"/>
<path d="M27.9993 97.9997H34.999V105H27.9993V97.9997Z" fill="white"/>
<path d="M118.998 97.9997H125.997V105H118.998V97.9997Z" fill="white"/>
<path d="M125.998 97.9997H132.997V105H125.998V97.9997Z" fill="white"/>
<path d="M34.999 105H41.999V112H34.999V105Z" fill="white"/>
<path d="M76.9983 105H83.9986V112H76.9983V105Z" fill="white"/>
<path d="M83.9985 105H90.9984V112H83.9985V105Z" fill="white"/>
<path d="M90.9983 105H97.9981V112H90.9983V105Z" fill="white"/>
<path d="M97.9983 105H104.998V112H97.9983V105Z" fill="white"/>
<path d="M104.998 105H111.998V112H104.998V105Z" fill="white"/>
<path d="M111.998 105H118.998V112H111.998V105Z" fill="white"/>
<path d="M34.999 111.999H41.999V118.999H34.999V111.999Z" fill="white"/>
<path d="M69.9983 105H76.9981V112H69.9983V105Z" fill="white"/>
<path d="M34.999 118.999H41.999V125.999H34.999V118.999Z" fill="white"/>
<path d="M62.9985 111.999H69.9985V118.999H62.9985V111.999Z" fill="white"/>
<path d="M34.999 125.999H41.9989V132.999H34.999V125.999Z" fill="white"/>
<path d="M55.999 118.999H62.9987V125.999H55.999V118.999Z" fill="white"/>
<path d="M41.9988 132.999H48.9987V140H41.9988V132.999Z" fill="white"/>
<path d="M48.9988 125.999H55.9986V132.999H48.9988V125.999Z" fill="white"/>
<path d="M139.997 83.9992H146.997V90.999H139.997V83.9992Z" fill="white"/>
<path d="M34.999 132.999H41.9989V140H34.999V132.999Z" fill="white"/>
<path d="M29.712 68.384V56.8H26.832V53.92H23.92V47.808H27.152V53.6H30.032V56.512H32.656V53.6H35.536V47.808H38.8V53.92H35.856V56.8H32.976V68.384H29.712ZM43.332 65.504H40.42V53.6H43.652V65.184H52.036V53.6H55.3V65.504H52.356V68.384H43.332V65.504ZM59.17 68.384V53.6H68.226V56.512H70.786V53.6H76.962V56.512H79.842V68.384H76.642V56.8H71.106V68.384H67.906V56.8H62.402V68.384H59.17ZM83.7013 68.384V53.6H92.7573V56.512H95.3173V53.6H101.493V56.512H104.373V68.384H101.173V56.8H95.6373V68.384H92.4373V56.8H86.9333V68.384H83.7013ZM108.233 71.296V68.096H111.465V70.976H119.881V65.504H111.145V62.592H108.233V53.6H111.465V62.272H119.881V53.6H123.113V71.296H120.201V74.176H111.145V71.296H108.233ZM130.215 68.384H126.983V65.184H130.215V68.384ZM130.215 62.592H126.983V47.808H130.215V62.592Z" fill="black"/>
</svg>
