<svg width="37" height="37" viewBox="0 0 37 37" fill="none" xmlns="http://www.w3.org/2000/svg">
<path d="M23.7865 21.141V23.7866H21.1455V21.141H23.7865Z" fill="#F25972"/>
<path d="M23.7865 7.92707V10.5679H21.1455V7.92707H23.7865Z" fill="#F25972"/>
<path d="M21.1455 23.7864V26.4272H18.4999V23.7864H21.1455Z" fill="#F25972"/>
<path d="M21.1455 7.92707V10.5679H18.4999V7.92707H21.1455Z" fill="#F25972"/>
<path d="M18.4999 23.7864V26.4272H15.8592V23.7864H18.4999Z" fill="#F25972"/>
<path d="M18.4999 7.92707V10.5679H15.8592V7.92707H18.4999Z" fill="#F25972"/>
<path d="M15.8592 7.92707V10.5679H13.2185V7.92707H15.8592Z" fill="#F25972"/>
<path d="M13.2185 10.5683V13.2139H10.5729V10.5683H13.2185Z" fill="#F25972"/>
<path d="M10.5728 21.141V23.7866H7.93188V21.141H10.5728Z" fill="#F25972"/>
<path d="M10.5728 18.4998V21.1406H7.93188V18.4998H10.5728Z" fill="#F25972"/>
<path d="M10.5728 15.8544V18.5H7.93188V15.8544H10.5728Z" fill="#F25972"/>
<path d="M10.5728 13.2137V15.8545H7.93188V13.2137H10.5728Z" fill="#F25972"/>
<path d="M31.7186 15.8545V23.7865H29.073V26.4273H26.4322V29.0681H23.7865V31.7137H21.1455H18.4999H15.8592H13.2185V29.0681H10.5729V26.4273H7.93195V23.7865H5.28634V21.1409V18.5001V15.8545V13.2136H7.93195V10.568H10.5729V7.92723H13.2185V5.28162H15.8592H18.4999H21.1455H23.7865V7.92723H26.4322V10.568H29.073V13.2136H31.7186V15.8545ZM31.7186 10.568V7.92723H29.073V5.28162H26.4322V2.64082H23.7865H21.1455H18.4999H15.8592H13.2185H10.5729V5.28162H7.93195V7.92723H5.28634V10.568H2.64563V13.2136V15.8545V18.5001V21.1409V23.7865V26.4273H5.28634V29.0681V31.7137H7.93195H10.5729V34.3545H13.2185H15.8592H18.4999H21.1455H23.7865H26.4322V31.7137H29.073V29.0681H31.7186V26.4273H34.3594V23.7865V21.1409V18.5001V15.8545V13.2136V10.568H31.7186Z" fill="#FBC37D"/>
<path d="M21.1456 23.7863V26.4271H15.8593V21.1407H13.2185V18.4999V15.8542H15.8593V13.2134H18.5H21.1456V15.8542H23.7865V18.4999V21.1407V23.7863H21.1456ZM29.073 18.4999V13.2134H26.4322V10.5678H23.7865H21.1456H18.5H15.8593H13.2185V13.2134H10.5729V15.8542V18.4999V21.1407V23.7863V26.4271H13.2185V29.0679H15.8593H18.5H21.1456H23.7865V26.4271H26.4322V23.7863H29.073V21.1407V18.4999Z" fill="#FBC37D"/>
<path d="M34.3594 23.7864V26.4272H31.7186V23.7864H34.3594Z" fill="#F9A770"/>
<path d="M34.3594 21.141V23.7866H31.7186V21.141H34.3594Z" fill="#DA625C"/>
<path d="M34.3594 18.4998V21.1406H31.7186V18.4998H34.3594Z" fill="#F9A770"/>
<path d="M34.3594 15.8544V18.5H31.7186V15.8544H34.3594Z" fill="#DA625C"/>
<path d="M34.3594 13.2137V15.8545H31.7186V13.2137H34.3594Z" fill="#F9A770"/>
<path d="M34.3594 10.5683V13.2139H31.7186V10.5683H34.3594Z" fill="#F9A770"/>
<path d="M31.7186 26.4271V29.0679H29.073V26.4271H31.7186Z" fill="#DA625C"/>
<path d="M31.7186 23.7864V26.4272H29.073V23.7864H31.7186Z" fill="#F9A770"/>
<path d="M29.0729 29.0683V31.7139H26.4321V29.0683H29.0729Z" fill="#DA625C"/>
<path d="M29.0729 26.4271V29.0679H26.4321V26.4271H29.0729Z" fill="#F9A770"/>
<path d="M29.0729 18.4998V21.1406H26.4321V18.4998H29.0729Z" fill="#F57961"/>
<path d="M29.0729 15.8544V18.5H26.4321V15.8544H29.0729Z" fill="#F57961"/>
<path d="M29.0729 5.28163V7.92725H26.4321V5.28163H29.0729Z" fill="#F57961"/>
<path d="M26.4321 31.7137V34.3545H23.7864V31.7137H26.4321Z" fill="#F57961"/>
<path d="M26.4321 29.0683V31.7139H23.7864V29.0683H26.4321Z" fill="#F9A770"/>
<path d="M23.7865 21.141V23.7866H21.1455V21.141H23.7865Z" fill="#DA625C"/>
<path d="M23.7865 18.4998V21.1406H21.1455V18.4998H23.7865Z" fill="#FDE1B6"/>
<path d="M23.7865 15.8544V18.5H21.1455V15.8544H23.7865Z" fill="#FDE1B6"/>
<path d="M23.7865 7.92707V10.5679H21.1455V7.92707H23.7865Z" fill="#DA625C"/>
<path d="M21.1455 23.7864V26.4272H18.4999V23.7864H21.1455Z" fill="#DA625C"/>
<path d="M21.1455 21.141V23.7866H18.4999V21.141H21.1455Z" fill="#FDE1B6"/>
<path d="M21.1455 18.4998V21.1406H18.4999V18.4998H21.1455Z" fill="#FDE1B6"/>
<path d="M21.1455 15.8544V18.5H18.4999V15.8544H21.1455Z" fill="#FDE1B6"/>
<path d="M21.1455 13.2137V15.8545H18.4999V13.2137H21.1455Z" fill="#FDE1B6"/>
<path d="M21.1455 7.92707V10.5679H18.4999V7.92707H21.1455Z" fill="#DA625C"/>
<path d="M18.4999 23.7864V26.4272H15.8592V23.7864H18.4999Z" fill="#DA625C"/>
<path d="M18.4999 21.141V23.7866H15.8592V21.141H18.4999Z" fill="#FDE1B6"/>
<path d="M18.4999 18.4998V21.1406H15.8592V18.4998H18.4999Z" fill="#FDE1B6"/>
<path d="M18.4999 15.8544V18.5H15.8592V15.8544H18.4999Z" fill="#FDE1B6"/>
<path d="M18.4999 13.2137V15.8545H15.8592V13.2137H18.4999Z" fill="#FDE1B6"/>
<path d="M18.4999 7.92707V10.5679H15.8592V7.92707H18.4999Z" fill="#DA625C"/>
<path d="M15.8592 18.4998V21.1406H13.2185V18.4998H15.8592Z" fill="#FDE1B6"/>
<path d="M15.8592 15.8544V18.5H13.2185V15.8544H15.8592Z" fill="#FDE1B6"/>
<path d="M15.8592 7.92707V10.5679H13.2185V7.92707H15.8592Z" fill="#DA625C"/>
<path d="M13.2185 10.5683V13.2139H10.5729V10.5683H13.2185Z" fill="#DA625C"/>
<path d="M10.5728 29.0683V31.7139H7.93188V29.0683H10.5728Z" fill="#F9A770"/>
<path d="M10.5728 21.141V23.7866H7.93188V21.141H10.5728Z" fill="#DA625C"/>
<path d="M10.5728 18.4998V21.1406H7.93188V18.4998H10.5728Z" fill="#DA625C"/>
<path d="M10.5728 15.8544V18.5H7.93188V15.8544H10.5728Z" fill="#DA625C"/>
<path d="M10.5728 13.2137V15.8545H7.93188V13.2137H10.5728Z" fill="#DA625C"/>
<path d="M10.5729 2.64094V5.28174H13.2185V2.64094H10.5729Z" fill="#FDE1B6"/>
<path d="M7.93188 7.92725H10.5728V5.28163H7.93188V7.92725Z" fill="#FDE1B6"/>
<path d="M5.28632 10.5679H7.93193V7.92707H5.28632V10.5679Z" fill="#FDE1B6"/>
<path d="M2.64563 13.2138V23.7866H5.28634V10.5682H2.64563V13.2138Z" fill="#FDE1B6"/>
<path d="M31.7186 21.141V23.7866H29.073V21.141H31.7186Z" fill="#DA625C"/>
<path d="M31.7186 18.4998V21.1406H29.073V18.4998H31.7186Z" fill="#DA625C"/>
<path d="M31.7186 15.8544V18.5H29.073V15.8544H31.7186Z" fill="#DA625C"/>
<path d="M31.7186 13.2137V15.8545H29.073V13.2137H31.7186Z" fill="#DA625C"/>
<path d="M29.0729 23.7864V26.4272H26.4321V23.7864H29.0729Z" fill="#DA625C"/>
<path d="M29.0729 18.4998V21.1406H26.4321V18.4998H29.0729Z" fill="#F9A770"/>
<path d="M29.0729 15.8544V18.5H26.4321V15.8544H29.0729Z" fill="#F9A770"/>
<path d="M29.0729 10.5683V13.2139H26.4321V10.5683H29.0729Z" fill="#DA625C"/>
<path d="M26.4321 26.4271V29.0679H23.7864V26.4271H26.4321Z" fill="#DA625C"/>
<path d="M26.4321 23.7864V26.4272H23.7864V23.7864H26.4321Z" fill="#F9A770"/>
<path d="M26.4321 13.2137V15.8545H23.7864V13.2137H26.4321Z" fill="#F9A770"/>
<path d="M26.4321 7.92707V10.5679H23.7864V7.92707H26.4321Z" fill="#DA625C"/>
<path d="M23.7865 29.0683V31.7139H21.1455V29.0683H23.7865Z" fill="#DA625C"/>
<path d="M23.7865 18.4998V21.1406H21.1455V18.4998H23.7865Z" fill="#DA625C"/>
<path d="M23.7865 15.8544V18.5H21.1455V15.8544H23.7865Z" fill="#DA625C"/>
<path d="M23.7865 5.28163V7.92725H21.1455V5.28163H23.7865Z" fill="#DA625C"/>
<path d="M21.1455 29.0683V31.7139H18.4999V29.0683H21.1455Z" fill="#DA625C"/>
<path d="M21.1455 21.141V23.7866H18.4999V21.141H21.1455Z" fill="#DA625C"/>
<path d="M21.1455 18.4998V21.1406H18.4999V18.4998H21.1455Z" fill="#F9A770"/>
<path d="M21.1455 15.8544V18.5H18.4999V15.8544H21.1455Z" fill="#F9A770"/>
<path d="M21.1455 13.2137V15.8545H18.4999V13.2137H21.1455Z" fill="#DA625C"/>
<path d="M21.1455 5.28163V7.92725H18.4999V5.28163H21.1455Z" fill="#DA625C"/>
<path d="M18.4999 29.0683V31.7139H15.8592V29.0683H18.4999Z" fill="#DA625C"/>
<path d="M18.4999 21.141V23.7866H15.8592V21.141H18.4999Z" fill="#DA625C"/>
<path d="M18.4999 18.4998V21.1406H15.8592V18.4998H18.4999Z" fill="#F9A770"/>
<path d="M18.4999 13.2137V15.8545H15.8592V13.2137H18.4999Z" fill="#DA625C"/>
<path d="M18.4999 5.28163V7.92725H15.8592V5.28163H18.4999Z" fill="#DA625C"/>
<path d="M15.8592 29.0683V31.7139H13.2185V29.0683H15.8592Z" fill="#DA625C"/>
<path d="M15.8592 26.4271V29.0679H13.2185V26.4271H15.8592Z" fill="#F9A770"/>
<path d="M15.8592 18.4998V21.1406H13.2185V18.4998H15.8592Z" fill="#DA625C"/>
<path d="M15.8592 15.8544V18.5H13.2185V15.8544H15.8592Z" fill="#DA625C"/>
<path d="M15.8592 5.28163V7.92725H13.2185V5.28163H15.8592Z" fill="#DA625C"/>
<path d="M13.2185 26.4271V29.0679H10.5729V26.4271H13.2185Z" fill="#DA625C"/>
<path d="M13.2185 7.92707V10.5679H10.5729V7.92707H13.2185Z" fill="#DA625C"/>
<path d="M10.5728 23.7864V26.4272H7.93188V23.7864H10.5728Z" fill="#DA625C"/>
<path d="M31.7186 23.7866H34.3594V21.141H31.7186V23.7866Z" fill="#F7966D"/>
<path d="M31.7186 15.8544V18.5H34.3594V15.8544H31.7186Z" fill="#F7966D"/>
<path d="M29.073 29.0679H31.7186V26.4271H29.073V29.0679Z" fill="#F7966D"/>
<path d="M26.4321 31.7139H29.0729V29.0683H26.4321V31.7139Z" fill="#F7966D"/>
<path d="M21.1455 23.7866H23.7865V21.141H21.1455V23.7866Z" fill="#F7966D"/>
<path d="M18.4999 7.92707H13.2185V10.5679H23.7865V7.92707H21.1455H18.4999Z" fill="#F7966D"/>
<path d="M15.8592 23.7864V26.4272H21.1455V23.7864H18.4999H15.8592Z" fill="#F7966D"/>
<path d="M10.5729 13.2139H13.2185V10.5683H10.5729V13.2139Z" fill="#F7966D"/>
<path d="M7.93188 15.8546V23.7866H10.5728V13.2138H7.93188V15.8546Z" fill="#F7966D"/>
<path d="M10.5728 10.5683V13.2139H7.93188V10.5683H10.5728Z" fill="#DA625C"/>
<path d="M7.93193 21.141V23.7866H5.28632V21.141H7.93193Z" fill="#DA625C"/>
<path d="M7.93193 18.4998V21.1406H5.28632V18.4998H7.93193Z" fill="#DA625C"/>
<path d="M7.93193 15.8544V18.5H5.28632V15.8544H7.93193Z" fill="#DA625C"/>
<path d="M7.93193 13.2137V15.8545H5.28632V13.2137H7.93193Z" fill="#DA625C"/>
<path d="M29.073 15.8546V23.7866H31.7186V13.2138H29.073V15.8546Z" fill="#3F3763"/>
<path d="M26.4321 26.4272H29.0729V23.7864H26.4321V26.4272Z" fill="#3F3763"/>
<path d="M29.0729 13.2139V10.5683H26.4321V13.2139H29.0729Z" fill="#3F3763"/>
<path d="M23.7864 29.0679H26.4321V26.4271H23.7864V29.0679Z" fill="#3F3763"/>
<path d="M26.4321 10.5679V7.92707H23.7864V10.5679H26.4321Z" fill="#3F3763"/>
<path d="M18.4999 29.0683H13.2185V31.7139H23.7865V29.0683H21.1455H18.4999Z" fill="#3F3763"/>
<path d="M18.4999 7.92725H23.7865V5.28163H13.2185V7.92725H15.8592H18.4999Z" fill="#3F3763"/>
<path d="M10.5729 26.4271V29.0679H13.2185V26.4271H10.5729Z" fill="#3F3763"/>
<path d="M13.2185 7.92707H10.5729V10.5679H13.2185V7.92707Z" fill="#3F3763"/>
<path d="M7.93188 23.7864V26.4272H10.5728V23.7864H7.93188Z" fill="#3F3763"/>
<path d="M10.5728 10.5683H7.93188V13.2139H10.5728V10.5683Z" fill="#3F3763"/>
<path d="M7.93193 18.5002V13.2138H5.28632V23.7866H7.93193V21.141V18.5002Z" fill="#3F3763"/>
<path d="M34.3594 10.568V26.4272H37.005V10.568H34.3594Z" fill="#3F3763"/>
<path d="M31.7186 29.0679H34.3594V26.4271H31.7186V29.0679Z" fill="#3F3763"/>
<path d="M34.3594 10.5679V7.92707H31.7186V10.5679H34.3594Z" fill="#3F3763"/>
<path d="M29.073 31.7139H31.7186V29.0683H29.073V31.7139Z" fill="#3F3763"/>
<path d="M31.7186 7.92725V5.28163H29.073V7.92725H31.7186Z" fill="#3F3763"/>
<path d="M26.4321 34.3545H29.0729V31.7137H26.4321V34.3545Z" fill="#3F3763"/>
<path d="M29.0729 5.28174V2.64094H26.4321V5.28174H29.0729Z" fill="#3F3763"/>
<path d="M21.1456 34.3544H10.5729V37H26.4322V34.3544H23.7865H21.1456Z" fill="#3F3763"/>
<path d="M15.8593 2.64062H26.4322V-0.000172904H10.5729V2.64062H13.2185H15.8593Z" fill="#3F3763"/>
<path d="M7.93188 31.7137V34.3545H10.5728V31.7137H7.93188Z" fill="#3F3763"/>
<path d="M10.5728 2.64094H7.93188V5.28174H10.5728V2.64094Z" fill="#3F3763"/>
<path d="M5.28632 29.0683V31.7139H7.93193V29.0683H5.28632Z" fill="#3F3763"/>
<path d="M7.93193 5.28163H5.28632V7.92725H7.93193V5.28163Z" fill="#3F3763"/>
<path d="M2.64563 26.4271V29.0679H5.28634V26.4271H2.64563Z" fill="#3F3763"/>
<path d="M5.28634 7.92707H2.64563V10.5679H5.28634V7.92707Z" fill="#3F3763"/>
<path d="M2.64561 21.1408V10.568H0V26.4272H2.64561V23.7864V21.1408Z" fill="#3F3763"/>
</svg>
