<svg width="392" height="418" viewBox="0 0 392 418" fill="none" xmlns="http://www.w3.org/2000/svg">
<path d="M248.187 13.0632H235.124V-6.91108e-05H248.187V13.0632Z" fill="#BDC3C1"/>
<path d="M208.998 13.0632H195.936V-6.91108e-05H208.998V13.0632Z" fill="#BDC3C1"/>
<path d="M261.248 26.1265H248.187V13.0632H261.248V26.1265Z" fill="#BDC3C1"/>
<path d="M195.936 26.1265H182.873V13.0632H195.936V26.1265Z" fill="#BDC3C1"/>
<path d="M261.248 39.1899H248.187V26.1267H261.248V39.1899Z" fill="#BDC3C1"/>
<path d="M195.936 39.1899H182.873V26.1267H195.936V39.1899Z" fill="#BDC3C1"/>
<path d="M261.248 52.2507H248.187V39.1899H261.248V52.2507Z" fill="#BDC3C1"/>
<path d="M195.936 52.2507H182.873V39.1899H195.936V52.2507Z" fill="#BDC3C1"/>
<path d="M248.187 65.314H235.124V52.2507H248.187V65.314Z" fill="#BDC3C1"/>
<path d="M208.998 65.314H195.936V52.2507H208.998V65.314Z" fill="#BDC3C1"/>
<path d="M235.124 26.1265H222.06V13.0632H235.124V26.1265Z" fill="#F5F7F0"/>
<path d="M222.06 26.1265H208.998V13.0632H222.06V26.1265Z" fill="#F5F7F0"/>
<path d="M248.187 39.1899H235.124V26.1267H248.187V39.1899Z" fill="#F5F7F0"/>
<path d="M208.998 39.1899H195.936V26.1267H208.998V39.1899Z" fill="#F5F7F0"/>
<path d="M235.124 52.2507H222.06V39.1899H235.124V52.2507Z" fill="#F5F7F0"/>
<path d="M222.06 52.2507H208.999V39.1899H222.06V52.2507Z" fill="#F5F7F0"/>
<path d="M300.435 78.3748H287.374V65.314H300.435V78.3748Z" fill="#F5F7F0"/>
<path d="M287.374 78.3748H274.311V65.314H287.374V78.3748Z" fill="#F5F7F0"/>
<path d="M300.435 91.438H287.374V78.3747H300.435V91.438Z" fill="#F5F7F0"/>
<path d="M287.374 91.438H274.311V78.3747H287.374V91.438Z" fill="#F5F7F0"/>
<path d="M235.124 13.0632H222.06V-6.91108e-05H235.124V13.0632Z" fill="#AEB3AC"/>
<path d="M222.06 13.0632H208.998V-6.91108e-05H222.06V13.0632Z" fill="#AEB3AC"/>
<path d="M248.187 26.1265H235.124V13.0632H248.187V26.1265Z" fill="#AEB3AC"/>
<path d="M208.998 26.1265H195.936V13.0632H208.998V26.1265Z" fill="#AEB3AC"/>
<path d="M248.187 52.2507H235.124V39.1899H248.187V52.2507Z" fill="#AEB3AC"/>
<path d="M208.999 52.2507H195.936V39.1899H208.999V52.2507Z" fill="#AEB3AC"/>
<path d="M300.435 65.314H287.374V52.2507H300.435V65.314Z" fill="#AEB3AC"/>
<path d="M287.374 65.314H274.311V52.2507H287.374V65.314Z" fill="#AEB3AC"/>
<path d="M235.124 65.314H222.06V52.2507H235.124V65.314Z" fill="#AEB3AC"/>
<path d="M222.06 65.314H208.998V52.2507H222.06V65.314Z" fill="#AEB3AC"/>
<path d="M313.498 78.3748H300.435V65.314H313.498V78.3748Z" fill="#AEB3AC"/>
<path d="M274.311 78.3748H261.248V65.314H274.311V78.3748Z" fill="#AEB3AC"/>
<path d="M313.498 91.438H300.435V78.3747H313.498V91.438Z" fill="#AEB3AC"/>
<path d="M274.311 91.438H261.248V78.3747H274.311V91.438Z" fill="#AEB3AC"/>
<path d="M300.435 104.501H287.374V91.4379H300.435V104.501Z" fill="#AEB3AC"/>
<path d="M287.374 104.501H274.311V91.4379H287.374V104.501Z" fill="#AEB3AC"/>
<path d="M248.187 195.937H235.124V182.873H248.187V195.937Z" fill="#C7DBCE"/>
<path d="M169.811 195.937H156.749V182.873H169.811V195.937Z" fill="#C7DBCE"/>
<path d="M326.562 209H313.498V195.937H326.562V209Z" fill="#C7DBCE"/>
<path d="M222.06 130.623H208.998V117.562H222.06V130.623Z" fill="#B70A21"/>
<path d="M208.998 130.623H195.936V117.562H208.998V130.623Z" fill="#B70A21"/>
<path d="M195.936 130.623H182.873V117.562H195.936V130.623Z" fill="#B70A21"/>
<path d="M339.622 143.686H326.562V130.623H339.622V143.686Z" fill="#B70A21"/>
<path d="M326.562 143.686H313.498V130.623H326.562V143.686Z" fill="#B70A21"/>
<path d="M313.498 143.686H300.435V130.623H313.498V143.686Z" fill="#B70A21"/>
<path d="M300.435 143.686H287.374V130.623H300.435V143.686Z" fill="#B70A21"/>
<path d="M287.374 143.686H274.311V130.623H287.374V143.686Z" fill="#B70A21"/>
<path d="M274.311 143.686H261.248V130.623H274.311V143.686Z" fill="#B70A21"/>
<path d="M235.124 143.686H222.06V130.623H235.124V143.686Z" fill="#B70A21"/>
<path d="M222.06 143.686H208.998V130.623H222.06V143.686Z" fill="#B70A21"/>
<path d="M195.936 143.686H182.873V130.623H195.936V143.686Z" fill="#B70A21"/>
<path d="M182.874 143.686H169.811V130.623H182.874V143.686Z" fill="#B70A21"/>
<path d="M339.622 156.749H326.562V143.686H339.622V156.749Z" fill="#B70A21"/>
<path d="M326.562 156.749H313.498V143.686H326.562V156.749Z" fill="#B70A21"/>
<path d="M313.498 156.749H300.435V143.686H313.498V156.749Z" fill="#B70A21"/>
<path d="M300.435 156.749H287.374V143.686H300.435V156.749Z" fill="#B70A21"/>
<path d="M287.374 156.749H274.311V143.686H287.374V156.749Z" fill="#B70A21"/>
<path d="M274.311 156.749H261.248V143.686H274.311V156.749Z" fill="#B70A21"/>
<path d="M248.187 156.749H235.124V143.686H248.187V156.749Z" fill="#B70A21"/>
<path d="M235.124 156.749H222.06V143.686H235.124V156.749Z" fill="#B70A21"/>
<path d="M208.999 156.749H195.936V143.686H208.999V156.749Z" fill="#B70A21"/>
<path d="M182.874 156.749H169.811V143.686H182.874V156.749Z" fill="#B70A21"/>
<path d="M169.811 156.749H156.749V143.686H169.811V156.749Z" fill="#B70A21"/>
<path d="M339.622 169.813H326.562V156.749H339.622V169.813Z" fill="#B70A21"/>
<path d="M326.562 169.813H313.498V156.749H326.562V169.813Z" fill="#B70A21"/>
<path d="M313.498 169.813H300.435V156.749H313.498V169.813Z" fill="#B70A21"/>
<path d="M300.435 169.813H287.374V156.749H300.435V169.813Z" fill="#B70A21"/>
<path d="M287.374 169.813H274.311V156.749H287.374V169.813Z" fill="#B70A21"/>
<path d="M261.248 169.813H248.187V156.749H261.248V169.813Z" fill="#B70A21"/>
<path d="M248.187 169.813H235.124V156.749H248.187V169.813Z" fill="#B70A21"/>
<path d="M208.998 169.813H195.936V156.749H208.998V169.813Z" fill="#B70A21"/>
<path d="M169.811 169.813H156.749V156.749H169.811V169.813Z" fill="#B70A21"/>
<path d="M156.749 169.813H143.686V156.749H156.749V169.813Z" fill="#B70A21"/>
<path d="M274.311 182.874H261.248V169.813H274.311V182.874Z" fill="#B70A21"/>
<path d="M261.248 182.874H248.187V169.813H261.248V182.874Z" fill="#B70A21"/>
<path d="M235.124 182.874H222.06V169.813H235.124V182.874Z" fill="#B70A21"/>
<path d="M208.999 182.874H195.936V169.813H208.999V182.874Z" fill="#B70A21"/>
<path d="M182.874 182.874H169.811V169.813H182.874V182.874Z" fill="#B70A21"/>
<path d="M156.749 182.874H143.686V169.813H156.749V182.874Z" fill="#B70A21"/>
<path d="M143.686 182.874H130.624V169.813H143.686V182.874Z" fill="#B70A21"/>
<path d="M287.374 195.937H274.311V182.873H287.374V195.937Z" fill="#B70A21"/>
<path d="M274.311 195.937H261.248V182.873H274.311V195.937Z" fill="#B70A21"/>
<path d="M222.06 195.937H208.999V182.873H222.06V195.937Z" fill="#B70A21"/>
<path d="M208.999 195.937H195.936V182.873H208.999V195.937Z" fill="#B70A21"/>
<path d="M195.936 195.937H182.873V182.873H195.936V195.937Z" fill="#B70A21"/>
<path d="M143.686 195.937H130.624V182.873H143.686V195.937Z" fill="#B70A21"/>
<path d="M130.624 195.937H117.562V182.873H130.624V195.937Z" fill="#B70A21"/>
<path d="M300.435 209H287.374V195.937H300.435V209Z" fill="#B70A21"/>
<path d="M287.374 209H274.311V195.937H287.374V209Z" fill="#B70A21"/>
<path d="M261.248 209H248.187V195.937H261.248V209Z" fill="#B70A21"/>
<path d="M248.187 209H235.124V195.937H248.187V209Z" fill="#B70A21"/>
<path d="M235.124 209H222.06V195.937H235.124V209Z" fill="#B70A21"/>
<path d="M222.06 209H208.999V195.937H222.06V209Z" fill="#B70A21"/>
<path d="M208.999 209H195.936V195.937H208.999V209Z" fill="#B70A21"/>
<path d="M195.936 209H182.873V195.937H195.936V209Z" fill="#B70A21"/>
<path d="M182.874 209H169.811V195.937H182.874V209Z" fill="#B70A21"/>
<path d="M169.812 209H156.749V195.937H169.812V209Z" fill="#B70A21"/>
<path d="M156.749 209H143.686V195.937H156.749V209Z" fill="#B70A21"/>
<path d="M130.624 209H117.562V195.937H130.624V209Z" fill="#B70A21"/>
<path d="M117.562 209H104.499V195.937H117.562V209Z" fill="#B70A21"/>
<path d="M313.498 222.063H300.435V209H313.498V222.063Z" fill="#B70A21"/>
<path d="M300.435 222.063H287.374V209H300.435V222.063Z" fill="#B70A21"/>
<path d="M117.561 222.063H104.499V209H117.561V222.063Z" fill="#B70A21"/>
<path d="M104.499 222.063H91.4364V209H104.499V222.063Z" fill="#B70A21"/>
<path d="M326.562 235.124H313.498V222.063H326.562V235.124Z" fill="#B70A21"/>
<path d="M313.498 235.124H300.435V222.063H313.498V235.124Z" fill="#B70A21"/>
<path d="M104.499 235.124H91.4364V222.063H104.499V235.124Z" fill="#B70A21"/>
<path d="M91.4364 235.124H78.3741V222.063H91.4364V235.124Z" fill="#B70A21"/>
<path d="M339.622 248.188H326.562V235.124H339.622V248.188Z" fill="#B70A21"/>
<path d="M326.562 248.188H313.498V235.124H326.562V248.188Z" fill="#B70A21"/>
<path d="M91.4364 248.188H78.3741V235.124H91.4364V248.188Z" fill="#B70A21"/>
<path d="M78.3742 248.188H65.3119V235.124H78.3742V248.188Z" fill="#B70A21"/>
<path d="M352.686 261.25H339.622V248.187H352.686V261.25Z" fill="#B70A21"/>
<path d="M339.622 261.25H326.562V248.187H339.622V261.25Z" fill="#B70A21"/>
<path d="M78.3742 261.25H65.3119V248.187H78.3742V261.25Z" fill="#B70A21"/>
<path d="M65.3117 261.25H52.2494V248.187H65.3117V261.25Z" fill="#B70A21"/>
<path d="M365.746 274.312H352.686V261.248H365.746V274.312Z" fill="#B70A21"/>
<path d="M352.686 274.312H339.622V261.248H352.686V274.312Z" fill="#B70A21"/>
<path d="M65.3117 274.312H52.2494V261.248H65.3117V274.312Z" fill="#B70A21"/>
<path d="M52.2494 274.312H39.1871V261.248H52.2494V274.312Z" fill="#B70A21"/>
<path d="M222.06 169.813H208.998V156.749H222.06V169.813Z" fill="#E8FAEF"/>
<path d="M195.936 169.813H182.873V156.749H195.936V169.813Z" fill="#E8FAEF"/>
<path d="M326.562 195.937H313.498V182.873H326.562V195.937Z" fill="#E8FAEF"/>
<path d="M313.498 195.937H300.435V182.873H313.498V195.937Z" fill="#E8FAEF"/>
<path d="M182.874 313.499H169.811V300.438H182.874V313.499Z" fill="#E8FAEF"/>
<path d="M104.499 313.499H91.4368V300.438H104.499V313.499Z" fill="#E8FAEF"/>
<path d="M287.374 235.124H274.311V222.063H287.374V235.124Z" fill="#B5CECD"/>
<path d="M274.311 235.124H261.248V222.063H274.311V235.124Z" fill="#B5CECD"/>
<path d="M261.248 235.124H248.187V222.063H261.248V235.124Z" fill="#B5CECD"/>
<path d="M248.187 235.124H235.124V222.063H248.187V235.124Z" fill="#B5CECD"/>
<path d="M235.124 235.124H222.06V222.063H235.124V235.124Z" fill="#B5CECD"/>
<path d="M222.06 235.124H208.998V222.063H222.06V235.124Z" fill="#B5CECD"/>
<path d="M208.998 235.124H195.936V222.063H208.998V235.124Z" fill="#B5CECD"/>
<path d="M195.936 235.124H182.873V222.063H195.936V235.124Z" fill="#B5CECD"/>
<path d="M182.874 235.124H169.811V222.063H182.874V235.124Z" fill="#B5CECD"/>
<path d="M169.811 235.124H156.749V222.063H169.811V235.124Z" fill="#B5CECD"/>
<path d="M156.749 235.124H143.686V222.063H156.749V235.124Z" fill="#B5CECD"/>
<path d="M143.686 235.124H130.624V222.063H143.686V235.124Z" fill="#B5CECD"/>
<path d="M130.624 235.124H117.561V222.063H130.624V235.124Z" fill="#B5CECD"/>
<path d="M300.435 248.188H287.374V235.124H300.435V248.188Z" fill="#B5CECD"/>
<path d="M117.561 248.188H104.499V235.124H117.561V248.188Z" fill="#B5CECD"/>
<path d="M104.499 261.25H91.4368V248.187H104.499V261.25Z" fill="#B5CECD"/>
<path d="M91.4364 274.312H78.3741V261.248H91.4364V274.312Z" fill="#B5CECD"/>
<path d="M91.4364 287.375H78.3741V274.312H91.4364V287.375Z" fill="#B5CECD"/>
<path d="M91.4364 300.438H78.3741V287.375H91.4364V300.438Z" fill="#B5CECD"/>
<path d="M91.4367 313.499H78.3741V300.438H91.4367V313.499Z" fill="#B5CECD"/>
<path d="M91.4364 326.562H78.3741V313.499H91.4364V326.562Z" fill="#B5CECD"/>
<path d="M91.4367 339.625H78.3741V326.562H91.4367V339.625Z" fill="#B5CECD"/>
<path d="M287.374 248.188H274.311V235.124H287.374V248.188Z" fill="#F8F9F2"/>
<path d="M274.311 248.188H261.248V235.124H274.311V248.188Z" fill="#F8F9F2"/>
<path d="M261.248 248.188H248.187V235.124H261.248V248.188Z" fill="#F8F9F2"/>
<path d="M248.187 248.188H235.124V235.124H248.187V248.188Z" fill="#F8F9F2"/>
<path d="M235.124 248.188H222.06V235.124H235.124V248.188Z" fill="#F8F9F2"/>
<path d="M222.06 248.188H208.998V235.124H222.06V248.188Z" fill="#F8F9F2"/>
<path d="M208.998 248.188H195.936V235.124H208.998V248.188Z" fill="#F8F9F2"/>
<path d="M195.936 248.188H182.873V235.124H195.936V248.188Z" fill="#F8F9F2"/>
<path d="M182.874 248.188H169.811V235.124H182.874V248.188Z" fill="#F8F9F2"/>
<path d="M169.811 248.188H156.749V235.124H169.811V248.188Z" fill="#F8F9F2"/>
<path d="M156.749 248.188H143.686V235.124H156.749V248.188Z" fill="#F8F9F2"/>
<path d="M143.686 248.188H130.624V235.124H143.686V248.188Z" fill="#F8F9F2"/>
<path d="M130.624 248.188H117.561V235.124H130.624V248.188Z" fill="#F8F9F2"/>
<path d="M313.498 261.25H300.435V248.187H313.498V261.25Z" fill="#F8F9F2"/>
<path d="M300.435 261.25H287.374V248.187H300.435V261.25Z" fill="#F8F9F2"/>
<path d="M287.374 261.25H274.311V248.187H287.374V261.25Z" fill="#F8F9F2"/>
<path d="M274.311 261.25H261.248V248.187H274.311V261.25Z" fill="#F8F9F2"/>
<path d="M261.248 261.25H248.187V248.187H261.248V261.25Z" fill="#F8F9F2"/>
<path d="M248.187 261.25H235.124V248.187H248.187V261.25Z" fill="#F8F9F2"/>
<path d="M235.124 261.25H222.06V248.187H235.124V261.25Z" fill="#F8F9F2"/>
<path d="M222.06 261.25H208.998V248.187H222.06V261.25Z" fill="#F8F9F2"/>
<path d="M208.998 261.25H195.936V248.187H208.998V261.25Z" fill="#F8F9F2"/>
<path d="M195.936 261.25H182.873V248.187H195.936V261.25Z" fill="#F8F9F2"/>
<path d="M182.874 261.25H169.811V248.187H182.874V261.25Z" fill="#F8F9F2"/>
<path d="M169.811 261.25H156.749V248.187H169.811V261.25Z" fill="#F8F9F2"/>
<path d="M156.749 261.25H143.686V248.187H156.749V261.25Z" fill="#F8F9F2"/>
<path d="M143.686 261.25H130.624V248.187H143.686V261.25Z" fill="#F8F9F2"/>
<path d="M130.624 261.25H117.562V248.187H130.624V261.25Z" fill="#F8F9F2"/>
<path d="M117.561 261.25H104.499V248.187H117.561V261.25Z" fill="#F8F9F2"/>
<path d="M326.562 274.312H313.498V261.248H326.562V274.312Z" fill="#F8F9F2"/>
<path d="M313.498 274.312H300.435V261.248H313.498V274.312Z" fill="#F8F9F2"/>
<path d="M300.435 274.312H287.374V261.248H300.435V274.312Z" fill="#F8F9F2"/>
<path d="M287.374 274.312H274.311V261.248H287.374V274.312Z" fill="#F8F9F2"/>
<path d="M235.124 274.312H222.06V261.248H235.124V274.312Z" fill="#F8F9F2"/>
<path d="M222.06 274.312H208.998V261.248H222.06V274.312Z" fill="#F8F9F2"/>
<path d="M208.998 274.312H195.936V261.248H208.998V274.312Z" fill="#F8F9F2"/>
<path d="M195.936 274.312H182.873V261.248H195.936V274.312Z" fill="#F8F9F2"/>
<path d="M182.874 274.312H169.811V261.248H182.874V274.312Z" fill="#F8F9F2"/>
<path d="M169.811 274.312H156.749V261.248H169.811V274.312Z" fill="#F8F9F2"/>
<path d="M117.561 274.312H104.499V261.248H117.561V274.312Z" fill="#F8F9F2"/>
<path d="M104.499 274.312H91.4364V261.248H104.499V274.312Z" fill="#F8F9F2"/>
<path d="M326.562 287.375H313.498V274.312H326.562V287.375Z" fill="#F8F9F2"/>
<path d="M313.498 287.375H300.435V274.312H313.498V287.375Z" fill="#F8F9F2"/>
<path d="M300.435 287.375H287.374V274.312H300.435V287.375Z" fill="#F8F9F2"/>
<path d="M222.06 287.375H208.998V274.312H222.06V287.375Z" fill="#F8F9F2"/>
<path d="M208.998 287.375H195.936V274.312H208.998V287.375Z" fill="#F8F9F2"/>
<path d="M195.936 287.375H182.873V274.312H195.936V287.375Z" fill="#F8F9F2"/>
<path d="M182.874 287.375H169.811V274.312H182.874V287.375Z" fill="#F8F9F2"/>
<path d="M104.499 287.375H91.4368V274.312H104.499V287.375Z" fill="#F8F9F2"/>
<path d="M326.562 300.438H313.498V287.375H326.562V300.438Z" fill="#F8F9F2"/>
<path d="M313.498 300.438H300.435V287.375H313.498V300.438Z" fill="#F8F9F2"/>
<path d="M208.998 300.438H195.936V287.375H208.998V300.438Z" fill="#F8F9F2"/>
<path d="M195.936 300.438H182.873V287.375H195.936V300.438Z" fill="#F8F9F2"/>
<path d="M182.874 300.438H169.811V287.375H182.874V300.438Z" fill="#F8F9F2"/>
<path d="M104.499 300.438H91.4368V287.375H104.499V300.438Z" fill="#F8F9F2"/>
<path d="M326.562 313.499H313.498V300.438H326.562V313.499Z" fill="#F8F9F2"/>
<path d="M195.936 313.499H182.873V300.438H195.936V313.499Z" fill="#F8F9F2"/>
<path d="M326.562 326.562H313.498V313.499H326.562V326.562Z" fill="#F8F9F2"/>
<path d="M195.936 326.562H182.873V313.499H195.936V326.562Z" fill="#F8F9F2"/>
<path d="M326.562 339.625H313.498V326.562H326.562V339.625Z" fill="#F8F9F2"/>
<path d="M195.936 339.625H182.873V326.562H195.936V339.625Z" fill="#F8F9F2"/>
<path d="M326.562 352.686H313.498V339.625H326.562V352.686Z" fill="#F8F9F2"/>
<path d="M195.936 352.686H182.873V339.625H195.936V352.686Z" fill="#F8F9F2"/>
<path d="M326.562 365.75H313.498V352.686H326.562V365.75Z" fill="#F8F9F2"/>
<path d="M195.936 365.75H182.873V352.686H195.936V365.75Z" fill="#F8F9F2"/>
<path d="M182.874 365.75H169.811V352.686H182.874V365.75Z" fill="#F8F9F2"/>
<path d="M169.811 365.75H156.749V352.686H169.811V365.75Z" fill="#F8F9F2"/>
<path d="M156.749 365.75H143.686V352.686H156.749V365.75Z" fill="#F8F9F2"/>
<path d="M143.686 365.75H130.624V352.686H143.686V365.75Z" fill="#F8F9F2"/>
<path d="M130.624 365.75H117.562V352.686H130.624V365.75Z" fill="#F8F9F2"/>
<path d="M326.562 378.81H313.498V365.749H326.562V378.81Z" fill="#F8F9F2"/>
<path d="M195.936 378.81H182.873V365.749H195.936V378.81Z" fill="#F8F9F2"/>
<path d="M182.874 378.81H169.811V365.749H182.874V378.81Z" fill="#F8F9F2"/>
<path d="M169.811 378.81H156.749V365.749H169.811V378.81Z" fill="#F8F9F2"/>
<path d="M156.749 378.81H143.686V365.749H156.749V378.81Z" fill="#F8F9F2"/>
<path d="M143.686 378.81H130.624V365.749H143.686V378.81Z" fill="#F8F9F2"/>
<path d="M326.562 391.873H313.498V378.81H326.562V391.873Z" fill="#F8F9F2"/>
<path d="M195.936 391.873H182.873V378.81H195.936V391.873Z" fill="#F8F9F2"/>
<path d="M182.874 391.873H169.811V378.81H182.874V391.873Z" fill="#F8F9F2"/>
<path d="M169.811 391.873H156.749V378.81H169.811V391.873Z" fill="#F8F9F2"/>
<path d="M156.749 391.873H143.686V378.81H156.749V391.873Z" fill="#F8F9F2"/>
<path d="M274.311 287.375H261.248V274.312H274.311V287.375Z" fill="#604A2B"/>
<path d="M248.187 287.375H235.124V274.312H248.187V287.375Z" fill="#604A2B"/>
<path d="M274.311 300.438H261.248V287.375H274.311V300.438Z" fill="#604A2B"/>
<path d="M248.187 300.438H235.124V287.375H248.187V300.438Z" fill="#604A2B"/>
<path d="M274.311 313.499H261.248V300.438H274.311V313.499Z" fill="#604A2B"/>
<path d="M248.187 313.499H235.124V300.438H248.187V313.499Z" fill="#604A2B"/>
<path d="M274.311 326.562H261.248V313.499H274.311V326.562Z" fill="#604A2B"/>
<path d="M248.187 326.562H235.124V313.499H248.187V326.562Z" fill="#604A2B"/>
<path d="M169.811 326.562H156.749V313.499H169.811V326.562Z" fill="#604A2B"/>
<path d="M156.749 326.562H143.686V313.499H156.749V326.562Z" fill="#604A2B"/>
<path d="M143.686 326.562H130.624V313.499H143.686V326.562Z" fill="#604A2B"/>
<path d="M130.624 326.562H117.562V313.499H130.624V326.562Z" fill="#604A2B"/>
<path d="M117.561 326.562H104.499V313.499H117.561V326.562Z" fill="#604A2B"/>
<path d="M300.435 339.625H287.374V326.562H300.435V339.625Z" fill="#604A2B"/>
<path d="M287.374 339.625H274.311V326.562H287.374V339.625Z" fill="#604A2B"/>
<path d="M274.311 339.625H261.248V326.562H274.311V339.625Z" fill="#604A2B"/>
<path d="M261.248 339.625H248.187V326.562H261.248V339.625Z" fill="#604A2B"/>
<path d="M248.187 339.625H235.124V326.562H248.187V339.625Z" fill="#604A2B"/>
<path d="M235.124 339.625H222.06V326.562H235.124V339.625Z" fill="#604A2B"/>
<path d="M222.06 339.625H208.999V326.562H222.06V339.625Z" fill="#604A2B"/>
<path d="M169.811 339.625H156.749V326.562H169.811V339.625Z" fill="#604A2B"/>
<path d="M156.749 339.625H143.686V326.562H156.749V339.625Z" fill="#604A2B"/>
<path d="M143.686 339.625H130.624V326.562H143.686V339.625Z" fill="#604A2B"/>
<path d="M130.624 339.625H117.562V326.562H130.624V339.625Z" fill="#604A2B"/>
<path d="M117.561 339.625H104.499V326.562H117.561V339.625Z" fill="#604A2B"/>
<path d="M235.124 352.686H222.06V339.625H235.124V352.686Z" fill="#604A2B"/>
<path d="M300.435 365.75H287.374V352.686H300.435V365.75Z" fill="#604A2B"/>
<path d="M287.374 365.75H274.311V352.686H287.374V365.75Z" fill="#604A2B"/>
<path d="M274.311 365.75H261.248V352.686H274.311V365.75Z" fill="#604A2B"/>
<path d="M261.248 365.75H248.187V352.686H261.248V365.75Z" fill="#604A2B"/>
<path d="M248.187 365.75H235.124V352.686H248.187V365.75Z" fill="#604A2B"/>
<path d="M235.124 365.75H222.06V352.686H235.124V365.75Z" fill="#604A2B"/>
<path d="M222.06 365.75H208.999V352.686H222.06V365.75Z" fill="#604A2B"/>
<path d="M274.311 378.81H261.248V365.749H274.311V378.81Z" fill="#604A2B"/>
<path d="M248.187 378.81H235.124V365.749H248.187V378.81Z" fill="#604A2B"/>
<path d="M274.311 391.873H261.248V378.81H274.311V391.873Z" fill="#604A2B"/>
<path d="M248.187 391.873H235.124V378.81H248.187V391.873Z" fill="#604A2B"/>
<path d="M274.311 404.937H261.248V391.874H274.311V404.937Z" fill="#604A2B"/>
<path d="M248.187 404.937H235.124V391.874H248.187V404.937Z" fill="#604A2B"/>
<path d="M261.248 287.375H248.187V274.312H261.248V287.375Z" fill="#A17B46"/>
<path d="M287.374 300.438H274.311V287.375H287.374V300.438Z" fill="#A17B46"/>
<path d="M261.248 300.438H248.187V287.375H261.248V300.438Z" fill="#A17B46"/>
<path d="M235.124 300.438H222.06V287.375H235.124V300.438Z" fill="#A17B46"/>
<path d="M300.435 313.499H287.374V300.438H300.435V313.499Z" fill="#A17B46"/>
<path d="M287.374 313.499H274.311V300.438H287.374V313.499Z" fill="#A17B46"/>
<path d="M261.248 313.499H248.187V300.438H261.248V313.499Z" fill="#A17B46"/>
<path d="M235.124 313.499H222.06V300.438H235.124V313.499Z" fill="#A17B46"/>
<path d="M300.435 326.562H287.374V313.499H300.435V326.562Z" fill="#A17B46"/>
<path d="M287.374 326.562H274.311V313.499H287.374V326.562Z" fill="#A17B46"/>
<path d="M261.248 326.562H248.187V313.499H261.248V326.562Z" fill="#A17B46"/>
<path d="M235.124 326.562H222.06V313.499H235.124V326.562Z" fill="#A17B46"/>
<path d="M300.435 352.686H287.374V339.625H300.435V352.686Z" fill="#A17B46"/>
<path d="M287.374 352.686H274.311V339.625H287.374V352.686Z" fill="#A17B46"/>
<path d="M274.311 352.686H261.248V339.625H274.311V352.686Z" fill="#A17B46"/>
<path d="M261.248 352.686H248.187V339.625H261.248V352.686Z" fill="#A17B46"/>
<path d="M248.187 352.686H235.124V339.625H248.187V352.686Z" fill="#A17B46"/>
<path d="M300.435 378.81H287.374V365.749H300.435V378.81Z" fill="#A17B46"/>
<path d="M287.374 378.81H274.311V365.749H287.374V378.81Z" fill="#A17B46"/>
<path d="M261.248 378.81H248.187V365.749H261.248V378.81Z" fill="#A17B46"/>
<path d="M235.124 378.81H222.06V365.749H235.124V378.81Z" fill="#A17B46"/>
<path d="M300.435 391.873H287.374V378.81H300.435V391.873Z" fill="#A17B46"/>
<path d="M287.374 391.873H274.311V378.81H287.374V391.873Z" fill="#A17B46"/>
<path d="M261.248 391.873H248.187V378.81H261.248V391.873Z" fill="#A17B46"/>
<path d="M235.124 391.873H222.06V378.81H235.124V391.873Z" fill="#A17B46"/>
<path d="M300.435 404.937H287.374V391.874H300.435V404.937Z" fill="#A17B46"/>
<path d="M287.374 404.937H274.311V391.874H287.374V404.937Z" fill="#A17B46"/>
<path d="M261.248 404.937H248.187V391.874H261.248V404.937Z" fill="#A17B46"/>
<path d="M235.124 404.937H222.06V391.874H235.124V404.937Z" fill="#A17B46"/>
<path d="M222.06 313.499H208.999V300.438H222.06V313.499Z" fill="#936423"/>
<path d="M222.06 326.562H208.998V313.499H222.06V326.562Z" fill="#936423"/>
<path d="M222.06 352.686H208.999V339.625H222.06V352.686Z" fill="#936423"/>
<path d="M222.06 378.81H208.998V365.749H222.06V378.81Z" fill="#936423"/>
<path d="M222.06 391.873H208.998V378.81H222.06V391.873Z" fill="#936423"/>
<path d="M222.06 404.937H208.998V391.874H222.06V404.937Z" fill="#936423"/>
<path d="M78.3742 352.686H65.3119V339.625H78.3742V352.686Z" fill="#AEB6B4"/>
<path d="M195.936 404.937H182.873V391.874H195.936V404.937Z" fill="#AEB6B4"/>
<path d="M182.874 404.937H169.811V391.874H182.874V404.937Z" fill="#AEB6B4"/>
<path d="M169.811 404.937H156.749V391.874H169.811V404.937Z" fill="#AEB6B4"/>
<path d="M156.749 404.937H143.686V391.874H156.749V404.937Z" fill="#AEB6B4"/>
<path d="M143.686 404.937H130.624V391.874H143.686V404.937Z" fill="#AEB6B4"/>
<path d="M195.936 404.937H182.873V391.874H195.936V404.937Z" fill="#AEB6B4"/>
<path d="M326.559 404.937H313.498V391.874H326.559V404.937Z" fill="#AEB6B4"/>
<path d="M104.499 365.75H91.4368V352.686H104.499V365.75Z" fill="#619350"/>
<path d="M91.4367 365.75H78.3741V352.686H91.4367V365.75Z" fill="#619350"/>
<path d="M65.3117 365.75H52.2494V352.686H65.3117V365.75Z" fill="#619350"/>
<path d="M52.2494 365.75H39.1871V352.686H52.2494V365.75Z" fill="#619350"/>
<path d="M365.746 378.81H352.686V365.749H365.746V378.81Z" fill="#619350"/>
<path d="M352.686 378.81H339.622V365.749H352.686V378.81Z" fill="#619350"/>
<path d="M117.561 378.81H104.499V365.749H117.561V378.81Z" fill="#619350"/>
<path d="M104.499 378.81H91.4364V365.749H104.499V378.81Z" fill="#619350"/>
<path d="M91.4364 378.81H78.3741V365.749H91.4364V378.81Z" fill="#619350"/>
<path d="M78.3742 378.81H65.3119V365.749H78.3742V378.81Z" fill="#619350"/>
<path d="M65.3117 378.81H52.2494V365.749H65.3117V378.81Z" fill="#619350"/>
<path d="M52.2494 378.81H39.1871V365.749H52.2494V378.81Z" fill="#619350"/>
<path d="M39.1872 378.81H26.1246V365.749H39.1872V378.81Z" fill="#619350"/>
<path d="M378.81 391.873H365.747V378.81H378.81V391.873Z" fill="#619350"/>
<path d="M365.746 391.873H352.686V378.81H365.746V391.873Z" fill="#619350"/>
<path d="M352.686 391.873H339.622V378.81H352.686V391.873Z" fill="#619350"/>
<path d="M130.624 391.873H117.562V378.81H130.624V391.873Z" fill="#619350"/>
<path d="M117.561 391.873H104.499V378.81H117.561V391.873Z" fill="#619350"/>
<path d="M104.499 391.873H91.4368V378.81H104.499V391.873Z" fill="#619350"/>
<path d="M78.3742 391.873H65.3119V378.81H78.3742V391.873Z" fill="#619350"/>
<path d="M52.2494 391.873H39.1871V378.81H52.2494V391.873Z" fill="#619350"/>
<path d="M26.1245 391.873H13.0623V378.81H26.1245V391.873Z" fill="#619350"/>
<path d="M378.81 404.937H365.747V391.874H378.81V404.937Z" fill="#619350"/>
<path d="M365.746 404.937H352.686V391.874H365.746V404.937Z" fill="#619350"/>
<path d="M352.686 404.937H339.622V391.874H352.686V404.937Z" fill="#619350"/>
<path d="M104.499 404.937H91.4368V391.874H104.499V404.937Z" fill="#619350"/>
<path d="M91.4364 404.937H78.3741V391.874H91.4364V404.937Z" fill="#619350"/>
<path d="M78.3742 404.937H65.3119V391.874H78.3742V404.937Z" fill="#619350"/>
<path d="M65.3117 404.937H52.2494V391.874H65.3117V404.937Z" fill="#619350"/>
<path d="M52.2494 404.937H39.1871V391.874H52.2494V404.937Z" fill="#619350"/>
<path d="M39.1872 404.937H26.1246V391.874H39.1872V404.937Z" fill="#619350"/>
<path d="M26.1245 404.937H13.0623V391.874H26.1245V404.937Z" fill="#619350"/>
<path d="M222.06 117.562H208.998V104.499H222.06V117.562Z" fill="black"/>
<path d="M208.998 117.562H195.936V104.499H208.998V117.562Z" fill="black"/>
<path d="M195.936 117.562H182.873V104.499H195.936V117.562Z" fill="black"/>
<path d="M339.622 130.623H326.562V117.562H339.622V130.623Z" fill="black"/>
<path d="M326.562 130.623H313.498V117.562H326.562V130.623Z" fill="black"/>
<path d="M313.498 130.623H300.435V117.562H313.498V130.623Z" fill="black"/>
<path d="M300.435 130.623H287.374V117.562H300.435V130.623Z" fill="black"/>
<path d="M287.374 130.623H274.311V117.562H287.374V130.623Z" fill="black"/>
<path d="M274.311 130.623H261.248V117.562H274.311V130.623Z" fill="black"/>
<path d="M235.124 130.623H222.06V117.562H235.124V130.623Z" fill="black"/>
<path d="M182.874 130.623H169.811V117.562H182.874V130.623Z" fill="black"/>
<path d="M352.686 143.686H339.622V130.623H352.686V143.686Z" fill="black"/>
<path d="M261.248 143.686H248.187V130.623H261.248V143.686Z" fill="black"/>
<path d="M248.187 143.686H235.124V130.623H248.187V143.686Z" fill="black"/>
<path d="M208.998 143.686H195.936V130.623H208.998V143.686Z" fill="black"/>
<path d="M169.811 143.686H156.749V130.623H169.811V143.686Z" fill="black"/>
<path d="M352.686 156.749H339.622V143.686H352.686V156.749Z" fill="black"/>
<path d="M261.248 156.749H248.187V143.686H261.248V156.749Z" fill="black"/>
<path d="M222.06 156.749H208.999V143.686H222.06V156.749Z" fill="black"/>
<path d="M195.936 156.749H182.873V143.686H195.936V156.749Z" fill="black"/>
<path d="M156.749 156.749H143.686V143.686H156.749V156.749Z" fill="black"/>
<path d="M352.686 169.813H339.622V156.749H352.686V169.813Z" fill="black"/>
<path d="M274.311 169.813H261.248V156.749H274.311V169.813Z" fill="black"/>
<path d="M235.124 169.813H222.06V156.749H235.124V169.813Z" fill="black"/>
<path d="M182.874 169.813H169.811V156.749H182.874V169.813Z" fill="black"/>
<path d="M143.686 169.813H130.624V156.749H143.686V169.813Z" fill="black"/>
<path d="M339.622 182.874H326.562V169.813H339.622V182.874Z" fill="black"/>
<path d="M326.562 182.874H313.498V169.813H326.562V182.874Z" fill="black"/>
<path d="M313.498 182.874H300.435V169.813H313.498V182.874Z" fill="black"/>
<path d="M300.435 182.874H287.374V169.813H300.435V182.874Z" fill="black"/>
<path d="M287.374 182.874H274.311V169.813H287.374V182.874Z" fill="black"/>
<path d="M248.187 182.874H235.124V169.813H248.187V182.874Z" fill="black"/>
<path d="M222.06 182.874H208.999V169.813H222.06V182.874Z" fill="black"/>
<path d="M195.936 182.874H182.873V169.813H195.936V182.874Z" fill="black"/>
<path d="M169.811 182.874H156.749V169.813H169.811V182.874Z" fill="black"/>
<path d="M130.624 182.874H117.562V169.813H130.624V182.874Z" fill="black"/>
<path d="M339.622 195.937H326.562V182.873H339.622V195.937Z" fill="black"/>
<path d="M300.435 195.937H287.374V182.873H300.435V195.937Z" fill="black"/>
<path d="M261.248 195.937H248.187V182.873H261.248V195.937Z" fill="black"/>
<path d="M235.124 195.937H222.06V182.873H235.124V195.937Z" fill="black"/>
<path d="M182.874 195.937H169.811V182.873H182.874V195.937Z" fill="black"/>
<path d="M156.749 195.937H143.686V182.873H156.749V195.937Z" fill="black"/>
<path d="M117.561 195.937H104.499V182.873H117.561V195.937Z" fill="black"/>
<path d="M339.622 209H326.562V195.937H339.622V209Z" fill="black"/>
<path d="M313.498 209H300.435V195.937H313.498V209Z" fill="black"/>
<path d="M274.311 209H261.248V195.937H274.311V209Z" fill="black"/>
<path d="M143.686 209H130.624V195.937H143.686V209Z" fill="black"/>
<path d="M104.499 209H91.4368V195.937H104.499V209Z" fill="black"/>
<path d="M339.622 222.063H326.562V209H339.622V222.063Z" fill="black"/>
<path d="M326.562 222.063H313.498V209H326.562V222.063Z" fill="black"/>
<path d="M287.374 222.063H274.311V209H287.374V222.063Z" fill="black"/>
<path d="M274.311 222.063H261.248V209H274.311V222.063Z" fill="black"/>
<path d="M261.248 222.063H248.187V209H261.248V222.063Z" fill="black"/>
<path d="M248.187 222.063H235.124V209H248.187V222.063Z" fill="black"/>
<path d="M235.124 222.063H222.06V209H235.124V222.063Z" fill="black"/>
<path d="M222.06 222.063H208.998V209H222.06V222.063Z" fill="black"/>
<path d="M208.998 222.063H195.936V209H208.998V222.063Z" fill="black"/>
<path d="M195.936 222.063H182.873V209H195.936V222.063Z" fill="black"/>
<path d="M182.874 222.063H169.811V209H182.874V222.063Z" fill="black"/>
<path d="M169.811 222.063H156.749V209H169.811V222.063Z" fill="black"/>
<path d="M156.748 222.063H143.686V209H156.748V222.063Z" fill="black"/>
<path d="M143.686 222.063H130.624V209H143.686V222.063Z" fill="black"/>
<path d="M130.624 222.063H117.561V209H130.624V222.063Z" fill="black"/>
<path d="M91.4364 222.063H78.3741V209H91.4364V222.063Z" fill="black"/>
<path d="M339.622 235.124H326.562V222.063H339.622V235.124Z" fill="black"/>
<path d="M300.435 235.124H287.374V222.063H300.435V235.124Z" fill="black"/>
<path d="M117.561 235.124H104.499V222.063H117.561V235.124Z" fill="black"/>
<path d="M78.3742 235.124H65.3119V222.063H78.3742V235.124Z" fill="black"/>
<path d="M352.686 248.188H339.622V235.124H352.686V248.188Z" fill="black"/>
<path d="M313.498 248.188H300.435V235.124H313.498V248.188Z" fill="black"/>
<path d="M104.499 248.188H91.4364V235.124H104.499V248.188Z" fill="black"/>
<path d="M65.3117 248.188H52.2494V235.124H65.3117V248.188Z" fill="black"/>
<path d="M365.746 261.25H352.686V248.187H365.746V261.25Z" fill="black"/>
<path d="M326.562 261.25H313.498V248.187H326.562V261.25Z" fill="black"/>
<path d="M91.4364 261.25H78.3741V248.187H91.4364V261.25Z" fill="black"/>
<path d="M52.2494 261.25H39.1871V248.187H52.2494V261.25Z" fill="black"/>
<path d="M378.81 274.312H365.747V261.248H378.81V274.312Z" fill="black"/>
<path d="M339.622 274.312H326.562V261.248H339.622V274.312Z" fill="black"/>
<path d="M274.311 274.312H261.248V261.248H274.311V274.312Z" fill="black"/>
<path d="M261.248 274.312H248.187V261.248H261.248V274.312Z" fill="black"/>
<path d="M248.187 274.312H235.124V261.248H248.187V274.312Z" fill="black"/>
<path d="M156.749 274.312H143.686V261.248H156.749V274.312Z" fill="black"/>
<path d="M143.686 274.312H130.624V261.248H143.686V274.312Z" fill="black"/>
<path d="M130.624 274.312H117.561V261.248H130.624V274.312Z" fill="black"/>
<path d="M78.3742 274.312H65.3119V261.248H78.3742V274.312Z" fill="black"/>
<path d="M39.1872 274.312H26.1246V261.248H39.1872V274.312Z" fill="black"/>
<path d="M365.746 287.375H352.686V274.312H365.746V287.375Z" fill="black"/>
<path d="M352.686 287.375H339.622V274.312H352.686V287.375Z" fill="black"/>
<path d="M339.622 287.375H326.562V274.312H339.622V287.375Z" fill="black"/>
<path d="M287.374 287.375H274.311V274.312H287.374V287.375Z" fill="black"/>
<path d="M235.124 287.375H222.06V274.312H235.124V287.375Z" fill="black"/>
<path d="M169.811 287.375H156.749V274.312H169.811V287.375Z" fill="black"/>
<path d="M117.561 287.375H104.499V274.312H117.561V287.375Z" fill="black"/>
<path d="M78.3742 287.375H65.3119V274.312H78.3742V287.375Z" fill="black"/>
<path d="M65.3117 287.375H52.2494V274.312H65.3117V287.375Z" fill="black"/>
<path d="M52.2494 287.375H39.1871V274.312H52.2494V287.375Z" fill="black"/>
<path d="M339.622 300.438H326.562V287.375H339.622V300.438Z" fill="black"/>
<path d="M300.435 300.438H287.374V287.375H300.435V300.438Z" fill="black"/>
<path d="M222.06 300.438H208.998V287.375H222.06V300.438Z" fill="black"/>
<path d="M169.811 300.438H156.749V287.375H169.811V300.438Z" fill="black"/>
<path d="M117.561 300.438H104.499V287.375H117.561V300.438Z" fill="black"/>
<path d="M78.3742 300.438H65.3119V287.375H78.3742V300.438Z" fill="black"/>
<path d="M339.622 313.499H326.562V300.438H339.622V313.499Z" fill="black"/>
<path d="M313.498 313.499H300.435V300.438H313.498V313.499Z" fill="black"/>
<path d="M208.999 313.499H195.936V300.438H208.999V313.499Z" fill="black"/>
<path d="M169.811 313.499H156.749V300.438H169.811V313.499Z" fill="black"/>
<path d="M117.561 313.499H104.499V300.438H117.561V313.499Z" fill="black"/>
<path d="M78.3742 313.499H65.3119V300.438H78.3742V313.499Z" fill="black"/>
<path d="M339.622 326.562H326.562V313.499H339.622V326.562Z" fill="black"/>
<path d="M313.498 326.562H300.435V313.499H313.498V326.562Z" fill="black"/>
<path d="M208.998 326.562H195.936V313.499H208.998V326.562Z" fill="black"/>
<path d="M182.874 326.562H169.811V313.499H182.874V326.562Z" fill="black"/>
<path d="M104.499 326.562H91.4368V313.499H104.499V326.562Z" fill="black"/>
<path d="M78.3742 326.562H65.3119V313.499H78.3742V326.562Z" fill="black"/>
<path d="M339.622 339.625H326.562V326.562H339.622V339.625Z" fill="black"/>
<path d="M313.498 339.625H300.435V326.562H313.498V339.625Z" fill="black"/>
<path d="M208.999 339.625H195.936V326.562H208.999V339.625Z" fill="black"/>
<path d="M182.874 339.625H169.811V326.562H182.874V339.625Z" fill="black"/>
<path d="M104.499 339.625H91.4368V326.562H104.499V339.625Z" fill="black"/>
<path d="M78.3742 339.625H65.3119V326.562H78.3742V339.625Z" fill="black"/>
<path d="M339.622 352.686H326.562V339.625H339.622V352.686Z" fill="black"/>
<path d="M313.498 352.686H300.435V339.625H313.498V352.686Z" fill="black"/>
<path d="M208.999 352.686H195.936V339.625H208.999V352.686Z" fill="black"/>
<path d="M182.874 352.686H169.811V339.625H182.874V352.686Z" fill="black"/>
<path d="M169.811 352.686H156.749V339.625H169.811V352.686Z" fill="black"/>
<path d="M156.749 352.686H143.686V339.625H156.749V352.686Z" fill="black"/>
<path d="M143.686 352.686H130.624V339.625H143.686V352.686Z" fill="black"/>
<path d="M130.624 352.686H117.562V339.625H130.624V352.686Z" fill="black"/>
<path d="M117.561 352.686H104.499V339.625H117.561V352.686Z" fill="black"/>
<path d="M339.622 365.75H326.562V352.686H339.622V365.75Z" fill="black"/>
<path d="M313.498 365.75H300.435V352.686H313.498V365.75Z" fill="black"/>
<path d="M208.999 365.75H195.936V352.686H208.999V365.75Z" fill="black"/>
<path d="M339.622 378.81H326.562V365.749H339.622V378.81Z" fill="black"/>
<path d="M313.498 378.81H300.435V365.749H313.498V378.81Z" fill="black"/>
<path d="M208.998 378.81H195.936V365.749H208.998V378.81Z" fill="black"/>
<path d="M339.622 391.873H326.562V378.81H339.622V391.873Z" fill="black"/>
<path d="M313.498 391.873H300.435V378.81H313.498V391.873Z" fill="black"/>
<path d="M208.998 391.873H195.936V378.81H208.998V391.873Z" fill="black"/>
<path d="M339.622 404.937H326.562V391.874H339.622V404.937Z" fill="black"/>
<path d="M313.498 404.937H300.435V391.874H313.498V404.937Z" fill="black"/>
<path d="M208.998 404.937H195.936V391.874H208.998V404.937Z" fill="black"/>
<path d="M352.686 418H339.622V404.937H352.686V418Z" fill="black"/>
<path d="M339.622 418H326.562V404.937H339.622V418Z" fill="black"/>
<path d="M326.562 418H313.498V404.937H326.562V418Z" fill="black"/>
<path d="M313.498 418H300.435V404.937H313.498V418Z" fill="black"/>
<path d="M300.435 418H287.374V404.937H300.435V418Z" fill="black"/>
<path d="M287.374 418H274.311V404.937H287.374V418Z" fill="black"/>
<path d="M274.311 418H261.248V404.937H274.311V418Z" fill="black"/>
<path d="M261.248 418H248.187V404.937H261.248V418Z" fill="black"/>
<path d="M248.187 418H235.124V404.937H248.187V418Z" fill="black"/>
<path d="M235.124 418H222.06V404.937H235.124V418Z" fill="black"/>
<path d="M222.06 418H208.999V404.937H222.06V418Z" fill="black"/>
<path d="M208.999 418H195.936V404.937H208.999V418Z" fill="black"/>
<path d="M195.936 418H182.873V404.937H195.936V418Z" fill="black"/>
<path d="M182.874 418H169.811V404.937H182.874V418Z" fill="black"/>
<path d="M169.811 418H156.749V404.937H169.811V418Z" fill="black"/>
<path d="M156.749 418H143.686V404.937H156.749V418Z" fill="black"/>
<path d="M143.686 418H130.624V404.937H143.686V418Z" fill="black"/>
<path d="M130.624 418H117.562V404.937H130.624V418Z" fill="black"/>
<path d="M104.499 352.686H91.4368V339.625H104.499V352.686Z" fill="#17311D"/>
<path d="M91.4367 352.686H78.3741V339.625H91.4367V352.686Z" fill="#17311D"/>
<path d="M65.3117 352.686H52.2494V339.625H65.3117V352.686Z" fill="#17311D"/>
<path d="M52.2494 352.686H39.1871V339.625H52.2494V352.686Z" fill="#17311D"/>
<path d="M365.746 365.75H352.686V352.686H365.746V365.75Z" fill="#17311D"/>
<path d="M352.686 365.75H339.622V352.686H352.686V365.75Z" fill="#17311D"/>
<path d="M117.562 365.75H104.499V352.686H117.562V365.75Z" fill="#17311D"/>
<path d="M78.3742 365.75H65.3119V352.686H78.3742V365.75Z" fill="#17311D"/>
<path d="M39.187 365.75H26.1248V352.686H39.187V365.75Z" fill="#17311D"/>
<path d="M378.81 378.81H365.747V365.749H378.81V378.81Z" fill="#17311D"/>
<path d="M130.624 378.81H117.561V365.749H130.624V378.81Z" fill="#17311D"/>
<path d="M26.1245 378.81H13.0623V365.749H26.1245V378.81Z" fill="#17311D"/>
<path d="M391.873 391.873H378.81V378.81H391.873V391.873Z" fill="#17311D"/>
<path d="M143.686 391.873H130.624V378.81H143.686V391.873Z" fill="#17311D"/>
<path d="M91.4364 391.873H78.3741V378.81H91.4364V391.873Z" fill="#17311D"/>
<path d="M65.3117 391.873H52.2494V378.81H65.3117V391.873Z" fill="#17311D"/>
<path d="M39.1872 391.873H26.1246V378.81H39.1872V391.873Z" fill="#17311D"/>
<path d="M13.0623 391.873H0V378.81H13.0623V391.873Z" fill="#17311D"/>
<path d="M391.873 404.937H378.81V391.874H391.873V404.937Z" fill="#17311D"/>
<path d="M130.624 404.937H117.562V391.874H130.624V404.937Z" fill="#17311D"/>
<path d="M117.561 404.937H104.499V391.874H117.561V404.937Z" fill="#17311D"/>
<path d="M13.0623 404.937H0V391.874H13.0623V404.937Z" fill="#17311D"/>
<path d="M378.81 418H365.747V404.937H378.81V418Z" fill="#17311D"/>
<path d="M365.746 418H352.686V404.937H365.746V418Z" fill="#17311D"/>
<path d="M117.561 418H104.499V404.937H117.561V418Z" fill="#17311D"/>
<path d="M104.499 418H91.4368V404.937H104.499V418Z" fill="#17311D"/>
<path d="M91.4367 418H78.3741V404.937H91.4367V418Z" fill="#17311D"/>
<path d="M78.3742 418H65.3119V404.937H78.3742V418Z" fill="#17311D"/>
<path d="M65.3117 418H52.2494V404.937H65.3117V418Z" fill="#17311D"/>
<path d="M52.2494 418H39.1871V404.937H52.2494V418Z" fill="#17311D"/>
<path d="M39.1872 418H26.1246V404.937H39.1872V418Z" fill="#17311D"/>
<path d="M26.1245 418H13.0623V404.937H26.1245V418Z" fill="#17311D"/>
<path d="M13.0623 418H0V404.937H13.0623V418Z" fill="#17311D"/>
<path d="M156.748 287.375H143.686V274.312H156.748V287.375Z" fill="#F7E022"/>
<path d="M143.686 287.375H130.624V274.312H143.686V287.375Z" fill="#F7E022"/>
<path d="M156.748 300.436H143.686V287.375H156.748V300.436Z" fill="#F7E022"/>
<path d="M143.686 300.436H130.624V287.375H143.686V300.436Z" fill="#F7E022"/>
<path d="M156.748 313.499H143.686V300.435H156.748V313.499Z" fill="#F7E022"/>
<path d="M143.686 313.499H130.624V300.435H143.686V313.499Z" fill="#F7E022"/>
<path d="M130.624 287.375H117.561V274.312H130.624V287.375Z" fill="#DBC61C"/>
<path d="M130.624 300.438H117.561V287.375H130.624V300.438Z" fill="#DBC61C"/>
<path d="M130.624 313.499H117.561V300.438H130.624V313.499Z" fill="#DBC61C"/>
</svg>
