<svg width="71" height="59" viewBox="0 0 71 59" fill="none" xmlns="http://www.w3.org/2000/svg">
<path d="M8.35364 45.9489H12.528V50.1231H8.35364V45.9489Z" fill="#FF739E"/>
<path d="M12.528 45.9489H16.7023V50.1231H12.528V45.9489Z" fill="#FF739E"/>
<path d="M54.2963 45.9489H58.4706V50.1231H54.2963V45.9489Z" fill="#FF739E"/>
<path d="M58.4707 45.9489H62.6451V50.1231H58.4707V45.9489Z" fill="#FF739E"/>
<path d="M33.4122 0H37.5866V4.17428H33.4122V0Z" fill="black"/>
<path d="M29.2379 4.18042H33.4123V8.3547H29.2379V4.18042Z" fill="black"/>
<path d="M33.4122 4.18042H37.5866V8.3547H33.4122V4.18042Z" fill="black"/>
<path d="M37.5928 4.18042H41.7671V8.3547H37.5928V4.18042Z" fill="black"/>
<path d="M25.0573 8.35461H29.2316V12.5291H25.0573V8.35461Z" fill="black"/>
<path d="M41.7671 8.35461H45.9415V12.5291H41.7671V8.35461Z" fill="black"/>
<path d="M20.8829 12.5291H25.0573V16.7033H20.8829V12.5291Z" fill="black"/>
<path d="M45.9414 12.5291H50.1158V16.7033H45.9414V12.5291Z" fill="black"/>
<path d="M20.8829 16.7097H25.0573V20.8842H20.8829V16.7097Z" fill="black"/>
<path d="M25.0573 16.7097H29.2316V20.8842H25.0573V16.7097Z" fill="black"/>
<path d="M41.7671 16.7097H45.9415V20.8842H41.7671V16.7097Z" fill="black"/>
<path d="M45.9414 16.7097H50.1158V20.8842H45.9414V16.7097Z" fill="black"/>
<path d="M12.5281 20.8842H16.7025V25.0584H12.5281V20.8842Z" fill="black"/>
<path d="M16.7086 20.8842H20.883V25.0584H16.7086V20.8842Z" fill="black"/>
<path d="M50.1221 20.8842H54.2964V25.0584H50.1221V20.8842Z" fill="black"/>
<path d="M54.2964 20.8842H58.4708V25.0584H54.2964V20.8842Z" fill="black"/>
<path d="M8.35376 25.0646H12.5281V29.2389H8.35376V25.0646Z" fill="black"/>
<path d="M58.4707 25.0646H62.6451V29.2389H58.4707V25.0646Z" fill="black"/>
<path d="M4.17944 29.2389H8.35382V33.4134H4.17944V29.2389Z" fill="black"/>
<path d="M62.6514 29.2389H66.8257V33.4134H62.6514V29.2389Z" fill="black"/>
<path d="M4.17944 33.4135H8.35382V37.5877H4.17944V33.4135Z" fill="black"/>
<path d="M8.35376 33.4135H12.5281V37.5877H8.35376V33.4135Z" fill="black"/>
<path d="M58.4707 33.4135H62.6451V37.5877H58.4707V33.4135Z" fill="black"/>
<path d="M62.6514 33.4135H66.8257V37.5877H62.6514V33.4135Z" fill="black"/>
<path d="M-0.0012207 37.5941H4.17316V41.7684H-0.0012207V37.5941Z" fill="black"/>
<path d="M66.8257 37.5941H71.0001V41.7684H66.8257V37.5941Z" fill="black"/>
<path d="M-0.0012207 41.7682H4.17316V45.9427H-0.0012207V41.7682Z" fill="black"/>
<path d="M66.8257 41.7682H71.0001V45.9427H66.8257V41.7682Z" fill="black"/>
<path d="M-0.0012207 45.9489H4.17316V50.1231H-0.0012207V45.9489Z" fill="black"/>
<path d="M66.8257 45.9489H71.0001V50.1231H66.8257V45.9489Z" fill="black"/>
<path d="M4.17944 50.123H8.35382V54.2975H4.17944V50.123Z" fill="black"/>
<path d="M8.35376 50.123H12.5281V54.2975H8.35376V50.123Z" fill="black"/>
<path d="M58.4707 50.123H62.6451V54.2975H58.4707V50.123Z" fill="black"/>
<path d="M62.6514 50.123H66.8257V54.2975H62.6514V50.123Z" fill="black"/>
<path d="M12.5281 54.2974H16.7025V58.4716H12.5281V54.2974Z" fill="black"/>
<path d="M16.7086 54.2974H20.883V58.4716H16.7086V54.2974Z" fill="black"/>
<path d="M20.8829 54.2974H25.0573V58.4716H20.8829V54.2974Z" fill="black"/>
<path d="M25.0573 54.2974H29.2316V58.4716H25.0573V54.2974Z" fill="black"/>
<path d="M29.2379 54.2974H33.4123V58.4716H29.2379V54.2974Z" fill="black"/>
<path d="M33.4122 54.2974H37.5866V58.4716H33.4122V54.2974Z" fill="black"/>
<path d="M37.5928 54.2974H41.7671V58.4716H37.5928V54.2974Z" fill="black"/>
<path d="M41.7671 54.2974H45.9415V58.4716H41.7671V54.2974Z" fill="black"/>
<path d="M45.9414 54.2974H50.1158V58.4716H45.9414V54.2974Z" fill="black"/>
<path d="M50.1221 54.2974H54.2964V58.4716H50.1221V54.2974Z" fill="black"/>
<path d="M54.2964 54.2974H58.4708V58.4716H54.2964V54.2974Z" fill="black"/>
<path d="M41.7668 12.532H45.9436V16.7088H41.7668V12.532Z" fill="#795748"/>
<path d="M29.2367 8.35498H33.4133V12.5317H29.2367V8.35498Z" fill="#795748"/>
<path d="M33.4133 8.35498H37.59V12.5317H33.4133V8.35498Z" fill="#795748"/>
<path d="M37.5901 8.35498H41.7669V12.5317H37.5901V8.35498Z" fill="#795748"/>
<path d="M25.0598 12.532H29.2365V16.7087H25.0598V12.532Z" fill="#795748"/>
<path d="M29.2367 12.532H33.4133V16.7087H29.2367V12.532Z" fill="#795748"/>
<path d="M33.4133 12.532H37.59V16.7087H33.4133V12.532Z" fill="#795748"/>
<path d="M37.5901 12.532H41.7669V16.7087H37.5901V12.532Z" fill="#795748"/>
<path d="M29.2367 16.7087H33.4133V20.8855H29.2367V16.7087Z" fill="#795748"/>
<path d="M33.4133 16.7087H37.59V20.8855H33.4133V16.7087Z" fill="#795748"/>
<path d="M37.5901 16.7087H41.7669V20.8855H37.5901V16.7087Z" fill="#795748"/>
<path d="M20.8831 20.8855H25.0598V25.0622H20.8831V20.8855Z" fill="#795748"/>
<path d="M25.0598 20.8855H29.2365V25.0622H25.0598V20.8855Z" fill="#795748"/>
<path d="M29.2367 20.8855H33.4133V25.0622H29.2367V20.8855Z" fill="#795748"/>
<path d="M33.4133 20.8855H37.59V25.0622H33.4133V20.8855Z" fill="#795748"/>
<path d="M37.5901 20.8855H41.7669V25.0622H37.5901V20.8855Z" fill="#795748"/>
<path d="M41.7668 20.8855H45.9436V25.0622H41.7668V20.8855Z" fill="#795748"/>
<path d="M45.9436 20.8855H50.1202V25.0622H45.9436V20.8855Z" fill="#795748"/>
<path d="M12.5295 25.0624H16.7062V29.239H12.5295V25.0624Z" fill="#795748"/>
<path d="M16.7063 25.0624H20.883V29.239H16.7063V25.0624Z" fill="#795748"/>
<path d="M20.8831 25.0624H25.0598V29.239H20.8831V25.0624Z" fill="#795748"/>
<path d="M25.0598 25.0624H29.2365V29.239H25.0598V25.0624Z" fill="#795748"/>
<path d="M29.2367 25.0624H33.4133V29.239H29.2367V25.0624Z" fill="#795748"/>
<path d="M33.4133 25.0624H37.59V29.239H33.4133V25.0624Z" fill="#795748"/>
<path d="M37.5901 25.0624H41.7669V29.239H37.5901V25.0624Z" fill="#795748"/>
<path d="M41.7668 25.0624H45.9436V29.239H41.7668V25.0624Z" fill="#795748"/>
<path d="M45.9436 25.0624H50.1202V29.239H45.9436V25.0624Z" fill="#795748"/>
<path d="M50.1202 25.0624H54.2969V29.239H50.1202V25.0624Z" fill="#795748"/>
<path d="M54.2969 25.0624H58.4736V29.239H54.2969V25.0624Z" fill="#795748"/>
<path d="M8.35291 29.2391H12.5295V33.4159H8.35291V29.2391Z" fill="#795748"/>
<path d="M12.5295 29.2391H16.7063V33.4159H12.5295V29.2391Z" fill="#795748"/>
<path d="M16.7063 29.2391H20.8829V33.4159H16.7063V29.2391Z" fill="#795748"/>
<path d="M20.8831 29.2391H25.0598V33.4159H20.8831V29.2391Z" fill="#795748"/>
<path d="M25.0598 29.2391H29.2365V33.4159H25.0598V29.2391Z" fill="#795748"/>
<path d="M29.2367 29.2391H33.4133V33.4159H29.2367V29.2391Z" fill="#795748"/>
<path d="M33.4133 29.2391H37.59V33.4159H33.4133V29.2391Z" fill="#795748"/>
<path d="M37.5901 29.2391H41.7669V33.4159H37.5901V29.2391Z" fill="#795748"/>
<path d="M41.7668 29.2391H45.9436V33.4159H41.7668V29.2391Z" fill="#795748"/>
<path d="M45.9436 29.2391H50.1202V33.4159H45.9436V29.2391Z" fill="#795748"/>
<path d="M50.1202 29.2391H54.2969V33.4159H50.1202V29.2391Z" fill="#795748"/>
<path d="M54.2969 29.2391H58.4736V33.4159H54.2969V29.2391Z" fill="#795748"/>
<path d="M58.4738 29.2391H62.6506V33.4159H58.4738V29.2391Z" fill="#795748"/>
<path d="M12.5295 33.416H16.7063V37.5927H12.5295V33.416Z" fill="#795748"/>
<path d="M25.0598 33.416H29.2365V37.5927H25.0598V33.416Z" fill="#795748"/>
<path d="M29.2367 33.416H33.4133V37.5927H29.2367V33.416Z" fill="#795748"/>
<path d="M33.4133 33.416H37.59V37.5927H33.4133V33.416Z" fill="#795748"/>
<path d="M37.5901 33.416H41.7669V37.5927H37.5901V33.416Z" fill="#795748"/>
<path d="M41.7668 33.416H45.9436V37.5927H41.7668V33.416Z" fill="#795748"/>
<path d="M54.2969 33.416H58.4736V37.5927H54.2969V33.416Z" fill="#795748"/>
<path d="M4.17627 37.5927H8.35284V41.7694H4.17627V37.5927Z" fill="#795748"/>
<path d="M8.35278 37.5927H12.5294V41.7694H8.35278V37.5927Z" fill="#795748"/>
<path d="M29.2367 37.5927H33.4133V41.7694H29.2367V37.5927Z" fill="#795748"/>
<path d="M33.4133 37.5927H37.59V41.7694H33.4133V37.5927Z" fill="#795748"/>
<path d="M37.5901 37.5927H41.7669V41.7694H37.5901V37.5927Z" fill="#795748"/>
<path d="M58.4738 37.5927H62.6506V41.7694H58.4738V37.5927Z" fill="#795748"/>
<path d="M62.6505 37.5927H66.8273V41.7694H62.6505V37.5927Z" fill="#795748"/>
<path d="M4.17627 41.769H8.35291V45.9458H4.17627V41.769Z" fill="#795748"/>
<path d="M8.35291 41.769H12.5295V45.9458H8.35291V41.769Z" fill="#795748"/>
<path d="M29.2367 41.769H33.4133V45.9458H29.2367V41.769Z" fill="#795748"/>
<path d="M33.4133 41.769H37.59V45.9458H33.4133V41.769Z" fill="#795748"/>
<path d="M37.5901 41.769H41.7669V45.9458H37.5901V41.769Z" fill="#795748"/>
<path d="M58.4738 41.769H62.6506V45.9458H58.4738V41.769Z" fill="#795748"/>
<path d="M62.6505 41.769H66.8273V45.9458H62.6505V41.769Z" fill="#795748"/>
<path d="M4.17627 45.9459H8.35291V50.1226H4.17627V45.9459Z" fill="#795748"/>
<path d="M25.0598 45.9459H29.2365V50.1226H25.0598V45.9459Z" fill="#795748"/>
<path d="M29.2367 45.9459H33.4133V50.1226H29.2367V45.9459Z" fill="#795748"/>
<path d="M33.4133 45.9459H37.59V50.1226H33.4133V45.9459Z" fill="#795748"/>
<path d="M37.5901 45.9459H41.7669V50.1226H37.5901V45.9459Z" fill="#795748"/>
<path d="M41.7668 45.9459H45.9436V50.1226H41.7668V45.9459Z" fill="#795748"/>
<path d="M62.6505 45.9459H66.8273V50.1226H62.6505V45.9459Z" fill="#795748"/>
<path d="M12.5295 50.1226H16.7062V54.2992H12.5295V50.1226Z" fill="#795748"/>
<path d="M16.7063 50.1226H20.883V54.2992H16.7063V50.1226Z" fill="#795748"/>
<path d="M20.8831 50.1226H25.0598V54.2992H20.8831V50.1226Z" fill="#795748"/>
<path d="M25.0598 50.1226H29.2365V54.2992H25.0598V50.1226Z" fill="#795748"/>
<path d="M29.2367 50.1226H33.4133V54.2992H29.2367V50.1226Z" fill="#795748"/>
<path d="M33.4133 50.1226H37.59V54.2992H33.4133V50.1226Z" fill="#795748"/>
<path d="M37.5901 50.1226H41.7669V54.2992H37.5901V50.1226Z" fill="#795748"/>
<path d="M41.7668 50.1226H45.9436V54.2992H41.7668V50.1226Z" fill="#795748"/>
<path d="M45.9436 50.1226H50.1202V54.2992H45.9436V50.1226Z" fill="#795748"/>
<path d="M50.1202 50.1226H54.2969V54.2992H50.1202V50.1226Z" fill="#795748"/>
<path d="M54.2969 50.1226H58.4736V54.2992H54.2969V50.1226Z" fill="#795748"/>
<path d="M16.7063 33.416H20.8829V37.5928H16.7063V33.416Z" fill="#795748"/>
<path d="M20.8831 33.416H25.0598V37.5928H20.8831V33.416Z" fill="#795748"/>
<path d="M45.9436 33.416H50.1202V37.5928H45.9436V33.416Z" fill="#795748"/>
<path d="M50.1202 33.416H54.2969V37.5928H50.1202V33.416Z" fill="#795748"/>
<path d="M12.5295 37.5929H16.7063V41.7695H12.5295V37.5929Z" fill="#795748"/>
<path d="M25.0598 37.5929H29.2365V41.7695H25.0598V37.5929Z" fill="#795748"/>
<path d="M41.7668 37.5929H45.9436V41.7695H41.7668V37.5929Z" fill="#795748"/>
<path d="M54.2969 37.5929H58.4736V41.7695H54.2969V37.5929Z" fill="#795748"/>
<path d="M16.7063 41.7692H20.883V45.946H16.7063V41.7692Z" fill="#795748"/>
<path d="M20.8831 41.7692H25.0599V45.946H20.8831V41.7692Z" fill="#795748"/>
<path d="M45.9436 41.7692H50.1202V45.946H45.9436V41.7692Z" fill="#795748"/>
<path d="M50.1202 41.7692H54.2969V45.946H50.1202V41.7692Z" fill="#795748"/>
<path d="M16.7063 45.9459H20.883V50.1226H16.7063V45.9459Z" fill="#795748"/>
<path d="M20.8831 45.9459H25.0599V50.1226H20.8831V45.9459Z" fill="#795748"/>
<path d="M45.9436 45.9459H50.1202V50.1226H45.9436V45.9459Z" fill="#795748"/>
<path d="M50.1202 45.9459H54.2969V50.1226H50.1202V45.9459Z" fill="#795748"/>
<path d="M25.06 37.5923H20.8832V41.7691H25.06V37.5923Z" fill="black"/>
<path d="M16.7064 37.5929H20.8831V41.7695H16.7064V37.5929Z" fill="black"/>
<path d="M45.9437 37.5929H50.1204V41.7695H45.9437V37.5929Z" fill="black"/>
<path d="M12.5297 41.769H16.7065V45.9458H12.5297V41.769Z" fill="black"/>
<path d="M25.0601 41.769H29.2368V45.9458H25.0601V41.769Z" fill="black"/>
<path d="M41.767 41.769H45.9436V45.9458H41.767V41.769Z" fill="black"/>
<path d="M54.297 41.769H58.4737V45.9458H54.297V41.769Z" fill="black"/>
<path d="M54.2972 37.5927H50.1204V41.7694H54.2972V37.5927Z" fill="black"/>
</svg>
