<svg width="71" height="59" viewBox="0 0 71 59" fill="none" xmlns="http://www.w3.org/2000/svg">
<path d="M8.34863 45.9489H12.523V50.1231H8.34863V45.9489Z" fill="#FF739E"/>
<path d="M12.5293 45.9489H16.7037V50.1231H12.5293V45.9489Z" fill="#FF739E"/>
<path d="M54.2976 45.9489H58.472V50.1231H54.2976V45.9489Z" fill="#FF739E"/>
<path d="M58.4719 45.9489H62.6463V50.1231H58.4719V45.9489Z" fill="#FF739E"/>
<path d="M41.7646 12.5315H45.939V16.7058H41.7646V12.5315Z" fill="#795748"/>
<path d="M29.2328 8.35474H33.4072V12.5292H29.2328V8.35474Z" fill="#795748"/>
<path d="M33.4133 8.35474H37.5877V12.5292H33.4133V8.35474Z" fill="#795748"/>
<path d="M37.5878 8.35474H41.7621V12.5292H37.5878V8.35474Z" fill="#795748"/>
<path d="M25.0585 12.5293H29.2328V16.7036H25.0585V12.5293Z" fill="#795748"/>
<path d="M29.2328 12.5293H33.4072V16.7036H29.2328V12.5293Z" fill="#795748"/>
<path d="M33.4133 12.5293H37.5877V16.7036H33.4133V12.5293Z" fill="#795748"/>
<path d="M37.5878 12.5293H41.7621V16.7036H37.5878V12.5293Z" fill="#795748"/>
<path d="M29.2328 16.7097H33.4072V20.8842H29.2328V16.7097Z" fill="#795748"/>
<path d="M33.4133 16.7097H37.5877V20.8842H33.4133V16.7097Z" fill="#795748"/>
<path d="M37.5878 16.7097H41.7621V20.8842H37.5878V16.7097Z" fill="#795748"/>
<path d="M20.8842 20.8844H25.0585V25.0587H20.8842V20.8844Z" fill="#795748"/>
<path d="M25.0585 20.8844H29.2328V25.0587H25.0585V20.8844Z" fill="#795748"/>
<path d="M29.2328 20.8844H33.4072V25.0587H29.2328V20.8844Z" fill="#795748"/>
<path d="M33.4133 20.8844H37.5877V25.0587H33.4133V20.8844Z" fill="#795748"/>
<path d="M37.5878 20.8844H41.7621V25.0587H37.5878V20.8844Z" fill="#795748"/>
<path d="M41.7622 20.8844H45.9366V25.0587H41.7622V20.8844Z" fill="#795748"/>
<path d="M45.9425 20.8844H50.1169V25.0587H45.9425V20.8844Z" fill="#795748"/>
<path d="M12.5293 25.0649H16.7037V29.2392H12.5293V25.0649Z" fill="#795748"/>
<path d="M16.7036 25.0649H20.878V29.2392H16.7036V25.0649Z" fill="#795748"/>
<path d="M20.8842 25.0649H25.0585V29.2392H20.8842V25.0649Z" fill="#795748"/>
<path d="M25.0585 25.0649H29.2328V29.2392H25.0585V25.0649Z" fill="#795748"/>
<path d="M29.2328 25.0649H33.4072V29.2392H29.2328V25.0649Z" fill="#795748"/>
<path d="M33.4133 25.0649H37.5877V29.2392H33.4133V25.0649Z" fill="#795748"/>
<path d="M37.5878 25.0649H41.7621V29.2392H37.5878V25.0649Z" fill="#795748"/>
<path d="M41.7622 25.0649H45.9366V29.2392H41.7622V25.0649Z" fill="#795748"/>
<path d="M45.9425 25.0649H50.1169V29.2392H45.9425V25.0649Z" fill="#795748"/>
<path d="M50.1169 25.0649H54.2913V29.2392H50.1169V25.0649Z" fill="#795748"/>
<path d="M54.2976 25.0649H58.472V29.2392H54.2976V25.0649Z" fill="#795748"/>
<path d="M8.34863 29.2389H12.523V33.4134H8.34863V29.2389Z" fill="#795748"/>
<path d="M12.5293 29.2389H16.7037V33.4134H12.5293V29.2389Z" fill="#795748"/>
<path d="M16.7036 29.2389H20.878V33.4134H16.7036V29.2389Z" fill="#795748"/>
<path d="M20.8842 29.2389H25.0585V33.4134H20.8842V29.2389Z" fill="#795748"/>
<path d="M25.0585 29.2389H29.2328V33.4134H25.0585V29.2389Z" fill="#795748"/>
<path d="M29.2328 29.2389H33.4072V33.4134H29.2328V29.2389Z" fill="#795748"/>
<path d="M33.4133 29.2389H37.5877V33.4134H33.4133V29.2389Z" fill="#795748"/>
<path d="M37.5878 29.2389H41.7621V33.4134H37.5878V29.2389Z" fill="#795748"/>
<path d="M41.7622 29.2389H45.9366V33.4134H41.7622V29.2389Z" fill="#795748"/>
<path d="M45.9425 29.2389H50.1169V33.4134H45.9425V29.2389Z" fill="#795748"/>
<path d="M50.1169 29.2389H54.2913V33.4134H50.1169V29.2389Z" fill="#795748"/>
<path d="M54.2976 29.2389H58.472V33.4134H54.2976V29.2389Z" fill="#795748"/>
<path d="M58.4719 29.2389H62.6463V33.4134H58.4719V29.2389Z" fill="#795748"/>
<path d="M12.5293 33.4135H16.7037V37.5877H12.5293V33.4135Z" fill="#795748"/>
<path d="M25.0585 33.4135H29.2328V37.5877H25.0585V33.4135Z" fill="#795748"/>
<path d="M29.2328 33.4135H33.4072V37.5877H29.2328V33.4135Z" fill="#795748"/>
<path d="M33.4133 33.4135H37.5877V37.5877H33.4133V33.4135Z" fill="#795748"/>
<path d="M37.5878 33.4135H41.7621V37.5877H37.5878V33.4135Z" fill="#795748"/>
<path d="M41.7622 33.4135H45.9366V37.5877H41.7622V33.4135Z" fill="#795748"/>
<path d="M54.2976 33.4135H58.472V37.5877H54.2976V33.4135Z" fill="#795748"/>
<path d="M4.17432 37.5941H8.34869V41.7684H4.17432V37.5941Z" fill="#795748"/>
<path d="M8.34863 37.5941H12.523V41.7684H8.34863V37.5941Z" fill="#795748"/>
<path d="M29.2328 37.5941H33.4072V41.7684H29.2328V37.5941Z" fill="#795748"/>
<path d="M33.4133 37.5941H37.5877V41.7684H33.4133V37.5941Z" fill="#795748"/>
<path d="M37.5878 37.5941H41.7621V41.7684H37.5878V37.5941Z" fill="#795748"/>
<path d="M58.4719 37.5941H62.6463V41.7684H58.4719V37.5941Z" fill="#795748"/>
<path d="M62.6462 37.5941H66.8206V41.7684H62.6462V37.5941Z" fill="#795748"/>
<path d="M4.17432 41.7684H8.34869V45.9429H4.17432V41.7684Z" fill="#795748"/>
<path d="M8.34863 41.7684H12.523V45.9429H8.34863V41.7684Z" fill="#795748"/>
<path d="M29.2328 41.7684H33.4072V45.9429H29.2328V41.7684Z" fill="#795748"/>
<path d="M33.4133 41.7684H37.5877V45.9429H33.4133V41.7684Z" fill="#795748"/>
<path d="M37.5878 41.7684H41.7621V45.9429H37.5878V41.7684Z" fill="#795748"/>
<path d="M58.4719 41.7684H62.6463V45.9429H58.4719V41.7684Z" fill="#795748"/>
<path d="M62.6462 41.7684H66.8206V45.9429H62.6462V41.7684Z" fill="#795748"/>
<path d="M4.17432 45.9489H8.34869V50.1231H4.17432V45.9489Z" fill="#795748"/>
<path d="M25.0585 45.9489H29.2328V50.1231H25.0585V45.9489Z" fill="#795748"/>
<path d="M29.2328 45.9489H33.4072V50.1231H29.2328V45.9489Z" fill="#795748"/>
<path d="M33.4133 45.9489H37.5877V50.1231H33.4133V45.9489Z" fill="#795748"/>
<path d="M37.5878 45.9489H41.7621V50.1231H37.5878V45.9489Z" fill="#795748"/>
<path d="M41.7622 45.9489H45.9366V50.1231H41.7622V45.9489Z" fill="#795748"/>
<path d="M62.6462 45.9489H66.8206V50.1231H62.6462V45.9489Z" fill="#795748"/>
<path d="M12.5293 50.1233H16.7037V54.2978H12.5293V50.1233Z" fill="#795748"/>
<path d="M16.7036 50.1233H20.878V54.2978H16.7036V50.1233Z" fill="#795748"/>
<path d="M20.8842 50.1233H25.0585V54.2978H20.8842V50.1233Z" fill="#795748"/>
<path d="M25.0585 50.1233H29.2328V54.2978H25.0585V50.1233Z" fill="#795748"/>
<path d="M29.2328 50.1233H33.4072V54.2978H29.2328V50.1233Z" fill="#795748"/>
<path d="M33.4133 50.1233H37.5877V54.2978H33.4133V50.1233Z" fill="#795748"/>
<path d="M37.5878 50.1233H41.7621V54.2978H37.5878V50.1233Z" fill="#795748"/>
<path d="M41.7622 50.1233H45.9366V54.2978H41.7622V50.1233Z" fill="#795748"/>
<path d="M45.9425 50.1233H50.1169V54.2978H45.9425V50.1233Z" fill="#795748"/>
<path d="M50.1169 50.1233H54.2913V54.2978H50.1169V50.1233Z" fill="#795748"/>
<path d="M54.2976 50.1233H58.472V54.2978H54.2976V50.1233Z" fill="#795748"/>
<path d="M33.4135 0.00012207H37.5878V4.1744H33.4135V0.00012207Z" fill="black"/>
<path d="M29.2328 4.18042H33.4072V8.3547H29.2328V4.18042Z" fill="black"/>
<path d="M33.4135 4.18042H37.5878V8.3547H33.4135V4.18042Z" fill="black"/>
<path d="M37.5878 4.18042H41.7621V8.3547H37.5878V4.18042Z" fill="black"/>
<path d="M25.0586 8.35474H29.233V12.5292H25.0586V8.35474Z" fill="black"/>
<path d="M41.7622 8.35474H45.9366V12.5292H41.7622V8.35474Z" fill="black"/>
<path d="M20.8842 12.5293H25.0585V16.7036H20.8842V12.5293Z" fill="black"/>
<path d="M45.9426 12.5293H50.117V16.7036H45.9426V12.5293Z" fill="black"/>
<path d="M20.8842 16.7097H25.0585V20.8842H20.8842V16.7097Z" fill="black"/>
<path d="M25.0586 16.7097H29.233V20.8842H25.0586V16.7097Z" fill="black"/>
<path d="M41.7622 16.7097H45.9366V20.8842H41.7622V16.7097Z" fill="black"/>
<path d="M45.9426 16.7097H50.117V20.8842H45.9426V16.7097Z" fill="black"/>
<path d="M12.5293 20.8842H16.7037V25.0584H12.5293V20.8842Z" fill="black"/>
<path d="M16.7036 20.8842H20.878V25.0584H16.7036V20.8842Z" fill="black"/>
<path d="M50.1171 20.8842H54.2914V25.0584H50.1171V20.8842Z" fill="black"/>
<path d="M54.2976 20.8842H58.472V25.0584H54.2976V20.8842Z" fill="black"/>
<path d="M8.34863 25.0646H12.523V29.2389H8.34863V25.0646Z" fill="black"/>
<path d="M58.4719 25.0646H62.6463V29.2389H58.4719V25.0646Z" fill="black"/>
<path d="M4.17432 29.2389H8.34869V33.4134H4.17432V29.2389Z" fill="black"/>
<path d="M62.6462 29.2389H66.8206V33.4134H62.6462V29.2389Z" fill="black"/>
<path d="M4.17432 33.4135H8.34869V37.5877H4.17432V33.4135Z" fill="black"/>
<path d="M8.34863 33.4135H12.523V37.5877H8.34863V33.4135Z" fill="black"/>
<path d="M16.7036 33.4135H20.878V37.5877H16.7036V33.4135Z" fill="black"/>
<path d="M20.8842 33.4135H25.0585V37.5877H20.8842V33.4135Z" fill="black"/>
<path d="M45.9426 33.4135H50.117V37.5877H45.9426V33.4135Z" fill="black"/>
<path d="M50.1171 33.4135H54.2914V37.5877H50.1171V33.4135Z" fill="black"/>
<path d="M58.4719 33.4135H62.6463V37.5877H58.4719V33.4135Z" fill="black"/>
<path d="M62.6462 33.4135H66.8206V37.5877H62.6462V33.4135Z" fill="black"/>
<path d="M0 37.5941H4.17436V41.7684H0V37.5941Z" fill="black"/>
<path d="M12.5293 37.5941H16.7037V41.7684H12.5293V37.5941Z" fill="black"/>
<path d="M16.7036 37.5941H20.878V41.7684H16.7036V37.5941Z" fill="black"/>
<path d="M25.0586 37.5941H29.233V41.7684H25.0586V37.5941Z" fill="black"/>
<path d="M41.7622 37.5941H45.9366V41.7684H41.7622V37.5941Z" fill="black"/>
<path d="M45.9426 37.5941H50.117V41.7684H45.9426V37.5941Z" fill="black"/>
<path d="M54.2976 37.5941H58.472V41.7684H54.2976V37.5941Z" fill="black"/>
<path d="M66.8268 37.5941H71.0011V41.7684H66.8268V37.5941Z" fill="black"/>
<path d="M0 41.7684H4.17436V45.9429H0V41.7684Z" fill="black"/>
<path d="M12.5293 41.7684H16.7037V45.9429H12.5293V41.7684Z" fill="black"/>
<path d="M16.7036 41.7684H20.878V45.9429H16.7036V41.7684Z" fill="black"/>
<path d="M20.8842 41.7684H25.0585V45.9429H20.8842V41.7684Z" fill="black"/>
<path d="M25.0586 41.7684H29.233V45.9429H25.0586V41.7684Z" fill="black"/>
<path d="M41.7622 41.7684H45.9366V45.9429H41.7622V41.7684Z" fill="black"/>
<path d="M45.9426 41.7684H50.117V45.9429H45.9426V41.7684Z" fill="black"/>
<path d="M50.1171 41.7684H54.2914V45.9429H50.1171V41.7684Z" fill="black"/>
<path d="M54.2976 41.7684H58.472V45.9429H54.2976V41.7684Z" fill="black"/>
<path d="M66.8268 41.7684H71.0011V45.9429H66.8268V41.7684Z" fill="black"/>
<path d="M0 45.9489H4.17436V50.1231H0V45.9489Z" fill="black"/>
<path d="M16.7036 45.9489H20.878V50.1231H16.7036V45.9489Z" fill="black"/>
<path d="M20.8842 45.9489H25.0585V50.1231H20.8842V45.9489Z" fill="black"/>
<path d="M45.9426 45.9489H50.117V50.1231H45.9426V45.9489Z" fill="black"/>
<path d="M50.1171 45.9489H54.2914V50.1231H50.1171V45.9489Z" fill="black"/>
<path d="M66.8268 45.9489H71.0011V50.1231H66.8268V45.9489Z" fill="black"/>
<path d="M4.17432 50.1233H8.34869V54.2978H4.17432V50.1233Z" fill="black"/>
<path d="M8.34863 50.1233H12.523V54.2978H8.34863V50.1233Z" fill="black"/>
<path d="M58.4719 50.1233H62.6463V54.2978H58.4719V50.1233Z" fill="black"/>
<path d="M62.6462 50.1233H66.8206V54.2978H62.6462V50.1233Z" fill="black"/>
<path d="M12.5293 54.2974H16.7037V58.4716H12.5293V54.2974Z" fill="black"/>
<path d="M16.7036 54.2974H20.878V58.4716H16.7036V54.2974Z" fill="black"/>
<path d="M20.8842 54.2974H25.0585V58.4716H20.8842V54.2974Z" fill="black"/>
<path d="M25.0586 54.2974H29.233V58.4716H25.0586V54.2974Z" fill="black"/>
<path d="M29.2328 54.2974H33.4072V58.4716H29.2328V54.2974Z" fill="black"/>
<path d="M33.4135 54.2974H37.5878V58.4716H33.4135V54.2974Z" fill="black"/>
<path d="M37.5878 54.2974H41.7621V58.4716H37.5878V54.2974Z" fill="black"/>
<path d="M41.7622 54.2974H45.9366V58.4716H41.7622V54.2974Z" fill="black"/>
<path d="M45.9426 54.2974H50.117V58.4716H45.9426V54.2974Z" fill="black"/>
<path d="M50.1171 54.2974H54.2914V58.4716H50.1171V54.2974Z" fill="black"/>
<path d="M54.2976 54.2974H58.472V58.4716H54.2976V54.2974Z" fill="black"/>
<path d="M25.0581 37.5929H20.8813V41.7695H25.0581V37.5929Z" fill="white"/>
<path d="M54.2952 37.5929H50.1184V41.7695H54.2952V37.5929Z" fill="white"/>
</svg>
