<?xml version="1.0" encoding="utf-8"?>
<!-- Generator: Adobe Illustrator 27.5.0, SVG Export Plug-In . SVG Version: 6.00 Build 0)  -->
<svg version="1.1" xmlns="http://www.w3.org/2000/svg" xmlns:xlink="http://www.w3.org/1999/xlink" x="0px" y="0px"
	 viewBox="0 0 750 500" style="enable-background:new 0 0 750 500;" xml:space="preserve">
<g id="BACKGROUND">
</g>
<g id="OBJECTS">
	<g id="FAMILY_4_">
		<polygon style="fill:#5145C4;" points="750,352.5 750,385 0,385 0,365 447.5,365 447.5,360 486.35,360 486.35,355 527.5,355 
			527.5,352.5 540,352.5 540,355 565,355 565,352.5 596.325,352.5 596.325,350 617.5,350 617.5,347.5 667.5,347.5 667.5,350.9 
			687.5,350.9 687.5,352.5 		"/>
		<g>
			<rect x="685" y="370" style="fill:#0D0787;" width="2.5" height="5"/>
			<rect x="655" y="370" style="fill:#0D0787;" width="2.5" height="5"/>
			<rect x="625" y="370" style="fill:#0D0787;" width="2.5" height="5"/>
			<rect x="645" y="370" style="fill:#0D0787;" width="2.5" height="5"/>
			<rect x="692.5" y="367.5" style="fill:#0D0787;" width="2.5" height="5"/>
			<rect x="700" y="362.5" style="fill:#0D0787;" width="2.5" height="5"/>
			<rect x="702.5" y="367.5" style="fill:#0D0787;" width="2.5" height="5"/>
			<rect x="667.5" y="370" style="fill:#0D0787;" width="2.5" height="5"/>
			<rect x="670" y="365" style="fill:#0D0787;" width="2.5" height="5"/>
			<rect x="672.5" y="360" style="fill:#0D0787;" width="2.5" height="5"/>
			<rect x="720" y="370" style="fill:#0D0787;" width="2.5" height="5"/>
			<rect x="735" y="375" style="fill:#0D0787;" width="2.5" height="2.5"/>
			<rect x="742.5" y="372.5" style="fill:#0D0787;" width="2.5" height="2.5"/>
			<rect x="532.5" y="375" style="fill:#0D0787;" width="2.5" height="2.5"/>
			<rect x="727.5" y="375" style="fill:#0D0787;" width="2.5" height="2.5"/>
			<rect x="707.5" y="370" style="fill:#0D0787;" width="2.5" height="2.5"/>
			<rect x="687.5" y="367.5" style="fill:#0D0787;" width="2.5" height="2.5"/>
			<rect x="657.5" y="367.5" style="fill:#0D0787;" width="2.5" height="2.5"/>
			<rect x="627.5" y="367.5" style="fill:#0D0787;" width="2.5" height="2.5"/>
			<rect x="642.5" y="367.5" style="fill:#0D0787;" width="2.5" height="2.5"/>
			<polygon style="fill:#0D0787;" points="637.5,372.5 637.5,367.5 635,367.5 635,370 632.5,370 632.5,375 635,375 635,372.5 			"/>
			<polygon style="fill:#0D0787;" points="575,372.5 575,367.5 572.5,367.5 572.5,370 570,370 570,375 572.5,375 572.5,372.5 			"/>
			<rect x="662.5" y="370" style="fill:#0D0787;" width="2.5" height="2.5"/>
			<rect x="677.5" y="370" style="fill:#0D0787;" width="2.5" height="2.5"/>
			<rect x="540" y="365" style="fill:#0D0787;" width="2.5" height="5"/>
			<rect x="542.5" y="370" style="fill:#0D0787;" width="2.5" height="5"/>
			<rect x="580" y="367.5" style="fill:#0D0787;" width="2.5" height="5"/>
			<rect x="582.5" y="372.5" style="fill:#0D0787;" width="2.5" height="5"/>
			<rect x="380" y="377.5" style="fill:#0D0787;" width="2.5" height="5"/>
			<rect x="365" y="377.5" style="fill:#0D0787;" width="2.5" height="5"/>
			<rect x="367.5" y="372.5" style="fill:#0D0787;" width="2.5" height="5"/>
			<rect x="382.5" y="375" style="fill:#0D0787;" width="2.5" height="2.5"/>
			<rect x="375" y="377.5" style="fill:#0D0787;" width="2.5" height="2.5"/>
			<rect x="472.5" y="375" style="fill:#0D0787;" width="2.5" height="5"/>
			<rect x="465" y="377.5" style="fill:#0D0787;" width="2.5" height="5"/>
			<rect x="482.5" y="372.5" style="fill:#0D0787;" width="2.5" height="5"/>
			<rect x="457.5" y="375" style="fill:#0D0787;" width="2.5" height="5"/>
			<rect x="460" y="370" style="fill:#0D0787;" width="2.5" height="5"/>
			<rect x="462.5" y="365" style="fill:#0D0787;" width="2.5" height="5"/>
			<rect x="475" y="372.5" style="fill:#0D0787;" width="2.5" height="2.5"/>
			<rect x="250" y="377.5" style="fill:#0D0787;" width="2.5" height="5"/>
			<rect x="252.5" y="375" style="fill:#0D0787;" width="2.5" height="2.5"/>
			<rect x="452.5" y="375" style="fill:#0D0787;" width="2.5" height="2.5"/>
			<rect x="467.5" y="375" style="fill:#0D0787;" width="2.5" height="2.5"/>
			<rect x="617.5" y="372.5" style="fill:#0D0787;" width="2.5" height="5"/>
			<rect x="602.5" y="372.5" style="fill:#0D0787;" width="2.5" height="5"/>
			<rect x="605" y="367.5" style="fill:#0D0787;" width="2.5" height="5"/>
			<rect x="607.5" y="362.5" style="fill:#0D0787;" width="2.5" height="5"/>
			<rect x="620" y="370" style="fill:#0D0787;" width="2.5" height="2.5"/>
			<rect x="612.5" y="372.5" style="fill:#0D0787;" width="2.5" height="2.5"/>
			<rect x="512.5" y="372.5" style="fill:#0D0787;" width="2.5" height="5"/>
			<rect x="515" y="370" style="fill:#0D0787;" width="2.5" height="2.5"/>
			<polygon style="fill:#0D0787;" points="525,375 525,370 522.5,370 522.5,372.5 520,372.5 520,377.5 522.5,377.5 522.5,375 			"/>
			<rect x="490" y="375" style="fill:#0D0787;" width="2.5" height="5"/>
			<rect x="492.5" y="370" style="fill:#0D0787;" width="2.5" height="5"/>
			<rect x="495" y="365" style="fill:#0D0787;" width="2.5" height="5"/>
			<rect x="507.5" y="372.5" style="fill:#0D0787;" width="2.5" height="2.5"/>
			<rect x="402.5" y="375" style="fill:#0D0787;" width="2.5" height="5"/>
			<rect x="405" y="372.5" style="fill:#0D0787;" width="2.5" height="2.5"/>
			<polygon style="fill:#0D0787;" points="415,377.5 415,372.5 412.5,372.5 412.5,375 410,375 410,380 412.5,380 412.5,377.5 			"/>
			<rect x="397.5" y="375" style="fill:#0D0787;" width="2.5" height="2.5"/>
			<rect x="387.5" y="377.5" style="fill:#0D0787;" width="2.5" height="5"/>
			<rect x="390" y="375" style="fill:#0D0787;" width="2.5" height="2.5"/>
			<rect x="327.5" y="375" style="fill:#0D0787;" width="2.5" height="2.5"/>
			<rect x="267.5" y="380" style="fill:#0D0787;" width="2.5" height="2.5"/>
			<rect x="332.5" y="377.5" style="fill:#0D0787;" width="2.5" height="5"/>
			<rect x="335" y="375" style="fill:#0D0787;" width="2.5" height="2.5"/>
			<rect x="290" y="377.5" style="fill:#0D0787;" width="2.5" height="2.5"/>
			<rect x="355" y="377.5" style="fill:#0D0787;" width="2.5" height="2.5"/>
			<rect x="500" y="375" style="fill:#0D0787;" width="2.5" height="2.5"/>
			<rect x="560" y="375" style="fill:#0D0787;" width="2.5" height="5"/>
			<rect x="562.5" y="370" style="fill:#0D0787;" width="2.5" height="5"/>
			<rect x="565" y="365" style="fill:#0D0787;" width="2.5" height="5"/>
			<rect x="530" y="370" style="fill:#0D0787;" width="2.5" height="5"/>
			<rect x="552.5" y="372.5" style="fill:#0D0787;" width="2.5" height="5"/>
			<rect x="550" y="367.5" style="fill:#0D0787;" width="2.5" height="5"/>
			<rect x="547.5" y="362.5" style="fill:#0D0787;" width="2.5" height="5"/>
			<rect x="300" y="377.5" style="fill:#0D0787;" width="2.5" height="2.5"/>
			<rect x="307.5" y="367.5" style="fill:#0D0787;" width="2.5" height="5"/>
			<rect x="310" y="372.5" style="fill:#0D0787;" width="2.5" height="5"/>
			<rect x="297.5" y="372.5" style="fill:#0D0787;" width="2.5" height="5"/>
			<rect x="320" y="377.5" style="fill:#0D0787;" width="2.5" height="2.5"/>
			<rect x="317.5" y="375" style="fill:#0D0787;" width="2.5" height="2.5"/>
			<rect x="315" y="370" style="fill:#0D0787;" width="2.5" height="5"/>
			<rect x="420" y="367.5" style="fill:#0D0787;" width="2.5" height="5"/>
			<rect x="422.5" y="372.5" style="fill:#0D0787;" width="2.5" height="5"/>
			<rect x="442.5" y="372.5" style="fill:#0D0787;" width="2.5" height="5"/>
			<rect x="445" y="367.5" style="fill:#0D0787;" width="2.5" height="5"/>
			<rect x="432.5" y="375" style="fill:#0D0787;" width="2.5" height="5"/>
			<rect x="430" y="370" style="fill:#0D0787;" width="2.5" height="5"/>
			<rect x="427.5" y="365" style="fill:#0D0787;" width="2.5" height="5"/>
			<rect x="722.5" y="367.5" style="fill:#0D0787;" width="2.5" height="2.5"/>
			<rect x="587.5" y="367.5" style="fill:#0D0787;" width="2.5" height="5"/>
			<rect x="595" y="372.5" style="fill:#0D0787;" width="2.5" height="2.5"/>
			<rect x="590" y="365" style="fill:#0D0787;" width="2.5" height="2.5"/>
			<rect x="347.5" y="377.5" style="fill:#0D0787;" width="2.5" height="2.5"/>
			<rect x="260" y="377.5" style="fill:#0D0787;" width="2.5" height="2.5"/>
			<rect x="242.5" y="380" style="fill:#0D0787;" width="2.5" height="2.5"/>
			<polygon style="fill:#0D0787;" points="742.5,382.5 742.5,380 742.5,375 740,375 740,380 740,385 735,385 735,380 735,377.5 
				732.5,377.5 732.5,380 732.5,385 727.5,385 727.5,380 727.5,377.5 725,377.5 725,375 722.5,375 722.5,380 722.5,385 720,385 
				720,380 717.5,380 717.5,377.5 717.5,375 715,375 715,377.5 715,382.5 712.5,382.5 712.5,377.5 712.5,372.5 710,372.5 710,377.5 
				710,385 705,385 705,380 702.5,380 702.5,377.5 702.5,372.5 700,372.5 700,377.5 700,385 695,385 695,380 692.5,380 692.5,372.5 
				690,372.5 690,380 690,385 687.5,385 687.5,382.5 685,382.5 685,380 685,375 682.5,375 682.5,380 682.5,385 677.5,385 
				677.5,377.5 677.5,372.5 675,372.5 675,377.5 675,382.5 672.5,382.5 672.5,377.5 672.5,375 670,375 670,377.5 670,385 667.5,385 
				667.5,382.5 665,382.5 665,380 662.5,380 662.5,377.5 662.5,372.5 660,372.5 660,377.5 660,385 657.5,385 657.5,382.5 655,382.5 
				655,380 655,375 652.5,375 652.5,380 652.5,385 650,385 650,382.5 645,382.5 645,380 645,375 642.5,375 642.5,380 642.5,382.5 
				640,382.5 640,380 637.5,380 637.5,375 635,375 635,380 635,382.5 632.5,382.5 632.5,385 630,385 630,380 630,375 627.5,375 
				627.5,380 627.5,382.5 622.5,382.5 622.5,385 620,385 620,382.5 617.5,382.5 617.5,380 617.5,377.5 615,377.5 615,380 615,382.5 
				612.5,382.5 612.5,380 612.5,375 610,375 610,380 610,385 607.5,385 607.5,380 607.5,377.5 605,377.5 605,380 605,382.5 
				597.5,382.5 597.5,385 595,385 595,377.5 595,375 592.5,375 592.5,372.5 590,372.5 590,377.5 590,380 592.5,380 592.5,382.5 
				587.5,382.5 587.5,380 585,380 585,382.5 582.5,382.5 582.5,380 582.5,377.5 580,377.5 580,380 580,382.5 577.5,382.5 577.5,380 
				575,380 575,375 572.5,375 572.5,380 572.5,382.5 575,382.5 575,385 567.5,385 567.5,382.5 565,382.5 565,380 562.5,380 
				562.5,382.5 562.5,385 555,385 555,382.5 552.5,382.5 552.5,377.5 550,377.5 550,382.5 550,385 545,385 545,380 542.5,380 
				542.5,375 540,375 540,382.5 540,385 537.5,385 537.5,382.5 535,382.5 535,380 532.5,380 532.5,377.5 530,377.5 530,380 
				530,382.5 530,385 527.5,385 527.5,382.5 525,382.5 525,380.3 525,377.5 522.5,377.5 522.5,380.3 522.5,382.5 520,382.5 520,385 
				517.5,385 517.5,382.5 517.5,377.5 515,377.5 515,382.5 515,385 512.5,385 512.5,382.5 510,382.5 510,380 507.5,380 507.5,375 
				505,375 505,380 502.5,380 502.5,382.5 500,382.5 500,380 500,377.5 497.5,377.5 497.5,380 497.5,382.5 497.5,385 495,385 
				495,382.5 495,380 492.5,380 492.5,382.5 492.5,385 487.5,385 487.5,382.5 485,382.5 485,380 482.5,380 482.5,377.5 480,377.5 
				480,385 475,385 475,382.5 472.5,382.5 472.5,380 470,380 470,382.5 467.5,382.5 467.5,385 462.5,385 462.5,382.5 462.5,380 
				460,380 460,382.5 460,385 455,385 455,382.5 452.5,382.5 452.5,380 452.5,377.5 450,377.5 450,380 450,382.5 450,385 447.5,385 
				447.5,377.5 445,377.5 445,382.5 442.5,382.5 442.5,380 442.5,377.5 440,377.5 440,380 440,382.5 440,385 435,385 435,382.5 
				432.5,382.5 432.5,380 430,380 430,385 427.5,385 427.5,382.5 425,382.5 425,380 422.5,380 422.5,377.5 420,377.5 420,385 
				417.5,385 417.5,382.5 415,382.5 415,380 412.5,380 412.5,382.5 412.5,385 410,385 410,382.5 407.5,382.5 407.5,380 405,380 
				405,385 402.5,385 402.5,382.5 397.5,382.5 397.5,377.5 395,377.5 395,382.5 392.5,382.5 392.5,385 387.5,385 387.5,382.5 
				385,382.5 385,385 380,385 380,382.5 377.5,382.5 377.5,385 375,385 375,380 372.5,380 372.5,385 370,385 370,382.5 367.5,382.5 
				367.5,385 360,385 360,380 357.5,380 357.5,385 350,385 350,382.5 347.5,382.5 347.5,380 345,380 345,382.5 340,382.5 
				337.5,382.5 337.5,385 332.5,385 332.5,382.5 330,382.5 330,385 327.5,385 327.5,377.5 325,377.5 325,385 320,385 320,380 
				317.5,380 317.5,385 315,385 315,382.5 310,382.5 310,377.5 307.5,377.5 307.5,382.5 305,382.5 305,385 302.5,385 302.5,382.5 
				300,382.5 300,380 297.5,380 297.5,382.5 297.5,385 292.5,385 292.5,382.5 290,382.5 290,380 287.5,380 287.5,382.5 285,382.5 
				285,385 282.5,385 282.5,382.5 280,382.5 280,385 275,385 275,382.5 272.5,382.5 272.5,385 267.5,385 267.5,382.5 265,382.5 
				265,385 260,385 260,380 257.5,380 257.5,385 250,385 250,382.5 247.5,382.5 247.5,385 242.5,385 242.5,382.5 240,382.5 240,385 
				0,385 0,500 750,500 750,387.5 750,385 750,382.5 			"/>
		</g>
		<rect y="135" style="fill:#B1AAF2;" width="750" height="35"/>
		<rect y="170" style="fill:#DAD0FC;" width="750" height="92.5"/>
		<rect style="fill:#5145C4;" width="750" height="135"/>
		<rect style="fill:#0D0787;" width="750" height="77.5"/>
		<rect x="282.5" y="82.5" style="fill:#0D0787;" width="47.5" height="2.5"/>
		<rect x="217.5" y="80" style="fill:#0D0787;" width="65" height="2.5"/>
		<rect x="127.5" y="77.5" style="fill:#0D0787;" width="90" height="2.5"/>
		<polygon style="fill:#5145C4;" points="0,40 260,40 260,42.5 117.5,42.5 117.5,45 87.5,45 87.5,47.5 0,47.5 		"/>
		<rect x="260" y="47.5" style="fill:#5145C4;" width="30" height="2.5"/>
		<rect x="130" y="67.5" style="fill:#5145C4;" width="107.5" height="2.5"/>
		<rect x="247.5" y="62.5" style="fill:#5145C4;" width="20" height="2.5"/>
		<rect x="285" y="55" style="fill:#5145C4;" width="30" height="2.5"/>
		<rect x="232.5" y="20" style="fill:#DAD0FC;" width="5" height="2.5"/>
		<rect x="232.5" y="42.5" style="fill:#5145C4;" width="37.5" height="2.5"/>
		<rect x="242.5" y="15" style="fill:#5145C4;" width="507.5" height="2.5"/>
		<polygon style="fill:#B1AAF2;" points="0,122.65 147.5,122.65 147.5,120 185,120 185,117.5 270,117.5 270,115 172.5,115 
			172.5,117.5 132.5,117.5 132.5,120 0,120 		"/>
		<polygon style="fill:#B1AAF2;" points="340,110 235,110 235,107.5 292.5,107.5 292.5,102.5 362.5,102.5 362.5,105 370,105 
			370,107.5 355,107.5 355,105 297.5,105 297.5,107.5 340,107.5 		"/>
		<polygon style="fill:#B1AAF2;" points="430.1,135 430.1,130 285,130 285,127.5 217.5,127.5 217.5,125 180,125 180,127.5 
			195,127.5 195,130 230,130 230,132.5 270,132.5 270,135 		"/>
		<polygon style="fill:#B1AAF2;" points="330,120 287.5,120 287.5,117.5 280,117.5 280,115 315,115 315,117.5 330,117.5 		"/>
		<polygon style="fill:#DAD0FC;" points="405,150 405,152.5 267.5,152.5 267.5,155 182.5,155 182.5,157.5 67.5,157.5 67.5,155 
			160,155 160,152.5 220,152.5 220,150 330,150 330,147.5 385,147.5 385,150 		"/>
		<polygon style="fill:#DAD0FC;" points="315,170 315,167.5 225,167.5 225,165 190,165 190,162.5 122.5,162.5 122.5,157.5 
			137.6,157.5 137.6,155 147.5,155 147.5,150 172.5,150 172.5,150 180,150 180,147.5 52.5,147.5 52.5,145 45,145 45,142.5 25,142.5 
			25,137.5 15,137.5 15,135 7.5,135 7.5,132.5 5,132.5 5,130 0,130 0,170 		"/>
		<polyline style="fill:#DAD0FC;" points="347.5,160 347.5,162.5 252.5,162.5 252.5,160 295,160 295,157.5 327.5,157.5 327.5,160 
			337.5,160 337.5,157.5 340,157.5 340,160 347.5,160 		"/>
		<polygon style="fill:#B1AAF2;" points="410,175 177.5,175 177.5,177.5 425,177.5 425,175 422.5,175 422.5,172.5 417.5,172.5 
			417.5,175 415,175 415,172.5 410,172.5 		"/>
		<polygon style="fill:#EF9CE8;" points="0,217.1 67.5,217.1 67.5,212.5 155,212.5 155,215 197.5,215 197.5,220 212.5,220 
			212.5,225 337.5,225 337.5,227.5 347.5,227.5 347.5,230 390,230 390,232.5 367.5,232.5 367.5,235 340,235 340,237.5 295,237.5 
			295,242.5 270,242.5 270,245 207.5,245 207.5,247.5 185,247.5 185,245 172.5,245 172.5,242.5 122.5,242.5 122.5,240 55,240 
			55,237.5 35,237.5 35,235 25,235 25,232.5 17.5,232.5 17.5,230 2.5,230 2.5,227.5 0,227.5 		"/>
		<polygon style="fill:#EF9CE8;" points="412.5,195 275,195 275,197.5 355,197.5 355,202.5 427.5,202.5 427.5,205 437.5,205 
			437.5,207.5 447.5,207.5 447.5,210 507.5,210 507.5,210 482.5,210 482.5,207.5 475,207.5 475,202.5 467.5,202.5 467.5,200 
			460,200 460,195 445,195 445,187.5 387.5,187.5 387.5,190 430,190 430,190 430,192.5 412.5,192.5 		"/>
		<polyline style="fill:#EF9CE8;" points="750,262.5 187.4,262.5 187.4,260 120,260 120,257.5 100,257.5 100,255 80,255 80,252.5 
			37.5,252.5 37.5,250 42.5,250 42.5,250 42.5,247.5 47.5,247.5 47.5,245 15,245 15,247.5 10,247.5 10,250 5,250 5,252.5 0,252.5 
			0,262.5 187.5,262.5 		"/>
		<polygon style="fill:#EF9CE8;" points="307.5,212.5 307.5,210 302.5,210 302.5,207.5 240,207.5 240,210 262.5,210 262.5,212.5 
			275,212.5 275,215 297.5,215 297.5,212.5 		"/>
		<polygon style="fill:#FFD7F7;" points="269.6,262.5 269.6,257.5 282.5,257.5 282.5,252.5 290,252.5 290,250 322.5,250 322.5,255 
			335,255 335,257.5 380,257.5 380,260 412.5,260 412.5,262.5 		"/>
		<polygon style="fill:#EF9CE8;" points="253.475,262.5 253.475,260 242.5,260 242.5,255 237.5,255 237.5,252.5 200,252.5 200,255 
			220,255 220,257.5 210,257.5 210,260 200,260 200,262.5 		"/>
		<polygon style="fill:#DAD0FC;" points="265,235 265,237.5 190,237.5 190,235 182.5,235 182.5,232.5 162.5,232.5 162.5,230 
			197.5,230 197.5,235 		"/>
		<rect y="262.5" style="fill:#FFD7F7;" width="750" height="27.5"/>
		<polygon style="fill:#DD58D1;" points="565,290 565,287.5 480,287.5 480,285 410,285 410,282.5 350,282.5 350,280 270,280 
			270,282.5 330,282.5 330,285 382.5,285 382.5,287.5 287.5,287.5 287.5,290 		"/>
		<polygon style="fill:#DD58D1;" points="221.9,290 221.9,287.5 187.5,287.5 187.5,282.5 177.5,282.5 177.5,275 75,275 75,272.5 
			67.5,272.5 67.5,267.5 27.5,267.5 27.5,272.5 42.5,272.5 42.5,275 55,275 55,280 77.5,280 77.5,285 140,285 140,287.5 47.9,287.5 
			47.9,290 		"/>
		<polygon style="fill:#B1AAF2;" points="142.5,232.5 87.5,232.5 87.5,235 72.5,235 72.5,237.5 55,237.5 55,240 122.5,240 
			122.5,242.5 172.5,242.5 172.5,245 185,245 185,247.5 207.5,247.5 207.5,245 270,245 270,242.5 185,242.5 185,240 182.5,240 
			182.5,237.5 172.5,237.5 172.5,235 142.5,235 		"/>
		<polygon style="fill:#DD58D1;" points="290,235 227.5,235 227.5,232.5 245,232.5 245,232.5 245,230 280,230 280,227.5 
			332.5,227.5 332.5,230 317.5,230 317.5,230 317.5,232.5 290,232.5 		"/>
		<rect y="290" style="fill:#DD58D1;" width="750" height="35"/>
		<polygon style="fill:#FFD7F7;" points="750,297.5 750,289.8 505,289.8 505,285 492.5,285 492.5,282.5 310,282.5 310,280 110,280 
			110,282.5 277.5,282.5 277.5,285 290,285 290,287.5 387.5,287.5 387.5,290 177.5,290 177.5,292.5 132.5,292.5 132.5,295 20,295 
			20,297.5 		"/>
		<polygon style="fill:#DAD0FC;" points="420,320 420,325 155,325 155,322.5 160,322.5 160,317.5 165,317.5 165,315 173.6,315 
			173.6,310 177.5,310 177.5,305 180,305 180,302.5 192.5,302.5 192.5,300 195,300 195,297.5 217.5,297.5 217.5,295 225,295 
			225,290 250,290 250,287.5 265,287.5 265,285 270,285 270,287.5 282.5,287.5 282.5,290 292.5,290 292.5,292.5 297.5,292.5 
			297.5,295 322.5,295 322.5,297.5 330,297.5 330,300 365,300 365,302.5 370,302.5 370,305 382.5,305 382.5,307.5 385,307.5 
			385,310 402.5,310 402.5,312.5 405,312.5 405,315 407.5,315 407.5,320 		"/>
		<polygon style="fill:#B1AAF2;" points="395,320 395,322.5 357.5,322.5 357.5,325 155,325 155,322.5 160,322.5 160,317.5 
			165,317.5 165,315 173.6,315 173.6,310 177.5,310 177.5,305 180,305 180,302.5 192.5,302.5 192.5,300 195,300 195,297.5 
			217.5,297.5 217.5,295 225,295 225,290 250,290 250,287.5 265,287.5 265,292.5 250,292.5 250,295 232.5,295 232.5,297.5 
			287.5,297.5 287.5,300 305,300 305,305 327.5,305 327.5,310 247.5,310 247.5,315 230,315 230,317.5 342.5,317.5 342.5,310 
			345,310 345,305 360,305 360,307.5 352.5,307.5 352.5,312.5 370,312.5 370,315 390,315 390,317.5 377.5,317.5 377.5,320 		"/>
		<polygon style="fill:#B1AAF2;" points="625,320 625,325 350,325 350,320 355,320 355,317.5 357.5,317.5 357.5,315 360,315 
			360,312.5 367.5,312.5 367.5,310 377.5,310 377.5,307.5 387.5,307.5 387.5,302.5 397.5,302.5 397.5,297.5 402.5,297.5 402.5,295 
			410,295 410,285 417.5,285 417.5,282.5 430,282.5 430,280 432.5,280 432.5,275 435.05,275 435.05,272.5 456.95,272.5 456.95,270 
			462.5,270 462.5,267.5 485,267.5 485,270 492.5,270 492.5,272.5 522.5,272.5 522.5,275 525,275 525,277.5 540,277.5 540,280 
			542.5,280 542.5,282.5 547.5,282.5 547.5,287.5 550,287.5 550,290 562.5,290 562.5,292.3 580,292.3 580,295 582.5,295 
			582.5,298.45 595,298.45 595,300 602.5,300 602.5,305 605,305 605,307.5 610,307.5 610,315 617.5,315 617.5,317.5 620,317.5 
			620,320 		"/>
		<polygon style="fill:#5145C4;" points="560,322.5 560,320 545,320 545,317.5 537.5,317.5 537.5,312.5 425,312.5 425,310 
			512.5,310 512.5,307.5 495,307.5 495,302.5 530,302.5 530,300 555,300 555,297.5 542.5,297.5 542.5,292.5 540,292.5 540,287.5 
			527.5,287.5 527.5,282.5 520,282.5 520,277.5 498.725,277.5 498.725,272.5 492.5,272.5 492.5,270 485,270 485,267.5 462.5,267.5 
			462.5,270 456.95,270 456.95,272.5 435.05,272.5 435.05,275 432.5,275 432.5,280 430,280 430,282.5 417.5,282.5 417.5,285 
			410,285 410,295 402.5,295 402.5,297.5 397.5,297.5 397.5,302.5 387.5,302.5 387.5,307.5 377.5,307.5 377.5,310 367.5,310 
			367.5,312.5 360,312.5 360,315 357.5,315 357.5,317.5 355,317.5 355,320 350,320 350,325 585,325 585,322.5 		"/>
		<polygon style="fill:#EF9CE8;" points="135.35,212.5 135.35,210 92.5,210 92.5,210 100,210 100,207.5 77.5,207.5 77.5,205 
			72.5,205 72.5,202.5 62.5,202.5 62.5,200 90,200 90,200 90,197.5 107.5,197.5 107.5,195 122.5,195 122.5,192.5 127.5,192.5 
			127.5,190 145,190 145,187.5 42.5,187.5 42.5,185 30,185 30,180 20,180 20,177.5 0,177.5 0,212.5 		"/>
		<polygon style="fill:#DD58D1;" points="82.4,207.5 20,207.5 20,205 30,205 30,202.5 42.5,202.5 42.5,200 52.5,200 52.5,197.5 
			12.5,197.5 12.5,195 80,195 80,192.5 110,192.5 110,195 107.5,195 107.5,197.5 90.05,197.5 90.05,200 57.5,200 57.5,202.5 
			62.5,202.5 62.5,202.5 62.5,205 82.5,205 		"/>
		<polygon style="fill:#EF9CE8;" points="130,237.5 85,237.5 85,235 105,235 105,232.5 137,232.5 137,235 130,235 130,237.5 		"/>
		<polygon style="fill:#EF9CE8;" points="82.5,292.5 82.5,295 7.5,295 7.5,292.5 0,292.5 0,290 62.9,290 62.9,292.5 		"/>
		<polygon style="fill:#EF9CE8;" points="232.5,272.5 195,272.5 195,275 212.5,275 212.5,277.5 235,277.5 235,275 232.5,275 		"/>
		<polygon style="fill:#EF9CE8;" points="290,235 250,235 250,232.5 267.5,232.5 267.5,230 285,230 285,232.5 290,232.5 		"/>
		<rect y="325" style="fill:#FFD7F7;" width="750" height="30"/>
		<polygon style="fill:#5145C4;" points="405,340 382.5,340 382.5,337.5 372.5,337.5 372.5,335 350,335 350,332.5 340,332.5 
			340,327.5 330,327.5 330,325 317.5,325 317.5,320 290,320 290,315 280,315 280,307.5 262.5,307.5 262.5,300 255.95,300 
			255.95,297.5 230,297.5 230,292.5 225,292.5 225,287.5 197.5,287.5 197.5,295 182.5,295 182.5,300 170,300 170,305 157.5,305 
			157.5,316.25 125,316.25 125,320 117.5,320 117.5,332.5 107.5,332.5 107.5,335 97.5,335 97.5,340 87.5,340 87.5,345 350,345 
			405,345 420,345 420,340 		"/>
		<rect x="347.5" y="77.5" style="fill:#0D0787;" width="47.5" height="2.5"/>
		<rect x="330" y="85" style="fill:#0D0787;" width="47.5" height="2.5"/>
		<rect x="347.5" y="82.5" style="fill:#0D0787;" width="47.5" height="2.5"/>
		<rect x="395" y="80" style="fill:#0D0787;" width="65" height="2.5"/>
		<rect x="460" y="82.5" style="fill:#0D0787;" width="90" height="2.5"/>
		<rect x="425" y="57.5" style="fill:#5145C4;" width="145" height="2.5"/>
		<rect x="335" y="50" style="fill:#5145C4;" width="12.5" height="2.5"/>
		<rect x="440" y="20" style="fill:#DAD0FC;" width="5" height="2.5"/>
		<rect x="422.5" y="50" style="fill:#DAD0FC;" width="5" height="2.5"/>
		<rect x="332.5" y="15" style="fill:#DAD0FC;" width="5" height="2.5"/>
		<rect x="340" y="35" style="fill:#5145C4;" width="37.5" height="2.5"/>
		<rect x="420" y="10" style="fill:#5145C4;" width="330" height="2.5"/>
		<rect x="387.5" y="12.5" style="fill:#5145C4;" width="330" height="2.5"/>
		<polygon style="fill:#B1AAF2;" points="750,108.7 660,108.7 660,105 510,105 510,112.5 465,112.5 465,115 425,115 425,117.5 
			347.5,117.5 347.5,120 522.5,120 522.5,115 570,115 570,112.5 595,112.5 595,110 650,110 650,112.5 720,112.5 720,115 750,115 		
			"/>
		<polygon style="fill:#B1AAF2;" points="497.5,105 380,105 380,102.5 422.5,102.5 422.5,100 485,100 485,95 525,95 525,97.5 
			492.5,97.5 492.5,100 502.5,100 502.5,102.5 497.5,102.5 		"/>
		<polygon style="fill:#B1AAF2;" points="595,135 595,132.5 535,132.5 535,130 507.5,130 507.5,127.5 447.5,127.5 447.5,125 
			435,125 435,127.5 442.5,127.5 442.5,130 500,130 500,135 		"/>
		<polygon style="fill:#DAD0FC;" points="750,148.2 647.5,148.2 647.5,150 585,150 585,147.5 710,147.5 710,150 547.5,150 
			547.5,152.5 497.5,152.5 497.5,155 730,155 730,157.5 467.5,157.5 467.5,160 737.5,160 737.5,162.5 375,162.5 375,165 410,165 
			410,167.5 710,167.5 710,170 750,170 		"/>
		<polygon style="fill:#DAD0FC;" points="587.5,137.5 507.5,137.5 507.5,135 440,135 440,132.5 497.5,132.5 497.5,130 440,130 
			440,127.5 430,127.5 430,125 532.5,125 532.5,127.5 512.5,127.5 512.5,130 560,130 560,132.5 580,132.5 580,135 587.5,135 		"/>
		<polygon style="fill:#DAD0FC;" points="605,150 605,147.5 512.5,147.5 512.5,145 465,145 465,147.5 495,147.5 495,150 577.5,150 
			577.5,147.5 617.5,147.5 617.5,150 		"/>
		<polygon style="fill:#DAD0FC;" points="497.5,155 432.5,155 432.5,157.5 405,157.5 405,160 392.5,160 392.5,162.5 382.625,162.5 
			382.625,160 387.5,160 387.5,157.5 400,157.5 400,155 427.5,155 427.5,152.5 497.5,152.5 		"/>
		<rect x="440" y="165" style="fill:#B1AAF2;" width="62.5" height="2.5"/>
		<polygon style="fill:#EF9CE8;" points="667.5,232.5 667.5,230 637.5,230 637.5,227.5 600,227.5 600,225 580,225 580,220 510,220 
			510,222.5 502.5,222.5 502.5,225 495,225 495,227.5 470,227.5 470,230 462.5,230 462.5,232.5 527.5,232.5 527.5,235 535,235 
			535,237.5 677.5,237.5 677.5,235 670,235 670,235 670,232.5 		"/>
		<polygon style="fill:#B1AAF2;" points="570,237.5 570,240 552.5,240 552.5,242.5 540,242.5 540,245 422.5,245 422.5,247.5 
			337.5,247.5 337.5,250 525,250 525,252.5 552.5,252.5 552.5,257.5 595,257.5 595,260 500,260 500,262.5 750,262.5 750,250 
			712.5,250 712.5,245 690,245 690,240 607.5,240 607.5,237.5 		"/>
		<polygon style="fill:#EF9CE8;" points="495,225 440,225 440,222.5 417.5,222.5 417.5,225 410,225 410,227.5 417.5,227.5 
			417.5,230 427.5,230 427.5,225 432.5,225 432.5,227.5 437.5,227.5 437.5,230 450,230 450,230 450,227.5 495,227.5 		"/>
		<polygon style="fill:#DD58D1;" points="452.5,210 452.5,210 450,210 450,207.5 447.5,207.5 447.5,205 437.5,205 437.5,202.5 
			427.5,202.5 427.5,205 437.5,205 437.5,207.5 447.5,207.5 447.5,210 		"/>
		<polygon style="fill:#DD58D1;" points="407.375,202.5 407.375,200 375,200 375,197.5 355,197.5 355,200 370,200 370,202.5 		"/>
		<rect x="160" y="410" style="fill:#5145C4;" width="282.5" height="2.5"/>
		<rect x="312.5" y="417.5" style="fill:#5145C4;" width="112.5" height="2.5"/>
		<rect x="392.5" y="420" style="fill:#5145C4;" width="112.5" height="2.5"/>
		<polygon style="fill:#5145C4;" points="180,25 180,22.5 152.5,22.5 152.5,20 135,20 135,22.5 107.5,22.5 107.5,25 65,25 65,27.5 
			145,27.5 152.5,27.5 165,27.5 180,27.5 200,27.5 200,25 		"/>
		<polyline style="fill:#B1AAF2;" points="182.5,102.5 85,102.5 85,100 100,100 100,97.5 127.5,97.5 127.5,95 167.5,95 167.5,97.5 
			180,97.5 180,100 182.5,100 182.5,102.5 		"/>
		<rect x="200" y="95" style="fill:#B1AAF2;" width="2.5" height="2.5"/>
		<rect x="200" y="90" style="fill:#B1AAF2;" width="2.5" height="2.5"/>
		
			<rect x="202.5" y="92.5" transform="matrix(6.123234e-17 -1 1 6.123234e-17 110 297.5)" style="fill:#B1AAF2;" width="2.5" height="2.5"/>
		
			<rect x="206.25" y="91.25" transform="matrix(6.123234e-17 -1 1 6.123234e-17 113.75 301.25)" style="fill:#FFFFFF;" width="2.5" height="5"/>
		
			<rect x="200" y="85" transform="matrix(-1 -1.224647e-16 1.224647e-16 -1 402.5 175)" style="fill:#FFFFFF;" width="2.5" height="5"/>
		
			<rect x="193.75" y="91.25" transform="matrix(6.123234e-17 -1 1 6.123234e-17 101.25 288.75)" style="fill:#FFFFFF;" width="2.5" height="5"/>
		
			<rect x="200" y="97.5" transform="matrix(-1 -1.224647e-16 1.224647e-16 -1 402.5 200)" style="fill:#FFFFFF;" width="2.5" height="5"/>
		
			<rect x="197.5" y="92.5" transform="matrix(6.123234e-17 -1 1 6.123234e-17 105 292.5)" style="fill:#B1AAF2;" width="2.5" height="2.5"/>
		<rect x="550" y="85" style="fill:#0D0787;" width="110" height="2.5"/>
		<rect x="550" y="80" style="fill:#0D0787;" width="60" height="2.5"/>
		<rect x="610" y="77.5" style="fill:#0D0787;" width="102.5" height="12.5"/>
		<rect x="562.5" y="87.5" style="fill:#0D0787;" width="110" height="2.5"/>
		<rect x="577.5" y="90" style="fill:#0D0787;" width="110" height="2.5"/>
		<rect x="592.5" y="92.5" style="fill:#0D0787;" width="110" height="2.5"/>
		<rect x="607.5" y="95" style="fill:#0D0787;" width="110" height="2.5"/>
		<rect x="475" y="60" style="fill:#5145C4;" width="145" height="2.5"/>
		<rect x="605" y="22.5" style="fill:#5145C4;" width="145" height="2.5"/>
		<rect x="582.5" y="22.5" style="fill:#5145C4;" width="145" height="2.5"/>
		<rect x="560" y="20" style="fill:#5145C4;" width="145" height="2.5"/>
		<rect x="497.5" y="27.5" style="fill:#5145C4;" width="87.5" height="2.5"/>
		<rect x="525" y="30" style="fill:#5145C4;" width="87.5" height="2.5"/>
		<rect x="647.5" y="82.5" style="fill:#0D0787;" width="52.5" height="2.5"/>
		<rect x="695" y="80" style="fill:#0D0787;" width="20" height="2.5"/>
		<rect x="712.5" y="77.5" style="fill:#0D0787;" width="12.5" height="2.5"/>
		<rect x="725" y="85" style="fill:#0D0787;" width="12.5" height="2.5"/>
		<rect x="732.5" y="82.5" style="fill:#0D0787;" width="5" height="2.5"/>
		<rect x="737.5" y="80" style="fill:#0D0787;" width="12.5" height="2.5"/>
		<rect x="687.5" y="90" style="fill:#0D0787;" width="62.5" height="7.5"/>
		<rect x="547.5" y="22.5" style="fill:#DAD0FC;" width="5" height="2.5"/>
		<rect x="677.5" y="12.5" style="fill:#DAD0FC;" width="5" height="2.5"/>
		<rect x="660" y="30" style="fill:#DAD0FC;" width="5" height="2.5"/>
		<rect x="120" y="17.5" style="fill:#DAD0FC;" width="5" height="2.5"/>
		<rect x="75" y="55" style="fill:#DAD0FC;" width="5" height="2.5"/>
		<rect x="700" y="40" style="fill:#5145C4;" width="45" height="2.5"/>
		<rect x="700" y="37.5" style="fill:#5145C4;" width="45" height="2.5"/>
		<rect x="690" y="35" style="fill:#5145C4;" width="45" height="2.5"/>
		<rect x="705" y="42.5" style="fill:#5145C4;" width="45" height="2.5"/>
		<rect x="670" y="30" style="fill:#5145C4;" width="17.5" height="2.5"/>
		<rect x="495" y="22.5" style="fill:#5145C4;" width="17.5" height="2.5"/>
		<g>
			<rect x="465" y="30" style="fill:#EF9CE8;" width="2.5" height="2.5"/>
			<rect x="465" y="25" style="fill:#EF9CE8;" width="2.5" height="2.5"/>
			
				<rect x="465" y="20" transform="matrix(-1 -1.224647e-16 1.224647e-16 -1 932.5 45)" style="fill:#5145C4;" width="2.5" height="5"/>
			
				<rect x="458.75" y="26.25" transform="matrix(6.123234e-17 -1 1 6.123234e-17 431.25 488.75)" style="fill:#5145C4;" width="2.5" height="5"/>
			
				<rect x="465" y="32.5" transform="matrix(-1 -1.224647e-16 1.224647e-16 -1 932.5 70)" style="fill:#5145C4;" width="2.5" height="5"/>
			
				<rect x="462.5" y="27.5" transform="matrix(6.123234e-17 -1 1 6.123234e-17 435 492.5)" style="fill:#EF9CE8;" width="2.5" height="2.5"/>
			
				<rect x="467.5" y="27.5" transform="matrix(6.123234e-17 -1 1 6.123234e-17 440 497.5)" style="fill:#EF9CE8;" width="2.5" height="2.5"/>
			
				<rect x="471.25" y="26.25" transform="matrix(6.123234e-17 -1 1 6.123234e-17 443.75 501.25)" style="fill:#5145C4;" width="2.5" height="5"/>
		</g>
		<g>
			<polygon style="fill:#FFFFFF;" points="675,75 675,82.5 672.5,82.5 672.5,87.5 670,87.5 670,90 667.5,90 667.5,92.5 662.5,92.5 
				662.5,95 655,95 655,97.5 645,97.5 645,95 637.5,95 637.5,92.5 632.5,92.5 632.5,90 630,90 630,87.5 627.5,87.5 627.5,85 625,85 
				625,80 622.5,80 622.5,67.5 625,67.5 625,60 627.5,60 627.5,55 630,55 630,52.5 632.5,52.5 632.5,50 635,50 635,47.5 640,47.5 
				640,45 645,45 645,42.5 650,42.5 650,40 655,40 655,37.5 625,37.5 625,40 620,40 620,42.5 615,42.5 615,45 610,45 610,47.5 
				607.5,47.5 607.5,50 605,50 605,52.5 602.5,52.5 602.5,55 600,55 600,60 597.5,60 597.5,65 595,65 595,72.5 592.5,72.5 592.5,95 
				595,95 595,102.5 597.492,102.5 597.5,107.5 600,107.5 600,110 602.596,110 602.5,112.5 605,112.5 605,115 607.5,115 
				607.5,117.5 610,117.5 610,120 612.5,120 612.5,122.5 617.5,122.5 617.5,125 625,125 625,127.5 642.5,127.5 642.5,125 650,125 
				650,122.5 655,122.5 655,120 657.5,120 657.5,117.5 660,117.5 660,115 662.5,115 662.5,112.5 667.5,112.5 667.5,110 670,110 
				670,105 672.5,105 672.5,100 675,100 675,95 677.5,95 677.5,75 			"/>
			<rect x="645" y="40" style="fill:#DAD0FC;" width="5" height="2.5"/>
			<rect x="640" y="42.5" style="fill:#DAD0FC;" width="5" height="2.5"/>
			<rect x="635" y="45" style="fill:#DAD0FC;" width="5" height="2.5"/>
			<rect x="632.5" y="47.5" style="fill:#DAD0FC;" width="2.5" height="2.5"/>
			<rect x="630" y="50" style="fill:#DAD0FC;" width="2.5" height="2.5"/>
			<rect x="627.5" y="52.5" style="fill:#DAD0FC;" width="2.5" height="2.5"/>
			<rect x="622.5" y="55" style="fill:#DAD0FC;" width="2.5" height="2.5"/>
			<rect x="625" y="50" style="fill:#DAD0FC;" width="2.5" height="2.5"/>
			<rect x="647.5" y="102.5" style="fill:#DAD0FC;" width="2.5" height="2.5"/>
			<rect x="615" y="57.5" style="fill:#DAD0FC;" width="2.5" height="2.5"/>
			<rect x="612.5" y="65" style="fill:#DAD0FC;" width="2.5" height="2.5"/>
			<rect x="617.5" y="72.5" style="fill:#DAD0FC;" width="2.5" height="5"/>
			<rect x="625" y="55" style="fill:#DAD0FC;" width="2.5" height="5"/>
			<rect x="622.5" y="60" style="fill:#DAD0FC;" width="2.5" height="7.5"/>
			<rect x="620" y="65" style="fill:#DAD0FC;" width="2.5" height="7.5"/>
			<rect x="637.5" y="102.5" style="fill:#DAD0FC;" width="5" height="2.5"/>
			<rect x="615" y="77.5" style="fill:#DAD0FC;" width="2.5" height="7.5"/>
			<rect x="607.5" y="67.5" style="fill:#DAD0FC;" width="2.5" height="7.5"/>
			<rect x="615" y="87.5" style="fill:#DAD0FC;" width="2.5" height="2.5"/>
			<rect x="620" y="75" style="fill:#DAD0FC;" width="2.5" height="5"/>
			<rect x="622.5" y="80" style="fill:#DAD0FC;" width="2.5" height="5"/>
			<rect x="617.5" y="80" style="fill:#DAD0FC;" width="2.5" height="2.5"/>
			<rect x="612.5" y="72.5" style="fill:#DAD0FC;" width="2.5" height="2.5"/>
			<rect x="610" y="77.5" style="fill:#DAD0FC;" width="2.5" height="2.5"/>
			<rect x="610" y="82.5" style="fill:#DAD0FC;" width="2.5" height="2.5"/>
			<rect x="607.5" y="87.5" style="fill:#DAD0FC;" width="2.5" height="2.5"/>
			<rect x="605" y="80" style="fill:#DAD0FC;" width="2.5" height="2.5"/>
			<rect x="610" y="92.5" style="fill:#DAD0FC;" width="2.5" height="2.5"/>
			<rect x="617.5" y="85" style="fill:#DAD0FC;" width="2.5" height="2.5"/>
			<rect x="625" y="97.5" style="fill:#DAD0FC;" width="2.5" height="2.5"/>
			<rect x="620" y="82.5" style="fill:#DAD0FC;" width="2.5" height="2.5"/>
			<rect x="617.5" y="95" style="fill:#DAD0FC;" width="2.5" height="2.5"/>
			<rect x="620" y="90" style="fill:#DAD0FC;" width="2.5" height="2.5"/>
			<rect x="625" y="90" style="fill:#DAD0FC;" width="2.5" height="2.5"/>
			<rect x="632.5" y="92.5" style="fill:#DAD0FC;" width="2.5" height="2.5"/>
			<rect x="635" y="95" style="fill:#DAD0FC;" width="2.5" height="2.5"/>
			<rect x="630" y="92.5" style="fill:#DAD0FC;" width="2.5" height="2.5"/>
			<rect x="640" y="97.5" style="fill:#DAD0FC;" width="5" height="2.5"/>
			<rect x="652.5" y="100" style="fill:#DAD0FC;" width="5" height="2.5"/>
			<rect x="622.5" y="85" style="fill:#DAD0FC;" width="2.5" height="2.5"/>
			<rect x="625" y="87.5" style="fill:#DAD0FC;" width="5" height="2.5"/>
			<rect x="630" y="100" style="fill:#DAD0FC;" width="5" height="2.5"/>
			<rect x="622.5" y="95" style="fill:#DAD0FC;" width="5" height="2.5"/>
			<rect x="617.5" y="62.5" style="fill:#DAD0FC;" width="2.5" height="7.5"/>
			<rect x="620" y="57.5" style="fill:#DAD0FC;" width="2.5" height="5"/>
			<rect x="597.5" y="57.5" style="fill:#B1AAF2;" width="2.5" height="2.5"/>
			<rect x="595" y="62.5" style="fill:#B1AAF2;" width="2.5" height="2.5"/>
			<rect x="592.5" y="70" style="fill:#B1AAF2;" width="2.5" height="2.5"/>
			<rect x="592.5" y="95" style="fill:#B1AAF2;" width="2.5" height="2.5"/>
			<rect x="595" y="102.5" style="fill:#B1AAF2;" width="2.5" height="2.5"/>
			<rect x="597.5" y="107.5" style="fill:#B1AAF2;" width="2.5" height="2.5"/>
			<rect x="600" y="110" style="fill:#B1AAF2;" width="2.5" height="2.5"/>
			<rect x="602.5" y="112.5" style="fill:#B1AAF2;" width="2.5" height="2.5"/>
			<rect x="605" y="115" style="fill:#B1AAF2;" width="2.5" height="2.5"/>
			<rect x="607.5" y="117.5" style="fill:#B1AAF2;" width="2.5" height="2.5"/>
			<rect x="610" y="120" style="fill:#B1AAF2;" width="2.5" height="2.5"/>
			<rect x="615" y="122.5" style="fill:#B1AAF2;" width="2.5" height="2.5"/>
			<rect x="622.5" y="125" style="fill:#B1AAF2;" width="2.5" height="2.5"/>
			<rect x="642.5" y="125" style="fill:#B1AAF2;" width="2.5" height="2.5"/>
			<rect x="650" y="122.5" style="fill:#B1AAF2;" width="2.5" height="2.5"/>
			<rect x="655" y="120" style="fill:#B1AAF2;" width="2.5" height="2.5"/>
			<rect x="657.5" y="117.5" style="fill:#B1AAF2;" width="2.5" height="2.5"/>
			<rect x="660" y="115" style="fill:#B1AAF2;" width="2.5" height="2.5"/>
			<rect x="662.5" y="112.5" style="fill:#B1AAF2;" width="2.5" height="2.5"/>
			<rect x="667.5" y="110" style="fill:#B1AAF2;" width="2.5" height="2.5"/>
			<rect x="670" y="105" style="fill:#B1AAF2;" width="2.5" height="2.5"/>
			<rect x="672.5" y="100" style="fill:#B1AAF2;" width="2.5" height="2.5"/>
			<rect x="675" y="95" style="fill:#B1AAF2;" width="2.5" height="2.5"/>
			<rect x="672.5" y="80" style="fill:#B1AAF2;" width="2.5" height="2.5"/>
			<rect x="670" y="85" style="fill:#B1AAF2;" width="2.5" height="2.5"/>
			<rect x="667.5" y="87.5" style="fill:#B1AAF2;" width="2.5" height="2.5"/>
			<rect x="665" y="90" style="fill:#B1AAF2;" width="2.5" height="2.5"/>
			<rect x="660" y="92.5" style="fill:#B1AAF2;" width="2.5" height="2.5"/>
			<rect x="652.5" y="95" style="fill:#B1AAF2;" width="2.5" height="2.5"/>
			<rect x="637.5" y="92.5" style="fill:#B1AAF2;" width="2.5" height="2.5"/>
			<rect x="632.5" y="90" style="fill:#B1AAF2;" width="2.5" height="2.5"/>
			<rect x="630" y="87.5" style="fill:#B1AAF2;" width="2.5" height="2.5"/>
			<rect x="627.5" y="85" style="fill:#B1AAF2;" width="2.5" height="2.5"/>
			<rect x="625" y="82.5" style="fill:#B1AAF2;" width="2.5" height="2.5"/>
			<rect x="625" y="60" style="fill:#B1AAF2;" width="2.5" height="2.5"/>
			<rect x="627.5" y="55" style="fill:#B1AAF2;" width="2.5" height="2.5"/>
			<rect x="630" y="52.5" style="fill:#B1AAF2;" width="2.5" height="2.5"/>
			<rect x="632.5" y="50" style="fill:#B1AAF2;" width="2.5" height="2.5"/>
			<rect x="635" y="47.5" style="fill:#B1AAF2;" width="2.5" height="2.5"/>
			<rect x="640" y="45" style="fill:#B1AAF2;" width="2.5" height="2.5"/>
			<rect x="645" y="42.5" style="fill:#B1AAF2;" width="2.5" height="2.5"/>
			<rect x="650" y="40" style="fill:#B1AAF2;" width="2.5" height="2.5"/>
			<rect x="622.5" y="37.5" style="fill:#B1AAF2;" width="2.5" height="2.5"/>
			<rect x="617.5" y="40" style="fill:#B1AAF2;" width="2.5" height="2.5"/>
			<rect x="612.5" y="42.5" style="fill:#B1AAF2;" width="2.5" height="2.5"/>
			<rect x="607.5" y="45" style="fill:#B1AAF2;" width="2.5" height="2.5"/>
			<rect x="605" y="47.5" style="fill:#B1AAF2;" width="2.5" height="2.5"/>
			<rect x="602.5" y="50" style="fill:#B1AAF2;" width="2.5" height="2.5"/>
			<rect x="600" y="52.5" style="fill:#B1AAF2;" width="2.5" height="2.5"/>
			<rect x="622.5" y="77.5" style="fill:#B1AAF2;" width="2.5" height="2.5"/>
			<rect x="622.5" y="67.5" style="fill:#B1AAF2;" width="2.5" height="2.5"/>
		</g>
		<polygon style="fill:#B1AAF2;" points="522.5,117.25 582.5,117.25 582.5,120 680,120 680,122.5 750,122.5 750,125.125 
			662.5,125.125 662.5,122.5 575,122.5 575,120 522.5,120 		"/>
		<polygon style="fill:#B1AAF2;" points="728.3,135 728.3,132.5 650,132.5 650,130 642.5,130 642.5,127.5 605,127.5 605,130 
			620,130 620,130 620,132.5 630,132.5 630,135 		"/>
		<polyline style="fill:#DAD0FC;" points="570,120 617.5,120 617.5,117.5 585,117.5 585,115 545,115 545,112.5 522.5,112.5 
			522.5,115 539.45,115 539.45,117.5 570,117.5 570,120 		"/>
		<polygon style="fill:#B1AAF2;" points="750,191.6 547.5,191.6 547.5,190 640,190 640,187.5 677.5,187.5 677.5,185 710,185 
			710,182.5 725,182.5 725,187.5 732.5,187.5 732.5,190 750,190 		"/>
		<polyline style="fill:#B1AAF2;" points="635,175 635,175 635,177.5 555,177.5 555,175 635,175 		"/>
		<polygon style="fill:#EF9CE8;" points="653.975,230 653.975,227.5 677.5,227.5 677.5,225 685,225 685,222.5 722.5,222.5 
			722.5,220 727.5,220 727.5,217.5 732.5,217.5 732.5,215 750,215 750,240 732.5,240 732.5,237.5 725,237.5 725,235 720,235 
			720,232.5 700,232.5 700,230 		"/>
		<polygon style="fill:#EF9CE8;" points="701.987,222.5 701.987,217.5 640,217.5 640,220 632.5,220 632.5,222.5 607.5,222.5 
			607.5,222.5 607.5,225 600,225 600,227.5 647.5,227.5 647.5,225 650,225 650,222.5 660,222.5 660,220 672.5,220 672.5,222.5 
			677.5,222.5 677.5,225 697.5,225 697.5,222.5 		"/>
		<polygon style="fill:#EF9CE8;" points="689.6,217.5 689.6,215 672.5,215 672.5,212.5 632.5,212.5 632.5,210 595,210 595,212.5 
			577.5,212.5 577.5,212.5 577.5,215 555,215 555,217.5 542.5,217.5 542.5,220 576.95,220 576.95,217.5 590,217.5 590,215 
			612.5,215 612.5,217.5 625,217.5 625,220 690,220 		"/>
		<polygon style="fill:#EF9CE8;" points="595,210 595,210 570,210 570,207.5 555,207.5 555,205 527.5,205 527.5,207.5 525,207.5 
			525,210 517.5,210 517.5,212.5 512.5,212.5 512.5,215 522.5,215 522.5,217.5 530,217.5 530,220 542.5,220 542.5,217.5 535,217.5 
			535,215 532.5,215 532.5,212.5 530,212.5 530,210 542.5,210 542.5,212.5 547.5,212.5 547.5,215 577.5,215 577.5,210 		"/>
		<polygon style="fill:#DD58D1;" points="692.5,270 580,270 580,267.5 510,267.5 510,270 480,270 480,272.5 620,272.5 620,275 
			687.5,275 687.5,280 710,280 710,282.5 695,282.5 695,285 675,285 675,287.5 610,287.5 610,290 750,290 750,277.5 735,277.5 
			735,275 722.5,275 722.5,275 722.5,272.5 692.5,272.5 		"/>
		<polygon style="fill:#B1AAF2;" points="570,237.5 570,235 550,235 550,232.5 545,232.5 545,230 482.5,230 482.5,232.5 
			527.5,232.5 527.5,235 535,235 535,237.5 		"/>
		<polygon style="fill:#DD58D1;" points="535,210 535,210 570,210 570,210 572.5,210 572.5,212.5 577.5,212.5 577.5,215 555,215 
			555,212.5 550,212.5 550,210 		"/>
		<polygon style="fill:#EF9CE8;" points="569.15,272.5 569.15,270 510,270 510,267.5 490,267.5 490,270 505,270 505,272.5 		"/>
		<polygon style="fill:#EF9CE8;" points="590,257.5 552.5,257.5 552.5,254.9 575,254.9 575,252.5 620,252.5 620,255 590,255 		"/>
		<polygon style="fill:#5145C4;" points="750,301.1 605,301.1 605,297.5 535,297.5 535,295 707.5,295 707.5,297.5 750,297.5 		"/>
		<polygon style="fill:#EF9CE8;" points="0,422.5 407.5,422.5 407.5,427.5 630,427.5 630,432.5 702.5,432.5 702.5,440 750,440 
			750,500 0,500 		"/>
		<rect x="560" y="467.5" style="fill:#EF9CE8;" width="190" height="2.5"/>
		<rect x="550" y="470" style="fill:#EF9CE8;" width="190" height="2.5"/>
		<rect x="560" y="480" style="fill:#EF9CE8;" width="190" height="2.5"/>
		<rect x="542.5" y="482.5" style="fill:#EF9CE8;" width="190" height="2.5"/>
		<rect x="107.5" y="437.5" style="fill:#EF9CE8;" width="177.5" height="2.5"/>
		<rect x="17.5" y="440" style="fill:#EF9CE8;" width="727.5" height="2.5"/>
		<polygon style="fill:#B1AAF2;" points="0,47.5 15,47.5 15,55 20,55 20,57.5 25,57.5 25,62.5 37.5,62.5 37.5,65 42.5,65 42.5,67.5 
			45,67.5 45,70 55,70 55,72.5 62.5,72.5 62.5,80 67.5,80 67.5,85 75,85 75,90 75,92.5 85,92.5 85,87.5 95,87.5 95,85 107.5,85 
			107.5,82.5 110,82.5 110,62.5 115,62.5 115,57.5 122.5,57.5 122.5,55 137.5,55 137.5,57.5 140,57.5 140,62.5 142.5,62.5 
			142.5,72.5 145,72.5 145,102.5 147.5,102.5 147.5,140 150,140 150,215 154.2,215 154.2,335 160,335 160,387.5 165,387.5 
			165,417.5 172.5,417.5 172.5,422.5 0,422.5 		"/>
		<polygon style="fill:#5145C4;" points="50.45,301.3 50.45,360 47.5,360 47.5,372.5 50,372.5 50,397.5 52.5,397.5 52.5,412.5 
			55,412.5 55,422.5 35,422.5 35,375 37.5,375 37.5,340 40,340 40,320 42.5,320 42.5,310 45,310 45,305 47.5,305 47.5,301.3 		"/>
		<polygon style="fill:#5145C4;" points="20,192.5 20,185 30,185 30,192.5 35,192.5 35,200 40,200 40,207.5 42.5,207.5 42.5,227.5 
			40,227.5 40,215 37.5,215 37.5,212.5 35,212.5 35,205 32.5,205 32.5,200 30,200 30,195 20,195 		"/>
		<polygon style="fill:#5145C4;" points="8.65,47.5 8.65,112.5 12.5,112.5 12.5,120 17.5,120 17.5,192.5 25,192.5 25,210 22.5,210 
			22.5,227.5 15,227.5 15,260 10,260 10,320 20,320 20,335 25,335 25,354.875 20,354.875 20,360 12.5,360 12.5,422.5 0,422.5 
			0,47.5 		"/>
		<polygon style="fill:#5145C4;" points="89.9,87.5 89.9,120 85,120 85,122.65 87.45,122.65 87.45,125 90,125 90,130 85,130 85,135 
			77.5,135 77.5,92.5 85,92.5 85,87.5 		"/>
		<polygon style="fill:#5145C4;" points="110,82.5 110,95 103.4,95 103.4,110 100,110 100,130 97.5,130 97.5,137.5 92.5,137.5 
			92.5,155 90,155 90,160 87.5,160 87.5,137.5 85,137.5 82.5,137.5 82.5,135 92.5,135 92.5,127.5 95,127.5 95,87.5 97.5,87.5 
			97.5,92.5 100,92.5 100,105 102.5,105 102.5,90 105,90 105,85 107.5,85 107.5,82.5 		"/>
		<polygon style="fill:#5145C4;" points="102.5,127.5 102.5,130 105,130 115,130 115,137.5 120,137.5 120,142.5 125,142.5 125,160 
			130,160 130,162.5 125,162.5 125,167.5 117.5,167.5 117.5,150 112.5,150 112.5,145 107.5,145 107.5,142.5 110,142.5 110,140 
			107.5,140 107.5,137.5 102.5,137.5 102.5,135 100,135 100,132.5 97.5,132.5 97.5,137.5 92.5,137.5 92.5,127.5 		"/>
		<polygon style="fill:#5145C4;" points="110,162.5 107.5,162.5 107.5,157.775 102.5,157.775 102.5,155 96.25,155 96.25,157.5 
			95,157.5 95,170 90,170 90,172.5 87.5,172.5 87.5,175 85,175 85,235 88.7,235 88.7,220 92.5,220 92.5,195 97.5,195 97.5,192.5 
			105,192.5 105,172.5 100,172.5 100,165 107.5,165 107.5,167.5 110,167.5 110,207.5 115,207.5 115,215 120,215 120,222.5 
			122.5,222.5 122.5,235 125,235 125,212.5 120,212.5 120,207.5 117.5,207.5 117.5,202.5 112.5,202.5 112.5,157.5 110,157.5 		"/>
		<polygon style="fill:#5145C4;" points="105,200 102.5,200 102.5,205 100,205 100,210 97.5,210 97.5,240 93.35,240 93.35,242.5 
			90,242.5 90,245 87.5,245 87.5,257.5 85,257.5 85,265 87.5,265 87.5,342.5 90,342.5 90,312.5 92.5,312.5 92.5,317.5 95,317.5 
			95,325.175 97.5,325.175 97.5,350 100,350 100,354.875 105,354.875 		"/>
		<polygon style="fill:#5145C4;" points="110,230 112.5,230 112.5,240 117.5,240 117.5,245 120,245 120,340 122.5,340 122.5,347.5 
			127.5,347.5 127.5,420 112.5,420 112.5,355 120,355 120,345 110,345 110,320 115,320 115,245 110,245 110,235 107.5,235 
			107.5,215 110,215 		"/>
		<polygon style="fill:#5145C4;" points="120,207.5 120,192.5 127.5,192.5 127.5,187.5 132.5,187.5 132.5,185 135,185 135,177.5 
			142.5,177.5 142.5,175 135,175 135,180 130,180 130,182.5 127.5,182.5 127.5,185 120,185 120,187.5 115,187.5 115,190 112.5,190 
			112.5,202.5 117.5,202.5 117.5,207.5 		"/>
		<polygon style="fill:#5145C4;" points="25,57.5 20,57.5 20,55 17.5,55 17.5,82.5 25,82.5 25,90 22.5,90 22.5,92.5 20,92.5 
			20,97.5 15,97.5 15,105 25,105 25,102.5 27.5,102.5 27.5,97.5 30,97.5 30,62.5 25,62.5 		"/>
		<polygon style="fill:#5145C4;" points="37.5,65 37.5,102.5 35,102.5 35,105 32.5,105 32.5,110 25,110 25,112.5 22.5,112.5 
			22.5,115 32.5,115 32.5,117.5 37.5,117.5 37.5,122.75 40,122.75 40,140 42.5,140 42.5,132.5 45,132.5 45,77.5 42.5,77.5 42.5,100 
			40,100 40,65 		"/>
		<polygon style="fill:#5145C4;" points="32.5,130 25,130 25,185 30,185 30,162.5 32.5,162.5 32.5,165 37.5,165 37.5,190 42.5,190 
			42.5,227.5 40,227.5 40,232.5 30,232.5 30,237.5 30,237.5 25,237.5 25,272.5 32.5,272.5 32.5,280 37.5,280 37.5,285 40,285 
			40,267.5 32.5,267.5 32.5,262.5 30,262.5 30,242.5 32.5,242.5 32.5,237.5 40,237.5 40,232.5 45,232.5 45,225 50,225 50,200.075 
			52.5,200.075 52.5,190 50,190 50,182.5 45,182.5 45,175 42.5,175 42.5,165 40,165 40,157.5 35,157.5 35,150 30,150 30,132.5 
			37.5,132.5 37.5,130 40,130 40,122.5 37.5,122.5 37.5,130 35,130 35,122.5 32.5,122.5 		"/>
		<polygon style="fill:#B1AAF2;" points="90,475 65,475 65,472.5 67.5,472.5 67.5,470 72.5,470 72.5,467.5 85,467.5 85,470 
			87.5,470 87.5,472.5 90,472.5 		"/>
		<rect x="202.5" y="457.5" style="fill:#DD58D1;" width="77.5" height="2.5"/>
		<rect x="230" y="452.5" style="fill:#DD58D1;" width="42.5" height="2.5"/>
		<rect x="30" y="450" style="fill:#FFD7F7;" width="70" height="2.5"/>
		<rect x="235" y="455" style="fill:#DD58D1;" width="12.5" height="2.5"/>
		<rect x="282.5" y="452.5" style="fill:#DD58D1;" width="12.5" height="2.5"/>
		<rect x="130" y="465" style="fill:#FFD7F7;" width="12.5" height="2.5"/>
		<rect x="72.5" y="475" style="fill:#FFD7F7;" width="27.5" height="2.5"/>
		<rect x="150" y="462.5" style="fill:#FFD7F7;" width="10" height="2.5"/>
		<rect x="155" y="455" style="fill:#FFD7F7;" width="5" height="2.5"/>
		<rect x="165" y="455" style="fill:#FFD7F7;" width="2.5" height="2.5"/>
		<rect x="107.5" y="450" style="fill:#FFD7F7;" width="5" height="2.5"/>
		<rect x="107.5" y="475" style="fill:#FFD7F7;" width="5" height="2.5"/>
		<rect x="267.5" y="427.5" style="fill:#DD58D1;" width="42.5" height="2.5"/>
		<rect x="107.5" y="422.5" style="fill:#DD58D1;" width="72.5" height="2.5"/>
		<rect x="27.5" y="422.5" style="fill:#DD58D1;" width="35" height="2.5"/>
		<rect x="67.5" y="422.5" style="fill:#DD58D1;" width="12.5" height="2.5"/>
		<rect x="87.5" y="422.5" style="fill:#DD58D1;" width="10" height="2.5"/>
		<rect x="317.5" y="427.5" style="fill:#DD58D1;" width="15" height="2.5"/>
		<rect x="310" y="425" style="fill:#DD58D1;" width="7.5" height="2.5"/>
		<rect x="172.5" y="420" style="fill:#DD58D1;" width="235" height="2.5"/>
		<g>
			<polygon style="fill:#B1AAF2;" points="310,427.5 260,427.5 260,422.5 270,422.5 270,410 275,410 275,400 280,400 280,390 
				305,390 305,400 307.5,400 307.5,405 315,405 315,410 320,410 320,412.5 325,412.5 325,425 310,425 			"/>
			<polygon style="fill:#5145C4;" points="290,390 290,395 285,395 285,400 280,400 280,415 275,415 275,422.5 282.5,422.5 
				282.5,427.5 297.5,427.5 297.5,422.5 310,422.5 310,427.5 260,427.5 260,422.5 270,422.5 270,410 275,410 275,400 280,400 
				280,390 			"/>
			<rect x="277.5" y="415" style="fill:#5145C4;" width="2.5" height="2.5"/>
			<rect x="277.5" y="420" style="fill:#5145C4;" width="2.5" height="2.5"/>
			<rect x="280" y="417.5" style="fill:#5145C4;" width="2.5" height="2.5"/>
			<rect x="290" y="415" style="fill:#5145C4;" width="2.5" height="2.5"/>
			<rect x="282.5" y="415" style="fill:#5145C4;" width="2.5" height="2.5"/>
			<rect x="285" y="422.5" style="fill:#5145C4;" width="2.5" height="2.5"/>
			<rect x="287.5" y="425" style="fill:#5145C4;" width="2.5" height="2.5"/>
			<rect x="290" y="422.5" style="fill:#5145C4;" width="2.5" height="2.5"/>
			<rect x="287.5" y="417.5" style="fill:#5145C4;" width="2.5" height="2.5"/>
			<rect x="292.5" y="425" style="fill:#5145C4;" width="2.5" height="2.5"/>
			<rect x="295" y="422.5" style="fill:#5145C4;" width="2.5" height="2.5"/>
			<rect x="282.5" y="425" style="fill:#5145C4;" width="2.5" height="2.5"/>
			<rect x="280" y="412.5" style="fill:#5145C4;" width="2.5" height="2.5"/>
			<rect x="282.5" y="407.5" style="fill:#5145C4;" width="2.5" height="2.5"/>
			<rect x="280" y="402.5" style="fill:#5145C4;" width="2.5" height="2.5"/>
			<rect x="275" y="417.5" style="fill:#5145C4;" width="2.5" height="2.5"/>
			<rect x="275" y="420" style="fill:#5145C4;" width="2.5" height="2.5"/>
			<rect x="290" y="400" style="fill:#5145C4;" width="7.5" height="5"/>
			<rect x="297.5" y="400" style="fill:#5145C4;" width="5" height="2.5"/>
			<rect x="302.5" y="402.5" style="fill:#5145C4;" width="2.5" height="12.5"/>
			<rect x="302.5" y="390" style="fill:#DAD0FC;" width="2.5" height="7.5"/>
			<rect x="305" y="400" style="fill:#DAD0FC;" width="2.5" height="2.5"/>
			<rect x="310" y="405" style="fill:#DAD0FC;" width="5" height="2.5"/>
			<rect x="315" y="410" style="fill:#DAD0FC;" width="5" height="2.5"/>
			<rect x="320" y="412.5" style="fill:#DAD0FC;" width="5" height="2.5"/>
			<rect x="292.5" y="390" style="fill:#DAD0FC;" width="10" height="2.5"/>
		</g>
		<rect x="352.5" y="425" style="fill:#DD58D1;" width="55" height="2.5"/>
		<rect x="305" y="437.5" style="fill:#DD58D1;" width="35" height="2.5"/>
		<rect x="345" y="437.5" style="fill:#DD58D1;" width="15" height="2.5"/>
		<rect x="365" y="437.5" style="fill:#DD58D1;" width="7.5" height="2.5"/>
		<rect x="532.5" y="467.5" style="fill:#DD58D1;" width="7.5" height="2.5"/>
		<rect x="457.5" y="427.5" style="fill:#DD58D1;" width="15" height="2.5"/>
		<rect x="440" y="427.5" style="fill:#DD58D1;" width="7.5" height="2.5"/>
		<rect x="487.5" y="467.498" style="fill:#DD58D1;" width="35" height="2.5"/>
		<rect x="397.5" y="437.498" style="fill:#DD58D1;" width="5" height="2.5"/>
		<polyline style="fill:#DD58D1;" points="545,442.5 567.5,442.5 567.5,440 580,440 580,437.5 592.5,437.5 592.5,435 582.5,435 
			582.5,432.5 562.5,432.5 562.5,427.5 570,427.5 570,430 590,430 590,432.5 595,432.5 595,435 645,435 645,437.5 610,437.5 
			610,440 582.5,440 582.5,442.5 572.5,442.5 572.5,445 545,445 		"/>
		<path style="fill:#DD58D1;" d="M545,442.5"/>
		<polyline style="fill:#DD58D1;" points="545,452.5 500,452.5 500,450 545,450 		"/>
		<path style="fill:#DD58D1;" d="M545,445"/>
		<g>
			<polygon style="fill:#B1AAF2;" points="542.5,450 492.5,450 492.5,447.5 497.5,447.5 497.5,445 500,445 500,435 522.5,435 
				522.5,442.5 530,442.5 530,447.5 542.5,447.5 			"/>
			<rect x="502.5" y="435" style="fill:#DAD0FC;" width="20" height="2.5"/>
			<rect x="522.5" y="442.5" style="fill:#DAD0FC;" width="7.5" height="2.5"/>
			<rect x="535" y="447.5" style="fill:#DAD0FC;" width="7.5" height="2.5"/>
			<rect x="500" y="440" style="fill:#5145C4;" width="2.5" height="5"/>
			<rect x="497.5" y="445" style="fill:#5145C4;" width="2.5" height="5"/>
			<rect x="492.5" y="447.5" style="fill:#5145C4;" width="5" height="2.5"/>
			<rect x="502.5" y="445" style="fill:#5145C4;" width="2.5" height="2.5"/>
			<rect x="505" y="447.5" style="fill:#5145C4;" width="2.5" height="2.5"/>
			<rect x="500" y="447.5" style="fill:#5145C4;" width="2.5" height="2.5"/>
			<rect x="502.5" y="440" style="fill:#5145C4;" width="12.5" height="2.5"/>
		</g>
		<polygon style="fill:#5145C4;" points="750,350.9 650,350.9 650,345 660,345 660,342.5 665,342.5 665,340 672.5,340 672.5,335 
			680,335 680,312.5 695,312.5 695,307.5 697.5,307.5 697.5,302.5 705,302.5 705,297.5 710,297.5 710,290 725,290 725,282.5 
			730,282.5 730,280 750,280 		"/>
		<polygon style="fill:#5145C4;" points="750,347.5 750,355 470,355 470,352.5 477.5,352.5 477.5,347.5 497.5,347.5 497.5,340 
			522.5,340 522.5,337.5 537.5,337.5 537.5,332.5 552.5,332.5 552.5,330 560,330 560,315 565,315 565,312.5 570,312.5 570,310 
			582.5,310 582.5,307.5 585,307.5 585,305 592.5,305 592.5,300 595,300 595,282.5 597.5,282.5 597.5,280 602.5,280 602.5,277.5 
			617.5,277.5 617.5,275 622.5,275 622.5,272.5 657.5,272.5 657.5,277.5 660,277.5 660,285 662.1,285 662.1,290 670,290 670,292.5 
			672.5,292.5 672.5,297.5 675,297.5 675,305 677.5,305 677.5,312.5 680,312.5 680,317.5 682.5,317.5 682.5,322.5 715,322.5 
			715,325 725,325 725,342.5 732.5,342.5 732.5,345 740,345 740,347.5 		"/>
		<rect x="72.5" y="285" style="fill:#B1AAF2;" width="2.5" height="72.5"/>
		<rect x="30" y="415" style="fill:#DD58D1;" width="2.5" height="5"/>
		<rect x="40" y="290" style="fill:#DAD0FC;" width="2.5" height="2.5"/>
		<rect x="5" y="417.5" style="fill:#EF9CE8;" width="2.5" height="2.5"/>
		<rect x="10" y="415" style="fill:#EF9CE8;" width="5" height="2.5"/>
		<rect x="42.5" y="412.5" style="fill:#EF9CE8;" width="2.5" height="2.5"/>
		<rect x="47.5" y="415" style="fill:#EF9CE8;" width="2.5" height="2.5"/>
		<rect x="20" y="415" style="fill:#DD58D1;" width="2.5" height="2.5"/>
		<rect x="17.5" y="412.5" style="fill:#DD58D1;" width="2.5" height="2.5"/>
		<rect x="57.5" y="415" style="fill:#DD58D1;" width="2.5" height="2.5"/>
		<rect x="35" y="297.5" style="fill:#5145C4;" width="2.5" height="5"/>
		<rect x="45" y="280" style="fill:#5145C4;" width="2.5" height="5"/>
		<rect x="25" y="407.5" style="fill:#DD58D1;" width="2.5" height="2.5"/>
		<polyline style="fill:#EF9CE8;" points="70,415 70,422.5 92.5,422.5 92.5,422.5 92.5,420 82.5,420 82.5,417.5 77.5,417.5 
			77.5,415 70,415 		"/>
		<polyline style="fill:#EF9CE8;" points="100,415 100,422.5 122.5,422.5 122.5,422.5 122.5,420 112.5,420 112.5,417.5 107.5,417.5 
			107.5,415 100,415 		"/>
		<rect x="75" y="410" style="fill:#EF9CE8;" width="5" height="2.5"/>
		<rect x="82.5" y="412.5" style="fill:#EF9CE8;" width="2.5" height="2.5"/>
		<rect x="15" y="417.5" style="fill:#EF9CE8;" width="10" height="5"/>
		<rect x="35" y="420" style="fill:#EF9CE8;" width="5" height="2.5"/>
		<rect x="50" y="420" style="fill:#EF9CE8;" width="5" height="2.5"/>
		<rect x="52.5" y="417.5" style="fill:#EF9CE8;" width="2.5" height="2.5"/>
		<rect x="10" y="420" style="fill:#EF9CE8;" width="10" height="2.5"/>
		<rect x="62.5" y="417.5" style="fill:#DD58D1;" width="12.5" height="2.5"/>
		<rect x="342.5" y="470" style="fill:#DD58D1;" width="80" height="2.5"/>
		<rect x="397.5" y="467.5" style="fill:#DD58D1;" width="80" height="2.5"/>
		<rect x="480" y="427.5" style="fill:#DD58D1;" width="52.5" height="2.5"/>
		<rect x="70" y="245" style="fill:#B1AAF2;" width="2.5" height="35"/>
		<rect x="67.5" y="260" style="fill:#5145C4;" width="2.5" height="15"/>
		<rect x="72.5" y="247.5" style="fill:#B1AAF2;" width="2.5" height="20"/>
		<rect x="75" y="252.5" style="fill:#B1AAF2;" width="2.5" height="12.5"/>
		<rect x="67.5" y="252.5" style="fill:#B1AAF2;" width="2.5" height="7.5"/>
		<rect x="70" y="267.5" style="fill:#5145C4;" width="2.5" height="5"/>
		<rect x="70" y="277.5" style="fill:#5145C4;" width="2.5" height="2.5"/>
		<rect x="72.5" y="217.5" style="fill:#5145C4;" width="2.5" height="15"/>
		<rect x="125" y="397.5" style="fill:#FFD7F7;" width="5" height="2.5"/>
		<rect x="115" y="405" style="fill:#DD58D1;" width="5" height="2.5"/>
		<rect x="120" y="395" style="fill:#DD58D1;" width="2.5" height="2.5"/>
		<rect x="130" y="390" style="fill:#DD58D1;" width="2.5" height="2.5"/>
		<rect x="12.5" y="375" style="fill:#DD58D1;" width="7.5" height="2.5"/>
		<rect x="140" y="385" style="fill:#FFD7F7;" width="2.5" height="2.5"/>
		<rect x="42.5" y="380" style="fill:#FFD7F7;" width="2.5" height="2.5"/>
		<rect x="42.5" y="392.5" style="fill:#EF9CE8;" width="2.5" height="2.5"/>
		<rect x="180" y="377.5" style="fill:#EF9CE8;" width="2.5" height="2.5"/>
		<rect x="135" y="380" style="fill:#FFD7F7;" width="2.5" height="2.5"/>
		<rect x="180" y="387.5" style="fill:#DD58D1;" width="2.5" height="2.5"/>
		<rect x="82.5" y="365" style="fill:#5145C4;" width="7.5" height="2.5"/>
		<rect x="87.5" y="370" style="fill:#5145C4;" width="2.5" height="15"/>
		<rect x="85" y="367.5" style="fill:#5145C4;" width="2.5" height="2.5"/>
		<rect x="85" y="375" style="fill:#5145C4;" width="2.5" height="2.5"/>
		<rect x="85" y="382.5" style="fill:#5145C4;" width="2.5" height="2.5"/>
		<rect x="85" y="390" style="fill:#5145C4;" width="2.5" height="2.5"/>
		<rect x="82.5" y="387.5" style="fill:#5145C4;" width="2.5" height="2.5"/>
		<rect x="82.5" y="380" style="fill:#5145C4;" width="2.5" height="2.5"/>
		<rect x="82.5" y="372.5" style="fill:#5145C4;" width="2.5" height="2.5"/>
		<rect x="90" y="390" style="fill:#DAD0FC;" width="2.5" height="15"/>
		<rect x="75" y="467.5" style="fill:#DAD0FC;" width="10" height="2.5"/>
		<rect x="82.5" y="470" style="fill:#DAD0FC;" width="5" height="2.5"/>
		<rect x="87.5" y="472.5" style="fill:#DAD0FC;" width="2.5" height="2.5"/>
		<rect x="65" y="472.5" style="fill:#5145C4;" width="5" height="2.5"/>
		<rect x="70" y="470" style="fill:#5145C4;" width="2.5" height="5"/>
		<rect x="72.5" y="467.5" style="fill:#5145C4;" width="2.5" height="2.5"/>
		<g>
			<polygon style="fill:#B1AAF2;" points="145,465 122.5,465 122.5,460 125,460 125,457.5 127.5,457.5 127.5,452.5 130,452.5 
				130,445 145,445 145,450 147.5,450 147.5,455 150,455 150,462.5 145,462.5 			"/>
			<rect x="130" y="445" style="fill:#5145C4;" width="5" height="20"/>
			<rect x="127.5" y="455" style="fill:#5145C4;" width="2.5" height="10"/>
			<rect x="125" y="457.5" style="fill:#5145C4;" width="2.5" height="7.5"/>
			<rect x="122.5" y="462.5" style="fill:#5145C4;" width="2.5" height="2.5"/>
			<rect x="135" y="445" style="fill:#5145C4;" width="2.5" height="2.5"/>
			<rect x="135" y="450" style="fill:#5145C4;" width="2.5" height="2.5"/>
			<rect x="137.5" y="447.5" style="fill:#5145C4;" width="2.5" height="2.5"/>
			<rect x="137.5" y="452.5" style="fill:#5145C4;" width="2.5" height="2.5"/>
			<rect x="137.5" y="457.5" style="fill:#5145C4;" width="2.5" height="2.5"/>
			<rect x="135" y="455" style="fill:#5145C4;" width="2.5" height="2.5"/>
			<rect x="135" y="460" style="fill:#5145C4;" width="2.5" height="2.5"/>
			<rect x="137.5" y="445" style="fill:#DAD0FC;" width="7.5" height="2.5"/>
			<rect x="145" y="450" style="fill:#DAD0FC;" width="2.5" height="2.5"/>
			<rect x="147.5" y="455" style="fill:#DAD0FC;" width="2.5" height="2.5"/>
		</g>
		<polygon style="fill:#DD58D1;" points="112.5,450 112.5,447.5 20,447.5 20,450 95,450 95,452.5 55,452.5 55,455 37.5,455 
			37.5,455 37.5,457.5 12.5,457.5 12.5,460 102.5,460 102.5,457.5 60,457.5 60,455 100,455 100,452.5 107.5,452.5 107.5,450 		"/>
		<path style="fill:#FFD7F7;" d="M290,465v-5H172.5v2.5H245v2.5h12.5c0,0-2.5,5,0,5s67.5,0,67.5,0v-5H290z"/>
		<rect x="10" y="487.5" style="fill:#EF9CE8;" width="407.5" height="2.5"/>
		<rect x="90" y="490" style="fill:#EF9CE8;" width="407.5" height="2.5"/>
		<rect x="432.5" y="480" style="fill:#EF9CE8;" width="27.5" height="2.5"/>
		<rect x="465" y="480" style="fill:#EF9CE8;" width="12.5" height="2.5"/>
		<rect x="485" y="480" style="fill:#EF9CE8;" width="7.5" height="2.5"/>
		<rect x="500" y="480" style="fill:#EF9CE8;" width="5" height="2.5"/>
		<rect x="262.5" y="430" style="fill:#FFD7F7;" width="75" height="2.5"/>
		<rect x="150" y="380" style="fill:#DD58D1;" width="7.5" height="2.5"/>
		<polygon style="fill:#5145C4;" points="22.5,219.313 27.5,219.313 27.5,227.5 25,227.5 25,232.5 22.5,232.5 22.5,237.5 
			17.5,237.5 17.5,252.5 20,252.5 20,255 22.5,255 22.5,260 25,260 25,265 20,265 20,257.5 17.5,257.5 17.5,252.5 15,252.5 
			15,227.5 22.5,227.5 		"/>
		<polygon style="fill:#5145C4;" points="32.5,242.5 32.5,250 37.5,250 37.5,252.5 40,252.5 40,255 45,255 45,257.5 50,257.5 
			50,265 42.5,265 42.5,267.5 40,267.5 40,272.5 45,272.5 45,270 47.5,270 47.5,267.5 52.5,267.5 52.5,252.5 45,252.5 45,250 
			42.5,250 42.5,250 42.5,247.5 40,247.5 40,245 37.5,245 37.5,240 32.5,240 		"/>
		<rect x="75" y="117.5" style="fill:#EF9CE8;" width="7.5" height="2.5"/>
		<polygon style="fill:#DAD0FC;" points="30,195 25,195 25,197.5 27.5,197.5 27.5,200 30,200 30,205 32.5,205 32.5,210 35,210 
			35,215 37.5,215 37.5,222.5 40,222.5 40,215 37.5,215 37.5,212.5 35,212.5 35,205 32.5,205 32.5,200 30,200 		"/>
		<polygon style="fill:#DAD0FC;" points="32.5,162.5 30,162.5 30,167.5 32.5,167.5 32.5,175 35,175 35,167.5 37.5,167.5 37.5,165 
			32.5,165 		"/>
		<polygon style="fill:#DAD0FC;" points="37.5,190 37.5,192.5 40,192.5 40,195 42.5,195 42.5,205 45,205 45,190 		"/>
		<g>
			<polyline style="fill:#EF9CE8;" points="45,70 45,132.5 50,132.5 50,190 52.5,190 52.5,315 55,315 55,422.5 70,422.5 70,390 
				72.5,390 72.5,377.5 75,377.5 75,370 77.5,370 77.5,365 90,365 90,387.5 92.5,387.5 92.5,405 95,405 95,422.5 105,422.5 105,400 
				102.5,400 102.5,382.5 97.5,382.5 97.5,352.5 95,352.5 95,347.5 92.5,347.5 92.5,342.5 87.5,342.5 87.5,265 85,265 85,155 
				82.5,155 82.5,97.5 77.5,97.5 77.5,92.5 75,92.5 75,85 67.5,85 67.5,80 62.5,80 62.5,72.5 55,72.5 55,70 45,70 			"/>
			<polygon style="fill:#B1AAF2;" points="97.5,357.013 102.5,357.013 102.5,360 110,360 110,377.5 112.5,377.5 112.5,407.5 
				115,407.5 115,422.5 110.6,422.5 110.6,382.5 107.5,382.5 107.5,367.5 102.5,367.5 102.5,365 100,365 100,362.5 97.5,362.5 			
				"/>
			<path style="fill:#DAD0FC;" d="M52.5,270v31.3h-5v3.7H45v5.075L42.5,310l-0.3,10H40v20h-2.5v35H35v47.5H25v-40h2.5v-5H30V365h2.5
				v-25H35v-7.5h2.5c0-2.5,0-20,0-20H40V305h2.5v-5H45v-7.5h2.5V275h2.125v-5H52.5z"/>
			<polygon style="fill:#5145C4;" points="41.25,305 41.25,315 40,315 40,317.5 37.5,317.5 37.5,312.5 40,312.5 40,305 			"/>
			<polygon style="fill:#DD58D1;" points="75,370 72.5,370 72.5,372.5 67.5,372.5 67.5,375 65,375 65,380 57.5,380 57.5,370 55,370 
				55,382.5 57.5,382.5 57.5,385 65,385 65,382.5 67.5,382.5 67.5,377.5 70,377.5 70,375 75,375 			"/>
			<polygon style="fill:#EF9CE8;" points="55,395 55,405 57.5,405 57.5,407.5 62.5,407.5 62.5,410 67.5,410 67.5,407.5 70,407.5 
				70,395 67.5,395 67.5,405 65,405 65,407.5 62.5,407.5 62.5,405 60,405 60,402.5 57.5,402.5 57.5,395 			"/>
			<polygon style="fill:#DD58D1;" points="90,367.5 92.5,367.5 92.5,382.5 95,382.5 95,385 97.5,385 97.5,387.5 102.5,387.5 
				102.5,390 95,390 95,387.5 92.5,387.5 92.5,385 90,385 			"/>
			<polygon style="fill:#EF9CE8;" points="92.5,400 95,400 95,402.5 97.5,402.5 97.5,407.5 100,407.5 100,405 105,405 105,407.5 
				102.5,407.5 102.5,410 95,410 95,405 92.5,405 			"/>
			<rect x="35" y="342.5" style="fill:#FFD7F7;" width="2.5" height="22.5"/>
			<rect x="35" y="367.5" style="fill:#EF9CE8;" width="2.5" height="2.5"/>
			<rect x="30" y="382.5" style="fill:#EF9CE8;" width="2.5" height="25"/>
			<polygon style="fill:#DD58D1;" points="85,232.5 85,245 75,245 75,247.5 72.5,247.5 72.5,250 65,250 65,252.5 60,252.5 60,247.5 
				55,247.5 55,242.5 52.5,242.5 52.5,233.25 55,233.25 55,240.6 57.5,240.6 57.5,245 62.5,245 62.5,247.5 70,247.5 70,245 
				72.5,245 72.5,242.5 82.5,242.5 82.5,232.5 			"/>
			<polygon style="fill:#DD58D1;" points="59.638,72.5 59.638,82.5 62.5,82.5 62.5,87.5 65,87.5 65,90 72.5,90 72.5,95 75,95 
				75,102.5 80,102.5 80,112.5 82.5,112.5 82.5,97.5 77.5,97.5 77.5,92.5 75,92.5 75,85 67.5,85 67.5,80 62.5,80 62.5,72.5 			"/>
			<polygon style="fill:#DD58D1;" points="72.5,200 72.5,215 70,215 70,217.5 67.5,217.5 67.5,220 57.5,220 57.5,217.5 55,217.5 
				55,202.5 52.5,202.5 52.5,190 55,190 55,200 57.5,200 57.5,215 60,215 60,217.5 65,217.5 65,215 67.5,215 67.5,212.5 70,212.5 
				70,200 			"/>
			<polygon style="fill:#DD58D1;" points="70,170 70,172.5 62.5,172.5 62.5,157.5 60,157.5 60,152.5 52.5,152.5 52.5,147.488 
				50,147.488 50,155 57.5,155 57.5,160.2 60,160.2 60,175 62.5,175 62.5,185 65,185 65,177.5 67.5,177.5 67.5,175 70,175 72.5,175 
				72.5,170 			"/>
			<polygon style="fill:#DD58D1;" points="55,315 52.5,315 52.5,288.35 55,288.35 55,310 60,310 60,322.5 62.5,322.5 62.5,325 
				67.5,325 67.5,332.5 72.5,332.5 72.5,337.5 70,337.5 70,352.5 67.5,352.5 67.5,337.5 65,337.5 65,327.5 60,327.5 60,322.5 
				57.5,322.5 57.5,312.5 55,312.5 			"/>
			<polygon style="fill:#DD58D1;" points="82.5,125 75,125 75,127.5 72.5,127.5 72.5,130 65,130 65,132.5 62.5,132.5 62.5,125 
				60,125 60,122.5 50,122.5 50,120 45,120 45,122.5 50,122.5 50,125 57.5,125 57.5,130 62.5,130 62.5,137.5 65,137.5 65,132.5 
				72.5,132.5 72.5,130 75,130 75,127.5 82.5,127.5 			"/>
			<polygon style="fill:#DD58D1;" points="75,285 75,275 77.5,275 77.5,305 82.5,305 82.5,307.5 85,307.5 85,320 87.5,320 87.5,325 
				85,325 85,320 82.5,320 82.5,310 77.5,310 77.5,307.5 75,307.5 			"/>
			<polygon style="fill:#DD58D1;" points="45,95 52.5,95 52.5,100 57.5,100 57.5,102.5 65,102.5 65,105 70,105 70,105 72.5,105 
				72.5,110 70,110 70,105 60,105 60,105 55,105 55,102.5 47.5,102.5 47.5,100 45,100 			"/>
			<rect x="70" y="285" style="fill:#DD58D1;" width="2.5" height="17.5"/>
			<rect x="70" y="307.5" style="fill:#DD58D1;" width="2.5" height="5"/>
			<rect x="70" y="317.5" style="fill:#DD58D1;" width="2.5" height="2.5"/>
			<rect x="65" y="242.5" style="fill:#FFD7F7;" width="2.5" height="17.5"/>
			<rect x="65" y="265" style="fill:#FFD7F7;" width="2.5" height="5"/>
			<rect x="65" y="275" style="fill:#FFD7F7;" width="2.5" height="2.5"/>
			<rect x="65" y="312.5" style="fill:#FFD7F7;" width="2.5" height="35"/>
			<rect x="62.5" y="92.5" style="fill:#DD58D1;" width="2.5" height="30"/>
			<rect x="57.5" y="362.5" style="fill:#DD58D1;" width="2.5" height="17.5"/>
		</g>
		<polygon style="fill:#5145C4;" points="25,282.5 20,282.5 20,285 17.5,285 17.5,310 15,310 15,315 22.5,315 22.5,320 25,320 
			25,322.5 27.5,322.5 27.5,330 30,330 30,347.5 27.5,347.5 27.5,350 25,350 25,354.875 27.575,354.875 27.5,350 32.5,350 32.5,330 
			30,330 30,317.5 25,317.5 25,315 30,315 30,307.5 20,307.5 20,292.5 25,292.5 25,285 27.5,285 27.5,267.5 15,267.5 15,263.525 
			12.5,263.525 12.5,270 20,270 20,267.5 25,267.5 		"/>
		<rect x="15" y="267.5" style="fill:#5145C4;" width="5" height="10"/>
		<rect x="12.5" y="277.5" style="fill:#5145C4;" width="5" height="10"/>
		<rect x="32.5" y="250" style="fill:#DAD0FC;" width="5" height="2.5"/>
		<rect x="35" y="252.5" style="fill:#DAD0FC;" width="5" height="2.5"/>
		<rect x="40" y="255" style="fill:#DAD0FC;" width="5" height="2.5"/>
		<rect x="45" y="257.5" style="fill:#DAD0FC;" width="5" height="2.5"/>
		<rect x="27.5" y="217.5" style="fill:#DAD0FC;" width="2.5" height="7.5"/>
		<rect x="30" y="220" style="fill:#DAD0FC;" width="2.5" height="7.5"/>
		<rect x="32.5" y="217.5" style="fill:#DAD0FC;" width="2.5" height="7.5"/>
		<rect x="22.5" y="117.5" style="fill:#DAD0FC;" width="7.5" height="2.5"/>
		<rect x="20" y="120" style="fill:#DAD0FC;" width="7.5" height="2.5"/>
		<rect x="22.5" y="122.5" style="fill:#DAD0FC;" width="7.5" height="2.5"/>
		<rect x="32.5" y="135" style="fill:#DAD0FC;" width="5" height="2.5"/>
		<rect x="35" y="137.5" style="fill:#DAD0FC;" width="5" height="2.5"/>
		<rect x="45" y="132.5" style="fill:#DAD0FC;" width="5" height="2.5"/>
		<rect x="47.5" y="137.5" style="fill:#DAD0FC;" width="2.5" height="12.5"/>
		<polygon style="fill:#FFD7F7;" points="67.5,422.5 0,422.5 0,390 20,390 20,395 32.5,395 32.5,400 37.5,400 37.5,402.5 
			47.5,402.5 47.5,405 57.5,405 57.5,410 62.5,410 62.5,412.5 65,412.5 65,417.5 67.5,417.5 		"/>
		<polygon style="fill:#EF9CE8;" points="47.5,405 20,405 20,405 20,407.5 17.5,407.5 17.5,410 7.5,410 7.5,412.5 0,412.5 0,410 
			5,410 5,407.5 17.5,407.5 17.5,405 20,405 20,402.5 47.5,402.5 		"/>
		<polygon style="fill:#EF9CE8;" points="20,395 20,400 12.5,400 12.5,397.5 7.5,397.5 7.5,395 0,395 0,392.5 10,392.5 10,397.5 
			17.5,397.5 17.5,395 		"/>
		<path style="fill:#EF9CE8;" d="M67.5,420c-2.5,0-29.35,0-29.35,0v-2.5H30V415H20v-1.569h10V415h5l0,0l0,0l0,0v2.5h10V415h15v2.5
			h2.5v1.25h5V420z"/>
		<rect x="30" y="285" style="fill:#DAD0FC;" width="5" height="7.5"/>
		<rect x="32.5" y="287.5" style="fill:#DAD0FC;" width="2.5" height="7.5"/>
		<rect x="127.5" y="165" style="fill:#DAD0FC;" width="5" height="5"/>
		<rect x="130" y="167.5" style="fill:#DAD0FC;" width="2.5" height="5"/>
		<rect x="140" y="182.5" style="fill:#DAD0FC;" width="2.5" height="5"/>
		<rect x="115" y="427.5" style="fill:#EF9CE8;" width="57.5" height="2.5"/>
		<rect x="100" y="425" style="fill:#EF9CE8;" width="57.5" height="2.5"/>
		<rect x="70" y="427.5" style="fill:#EF9CE8;" width="37.5" height="2.5"/>
		<rect x="42.5" y="427.5" style="fill:#EF9CE8;" width="17.5" height="2.5"/>
		<rect x="95" y="140" style="fill:#DAD0FC;" width="10" height="5"/>
		<rect x="100" y="145" style="fill:#DAD0FC;" width="5" height="5"/>
		<rect x="107.5" y="145" style="fill:#DAD0FC;" width="5" height="2.5"/>
		<rect x="110" y="147.5" style="fill:#DAD0FC;" width="2.5" height="2.5"/>
		<rect x="72.5" y="155" style="fill:#DD58D1;" width="2.5" height="77.5"/>
		<rect x="75" y="162.5" style="fill:#DD58D1;" width="2.5" height="62.5"/>
		<rect x="97.5" y="192.5" style="fill:#DAD0FC;" width="7.5" height="2.5"/>
		<polygon style="fill:#5145C4;" points="122.5,57.5 130,57.5 130,70 125,70 125,80 127.5,80 127.5,85 130,85 130,120 135,120 
			135,122.5 139.4,122.5 139.4,160 135,160 135,127.5 130,127.5 130,122.65 122.5,122.65 122.5,85 120,85 120,70 117.5,70 
			117.5,67.5 115,67.5 115,65 110,65 110,62.5 120,62.5 120,57.5 		"/>
		<rect x="112.5" y="67.5" style="fill:#DAD0FC;" width="5" height="10"/>
		<rect x="115" y="77.5" style="fill:#DAD0FC;" width="2.5" height="10"/>
		<rect x="92.5" y="195" style="fill:#DAD0FC;" width="7.5" height="5"/>
		<rect x="110" y="245" style="fill:#DAD0FC;" width="5" height="20"/>
		<rect x="92.5" y="317.5" style="fill:#DAD0FC;" width="2.5" height="5"/>
		<rect x="90" y="312.5" style="fill:#DAD0FC;" width="2.5" height="2.5"/>
		<rect x="95" y="325" style="fill:#DAD0FC;" width="2.5" height="10"/>
		<rect x="97.5" y="85" style="fill:#DAD0FC;" width="7.5" height="2.5"/>
		<rect x="137.5" y="57.5" style="fill:#DAD0FC;" width="2.5" height="15"/>
		<rect x="140" y="62.5" style="fill:#DAD0FC;" width="2.5" height="15"/>
		<rect x="115" y="95" style="fill:#5145C4;" width="10" height="25"/>
		<rect x="110" y="102.5" style="fill:#5145C4;" width="5" height="25"/>
		<polygon style="fill:#5145C4;" points="132.5,255 132.5,272.5 137.5,272.5 137.5,280 140,280 140,312.5 145,312.5 145,320.425 
			148.175,320.425 148.175,327.5 150,327.5 150,335 155,335 155,360 157.5,360 157.5,367.5 160,367.5 160,375 155,375 155,365 
			150,365 150,337.5 147.5,337.5 147.5,330 142.5,330 142.5,320 137.5,320 137.5,315 132.5,315 132.5,275 127.5,275 127.5,267.5 
			122.5,267.5 122.5,242.5 127.5,242.5 127.5,250 130,250 130,255 		"/>
		<rect x="130" y="275" style="fill:#DAD0FC;" width="2.5" height="32.5"/>
		<rect x="127.5" y="275" style="fill:#DAD0FC;" width="2.5" height="10"/>
		<rect x="137.5" y="197.5" style="fill:#5145C4;" width="2.5" height="55"/>
		<rect x="135" y="205" style="fill:#5145C4;" width="2.5" height="40"/>
		<rect x="140" y="190" style="fill:#5145C4;" width="2.5" height="25"/>
		<rect x="142.5" y="190" style="fill:#5145C4;" width="2.5" height="7.5"/>
		<rect x="145" y="187.5" style="fill:#5145C4;" width="2.5" height="7.5"/>
		<rect x="147.5" y="182.5" style="fill:#5145C4;" width="2.5" height="7.5"/>
		<rect x="147.5" y="217.5" style="fill:#5145C4;" width="2.5" height="30"/>
		<rect x="140" y="330" style="fill:#5145C4;" width="2.5" height="15"/>
		<rect x="140" y="347.5" style="fill:#5145C4;" width="2.5" height="15"/>
		<rect x="142.5" y="360" style="fill:#5145C4;" width="2.5" height="22.5"/>
		<rect x="145" y="367.5" style="fill:#5145C4;" width="2.5" height="15"/>
		<rect x="147.5" y="380" style="fill:#5145C4;" width="2.5" height="15"/>
		<rect x="132.5" y="330" style="fill:#5145C4;" width="2.5" height="15"/>
		<rect x="135" y="332.5" style="fill:#5145C4;" width="5" height="15"/>
		<g>
			<polygon style="fill:#FFD7F7;" points="172.5,402.5 172.5,400 167.5,400 167.5,395 162.5,395 162.5,392.5 142.5,392.5 142.5,395 
				137.5,395 137.5,397.5 132.5,397.5 132.5,405 130,405 130,410 120,410 120,412.5 112.5,412.5 112.5,412.5 112.5,415 110,415 
				110,417.5 105,417.5 105,420 100,420 100,422.5 192.5,422.5 192.5,417.5 190,417.5 190,412.5 185,412.5 185,407.5 180,407.5 
				180,407.5 180,405 175,405 175,402.5 172.5,402.5 			"/>
			<polygon style="fill:#EF9CE8;" points="132.5,405 147.5,405 147.5,407.5 150,407.5 150,410 170,410 170,412.5 175,412.5 175,415 
				177.5,415 177.5,417.5 185,417.5 185,420 187.5,420 187.5,422.5 190,422.5 190,417.5 187.5,417.5 187.5,415 180,415 180,412.5 
				177.5,412.5 177.5,410 172.5,410 172.5,407.5 152.5,407.5 152.5,405 150,405 150,402.5 140,402.5 140,400 137.5,400 137.5,397.5 
				132.5,397.5 			"/>
			<polygon style="fill:#EF9CE8;" points="120,412.5 130,412.5 130,415 147.5,415 147.5,417.5 152.5,417.5 152.5,420 167.5,420 
				167.5,422.5 187.5,422.5 187.5,420 172.5,420 172.5,417.5 162.5,417.5 162.5,415 155,415 155,412.5 140,412.5 140,410 120,410 
							"/>
		</g>
		<g>
			<polygon style="fill:#B1AAF2;" points="220,457.5 182.5,457.5 182.5,452.5 185,452.5 185,400 187.5,400 187.5,370 195,370 
				195,367.5 212.5,367.5 212.5,382.5 217.5,382.5 217.5,390 220,390 220,425 222.5,425 222.5,427.5 227.5,427.5 227.5,432.5 
				230,432.5 230,455 220,455 			"/>
			<polygon style="fill:#5145C4;" points="195,370 195,395 192.5,395 192.5,422.5 190,422.5 190,457.5 182.5,457.5 182.5,452.5 
				185,452.5 185,400 187.5,400 187.5,370 			"/>
			<polygon style="fill:#5145C4;" points="202.5,390 202.5,392.5 207.5,392.5 207.5,402.5 210,402.5 210,425 212.5,425 212.5,457.5 
				214.55,457.5 214.55,422.5 212.5,422.5 212.5,395 207.5,395 207.5,390 207.5,390 207.5,377.5 205,377.5 205,390 			"/>
			<rect x="190" y="425" style="fill:#5145C4;" width="2.5" height="2.5"/>
			<rect x="190" y="430" style="fill:#5145C4;" width="2.5" height="2.5"/>
			<rect x="190" y="435" style="fill:#5145C4;" width="2.5" height="2.5"/>
			<rect x="190" y="440" style="fill:#5145C4;" width="2.5" height="2.5"/>
			<rect x="190" y="445" style="fill:#5145C4;" width="2.5" height="2.5"/>
			<rect x="190" y="447.5" style="fill:#5145C4;" width="2.5" height="7.5"/>
			<rect x="190" y="455" style="fill:#5145C4;" width="2.5" height="2.5"/>
			<rect x="192.5" y="452.5" style="fill:#5145C4;" width="2.5" height="2.5"/>
			<rect x="192.5" y="445" style="fill:#5145C4;" width="2.5" height="7.5"/>
			<rect x="192.5" y="442.5" style="fill:#5145C4;" width="2.5" height="2.5"/>
			<rect x="192.5" y="437.5" style="fill:#5145C4;" width="2.5" height="2.5"/>
			<rect x="192.5" y="432.5" style="fill:#5145C4;" width="2.5" height="2.5"/>
			<rect x="192.5" y="427.5" style="fill:#5145C4;" width="2.5" height="2.5"/>
			<rect x="192.5" y="422.5" style="fill:#5145C4;" width="2.5" height="2.5"/>
			<rect x="192.5" y="417.5" style="fill:#5145C4;" width="2.5" height="2.5"/>
			<rect x="192.5" y="412.5" style="fill:#5145C4;" width="2.5" height="2.5"/>
			<rect x="192.5" y="407.5" style="fill:#5145C4;" width="2.5" height="2.5"/>
			<rect x="192.5" y="402.5" style="fill:#5145C4;" width="2.5" height="2.5"/>
			<rect x="192.5" y="397.5" style="fill:#5145C4;" width="2.5" height="2.5"/>
			<rect x="195" y="400" style="fill:#5145C4;" width="2.5" height="2.5"/>
			<rect x="195" y="405" style="fill:#5145C4;" width="2.5" height="2.5"/>
			<rect x="195" y="410" style="fill:#5145C4;" width="2.5" height="2.5"/>
			<rect x="195" y="415" style="fill:#5145C4;" width="2.5" height="2.5"/>
			<rect x="195" y="420" style="fill:#5145C4;" width="2.5" height="2.5"/>
			<rect x="197.5" y="452.5" style="fill:#5145C4;" width="2.5" height="2.5"/>
			<rect x="197.5" y="447.5" style="fill:#5145C4;" width="2.5" height="2.5"/>
			<rect x="200" y="450" style="fill:#5145C4;" width="2.5" height="2.5"/>
			<rect x="205" y="445" style="fill:#5145C4;" width="2.5" height="2.5"/>
			<rect x="210" y="450" style="fill:#5145C4;" width="2.5" height="2.5"/>
			<rect x="200" y="442.5" style="fill:#5145C4;" width="2.5" height="2.5"/>
			<rect x="202.5" y="452.5" style="fill:#5145C4;" width="2.5" height="2.5"/>
			<rect x="200" y="455" style="fill:#5145C4;" width="2.5" height="2.5"/>
			<rect x="205" y="455" style="fill:#5145C4;" width="2.5" height="2.5"/>
			<rect x="195" y="425" style="fill:#5145C4;" width="2.5" height="2.5"/>
			<rect x="195" y="430" style="fill:#5145C4;" width="2.5" height="2.5"/>
			<rect x="195" y="435" style="fill:#5145C4;" width="2.5" height="2.5"/>
			<rect x="195" y="440" style="fill:#5145C4;" width="2.5" height="2.5"/>
			<rect x="195" y="445" style="fill:#5145C4;" width="2.5" height="2.5"/>
			<rect x="195" y="450" style="fill:#5145C4;" width="2.5" height="2.5"/>
			<rect x="195" y="455" style="fill:#5145C4;" width="2.5" height="2.5"/>
			<rect x="202.5" y="367.5" style="fill:#DAD0FC;" width="10" height="2.5"/>
			<rect x="212.5" y="382.5" style="fill:#DAD0FC;" width="5" height="2.5"/>
			<rect x="215" y="385" style="fill:#DAD0FC;" width="2.5" height="2.5"/>
			<rect x="220" y="425" style="fill:#DAD0FC;" width="2.5" height="2.5"/>
			<rect x="222.5" y="427.5" style="fill:#DAD0FC;" width="5" height="2.5"/>
			
				<rect x="227.475" y="432.5" transform="matrix(-1 -1.224647e-16 1.224647e-16 -1 457.475 867.5)" style="fill:#DAD0FC;" width="2.525" height="2.5"/>
			<rect x="217.5" y="390" style="fill:#DAD0FC;" width="2.5" height="17.5"/>
		</g>
		<rect x="135" y="315" style="fill:#DAD0FC;" width="2.5" height="2.5"/>
		<rect x="140" y="320" style="fill:#DAD0FC;" width="2.5" height="2.5"/>
		<polygon style="fill:#DD58D1;" points="430,267.5 407.5,267.5 407.5,270 312.5,270 312.5,267.5 280,267.5 280,270 262.5,270 
			262.5,272.5 240,272.5 240,275 392.5,275 392.5,272.5 415,272.5 415,270 445,270 445,267.5 460,267.5 460,265 472.5,265 
			472.5,262.5 440,262.5 440,265 430,265 		"/>
		<polygon style="fill:#EF9CE8;" points="415,272.5 375,272.5 375,275 340,275 340,272.5 362.5,272.5 362.5,270 412.5,270 
			412.5,267.5 415,267.5 		"/>
		<rect x="402.5" y="325" style="fill:#EF9CE8;" width="120" height="2.5"/>
		<rect x="510" y="330" style="fill:#EF9CE8;" width="42.5" height="2.5"/>
		<rect x="450" y="330" style="fill:#EF9CE8;" width="30" height="2.5"/>
		<rect x="430" y="332.5" style="fill:#FFFFFF;" width="12.5" height="2.5"/>
		<rect x="462.5" y="327.5" style="fill:#EF9CE8;" width="5" height="2.5"/>
		<rect x="487.5" y="327.5" style="fill:#EF9CE8;" width="15" height="2.5"/>
		<rect x="557.5" y="327.5" style="fill:#EF9CE8;" width="2.5" height="2.5"/>
		<rect x="532.5" y="327.5" style="fill:#EF9CE8;" width="2.5" height="2.5"/>
		<rect x="382.5" y="337.5" style="fill:#EF9CE8;" width="2.5" height="2.5"/>
		<rect x="355" y="330" style="fill:#EF9CE8;" width="7.5" height="2.5"/>
		<rect x="352.5" y="325" style="fill:#DD58D1;" width="30" height="2.5"/>
		<g>
			<rect x="425" y="335" style="fill:#DD58D1;" width="2.5" height="2.5"/>
			<rect x="425" y="330" style="fill:#DD58D1;" width="2.5" height="2.5"/>
			
				<rect x="425" y="325" transform="matrix(-1 -1.224647e-16 1.224647e-16 -1 852.5 655)" style="fill:#EF9CE8;" width="2.5" height="5"/>
			
				<rect x="418.75" y="331.25" transform="matrix(6.123234e-17 -1 1 6.123234e-17 86.25 753.75)" style="fill:#EF9CE8;" width="2.5" height="5"/>
			
				<rect x="425" y="337.5" transform="matrix(-1 -1.224647e-16 1.224647e-16 -1 852.5 680)" style="fill:#EF9CE8;" width="2.5" height="5"/>
			
				<rect x="422.5" y="332.5" transform="matrix(6.123234e-17 -1 1 6.123234e-17 90 757.5)" style="fill:#DD58D1;" width="2.5" height="2.5"/>
			
				<rect x="427.5" y="332.5" transform="matrix(6.123234e-17 -1 1 6.123234e-17 95 762.5)" style="fill:#DD58D1;" width="2.5" height="2.5"/>
			
				<rect x="431.25" y="331.25" transform="matrix(6.123234e-17 -1 1 6.123234e-17 98.75 766.25)" style="fill:#EF9CE8;" width="2.5" height="5"/>
		</g>
		<g>
			<rect x="525" y="327.5" style="fill:#DD58D1;" width="2.5" height="2.5"/>
			<rect x="525" y="322.5" style="fill:#DD58D1;" width="2.5" height="2.5"/>
			
				<rect x="525" y="317.5" transform="matrix(-1 -1.224647e-16 1.224647e-16 -1 1052.5 640)" style="fill:#FFFFFF;" width="2.5" height="5"/>
			
				<rect x="518.75" y="323.75" transform="matrix(6.123234e-17 -1 1 6.123234e-17 193.75 846.25)" style="fill:#FFFFFF;" width="2.5" height="5"/>
			
				<rect x="525" y="330" transform="matrix(-1 -1.224647e-16 1.224647e-16 -1 1052.5 665)" style="fill:#FFFFFF;" width="2.5" height="5"/>
			
				<rect x="522.5" y="325" transform="matrix(6.123234e-17 -1 1 6.123234e-17 197.5 850)" style="fill:#DD58D1;" width="2.5" height="2.5"/>
			
				<rect x="527.5" y="325" transform="matrix(6.123234e-17 -1 1 6.123234e-17 202.5 855)" style="fill:#DD58D1;" width="2.5" height="2.5"/>
			
				<rect x="531.25" y="323.75" transform="matrix(6.123234e-17 -1 1 6.123234e-17 206.25 858.75)" style="fill:#FFFFFF;" width="2.5" height="5"/>
		</g>
		<g>
			<rect x="415" y="427.5" style="fill:#EF9CE8;" width="2.5" height="2.5"/>
			<rect x="415" y="422.5" style="fill:#EF9CE8;" width="2.5" height="2.5"/>
			
				<rect x="415" y="417.5" transform="matrix(-1 -1.224647e-16 1.224647e-16 -1 832.5 840)" style="fill:#EF9CE8;" width="2.5" height="5"/>
			
				<rect x="408.75" y="423.75" transform="matrix(6.123234e-17 -1 1 6.123234e-17 -16.25 836.25)" style="fill:#EF9CE8;" width="2.5" height="5"/>
			
				<rect x="415" y="430" transform="matrix(-1 -1.224647e-16 1.224647e-16 -1 832.5 865)" style="fill:#EF9CE8;" width="2.5" height="5"/>
			
				<rect x="412.5" y="425" transform="matrix(6.123234e-17 -1 1 6.123234e-17 -12.5 840)" style="fill:#EF9CE8;" width="2.5" height="2.5"/>
			
				<rect x="417.5" y="425" transform="matrix(6.123234e-17 -1 1 6.123234e-17 -7.5 845)" style="fill:#EF9CE8;" width="2.5" height="2.5"/>
			
				<rect x="421.25" y="423.75" transform="matrix(6.123234e-17 -1 1 6.123234e-17 -3.75 848.75)" style="fill:#EF9CE8;" width="2.5" height="5"/>
		</g>
		<rect x="537.5" y="422.5" style="fill:#5145C4;" width="202.5" height="2.5"/>
		<rect x="437.5" y="425" style="fill:#5145C4;" width="112.5" height="2.5"/>
		<rect x="625" y="425" style="fill:#B1AAF2;" width="62.5" height="2.5"/>
		<rect x="475" y="447.5" style="fill:#EF9CE8;" width="17.5" height="2.5"/>
		<rect x="450" y="447.5" style="fill:#EF9CE8;" width="17.5" height="2.5"/>
		<rect x="425" y="447.5" style="fill:#EF9CE8;" width="7.5" height="2.5"/>
		<rect x="437.5" y="450" style="fill:#EF9CE8;" width="62.5" height="2.5"/>
		<rect x="490" y="455" style="fill:#FFD7F7;" width="62.5" height="2.5"/>
		<rect x="147.5" y="472.5" style="fill:#EF9CE8;" width="72.5" height="2.5"/>
		<rect x="595" y="487.5" style="fill:#EF9CE8;" width="5" height="2.5"/>
		<rect x="602.5" y="490.025" style="fill:#EF9CE8;" width="77.5" height="2.475"/>
		<polygon style="fill:#0D0787;" points="700,330 700,335 537.5,335 537.5,332.5 552.5,332.5 552.5,330 560,330 560,315 565,315 
			565,312.5 570,312.5 570,310 582.5,310 582.5,307.5 585,307.5 585,305 592.5,305 592.5,300 595,300 595,282.5 597.5,282.5 
			597.5,280 602.5,280 602.5,277.5 617.5,277.5 617.5,275 622.5,275 622.5,272.5 657.5,272.5 657.5,277.5 635,277.5 635,282.5 
			627.5,282.5 627.5,287.5 640,287.5 640,292.5 642.5,292.5 642.5,307.5 647.5,307.5 647.5,302.5 650,302.5 650,297.5 652.5,297.5 
			652.5,320 642.5,320 642.5,322.5 610,322.5 610,325 585,325 585,327.5 572.5,327.5 572.5,330 665,330 665,312.5 670,312.5 
			670,305 672.5,305 672.5,317.5 675.575,317.5 675.575,322.5 680,322.5 680,327.5 685,327.5 685,330 		"/>
		<rect x="522.5" y="337.5" style="fill:#0D0787;" width="140" height="2.5"/>
		<rect x="537.5" y="335.025" style="fill:#0D0787;" width="100" height="2.475"/>
		<rect x="495" y="340.025" style="fill:#0D0787;" width="100" height="2.475"/>
		<rect x="640" y="325" style="fill:#0D0787;" width="15" height="2.5"/>
		<rect x="645" y="282.5" style="fill:#0D0787;" width="10" height="2.5"/>
		<rect x="650" y="285" style="fill:#0D0787;" width="10" height="2.5"/>
		<rect x="645" y="290" style="fill:#0D0787;" width="25" height="2.5"/>
		<rect x="657.5" y="297.5" style="fill:#0D0787;" width="17.5" height="2.5"/>
		<rect x="487.5" y="342.5" style="fill:#0D0787;" width="200" height="5"/>
		<rect x="690" y="345" style="fill:#0D0787;" width="22.5" height="2.5"/>
		<rect x="292.5" y="345" style="fill:#0D0787;" width="175" height="5"/>
		<polygon style="fill:#0D0787;" points="207.5,287.5 207.5,300 225,300 225,302.5 232.5,302.5 232.5,307.5 250,307.5 250,310 
			187.5,310 187.5,315 254.9,315 254.9,320 260,320 260,322.5 270,322.5 270,320 277.5,320 277.5,322.5 285,322.5 285,325 
			302.5,325 302.5,330 317.5,330 317.5,332.5 165,332.5 165,335 205,335 205,337.5 220,337.5 220,340 272.5,340 272.5,342.5 
			317.5,342.5 317.5,345 160,345 160,335 154.2,335 154.2,316.25 157.5,316.25 157.5,305 170,305 170,300 182.5,300 182.5,295 
			197.5,295 197.5,287.5 		"/>
		<rect x="287.5" y="335" style="fill:#0D0787;" width="42.5" height="2.5"/>
		<rect x="217.5" y="335" style="fill:#0D0787;" width="42.5" height="2.5"/>
		<rect x="270" y="335" style="fill:#0D0787;" width="10" height="2.5"/>
		<rect x="160" y="345" style="fill:#0D0787;" width="100" height="5"/>
		<rect x="242.5" y="347.5" style="fill:#0D0787;" width="40" height="2.5"/>
		<rect x="205" y="292.5" style="fill:#0D0787;" width="20" height="2.5"/>
		<rect x="260" y="350" style="fill:#0D0787;" width="150" height="5"/>
		<rect x="160" y="350" style="fill:#0D0787;" width="75" height="5"/>
		<rect x="472.5" y="345" style="fill:#0D0787;" width="12.5" height="2.5"/>
		<rect x="497.5" y="347.5" style="fill:#0D0787;" width="12.5" height="2.5"/>
		<polygon style="fill:#0D0787;" points="742.5,280 742.5,282.5 730,282.5 730,290 725,290 725,292.5 717.5,292.5 717.5,295 
			715,295 715,297.5 710,297.5 710,300 724.4,300 724.4,302.5 707.5,302.5 707.5,305 697.5,305 697.5,317.5 690,317.5 690,322.5 
			717.5,322.5 717.5,325 735,325 735,327.5 742.5,327.5 742.5,337.5 750,337.5 750,342.5 669.35,342.5 669.35,340 722.5,340 
			722.5,335 712.5,335 712.5,332.5 705,332.5 705,330 680,330 680,312.5 695,312.5 695,307.5 697.5,307.5 697.5,302.5 705,302.5 
			705,297.5 710,297.5 710,290 725,290 725,282.5 729.95,282.5 729.95,280 		"/>
		<polygon style="fill:#0D0787;" points="740,302.5 740,310 710,310 710,312.5 702.5,312.5 702.5,315 702.5,315 700,315 700,307.5 
			710,307.5 710,305 732.5,305 732.5,297.5 725,297.5 725,295 737.5,295 737.5,287.5 740,287.5 740,285 745,285 745,322.5 
			742.5,322.5 742.5,302.5 		"/>
		<rect x="692.5" y="312.5" style="fill:#0D0787;" width="42.5" height="10"/>
		<rect x="175" y="340" style="fill:#5145C4;" width="30" height="2.5"/>
		<rect x="395" y="322.5" style="fill:#5145C4;" width="110" height="2.5"/>
		<rect x="547.5" y="305" style="fill:#B1AAF2;" width="15" height="2.5"/>
		<rect x="567.5" y="305" style="fill:#B1AAF2;" width="15" height="2.5"/>
		<rect x="557.5" y="302.5" style="fill:#B1AAF2;" width="15" height="2.5"/>
		<rect x="537.5" y="307.5" style="fill:#B1AAF2;" width="22.5" height="2.5"/>
		<rect x="482.5" y="305" style="fill:#B1AAF2;" width="15" height="2.5"/>
		<polygon style="fill:#8C079B;" points="750,332.5 750,352.5 687.5,352.5 687.5,350.9 667.5,350.9 667.5,347.5 617.5,347.5 
			617.5,350 596.325,350 596.325,352.5 565,352.5 565,355 540,355 540,352.5 527.5,352.5 527.5,355 486.35,355 486.35,360 
			447.5,360 447.5,365 160,365 160,347.5 165,347.5 165,345 160,345 160,340 162.5,340 162.5,337.5 167.5,337.5 167.5,335 
			177.5,335 177.5,337.5 192.5,337.5 192.5,340 200,340 200,342.5 205,342.5 205,345 210,345 210,347.5 215,347.5 215,345 220,345 
			220,342.375 222.5,342.375 222.5,340 230,340 230,337.5 240,337.5 240,340 242.5,340 242.5,342.7 250.225,342.7 250.225,345 
			255,345 255,347.5 265,347.5 265,345 267.5,345 267.5,342.5 272.5,342.5 272.5,340 277.5,340 277.5,337.5 284.85,337.5 
			284.85,340 287.5,340 287.5,342.5 292.5,342.5 292.5,345 297.5,345 297.5,347.5 300,347.5 300,350 352.5,350 352.5,345 357.5,345 
			357.5,347.5 362.5,347.5 362.5,350 370,350 370,345 375,345 375,342.5 382.5,342.5 382.5,340 390,340 390,337.5 400.025,337.5 
			400.025,340 407.5,340 407.5,342.5 422.5,342.5 422.5,345 430,345 430,347.5 470,347.5 470,350 485,350 485,345 495,345 
			495,342.5 504.35,342.5 504.35,345 512.5,345 512.5,347.5 517.5,347.5 517.5,345 535,345 535,347.5 545,347.5 545,345 560,345 
			560,342.5 570.05,342.5 570.05,340 598.175,340 598.175,337.5 610,337.5 610,335 632.5,335 632.5,337.5 640,337.5 640,340 
			675,340 675,342.5 700,342.5 700,345 715,345 715,342.5 722.5,342.5 722.5,340 727.5,340 727.5,335 740,335 740,332.5 		"/>
		<polygon style="fill:#5145C4;" points="400,365 400,357.5 350,357.5 350,355 312.5,355 312.5,352.5 292.5,352.5 292.5,357.5 
			287.5,357.5 287.5,360 255,360 255,357.5 252.5,357.5 252.5,355 245.038,355 245.038,352.5 237.5,352.5 237.5,355 227.5,355 
			227.5,357.5 212.5,357.5 212.5,360 160,360 160,365 		"/>
		<rect x="380" y="362.5" style="fill:#5145C4;" width="42.5" height="2.5"/>
		<rect x="380" y="360" style="fill:#5145C4;" width="27.5" height="2.5"/>
		<rect x="332.5" y="395" style="fill:#FFD7F7;" width="2.5" height="2.5"/>
		<rect x="247.5" y="392.5" style="fill:#FFD7F7;" width="5" height="5"/>
		<rect x="355" y="395" style="fill:#FFD7F7;" width="2.5" height="2.5"/>
		<rect x="220" y="417.5" style="fill:#5145C4;" width="40" height="2.5"/>
		<rect x="405" y="415" style="fill:#5145C4;" width="37.5" height="2.5"/>
		<rect x="417.5" y="385" style="fill:#5145C4;" width="2.5" height="2.5"/>
		<rect x="432.5" y="385" style="fill:#5145C4;" width="2.5" height="2.5"/>
		<rect x="460" y="390" style="fill:#5145C4;" width="2.5" height="2.5"/>
		<rect x="480" y="385" style="fill:#5145C4;" width="2.5" height="2.5"/>
		<rect x="472.5" y="385" style="fill:#5145C4;" width="5" height="2.5"/>
		<rect x="437.5" y="382.5" style="fill:#5145C4;" width="2.5" height="7.5"/>
		<rect x="422.5" y="382.5" style="fill:#5145C4;" width="2.5" height="5"/>
		<rect x="427.5" y="385" style="fill:#5145C4;" width="2.5" height="7.5"/>
		<rect x="462.5" y="382.5" style="fill:#5145C4;" width="2.5" height="7.5"/>
		<rect x="482.5" y="387.5" style="fill:#5145C4;" width="2.5" height="2.5"/>
		<rect x="412.5" y="387.5" style="fill:#5145C4;" width="2.5" height="2.5"/>
		<rect x="275" y="380" style="fill:#0D0787;" width="2.5" height="2.5"/>
		<rect x="260" y="385" style="fill:#5145C4;" width="2.5" height="2.5"/>
		<rect x="250" y="385" style="fill:#5145C4;" width="2.5" height="2.5"/>
		<rect x="245" y="385" style="fill:#5145C4;" width="2.5" height="2.5"/>
		<rect x="400" y="385" style="fill:#5145C4;" width="2.5" height="5"/>
		<rect x="392.5" y="385" style="fill:#5145C4;" width="2.5" height="2.5"/>
		<rect x="387.5" y="387.5" style="fill:#5145C4;" width="5" height="2.5"/>
		<rect x="347.5" y="385" style="fill:#5145C4;" width="5" height="2.5"/>
		<rect x="77.5" y="365" style="fill:#5145C4;" width="2.5" height="5"/>
		<rect x="70" y="390" style="fill:#5145C4;" width="2.5" height="25"/>
		<rect x="77.5" y="395" style="fill:#5145C4;" width="2.5" height="22.5"/>
		<rect x="75" y="370" style="fill:#5145C4;" width="5" height="17.5"/>
		<rect x="72.5" y="377.5" style="fill:#5145C4;" width="5" height="17.5"/>
		<rect x="75" y="385" style="fill:#5145C4;" width="2.5" height="17.5"/>
		<rect x="137.5" y="180" style="fill:#DAD0FC;" width="7.5" height="5"/>
		<rect x="145" y="102.5" style="fill:#DAD0FC;" width="2.5" height="40"/>
		<rect x="147.5" y="147.5" style="fill:#DAD0FC;" width="2.5" height="27.5"/>
		<rect x="145" y="225" style="fill:#DAD0FC;" width="2.5" height="77.5"/>
		<rect x="602.5" y="292.5" style="fill:#5145C4;" width="25" height="2.5"/>
		<rect x="620" y="295" style="fill:#5145C4;" width="7.5" height="2.5"/>
		<rect x="625" y="297.5" style="fill:#5145C4;" width="2.5" height="22.5"/>
		<rect x="620" y="317.5" style="fill:#5145C4;" width="7.5" height="5"/>
		<rect x="615" y="320" style="fill:#5145C4;" width="12.5" height="2.5"/>
		<g>
			<rect x="310" y="465" style="fill:#FFFFFF;" width="5" height="2.5"/>
			<rect x="332.5" y="465" style="fill:#FFFFFF;" width="5" height="2.5"/>
			<rect x="337.5" y="465" style="fill:#FFD7F7;" width="2.5" height="2.5"/>
			<rect x="322.5" y="450" style="fill:#FFD7F7;" width="2.5" height="2.5"/>
			<rect x="322.5" y="480" style="fill:#FFD7F7;" width="2.5" height="2.5"/>
			<rect x="307.5" y="465" style="fill:#FFD7F7;" width="2.5" height="2.5"/>
			<rect x="322.5" y="477.5" style="fill:#FBB03B;" width="2.5" height="2.5"/>
			<rect x="322.5" y="452.5" style="fill:#FFFFFF;" width="2.5" height="5"/>
			<rect x="322.5" y="475" style="fill:#FFFFFF;" width="2.5" height="5"/>
			<rect x="315" y="462.5" style="fill:#FFD7F7;" width="5" height="2.5"/>
			<rect x="315" y="467.5" style="fill:#FFD7F7;" width="5" height="2.5"/>
			<rect x="327.5" y="462.5" style="fill:#FFD7F7;" width="5" height="2.5"/>
			<rect x="327.5" y="467.5" style="fill:#FFD7F7;" width="5" height="2.5"/>
			<rect x="320" y="457.5" style="fill:#FFD7F7;" width="2.5" height="5"/>
			<rect x="320" y="470" style="fill:#FFD7F7;" width="2.5" height="5"/>
			<rect x="325" y="457.5" style="fill:#FFD7F7;" width="2.5" height="5"/>
			<polygon style="fill:#DD58D1;" points="332.5,465 332.5,467.5 327.5,467.5 327.5,470 325,470 325,475 322.5,475 322.5,470 
				320,470 320,467.5 315,467.5 315,465 320,465 320,462.5 322.5,462.5 322.5,457.5 325,457.5 325,462.5 327.5,462.5 327.5,465 			
				"/>
			<rect x="325" y="470" style="fill:#FFD7F7;" width="2.5" height="5"/>
			<rect x="320" y="462.5" style="fill:#EF9CE8;" width="2.5" height="2.5"/>
			<rect x="325" y="462.5" style="fill:#EF9CE8;" width="2.5" height="2.5"/>
			<rect x="325" y="467.5" style="fill:#EF9CE8;" width="2.5" height="2.5"/>
			<rect x="320" y="467.5" style="fill:#EF9CE8;" width="2.5" height="2.5"/>
		</g>
	</g>
</g>
</svg>
