<svg width="96" height="110" viewBox="0 0 96 110" fill="none" xmlns="http://www.w3.org/2000/svg">
<path d="M58.6134 14.6533V21.9733H51.28V14.6533H58.6134Z" fill="#DA625C"/>
<path d="M51.28 43.9466V51.2799H43.96V43.9466H51.28Z" fill="#DA625C"/>
<path d="M51.28 36.6264V43.9464H43.96V36.6264H51.28Z" fill="#DA625C"/>
<path d="M51.28 29.3066V36.6266H43.96V29.3066H51.28Z" fill="#DA625C"/>
<path d="M51.28 21.9732V29.3065H43.96V21.9732H51.28Z" fill="#DA625C"/>
<path d="M51.28 14.6533V21.9733H43.96V14.6533H51.28Z" fill="#DA625C"/>
<path d="M36.6267 14.6532V7.31987C30.1013 7.31987 21.1773 7.31987 14.6533 7.31987C14.6533 10.9719 14.6533 18.3225 14.6533 21.9732H21.9733V29.3065C28.5027 29.3065 37.432 29.3065 43.96 29.3065C43.96 25.6545 43.96 18.3039 43.96 14.6532H36.6267Z" fill="#77CC65"/>
<path d="M80.5866 51.28V43.9466H73.2666V36.6266C66.7372 36.6266 57.8079 36.6266 51.2799 36.6266C51.2799 40.2786 51.2799 47.6293 51.2799 51.28H58.6133V43.9466H65.9332V51.28H58.6133V58.6C52.0839 58.6 43.1546 58.6 36.6266 58.6V51.28H29.3066V43.9466H36.6266V51.28H43.9599C43.9599 47.628 43.9599 40.2773 43.9599 36.6266C37.4306 36.6266 28.5013 36.6266 21.9733 36.6266V43.9466H14.6532V51.28H7.33325C7.33325 63.024 7.33325 76.1625 7.33325 87.9067C10.9813 87.9067 18.3253 87.9067 21.9733 87.9067V95.2401H29.3066V102.56C41.0506 102.56 54.1892 102.56 65.9332 102.56V95.2401H73.2666V87.9067C76.9146 87.9067 84.2586 87.9067 87.9066 87.9067C87.9066 76.1614 87.9066 63.024 87.9066 51.28H80.5866Z" fill="#F24C88"/>
<path d="M87.9067 51.2799C87.9067 63.0239 87.9067 76.1625 87.9067 87.9067H95.2401C95.2401 76.1614 95.2401 63.0239 95.2401 51.2799H87.9067Z" fill="black"/>
<path d="M87.9067 51.2799V43.9466H80.5867V51.2799H87.9067Z" fill="black"/>
<path d="M73.2666 87.9067V95.24H65.9332V102.56C54.1879 102.56 41.0506 102.56 29.3066 102.56V95.24H21.9733V87.9067C18.3253 87.9067 10.9813 87.9067 7.33325 87.9067V95.24H14.6532V102.56H21.9733V109.893C38.7426 109.893 56.4972 109.893 73.2666 109.893V102.56H80.5866V95.24H87.9066V87.9067C84.2586 87.9067 76.9146 87.9067 73.2666 87.9067Z" fill="black"/>
<path d="M80.5866 43.9464V36.6264H73.2666V43.9464H80.5866Z" fill="black"/>
<path d="M58.6133 51.2799H65.9333V43.9466H58.6133V51.2799Z" fill="black"/>
<path d="M65.9333 21.9733V14.6533H58.6133V21.9733H65.9333Z" fill="black"/>
<path d="M51.28 29.3066V36.6266C57.8094 36.6266 66.7387 36.6266 73.2667 36.6266V29.3066C69.6147 29.3066 62.264 29.3066 58.6134 29.3066V21.9733H51.28V29.3066Z" fill="black"/>
<path d="M43.96 51.2797H36.6267V58.5997C43.156 58.5997 52.0854 58.5997 58.6134 58.5997V51.2797C54.9614 51.2797 47.6107 51.2797 43.96 51.2797Z" fill="black"/>
<path d="M43.96 14.6532C47.612 14.6532 54.9627 14.6532 58.6134 14.6532V7.31987C52.0841 7.31987 43.1547 7.31987 36.6267 7.31987V14.6532H43.96Z" fill="black"/>
<path d="M29.3066 43.9466V51.2799H36.6266V43.9466H29.3066Z" fill="black"/>
<path d="M36.6267 36.6266H43.96V29.3066C37.4307 29.3066 28.5014 29.3066 21.9734 29.3066V36.6266C25.6254 36.6266 32.976 36.6266 36.6267 36.6266Z" fill="black"/>
<path d="M29.3067 7.31995H36.6267V-5.73479e-05C30.1013 -5.73479e-05 21.1773 -5.73479e-05 14.6533 -5.73479e-05V7.31995C18.3053 7.31995 25.656 7.31995 29.3067 7.31995Z" fill="black"/>
<path d="M21.9733 36.6264H14.6533V43.9464H21.9733V36.6264Z" fill="black"/>
<path d="M14.6533 21.9732V29.3065H21.9733V21.9732H14.6533Z" fill="black"/>
<path d="M14.6532 43.9466H7.33325V51.2799H14.6532V43.9466Z" fill="black"/>
<path d="M14.6532 7.31995H7.33325C7.33325 10.9719 7.33325 18.3226 7.33325 21.9733H14.6532C14.6532 18.3213 14.6532 10.9706 14.6532 7.31995Z" fill="black"/>
<path d="M7.33333 73.2531C7.33333 66.7281 7.33333 57.8039 7.33333 51.2799H0C0 63.0239 0 76.1625 0 87.9067H7.33333C7.33333 84.2546 7.33333 76.9041 7.33333 73.2531Z" fill="black"/>
<path d="M51.28 43.9466V51.2799H43.96V43.9466H51.28Z" fill="#BF2D58"/>
<path d="M51.28 21.9732V29.3065H43.96V21.9732H51.28Z" fill="#BF2D58"/>
<path d="M36.6266 21.9732V29.3065H29.3066V21.9732H36.6266Z" fill="#239542"/>
<path d="M80.5867 51.28V43.9466H73.2667C73.2667 47.5986 73.2667 54.9493 73.2667 58.6H65.9334C65.9334 65.1292 65.9334 74.0589 65.9334 80.5865H58.6134V87.9067C54.9614 87.9067 47.6107 87.9067 43.96 87.9067V95.2401C40.308 95.2401 32.9574 95.2401 29.3067 95.2401V87.9067H21.9734C21.9734 91.5589 21.9734 98.9093 21.9734 102.56C38.7427 102.56 56.4974 102.56 73.2667 102.56C73.2667 98.9078 73.2667 91.5573 73.2667 87.9067C76.9147 87.9067 84.2587 87.9067 87.9067 87.9067C87.9067 76.1614 87.9067 63.024 87.9067 51.28H80.5867Z" fill="#EE2665"/>
<path d="M36.6267 21.9732V29.3065H43.96V21.9732H36.6267Z" fill="#4BBE61"/>
<path d="M21.9734 29.3065H29.3067V21.9732H21.9734V29.3065Z" fill="#4BBE61"/>
<path d="M58.6134 36.6264H51.28V43.9464C54.932 43.9464 62.2827 43.9464 65.9334 43.9464V36.6264H58.6134Z" fill="#F689AA"/>
<path d="M29.3066 36.6264V43.9464C32.9586 43.9464 40.3093 43.9464 43.96 43.9464V36.6264C40.308 36.6264 32.9573 36.6264 29.3066 36.6264Z" fill="#F689AA"/>
<path d="M21.9733 65.9333H14.6533V73.2532C18.3053 73.2532 25.656 73.2532 29.3067 73.2532C29.3067 69.601 29.3067 62.2506 29.3067 58.6H21.9733V65.9333Z" fill="#F689AA"/>
<path d="M21.9733 58.6V65.9333H14.6533V58.6H21.9733Z" fill="#E8E1F3"/>
<path d="M21.9733 14.6533V21.9733H14.6533V14.6533H21.9733Z" fill="#239542"/>
<path d="M51.28 14.6533V21.9733H43.96V14.6533H51.28Z" fill="#FABEAE"/>
</svg>
