<svg width="74" height="125" viewBox="0 0 74 125" fill="none" xmlns="http://www.w3.org/2000/svg">
<path d="M29.3067 43.9467V51.28H21.9734V43.9467H29.3067Z" fill="#FCD6A5"/>
<path d="M21.9733 58.6V65.9333H14.6533V58.6H21.9733Z" fill="#FCD6A5"/>
<path d="M58.6134 43.9468V36.6268H51.28V43.9468H58.6134Z" fill="#77CC65"/>
<path d="M58.6134 21.9734H51.28V29.2935H58.6134V21.9734Z" fill="#77CC65"/>
<path d="M43.9601 29.2934V7.32004H29.3067V29.2934H21.9734V36.6267H29.3067H36.6267H43.9601H51.2801V29.2934H43.9601Z" fill="#77CC65"/>
<path d="M14.6533 43.9468H21.9733V36.6268H14.6533V43.9468Z" fill="#77CC65"/>
<path d="M14.6533 21.9734V29.2935H21.9733V21.9734H14.6533Z" fill="#77CC65"/>
<path d="M51.28 43.9467V36.6267H21.9733L21.9733 43.9467H29.3066L29.3066 51.28H36.6267V58.6V65.9334V73.2534H29.3066V65.9334V58.6V51.28H21.9733V43.9467H14.6533L14.6533 51.28V58.6H21.9733V65.9334H14.6533V73.2534L14.6533 80.5867H21.9733L21.9733 87.9067V95.2267V102.56H29.3066V109.88V117.213H36.6267H43.96V109.88V102.56H51.28V95.2267V87.9067V80.5867H58.6133V73.2534V65.9334L58.6133 58.6V51.28V43.9467H51.28Z" fill="#F7966D"/>
<path d="M51.28 43.9467V73.2534H43.96V95.2267H36.6267H29.3066V102.56V109.88V117.213H36.6267H43.96V109.88V102.56H51.28V95.2267V87.9067V80.5867H58.6133V73.2534V65.9334V58.6V51.28V43.9467H51.28Z" fill="#F46950"/>
<path d="M29.3067 58.6V65.9333H21.9734V58.6H29.3067Z" fill="#FCD6A5"/>
<path d="M29.3067 51.2801V58.6001H21.9734V51.2801H29.3067Z" fill="#FCD6A5"/>
<path d="M58.6133 14.6534V21.9734H65.9333V14.6534H58.6133Z" fill="#4BBE61"/>
<path d="M7.32007 21.9734H14.6534V14.6534H7.32007L7.32007 21.9734Z" fill="#4BBE61"/>
<path d="M43.96 36.6267H51.2799V29.2934H43.96V36.6267Z" fill="#4BBE61"/>
<path d="M36.6267 21.9734V29.2935H43.96V21.9734H36.6267Z" fill="#4BBE61"/>
<path d="M29.3066 14.6534V21.9734H36.6267V14.6534H29.3066Z" fill="#4BBE61"/>
<path d="M21.9734 36.6267H29.3067V29.2934H21.9734V36.6267Z" fill="#4BBE61"/>
<path d="M36.6267 43.9467V51.28H43.96V43.9467H36.6267Z" fill="#F9AB8B"/>
<path d="M36.6267 87.9067V80.5868H29.3066V87.9067H36.6267Z" fill="#F9AB8B"/>
<path d="M29.3066 58.6001V73.2534H36.6267V51.2801H29.3066V58.6001Z" fill="#F9AB8B"/>
<path d="M21.9734 80.5867H29.3067V73.2533H21.9734V80.5867Z" fill="#F9AB8B"/>
<path d="M21.9734 43.9467V51.28H29.3067V43.9467H21.9734Z" fill="#F9AB8B"/>
<path d="M21.9733 58.6H14.6533V65.9333H21.9733V58.6Z" fill="#F9AB8B"/>
<path d="M51.28 36.6268V43.9468H58.6134V36.6268H51.28Z" fill="#239542"/>
<path d="M29.3066 29.2934V36.6267H43.96V29.2934H36.6267H29.3066Z" fill="#239542"/>
<path d="M14.6533 43.9468H21.9733V36.6268H14.6533V43.9468Z" fill="#239542"/>
<path d="M21.9734 51.28V65.9333H29.3067V51.28H21.9734Z" fill="white"/>
<path d="M65.9333 14.6534V21.9734H73.2533V14.6534H65.9333Z" fill="black"/>
<path d="M58.6133 58.6V80.5867H65.9333V43.9467H58.6133V51.28V58.6Z" fill="black"/>
<path d="M58.6133 29.2935H65.9333V21.9734H58.6133V29.2935Z" fill="black"/>
<path d="M65.9333 7.32023L58.6133 7.32023V14.6536H65.9333V7.32023Z" fill="black"/>
<path d="M51.28 87.9067V102.56H58.6134V80.5867H51.28V87.9067Z" fill="black"/>
<path d="M51.28 36.6268V43.9468H58.6134V29.2935H51.28V36.6268Z" fill="black"/>
<path d="M43.96 109.88V117.213H51.2799V102.56H43.96V109.88Z" fill="black"/>
<path d="M43.96 21.9734V29.2935H51.2799V21.9734H58.6133V14.6535L51.2799 14.6535V7.32012H43.96V14.6535V21.9734Z" fill="black"/>
<path d="M43.96 7.32007V4.92644e-05L29.3066 4.92644e-05V7.32007L36.6267 7.32007H43.96Z" fill="black"/>
<path d="M29.3066 117.213V124.533H43.96V117.213H36.6267H29.3066Z" fill="black"/>
<path d="M29.3067 102.56H21.9734V117.213H29.3067V109.88V102.56Z" fill="black"/>
<path d="M21.9733 87.9067V80.5867H14.6533L14.6533 102.56H21.9733V95.2267V87.9067Z" fill="black"/>
<path d="M21.9733 36.6268V29.2935H14.6533L14.6533 43.9468H21.9733V36.6268Z" fill="black"/>
<path d="M21.9733 21.9734V29.2935H29.3066V7.32012H21.9733V14.6535H14.6533L14.6533 21.9734H21.9733Z" fill="black"/>
<path d="M14.6534 65.9333L14.6534 43.9467H7.32007L7.32007 80.5867H14.6534V73.2533V65.9333Z" fill="black"/>
<path d="M7.32007 21.9734L7.32007 29.2935H14.6534V21.9734H7.32007Z" fill="black"/>
<path d="M14.6534 7.32023L7.32007 7.32023L7.32007 14.6536H14.6534V7.32023Z" fill="black"/>
<path d="M0 14.6534L0 21.9734H7.31999L7.31999 14.6534H0Z" fill="black"/>
</svg>
