<svg width="125" height="96" viewBox="0 0 125 96" fill="none" xmlns="http://www.w3.org/2000/svg">
<path d="M117.227 51.2798V58.6132H109.893V51.2798H117.227Z" fill="#D7CBEA"/>
<path d="M117.227 36.6265V43.9598H109.893V36.6265H117.227Z" fill="#D7CBEA"/>
<path d="M117.227 29.3064V36.6263H109.893V29.3064H117.227Z" fill="#D7CBEA"/>
<path d="M117.227 14.6534V21.9867H109.893V14.6534H117.227Z" fill="#D7CBEA"/>
<path d="M109.893 58.613V65.933H102.573V58.613H109.893Z" fill="#D7CBEA"/>
<path d="M109.893 51.2798V58.6132H102.573V51.2798H109.893Z" fill="#D7CBEA"/>
<path d="M109.893 43.9596V51.2797H102.573V43.9596H109.893Z" fill="#D7CBEA"/>
<path d="M102.573 51.2798V58.6132H95.24V51.2798H102.573Z" fill="#D7CBEA"/>
<path d="M95.24 58.613V65.933H87.92V58.613H95.24Z" fill="#D7CBEA"/>
<path d="M95.24 29.3064V36.6263H87.92V29.3064H95.24Z" fill="#DA625C"/>
<path d="M87.92 65.9331V73.2665H80.5867V65.9331H87.92Z" fill="#D7CBEA"/>
<path d="M87.92 58.613V65.933H80.5867V58.613H87.92Z" fill="#D7CBEA"/>
<path d="M80.5867 65.9331V73.2665H73.2667V65.9331H80.5867Z" fill="#D7CBEA"/>
<path d="M73.2667 73.2663V80.5863H65.9333V73.2663H73.2667Z" fill="#D7CBEA"/>
<path d="M73.2667 65.9331V73.2665H65.9333V65.9331H73.2667Z" fill="#D7CBEA"/>
<path d="M58.6134 80.5865V87.9198H51.2935V80.5865H58.6134Z" fill="#D7CBEA"/>
<path d="M51.2934 21.9865H87.9201V29.3065H95.24V36.6265V43.9598H87.9201V51.2798H80.5867H73.2667V58.6132H65.9334H58.6134H51.2934H43.9601V51.2798H36.64V43.9598V36.6265V29.3065H43.9601V21.9865H51.2934ZM109.893 14.6531V7.33314H43.9601V14.6531H36.64H29.3067H21.9867V21.9865H14.6534V29.3065H7.33337V36.6265V43.9598V51.2798V58.6132V65.9331V73.2665H14.6534V80.5865H21.9867V87.9198H29.3067H36.64H43.9601H51.2934H58.6134V80.5865H65.9334H73.2667V73.2665H80.5867V65.9331H87.9201H95.24H102.573H109.893V58.6132H117.227V51.2798V43.9598V36.6265V29.3065V21.9865V14.6531H109.893Z" fill="#E8E1F3"/>
<path d="M87.92 29.3065V21.9865H43.96V29.3065H36.64V36.6265V43.9598V51.2798H43.96V58.6132H51.2934H58.6134H65.9333H73.2667V51.2798H80.5867H87.92V43.9598H95.24V36.6265V29.3065H87.92Z" fill="#FBC37D"/>
<path d="M51.2934 73.2663V80.5863H43.9601V73.2663H51.2934Z" fill="#D7CBEA"/>
<path d="M43.96 73.2663V80.5863H36.64V73.2663H43.96Z" fill="#D7CBEA"/>
<path d="M87.92 36.6265H80.5867V43.9598H95.24V36.6265H87.92Z" fill="#F7966D"/>
<path d="M65.9333 43.9598V58.6132H73.2667V51.2798H80.5867V43.9598H73.2667H65.9333Z" fill="#F7966D"/>
<path d="M36.64 43.9598V51.2798H43.96V58.6132H51.2934V51.2798V43.9598H43.96H36.64Z" fill="#F7966D"/>
<path d="M73.2667 21.9863H43.96V29.3064H36.64V36.6263H43.96H51.2934V29.3064H58.6134H65.9333H73.2667V36.6263H80.5867V29.3064V21.9863H73.2667Z" fill="#FCD6A5"/>
<path d="M36.64 80.5865V87.9198H29.3066V80.5865H36.64Z" fill="#D7CBEA"/>
<path d="M29.3067 80.5865V87.9198H21.9867V80.5865H29.3067Z" fill="#D7CBEA"/>
<path d="M29.3067 73.2663V80.5863H21.9867V73.2663H29.3067Z" fill="#D7CBEA"/>
<path d="M21.9867 65.9331V73.2665H14.6533V65.9331H21.9867Z" fill="#D7CBEA"/>
<path d="M21.9867 58.613V65.933H14.6533V58.613H21.9867Z" fill="#D7CBEA"/>
<path d="M109.893 51.2797H117.227V43.9596H109.893V51.2797Z" fill="#B8B3E0"/>
<path d="M109.893 21.9865V29.3065H117.227V21.9865H109.893Z" fill="#B8B3E0"/>
<path d="M95.24 65.933H102.573V58.613H95.24V65.933Z" fill="#B8B3E0"/>
<path d="M95.24 36.6265V43.9598H102.573V29.3065H95.24V36.6265Z" fill="#B8B3E0"/>
<path d="M95.24 14.6532H102.573V7.33321H95.24V14.6532Z" fill="#B8B3E0"/>
<path d="M87.92 51.2797H95.24V43.9596H87.92V51.2797Z" fill="#B8B3E0"/>
<path d="M73.2667 51.2798V58.6132H87.9201V51.2798H80.5867H73.2667Z" fill="#B8B3E0"/>
<path d="M58.6134 80.5863H65.9334V73.2663H58.6134V80.5863Z" fill="#B8B3E0"/>
<path d="M58.6134 58.613H51.2935V65.933H73.2668V58.613H65.9334H58.6134Z" fill="#B8B3E0"/>
<path d="M36.64 80.5865V87.9198H51.2934V80.5865H43.96H36.64Z" fill="#B8B3E0"/>
<path d="M14.6533 80.5863H21.9867V73.2663H14.6533V80.5863Z" fill="#B8B3E0"/>
<path d="M14.6533 36.6263H21.9867V29.3064H14.6533V36.6263Z" fill="#B8B3E0"/>
<path d="M14.6534 58.6132H7.33337V73.2665H14.6534V65.9331V58.6132Z" fill="#B8B3E0"/>
<path d="M14.6534 51.2798V58.6132H7.33337V51.2798H14.6534Z" fill="#D7CBEA"/>
<path d="M14.6534 43.9596V51.2797H7.33337V43.9596H14.6534Z" fill="#D7CBEA"/>
<path d="M102.573 21.9865V29.3065H109.893V21.9865H102.573Z" fill="white"/>
<path d="M73.2667 14.6532H80.5867V7.33321H73.2667V14.6532Z" fill="white"/>
<path d="M51.2935 14.6532H58.6134V7.33321H51.2935V14.6532Z" fill="white"/>
<path d="M43.9601 29.3064V36.6263H58.6134V29.3064H51.2934H43.9601Z" fill="white"/>
<path d="M21.9867 58.6132H29.3067V51.2798H21.9867V58.6132Z" fill="white"/>
<path d="M21.9867 14.6534V21.9867H36.64V14.6534H29.3067H21.9867Z" fill="white"/>
<path d="M14.6533 29.3065H21.9867V21.9865H14.6533V29.3065Z" fill="white"/>
<path d="M7.33337 43.9598H14.6534V36.6265H7.33337V43.9598Z" fill="white"/>
<path d="M21.9867 14.6534H14.6533V21.9867H21.9867V14.6534Z" fill="black"/>
<path d="M14.6534 21.9865H7.33337V29.3065H14.6534V21.9865Z" fill="black"/>
<path d="M117.227 14.6531V58.6132H124.547V14.6531H117.227Z" fill="black"/>
<path d="M109.893 65.933H117.227V58.613H109.893V65.933Z" fill="black"/>
<path d="M117.227 14.6532V7.33321H109.893V14.6532H117.227Z" fill="black"/>
<path d="M95.24 65.9331H87.92V73.2665H109.893V65.9331H102.573H95.24Z" fill="black"/>
<path d="M73.2667 73.2663V80.5863H87.9201V73.2663H80.5867H73.2667Z" fill="black"/>
<path d="M58.6134 80.5865V87.9198H73.2667V80.5865H65.9334H58.6134Z" fill="black"/>
<path d="M58.6134 7.33337H109.893V4.11272e-05H43.9601V7.33337H51.2934H58.6134Z" fill="black"/>
<path d="M43.96 87.9196H21.9867V95.2396H58.6134V87.9196H51.2934H43.96Z" fill="black"/>
<path d="M36.64 14.6532H43.96V7.33321H21.9867V14.6532H29.3067H36.64Z" fill="black"/>
<path d="M21.9867 73.2665H14.6533V87.9198H21.9867V80.5865V73.2665Z" fill="black"/>
<path d="M14.6534 58.6132H7.33337V73.2665H14.6534V65.9331V58.6132Z" fill="black"/>
<path d="M7.33333 43.9598V29.3065H0V58.6132H7.33333V51.2798V43.9598Z" fill="black"/>
<path d="M65.9334 51.2798V58.6132H58.6134V51.2798H65.9334Z" fill="#DA625C"/>
<path d="M58.6134 51.2798V58.6132H51.2935V51.2798H58.6134Z" fill="#DA625C"/>
<path d="M87.92 43.9596V51.2797H80.5867V43.9596H87.92Z" fill="#DA625C"/>
</svg>
