<svg width="88" height="95" viewBox="0 0 88 95" fill="none" xmlns="http://www.w3.org/2000/svg">
<path d="M81.6441 69.0841V75.3601H75.3574V69.0841H81.6441Z" fill="#040606"/>
<path d="M81.6441 62.8093V69.084H75.3574V62.8093H81.6441Z" fill="#040606"/>
<path d="M81.6441 56.5225V62.8092H75.3574V56.5225H81.6441Z" fill="#040606"/>
<path d="M81.6441 50.2479V56.5226H75.3574V50.2479H81.6441Z" fill="#040606"/>
<path d="M81.6441 43.9612V50.2479H75.3574V43.9612H81.6441Z" fill="#040606"/>
<path d="M81.6441 37.6867V43.9613H75.3574V37.6867H81.6441Z" fill="#040606"/>
<path d="M81.6441 31.3986V37.6866H75.3574V31.3986H81.6441Z" fill="#040606"/>
<path d="M75.3573 75.3602V81.6455H69.0826V75.3602H75.3573Z" fill="#040606"/>
<path d="M75.3573 69.0841V75.3601H69.0826V69.0841H75.3573Z" fill="#040606"/>
<path d="M75.3573 62.8093V69.084H69.0826V62.8093H75.3573Z" fill="#040606"/>
<path d="M75.3573 56.5225V62.8092H69.0826V56.5225H75.3573Z" fill="#040606"/>
<path d="M75.3573 50.2479V56.5226H69.0826V50.2479H75.3573Z" fill="#040606"/>
<path d="M75.3573 43.9612V50.2479H69.0826V43.9612H75.3573Z" fill="#040606"/>
<path d="M75.3573 37.6867V43.9613H69.0826V37.6867H75.3573Z" fill="#040606"/>
<path d="M69.0827 75.3602V81.6455H62.796V75.3602H69.0827Z" fill="#040606"/>
<path d="M69.0827 69.0841V75.3601H62.796V69.0841H69.0827Z" fill="#040606"/>
<path d="M69.0827 62.8093V69.084H62.796V62.8093H69.0827Z" fill="#040606"/>
<path d="M69.0827 56.5225V62.8092H62.796V56.5225H69.0827Z" fill="#040606"/>
<path d="M69.0827 50.2479V56.5226H62.796V50.2479H69.0827Z" fill="#040606"/>
<path d="M69.0827 43.9612V50.2479H62.796V43.9612H69.0827Z" fill="#040606"/>
<path d="M69.0827 37.6867V43.9613H62.796V37.6867H69.0827Z" fill="#040606"/>
<path d="M62.796 81.6454V87.9214H56.5214V81.6454H62.796Z" fill="#040606"/>
<path d="M62.796 75.3602V81.6455H56.5214V75.3602H62.796Z" fill="#040606"/>
<path d="M62.796 69.0841V75.3601H56.5214V69.0841H62.796Z" fill="#040606"/>
<path d="M62.796 62.8093V69.084H56.5214V62.8093H62.796Z" fill="#040606"/>
<path d="M62.796 56.5225V62.8092H56.5214V56.5225H62.796Z" fill="#040606"/>
<path d="M62.796 50.2479V56.5226H56.5214V50.2479H62.796Z" fill="#040606"/>
<path d="M62.796 43.9612V50.2479H56.5214V43.9612H62.796Z" fill="#040606"/>
<path d="M56.5213 81.6454V87.9214H50.2346V81.6454H56.5213Z" fill="#040606"/>
<path d="M56.5213 75.3602V81.6455H50.2346V75.3602H56.5213Z" fill="#040606"/>
<path d="M56.5213 69.0841V75.3601H50.2346V69.0841H56.5213Z" fill="#040606"/>
<path d="M56.5213 62.8093V69.084H50.2346V62.8093H56.5213Z" fill="#040606"/>
<path d="M56.5213 56.5225V62.8092H50.2346V56.5225H56.5213Z" fill="#040606"/>
<path d="M56.5213 50.2479V56.5226H50.2346V50.2479H56.5213Z" fill="#040606"/>
<path d="M56.5213 43.9612V50.2479H50.2346V43.9612H56.5213Z" fill="#040606"/>
<path d="M50.2347 81.6454V87.9214H43.9601V81.6454H50.2347Z" fill="#040606"/>
<path d="M50.2347 75.3602V81.6455H43.9601V75.3602H50.2347Z" fill="#040606"/>
<path d="M50.2347 69.0841V75.3601H43.9601V69.0841H50.2347Z" fill="#040606"/>
<path d="M50.2347 62.8093V69.084H43.9601V62.8093H50.2347Z" fill="#040606"/>
<path d="M50.2347 56.5225V62.8092H43.9601V56.5225H50.2347Z" fill="#040606"/>
<path d="M50.2347 50.2479V56.5226H43.9601V50.2479H50.2347Z" fill="#040606"/>
<path d="M50.2347 43.9612V50.2479H43.9601V43.9612H50.2347Z" fill="#040606"/>
<path d="M43.96 81.6454V87.9214H37.6733V81.6454H43.96Z" fill="#040606"/>
<path d="M43.96 75.3602V81.6455H37.6733V75.3602H43.96Z" fill="#040606"/>
<path d="M43.96 69.0841V75.3601H37.6733V69.0841H43.96Z" fill="#040606"/>
<path d="M43.96 62.8093V69.084H37.6733V62.8093H43.96Z" fill="#040606"/>
<path d="M43.96 56.5225V62.8092H37.6733V56.5225H43.96Z" fill="#040606"/>
<path d="M43.96 50.2479V56.5226H37.6733V50.2479H43.96Z" fill="#040606"/>
<path d="M43.96 43.9612V50.2479H37.6733V43.9612H43.96Z" fill="#040606"/>
<path d="M62.796 18.8373C59.6667 18.8373 53.364 18.8373 50.2346 18.8373V25.124C47.104 25.124 40.8027 25.124 37.6733 25.124C37.6733 28.2547 37.6733 34.556 37.6733 37.6866H43.96V31.3986C49.5534 31.3986 57.204 31.3986 62.796 31.3986V25.124H69.0827V18.8373H62.796Z" fill="#F57961"/>
<path d="M43.9601 12.5626V18.8373H50.2347V12.5626H43.9601Z" fill="#F57961"/>
<path d="M37.6733 81.6454V87.9214H31.3973V81.6454H37.6733Z" fill="#040606"/>
<path d="M37.6733 75.3602V81.6455H31.3973V75.3602H37.6733Z" fill="#040606"/>
<path d="M37.6733 69.0841V75.3601H31.3973V69.0841H37.6733Z" fill="#040606"/>
<path d="M37.6733 62.8093V69.084H31.3973V62.8093H37.6733Z" fill="#040606"/>
<path d="M37.6733 56.5225V62.8092H31.3973V56.5225H37.6733Z" fill="#040606"/>
<path d="M37.6733 50.2479V56.5226H31.3973V50.2479H37.6733Z" fill="#040606"/>
<path d="M37.6733 43.9612V50.2479H31.3973V43.9612H37.6733Z" fill="#040606"/>
<path d="M31.3974 81.6454V87.9214H25.1227V81.6454H31.3974Z" fill="#040606"/>
<path d="M31.3974 75.3602V81.6455H25.1227V75.3602H31.3974Z" fill="#040606"/>
<path d="M31.3974 69.0841V75.3601H25.1227V69.0841H31.3974Z" fill="#040606"/>
<path d="M31.3974 62.8093V69.084H25.1227V62.8093H31.3974Z" fill="#040606"/>
<path d="M31.3974 56.5225V62.8092H25.1227V56.5225H31.3974Z" fill="#040606"/>
<path d="M31.3974 50.2479V56.5226H25.1227V50.2479H31.3974Z" fill="#040606"/>
<path d="M31.3974 43.9612V50.2479H25.1227V43.9612H31.3974Z" fill="#040606"/>
<path d="M25.1227 75.3602V81.6455H18.8361V75.3602H25.1227Z" fill="#040606"/>
<path d="M25.1227 69.0841V75.3601H18.8361V69.0841H25.1227Z" fill="#040606"/>
<path d="M25.1227 62.8093V69.084H18.8361V62.8093H25.1227Z" fill="#040606"/>
<path d="M25.1227 56.5225V62.8092H18.8361V56.5225H25.1227Z" fill="#040606"/>
<path d="M25.1227 50.2479V56.5226H18.8361V50.2479H25.1227Z" fill="#040606"/>
<path d="M25.1227 43.9612V50.2479H18.8361V43.9612H25.1227Z" fill="#040606"/>
<path d="M43.9601 18.8373V12.5627H37.6734V18.8373C34.5454 18.8373 28.2494 18.8373 25.1227 18.8373V25.124H18.8361V31.3986C21.9667 31.3986 28.2681 31.3986 31.3974 31.3986V37.6866H37.6734C37.6734 34.5546 37.6734 28.2533 37.6734 25.124C40.8041 25.124 47.1054 25.124 50.2347 25.124V18.8373H43.9601Z" fill="#77CC65"/>
<path d="M18.836 75.3602V81.6455H12.5613V75.3602H18.836Z" fill="#040606"/>
<path d="M18.836 69.0841V75.3601H12.5613V69.0841H18.836Z" fill="#040606"/>
<path d="M18.836 62.8093V69.084H12.5613V62.8093H18.836Z" fill="#040606"/>
<path d="M18.836 56.5225V62.8092H12.5613V56.5225H18.836Z" fill="#040606"/>
<path d="M18.836 50.2479V56.5226H12.5613V50.2479H18.836Z" fill="#040606"/>
<path d="M18.836 43.9612V50.2479H12.5613V43.9612H18.836Z" fill="#040606"/>
<path d="M18.836 37.6867V43.9613H12.5613V37.6867H18.836Z" fill="#040606"/>
<path d="M12.5613 69.0841V75.3601H6.27466V69.0841H12.5613Z" fill="#040606"/>
<path d="M12.5613 62.8093V69.084H6.27466V62.8093H12.5613Z" fill="#040606"/>
<path d="M12.5613 56.5225V62.8092H6.27466V56.5225H12.5613Z" fill="#040606"/>
<path d="M12.5613 50.2479V56.5226H6.27466V50.2479H12.5613Z" fill="#040606"/>
<path d="M12.5613 43.9612V50.2479H6.27466V43.9612H12.5613Z" fill="#040606"/>
<path d="M12.5613 37.6867V43.9613H6.27466V37.6867H12.5613Z" fill="#040606"/>
<path d="M12.5613 31.3986V37.6866H6.27466V31.3986H12.5613Z" fill="#040606"/>
<path d="M56.5213 31.3986C53.3907 31.3986 47.0893 31.3986 43.96 31.3986V37.6867C40.8293 37.6867 34.528 37.6867 31.3973 37.6867V31.3986C28.268 31.3986 21.9653 31.3986 18.836 31.3986V25.124H25.1226V18.8373C28.2506 18.8373 34.5467 18.8373 37.6733 18.8373V12.5627C40.804 12.5627 47.1053 12.5627 50.2346 12.5627V18.8373C55.832 18.8373 63.4867 18.8373 69.0827 18.8373V25.124H62.796V31.3986H56.5213ZM75.3573 18.8373V12.5627H69.0827V6.288C52.58 6.288 35.3387 6.288 18.836 6.288V12.5627H12.5613V18.8373H6.27466C6.27466 21.968 6.27466 28.2693 6.27466 31.3986H12.5613V37.6867H18.836V43.9613C33.208 43.9613 48.424 43.9613 62.796 43.9613V37.6867C65.9267 37.6867 72.228 37.6867 75.3573 37.6867V31.3986H81.644C81.644 28.2693 81.644 21.9667 81.644 18.8373H75.3573Z" fill="#E8E1F3"/>
<path d="M81.6441 25.1239V31.3986H75.3574V25.1239H81.6441Z" fill="#A6A0D8"/>
<path d="M69.0827 25.1239V31.3986H62.796V25.1239H69.0827Z" fill="#A6A0D8"/>
<path d="M62.796 31.3986V37.6866H56.5214V31.3986H62.796Z" fill="#A6A0D8"/>
<path d="M56.5214 18.8373C56.5214 21.9679 56.5214 28.2692 56.5214 31.3986H62.796C62.796 28.2692 62.796 21.9666 62.796 18.8373H56.5214Z" fill="#F46950"/>
<path d="M56.5213 31.3986V37.6866H50.2346V31.3986H56.5213Z" fill="#A6A0D8"/>
<path d="M50.2347 31.3986V37.6866H43.9601V31.3986H50.2347Z" fill="#A6A0D8"/>
<path d="M50.2346 18.8372V25.1239H56.5213V18.8372H50.2346Z" fill="#F25972"/>
<path d="M43.9601 12.5626V18.8373H50.2347V12.5626H43.9601Z" fill="#F25972"/>
<path d="M37.6733 25.1239V31.3986C40.804 31.3986 47.1053 31.3986 50.2346 31.3986V25.1239C47.104 25.1239 40.8027 25.1239 37.6733 25.1239Z" fill="#F25972"/>
<path d="M43.96 18.8373V12.5627H37.6733V18.8373H31.3973C31.3973 24.4347 31.3973 32.0893 31.3973 37.6866H37.6733C37.6733 34.5546 37.6733 28.2533 37.6733 25.124C40.804 25.124 47.1053 25.124 50.2346 25.124V18.8373H43.96Z" fill="#4BBE61"/>
<path d="M43.9601 50.2482C43.9601 60.3162 43.9601 71.5788 43.9601 81.6455H50.2347C50.2347 71.5775 50.2347 60.3162 50.2347 50.2482H43.9601Z" fill="#635695"/>
<path d="M25.1227 50.2482H18.8361C18.8361 55.8415 18.8361 63.4922 18.8361 69.0842H25.1227C25.1227 72.2148 25.1227 78.5162 25.1227 81.6455C28.2507 81.6455 34.5467 81.6455 37.6734 81.6455C37.6734 71.5775 37.6734 60.3162 37.6734 50.2482C34.5454 50.2482 28.2494 50.2482 25.1227 50.2482Z" fill="#635695"/>
<path d="M25.1227 37.6867V43.9613H18.8361V37.6867H25.1227Z" fill="#A6A0D8"/>
<path d="M75.3574 18.8372V25.1239H81.6441V18.8372H75.3574Z" fill="#D7CBEA"/>
<path d="M62.796 31.3986V37.6866C65.9267 37.6866 72.228 37.6866 75.3573 37.6866V31.3986C72.228 31.3986 65.9267 31.3986 62.796 31.3986Z" fill="#D7CBEA"/>
<path d="M62.796 6.28795H56.5214V12.5626H62.796V6.28795Z" fill="#D7CBEA"/>
<path d="M50.2346 37.6867V43.9613C53.3653 43.9613 59.6667 43.9613 62.796 43.9613V37.6867C59.6667 37.6867 53.364 37.6867 50.2346 37.6867Z" fill="#D7CBEA"/>
<path d="M31.3973 43.9613H37.6733V37.6867H31.3973V43.9613Z" fill="#D7CBEA"/>
<path d="M31.3974 6.28795H25.1227V12.5626H31.3974V6.28795Z" fill="#D7CBEA"/>
<path d="M18.8361 25.1239H25.1227V18.8372H18.8361V25.1239Z" fill="#D7CBEA"/>
<path d="M12.5613 37.6866H18.836V31.3986H12.5613V37.6866Z" fill="#D7CBEA"/>
<path d="M56.5214 12.5626V18.8373H62.796V12.5626H56.5214Z" fill="white"/>
<path d="M43.9601 12.5626H50.2347V6.28795H43.9601V12.5626Z" fill="white"/>
<path d="M37.6733 43.9613H43.96V37.6867H37.6733V43.9613Z" fill="white"/>
<path d="M37.6733 12.5626H31.3973V18.8373H37.6733V12.5626Z" fill="white"/>
<path d="M18.8361 12.5626H25.1227V6.28795H18.8361V12.5626Z" fill="white"/>
<path d="M12.5613 18.8373H18.836V12.5626H12.5613V18.8373Z" fill="white"/>
<path d="M43.96 81.6454C43.96 71.5774 43.96 60.316 43.96 50.248H50.2346C50.2346 60.316 50.2346 71.5787 50.2346 81.6454H43.96ZM75.3573 31.3987V37.6867C72.228 37.6867 65.9267 37.6867 62.796 37.6867V43.9614C48.424 43.9614 33.208 43.9614 18.836 43.9614V37.6867H12.5613V31.3987H6.27466C6.27466 45.7707 6.27466 60.988 6.27466 75.36H12.5613V81.6454C15.692 81.6454 21.9933 81.6454 25.1226 81.6454C25.1226 78.516 25.1226 72.2134 25.1226 69.084H18.836C18.836 63.4907 18.836 55.84 18.836 50.248C24.4293 50.248 32.08 50.248 37.6733 50.248C37.6733 60.316 37.6733 71.5787 37.6733 81.6454C34.5453 81.6454 28.2493 81.6454 25.1226 81.6454V87.9214C37.3506 87.9214 50.568 87.9214 62.796 87.9214V81.6454C65.9267 81.6454 72.228 81.6454 75.3573 81.6454V75.36H81.644C81.644 60.988 81.644 45.7707 81.644 31.3987H75.3573Z" fill="#353056"/>
<path d="M12.5613 25.1239V31.3986H6.27466V25.1239H12.5613Z" fill="#A6A0D8"/>
<path d="M81.644 18.8375C81.644 37.4602 81.644 56.7374 81.644 75.3601H87.92C87.92 56.7374 87.92 37.4602 87.92 18.8375H81.644Z" fill="black"/>
<path d="M75.3574 81.6455H81.6441V75.3602H75.3574V81.6455Z" fill="black"/>
<path d="M75.3574 12.5626V18.8373H81.6441V12.5626H75.3574Z" fill="black"/>
<path d="M69.0826 6.28795V12.5626H75.3573V6.28795H69.0826Z" fill="black"/>
<path d="M62.796 81.6454V87.9214C65.9267 87.9214 72.228 87.9214 75.3573 87.9214V81.6454C72.228 81.6454 65.9267 81.6454 62.796 81.6454Z" fill="black"/>
<path d="M62.7961 -5.72205e-05C48.4241 -5.72205e-05 33.2081 -5.72205e-05 18.8361 -5.72205e-05V6.28796C35.3401 6.28796 52.5801 6.28796 69.0827 6.28796V-5.72205e-05H62.7961Z" fill="black"/>
<path d="M50.2346 87.9214C44.6413 87.9214 36.9907 87.9214 31.3973 87.9214V94.208C41.4667 94.208 52.728 94.208 62.796 94.208V87.9214C59.6667 87.9214 53.364 87.9214 50.2346 87.9214Z" fill="black"/>
<path d="M18.836 87.9214H25.1226V81.6454C21.9919 81.6454 15.6906 81.6454 12.5613 81.6454V87.9214H18.836Z" fill="black"/>
<path d="M12.5613 12.5626H18.836V6.28795H12.5613V12.5626Z" fill="black"/>
<path d="M12.5613 81.6455V75.3602H6.27466V81.6455H12.5613Z" fill="black"/>
<path d="M6.27466 18.8373H12.5613V12.5626H6.27466V18.8373Z" fill="black"/>
<path d="M0 25.1241C0 41.6241 0 58.8601 0 75.3601H6.27467C6.27467 56.7374 6.27467 37.4602 6.27467 18.8375H0V25.1241Z" fill="black"/>
</svg>
