<svg width="118" height="66" viewBox="0 0 118 66" fill="none" xmlns="http://www.w3.org/2000/svg">
<path d="M95.24 29.2932L73.2533 29.2932L73.2533 36.6265L95.24 36.6265L95.24 43.9465L102.56 43.9465L109.893 43.9465L109.893 36.6265L102.56 36.6265L102.56 29.2932L109.893 29.2932L109.893 21.9732L102.56 21.9732L95.24 21.9732L95.24 29.2932Z" fill="#E8E1F3"/>
<path d="M21.9734 14.6533L14.6534 14.6533L14.6534 21.9733L7.32004 21.9733L7.32004 29.2933L7.32004 36.6266L7.32004 43.9466L14.6534 43.9466L14.6534 51.28L21.9734 51.28L21.9734 58.6L29.3067 58.6L36.6267 58.6L43.9467 58.6L51.28 58.6L51.28 51.28L58.6 51.28L65.9334 51.28L65.9333 43.9466L73.2533 43.9466L80.5867 43.9466L80.5867 36.6266L73.2533 36.6266L73.2533 29.2933L80.5867 29.2933L80.5867 21.9733L73.2533 21.9733L65.9333 21.9733L65.9333 14.6533L58.6 14.6533L51.28 14.6533L51.28 7.31996L43.9467 7.31996L36.6267 7.31996L29.3067 7.31996L21.9734 7.31996L21.9734 14.6533Z" fill="#DA625C"/>
<path d="M14.6534 21.9732L21.9734 21.9732L21.9734 29.2932L14.6534 29.2932L14.6534 21.9732Z" fill="#C9544F"/>
<path d="M95.24 29.2932L109.893 29.2932L109.893 21.9732L95.24 21.9732L95.24 29.2932Z" fill="#D7CBEA"/>
<path d="M109.893 43.9465L109.893 36.6265L102.56 36.6265L102.56 43.9465L109.893 43.9465Z" fill="#D7CBEA"/>
<path d="M21.9734 14.6532L14.6534 14.6532L14.6534 21.9732L29.3067 21.9732L29.3067 14.6532L36.6267 14.6532L36.6267 21.9732L43.9467 21.9732L43.9467 29.2932L51.28 29.2932L51.28 21.9732L58.6 21.9732L58.6 29.2932L65.9333 29.2932L65.9334 36.6265L65.9334 43.9465L73.2533 43.9465L80.5867 43.9465L80.5867 36.6265L73.2533 36.6265L73.2533 29.2932L80.5867 29.2932L80.5867 21.9732L73.2533 21.9732L73.2533 14.6532L65.9333 14.6532L58.6 14.6532L51.28 14.6532L51.28 7.31988L43.9467 7.31988L36.6267 7.31988L29.3067 7.31988L21.9734 7.31988L21.9734 14.6532Z" fill="#B2453E"/>
<path d="M7.31999 29.2932L14.6533 29.2932L14.6533 21.9732L7.31999 21.9732L7.31999 29.2932Z" fill="#B2453E"/>
<path d="M80.5867 29.2933L87.9067 29.2933L87.9067 36.6266L80.5867 36.6266L80.5867 29.2933Z" fill="white"/>
<path d="M21.9733 29.2933L21.9733 36.6266L29.3066 36.6266L29.3066 29.2933L21.9733 29.2933Z" fill="#EE706C"/>
<path d="M29.3068 36.6266L29.3068 43.9466L21.9735 43.9466L21.9735 51.2799L29.3068 51.2799L36.6268 51.2799L43.9468 51.2799L43.9468 43.9466L43.9468 36.6266L36.6268 36.6266L29.3068 36.6266Z" fill="#EE706C"/>
<path d="M51.28 29.2933L43.9467 29.2933L43.9467 36.6266L51.28 36.6266L51.28 29.2933Z" fill="#EE706C"/>
<path d="M29.3068 51.2799L43.9468 51.2799L43.9468 43.9466L29.3068 43.9466L29.3068 51.2799Z" fill="white"/>
<path d="M21.9734 7.31995L51.28 7.31995L51.28 -4.02538e-05L21.9734 -3.89728e-05L21.9734 7.31995Z" fill="black"/>
<path d="M58.6 14.6532L65.9333 14.6532L65.9333 7.31987L51.28 7.31987L51.28 14.6532L58.6 14.6532Z" fill="black"/>
<path d="M14.6534 14.6532L21.9734 14.6532L21.9734 7.31987L14.6534 7.31987L14.6534 14.6532Z" fill="black"/>
<path d="M109.893 21.9733L109.893 14.6532L95.24 14.6532L95.24 21.9733L102.56 21.9733L109.893 21.9733Z" fill="black"/>
<path d="M73.2533 21.9733L80.5867 21.9733L80.5867 14.6532L65.9333 14.6532L65.9333 21.9733L73.2533 21.9733Z" fill="black"/>
<path d="M7.31999 21.9733L14.6533 21.9733L14.6533 14.6532L7.31999 14.6532L7.31999 21.9733Z" fill="black"/>
<path d="M117.213 29.2932L117.213 21.9732L109.893 21.9732L109.893 29.2932L117.213 29.2932Z" fill="black"/>
<path d="M87.9067 29.2932L95.24 29.2932L95.24 21.9732L80.5866 21.9732L80.5866 29.2932L87.9067 29.2932Z" fill="black"/>
<path d="M1.60718e-05 29.2932L1.67124e-05 43.9465L7.32007 43.9465L7.32007 21.9732L1.57519e-05 21.9732L1.60718e-05 29.2932Z" fill="black"/>
<path d="M102.56 36.6266L109.893 36.6266L109.893 29.2933L102.56 29.2933L102.56 36.6266Z" fill="black"/>
<path d="M117.213 43.9465L117.213 36.6265L109.893 36.6265L109.893 43.9465L117.213 43.9465Z" fill="black"/>
<path d="M87.9067 36.6265L80.5866 36.6265L80.5866 43.9465L95.24 43.9465L95.24 36.6265L87.9067 36.6265Z" fill="black"/>
<path d="M95.24 43.9466L95.24 51.2799L109.893 51.2799L109.893 43.9466L102.56 43.9466L95.24 43.9466Z" fill="black"/>
<path d="M65.9333 43.9466L65.9333 51.2799L80.5867 51.2799L80.5867 43.9466L73.2533 43.9466L65.9333 43.9466Z" fill="black"/>
<path d="M14.6533 51.2799L14.6533 43.9466L7.31999 43.9466L7.31999 51.2799L14.6533 51.2799Z" fill="black"/>
<path d="M58.6001 51.28L51.2801 51.28L51.2801 58.6L58.6001 58.6L58.6001 51.28Z" fill="black"/>
<path d="M21.9734 58.6L21.9734 51.28L14.6534 51.28L14.6534 58.6L21.9734 58.6Z" fill="black"/>
<path d="M29.3067 65.9332L51.28 65.9332L51.28 58.5999L21.9734 58.5999L21.9734 65.9332L29.3067 65.9332Z" fill="black"/>
</svg>
