<svg width="103" height="110" viewBox="0 0 103 110" fill="none" xmlns="http://www.w3.org/2000/svg">
<path d="M80.5864 58.6001C80.5864 62.2521 80.5864 69.6028 80.5864 73.2534H87.9064C87.9064 69.6014 87.9064 62.2507 87.9064 58.6001H80.5864Z" fill="#E8E1F3"/>
<path d="M51.2802 87.9067H58.6135V80.5734H51.2802V87.9067Z" fill="#E8E1F3"/>
<path d="M29.3066 80.5734V87.9067C32.9582 87.9067 40.3093 87.9067 43.9604 87.9067V80.5734C40.3082 80.5734 32.9577 80.5734 29.3066 80.5734Z" fill="#E8E1F3"/>
<path d="M21.9734 73.2533V80.5732H29.3067V73.2533H21.9734Z" fill="#E8E1F3"/>
<path d="M14.6535 65.9334H7.33325V73.2534C10.9817 73.2534 18.3259 73.2534 21.9732 73.2534V65.9334H14.6535Z" fill="#E8E1F3"/>
<path d="M95.2397 65.9334V73.2534H87.9064V65.9334H95.2397Z" fill="#D7CBEA"/>
<path d="M87.9064 65.9334V73.2534H80.5864V65.9334H87.9064Z" fill="white"/>
<path d="M80.5864 73.2533V80.5732H73.2664V73.2533H80.5864Z" fill="#D7CBEA"/>
<path d="M80.5864 36.6268V43.9468H73.2664V36.6268H80.5864Z" fill="#484165"/>
<path d="M65.9331 80.5734V87.9067H58.6135V80.5734H65.9331Z" fill="#D7CBEA"/>
<path d="M58.6135 80.5734V87.9067H51.2802V80.5734H58.6135Z" fill="white"/>
<path d="M51.2802 80.5734V87.9067H43.9604V80.5734H51.2802Z" fill="#D7CBEA"/>
<path d="M43.9604 80.5734V87.9067H36.6271V80.5734H43.9604Z" fill="white"/>
<path d="M36.627 80.5734V87.9067H29.3066V80.5734H36.627Z" fill="white"/>
<path d="M29.3067 73.2533V80.5732H21.9734V73.2533H29.3067Z" fill="white"/>
<path d="M51.2802 65.9332V58.5999H43.9605V51.2799H36.6271V43.9466H43.9605V51.2799H51.2802V58.5999H58.6135V65.9332H51.2802ZM80.5865 51.2799H73.2665V58.5999H65.9331V51.2799H73.2665V43.9466H65.9331V36.6266H73.2665V29.2933C69.6145 29.2933 62.2638 29.2933 58.6135 29.2933V36.6266H51.2802V29.2933H58.6135V21.9733H51.2802V14.6399H43.9605C43.9605 18.2919 43.9605 25.6426 43.9605 29.2933H36.6271V36.6266H29.3067C29.3067 40.2786 29.3067 47.6293 29.3067 51.2799H21.9734C21.9734 54.9319 21.9734 62.2826 21.9734 65.9332H29.3067V58.5999H36.6271V65.9332H29.3067C29.3067 69.5812 29.3067 76.9252 29.3067 80.5732H36.6271V73.2533C45.8089 73.2533 56.7521 73.2533 65.9331 73.2533V65.9332C69.5851 65.9332 76.9358 65.9332 80.5865 65.9332V58.5999H87.9065V51.2799H80.5865Z" fill="#F24C88"/>
<path d="M87.9064 73.2533V80.5732H95.2397V73.2533H87.9064Z" fill="#00A652"/>
<path d="M80.5864 87.9067H87.9064V80.5734H80.5864V87.9067Z" fill="#00A652"/>
<path d="M65.9331 87.9066V95.2266C69.5851 95.2266 76.9358 95.2266 80.5864 95.2266V87.9066C76.9358 87.9066 69.5851 87.9066 65.9331 87.9066Z" fill="#00A652"/>
<path d="M58.6135 102.56H65.9331V95.2267H58.6135V102.56Z" fill="#00A652"/>
<path d="M43.9604 102.56H51.2802V95.2267H43.9604V102.56Z" fill="#00A652"/>
<path d="M21.9734 95.2266H29.3067V87.9066H21.9734V95.2266Z" fill="#00A652"/>
<path d="M14.6536 80.5734V87.9067H21.9733V80.5734H14.6536Z" fill="#00A652"/>
<path d="M21.9733 65.9334V73.2534H14.6536V65.9334H21.9733Z" fill="white"/>
<path d="M80.5864 58.6V65.9333H87.9064V58.6H80.5864Z" fill="#EE2665"/>
<path d="M80.5864 51.28V43.9467H73.2664V51.28H80.5864Z" fill="#EE2665"/>
<path d="M65.9331 65.9332V73.2533C56.7515 73.2533 45.8083 73.2533 36.6271 73.2533V80.5732C48.376 80.5732 61.5184 80.5732 73.2664 80.5732V73.2533H80.5864V65.9332C76.9357 65.9332 69.5851 65.9332 65.9331 65.9332Z" fill="#EE2665"/>
<path d="M65.9331 36.6268V43.9468H73.2664V36.6268H65.9331Z" fill="#EE2665"/>
<path d="M65.9331 29.2935V21.9735H58.6135V29.2935H65.9331Z" fill="#EE2665"/>
<path d="M58.6135 14.6401V7.32H51.2802C51.2802 10.972 51.2802 18.3227 51.2802 21.9734H58.6135V14.6401Z" fill="#EE2665"/>
<path d="M21.9734 73.2534H29.3067V65.9334H21.9734V73.2534Z" fill="#EE2665"/>
<path d="M14.6536 58.6V65.9333H21.9733V58.6H14.6536Z" fill="#EE2665"/>
<path d="M43.9604 58.6001H51.2802V51.2801H43.9604V58.6001Z" fill="#F689AA"/>
<path d="M43.9604 7.32009V14.6401H51.2802V7.32009H43.9604Z" fill="#F689AA"/>
<path d="M43.9604 21.9735H36.6271V29.2935H43.9604V21.9735Z" fill="#F689AA"/>
<path d="M29.3066 36.6267H36.627V29.2934H29.3066V36.6267Z" fill="#F689AA"/>
<path d="M21.9734 51.28H29.3067V43.9467H21.9734V51.28Z" fill="#F689AA"/>
<path d="M14.6536 58.6001H21.9733V51.2801H14.6536V58.6001Z" fill="#F689AA"/>
<path d="M80.5864 73.2533V80.5732H87.9064V73.2533H80.5864Z" fill="#0CAA4F"/>
<path d="M65.9331 80.5734V87.9067C69.5851 87.9067 76.9358 87.9067 80.5864 87.9067V80.5734C76.9358 80.5734 69.5851 80.5734 65.9331 80.5734Z" fill="#0CAA4F"/>
<path d="M51.2801 87.9067C44.7552 87.9067 35.8312 87.9067 29.3066 87.9067V95.2267H36.627V102.56H43.9604V95.2267H51.2801V102.56H58.6134V95.2267H65.933V87.9067C62.2824 87.9067 54.9312 87.9067 51.2801 87.9067Z" fill="#0CAA4F"/>
<path d="M21.9734 80.5734V87.9067H29.3067V80.5734H21.9734Z" fill="#0CAA4F"/>
<path d="M14.6535 73.2533H7.33325V80.5732C10.9817 80.5732 18.3259 80.5732 21.9732 80.5732V73.2533H14.6535Z" fill="#0CAA4F"/>
<path d="M95.2397 65.9332C95.2397 69.5812 95.2397 76.9252 95.2397 80.5732H102.56C102.56 76.9252 102.56 69.5812 102.56 65.9332H95.2397Z" fill="black"/>
<path d="M87.9064 87.9067H95.2397V80.5734H87.9064V87.9067Z" fill="black"/>
<path d="M95.2397 51.28H87.9064C87.9064 54.932 87.9064 62.2827 87.9064 65.9333H95.2397C95.2397 62.2813 95.2397 54.9307 95.2397 51.28Z" fill="black"/>
<path d="M80.5864 95.2266H87.9064V87.9066H80.5864V95.2266Z" fill="black"/>
<path d="M80.5864 43.9467V51.28H87.9064V43.9467H80.5864Z" fill="black"/>
<path d="M80.5864 36.6267V29.2934H73.2664V36.6267H80.5864Z" fill="black"/>
<path d="M65.9331 95.2267V102.56C69.5851 102.56 76.9358 102.56 80.5864 102.56V95.2267C76.9358 95.2267 69.5851 95.2267 65.9331 95.2267Z" fill="black"/>
<path d="M65.9331 58.6001H73.2664V51.2801H65.9331V58.6001Z" fill="black"/>
<path d="M73.2664 29.2935V21.9735H65.9331V29.2935H73.2664Z" fill="black"/>
<path d="M58.6135 21.9734H65.9331C65.9331 18.3214 65.9331 10.9707 65.9331 7.32H58.6135C58.6135 10.972 58.6135 18.3227 58.6135 21.9734Z" fill="black"/>
<path d="M51.2801 102.56C47.6285 102.56 40.2776 102.56 36.6271 102.56V109.88C45.8088 109.88 56.752 109.88 65.9331 109.88V102.56C62.2824 102.56 54.9312 102.56 51.2801 102.56Z" fill="black"/>
<path d="M51.2802 65.9333H58.6135V58.6H51.2802V65.9333Z" fill="black"/>
<path d="M58.6135 29.2934H51.2802V36.6267H58.6135V29.2934Z" fill="black"/>
<path d="M58.6135 7.32007V8.18165e-05C54.9615 8.18165e-05 47.611 8.18165e-05 43.9604 8.18165e-05V7.32007C47.6119 7.32007 54.9625 7.32007 58.6135 7.32007Z" fill="black"/>
<path d="M36.6271 51.28H43.9604V43.9467H36.6271V51.28Z" fill="black"/>
<path d="M43.9604 14.6401V7.32H36.6271C36.6271 10.972 36.6271 18.3227 36.6271 21.9734H43.9604V14.6401Z" fill="black"/>
<path d="M29.3067 95.2267H21.9734V102.56C25.6255 102.56 32.9761 102.56 36.6271 102.56V95.2267H29.3067Z" fill="black"/>
<path d="M29.3066 65.9333H36.627V58.6H29.3066V65.9333Z" fill="black"/>
<path d="M36.627 21.9735H29.3066V29.2935H36.627V21.9735Z" fill="black"/>
<path d="M29.3067 36.6268V29.2935H21.9734C21.9734 32.9455 21.9734 40.2961 21.9734 43.9468H29.3067V36.6268Z" fill="black"/>
<path d="M14.6536 87.9066V95.2266H21.9733V87.9066H14.6536Z" fill="black"/>
<path d="M21.9733 43.9467H14.6536V51.28H21.9733V43.9467Z" fill="black"/>
<path d="M7.33325 80.5734V87.9067H14.6535V80.5734H7.33325Z" fill="black"/>
<path d="M14.6535 58.6V51.28H7.33325C7.33325 54.932 7.33325 62.2827 7.33325 65.9333H14.6535V58.6Z" fill="black"/>
<path d="M7.33333 65.9332H0C0 69.5812 0 76.9252 0 80.5732H7.33333C7.33333 76.9252 7.33333 69.5812 7.33333 65.9332Z" fill="black"/>
</svg>
