<svg width="165" height="165" viewBox="0 0 165 165" fill="none" xmlns="http://www.w3.org/2000/svg">
<path d="M20.7378 -6.37785e-05H30.6558V9.91797H20.7378V-6.37785e-05Z" fill="#19162E"/>
<path d="M30.6558 -6.37785e-05H41.4754V9.91797H30.6558V-6.37785e-05Z" fill="#19162E"/>
<path d="M41.4753 -6.37785e-05H51.3934V9.91797H41.4753V-6.37785e-05Z" fill="#19162E"/>
<path d="M51.3936 -6.37785e-05H62.2132V9.91797H51.3936V-6.37785e-05Z" fill="#19162E"/>
<path d="M62.2131 -6.37785e-05H72.1312V9.91797H62.2131V-6.37785e-05Z" fill="#19162E"/>
<path d="M72.1311 -6.37785e-05H82.0491V9.91797H72.1311V-6.37785e-05Z" fill="#19162E"/>
<path d="M82.0491 -6.37785e-05H92.8687V9.91797H82.0491V-6.37785e-05Z" fill="#19162E"/>
<path d="M92.8689 -6.37785e-05H102.787V9.91797H92.8689V-6.37785e-05Z" fill="#19162E"/>
<path d="M102.787 -6.37785e-05H113.607V9.91797H102.787V-6.37785e-05Z" fill="#19162E"/>
<path d="M113.606 -6.37785e-05H123.524V9.91797H113.606V-6.37785e-05Z" fill="#19162E"/>
<path d="M123.525 -6.37785e-05H134.344V9.91797H123.525V-6.37785e-05Z" fill="#19162E"/>
<path d="M134.344 -6.37785e-05H144.262V9.91797H134.344V-6.37785e-05Z" fill="#19162E"/>
<path d="M9.91797 9.91812H20.7376V20.7378H9.91797V9.91812Z" fill="#19162E"/>
<path d="M20.7378 9.91812H30.6558V20.7378H20.7378V9.91812Z" fill="#F1485D"/>
<path d="M30.6558 9.91812H41.4754V20.7378H30.6558V9.91812Z" fill="#F1485D"/>
<path d="M41.4753 9.91812H51.3934V20.7378H41.4753V9.91812Z" fill="#F1485D"/>
<path d="M51.3936 9.91812H62.2132V20.7378H51.3936V9.91812Z" fill="#F1485D"/>
<path d="M62.2131 9.91812H72.1312V20.7378H62.2131V9.91812Z" fill="#F1485D"/>
<path d="M72.1311 9.91812H82.0491V20.7378H72.1311V9.91812Z" fill="#F1485D"/>
<path d="M82.0491 9.91812H92.8687V20.7378H82.0491V9.91812Z" fill="#F1485D"/>
<path d="M92.8689 9.91812H102.787V20.7378H92.8689V9.91812Z" fill="#F1485D"/>
<path d="M102.787 9.91812H113.607V20.7378H102.787V9.91812Z" fill="#F1485D"/>
<path d="M113.606 9.91812H123.524V20.7378H113.606V9.91812Z" fill="#F1485D"/>
<path d="M123.525 9.91812H134.344V20.7378H123.525V9.91812Z" fill="#F1485D"/>
<path d="M134.344 9.91812H144.262V20.7378H134.344V9.91812Z" fill="#F1485D"/>
<path d="M144.262 9.91812H155.082V20.7378H144.262V9.91812Z" fill="#19162E"/>
<path d="M0 20.7377H9.91803V30.6558H0V20.7377Z" fill="#19162E"/>
<path d="M9.91797 20.7377H20.7376V30.6558H9.91797V20.7377Z" fill="#F1485D"/>
<path d="M20.7378 20.7377H30.6558V30.6558H20.7378V20.7377Z" fill="#F1485D"/>
<path d="M30.6558 20.7377H41.4754V30.6558H30.6558V20.7377Z" fill="#F1485D"/>
<path d="M41.4753 20.7377H51.3934V30.6558H41.4753V20.7377Z" fill="#F1485D"/>
<path d="M51.3936 20.7377H62.2132V30.6558H51.3936V20.7377Z" fill="#F1485D"/>
<path d="M62.2131 20.7377H72.1312V30.6558H62.2131V20.7377Z" fill="#FFFCFE"/>
<path d="M72.1311 20.7377H82.0491V30.6558H72.1311V20.7377Z" fill="#FFFCFE"/>
<path d="M82.0491 20.7377H92.8687V30.6558H82.0491V20.7377Z" fill="#FFFCFE"/>
<path d="M92.8689 20.7377H102.787V30.6558H92.8689V20.7377Z" fill="#FFFCFE"/>
<path d="M102.787 20.7377H113.607V30.6558H102.787V20.7377Z" fill="#F1485D"/>
<path d="M113.606 20.7377H123.524V30.6558H113.606V20.7377Z" fill="#F1485D"/>
<path d="M123.525 20.7377H134.344V30.6558H123.525V20.7377Z" fill="#F1485D"/>
<path d="M134.344 20.7377H144.262V30.6558H134.344V20.7377Z" fill="#F1485D"/>
<path d="M144.262 20.7377H155.082V30.6558H144.262V20.7377Z" fill="#F686B0"/>
<path d="M155.082 20.7377H165V30.6558H155.082V20.7377Z" fill="#19162E"/>
<path d="M0 30.6557H9.91803V41.4753H0V30.6557Z" fill="#19162E"/>
<path d="M9.91797 30.6557H20.7376V41.4753H9.91797V30.6557Z" fill="#F1485D"/>
<path d="M20.7378 30.6557H30.6558V41.4753H20.7378V30.6557Z" fill="#F1485D"/>
<path d="M30.6558 30.6557H41.4754V41.4753H30.6558V30.6557Z" fill="#F1485D"/>
<path d="M41.4753 30.6557H51.3934V41.4753H41.4753V30.6557Z" fill="#F1485D"/>
<path d="M51.3936 30.6557H62.2132V41.4753H51.3936V30.6557Z" fill="#FFFCFE"/>
<path d="M62.2131 30.6557H72.1312V41.4753H62.2131V30.6557Z" fill="#FFFCFE"/>
<path d="M72.1311 30.6557H82.0491V41.4753H72.1311V30.6557Z" fill="#FFFCFE"/>
<path d="M82.0491 30.6557H92.8687V41.4753H82.0491V30.6557Z" fill="#FFFCFE"/>
<path d="M92.8689 30.6557H102.787V41.4753H92.8689V30.6557Z" fill="#FFFCFE"/>
<path d="M102.787 30.6557H113.607V41.4753H102.787V30.6557Z" fill="#FFFCFE"/>
<path d="M113.606 30.6557H123.524V41.4753H113.606V30.6557Z" fill="#F1485D"/>
<path d="M123.525 30.6557H134.344V41.4753H123.525V30.6557Z" fill="#F1485D"/>
<path d="M134.344 30.6557H144.262V41.4753H134.344V30.6557Z" fill="#F1485D"/>
<path d="M144.262 30.6557H155.082V41.4753H144.262V30.6557Z" fill="#F686B0"/>
<path d="M155.082 30.6557H165V41.4753H155.082V30.6557Z" fill="#19162E"/>
<path d="M0 41.4755H9.91803V51.3936H0V41.4755Z" fill="#19162E"/>
<path d="M9.91797 41.4755H20.7376V51.3936H9.91797V41.4755Z" fill="#F1485D"/>
<path d="M20.7378 41.4755H30.6558V51.3936H20.7378V41.4755Z" fill="#F1485D"/>
<path d="M30.6558 41.4755H41.4754V51.3936H30.6558V41.4755Z" fill="#F1485D"/>
<path d="M41.4753 41.4755H51.3934V51.3936H41.4753V41.4755Z" fill="#F1485D"/>
<path d="M51.3936 41.4755H62.2132V51.3936H51.3936V41.4755Z" fill="#FFFCFE"/>
<path d="M62.2131 41.4755H72.1312V51.3936H62.2131V41.4755Z" fill="#FFFCFE"/>
<path d="M72.1311 41.4755H82.0491V51.3936H72.1311V41.4755Z" fill="#F1485D"/>
<path d="M82.0491 41.4755H92.8687V51.3936H82.0491V41.4755Z" fill="#F1485D"/>
<path d="M92.8689 41.4755H102.787V51.3936H92.8689V41.4755Z" fill="#FFFCFE"/>
<path d="M102.787 41.4755H113.607V51.3936H102.787V41.4755Z" fill="#FFFCFE"/>
<path d="M113.606 41.4755H123.524V51.3936H113.606V41.4755Z" fill="#F1485D"/>
<path d="M123.525 41.4755H134.344V51.3936H123.525V41.4755Z" fill="#F1485D"/>
<path d="M134.344 41.4755H144.262V51.3936H134.344V41.4755Z" fill="#F1485D"/>
<path d="M144.262 41.4755H155.082V51.3936H144.262V41.4755Z" fill="#F686B0"/>
<path d="M155.082 41.4755H165V51.3936H155.082V41.4755Z" fill="#19162E"/>
<path d="M0 51.3935H9.91803V62.2131H0V51.3935Z" fill="#19162E"/>
<path d="M9.91797 51.3935H20.7376V62.2131H9.91797V51.3935Z" fill="#F1485D"/>
<path d="M20.7378 51.3935H30.6558V62.2131H20.7378V51.3935Z" fill="#F1485D"/>
<path d="M30.6558 51.3935H41.4754V62.2131H30.6558V51.3935Z" fill="#F1485D"/>
<path d="M41.4753 51.3935H51.3934V62.2131H41.4753V51.3935Z" fill="#F1485D"/>
<path d="M51.3936 51.3935H62.2132V62.2131H51.3936V51.3935Z" fill="#F1485D"/>
<path d="M62.2131 51.3935H72.1312V62.2131H62.2131V51.3935Z" fill="#F1485D"/>
<path d="M72.1311 51.3935H82.0491V62.2131H72.1311V51.3935Z" fill="#F1485D"/>
<path d="M82.0491 51.3935H92.8687V62.2131H82.0491V51.3935Z" fill="#FFFCFE"/>
<path d="M92.8689 51.3935H102.787V62.2131H92.8689V51.3935Z" fill="#FFFCFE"/>
<path d="M102.787 51.3935H113.607V62.2131H102.787V51.3935Z" fill="#FFFCFE"/>
<path d="M113.606 51.3935H123.524V62.2131H113.606V51.3935Z" fill="#F1485D"/>
<path d="M123.525 51.3935H134.344V62.2131H123.525V51.3935Z" fill="#F1485D"/>
<path d="M134.344 51.3935H144.262V62.2131H134.344V51.3935Z" fill="#F1485D"/>
<path d="M144.262 51.3935H155.082V62.2131H144.262V51.3935Z" fill="#F686B0"/>
<path d="M155.082 51.3935H165V62.2131H155.082V51.3935Z" fill="#19162E"/>
<path d="M0 62.2131H9.91803V72.1311H0V62.2131Z" fill="#19162E"/>
<path d="M9.91797 62.2131H20.7376V72.1311H9.91797V62.2131Z" fill="#F1485D"/>
<path d="M20.7378 62.2131H30.6558V72.1311H20.7378V62.2131Z" fill="#F1485D"/>
<path d="M30.6558 62.2131H41.4754V72.1311H30.6558V62.2131Z" fill="#F1485D"/>
<path d="M41.4753 62.2131H51.3934V72.1311H41.4753V62.2131Z" fill="#F1485D"/>
<path d="M51.3936 62.2131H62.2132V72.1311H51.3936V62.2131Z" fill="#F1485D"/>
<path d="M62.2131 62.2131H72.1312V72.1311H62.2131V62.2131Z" fill="#F1485D"/>
<path d="M72.1311 62.2131H82.0491V72.1311H72.1311V62.2131Z" fill="#FFFCFE"/>
<path d="M82.0491 62.2131H92.8687V72.1311H82.0491V62.2131Z" fill="#FFFCFE"/>
<path d="M92.8689 62.2131H102.787V72.1311H92.8689V62.2131Z" fill="#FFFCFE"/>
<path d="M102.787 62.2131H113.607V72.1311H102.787V62.2131Z" fill="#F1485D"/>
<path d="M113.606 62.2131H123.524V72.1311H113.606V62.2131Z" fill="#F1485D"/>
<path d="M123.525 62.2131H134.344V72.1311H123.525V62.2131Z" fill="#F1485D"/>
<path d="M134.344 62.2131H144.262V72.1311H134.344V62.2131Z" fill="#F1485D"/>
<path d="M144.262 62.2131H155.082V72.1311H144.262V62.2131Z" fill="#F686B0"/>
<path d="M155.082 62.2131H165V72.1311H155.082V62.2131Z" fill="#19162E"/>
<path d="M0 72.131H9.91803V82.0491H0V72.131Z" fill="#19162E"/>
<path d="M9.91797 72.131H20.7376V82.0491H9.91797V72.131Z" fill="#F1485D"/>
<path d="M20.7378 72.131H30.6558V82.0491H20.7378V72.131Z" fill="#F1485D"/>
<path d="M30.6558 72.131H41.4754V82.0491H30.6558V72.131Z" fill="#F1485D"/>
<path d="M41.4753 72.131H51.3934V82.0491H41.4753V72.131Z" fill="#F1485D"/>
<path d="M51.3936 72.131H62.2132V82.0491H51.3936V72.131Z" fill="#F1485D"/>
<path d="M62.2131 72.131H72.1312V82.0491H62.2131V72.131Z" fill="#F1485D"/>
<path d="M72.1311 72.131H82.0491V82.0491H72.1311V72.131Z" fill="#F1485D"/>
<path d="M82.0491 72.131H92.8687V82.0491H82.0491V72.131Z" fill="#F1485D"/>
<path d="M92.8689 72.131H102.787V82.0491H92.8689V72.131Z" fill="#F1485D"/>
<path d="M102.787 72.131H113.607V82.0491H102.787V72.131Z" fill="#F1485D"/>
<path d="M113.606 72.131H123.524V82.0491H113.606V72.131Z" fill="#F1485D"/>
<path d="M123.525 72.131H134.344V82.0491H123.525V72.131Z" fill="#F1485D"/>
<path d="M134.344 72.131H144.262V82.0491H134.344V72.131Z" fill="#F1485D"/>
<path d="M144.262 72.131H155.082V82.0491H144.262V72.131Z" fill="#F686B0"/>
<path d="M155.082 72.131H165V82.0491H155.082V72.131Z" fill="#19162E"/>
<path d="M0 82.0492H9.91803V92.8689H0V82.0492Z" fill="#19162E"/>
<path d="M9.91797 82.0492H20.7376V92.8689H9.91797V82.0492Z" fill="#F1485D"/>
<path d="M20.7378 82.0492H30.6558V92.8689H20.7378V82.0492Z" fill="#F1485D"/>
<path d="M30.6558 82.0492H41.4754V92.8689H30.6558V82.0492Z" fill="#F1485D"/>
<path d="M41.4753 82.0492H51.3934V92.8689H41.4753V82.0492Z" fill="#F1485D"/>
<path d="M51.3936 82.0492H62.2132V92.8689H51.3936V82.0492Z" fill="#F1485D"/>
<path d="M62.2131 82.0492H72.1312V92.8689H62.2131V82.0492Z" fill="#F1485D"/>
<path d="M72.1311 82.0492H82.0491V92.8689H72.1311V82.0492Z" fill="#FFFCFE"/>
<path d="M82.0491 82.0492H92.8687V92.8689H82.0491V82.0492Z" fill="#FFFCFE"/>
<path d="M92.8689 82.0492H102.787V92.8689H92.8689V82.0492Z" fill="#F1485D"/>
<path d="M102.787 82.0492H113.607V92.8689H102.787V82.0492Z" fill="#F1485D"/>
<path d="M113.606 82.0492H123.524V92.8689H113.606V82.0492Z" fill="#F1485D"/>
<path d="M123.525 82.0492H134.344V92.8689H123.525V82.0492Z" fill="#F1485D"/>
<path d="M134.344 82.0492H144.262V92.8689H134.344V82.0492Z" fill="#F1485D"/>
<path d="M144.262 82.0492H155.082V92.8689H144.262V82.0492Z" fill="#F686B0"/>
<path d="M155.082 82.0492H165V92.8689H155.082V82.0492Z" fill="#19162E"/>
<path d="M0 92.8688H9.91803V102.787H0V92.8688Z" fill="#19162E"/>
<path d="M9.91797 92.8688H20.7376V102.787H9.91797V92.8688Z" fill="#F1485D"/>
<path d="M20.7378 92.8688H30.6558V102.787H20.7378V92.8688Z" fill="#F1485D"/>
<path d="M30.6558 92.8688H41.4754V102.787H30.6558V92.8688Z" fill="#F1485D"/>
<path d="M41.4753 92.8688H51.3934V102.787H41.4753V92.8688Z" fill="#F1485D"/>
<path d="M51.3936 92.8688H62.2132V102.787H51.3936V92.8688Z" fill="#F1485D"/>
<path d="M62.2131 92.8688H72.1312V102.787H62.2131V92.8688Z" fill="#F1485D"/>
<path d="M72.1311 92.8688H82.0491V102.787H72.1311V92.8688Z" fill="#FFFCFE"/>
<path d="M82.0491 92.8688H92.8687V102.787H82.0491V92.8688Z" fill="#FFFCFE"/>
<path d="M92.8689 92.8688H102.787V102.787H92.8689V92.8688Z" fill="#F1485D"/>
<path d="M102.787 92.8688H113.607V102.787H102.787V92.8688Z" fill="#F1485D"/>
<path d="M113.606 92.8688H123.524V102.787H113.606V92.8688Z" fill="#F1485D"/>
<path d="M123.525 92.8688H134.344V102.787H123.525V92.8688Z" fill="#F1485D"/>
<path d="M134.344 92.8688H144.262V102.787H134.344V92.8688Z" fill="#F1485D"/>
<path d="M144.262 92.8688H155.082V102.787H144.262V92.8688Z" fill="#F686B0"/>
<path d="M155.082 92.8688H165V102.787H155.082V92.8688Z" fill="#19162E"/>
<path d="M0 102.787H9.91803V113.606H0V102.787Z" fill="#19162E"/>
<path d="M9.91797 102.787H20.7376V113.606H9.91797V102.787Z" fill="#F686B0"/>
<path d="M20.7378 102.787H30.6558V113.606H20.7378V102.787Z" fill="#F1485D"/>
<path d="M30.6558 102.787H41.4754V113.606H30.6558V102.787Z" fill="#F1485D"/>
<path d="M41.4753 102.787H51.3934V113.606H41.4753V102.787Z" fill="#F1485D"/>
<path d="M51.3936 102.787H62.2132V113.606H51.3936V102.787Z" fill="#F1485D"/>
<path d="M62.2131 102.787H72.1312V113.606H62.2131V102.787Z" fill="#F1485D"/>
<path d="M72.1311 102.787H82.0491V113.606H72.1311V102.787Z" fill="#F1485D"/>
<path d="M82.0491 102.787H92.8687V113.606H82.0491V102.787Z" fill="#F1485D"/>
<path d="M92.8689 102.787H102.787V113.606H92.8689V102.787Z" fill="#F1485D"/>
<path d="M102.787 102.787H113.607V113.606H102.787V102.787Z" fill="#F1485D"/>
<path d="M113.606 102.787H123.524V113.606H113.606V102.787Z" fill="#F1485D"/>
<path d="M123.525 102.787H134.344V113.606H123.525V102.787Z" fill="#F1485D"/>
<path d="M134.344 102.787H144.262V113.606H134.344V102.787Z" fill="#F686B0"/>
<path d="M144.262 102.787H155.082V113.606H144.262V102.787Z" fill="#F686B0"/>
<path d="M155.082 102.787H165V113.606H155.082V102.787Z" fill="#19162E"/>
<path d="M0 113.607H9.91803V123.525H0V113.607Z" fill="#19162E"/>
<path d="M9.91797 113.607H20.7376V123.525H9.91797V113.607Z" fill="#CA2C59"/>
<path d="M20.7378 113.607H30.6558V123.525H20.7378V113.607Z" fill="#F686B0"/>
<path d="M30.6558 113.607H41.4754V123.525H30.6558V113.607Z" fill="#F686B0"/>
<path d="M41.4753 113.607H51.3934V123.525H41.4753V113.607Z" fill="#F686B0"/>
<path d="M51.3936 113.607H62.2132V123.525H51.3936V113.607Z" fill="#F686B0"/>
<path d="M62.2131 113.607H72.1312V123.525H62.2131V113.607Z" fill="#F686B0"/>
<path d="M72.1311 113.607H82.0491V123.525H72.1311V113.607Z" fill="#F686B0"/>
<path d="M82.0491 113.607H92.8687V123.525H82.0491V113.607Z" fill="#F686B0"/>
<path d="M92.8689 113.607H102.787V123.525H92.8689V113.607Z" fill="#F686B0"/>
<path d="M102.787 113.607H113.607V123.525H102.787V113.607Z" fill="#F686B0"/>
<path d="M113.606 113.607H123.524V123.525H113.606V113.607Z" fill="#F686B0"/>
<path d="M123.525 113.607H134.344V123.525H123.525V113.607Z" fill="#F686B0"/>
<path d="M134.344 113.607H144.262V123.525H134.344V113.607Z" fill="#F686B0"/>
<path d="M144.262 113.607H155.082V123.525H144.262V113.607Z" fill="#CA2C59"/>
<path d="M155.082 113.607H165V123.525H155.082V113.607Z" fill="#19162E"/>
<path d="M0 123.525H9.91803V134.344H0V123.525Z" fill="#19162E"/>
<path d="M9.91797 123.525H20.7376V134.344H9.91797V123.525Z" fill="#CA2C59"/>
<path d="M20.7378 123.525H30.6558V134.344H20.7378V123.525Z" fill="#CA2C59"/>
<path d="M30.6558 123.525H41.4754V134.344H30.6558V123.525Z" fill="#CA2C59"/>
<path d="M41.4753 123.525H51.3934V134.344H41.4753V123.525Z" fill="#CA2C59"/>
<path d="M51.3936 123.525H62.2132V134.344H51.3936V123.525Z" fill="#CA2C59"/>
<path d="M62.2131 123.525H72.1312V134.344H62.2131V123.525Z" fill="#CA2C59"/>
<path d="M72.1311 123.525H82.0491V134.344H72.1311V123.525Z" fill="#CA2C59"/>
<path d="M82.0491 123.525H92.8687V134.344H82.0491V123.525Z" fill="#CA2C59"/>
<path d="M92.8689 123.525H102.787V134.344H92.8689V123.525Z" fill="#CA2C59"/>
<path d="M102.787 123.525H113.607V134.344H102.787V123.525Z" fill="#CA2C59"/>
<path d="M113.606 123.525H123.524V134.344H113.606V123.525Z" fill="#CA2C59"/>
<path d="M123.525 123.525H134.344V134.344H123.525V123.525Z" fill="#CA2C59"/>
<path d="M134.344 123.525H144.262V134.344H134.344V123.525Z" fill="#CA2C59"/>
<path d="M144.262 123.525H155.082V134.344H144.262V123.525Z" fill="#CA2C59"/>
<path d="M155.082 123.525H165V134.344H155.082V123.525Z" fill="#19162E"/>
<path d="M0 134.344H9.91803V144.262H0V134.344Z" fill="#19162E"/>
<path d="M9.91797 134.344H20.7376V144.262H9.91797V134.344Z" fill="#CA2C59"/>
<path d="M20.7378 134.344H30.6558V144.262H20.7378V134.344Z" fill="#CA2C59"/>
<path d="M30.6558 134.344H41.4754V144.262H30.6558V134.344Z" fill="#CA2C59"/>
<path d="M41.4753 134.344H51.3934V144.262H41.4753V134.344Z" fill="#CA2C59"/>
<path d="M51.3936 134.344H62.2132V144.262H51.3936V134.344Z" fill="#CA2C59"/>
<path d="M62.2131 134.344H72.1312V144.262H62.2131V134.344Z" fill="#CA2C59"/>
<path d="M72.1311 134.344H82.0491V144.262H72.1311V134.344Z" fill="#CA2C59"/>
<path d="M82.0491 134.344H92.8687V144.262H82.0491V134.344Z" fill="#CA2C59"/>
<path d="M92.8689 134.344H102.787V144.262H92.8689V134.344Z" fill="#CA2C59"/>
<path d="M102.787 134.344H113.607V144.262H102.787V134.344Z" fill="#CA2C59"/>
<path d="M113.606 134.344H123.524V144.262H113.606V134.344Z" fill="#CA2C59"/>
<path d="M123.525 134.344H134.344V144.262H123.525V134.344Z" fill="#CA2C59"/>
<path d="M134.344 134.344H144.262V144.262H134.344V134.344Z" fill="#CA2C59"/>
<path d="M144.262 134.344H155.082V144.262H144.262V134.344Z" fill="#CA2C59"/>
<path d="M155.082 134.344H165V144.262H155.082V134.344Z" fill="#19162E"/>
<path d="M9.91797 144.262H20.7376V155.082H9.91797V144.262Z" fill="#19162E"/>
<path d="M20.7378 144.262H30.6558V155.082H20.7378V144.262Z" fill="#CA2C59"/>
<path d="M30.6558 144.262H41.4754V155.082H30.6558V144.262Z" fill="#CA2C59"/>
<path d="M41.4753 144.262H51.3934V155.082H41.4753V144.262Z" fill="#CA2C59"/>
<path d="M51.3936 144.262H62.2132V155.082H51.3936V144.262Z" fill="#CA2C59"/>
<path d="M62.2131 144.262H72.1312V155.082H62.2131V144.262Z" fill="#CA2C59"/>
<path d="M72.1311 144.262H82.0491V155.082H72.1311V144.262Z" fill="#CA2C59"/>
<path d="M82.0491 144.262H92.8687V155.082H82.0491V144.262Z" fill="#CA2C59"/>
<path d="M92.8689 144.262H102.787V155.082H92.8689V144.262Z" fill="#CA2C59"/>
<path d="M102.787 144.262H113.607V155.082H102.787V144.262Z" fill="#CA2C59"/>
<path d="M113.606 144.262H123.524V155.082H113.606V144.262Z" fill="#CA2C59"/>
<path d="M123.525 144.262H134.344V155.082H123.525V144.262Z" fill="#CA2C59"/>
<path d="M134.344 144.262H144.262V155.082H134.344V144.262Z" fill="#CA2C59"/>
<path d="M144.262 144.262H155.082V155.082H144.262V144.262Z" fill="#19162E"/>
<path d="M20.7378 155.082H30.6558V165H20.7378V155.082Z" fill="#19162E"/>
<path d="M30.6558 155.082H41.4754V165H30.6558V155.082Z" fill="#19162E"/>
<path d="M41.4753 155.082H51.3934V165H41.4753V155.082Z" fill="#19162E"/>
<path d="M51.3936 155.082H62.2132V165H51.3936V155.082Z" fill="#19162E"/>
<path d="M62.2131 155.082H72.1312V165H62.2131V155.082Z" fill="#19162E"/>
<path d="M72.1311 155.082H82.0491V165H72.1311V155.082Z" fill="#19162E"/>
<path d="M82.0491 155.082H92.8687V165H82.0491V155.082Z" fill="#19162E"/>
<path d="M92.8689 155.082H102.787V165H92.8689V155.082Z" fill="#19162E"/>
<path d="M102.787 155.082H113.607V165H102.787V155.082Z" fill="#19162E"/>
<path d="M113.606 155.082H123.524V165H113.606V155.082Z" fill="#19162E"/>
<path d="M123.525 155.082H134.344V165H123.525V155.082Z" fill="#19162E"/>
<path d="M134.344 155.082H144.262V165H134.344V155.082Z" fill="#19162E"/>
</svg>
