<svg width="300" height="125" viewBox="0 0 300 125" fill="none" xmlns="http://www.w3.org/2000/svg">
<path d="M16.667 -4.09793e-05H25.0029V8.33105H16.667V-4.09793e-05Z" fill="#19162E"/>
<path d="M25.0028 -4.09793e-05H33.3339V8.33105H25.0028V-4.09793e-05Z" fill="#19162E"/>
<path d="M33.3337 -4.09793e-05H41.6696V8.33105H33.3337V-4.09793e-05Z" fill="#19162E"/>
<path d="M41.6699 -4.09793e-05H50.001V8.33105H41.6699V-4.09793e-05Z" fill="#19162E"/>
<path d="M50.0006 -4.09793e-05H58.3318V8.33105H50.0006V-4.09793e-05Z" fill="#19162E"/>
<path d="M58.3319 -4.09793e-05H66.6677V8.33105H58.3319V-4.09793e-05Z" fill="#19162E"/>
<path d="M66.6676 -4.09793e-05H74.9987V8.33105H66.6676V-4.09793e-05Z" fill="#19162E"/>
<path d="M74.9989 -4.09793e-05H83.3347V8.33105H74.9989V-4.09793e-05Z" fill="#19162E"/>
<path d="M83.3346 -4.09793e-05H91.6657V8.33105H83.3346V-4.09793e-05Z" fill="#19162E"/>
<path d="M91.6658 -4.09793e-05H100.002V8.33105H91.6658V-4.09793e-05Z" fill="#19162E"/>
<path d="M100.002 -4.09793e-05H108.333V8.33105H100.002V-4.09793e-05Z" fill="#19162E"/>
<path d="M108.333 -4.09793e-05H116.669V8.33105H108.333V-4.09793e-05Z" fill="#19162E"/>
<path d="M116.668 -4.09793e-05H125V8.33105H116.668V-4.09793e-05Z" fill="#19162E"/>
<path d="M125 -4.09793e-05H133.336V8.33105H125V-4.09793e-05Z" fill="#19162E"/>
<path d="M133.335 -4.09793e-05H141.667V8.33105H133.335V-4.09793e-05Z" fill="#19162E"/>
<path d="M141.667 -4.09793e-05H150.002V8.33105H141.667V-4.09793e-05Z" fill="#19162E"/>
<path d="M150.002 -4.09793e-05H158.334V8.33105H150.002V-4.09793e-05Z" fill="#19162E"/>
<path d="M158.333 -4.09793e-05H166.669V8.33105H158.333V-4.09793e-05Z" fill="#19162E"/>
<path d="M166.669 -4.09793e-05H175V8.33105H166.669V-4.09793e-05Z" fill="#19162E"/>
<path d="M175 -4.09793e-05H183.332V8.33105H175V-4.09793e-05Z" fill="#19162E"/>
<path d="M183.331 -4.09793e-05H191.667V8.33105H183.331V-4.09793e-05Z" fill="#19162E"/>
<path d="M191.667 -4.09793e-05H199.999V8.33105H191.667V-4.09793e-05Z" fill="#19162E"/>
<path d="M199.998 -4.09793e-05H208.334V8.33105H199.998V-4.09793e-05Z" fill="#19162E"/>
<path d="M208.334 -4.09793e-05H216.665V8.33105H208.334V-4.09793e-05Z" fill="#19162E"/>
<path d="M216.665 -4.09793e-05H225.001V8.33105H216.665V-4.09793e-05Z" fill="#19162E"/>
<path d="M225.001 -4.09793e-05H233.332V8.33105H225.001V-4.09793e-05Z" fill="#19162E"/>
<path d="M233.332 -4.09793e-05H241.668V8.33105H233.332V-4.09793e-05Z" fill="#19162E"/>
<path d="M241.668 -4.09793e-05H249.999V8.33105H241.668V-4.09793e-05Z" fill="#19162E"/>
<path d="M249.999 -4.09793e-05H258.335V8.33105H249.999V-4.09793e-05Z" fill="#19162E"/>
<path d="M258.335 -4.09793e-05H266.666V8.33105H258.335V-4.09793e-05Z" fill="#19162E"/>
<path d="M266.666 -4.09793e-05H275.002V8.33105H266.666V-4.09793e-05Z" fill="#19162E"/>
<path d="M275.002 -4.09793e-05H283.333V8.33105H275.002V-4.09793e-05Z" fill="#19162E"/>
<path d="M8.33582 8.33067H16.6669V16.6665H8.33582V8.33067Z" fill="#19162E"/>
<path d="M16.667 8.33067H25.0029V16.6665H16.667V8.33067Z" fill="#F1485D"/>
<path d="M25.0028 8.33067H33.3339V16.6665H25.0028V8.33067Z" fill="#F1485D"/>
<path d="M33.3337 8.33067H41.6696V16.6665H33.3337V8.33067Z" fill="#F1485D"/>
<path d="M41.6699 8.33067H50.001V16.6665H41.6699V8.33067Z" fill="#F1485D"/>
<path d="M50.0006 8.33067H58.3318V16.6665H50.0006V8.33067Z" fill="#F1485D"/>
<path d="M58.3319 8.33067H66.6677V16.6665H58.3319V8.33067Z" fill="#F1485D"/>
<path d="M66.6676 8.33067H74.9987V16.6665H66.6676V8.33067Z" fill="#F1485D"/>
<path d="M74.9989 8.33067H83.3347V16.6665H74.9989V8.33067Z" fill="#F1485D"/>
<path d="M83.3346 8.33067H91.6657V16.6665H83.3346V8.33067Z" fill="#F1485D"/>
<path d="M91.6658 8.33067H100.002V16.6665H91.6658V8.33067Z" fill="#F1485D"/>
<path d="M100.002 8.33067H108.333V16.6665H100.002V8.33067Z" fill="#F1485D"/>
<path d="M108.333 8.33067H116.669V16.6665H108.333V8.33067Z" fill="#F1485D"/>
<path d="M116.668 8.33067H125V16.6665H116.668V8.33067Z" fill="#F1485D"/>
<path d="M125 8.33067H133.336V16.6665H125V8.33067Z" fill="#F1485D"/>
<path d="M133.335 8.33067H141.667V16.6665H133.335V8.33067Z" fill="#F1485D"/>
<path d="M141.667 8.33067H150.002V16.6665H141.667V8.33067Z" fill="#F1485D"/>
<path d="M150.002 8.33067H158.334V16.6665H150.002V8.33067Z" fill="#F1485D"/>
<path d="M158.333 8.33067H166.669V16.6665H158.333V8.33067Z" fill="#F1485D"/>
<path d="M166.669 8.33067H175V16.6665H166.669V8.33067Z" fill="#F1485D"/>
<path d="M175 8.33067H183.332V16.6665H175V8.33067Z" fill="#F1485D"/>
<path d="M183.331 8.33067H191.667V16.6665H183.331V8.33067Z" fill="#F1485D"/>
<path d="M191.667 8.33067H199.999V16.6665H191.667V8.33067Z" fill="#F1485D"/>
<path d="M199.998 8.33067H208.334V16.6665H199.998V8.33067Z" fill="#F1485D"/>
<path d="M208.334 8.33067H216.665V16.6665H208.334V8.33067Z" fill="#F1485D"/>
<path d="M216.665 8.33067H225.001V16.6665H216.665V8.33067Z" fill="#F1485D"/>
<path d="M225.001 8.33067H233.332V16.6665H225.001V8.33067Z" fill="#F1485D"/>
<path d="M233.332 8.33067H241.668V16.6665H233.332V8.33067Z" fill="#F1485D"/>
<path d="M241.668 8.33067H249.999V16.6665H241.668V8.33067Z" fill="#F1485D"/>
<path d="M249.999 8.33067H258.335V16.6665H249.999V8.33067Z" fill="#F1485D"/>
<path d="M258.335 8.33067H266.666V16.6665H258.335V8.33067Z" fill="#F1485D"/>
<path d="M266.666 8.33067H275.002V16.6665H266.666V8.33067Z" fill="#F1485D"/>
<path d="M275.002 8.33067H283.333V16.6665H275.002V8.33067Z" fill="#F1485D"/>
<path d="M283.333 8.33067H291.669V16.6665H283.333V8.33067Z" fill="#19162E"/>
<path d="M0 16.6665H8.33588V24.9976H0V16.6665Z" fill="#19162E"/>
<path d="M8.33582 16.6665H16.6669V24.9976H8.33582V16.6665Z" fill="#F1485D"/>
<path d="M16.667 16.6665H25.0029V24.9976H16.667V16.6665Z" fill="#F1485D"/>
<path d="M25.0028 16.6665H33.3339V24.9976H25.0028V16.6665Z" fill="#F1485D"/>
<path d="M33.3337 16.6665H41.6696V24.9976H33.3337V16.6665Z" fill="#F1485D"/>
<path d="M41.6699 16.6665H50.001V24.9976H41.6699V16.6665Z" fill="#F1485D"/>
<path d="M50.0006 16.6665H58.3318V24.9976H50.0006V16.6665Z" fill="#F1485D"/>
<path d="M58.3319 16.6665H66.6677V24.9976H58.3319V16.6665Z" fill="#F1485D"/>
<path d="M66.6676 16.6665H74.9987V24.9976H66.6676V16.6665Z" fill="#F1485D"/>
<path d="M74.9989 16.6665H83.3347V24.9976H74.9989V16.6665Z" fill="#F1485D"/>
<path d="M83.3346 16.6665H91.6657V24.9976H83.3346V16.6665Z" fill="#F1485D"/>
<path d="M91.6658 16.6665H100.002V24.9976H91.6658V16.6665Z" fill="#F1485D"/>
<path d="M100.002 16.6665H108.333V24.9976H100.002V16.6665Z" fill="#F1485D"/>
<path d="M108.333 16.6665H116.669V24.9976H108.333V16.6665Z" fill="#F1485D"/>
<path d="M116.668 16.6665H125V24.9976H116.668V16.6665Z" fill="#F1485D"/>
<path d="M125 16.6665H133.336V24.9976H125V16.6665Z" fill="#F1485D"/>
<path d="M133.335 16.6665H141.667V24.9976H133.335V16.6665Z" fill="#F1485D"/>
<path d="M141.667 16.6665H150.002V24.9976H141.667V16.6665Z" fill="#F1485D"/>
<path d="M150.002 16.6665H158.334V24.9976H150.002V16.6665Z" fill="#F1485D"/>
<path d="M158.333 16.6665H166.669V24.9976H158.333V16.6665Z" fill="#F1485D"/>
<path d="M166.669 16.6665H175V24.9976H166.669V16.6665Z" fill="#F1485D"/>
<path d="M175 16.6665H183.332V24.9976H175V16.6665Z" fill="#F1485D"/>
<path d="M183.331 16.6665H191.667V24.9976H183.331V16.6665Z" fill="#F1485D"/>
<path d="M191.667 16.6665H199.999V24.9976H191.667V16.6665Z" fill="#F1485D"/>
<path d="M199.998 16.6665H208.334V24.9976H199.998V16.6665Z" fill="#F1485D"/>
<path d="M208.334 16.6665H216.665V24.9976H208.334V16.6665Z" fill="#F1485D"/>
<path d="M216.665 16.6665H225.001V24.9976H216.665V16.6665Z" fill="#F1485D"/>
<path d="M225.001 16.6665H233.332V24.9976H225.001V16.6665Z" fill="#F1485D"/>
<path d="M233.332 16.6665H241.668V24.9976H233.332V16.6665Z" fill="#F1485D"/>
<path d="M241.668 16.6665H249.999V24.9976H241.668V16.6665Z" fill="#F1485D"/>
<path d="M249.999 16.6665H258.335V24.9976H249.999V16.6665Z" fill="#F1485D"/>
<path d="M258.335 16.6665H266.666V24.9976H258.335V16.6665Z" fill="#F1485D"/>
<path d="M266.666 16.6665H275.002V24.9976H266.666V16.6665Z" fill="#F1485D"/>
<path d="M275.002 16.6665H283.333V24.9976H275.002V16.6665Z" fill="#F1485D"/>
<path d="M283.333 16.6665H291.669V24.9976H283.333V16.6665Z" fill="#F686B0"/>
<path d="M291.669 16.6665H300V24.9976H291.669V16.6665Z" fill="#19162E"/>
<path d="M0 24.9981H8.33588V33.3315H0V24.9981Z" fill="#19162E"/>
<path d="M8.33582 24.9981H16.6669V33.3315H8.33582V24.9981Z" fill="#F1485D"/>
<path d="M16.667 24.9981H25.0029V33.3315H16.667V24.9981Z" fill="#F1485D"/>
<path d="M25.0028 24.9981H33.3339V33.3315H25.0028V24.9981Z" fill="#F1485D"/>
<path d="M33.3337 24.9981H41.6696V33.3315H33.3337V24.9981Z" fill="#F1485D"/>
<path d="M41.6699 24.9981H50.001V33.3315H41.6699V24.9981Z" fill="#F1485D"/>
<path d="M50.0006 24.9981H58.3318V33.3315H50.0006V24.9981Z" fill="#F1485D"/>
<path d="M58.3319 24.9981H66.6677V33.3315H58.3319V24.9981Z" fill="#F1485D"/>
<path d="M66.6676 24.9981H74.9987V33.3315H66.6676V24.9981Z" fill="#F1485D"/>
<path d="M74.9989 24.9981H83.3347V33.3315H74.9989V24.9981Z" fill="#F1485D"/>
<path d="M83.3346 24.9981H91.6657V33.3315H83.3346V24.9981Z" fill="#FFFCFE"/>
<path d="M91.6658 24.9981H100.002V33.3315H91.6658V24.9981Z" fill="#FFFCFE"/>
<path d="M100.002 24.9981H108.333V33.3315H100.002V24.9981Z" fill="#FFFCFE"/>
<path d="M108.333 24.9981H116.669V33.3315H108.333V24.9981Z" fill="#F1485D"/>
<path d="M116.668 24.9981H125V33.3315H116.668V24.9981Z" fill="#FFFCFE"/>
<path d="M125 24.9981H133.336V33.3315H125V24.9981Z" fill="#F1485D"/>
<path d="M133.335 24.9981H141.667V33.3315H133.335V24.9981Z" fill="#F1485D"/>
<path d="M141.667 24.9981H150.002V33.3315H141.667V24.9981Z" fill="#F1485D"/>
<path d="M150.002 24.9981H158.334V33.3315H150.002V24.9981Z" fill="#FFFCFE"/>
<path d="M158.333 24.9981H166.669V33.3315H158.333V24.9981Z" fill="#FFFCFE"/>
<path d="M166.669 24.9981H175V33.3315H166.669V24.9981Z" fill="#FFFCFE"/>
<path d="M175 24.9981H183.332V33.3315H175V24.9981Z" fill="#F1485D"/>
<path d="M183.331 24.9981H191.667V33.3315H183.331V24.9981Z" fill="#FFFCFE"/>
<path d="M191.667 24.9981H199.999V33.3315H191.667V24.9981Z" fill="#F1485D"/>
<path d="M199.998 24.9981H208.334V33.3315H199.998V24.9981Z" fill="#FFFCFE"/>
<path d="M208.334 24.9981H216.665V33.3315H208.334V24.9981Z" fill="#F1485D"/>
<path d="M216.665 24.9981H225.001V33.3315H216.665V24.9981Z" fill="#F1485D"/>
<path d="M225.001 24.9981H233.332V33.3315H225.001V24.9981Z" fill="#F1485D"/>
<path d="M233.332 24.9981H241.668V33.3315H233.332V24.9981Z" fill="#F1485D"/>
<path d="M241.668 24.9981H249.999V33.3315H241.668V24.9981Z" fill="#F1485D"/>
<path d="M249.999 24.9981H258.335V33.3315H249.999V24.9981Z" fill="#F1485D"/>
<path d="M258.335 24.9981H266.666V33.3315H258.335V24.9981Z" fill="#F1485D"/>
<path d="M266.666 24.9981H275.002V33.3315H266.666V24.9981Z" fill="#F1485D"/>
<path d="M275.002 24.9981H283.333V33.3315H275.002V24.9981Z" fill="#F1485D"/>
<path d="M283.333 24.9981H291.669V33.3315H283.333V24.9981Z" fill="#F686B0"/>
<path d="M291.669 24.9981H300V33.3315H291.669V24.9981Z" fill="#19162E"/>
<path d="M0 33.3316H8.33588V41.665H0V33.3316Z" fill="#19162E"/>
<path d="M8.33582 33.3316H16.6669V41.665H8.33582V33.3316Z" fill="#F1485D"/>
<path d="M16.667 33.3316H25.0029V41.665H16.667V33.3316Z" fill="#F1485D"/>
<path d="M25.0028 33.3316H33.3339V41.665H25.0028V33.3316Z" fill="#F1485D"/>
<path d="M33.3337 33.3316H41.6696V41.665H33.3337V33.3316Z" fill="#F1485D"/>
<path d="M41.6699 33.3316H50.001V41.665H41.6699V33.3316Z" fill="#F1485D"/>
<path d="M50.0006 33.3316H58.3318V41.665H50.0006V33.3316Z" fill="#F1485D"/>
<path d="M58.3319 33.3316H66.6677V41.665H58.3319V33.3316Z" fill="#F1485D"/>
<path d="M66.6676 33.3316H74.9987V41.665H66.6676V33.3316Z" fill="#F1485D"/>
<path d="M74.9989 33.3316H83.3347V41.665H74.9989V33.3316Z" fill="#F1485D"/>
<path d="M83.3346 33.3316H91.6657V41.665H83.3346V33.3316Z" fill="#FFFCFE"/>
<path d="M91.6658 33.3316H100.002V41.665H91.6658V33.3316Z" fill="#F1485D"/>
<path d="M100.002 33.3316H108.333V41.665H100.002V33.3316Z" fill="#FFFCFE"/>
<path d="M108.333 33.3316H116.669V41.665H108.333V33.3316Z" fill="#F1485D"/>
<path d="M116.668 33.3316H125V41.665H116.668V33.3316Z" fill="#FFFCFE"/>
<path d="M125 33.3316H133.336V41.665H125V33.3316Z" fill="#F1485D"/>
<path d="M133.335 33.3316H141.667V41.665H133.335V33.3316Z" fill="#F1485D"/>
<path d="M141.667 33.3316H150.002V41.665H141.667V33.3316Z" fill="#F1485D"/>
<path d="M150.002 33.3316H158.334V41.665H150.002V33.3316Z" fill="#FFFCFE"/>
<path d="M158.333 33.3316H166.669V41.665H158.333V33.3316Z" fill="#F1485D"/>
<path d="M166.669 33.3316H175V41.665H166.669V33.3316Z" fill="#FFFCFE"/>
<path d="M175 33.3316H183.332V41.665H175V33.3316Z" fill="#F1485D"/>
<path d="M183.331 33.3316H191.667V41.665H183.331V33.3316Z" fill="#FFFCFE"/>
<path d="M191.667 33.3316H199.999V41.665H191.667V33.3316Z" fill="#F1485D"/>
<path d="M199.998 33.3316H208.334V41.665H199.998V33.3316Z" fill="#FFFCFE"/>
<path d="M208.334 33.3316H216.665V41.665H208.334V33.3316Z" fill="#F1485D"/>
<path d="M216.665 33.3316H225.001V41.665H216.665V33.3316Z" fill="#F1485D"/>
<path d="M225.001 33.3316H233.332V41.665H225.001V33.3316Z" fill="#F1485D"/>
<path d="M233.332 33.3316H241.668V41.665H233.332V33.3316Z" fill="#F1485D"/>
<path d="M241.668 33.3316H249.999V41.665H241.668V33.3316Z" fill="#F1485D"/>
<path d="M249.999 33.3316H258.335V41.665H249.999V33.3316Z" fill="#F1485D"/>
<path d="M258.335 33.3316H266.666V41.665H258.335V33.3316Z" fill="#F1485D"/>
<path d="M266.666 33.3316H275.002V41.665H266.666V33.3316Z" fill="#F1485D"/>
<path d="M275.002 33.3316H283.333V41.665H275.002V33.3316Z" fill="#F1485D"/>
<path d="M283.333 33.3316H291.669V41.665H283.333V33.3316Z" fill="#F686B0"/>
<path d="M291.669 33.3316H300V41.665H291.669V33.3316Z" fill="#19162E"/>
<path d="M0 41.6641H8.33588V49.9971H0V41.6641Z" fill="#19162E"/>
<path d="M8.33582 41.6641H16.6669V49.9971H8.33582V41.6641Z" fill="#F1485D"/>
<path d="M16.667 41.6641H25.0029V49.9971H16.667V41.6641Z" fill="#F1485D"/>
<path d="M25.0028 41.6641H33.3339V49.9971H25.0028V41.6641Z" fill="#F1485D"/>
<path d="M33.3337 41.6641H41.6696V49.9971H33.3337V41.6641Z" fill="#F1485D"/>
<path d="M41.6699 41.6641H50.001V49.9971H41.6699V41.6641Z" fill="#F1485D"/>
<path d="M50.0006 41.6641H58.3318V49.9971H50.0006V41.6641Z" fill="#F1485D"/>
<path d="M58.3319 41.6641H66.6677V49.9971H58.3319V41.6641Z" fill="#F1485D"/>
<path d="M66.6676 41.6641H74.9987V49.9971H66.6676V41.6641Z" fill="#F1485D"/>
<path d="M74.9989 41.6641H83.3347V49.9971H74.9989V41.6641Z" fill="#F1485D"/>
<path d="M83.3346 41.6641H91.6657V49.9971H83.3346V41.6641Z" fill="#FFFCFE"/>
<path d="M91.6658 41.6641H100.002V49.9971H91.6658V41.6641Z" fill="#FFFCFE"/>
<path d="M100.002 41.6641H108.333V49.9971H100.002V41.6641Z" fill="#FFFCFE"/>
<path d="M108.333 41.6641H116.669V49.9971H108.333V41.6641Z" fill="#F1485D"/>
<path d="M116.668 41.6641H125V49.9971H116.668V41.6641Z" fill="#FFFCFE"/>
<path d="M125 41.6641H133.336V49.9971H125V41.6641Z" fill="#F1485D"/>
<path d="M133.335 41.6641H141.667V49.9971H133.335V41.6641Z" fill="#F1485D"/>
<path d="M141.667 41.6641H150.002V49.9971H141.667V41.6641Z" fill="#F1485D"/>
<path d="M150.002 41.6641H158.334V49.9971H150.002V41.6641Z" fill="#FFFCFE"/>
<path d="M158.333 41.6641H166.669V49.9971H158.333V41.6641Z" fill="#FFFCFE"/>
<path d="M166.669 41.6641H175V49.9971H166.669V41.6641Z" fill="#FFFCFE"/>
<path d="M175 41.6641H183.332V49.9971H175V41.6641Z" fill="#F1485D"/>
<path d="M183.331 41.6641H191.667V49.9971H183.331V41.6641Z" fill="#FFFCFE"/>
<path d="M191.667 41.6641H199.999V49.9971H191.667V41.6641Z" fill="#FFFCFE"/>
<path d="M199.998 41.6641H208.334V49.9971H199.998V41.6641Z" fill="#FFFCFE"/>
<path d="M208.334 41.6641H216.665V49.9971H208.334V41.6641Z" fill="#F1485D"/>
<path d="M216.665 41.6641H225.001V49.9971H216.665V41.6641Z" fill="#F1485D"/>
<path d="M225.001 41.6641H233.332V49.9971H225.001V41.6641Z" fill="#F1485D"/>
<path d="M233.332 41.6641H241.668V49.9971H233.332V41.6641Z" fill="#F1485D"/>
<path d="M241.668 41.6641H249.999V49.9971H241.668V41.6641Z" fill="#F1485D"/>
<path d="M249.999 41.6641H258.335V49.9971H249.999V41.6641Z" fill="#F1485D"/>
<path d="M258.335 41.6641H266.666V49.9971H258.335V41.6641Z" fill="#F1485D"/>
<path d="M266.666 41.6641H275.002V49.9971H266.666V41.6641Z" fill="#F1485D"/>
<path d="M275.002 41.6641H283.333V49.9971H275.002V41.6641Z" fill="#F1485D"/>
<path d="M283.333 41.6641H291.669V49.9971H283.333V41.6641Z" fill="#F686B0"/>
<path d="M291.669 41.6641H300V49.9971H291.669V41.6641Z" fill="#19162E"/>
<path d="M0 49.9971H8.33588V58.3306H0V49.9971Z" fill="#19162E"/>
<path d="M8.33582 49.9971H16.6669V58.3306H8.33582V49.9971Z" fill="#F1485D"/>
<path d="M16.667 49.9971H25.0029V58.3306H16.667V49.9971Z" fill="#F1485D"/>
<path d="M25.0028 49.9971H33.3339V58.3306H25.0028V49.9971Z" fill="#F1485D"/>
<path d="M33.3337 49.9971H41.6696V58.3306H33.3337V49.9971Z" fill="#F1485D"/>
<path d="M41.6699 49.9971H50.001V58.3306H41.6699V49.9971Z" fill="#F1485D"/>
<path d="M50.0006 49.9971H58.3318V58.3306H50.0006V49.9971Z" fill="#F1485D"/>
<path d="M58.3319 49.9971H66.6677V58.3306H58.3319V49.9971Z" fill="#F1485D"/>
<path d="M66.6676 49.9971H74.9987V58.3306H66.6676V49.9971Z" fill="#F1485D"/>
<path d="M74.9989 49.9971H83.3347V58.3306H74.9989V49.9971Z" fill="#F1485D"/>
<path d="M83.3346 49.9971H91.6657V58.3306H83.3346V49.9971Z" fill="#FFFCFE"/>
<path d="M91.6658 49.9971H100.002V58.3306H91.6658V49.9971Z" fill="#F1485D"/>
<path d="M100.002 49.9971H108.333V58.3306H100.002V49.9971Z" fill="#F1485D"/>
<path d="M108.333 49.9971H116.669V58.3306H108.333V49.9971Z" fill="#F1485D"/>
<path d="M116.668 49.9971H125V58.3306H116.668V49.9971Z" fill="#FFFCFE"/>
<path d="M125 49.9971H133.336V58.3306H125V49.9971Z" fill="#F1485D"/>
<path d="M133.335 49.9971H141.667V58.3306H133.335V49.9971Z" fill="#F1485D"/>
<path d="M141.667 49.9971H150.002V58.3306H141.667V49.9971Z" fill="#F1485D"/>
<path d="M150.002 49.9971H158.334V58.3306H150.002V49.9971Z" fill="#FFFCFE"/>
<path d="M158.333 49.9971H166.669V58.3306H158.333V49.9971Z" fill="#F1485D"/>
<path d="M166.669 49.9971H175V58.3306H166.669V49.9971Z" fill="#FFFCFE"/>
<path d="M175 49.9971H183.332V58.3306H175V49.9971Z" fill="#F1485D"/>
<path d="M183.331 49.9971H191.667V58.3306H183.331V49.9971Z" fill="#F1485D"/>
<path d="M191.667 49.9971H199.999V58.3306H191.667V49.9971Z" fill="#FFFCFE"/>
<path d="M199.998 49.9971H208.334V58.3306H199.998V49.9971Z" fill="#F1485D"/>
<path d="M208.334 49.9971H216.665V58.3306H208.334V49.9971Z" fill="#F1485D"/>
<path d="M216.665 49.9971H225.001V58.3306H216.665V49.9971Z" fill="#F1485D"/>
<path d="M225.001 49.9971H233.332V58.3306H225.001V49.9971Z" fill="#F1485D"/>
<path d="M233.332 49.9971H241.668V58.3306H233.332V49.9971Z" fill="#F1485D"/>
<path d="M241.668 49.9971H249.999V58.3306H241.668V49.9971Z" fill="#F1485D"/>
<path d="M249.999 49.9971H258.335V58.3306H249.999V49.9971Z" fill="#F1485D"/>
<path d="M258.335 49.9971H266.666V58.3306H258.335V49.9971Z" fill="#F1485D"/>
<path d="M266.666 49.9971H275.002V58.3306H266.666V49.9971Z" fill="#F1485D"/>
<path d="M275.002 49.9971H283.333V58.3306H275.002V49.9971Z" fill="#F1485D"/>
<path d="M283.333 49.9971H291.669V58.3306H283.333V49.9971Z" fill="#F686B0"/>
<path d="M291.669 49.9971H300V58.3306H291.669V49.9971Z" fill="#19162E"/>
<path d="M0 58.3311H8.33588V66.6641H0V58.3311Z" fill="#19162E"/>
<path d="M8.33582 58.3311H16.6669V66.6641H8.33582V58.3311Z" fill="#F1485D"/>
<path d="M16.667 58.3311H25.0029V66.6641H16.667V58.3311Z" fill="#F1485D"/>
<path d="M25.0028 58.3311H33.3339V66.6641H25.0028V58.3311Z" fill="#F1485D"/>
<path d="M33.3337 58.3311H41.6696V66.6641H33.3337V58.3311Z" fill="#F1485D"/>
<path d="M41.6699 58.3311H50.001V66.6641H41.6699V58.3311Z" fill="#F1485D"/>
<path d="M50.0006 58.3311H58.3318V66.6641H50.0006V58.3311Z" fill="#F1485D"/>
<path d="M58.3319 58.3311H66.6677V66.6641H58.3319V58.3311Z" fill="#F1485D"/>
<path d="M66.6676 58.3311H74.9987V66.6641H66.6676V58.3311Z" fill="#F1485D"/>
<path d="M74.9989 58.3311H83.3347V66.6641H74.9989V58.3311Z" fill="#F1485D"/>
<path d="M83.3346 58.3311H91.6657V66.6641H83.3346V58.3311Z" fill="#FFFCFE"/>
<path d="M91.6658 58.3311H100.002V66.6641H91.6658V58.3311Z" fill="#F1485D"/>
<path d="M100.002 58.3311H108.333V66.6641H100.002V58.3311Z" fill="#F1485D"/>
<path d="M108.333 58.3311H116.669V66.6641H108.333V58.3311Z" fill="#F1485D"/>
<path d="M116.668 58.3311H125V66.6641H116.668V58.3311Z" fill="#FFFCFE"/>
<path d="M125 58.3311H133.336V66.6641H125V58.3311Z" fill="#FFFCFE"/>
<path d="M133.335 58.3311H141.667V66.6641H133.335V58.3311Z" fill="#FFFCFE"/>
<path d="M141.667 58.3311H150.002V66.6641H141.667V58.3311Z" fill="#F1485D"/>
<path d="M150.002 58.3311H158.334V66.6641H150.002V58.3311Z" fill="#FFFCFE"/>
<path d="M158.333 58.3311H166.669V66.6641H158.333V58.3311Z" fill="#F1485D"/>
<path d="M166.669 58.3311H175V66.6641H166.669V58.3311Z" fill="#FFFCFE"/>
<path d="M175 58.3311H183.332V66.6641H175V58.3311Z" fill="#F1485D"/>
<path d="M183.331 58.3311H191.667V66.6641H183.331V58.3311Z" fill="#F1485D"/>
<path d="M191.667 58.3311H199.999V66.6641H191.667V58.3311Z" fill="#FFFCFE"/>
<path d="M199.998 58.3311H208.334V66.6641H199.998V58.3311Z" fill="#F1485D"/>
<path d="M208.334 58.3311H216.665V66.6641H208.334V58.3311Z" fill="#F1485D"/>
<path d="M216.665 58.3311H225.001V66.6641H216.665V58.3311Z" fill="#F1485D"/>
<path d="M225.001 58.3311H233.332V66.6641H225.001V58.3311Z" fill="#F1485D"/>
<path d="M233.332 58.3311H241.668V66.6641H233.332V58.3311Z" fill="#F1485D"/>
<path d="M241.668 58.3311H249.999V66.6641H241.668V58.3311Z" fill="#F1485D"/>
<path d="M249.999 58.3311H258.335V66.6641H249.999V58.3311Z" fill="#F1485D"/>
<path d="M258.335 58.3311H266.666V66.6641H258.335V58.3311Z" fill="#F1485D"/>
<path d="M266.666 58.3311H275.002V66.6641H266.666V58.3311Z" fill="#F1485D"/>
<path d="M275.002 58.3311H283.333V66.6641H275.002V58.3311Z" fill="#F1485D"/>
<path d="M283.333 58.3311H291.669V66.6641H283.333V58.3311Z" fill="#F686B0"/>
<path d="M291.669 58.3311H300V66.6641H291.669V58.3311Z" fill="#19162E"/>
<path d="M0 66.6641H8.33588V74.9976H0V66.6641Z" fill="#19162E"/>
<path d="M8.33582 66.6641H16.6669V74.9976H8.33582V66.6641Z" fill="#F1485D"/>
<path d="M16.667 66.6641H25.0029V74.9976H16.667V66.6641Z" fill="#F1485D"/>
<path d="M25.0028 66.6641H33.3339V74.9976H25.0028V66.6641Z" fill="#F1485D"/>
<path d="M33.3337 66.6641H41.6696V74.9976H33.3337V66.6641Z" fill="#F1485D"/>
<path d="M41.6699 66.6641H50.001V74.9976H41.6699V66.6641Z" fill="#F1485D"/>
<path d="M50.0006 66.6641H58.3318V74.9976H50.0006V66.6641Z" fill="#F1485D"/>
<path d="M58.3319 66.6641H66.6677V74.9976H58.3319V66.6641Z" fill="#F1485D"/>
<path d="M66.6676 66.6641H74.9987V74.9976H66.6676V66.6641Z" fill="#F1485D"/>
<path d="M74.9989 66.6641H83.3347V74.9976H74.9989V66.6641Z" fill="#F1485D"/>
<path d="M83.3346 66.6641H91.6657V74.9976H83.3346V66.6641Z" fill="#F1485D"/>
<path d="M91.6658 66.6641H100.002V74.9976H91.6658V66.6641Z" fill="#F1485D"/>
<path d="M100.002 66.6641H108.333V74.9976H100.002V66.6641Z" fill="#F1485D"/>
<path d="M108.333 66.6641H116.669V74.9976H108.333V66.6641Z" fill="#F1485D"/>
<path d="M116.668 66.6641H125V74.9976H116.668V66.6641Z" fill="#F1485D"/>
<path d="M125 66.6641H133.336V74.9976H125V66.6641Z" fill="#F1485D"/>
<path d="M133.335 66.6641H141.667V74.9976H133.335V66.6641Z" fill="#F1485D"/>
<path d="M141.667 66.6641H150.002V74.9976H141.667V66.6641Z" fill="#F1485D"/>
<path d="M150.002 66.6641H158.334V74.9976H150.002V66.6641Z" fill="#F1485D"/>
<path d="M158.333 66.6641H166.669V74.9976H158.333V66.6641Z" fill="#F1485D"/>
<path d="M166.669 66.6641H175V74.9976H166.669V66.6641Z" fill="#F1485D"/>
<path d="M175 66.6641H183.332V74.9976H175V66.6641Z" fill="#F1485D"/>
<path d="M183.331 66.6641H191.667V74.9976H183.331V66.6641Z" fill="#F1485D"/>
<path d="M191.667 66.6641H199.999V74.9976H191.667V66.6641Z" fill="#F1485D"/>
<path d="M199.998 66.6641H208.334V74.9976H199.998V66.6641Z" fill="#F1485D"/>
<path d="M208.334 66.6641H216.665V74.9976H208.334V66.6641Z" fill="#F1485D"/>
<path d="M216.665 66.6641H225.001V74.9976H216.665V66.6641Z" fill="#F1485D"/>
<path d="M225.001 66.6641H233.332V74.9976H225.001V66.6641Z" fill="#F1485D"/>
<path d="M233.332 66.6641H241.668V74.9976H233.332V66.6641Z" fill="#F1485D"/>
<path d="M241.668 66.6641H249.999V74.9976H241.668V66.6641Z" fill="#F1485D"/>
<path d="M249.999 66.6641H258.335V74.9976H249.999V66.6641Z" fill="#F1485D"/>
<path d="M258.335 66.6641H266.666V74.9976H258.335V66.6641Z" fill="#F1485D"/>
<path d="M266.666 66.6641H275.002V74.9976H266.666V66.6641Z" fill="#F1485D"/>
<path d="M275.002 66.6641H283.333V74.9976H275.002V66.6641Z" fill="#F1485D"/>
<path d="M283.333 66.6641H291.669V74.9976H283.333V66.6641Z" fill="#F686B0"/>
<path d="M291.669 66.6641H300V74.9976H291.669V66.6641Z" fill="#19162E"/>
<path d="M0 74.9976H8.33588V83.3311H0V74.9976Z" fill="#19162E"/>
<path d="M8.33582 74.9976H16.6669V83.3311H8.33582V74.9976Z" fill="#F686B0"/>
<path d="M16.667 74.9976H25.0029V83.3311H16.667V74.9976Z" fill="#F1485D"/>
<path d="M25.0028 74.9976H33.3339V83.3311H25.0028V74.9976Z" fill="#F1485D"/>
<path d="M33.3337 74.9976H41.6696V83.3311H33.3337V74.9976Z" fill="#F1485D"/>
<path d="M41.6699 74.9976H50.001V83.3311H41.6699V74.9976Z" fill="#F1485D"/>
<path d="M50.0006 74.9976H58.3318V83.3311H50.0006V74.9976Z" fill="#F1485D"/>
<path d="M58.3319 74.9976H66.6677V83.3311H58.3319V74.9976Z" fill="#F1485D"/>
<path d="M66.6676 74.9976H74.9987V83.3311H66.6676V74.9976Z" fill="#F1485D"/>
<path d="M74.9989 74.9976H83.3347V83.3311H74.9989V74.9976Z" fill="#F1485D"/>
<path d="M83.3346 74.9976H91.6657V83.3311H83.3346V74.9976Z" fill="#F1485D"/>
<path d="M91.6658 74.9976H100.002V83.3311H91.6658V74.9976Z" fill="#F1485D"/>
<path d="M100.002 74.9976H108.333V83.3311H100.002V74.9976Z" fill="#F1485D"/>
<path d="M108.333 74.9976H116.669V83.3311H108.333V74.9976Z" fill="#F1485D"/>
<path d="M116.668 74.9976H125V83.3311H116.668V74.9976Z" fill="#F1485D"/>
<path d="M125 74.9976H133.336V83.3311H125V74.9976Z" fill="#F1485D"/>
<path d="M133.335 74.9976H141.667V83.3311H133.335V74.9976Z" fill="#F1485D"/>
<path d="M141.667 74.9976H150.002V83.3311H141.667V74.9976Z" fill="#F1485D"/>
<path d="M150.002 74.9976H158.334V83.3311H150.002V74.9976Z" fill="#F1485D"/>
<path d="M158.333 74.9976H166.669V83.3311H158.333V74.9976Z" fill="#F1485D"/>
<path d="M166.669 74.9976H175V83.3311H166.669V74.9976Z" fill="#F1485D"/>
<path d="M175 74.9976H183.332V83.3311H175V74.9976Z" fill="#F1485D"/>
<path d="M183.331 74.9976H191.667V83.3311H183.331V74.9976Z" fill="#F1485D"/>
<path d="M191.667 74.9976H199.999V83.3311H191.667V74.9976Z" fill="#F1485D"/>
<path d="M199.998 74.9976H208.334V83.3311H199.998V74.9976Z" fill="#F1485D"/>
<path d="M208.334 74.9976H216.665V83.3311H208.334V74.9976Z" fill="#F1485D"/>
<path d="M216.665 74.9976H225.001V83.3311H216.665V74.9976Z" fill="#F1485D"/>
<path d="M225.001 74.9976H233.332V83.3311H225.001V74.9976Z" fill="#F1485D"/>
<path d="M233.332 74.9976H241.668V83.3311H233.332V74.9976Z" fill="#F1485D"/>
<path d="M241.668 74.9976H249.999V83.3311H241.668V74.9976Z" fill="#F1485D"/>
<path d="M249.999 74.9976H258.335V83.3311H249.999V74.9976Z" fill="#F1485D"/>
<path d="M258.335 74.9976H266.666V83.3311H258.335V74.9976Z" fill="#F1485D"/>
<path d="M266.666 74.9976H275.002V83.3311H266.666V74.9976Z" fill="#F1485D"/>
<path d="M275.002 74.9976H283.333V83.3311H275.002V74.9976Z" fill="#F686B0"/>
<path d="M283.333 74.9976H291.669V83.3311H283.333V74.9976Z" fill="#F686B0"/>
<path d="M291.669 74.9976H300V83.3311H291.669V74.9976Z" fill="#19162E"/>
<path d="M0 83.3306H8.33588V91.6636H0V83.3306Z" fill="#19162E"/>
<path d="M8.33582 83.3306H16.6669V91.6636H8.33582V83.3306Z" fill="#CA2C59"/>
<path d="M16.667 83.3306H25.0029V91.6636H16.667V83.3306Z" fill="#F686B0"/>
<path d="M25.0028 83.3306H33.3339V91.6636H25.0028V83.3306Z" fill="#F686B0"/>
<path d="M33.3337 83.3306H41.6696V91.6636H33.3337V83.3306Z" fill="#F686B0"/>
<path d="M41.6699 83.3306H50.001V91.6636H41.6699V83.3306Z" fill="#F686B0"/>
<path d="M50.0006 83.3306H58.3318V91.6636H50.0006V83.3306Z" fill="#F686B0"/>
<path d="M58.3319 83.3306H66.6677V91.6636H58.3319V83.3306Z" fill="#F686B0"/>
<path d="M66.6676 83.3306H74.9987V91.6636H66.6676V83.3306Z" fill="#F686B0"/>
<path d="M74.9989 83.3306H83.3347V91.6636H74.9989V83.3306Z" fill="#F686B0"/>
<path d="M83.3346 83.3306H91.6657V91.6636H83.3346V83.3306Z" fill="#F686B0"/>
<path d="M91.6658 83.3306H100.002V91.6636H91.6658V83.3306Z" fill="#F686B0"/>
<path d="M100.002 83.3306H108.333V91.6636H100.002V83.3306Z" fill="#F686B0"/>
<path d="M108.333 83.3306H116.669V91.6636H108.333V83.3306Z" fill="#F686B0"/>
<path d="M116.668 83.3306H125V91.6636H116.668V83.3306Z" fill="#F686B0"/>
<path d="M125 83.3306H133.336V91.6636H125V83.3306Z" fill="#F686B0"/>
<path d="M133.335 83.3306H141.667V91.6636H133.335V83.3306Z" fill="#F686B0"/>
<path d="M141.667 83.3306H150.002V91.6636H141.667V83.3306Z" fill="#F686B0"/>
<path d="M150.002 83.3306H158.334V91.6636H150.002V83.3306Z" fill="#F686B0"/>
<path d="M158.333 83.3306H166.669V91.6636H158.333V83.3306Z" fill="#F686B0"/>
<path d="M166.669 83.3306H175V91.6636H166.669V83.3306Z" fill="#F686B0"/>
<path d="M175 83.3306H183.332V91.6636H175V83.3306Z" fill="#F686B0"/>
<path d="M183.331 83.3306H191.667V91.6636H183.331V83.3306Z" fill="#F686B0"/>
<path d="M191.667 83.3306H199.999V91.6636H191.667V83.3306Z" fill="#F686B0"/>
<path d="M199.998 83.3306H208.334V91.6636H199.998V83.3306Z" fill="#F686B0"/>
<path d="M208.334 83.3306H216.665V91.6636H208.334V83.3306Z" fill="#F686B0"/>
<path d="M216.665 83.3306H225.001V91.6636H216.665V83.3306Z" fill="#F686B0"/>
<path d="M225.001 83.3306H233.332V91.6636H225.001V83.3306Z" fill="#F686B0"/>
<path d="M233.332 83.3306H241.668V91.6636H233.332V83.3306Z" fill="#F686B0"/>
<path d="M241.668 83.3306H249.999V91.6636H241.668V83.3306Z" fill="#F686B0"/>
<path d="M249.999 83.3306H258.335V91.6636H249.999V83.3306Z" fill="#F686B0"/>
<path d="M258.335 83.3306H266.666V91.6636H258.335V83.3306Z" fill="#F686B0"/>
<path d="M266.666 83.3306H275.002V91.6636H266.666V83.3306Z" fill="#F686B0"/>
<path d="M275.002 83.3306H283.333V91.6636H275.002V83.3306Z" fill="#F686B0"/>
<path d="M283.333 83.3306H291.669V91.6636H283.333V83.3306Z" fill="#CA2C59"/>
<path d="M291.669 83.3306H300V91.6636H291.669V83.3306Z" fill="#19162E"/>
<path d="M0 91.664H8.33588V99.9966H0V91.664Z" fill="#19162E"/>
<path d="M8.33582 91.664H16.6669V99.9966H8.33582V91.664Z" fill="#CA2C59"/>
<path d="M16.667 91.664H25.0029V99.9966H16.667V91.664Z" fill="#CA2C59"/>
<path d="M25.0028 91.664H33.3339V99.9966H25.0028V91.664Z" fill="#CA2C59"/>
<path d="M33.3337 91.664H41.6696V99.9966H33.3337V91.664Z" fill="#CA2C59"/>
<path d="M41.6699 91.664H50.001V99.9966H41.6699V91.664Z" fill="#CA2C59"/>
<path d="M50.0006 91.664H58.3318V99.9966H50.0006V91.664Z" fill="#CA2C59"/>
<path d="M58.3319 91.664H66.6677V99.9966H58.3319V91.664Z" fill="#CA2C59"/>
<path d="M66.6676 91.664H74.9987V99.9966H66.6676V91.664Z" fill="#CA2C59"/>
<path d="M74.9989 91.664H83.3347V99.9966H74.9989V91.664Z" fill="#CA2C59"/>
<path d="M83.3346 91.664H91.6657V99.9966H83.3346V91.664Z" fill="#CA2C59"/>
<path d="M91.6658 91.664H100.002V99.9966H91.6658V91.664Z" fill="#CA2C59"/>
<path d="M100.002 91.664H108.333V99.9966H100.002V91.664Z" fill="#CA2C59"/>
<path d="M108.333 91.664H116.669V99.9966H108.333V91.664Z" fill="#CA2C59"/>
<path d="M116.668 91.664H125V99.9966H116.668V91.664Z" fill="#CA2C59"/>
<path d="M125 91.664H133.336V99.9966H125V91.664Z" fill="#CA2C59"/>
<path d="M133.335 91.664H141.667V99.9966H133.335V91.664Z" fill="#CA2C59"/>
<path d="M141.667 91.664H150.002V99.9966H141.667V91.664Z" fill="#CA2C59"/>
<path d="M150.002 91.664H158.334V99.9966H150.002V91.664Z" fill="#CA2C59"/>
<path d="M158.333 91.664H166.669V99.9966H158.333V91.664Z" fill="#CA2C59"/>
<path d="M166.669 91.664H175V99.9966H166.669V91.664Z" fill="#CA2C59"/>
<path d="M175 91.664H183.332V99.9966H175V91.664Z" fill="#CA2C59"/>
<path d="M183.331 91.664H191.667V99.9966H183.331V91.664Z" fill="#CA2C59"/>
<path d="M191.667 91.664H199.999V99.9966H191.667V91.664Z" fill="#CA2C59"/>
<path d="M199.998 91.664H208.334V99.9966H199.998V91.664Z" fill="#CA2C59"/>
<path d="M208.334 91.664H216.665V99.9966H208.334V91.664Z" fill="#CA2C59"/>
<path d="M216.665 91.664H225.001V99.9966H216.665V91.664Z" fill="#CA2C59"/>
<path d="M225.001 91.664H233.332V99.9966H225.001V91.664Z" fill="#CA2C59"/>
<path d="M233.332 91.664H241.668V99.9966H233.332V91.664Z" fill="#CA2C59"/>
<path d="M241.668 91.664H249.999V99.9966H241.668V91.664Z" fill="#CA2C59"/>
<path d="M249.999 91.664H258.335V99.9966H249.999V91.664Z" fill="#CA2C59"/>
<path d="M258.335 91.664H266.666V99.9966H258.335V91.664Z" fill="#CA2C59"/>
<path d="M266.666 91.664H275.002V99.9966H266.666V91.664Z" fill="#CA2C59"/>
<path d="M275.002 91.664H283.333V99.9966H275.002V91.664Z" fill="#CA2C59"/>
<path d="M283.333 91.664H291.669V99.9966H283.333V91.664Z" fill="#CA2C59"/>
<path d="M291.669 91.664H300V99.9966H291.669V91.664Z" fill="#19162E"/>
<path d="M0 99.9962H8.33588V108.332H0V99.9962Z" fill="#19162E"/>
<path d="M8.33582 99.9962H16.6669V108.332H8.33582V99.9962Z" fill="#CA2C59"/>
<path d="M16.667 99.9962H25.0029V108.332H16.667V99.9962Z" fill="#CA2C59"/>
<path d="M25.0028 99.9962H33.3339V108.332H25.0028V99.9962Z" fill="#CA2C59"/>
<path d="M33.3337 99.9962H41.6696V108.332H33.3337V99.9962Z" fill="#CA2C59"/>
<path d="M41.6699 99.9962H50.001V108.332H41.6699V99.9962Z" fill="#CA2C59"/>
<path d="M50.0006 99.9962H58.3318V108.332H50.0006V99.9962Z" fill="#CA2C59"/>
<path d="M58.3319 99.9962H66.6677V108.332H58.3319V99.9962Z" fill="#CA2C59"/>
<path d="M66.6676 99.9962H74.9987V108.332H66.6676V99.9962Z" fill="#CA2C59"/>
<path d="M74.9989 99.9962H83.3347V108.332H74.9989V99.9962Z" fill="#CA2C59"/>
<path d="M83.3346 99.9962H91.6657V108.332H83.3346V99.9962Z" fill="#CA2C59"/>
<path d="M91.6658 99.9962H100.002V108.332H91.6658V99.9962Z" fill="#CA2C59"/>
<path d="M100.002 99.9962H108.333V108.332H100.002V99.9962Z" fill="#CA2C59"/>
<path d="M108.333 99.9962H116.669V108.332H108.333V99.9962Z" fill="#CA2C59"/>
<path d="M116.668 99.9962H125V108.332H116.668V99.9962Z" fill="#CA2C59"/>
<path d="M125 99.9962H133.336V108.332H125V99.9962Z" fill="#CA2C59"/>
<path d="M133.335 99.9962H141.667V108.332H133.335V99.9962Z" fill="#CA2C59"/>
<path d="M141.667 99.9962H150.002V108.332H141.667V99.9962Z" fill="#CA2C59"/>
<path d="M150.002 99.9962H158.334V108.332H150.002V99.9962Z" fill="#CA2C59"/>
<path d="M158.333 99.9962H166.669V108.332H158.333V99.9962Z" fill="#CA2C59"/>
<path d="M166.669 99.9962H175V108.332H166.669V99.9962Z" fill="#CA2C59"/>
<path d="M175 99.9962H183.332V108.332H175V99.9962Z" fill="#CA2C59"/>
<path d="M183.331 99.9962H191.667V108.332H183.331V99.9962Z" fill="#CA2C59"/>
<path d="M191.667 99.9962H199.999V108.332H191.667V99.9962Z" fill="#CA2C59"/>
<path d="M199.998 99.9962H208.334V108.332H199.998V99.9962Z" fill="#CA2C59"/>
<path d="M208.334 99.9962H216.665V108.332H208.334V99.9962Z" fill="#CA2C59"/>
<path d="M216.665 99.9962H225.001V108.332H216.665V99.9962Z" fill="#CA2C59"/>
<path d="M225.001 99.9962H233.332V108.332H225.001V99.9962Z" fill="#CA2C59"/>
<path d="M233.332 99.9962H241.668V108.332H233.332V99.9962Z" fill="#CA2C59"/>
<path d="M241.668 99.9962H249.999V108.332H241.668V99.9962Z" fill="#CA2C59"/>
<path d="M249.999 99.9962H258.335V108.332H249.999V99.9962Z" fill="#CA2C59"/>
<path d="M258.335 99.9962H266.666V108.332H258.335V99.9962Z" fill="#CA2C59"/>
<path d="M266.666 99.9962H275.002V108.332H266.666V99.9962Z" fill="#CA2C59"/>
<path d="M275.002 99.9962H283.333V108.332H275.002V99.9962Z" fill="#CA2C59"/>
<path d="M283.333 99.9962H291.669V108.332H283.333V99.9962Z" fill="#CA2C59"/>
<path d="M291.669 99.9962H300V108.332H291.669V99.9962Z" fill="#19162E"/>
<path d="M8.33582 108.333H16.6669V116.664H8.33582V108.333Z" fill="#19162E"/>
<path d="M16.667 108.333H25.0029V116.664H16.667V108.333Z" fill="#CA2C59"/>
<path d="M25.0028 108.333H33.3339V116.664H25.0028V108.333Z" fill="#CA2C59"/>
<path d="M33.3337 108.333H41.6696V116.664H33.3337V108.333Z" fill="#CA2C59"/>
<path d="M41.6699 108.333H50.001V116.664H41.6699V108.333Z" fill="#CA2C59"/>
<path d="M50.0006 108.333H58.3318V116.664H50.0006V108.333Z" fill="#CA2C59"/>
<path d="M58.3319 108.333H66.6677V116.664H58.3319V108.333Z" fill="#CA2C59"/>
<path d="M66.6676 108.333H74.9987V116.664H66.6676V108.333Z" fill="#CA2C59"/>
<path d="M74.9989 108.333H83.3347V116.664H74.9989V108.333Z" fill="#CA2C59"/>
<path d="M83.3346 108.333H91.6657V116.664H83.3346V108.333Z" fill="#CA2C59"/>
<path d="M91.6658 108.333H100.002V116.664H91.6658V108.333Z" fill="#CA2C59"/>
<path d="M100.002 108.333H108.333V116.664H100.002V108.333Z" fill="#CA2C59"/>
<path d="M108.333 108.333H116.669V116.664H108.333V108.333Z" fill="#CA2C59"/>
<path d="M116.668 108.333H125V116.664H116.668V108.333Z" fill="#CA2C59"/>
<path d="M125 108.333H133.336V116.664H125V108.333Z" fill="#CA2C59"/>
<path d="M133.335 108.333H141.667V116.664H133.335V108.333Z" fill="#CA2C59"/>
<path d="M141.667 108.333H150.002V116.664H141.667V108.333Z" fill="#CA2C59"/>
<path d="M150.002 108.333H158.334V116.664H150.002V108.333Z" fill="#CA2C59"/>
<path d="M158.333 108.333H166.669V116.664H158.333V108.333Z" fill="#CA2C59"/>
<path d="M166.669 108.333H175V116.664H166.669V108.333Z" fill="#CA2C59"/>
<path d="M175 108.333H183.332V116.664H175V108.333Z" fill="#CA2C59"/>
<path d="M183.331 108.333H191.667V116.664H183.331V108.333Z" fill="#CA2C59"/>
<path d="M191.667 108.333H199.999V116.664H191.667V108.333Z" fill="#CA2C59"/>
<path d="M199.998 108.333H208.334V116.664H199.998V108.333Z" fill="#CA2C59"/>
<path d="M208.334 108.333H216.665V116.664H208.334V108.333Z" fill="#CA2C59"/>
<path d="M216.665 108.333H225.001V116.664H216.665V108.333Z" fill="#CA2C59"/>
<path d="M225.001 108.333H233.332V116.664H225.001V108.333Z" fill="#CA2C59"/>
<path d="M233.332 108.333H241.668V116.664H233.332V108.333Z" fill="#CA2C59"/>
<path d="M241.668 108.333H249.999V116.664H241.668V108.333Z" fill="#CA2C59"/>
<path d="M249.999 108.333H258.335V116.664H249.999V108.333Z" fill="#CA2C59"/>
<path d="M258.335 108.333H266.666V116.664H258.335V108.333Z" fill="#CA2C59"/>
<path d="M266.666 108.333H275.002V116.664H266.666V108.333Z" fill="#CA2C59"/>
<path d="M275.002 108.333H283.333V116.664H275.002V108.333Z" fill="#CA2C59"/>
<path d="M283.333 108.333H291.669V116.664H283.333V108.333Z" fill="#19162E"/>
<path d="M16.667 116.664H25.0029V125H16.667V116.664Z" fill="#19162E"/>
<path d="M25.0028 116.664H33.3339V125H25.0028V116.664Z" fill="#19162E"/>
<path d="M33.3337 116.664H41.6696V125H33.3337V116.664Z" fill="#19162E"/>
<path d="M41.6699 116.664H50.001V125H41.6699V116.664Z" fill="#19162E"/>
<path d="M50.0006 116.664H58.3318V125H50.0006V116.664Z" fill="#19162E"/>
<path d="M58.3319 116.664H66.6677V125H58.3319V116.664Z" fill="#19162E"/>
<path d="M66.6676 116.664H74.9987V125H66.6676V116.664Z" fill="#19162E"/>
<path d="M74.9989 116.664H83.3347V125H74.9989V116.664Z" fill="#19162E"/>
<path d="M83.3346 116.664H91.6657V125H83.3346V116.664Z" fill="#19162E"/>
<path d="M91.6658 116.664H100.002V125H91.6658V116.664Z" fill="#19162E"/>
<path d="M100.002 116.664H108.333V125H100.002V116.664Z" fill="#19162E"/>
<path d="M108.333 116.664H116.669V125H108.333V116.664Z" fill="#19162E"/>
<path d="M116.668 116.664H125V125H116.668V116.664Z" fill="#19162E"/>
<path d="M125 116.664H133.336V125H125V116.664Z" fill="#19162E"/>
<path d="M133.335 116.664H141.667V125H133.335V116.664Z" fill="#19162E"/>
<path d="M141.667 116.664H150.002V125H141.667V116.664Z" fill="#19162E"/>
<path d="M150.002 116.664H158.334V125H150.002V116.664Z" fill="#19162E"/>
<path d="M158.333 116.664H166.669V125H158.333V116.664Z" fill="#19162E"/>
<path d="M166.669 116.664H175V125H166.669V116.664Z" fill="#19162E"/>
<path d="M175 116.664H183.332V125H175V116.664Z" fill="#19162E"/>
<path d="M183.331 116.664H191.667V125H183.331V116.664Z" fill="#19162E"/>
<path d="M191.667 116.664H199.999V125H191.667V116.664Z" fill="#19162E"/>
<path d="M199.998 116.664H208.334V125H199.998V116.664Z" fill="#19162E"/>
<path d="M208.334 116.664H216.665V125H208.334V116.664Z" fill="#19162E"/>
<path d="M216.665 116.664H225.001V125H216.665V116.664Z" fill="#19162E"/>
<path d="M225.001 116.664H233.332V125H225.001V116.664Z" fill="#19162E"/>
<path d="M233.332 116.664H241.668V125H233.332V116.664Z" fill="#19162E"/>
<path d="M241.668 116.664H249.999V125H241.668V116.664Z" fill="#19162E"/>
<path d="M249.999 116.664H258.335V125H249.999V116.664Z" fill="#19162E"/>
<path d="M258.335 116.664H266.666V125H258.335V116.664Z" fill="#19162E"/>
<path d="M266.666 116.664H275.002V125H266.666V116.664Z" fill="#19162E"/>
<path d="M275.002 116.664H283.333V125H275.002V116.664Z" fill="#19162E"/>
</svg>
