<svg width="18" height="18" viewBox="0 0 18 18" fill="none" xmlns="http://www.w3.org/2000/svg">
<path d="M15.7493 -7.55456e-05H14.6246V1.12524H15.7493V-7.55456e-05Z" fill="#19162E"/>
<path d="M14.6245 -7.55456e-05H13.4992V1.12524H14.6245V-7.55456e-05Z" fill="#19162E"/>
<path d="M13.4993 -7.55456e-05H12.3746V1.12524H13.4993V-7.55456e-05Z" fill="#19162E"/>
<path d="M12.3748 -7.55456e-05H11.2501V1.12524H12.3748V-7.55456e-05Z" fill="#19162E"/>
<path d="M11.25 -7.55456e-05H10.1247V1.12524H11.25V-7.55456e-05Z" fill="#19162E"/>
<path d="M10.1248 -7.55456e-05H9.00008V1.12524H10.1248V-7.55456e-05Z" fill="#19162E"/>
<path d="M9 -7.55456e-05H7.87468V1.12524H9V-7.55456e-05Z" fill="#19162E"/>
<path d="M7.87451 -7.55456e-05H6.74983V1.12524H7.87451V-7.55456e-05Z" fill="#19162E"/>
<path d="M6.75 -7.55456e-05H5.62468V1.12524H6.75V-7.55456e-05Z" fill="#19162E"/>
<path d="M5.62451 -7.55456e-05H4.49983V1.12524H5.62451V-7.55456e-05Z" fill="#19162E"/>
<path d="M4.5 -7.55456e-05H3.37468V1.12524H4.5V-7.55456e-05Z" fill="#19162E"/>
<path d="M3.37476 -7.55456e-05H2.25008V1.12524H3.37476V-7.55456e-05Z" fill="#19162E"/>
<path d="M16.8745 1.12532H15.7493V2.25H16.8745V1.12532Z" fill="#19162E"/>
<path d="M15.7493 1.12532H14.6246V2.25H15.7493V1.12532Z" fill="#F1485D"/>
<path d="M14.6245 1.12532H13.4992V2.25H14.6245V1.12532Z" fill="#F1485D"/>
<path d="M13.4993 1.12532H12.3746V2.25H13.4993V1.12532Z" fill="#F1485D"/>
<path d="M12.3748 1.12532H11.2501V2.25H12.3748V1.12532Z" fill="#F1485D"/>
<path d="M11.25 1.12532H10.1247V2.25H11.25V1.12532Z" fill="#F1485D"/>
<path d="M10.1248 1.12532H9.00008V2.25H10.1248V1.12532Z" fill="#F1485D"/>
<path d="M9 1.12532H7.87468V2.25H9V1.12532Z" fill="#F1485D"/>
<path d="M7.87451 1.12532H6.74983V2.25H7.87451V1.12532Z" fill="#F1485D"/>
<path d="M6.75 1.12532H5.62468V2.25H6.75V1.12532Z" fill="#F1485D"/>
<path d="M5.62451 1.12532H4.49983V2.25H5.62451V1.12532Z" fill="#F1485D"/>
<path d="M4.5 1.12532H3.37468V2.25H4.5V1.12532Z" fill="#F1485D"/>
<path d="M3.37476 1.12532H2.25008V2.25H3.37476V1.12532Z" fill="#F1485D"/>
<path d="M2.25 1.12532H1.12468V2.25H2.25V1.12532Z" fill="#19162E"/>
<path d="M17.9995 2.24992H16.8746V3.37524H17.9995V2.24992Z" fill="#19162E"/>
<path d="M16.8745 2.24992H15.7493V3.37524H16.8745V2.24992Z" fill="#F1485D"/>
<path d="M15.7493 2.24992H14.6246V3.37524H15.7493V2.24992Z" fill="#F1485D"/>
<path d="M14.6245 2.24992H13.4992V3.37524H14.6245V2.24992Z" fill="#F1485D"/>
<path d="M13.4993 2.24992H12.3746V3.37524H13.4993V2.24992Z" fill="#F1485D"/>
<path d="M12.3748 2.24992H11.2501V3.37524H12.3748V2.24992Z" fill="#F1485D"/>
<path d="M11.25 2.24992H10.1247V3.37524H11.25V2.24992Z" fill="#F1485D"/>
<path d="M10.1248 2.24992H9.00008V3.37524H10.1248V2.24992Z" fill="#F1485D"/>
<path d="M9 2.24992H7.87468V3.37524H9V2.24992Z" fill="#F1485D"/>
<path d="M7.87451 2.24992H6.74983V3.37524H7.87451V2.24992Z" fill="#F1485D"/>
<path d="M6.75 2.24992H5.62468V3.37524H6.75V2.24992Z" fill="#F1485D"/>
<path d="M5.62451 2.24992H4.49983V3.37524H5.62451V2.24992Z" fill="#F1485D"/>
<path d="M4.5 2.24992H3.37468V3.37524H4.5V2.24992Z" fill="#F1485D"/>
<path d="M3.37476 2.24992H2.25008V3.37524H3.37476V2.24992Z" fill="#F1485D"/>
<path d="M2.25 2.24992H1.12468V3.37524H2.25V2.24992Z" fill="#F686B0"/>
<path d="M1.12476 2.24992H7.56057e-05V3.37524H1.12476V2.24992Z" fill="#19162E"/>
<path d="M17.9995 3.37532H16.8746V4.5H17.9995V3.37532Z" fill="#19162E"/>
<path d="M16.8745 3.37532H15.7493V4.5H16.8745V3.37532Z" fill="#F1485D"/>
<path d="M15.7493 3.37532H14.6246V4.5H15.7493V3.37532Z" fill="#F1485D"/>
<path d="M14.6245 3.37532H13.4992V4.5H14.6245V3.37532Z" fill="#F1485D"/>
<path d="M13.4993 3.37532H12.3746V4.5H13.4993V3.37532Z" fill="#FFFCFE"/>
<path d="M12.3748 3.37532H11.2501V4.5H12.3748V3.37532Z" fill="#F1485D"/>
<path d="M11.25 3.37532H10.1247V4.5H11.25V3.37532Z" fill="#F1485D"/>
<path d="M10.1248 3.37532H9.00008V4.5H10.1248V3.37532Z" fill="#F1485D"/>
<path d="M9 3.37532H7.87468V4.5H9V3.37532Z" fill="#FFFCFE"/>
<path d="M7.87451 3.37532H6.74983V4.5H7.87451V3.37532Z" fill="#FFFCFE"/>
<path d="M6.75 3.37532H5.62468V4.5H6.75V3.37532Z" fill="#F1485D"/>
<path d="M5.62451 3.37532H4.49983V4.5H5.62451V3.37532Z" fill="#F1485D"/>
<path d="M4.5 3.37532H3.37468V4.5H4.5V3.37532Z" fill="#F1485D"/>
<path d="M3.37476 3.37532H2.25008V4.5H3.37476V3.37532Z" fill="#F1485D"/>
<path d="M2.25 3.37532H1.12468V4.5H2.25V3.37532Z" fill="#F686B0"/>
<path d="M1.12476 3.37532H7.56057e-05V4.5H1.12476V3.37532Z" fill="#19162E"/>
<path d="M17.9995 4.5H16.8746V5.625H17.9995V4.5Z" fill="#19162E"/>
<path d="M16.8745 4.5H15.7493V5.625H16.8745V4.5Z" fill="#F1485D"/>
<path d="M15.7493 4.5H14.6246V5.625H15.7493V4.5Z" fill="#F1485D"/>
<path d="M14.6245 4.5H13.4992V5.625H14.6245V4.5Z" fill="#FFFCFE"/>
<path d="M13.4993 4.5H12.3746V5.625H13.4993V4.5Z" fill="#F1485D"/>
<path d="M12.3748 4.5H11.2501V5.625H12.3748V4.5Z" fill="#F1485D"/>
<path d="M11.25 4.5H10.1247V5.625H11.25V4.5Z" fill="#FFFCFE"/>
<path d="M10.1248 4.5H9.00008V5.625H10.1248V4.5Z" fill="#F1485D"/>
<path d="M9 4.5H7.87468V5.625H9V4.5Z" fill="#FFFCFE"/>
<path d="M7.87451 4.5H6.74983V5.625H7.87451V4.5Z" fill="#FFFCFE"/>
<path d="M6.75 4.5H5.62468V5.625H6.75V4.5Z" fill="#FFFCFE"/>
<path d="M5.62451 4.5H4.49983V5.625H5.62451V4.5Z" fill="#F1485D"/>
<path d="M4.5 4.5H3.37468V5.625H4.5V4.5Z" fill="#F1485D"/>
<path d="M3.37476 4.5H2.25008V5.625H3.37476V4.5Z" fill="#F1485D"/>
<path d="M2.25 4.5H1.12468V5.625H2.25V4.5Z" fill="#F686B0"/>
<path d="M1.12476 4.5H7.56057e-05V5.625H1.12476V4.5Z" fill="#19162E"/>
<path d="M17.9995 5.625H16.8746V6.75H17.9995V5.625Z" fill="#19162E"/>
<path d="M16.8745 5.625H15.7493V6.75H16.8745V5.625Z" fill="#F1485D"/>
<path d="M15.7493 5.625H14.6246V6.75H15.7493V5.625Z" fill="#F1485D"/>
<path d="M14.6245 5.625H13.4992V6.75H14.6245V5.625Z" fill="#FFFCFE"/>
<path d="M13.4993 5.625H12.3746V6.75H13.4993V5.625Z" fill="#F1485D"/>
<path d="M12.3748 5.625H11.2501V6.75H12.3748V5.625Z" fill="#FFFCFE"/>
<path d="M11.25 5.625H10.1247V6.75H11.25V5.625Z" fill="#F1485D"/>
<path d="M10.1248 5.625H9.00008V6.75H10.1248V5.625Z" fill="#F1485D"/>
<path d="M9 5.625H7.87468V6.75H9V5.625Z" fill="#FFFCFE"/>
<path d="M7.87451 5.625H6.74983V6.75H7.87451V5.625Z" fill="#FFFCFE"/>
<path d="M6.75 5.625H5.62468V6.75H6.75V5.625Z" fill="#FFFCFE"/>
<path d="M5.62451 5.625H4.49983V6.75H5.62451V5.625Z" fill="#FFFCFE"/>
<path d="M4.5 5.625H3.37468V6.75H4.5V5.625Z" fill="#FFFCFE"/>
<path d="M3.37476 5.625H2.25008V6.75H3.37476V5.625Z" fill="#F1485D"/>
<path d="M2.25 5.625H1.12468V6.75H2.25V5.625Z" fill="#F686B0"/>
<path d="M1.12476 5.625H7.56057e-05V6.75H1.12476V5.625Z" fill="#19162E"/>
<path d="M17.9995 6.75006H16.8746V7.875H17.9995V6.75006Z" fill="#19162E"/>
<path d="M16.8745 6.75006H15.7493V7.875H16.8745V6.75006Z" fill="#F1485D"/>
<path d="M15.7493 6.75006H14.6246V7.875H15.7493V6.75006Z" fill="#F1485D"/>
<path d="M14.6245 6.75006H13.4992V7.875H14.6245V6.75006Z" fill="#FFFCFE"/>
<path d="M13.4993 6.75006H12.3746V7.875H13.4993V6.75006Z" fill="#F1485D"/>
<path d="M12.3748 6.75006H11.2501V7.875H12.3748V6.75006Z" fill="#FFFCFE"/>
<path d="M11.25 6.75006H10.1247V7.875H11.25V6.75006Z" fill="#F1485D"/>
<path d="M10.1248 6.75006H9.00008V7.875H10.1248V6.75006Z" fill="#F1485D"/>
<path d="M9 6.75006H7.87468V7.875H9V6.75006Z" fill="#FFFCFE"/>
<path d="M7.87451 6.75006H6.74983V7.875H7.87451V6.75006Z" fill="#FFFCFE"/>
<path d="M6.75 6.75006H5.62468V7.875H6.75V6.75006Z" fill="#FFFCFE"/>
<path d="M5.62451 6.75006H4.49983V7.875H5.62451V6.75006Z" fill="#FFFCFE"/>
<path d="M4.5 6.75006H3.37468V7.875H4.5V6.75006Z" fill="#FFFCFE"/>
<path d="M3.37476 6.75006H2.25008V7.875H3.37476V6.75006Z" fill="#F1485D"/>
<path d="M2.25 6.75006H1.12468V7.875H2.25V6.75006Z" fill="#F686B0"/>
<path d="M1.12476 6.75006H7.56057e-05V7.875H1.12476V6.75006Z" fill="#19162E"/>
<path d="M17.9995 7.875H16.8746V9H17.9995V7.875Z" fill="#19162E"/>
<path d="M16.8745 7.875H15.7493V9H16.8745V7.875Z" fill="#F1485D"/>
<path d="M15.7493 7.875H14.6246V9H15.7493V7.875Z" fill="#F1485D"/>
<path d="M14.6245 7.875H13.4992V9H14.6245V7.875Z" fill="#FFFCFE"/>
<path d="M13.4993 7.875H12.3746V9H13.4993V7.875Z" fill="#F1485D"/>
<path d="M12.3748 7.875H11.2501V9H12.3748V7.875Z" fill="#F1485D"/>
<path d="M11.25 7.875H10.1247V9H11.25V7.875Z" fill="#FFFCFE"/>
<path d="M10.1248 7.875H9.00008V9H10.1248V7.875Z" fill="#F1485D"/>
<path d="M9 7.875H7.87468V9H9V7.875Z" fill="#FFFCFE"/>
<path d="M7.87451 7.875H6.74983V9H7.87451V7.875Z" fill="#FFFCFE"/>
<path d="M6.75 7.875H5.62468V9H6.75V7.875Z" fill="#FFFCFE"/>
<path d="M5.62451 7.875H4.49983V9H5.62451V7.875Z" fill="#F1485D"/>
<path d="M4.5 7.875H3.37468V9H4.5V7.875Z" fill="#F1485D"/>
<path d="M3.37476 7.875H2.25008V9H3.37476V7.875Z" fill="#F1485D"/>
<path d="M2.25 7.875H1.12468V9H2.25V7.875Z" fill="#F686B0"/>
<path d="M1.12476 7.875H7.56057e-05V9H1.12476V7.875Z" fill="#19162E"/>
<path d="M17.9995 8.99982H16.8746V10.1248H17.9995V8.99982Z" fill="#19162E"/>
<path d="M16.8745 8.99982H15.7493V10.1248H16.8745V8.99982Z" fill="#F1485D"/>
<path d="M15.7493 8.99982H14.6246V10.1248H15.7493V8.99982Z" fill="#F1485D"/>
<path d="M14.6245 8.99982H13.4992V10.1248H14.6245V8.99982Z" fill="#F1485D"/>
<path d="M13.4993 8.99982H12.3746V10.1248H13.4993V8.99982Z" fill="#FFFCFE"/>
<path d="M12.3748 8.99982H11.2501V10.1248H12.3748V8.99982Z" fill="#F1485D"/>
<path d="M11.25 8.99982H10.1247V10.1248H11.25V8.99982Z" fill="#F1485D"/>
<path d="M10.1248 8.99982H9.00008V10.1248H10.1248V8.99982Z" fill="#F1485D"/>
<path d="M9 8.99982H7.87468V10.1248H9V8.99982Z" fill="#FFFCFE"/>
<path d="M7.87451 8.99982H6.74983V10.1248H7.87451V8.99982Z" fill="#FFFCFE"/>
<path d="M6.75 8.99982H5.62468V10.1248H6.75V8.99982Z" fill="#F1485D"/>
<path d="M5.62451 8.99982H4.49983V10.1248H5.62451V8.99982Z" fill="#F1485D"/>
<path d="M4.5 8.99982H3.37468V10.1248H4.5V8.99982Z" fill="#F1485D"/>
<path d="M3.37476 8.99982H2.25008V10.1248H3.37476V8.99982Z" fill="#F1485D"/>
<path d="M2.25 8.99982H1.12468V10.1248H2.25V8.99982Z" fill="#F686B0"/>
<path d="M1.12476 8.99982H7.56057e-05V10.1248H1.12476V8.99982Z" fill="#19162E"/>
<path d="M17.9995 10.1248H16.8746V11.2498H17.9995V10.1248Z" fill="#19162E"/>
<path d="M16.8745 10.1248H15.7493V11.2498H16.8745V10.1248Z" fill="#F1485D"/>
<path d="M15.7493 10.1248H14.6246V11.2498H15.7493V10.1248Z" fill="#F1485D"/>
<path d="M14.6245 10.1248H13.4992V11.2498H14.6245V10.1248Z" fill="#F1485D"/>
<path d="M13.4993 10.1248H12.3746V11.2498H13.4993V10.1248Z" fill="#F1485D"/>
<path d="M12.3748 10.1248H11.2501V11.2498H12.3748V10.1248Z" fill="#F1485D"/>
<path d="M11.25 10.1248H10.1247V11.2498H11.25V10.1248Z" fill="#F1485D"/>
<path d="M10.1248 10.1248H9.00008V11.2498H10.1248V10.1248Z" fill="#F1485D"/>
<path d="M9 10.1248H7.87468V11.2498H9V10.1248Z" fill="#F1485D"/>
<path d="M7.87451 10.1248H6.74983V11.2498H7.87451V10.1248Z" fill="#F1485D"/>
<path d="M6.75 10.1248H5.62468V11.2498H6.75V10.1248Z" fill="#F1485D"/>
<path d="M5.62451 10.1248H4.49983V11.2498H5.62451V10.1248Z" fill="#F1485D"/>
<path d="M4.5 10.1248H3.37468V11.2498H4.5V10.1248Z" fill="#F1485D"/>
<path d="M3.37476 10.1248H2.25008V11.2498H3.37476V10.1248Z" fill="#F1485D"/>
<path d="M2.25 10.1248H1.12468V11.2498H2.25V10.1248Z" fill="#F686B0"/>
<path d="M1.12476 10.1248H7.56057e-05V11.2498H1.12476V10.1248Z" fill="#19162E"/>
<path d="M17.9995 11.25H16.8746V12.375H17.9995V11.25Z" fill="#19162E"/>
<path d="M16.8745 11.25H15.7493V12.375H16.8745V11.25Z" fill="#F686B0"/>
<path d="M15.7493 11.25H14.6246V12.375H15.7493V11.25Z" fill="#F1485D"/>
<path d="M14.6245 11.25H13.4992V12.375H14.6245V11.25Z" fill="#F1485D"/>
<path d="M13.4993 11.25H12.3746V12.375H13.4993V11.25Z" fill="#F1485D"/>
<path d="M12.3748 11.25H11.2501V12.375H12.3748V11.25Z" fill="#F1485D"/>
<path d="M11.25 11.25H10.1247V12.375H11.25V11.25Z" fill="#F1485D"/>
<path d="M10.1248 11.25H9.00008V12.375H10.1248V11.25Z" fill="#F1485D"/>
<path d="M9 11.25H7.87468V12.375H9V11.25Z" fill="#F1485D"/>
<path d="M7.87451 11.25H6.74983V12.375H7.87451V11.25Z" fill="#F1485D"/>
<path d="M6.75 11.25H5.62468V12.375H6.75V11.25Z" fill="#F1485D"/>
<path d="M5.62451 11.25H4.49983V12.375H5.62451V11.25Z" fill="#F1485D"/>
<path d="M4.5 11.25H3.37468V12.375H4.5V11.25Z" fill="#F1485D"/>
<path d="M3.37476 11.25H2.25008V12.375H3.37476V11.25Z" fill="#F686B0"/>
<path d="M2.25 11.25H1.12468V12.375H2.25V11.25Z" fill="#F686B0"/>
<path d="M1.12476 11.25H7.56057e-05V12.375H1.12476V11.25Z" fill="#19162E"/>
<path d="M17.9995 12.3748H16.8746V13.4998H17.9995V12.3748Z" fill="#19162E"/>
<path d="M16.8745 12.3748H15.7493V13.4998H16.8745V12.3748Z" fill="#CA2C59"/>
<path d="M15.7493 12.3748H14.6246V13.4998H15.7493V12.3748Z" fill="#F686B0"/>
<path d="M14.6245 12.3748H13.4992V13.4998H14.6245V12.3748Z" fill="#F686B0"/>
<path d="M13.4993 12.3748H12.3746V13.4998H13.4993V12.3748Z" fill="#F686B0"/>
<path d="M12.3748 12.3748H11.2501V13.4998H12.3748V12.3748Z" fill="#F686B0"/>
<path d="M11.25 12.3748H10.1247V13.4998H11.25V12.3748Z" fill="#F686B0"/>
<path d="M10.1248 12.3748H9.00008V13.4998H10.1248V12.3748Z" fill="#F686B0"/>
<path d="M9 12.3748H7.87468V13.4998H9V12.3748Z" fill="#F686B0"/>
<path d="M7.87451 12.3748H6.74983V13.4998H7.87451V12.3748Z" fill="#F686B0"/>
<path d="M6.75 12.3748H5.62468V13.4998H6.75V12.3748Z" fill="#F686B0"/>
<path d="M5.62451 12.3748H4.49983V13.4998H5.62451V12.3748Z" fill="#F686B0"/>
<path d="M4.5 12.3748H3.37468V13.4998H4.5V12.3748Z" fill="#F686B0"/>
<path d="M3.37476 12.3748H2.25008V13.4998H3.37476V12.3748Z" fill="#F686B0"/>
<path d="M2.25 12.3748H1.12468V13.4998H2.25V12.3748Z" fill="#CA2C59"/>
<path d="M1.12476 12.3748H7.56057e-05V13.4998H1.12476V12.3748Z" fill="#19162E"/>
<path d="M17.9995 13.4996H16.8746V14.6245H17.9995V13.4996Z" fill="#19162E"/>
<path d="M16.8745 13.4996H15.7493V14.6245H16.8745V13.4996Z" fill="#CA2C59"/>
<path d="M15.7493 13.4996H14.6246V14.6245H15.7493V13.4996Z" fill="#CA2C59"/>
<path d="M14.6245 13.4996H13.4992V14.6245H14.6245V13.4996Z" fill="#CA2C59"/>
<path d="M13.4993 13.4996H12.3746V14.6245H13.4993V13.4996Z" fill="#CA2C59"/>
<path d="M12.3748 13.4996H11.2501V14.6245H12.3748V13.4996Z" fill="#CA2C59"/>
<path d="M11.25 13.4996H10.1247V14.6245H11.25V13.4996Z" fill="#CA2C59"/>
<path d="M10.1248 13.4996H9.00008V14.6245H10.1248V13.4996Z" fill="#CA2C59"/>
<path d="M9 13.4996H7.87468V14.6245H9V13.4996Z" fill="#CA2C59"/>
<path d="M7.87451 13.4996H6.74983V14.6245H7.87451V13.4996Z" fill="#CA2C59"/>
<path d="M6.75 13.4996H5.62468V14.6245H6.75V13.4996Z" fill="#CA2C59"/>
<path d="M5.62451 13.4996H4.49983V14.6245H5.62451V13.4996Z" fill="#CA2C59"/>
<path d="M4.5 13.4996H3.37468V14.6245H4.5V13.4996Z" fill="#CA2C59"/>
<path d="M3.37476 13.4996H2.25008V14.6245H3.37476V13.4996Z" fill="#CA2C59"/>
<path d="M2.25 13.4996H1.12468V14.6245H2.25V13.4996Z" fill="#CA2C59"/>
<path d="M1.12476 13.4996H7.56057e-05V14.6245H1.12476V13.4996Z" fill="#19162E"/>
<path d="M17.9995 14.6247H16.8746V15.75H17.9995V14.6247Z" fill="#19162E"/>
<path d="M16.8745 14.6247H15.7493V15.75H16.8745V14.6247Z" fill="#CA2C59"/>
<path d="M15.7493 14.6247H14.6246V15.75H15.7493V14.6247Z" fill="#CA2C59"/>
<path d="M14.6245 14.6247H13.4992V15.75H14.6245V14.6247Z" fill="#CA2C59"/>
<path d="M13.4993 14.6247H12.3746V15.75H13.4993V14.6247Z" fill="#CA2C59"/>
<path d="M12.3748 14.6247H11.2501V15.75H12.3748V14.6247Z" fill="#CA2C59"/>
<path d="M11.25 14.6247H10.1247V15.75H11.25V14.6247Z" fill="#CA2C59"/>
<path d="M10.1248 14.6247H9.00008V15.75H10.1248V14.6247Z" fill="#CA2C59"/>
<path d="M9 14.6247H7.87468V15.75H9V14.6247Z" fill="#CA2C59"/>
<path d="M7.87451 14.6247H6.74983V15.75H7.87451V14.6247Z" fill="#CA2C59"/>
<path d="M6.75 14.6247H5.62468V15.75H6.75V14.6247Z" fill="#CA2C59"/>
<path d="M5.62451 14.6247H4.49983V15.75H5.62451V14.6247Z" fill="#CA2C59"/>
<path d="M4.5 14.6247H3.37468V15.75H4.5V14.6247Z" fill="#CA2C59"/>
<path d="M3.37476 14.6247H2.25008V15.75H3.37476V14.6247Z" fill="#CA2C59"/>
<path d="M2.25 14.6247H1.12468V15.75H2.25V14.6247Z" fill="#CA2C59"/>
<path d="M1.12476 14.6247H7.56057e-05V15.75H1.12476V14.6247Z" fill="#19162E"/>
<path d="M16.8745 15.7501H15.7493V16.8748H16.8745V15.7501Z" fill="#19162E"/>
<path d="M15.7493 15.7501H14.6246V16.8748H15.7493V15.7501Z" fill="#CA2C59"/>
<path d="M14.6245 15.7501H13.4992V16.8748H14.6245V15.7501Z" fill="#CA2C59"/>
<path d="M13.4993 15.7501H12.3746V16.8748H13.4993V15.7501Z" fill="#CA2C59"/>
<path d="M12.3748 15.7501H11.2501V16.8748H12.3748V15.7501Z" fill="#CA2C59"/>
<path d="M11.25 15.7501H10.1247V16.8748H11.25V15.7501Z" fill="#CA2C59"/>
<path d="M10.1248 15.7501H9.00008V16.8748H10.1248V15.7501Z" fill="#CA2C59"/>
<path d="M9 15.7501H7.87468V16.8748H9V15.7501Z" fill="#CA2C59"/>
<path d="M7.87451 15.7501H6.74983V16.8748H7.87451V15.7501Z" fill="#CA2C59"/>
<path d="M6.75 15.7501H5.62468V16.8748H6.75V15.7501Z" fill="#CA2C59"/>
<path d="M5.62451 15.7501H4.49983V16.8748H5.62451V15.7501Z" fill="#CA2C59"/>
<path d="M4.5 15.7501H3.37468V16.8748H4.5V15.7501Z" fill="#CA2C59"/>
<path d="M3.37476 15.7501H2.25008V16.8748H3.37476V15.7501Z" fill="#CA2C59"/>
<path d="M2.25 15.7501H1.12468V16.8748H2.25V15.7501Z" fill="#19162E"/>
<path d="M15.7493 16.8747H14.6246V18H15.7493V16.8747Z" fill="#19162E"/>
<path d="M14.6245 16.8747H13.4992V18H14.6245V16.8747Z" fill="#19162E"/>
<path d="M13.4993 16.8747H12.3746V18H13.4993V16.8747Z" fill="#19162E"/>
<path d="M12.3748 16.8747H11.2501V18H12.3748V16.8747Z" fill="#19162E"/>
<path d="M11.25 16.8747H10.1247V18H11.25V16.8747Z" fill="#19162E"/>
<path d="M10.1248 16.8747H9.00008V18H10.1248V16.8747Z" fill="#19162E"/>
<path d="M9 16.8747H7.87468V18H9V16.8747Z" fill="#19162E"/>
<path d="M7.87451 16.8747H6.74983V18H7.87451V16.8747Z" fill="#19162E"/>
<path d="M6.75 16.8747H5.62468V18H6.75V16.8747Z" fill="#19162E"/>
<path d="M5.62451 16.8747H4.49983V18H5.62451V16.8747Z" fill="#19162E"/>
<path d="M4.5 16.8747H3.37468V18H4.5V16.8747Z" fill="#19162E"/>
<path d="M3.37476 16.8747H2.25008V18H3.37476V16.8747Z" fill="#19162E"/>
</svg>
