<svg width="18" height="18" viewBox="0 0 18 18" fill="none" xmlns="http://www.w3.org/2000/svg">
<path d="M15.7495 -7.55456e-05H14.6248V1.12524H15.7495V-7.55456e-05Z" fill="#19162E"/>
<path d="M14.6248 -7.55456e-05H13.4994V1.12524H14.6248V-7.55456e-05Z" fill="#19162E"/>
<path d="M13.4995 -7.55456e-05H12.3748V1.12524H13.4995V-7.55456e-05Z" fill="#19162E"/>
<path d="M12.3748 -7.55456e-05H11.2494V1.12524H12.3748V-7.55456e-05Z" fill="#19162E"/>
<path d="M11.2495 -7.55456e-05H10.1248V1.12524H11.2495V-7.55456e-05Z" fill="#19162E"/>
<path d="M10.125 -7.55456e-05H8.99968V1.12524H10.125V-7.55456e-05Z" fill="#19162E"/>
<path d="M8.99951 -7.55456e-05H7.87483V1.12524H8.99951V-7.55456e-05Z" fill="#19162E"/>
<path d="M7.87476 -7.55456e-05H6.74944V1.12524H7.87476V-7.55456e-05Z" fill="#19162E"/>
<path d="M6.74951 -7.55456e-05H5.62483V1.12524H6.74951V-7.55456e-05Z" fill="#19162E"/>
<path d="M5.62476 -7.55456e-05H4.49944V1.12524H5.62476V-7.55456e-05Z" fill="#19162E"/>
<path d="M4.49951 -7.55456e-05H3.37483V1.12524H4.49951V-7.55456e-05Z" fill="#19162E"/>
<path d="M3.375 -7.55456e-05H2.25032V1.12524H3.375V-7.55456e-05Z" fill="#19162E"/>
<path d="M16.8748 1.12532H15.7494V2.25H16.8748V1.12532Z" fill="#19162E"/>
<path d="M15.7495 1.12532H14.6248V2.25H15.7495V1.12532Z" fill="#F1485D"/>
<path d="M14.6248 1.12532H13.4994V2.25H14.6248V1.12532Z" fill="#F1485D"/>
<path d="M13.4995 1.12532H12.3748V2.25H13.4995V1.12532Z" fill="#F1485D"/>
<path d="M12.3748 1.12532H11.2494V2.25H12.3748V1.12532Z" fill="#F1485D"/>
<path d="M11.2495 1.12532H10.1248V2.25H11.2495V1.12532Z" fill="#F1485D"/>
<path d="M10.125 1.12532H8.99968V2.25H10.125V1.12532Z" fill="#F1485D"/>
<path d="M8.99951 1.12532H7.87483V2.25H8.99951V1.12532Z" fill="#F1485D"/>
<path d="M7.87476 1.12532H6.74944V2.25H7.87476V1.12532Z" fill="#F1485D"/>
<path d="M6.74951 1.12532H5.62483V2.25H6.74951V1.12532Z" fill="#F1485D"/>
<path d="M5.62476 1.12532H4.49944V2.25H5.62476V1.12532Z" fill="#F1485D"/>
<path d="M4.49951 1.12532H3.37483V2.25H4.49951V1.12532Z" fill="#F1485D"/>
<path d="M3.375 1.12532H2.25032V2.25H3.375V1.12532Z" fill="#F1485D"/>
<path d="M2.25 1.12532H1.12468V2.25H2.25V1.12532Z" fill="#19162E"/>
<path d="M17.9995 2.25017H16.8748V3.37549H17.9995V2.25017Z" fill="#19162E"/>
<path d="M16.8748 2.25017H15.7494V3.37549H16.8748V2.25017Z" fill="#F1485D"/>
<path d="M15.7495 2.25017H14.6248V3.37549H15.7495V2.25017Z" fill="#F1485D"/>
<path d="M14.6248 2.25017H13.4994V3.37549H14.6248V2.25017Z" fill="#F1485D"/>
<path d="M13.4995 2.25017H12.3748V3.37549H13.4995V2.25017Z" fill="#F1485D"/>
<path d="M12.3748 2.25017H11.2494V3.37549H12.3748V2.25017Z" fill="#F1485D"/>
<path d="M11.2495 2.25017H10.1248V3.37549H11.2495V2.25017Z" fill="#F1485D"/>
<path d="M10.125 2.25017H8.99968V3.37549H10.125V2.25017Z" fill="#F1485D"/>
<path d="M8.99951 2.25017H7.87483V3.37549H8.99951V2.25017Z" fill="#F1485D"/>
<path d="M7.87476 2.25017H6.74944V3.37549H7.87476V2.25017Z" fill="#F1485D"/>
<path d="M6.74951 2.25017H5.62483V3.37549H6.74951V2.25017Z" fill="#F1485D"/>
<path d="M5.62476 2.25017H4.49944V3.37549H5.62476V2.25017Z" fill="#F1485D"/>
<path d="M4.49951 2.25017H3.37483V3.37549H4.49951V2.25017Z" fill="#F1485D"/>
<path d="M3.375 2.25017H2.25032V3.37549H3.375V2.25017Z" fill="#F1485D"/>
<path d="M2.25 2.25017H1.12468V3.37549H2.25V2.25017Z" fill="#F686B0"/>
<path d="M1.12476 2.25017H7.56057e-05V3.37549H1.12476V2.25017Z" fill="#19162E"/>
<path d="M17.9995 3.37532H16.8748V4.5H17.9995V3.37532Z" fill="#19162E"/>
<path d="M16.8748 3.37532H15.7494V4.5H16.8748V3.37532Z" fill="#F1485D"/>
<path d="M15.7495 3.37532H14.6248V4.5H15.7495V3.37532Z" fill="#F1485D"/>
<path d="M14.6248 3.37532H13.4994V4.5H14.6248V3.37532Z" fill="#F1485D"/>
<path d="M13.4995 3.37532H12.3748V4.5H13.4995V3.37532Z" fill="#F1485D"/>
<path d="M12.3748 3.37532H11.2494V4.5H12.3748V3.37532Z" fill="#F1485D"/>
<path d="M11.2495 3.37532H10.1248V4.5H11.2495V3.37532Z" fill="#F1485D"/>
<path d="M10.125 3.37532H8.99968V4.5H10.125V3.37532Z" fill="#F1485D"/>
<path d="M8.99951 3.37532H7.87483V4.5H8.99951V3.37532Z" fill="#FFFCFE"/>
<path d="M7.87476 3.37532H6.74944V4.5H7.87476V3.37532Z" fill="#FFFCFE"/>
<path d="M6.74951 3.37532H5.62483V4.5H6.74951V3.37532Z" fill="#F1485D"/>
<path d="M5.62476 3.37532H4.49944V4.5H5.62476V3.37532Z" fill="#F1485D"/>
<path d="M4.49951 3.37532H3.37483V4.5H4.49951V3.37532Z" fill="#F1485D"/>
<path d="M3.375 3.37532H2.25032V4.5H3.375V3.37532Z" fill="#F1485D"/>
<path d="M2.25 3.37532H1.12468V4.5H2.25V3.37532Z" fill="#F686B0"/>
<path d="M1.12476 3.37532H7.56057e-05V4.5H1.12476V3.37532Z" fill="#19162E"/>
<path d="M17.9995 4.5H16.8748V5.625H17.9995V4.5Z" fill="#19162E"/>
<path d="M16.8748 4.5H15.7494V5.625H16.8748V4.5Z" fill="#F1485D"/>
<path d="M15.7495 4.5H14.6248V5.625H15.7495V4.5Z" fill="#F1485D"/>
<path d="M14.6248 4.5H13.4994V5.625H14.6248V4.5Z" fill="#FFFCFE"/>
<path d="M13.4995 4.5H12.3748V5.625H13.4995V4.5Z" fill="#F1485D"/>
<path d="M12.3748 4.5H11.2494V5.625H12.3748V4.5Z" fill="#F1485D"/>
<path d="M11.2495 4.5H10.1248V5.625H11.2495V4.5Z" fill="#FFFCFE"/>
<path d="M10.125 4.5H8.99968V5.625H10.125V4.5Z" fill="#F1485D"/>
<path d="M8.99951 4.5H7.87483V5.625H8.99951V4.5Z" fill="#FFFCFE"/>
<path d="M7.87476 4.5H6.74944V5.625H7.87476V4.5Z" fill="#FFFCFE"/>
<path d="M6.74951 4.5H5.62483V5.625H6.74951V4.5Z" fill="#FFFCFE"/>
<path d="M5.62476 4.5H4.49944V5.625H5.62476V4.5Z" fill="#F1485D"/>
<path d="M4.49951 4.5H3.37483V5.625H4.49951V4.5Z" fill="#F1485D"/>
<path d="M3.375 4.5H2.25032V5.625H3.375V4.5Z" fill="#F1485D"/>
<path d="M2.25 4.5H1.12468V5.625H2.25V4.5Z" fill="#F686B0"/>
<path d="M1.12476 4.5H7.56057e-05V5.625H1.12476V4.5Z" fill="#19162E"/>
<path d="M17.9995 5.625H16.8748V6.75H17.9995V5.625Z" fill="#19162E"/>
<path d="M16.8748 5.625H15.7494V6.75H16.8748V5.625Z" fill="#F1485D"/>
<path d="M15.7495 5.625H14.6248V6.75H15.7495V5.625Z" fill="#F1485D"/>
<path d="M14.6248 5.625H13.4994V6.75H14.6248V5.625Z" fill="#F1485D"/>
<path d="M13.4995 5.625H12.3748V6.75H13.4995V5.625Z" fill="#FFFCFE"/>
<path d="M12.3748 5.625H11.2494V6.75H12.3748V5.625Z" fill="#FFFCFE"/>
<path d="M11.2495 5.625H10.1248V6.75H11.2495V5.625Z" fill="#F1485D"/>
<path d="M10.125 5.625H8.99968V6.75H10.125V5.625Z" fill="#F1485D"/>
<path d="M8.99951 5.625H7.87483V6.75H8.99951V5.625Z" fill="#FFFCFE"/>
<path d="M7.87476 5.625H6.74944V6.75H7.87476V5.625Z" fill="#FFFCFE"/>
<path d="M6.74951 5.625H5.62483V6.75H6.74951V5.625Z" fill="#FFFCFE"/>
<path d="M5.62476 5.625H4.49944V6.75H5.62476V5.625Z" fill="#FFFCFE"/>
<path d="M4.49951 5.625H3.37483V6.75H4.49951V5.625Z" fill="#FFFCFE"/>
<path d="M3.375 5.625H2.25032V6.75H3.375V5.625Z" fill="#F1485D"/>
<path d="M2.25 5.625H1.12468V6.75H2.25V5.625Z" fill="#F686B0"/>
<path d="M1.12476 5.625H7.56057e-05V6.75H1.12476V5.625Z" fill="#19162E"/>
<path d="M17.9995 6.75006H16.8748V7.875H17.9995V6.75006Z" fill="#19162E"/>
<path d="M16.8748 6.75006H15.7494V7.875H16.8748V6.75006Z" fill="#F1485D"/>
<path d="M15.7495 6.75006H14.6248V7.875H15.7495V6.75006Z" fill="#F1485D"/>
<path d="M14.6248 6.75006H13.4994V7.875H14.6248V6.75006Z" fill="#F1485D"/>
<path d="M13.4995 6.75006H12.3748V7.875H13.4995V6.75006Z" fill="#FFFCFE"/>
<path d="M12.3748 6.75006H11.2494V7.875H12.3748V6.75006Z" fill="#FFFCFE"/>
<path d="M11.2495 6.75006H10.1248V7.875H11.2495V6.75006Z" fill="#F1485D"/>
<path d="M10.125 6.75006H8.99968V7.875H10.125V6.75006Z" fill="#F1485D"/>
<path d="M8.99951 6.75006H7.87483V7.875H8.99951V6.75006Z" fill="#FFFCFE"/>
<path d="M7.87476 6.75006H6.74944V7.875H7.87476V6.75006Z" fill="#FFFCFE"/>
<path d="M6.74951 6.75006H5.62483V7.875H6.74951V6.75006Z" fill="#FFFCFE"/>
<path d="M5.62476 6.75006H4.49944V7.875H5.62476V6.75006Z" fill="#FFFCFE"/>
<path d="M4.49951 6.75006H3.37483V7.875H4.49951V6.75006Z" fill="#FFFCFE"/>
<path d="M3.375 6.75006H2.25032V7.875H3.375V6.75006Z" fill="#F1485D"/>
<path d="M2.25 6.75006H1.12468V7.875H2.25V6.75006Z" fill="#F686B0"/>
<path d="M1.12476 6.75006H7.56057e-05V7.875H1.12476V6.75006Z" fill="#19162E"/>
<path d="M17.9995 7.875H16.8748V9H17.9995V7.875Z" fill="#19162E"/>
<path d="M16.8748 7.875H15.7494V9H16.8748V7.875Z" fill="#F1485D"/>
<path d="M15.7495 7.875H14.6248V9H15.7495V7.875Z" fill="#F1485D"/>
<path d="M14.6248 7.875H13.4994V9H14.6248V7.875Z" fill="#FFFCFE"/>
<path d="M13.4995 7.875H12.3748V9H13.4995V7.875Z" fill="#F1485D"/>
<path d="M12.3748 7.875H11.2494V9H12.3748V7.875Z" fill="#F1485D"/>
<path d="M11.2495 7.875H10.1248V9H11.2495V7.875Z" fill="#FFFCFE"/>
<path d="M10.125 7.875H8.99968V9H10.125V7.875Z" fill="#F1485D"/>
<path d="M8.99951 7.875H7.87483V9H8.99951V7.875Z" fill="#FFFCFE"/>
<path d="M7.87476 7.875H6.74944V9H7.87476V7.875Z" fill="#FFFCFE"/>
<path d="M6.74951 7.875H5.62483V9H6.74951V7.875Z" fill="#FFFCFE"/>
<path d="M5.62476 7.875H4.49944V9H5.62476V7.875Z" fill="#F1485D"/>
<path d="M4.49951 7.875H3.37483V9H4.49951V7.875Z" fill="#F1485D"/>
<path d="M3.375 7.875H2.25032V9H3.375V7.875Z" fill="#F1485D"/>
<path d="M2.25 7.875H1.12468V9H2.25V7.875Z" fill="#F686B0"/>
<path d="M1.12476 7.875H7.56057e-05V9H1.12476V7.875Z" fill="#19162E"/>
<path d="M17.9995 8.99982H16.8748V10.1248H17.9995V8.99982Z" fill="#19162E"/>
<path d="M16.8748 8.99982H15.7494V10.1248H16.8748V8.99982Z" fill="#F1485D"/>
<path d="M15.7495 8.99982H14.6248V10.1248H15.7495V8.99982Z" fill="#F1485D"/>
<path d="M14.6248 8.99982H13.4994V10.1248H14.6248V8.99982Z" fill="#F1485D"/>
<path d="M13.4995 8.99982H12.3748V10.1248H13.4995V8.99982Z" fill="#F1485D"/>
<path d="M12.3748 8.99982H11.2494V10.1248H12.3748V8.99982Z" fill="#F1485D"/>
<path d="M11.2495 8.99982H10.1248V10.1248H11.2495V8.99982Z" fill="#F1485D"/>
<path d="M10.125 8.99982H8.99968V10.1248H10.125V8.99982Z" fill="#F1485D"/>
<path d="M8.99951 8.99982H7.87483V10.1248H8.99951V8.99982Z" fill="#FFFCFE"/>
<path d="M7.87476 8.99982H6.74944V10.1248H7.87476V8.99982Z" fill="#FFFCFE"/>
<path d="M6.74951 8.99982H5.62483V10.1248H6.74951V8.99982Z" fill="#F1485D"/>
<path d="M5.62476 8.99982H4.49944V10.1248H5.62476V8.99982Z" fill="#F1485D"/>
<path d="M4.49951 8.99982H3.37483V10.1248H4.49951V8.99982Z" fill="#F1485D"/>
<path d="M3.375 8.99982H2.25032V10.1248H3.375V8.99982Z" fill="#F1485D"/>
<path d="M2.25 8.99982H1.12468V10.1248H2.25V8.99982Z" fill="#F686B0"/>
<path d="M1.12476 8.99982H7.56057e-05V10.1248H1.12476V8.99982Z" fill="#19162E"/>
<path d="M17.9995 10.125H16.8748V11.25H17.9995V10.125Z" fill="#19162E"/>
<path d="M16.8748 10.125H15.7494V11.25H16.8748V10.125Z" fill="#F1485D"/>
<path d="M15.7495 10.125H14.6248V11.25H15.7495V10.125Z" fill="#F1485D"/>
<path d="M14.6248 10.125H13.4994V11.25H14.6248V10.125Z" fill="#F1485D"/>
<path d="M13.4995 10.125H12.3748V11.25H13.4995V10.125Z" fill="#F1485D"/>
<path d="M12.3748 10.125H11.2494V11.25H12.3748V10.125Z" fill="#F1485D"/>
<path d="M11.2495 10.125H10.1248V11.25H11.2495V10.125Z" fill="#F1485D"/>
<path d="M10.125 10.125H8.99968V11.25H10.125V10.125Z" fill="#F1485D"/>
<path d="M8.99951 10.125H7.87483V11.25H8.99951V10.125Z" fill="#F1485D"/>
<path d="M7.87476 10.125H6.74944V11.25H7.87476V10.125Z" fill="#F1485D"/>
<path d="M6.74951 10.125H5.62483V11.25H6.74951V10.125Z" fill="#F1485D"/>
<path d="M5.62476 10.125H4.49944V11.25H5.62476V10.125Z" fill="#F1485D"/>
<path d="M4.49951 10.125H3.37483V11.25H4.49951V10.125Z" fill="#F1485D"/>
<path d="M3.375 10.125H2.25032V11.25H3.375V10.125Z" fill="#F1485D"/>
<path d="M2.25 10.125H1.12468V11.25H2.25V10.125Z" fill="#F686B0"/>
<path d="M1.12476 10.125H7.56057e-05V11.25H1.12476V10.125Z" fill="#19162E"/>
<path d="M17.9995 11.25H16.8748V12.375H17.9995V11.25Z" fill="#19162E"/>
<path d="M16.8748 11.25H15.7494V12.375H16.8748V11.25Z" fill="#F686B0"/>
<path d="M15.7495 11.25H14.6248V12.375H15.7495V11.25Z" fill="#F1485D"/>
<path d="M14.6248 11.25H13.4994V12.375H14.6248V11.25Z" fill="#F1485D"/>
<path d="M13.4995 11.25H12.3748V12.375H13.4995V11.25Z" fill="#F1485D"/>
<path d="M12.3748 11.25H11.2494V12.375H12.3748V11.25Z" fill="#F1485D"/>
<path d="M11.2495 11.25H10.1248V12.375H11.2495V11.25Z" fill="#F1485D"/>
<path d="M10.125 11.25H8.99968V12.375H10.125V11.25Z" fill="#F1485D"/>
<path d="M8.99951 11.25H7.87483V12.375H8.99951V11.25Z" fill="#F1485D"/>
<path d="M7.87476 11.25H6.74944V12.375H7.87476V11.25Z" fill="#F1485D"/>
<path d="M6.74951 11.25H5.62483V12.375H6.74951V11.25Z" fill="#F1485D"/>
<path d="M5.62476 11.25H4.49944V12.375H5.62476V11.25Z" fill="#F1485D"/>
<path d="M4.49951 11.25H3.37483V12.375H4.49951V11.25Z" fill="#F1485D"/>
<path d="M3.375 11.25H2.25032V12.375H3.375V11.25Z" fill="#F686B0"/>
<path d="M2.25 11.25H1.12468V12.375H2.25V11.25Z" fill="#F686B0"/>
<path d="M1.12476 11.25H7.56057e-05V12.375H1.12476V11.25Z" fill="#19162E"/>
<path d="M17.9995 12.3748H16.8748V13.4998H17.9995V12.3748Z" fill="#19162E"/>
<path d="M16.8748 12.3748H15.7494V13.4998H16.8748V12.3748Z" fill="#CA2C59"/>
<path d="M15.7495 12.3748H14.6248V13.4998H15.7495V12.3748Z" fill="#F686B0"/>
<path d="M14.6248 12.3748H13.4994V13.4998H14.6248V12.3748Z" fill="#F686B0"/>
<path d="M13.4995 12.3748H12.3748V13.4998H13.4995V12.3748Z" fill="#F686B0"/>
<path d="M12.3748 12.3748H11.2494V13.4998H12.3748V12.3748Z" fill="#F686B0"/>
<path d="M11.2495 12.3748H10.1248V13.4998H11.2495V12.3748Z" fill="#F686B0"/>
<path d="M10.125 12.3748H8.99968V13.4998H10.125V12.3748Z" fill="#F686B0"/>
<path d="M8.99951 12.3748H7.87483V13.4998H8.99951V12.3748Z" fill="#F686B0"/>
<path d="M7.87476 12.3748H6.74944V13.4998H7.87476V12.3748Z" fill="#F686B0"/>
<path d="M6.74951 12.3748H5.62483V13.4998H6.74951V12.3748Z" fill="#F686B0"/>
<path d="M5.62476 12.3748H4.49944V13.4998H5.62476V12.3748Z" fill="#F686B0"/>
<path d="M4.49951 12.3748H3.37483V13.4998H4.49951V12.3748Z" fill="#F686B0"/>
<path d="M3.375 12.3748H2.25032V13.4998H3.375V12.3748Z" fill="#F686B0"/>
<path d="M2.25 12.3748H1.12468V13.4998H2.25V12.3748Z" fill="#CA2C59"/>
<path d="M1.12476 12.3748H7.56057e-05V13.4998H1.12476V12.3748Z" fill="#19162E"/>
<path d="M17.9995 13.4999H16.8748V14.6248H17.9995V13.4999Z" fill="#19162E"/>
<path d="M16.8748 13.4999H15.7494V14.6248H16.8748V13.4999Z" fill="#CA2C59"/>
<path d="M15.7495 13.4999H14.6248V14.6248H15.7495V13.4999Z" fill="#CA2C59"/>
<path d="M14.6248 13.4999H13.4994V14.6248H14.6248V13.4999Z" fill="#CA2C59"/>
<path d="M13.4995 13.4999H12.3748V14.6248H13.4995V13.4999Z" fill="#CA2C59"/>
<path d="M12.3748 13.4999H11.2494V14.6248H12.3748V13.4999Z" fill="#CA2C59"/>
<path d="M11.2495 13.4999H10.1248V14.6248H11.2495V13.4999Z" fill="#CA2C59"/>
<path d="M10.125 13.4999H8.99968V14.6248H10.125V13.4999Z" fill="#CA2C59"/>
<path d="M8.99951 13.4999H7.87483V14.6248H8.99951V13.4999Z" fill="#CA2C59"/>
<path d="M7.87476 13.4999H6.74944V14.6248H7.87476V13.4999Z" fill="#CA2C59"/>
<path d="M6.74951 13.4999H5.62483V14.6248H6.74951V13.4999Z" fill="#CA2C59"/>
<path d="M5.62476 13.4999H4.49944V14.6248H5.62476V13.4999Z" fill="#CA2C59"/>
<path d="M4.49951 13.4999H3.37483V14.6248H4.49951V13.4999Z" fill="#CA2C59"/>
<path d="M3.375 13.4999H2.25032V14.6248H3.375V13.4999Z" fill="#CA2C59"/>
<path d="M2.25 13.4999H1.12468V14.6248H2.25V13.4999Z" fill="#CA2C59"/>
<path d="M1.12476 13.4999H7.56057e-05V14.6248H1.12476V13.4999Z" fill="#19162E"/>
<path d="M17.9995 14.6247H16.8748V15.75H17.9995V14.6247Z" fill="#19162E"/>
<path d="M16.8748 14.6247H15.7494V15.75H16.8748V14.6247Z" fill="#CA2C59"/>
<path d="M15.7495 14.6247H14.6248V15.75H15.7495V14.6247Z" fill="#CA2C59"/>
<path d="M14.6248 14.6247H13.4994V15.75H14.6248V14.6247Z" fill="#CA2C59"/>
<path d="M13.4995 14.6247H12.3748V15.75H13.4995V14.6247Z" fill="#CA2C59"/>
<path d="M12.3748 14.6247H11.2494V15.75H12.3748V14.6247Z" fill="#CA2C59"/>
<path d="M11.2495 14.6247H10.1248V15.75H11.2495V14.6247Z" fill="#CA2C59"/>
<path d="M10.125 14.6247H8.99968V15.75H10.125V14.6247Z" fill="#CA2C59"/>
<path d="M8.99951 14.6247H7.87483V15.75H8.99951V14.6247Z" fill="#CA2C59"/>
<path d="M7.87476 14.6247H6.74944V15.75H7.87476V14.6247Z" fill="#CA2C59"/>
<path d="M6.74951 14.6247H5.62483V15.75H6.74951V14.6247Z" fill="#CA2C59"/>
<path d="M5.62476 14.6247H4.49944V15.75H5.62476V14.6247Z" fill="#CA2C59"/>
<path d="M4.49951 14.6247H3.37483V15.75H4.49951V14.6247Z" fill="#CA2C59"/>
<path d="M3.375 14.6247H2.25032V15.75H3.375V14.6247Z" fill="#CA2C59"/>
<path d="M2.25 14.6247H1.12468V15.75H2.25V14.6247Z" fill="#CA2C59"/>
<path d="M1.12476 14.6247H7.56057e-05V15.75H1.12476V14.6247Z" fill="#19162E"/>
<path d="M16.8748 15.7501H15.7494V16.8748H16.8748V15.7501Z" fill="#19162E"/>
<path d="M15.7495 15.7501H14.6248V16.8748H15.7495V15.7501Z" fill="#CA2C59"/>
<path d="M14.6248 15.7501H13.4994V16.8748H14.6248V15.7501Z" fill="#CA2C59"/>
<path d="M13.4995 15.7501H12.3748V16.8748H13.4995V15.7501Z" fill="#CA2C59"/>
<path d="M12.3748 15.7501H11.2494V16.8748H12.3748V15.7501Z" fill="#CA2C59"/>
<path d="M11.2495 15.7501H10.1248V16.8748H11.2495V15.7501Z" fill="#CA2C59"/>
<path d="M10.125 15.7501H8.99968V16.8748H10.125V15.7501Z" fill="#CA2C59"/>
<path d="M8.99951 15.7501H7.87483V16.8748H8.99951V15.7501Z" fill="#CA2C59"/>
<path d="M7.87476 15.7501H6.74944V16.8748H7.87476V15.7501Z" fill="#CA2C59"/>
<path d="M6.74951 15.7501H5.62483V16.8748H6.74951V15.7501Z" fill="#CA2C59"/>
<path d="M5.62476 15.7501H4.49944V16.8748H5.62476V15.7501Z" fill="#CA2C59"/>
<path d="M4.49951 15.7501H3.37483V16.8748H4.49951V15.7501Z" fill="#CA2C59"/>
<path d="M3.375 15.7501H2.25032V16.8748H3.375V15.7501Z" fill="#CA2C59"/>
<path d="M2.25 15.7501H1.12468V16.8748H2.25V15.7501Z" fill="#19162E"/>
<path d="M15.7495 16.8747H14.6248V18H15.7495V16.8747Z" fill="#19162E"/>
<path d="M14.6248 16.8747H13.4994V18H14.6248V16.8747Z" fill="#19162E"/>
<path d="M13.4995 16.8747H12.3748V18H13.4995V16.8747Z" fill="#19162E"/>
<path d="M12.3748 16.8747H11.2494V18H12.3748V16.8747Z" fill="#19162E"/>
<path d="M11.2495 16.8747H10.1248V18H11.2495V16.8747Z" fill="#19162E"/>
<path d="M10.125 16.8747H8.99968V18H10.125V16.8747Z" fill="#19162E"/>
<path d="M8.99951 16.8747H7.87483V18H8.99951V16.8747Z" fill="#19162E"/>
<path d="M7.87476 16.8747H6.74944V18H7.87476V16.8747Z" fill="#19162E"/>
<path d="M6.74951 16.8747H5.62483V18H6.74951V16.8747Z" fill="#19162E"/>
<path d="M5.62476 16.8747H4.49944V18H5.62476V16.8747Z" fill="#19162E"/>
<path d="M4.49951 16.8747H3.37483V18H4.49951V16.8747Z" fill="#19162E"/>
<path d="M3.375 16.8747H2.25032V18H3.375V16.8747Z" fill="#19162E"/>
</svg>
