<svg width="300" height="125" viewBox="0 0 300 125" fill="none" xmlns="http://www.w3.org/2000/svg">
<g clip-path="url(#clip0_109_8006)">
<path d="M16.667 0H25.0029V8.33109H16.667V0Z" fill="#19162E"/>
<path d="M25.0029 0H33.334V8.33109H25.0029V0Z" fill="#19162E"/>
<path d="M33.3335 0H41.6694V8.33109H33.3335V0Z" fill="#19162E"/>
<path d="M41.6699 0H50.001V8.33109H41.6699V0Z" fill="#19162E"/>
<path d="M50.0005 0H58.3317V8.33109H50.0005V0Z" fill="#19162E"/>
<path d="M58.332 0H66.6678V8.33109H58.332V0Z" fill="#19162E"/>
<path d="M66.6675 0H74.9986V8.33109H66.6675V0Z" fill="#19162E"/>
<path d="M74.999 0H83.3348V8.33109H74.999V0Z" fill="#19162E"/>
<path d="M83.3345 0H91.6656V8.33109H83.3345V0Z" fill="#19162E"/>
<path d="M91.666 0H100.002V8.33109H91.666V0Z" fill="#19162E"/>
<path d="M100.002 0H108.333V8.33109H100.002V0Z" fill="#19162E"/>
<path d="M108.333 0H116.669V8.33109H108.333V0Z" fill="#19162E"/>
<path d="M116.668 0H125V8.33109H116.668V0Z" fill="#19162E"/>
<path d="M125 0H133.336V8.33109H125V0Z" fill="#19162E"/>
<path d="M133.335 0H141.667V8.33109H133.335V0Z" fill="#19162E"/>
<path d="M141.667 0H150.002V8.33109H141.667V0Z" fill="#19162E"/>
<path d="M150.002 0H158.334V8.33109H150.002V0Z" fill="#19162E"/>
<path d="M158.333 0H166.669V8.33109H158.333V0Z" fill="#19162E"/>
<path d="M166.669 0H175V8.33109H166.669V0Z" fill="#19162E"/>
<path d="M175 0H183.332V8.33109H175V0Z" fill="#19162E"/>
<path d="M183.331 0H191.667V8.33109H183.331V0Z" fill="#19162E"/>
<path d="M191.667 0H199.999V8.33109H191.667V0Z" fill="#19162E"/>
<path d="M199.998 0H208.334V8.33109H199.998V0Z" fill="#19162E"/>
<path d="M208.334 0H216.665V8.33109H208.334V0Z" fill="#19162E"/>
<path d="M216.665 0H225.001V8.33109H216.665V0Z" fill="#19162E"/>
<path d="M225.001 0H233.332V8.33109H225.001V0Z" fill="#19162E"/>
<path d="M233.332 0H241.668V8.33109H233.332V0Z" fill="#19162E"/>
<path d="M241.668 0H249.999V8.33109H241.668V0Z" fill="#19162E"/>
<path d="M249.999 0H258.335V8.33109H249.999V0Z" fill="#19162E"/>
<path d="M258.335 0H266.666V8.33109H258.335V0Z" fill="#19162E"/>
<path d="M266.666 0H275.002V8.33109H266.666V0Z" fill="#19162E"/>
<path d="M275.002 0H283.333V8.33109H275.002V0Z" fill="#19162E"/>
<path d="M8.33594 8.33057H16.667V16.6664H8.33594V8.33057Z" fill="#19162E"/>
<path d="M16.667 8.33057H25.0029V16.6664H16.667V8.33057Z" fill="#F1485D"/>
<path d="M25.0029 8.33057H33.334V16.6664H25.0029V8.33057Z" fill="#F1485D"/>
<path d="M33.3335 8.33057H41.6694V16.6664H33.3335V8.33057Z" fill="#F1485D"/>
<path d="M41.6699 8.33057H50.001V16.6664H41.6699V8.33057Z" fill="#F1485D"/>
<path d="M50.0005 8.33057H58.3317V16.6664H50.0005V8.33057Z" fill="#F1485D"/>
<path d="M58.332 8.33057H66.6678V16.6664H58.332V8.33057Z" fill="#F1485D"/>
<path d="M66.6675 8.33057H74.9986V16.6664H66.6675V8.33057Z" fill="#F1485D"/>
<path d="M74.999 8.33057H83.3348V16.6664H74.999V8.33057Z" fill="#F1485D"/>
<path d="M83.3345 8.33057H91.6656V16.6664H83.3345V8.33057Z" fill="#F1485D"/>
<path d="M91.666 8.33057H100.002V16.6664H91.666V8.33057Z" fill="#F1485D"/>
<path d="M100.002 8.33057H108.333V16.6664H100.002V8.33057Z" fill="#F1485D"/>
<path d="M108.333 8.33057H116.669V16.6664H108.333V8.33057Z" fill="#F1485D"/>
<path d="M116.668 8.33057H125V16.6664H116.668V8.33057Z" fill="#F1485D"/>
<path d="M125 8.33057H133.336V16.6664H125V8.33057Z" fill="#F1485D"/>
<path d="M133.335 8.33057H141.667V16.6664H133.335V8.33057Z" fill="#F1485D"/>
<path d="M141.667 8.33057H150.002V16.6664H141.667V8.33057Z" fill="#F1485D"/>
<path d="M150.002 8.33057H158.334V16.6664H150.002V8.33057Z" fill="#F1485D"/>
<path d="M158.333 8.33057H166.669V16.6664H158.333V8.33057Z" fill="#F1485D"/>
<path d="M166.669 8.33057H175V16.6664H166.669V8.33057Z" fill="#F1485D"/>
<path d="M175 8.33057H183.332V16.6664H175V8.33057Z" fill="#F1485D"/>
<path d="M183.331 8.33057H191.667V16.6664H183.331V8.33057Z" fill="#F1485D"/>
<path d="M191.667 8.33057H199.999V16.6664H191.667V8.33057Z" fill="#F1485D"/>
<path d="M199.998 8.33057H208.334V16.6664H199.998V8.33057Z" fill="#F1485D"/>
<path d="M208.334 8.33057H216.665V16.6664H208.334V8.33057Z" fill="#F1485D"/>
<path d="M216.665 8.33057H225.001V16.6664H216.665V8.33057Z" fill="#F1485D"/>
<path d="M225.001 8.33057H233.332V16.6664H225.001V8.33057Z" fill="#F1485D"/>
<path d="M233.332 8.33057H241.668V16.6664H233.332V8.33057Z" fill="#F1485D"/>
<path d="M241.668 8.33057H249.999V16.6664H241.668V8.33057Z" fill="#F1485D"/>
<path d="M249.999 8.33057H258.335V16.6664H249.999V8.33057Z" fill="#F1485D"/>
<path d="M258.335 8.33057H266.666V16.6664H258.335V8.33057Z" fill="#F1485D"/>
<path d="M266.666 8.33057H275.002V16.6664H266.666V8.33057Z" fill="#F1485D"/>
<path d="M275.002 8.33057H283.333V16.6664H275.002V8.33057Z" fill="#F1485D"/>
<path d="M283.333 8.33057H291.669V16.6664H283.333V8.33057Z" fill="#19162E"/>
<path d="M0 16.6665H8.33588V24.9976H0V16.6665Z" fill="#19162E"/>
<path d="M8.33594 16.6665H16.667V24.9976H8.33594V16.6665Z" fill="#F1485D"/>
<path d="M16.667 16.6665H25.0029V24.9976H16.667V16.6665Z" fill="#F1485D"/>
<path d="M25.0029 16.6665H33.334V24.9976H25.0029V16.6665Z" fill="#F1485D"/>
<path d="M33.3335 16.6665H41.6694V24.9976H33.3335V16.6665Z" fill="#F1485D"/>
<path d="M41.6699 16.6665H50.001V24.9976H41.6699V16.6665Z" fill="#F1485D"/>
<path d="M50.0005 16.6665H58.3317V24.9976H50.0005V16.6665Z" fill="#F1485D"/>
<path d="M58.332 16.6665H66.6678V24.9976H58.332V16.6665Z" fill="#F1485D"/>
<path d="M66.6675 16.6665H74.9986V24.9976H66.6675V16.6665Z" fill="#F1485D"/>
<path d="M74.999 16.6665H83.3348V24.9976H74.999V16.6665Z" fill="#F1485D"/>
<path d="M83.3345 16.6665H91.6656V24.9976H83.3345V16.6665Z" fill="#F1485D"/>
<path d="M91.666 16.6665H100.002V24.9976H91.666V16.6665Z" fill="#F1485D"/>
<path d="M100.002 16.6665H108.333V24.9976H100.002V16.6665Z" fill="#F1485D"/>
<path d="M108.333 16.6665H116.669V24.9976H108.333V16.6665Z" fill="#F1485D"/>
<path d="M116.668 16.6665H125V24.9976H116.668V16.6665Z" fill="#F1485D"/>
<path d="M125 16.6665H133.336V24.9976H125V16.6665Z" fill="#F1485D"/>
<path d="M133.335 16.6665H141.667V24.9976H133.335V16.6665Z" fill="#F1485D"/>
<path d="M141.667 16.6665H150.002V24.9976H141.667V16.6665Z" fill="#F1485D"/>
<path d="M150.002 16.6665H158.334V24.9976H150.002V16.6665Z" fill="#F1485D"/>
<path d="M158.333 16.6665H166.669V24.9976H158.333V16.6665Z" fill="#F1485D"/>
<path d="M166.669 16.6665H175V24.9976H166.669V16.6665Z" fill="#F1485D"/>
<path d="M175 16.6665H183.332V24.9976H175V16.6665Z" fill="#F1485D"/>
<path d="M183.331 16.6665H191.667V24.9976H183.331V16.6665Z" fill="#F1485D"/>
<path d="M191.667 16.6665H199.999V24.9976H191.667V16.6665Z" fill="#F1485D"/>
<path d="M199.998 16.6665H208.334V24.9976H199.998V16.6665Z" fill="#F1485D"/>
<path d="M208.334 16.6665H216.665V24.9976H208.334V16.6665Z" fill="#F1485D"/>
<path d="M216.665 16.6665H225.001V24.9976H216.665V16.6665Z" fill="#F1485D"/>
<path d="M225.001 16.6665H233.332V24.9976H225.001V16.6665Z" fill="#F1485D"/>
<path d="M233.332 16.6665H241.668V24.9976H233.332V16.6665Z" fill="#F1485D"/>
<path d="M241.668 16.6665H249.999V24.9976H241.668V16.6665Z" fill="#F1485D"/>
<path d="M249.999 16.6665H258.335V24.9976H249.999V16.6665Z" fill="#F1485D"/>
<path d="M258.335 16.6665H266.666V24.9976H258.335V16.6665Z" fill="#F1485D"/>
<path d="M266.666 16.6665H275.002V24.9976H266.666V16.6665Z" fill="#F1485D"/>
<path d="M275.002 16.6665H283.333V24.9976H275.002V16.6665Z" fill="#F1485D"/>
<path d="M283.333 16.6665H291.669V24.9976H283.333V16.6665Z" fill="#F686B0"/>
<path d="M291.669 16.6665H300V24.9976H291.669V16.6665Z" fill="#19162E"/>
<path d="M0 24.998H8.33588V33.3314H0V24.998Z" fill="#19162E"/>
<path d="M8.33594 24.998H16.667V33.3314H8.33594V24.998Z" fill="#F1485D"/>
<path d="M16.667 24.998H25.0029V33.3314H16.667V24.998Z" fill="#F1485D"/>
<path d="M25.0029 24.998H33.334V33.3314H25.0029V24.998Z" fill="#F1485D"/>
<path d="M33.3335 24.998H41.6694V33.3314H33.3335V24.998Z" fill="#F1485D"/>
<path d="M41.6699 24.998H50.001V33.3314H41.6699V24.998Z" fill="#F1485D"/>
<path d="M50.0005 24.998H58.3317V33.3314H50.0005V24.998Z" fill="#F1485D"/>
<path d="M58.332 24.998H66.6678V33.3314H58.332V24.998Z" fill="#F1485D"/>
<path d="M66.6675 24.998H74.9986V33.3314H66.6675V24.998Z" fill="#F1485D"/>
<path d="M74.999 24.998H83.3348V33.3314H74.999V24.998Z" fill="#F1485D"/>
<path d="M83.3345 24.998H91.6656V33.3314H83.3345V24.998Z" fill="#F1485D"/>
<path d="M91.666 24.998H100.002V33.3314H91.666V24.998Z" fill="#F1485D"/>
<path d="M100.002 24.998H108.333V33.3314H100.002V24.998Z" fill="#F1485D"/>
<path d="M108.333 24.998H116.669V33.3314H108.333V24.998Z" fill="#F1485D"/>
<path d="M116.668 24.998H125V33.3314H116.668V24.998Z" fill="#F1485D"/>
<path d="M125 24.998H133.336V33.3314H125V24.998Z" fill="#F1485D"/>
<path d="M133.335 24.998H141.667V33.3314H133.335V24.998Z" fill="#F1485D"/>
<path d="M141.667 24.998H150.002V33.3314H141.667V24.998Z" fill="#F1485D"/>
<path d="M150.002 24.998H158.334V33.3314H150.002V24.998Z" fill="#F1485D"/>
<path d="M158.333 24.998H166.669V33.3314H158.333V24.998Z" fill="#F1485D"/>
<path d="M166.669 24.998H175V33.3314H166.669V24.998Z" fill="#F1485D"/>
<path d="M175 24.998H183.332V33.3314H175V24.998Z" fill="#F1485D"/>
<path d="M183.331 24.998H191.667V33.3314H183.331V24.998Z" fill="#F1485D"/>
<path d="M191.667 24.998H199.999V33.3314H191.667V24.998Z" fill="#F1485D"/>
<path d="M199.998 24.998H208.334V33.3314H199.998V24.998Z" fill="#F1485D"/>
<path d="M208.334 24.998H216.665V33.3314H208.334V24.998Z" fill="#F1485D"/>
<path d="M216.665 24.998H225.001V33.3314H216.665V24.998Z" fill="#F1485D"/>
<path d="M225.001 24.998H233.332V33.3314H225.001V24.998Z" fill="#F1485D"/>
<path d="M233.332 24.998H241.668V33.3314H233.332V24.998Z" fill="#F1485D"/>
<path d="M241.668 24.998H249.999V33.3314H241.668V24.998Z" fill="#F1485D"/>
<path d="M249.999 24.998H258.335V33.3314H249.999V24.998Z" fill="#F1485D"/>
<path d="M258.335 24.998H266.666V33.3314H258.335V24.998Z" fill="#F1485D"/>
<path d="M266.666 24.998H275.002V33.3314H266.666V24.998Z" fill="#F1485D"/>
<path d="M275.002 24.998H283.333V33.3314H275.002V24.998Z" fill="#F1485D"/>
<path d="M283.333 24.998H291.669V33.3314H283.333V24.998Z" fill="#F686B0"/>
<path d="M291.669 24.998H300V33.3314H291.669V24.998Z" fill="#19162E"/>
<path d="M0 33.3315H8.33588V41.6649H0V33.3315Z" fill="#19162E"/>
<path d="M8.33594 33.3315H16.667V41.6649H8.33594V33.3315Z" fill="#F1485D"/>
<path d="M16.667 33.3315H25.0029V41.6649H16.667V33.3315Z" fill="#F1485D"/>
<path d="M25.0029 33.3315H33.334V41.6649H25.0029V33.3315Z" fill="#F1485D"/>
<path d="M33.3335 33.3315H41.6694V41.6649H33.3335V33.3315Z" fill="#F1485D"/>
<path d="M41.6699 33.3315H50.001V41.6649H41.6699V33.3315Z" fill="#F1485D"/>
<path d="M50.0005 33.3315H58.3317V41.6649H50.0005V33.3315Z" fill="#F1485D"/>
<path d="M58.332 33.3315H66.6678V41.6649H58.332V33.3315Z" fill="#F1485D"/>
<path d="M66.6675 33.3315H74.9986V41.6649H66.6675V33.3315Z" fill="#F1485D"/>
<path d="M74.999 33.3315H83.3348V41.6649H74.999V33.3315Z" fill="#F1485D"/>
<path d="M83.3345 33.3315H91.6656V41.6649H83.3345V33.3315Z" fill="#F1485D"/>
<path d="M91.666 33.3315H100.002V41.6649H91.666V33.3315Z" fill="#F1485D"/>
<path d="M100.002 33.3315H108.333V41.6649H100.002V33.3315Z" fill="#F1485D"/>
<path d="M108.333 33.3315H116.669V41.6649H108.333V33.3315Z" fill="#F1485D"/>
<path d="M116.668 33.3315H125V41.6649H116.668V33.3315Z" fill="#F1485D"/>
<path d="M125 33.3315H133.336V41.6649H125V33.3315Z" fill="#F1485D"/>
<path d="M133.335 33.3315H141.667V41.6649H133.335V33.3315Z" fill="#F1485D"/>
<path d="M141.667 33.3315H150.002V41.6649H141.667V33.3315Z" fill="#F1485D"/>
<path d="M150.002 33.3315H158.334V41.6649H150.002V33.3315Z" fill="#F1485D"/>
<path d="M158.333 33.3315H166.669V41.6649H158.333V33.3315Z" fill="#F1485D"/>
<path d="M166.669 33.3315H175V41.6649H166.669V33.3315Z" fill="#F1485D"/>
<path d="M175 33.3315H183.332V41.6649H175V33.3315Z" fill="#F1485D"/>
<path d="M183.331 33.3315H191.667V41.6649H183.331V33.3315Z" fill="#F1485D"/>
<path d="M191.667 33.3315H199.999V41.6649H191.667V33.3315Z" fill="#F1485D"/>
<path d="M199.998 33.3315H208.334V41.6649H199.998V33.3315Z" fill="#F1485D"/>
<path d="M208.334 33.3315H216.665V41.6649H208.334V33.3315Z" fill="#F1485D"/>
<path d="M216.665 33.3315H225.001V41.6649H216.665V33.3315Z" fill="#F1485D"/>
<path d="M225.001 33.3315H233.332V41.6649H225.001V33.3315Z" fill="#F1485D"/>
<path d="M233.332 33.3315H241.668V41.6649H233.332V33.3315Z" fill="#F1485D"/>
<path d="M241.668 33.3315H249.999V41.6649H241.668V33.3315Z" fill="#F1485D"/>
<path d="M249.999 33.3315H258.335V41.6649H249.999V33.3315Z" fill="#F1485D"/>
<path d="M258.335 33.3315H266.666V41.6649H258.335V33.3315Z" fill="#F1485D"/>
<path d="M266.666 33.3315H275.002V41.6649H266.666V33.3315Z" fill="#F1485D"/>
<path d="M275.002 33.3315H283.333V41.6649H275.002V33.3315Z" fill="#F1485D"/>
<path d="M283.333 33.3315H291.669V41.6649H283.333V33.3315Z" fill="#F686B0"/>
<path d="M291.669 33.3315H300V41.6649H291.669V33.3315Z" fill="#19162E"/>
<path d="M0 41.6641H8.33588V49.9971H0V41.6641Z" fill="#19162E"/>
<path d="M8.33594 41.6641H16.667V49.9971H8.33594V41.6641Z" fill="#F1485D"/>
<path d="M16.667 41.6641H25.0029V49.9971H16.667V41.6641Z" fill="#F1485D"/>
<path d="M25.0029 41.6641H33.334V49.9971H25.0029V41.6641Z" fill="#F1485D"/>
<path d="M33.3335 41.6641H41.6694V49.9971H33.3335V41.6641Z" fill="#F1485D"/>
<path d="M41.6699 41.6641H50.001V49.9971H41.6699V41.6641Z" fill="#F1485D"/>
<path d="M50.0005 41.6641H58.3317V49.9971H50.0005V41.6641Z" fill="#F1485D"/>
<path d="M58.332 41.6641H66.6678V49.9971H58.332V41.6641Z" fill="#F1485D"/>
<path d="M66.6675 41.6641H74.9986V49.9971H66.6675V41.6641Z" fill="#F1485D"/>
<path d="M74.999 41.6641H83.3348V49.9971H74.999V41.6641Z" fill="#F1485D"/>
<path d="M83.3345 41.6641H91.6656V49.9971H83.3345V41.6641Z" fill="#F1485D"/>
<path d="M91.666 41.6641H100.002V49.9971H91.666V41.6641Z" fill="#F1485D"/>
<path d="M100.002 41.6641H108.333V49.9971H100.002V41.6641Z" fill="#F1485D"/>
<path d="M108.333 41.6641H116.669V49.9971H108.333V41.6641Z" fill="#F1485D"/>
<path d="M116.668 41.6641H125V49.9971H116.668V41.6641Z" fill="#F1485D"/>
<path d="M125 41.6641H133.336V49.9971H125V41.6641Z" fill="#F1485D"/>
<path d="M133.335 41.6641H141.667V49.9971H133.335V41.6641Z" fill="#F1485D"/>
<path d="M141.667 41.6641H150.002V49.9971H141.667V41.6641Z" fill="#F1485D"/>
<path d="M150.002 41.6641H158.334V49.9971H150.002V41.6641Z" fill="#F1485D"/>
<path d="M158.333 41.6641H166.669V49.9971H158.333V41.6641Z" fill="#F1485D"/>
<path d="M166.669 41.6641H175V49.9971H166.669V41.6641Z" fill="#F1485D"/>
<path d="M175 41.6641H183.332V49.9971H175V41.6641Z" fill="#F1485D"/>
<path d="M183.331 41.6641H191.667V49.9971H183.331V41.6641Z" fill="#F1485D"/>
<path d="M191.667 41.6641H199.999V49.9971H191.667V41.6641Z" fill="#F1485D"/>
<path d="M199.998 41.6641H208.334V49.9971H199.998V41.6641Z" fill="#F1485D"/>
<path d="M208.334 41.6641H216.665V49.9971H208.334V41.6641Z" fill="#F1485D"/>
<path d="M216.665 41.6641H225.001V49.9971H216.665V41.6641Z" fill="#F1485D"/>
<path d="M225.001 41.6641H233.332V49.9971H225.001V41.6641Z" fill="#F1485D"/>
<path d="M233.332 41.6641H241.668V49.9971H233.332V41.6641Z" fill="#F1485D"/>
<path d="M241.668 41.6641H249.999V49.9971H241.668V41.6641Z" fill="#F1485D"/>
<path d="M249.999 41.6641H258.335V49.9971H249.999V41.6641Z" fill="#F1485D"/>
<path d="M258.335 41.6641H266.666V49.9971H258.335V41.6641Z" fill="#F1485D"/>
<path d="M266.666 41.6641H275.002V49.9971H266.666V41.6641Z" fill="#F1485D"/>
<path d="M275.002 41.6641H283.333V49.9971H275.002V41.6641Z" fill="#F1485D"/>
<path d="M283.333 41.6641H291.669V49.9971H283.333V41.6641Z" fill="#F686B0"/>
<path d="M291.669 41.6641H300V49.9971H291.669V41.6641Z" fill="#19162E"/>
<path d="M0 49.9971H8.33588V58.3306H0V49.9971Z" fill="#19162E"/>
<path d="M8.33594 49.9971H16.667V58.3306H8.33594V49.9971Z" fill="#F1485D"/>
<path d="M16.667 49.9971H25.0029V58.3306H16.667V49.9971Z" fill="#F1485D"/>
<path d="M25.0029 49.9971H33.334V58.3306H25.0029V49.9971Z" fill="#F1485D"/>
<path d="M33.3335 49.9971H41.6694V58.3306H33.3335V49.9971Z" fill="#F1485D"/>
<path d="M41.6699 49.9971H50.001V58.3306H41.6699V49.9971Z" fill="#F1485D"/>
<path d="M50.0005 49.9971H58.3317V58.3306H50.0005V49.9971Z" fill="#F1485D"/>
<path d="M58.332 49.9971H66.6678V58.3306H58.332V49.9971Z" fill="#F1485D"/>
<path d="M66.6675 49.9971H74.9986V58.3306H66.6675V49.9971Z" fill="#F1485D"/>
<path d="M74.999 49.9971H83.3348V58.3306H74.999V49.9971Z" fill="#F1485D"/>
<path d="M83.3345 49.9971H91.6656V58.3306H83.3345V49.9971Z" fill="#F1485D"/>
<path d="M91.666 49.9971H100.002V58.3306H91.666V49.9971Z" fill="#F1485D"/>
<path d="M100.002 49.9971H108.333V58.3306H100.002V49.9971Z" fill="#F1485D"/>
<path d="M108.333 49.9971H116.669V58.3306H108.333V49.9971Z" fill="#F1485D"/>
<path d="M116.668 49.9971H125V58.3306H116.668V49.9971Z" fill="#F1485D"/>
<path d="M125 49.9971H133.336V58.3306H125V49.9971Z" fill="#F1485D"/>
<path d="M133.335 49.9971H141.667V58.3306H133.335V49.9971Z" fill="#F1485D"/>
<path d="M141.667 49.9971H150.002V58.3306H141.667V49.9971Z" fill="#F1485D"/>
<path d="M150.002 49.9971H158.334V58.3306H150.002V49.9971Z" fill="#F1485D"/>
<path d="M158.333 49.9971H166.669V58.3306H158.333V49.9971Z" fill="#F1485D"/>
<path d="M166.669 49.9971H175V58.3306H166.669V49.9971Z" fill="#F1485D"/>
<path d="M175 49.9971H183.332V58.3306H175V49.9971Z" fill="#F1485D"/>
<path d="M183.331 49.9971H191.667V58.3306H183.331V49.9971Z" fill="#F1485D"/>
<path d="M191.667 49.9971H199.999V58.3306H191.667V49.9971Z" fill="#F1485D"/>
<path d="M199.998 49.9971H208.334V58.3306H199.998V49.9971Z" fill="#F1485D"/>
<path d="M208.334 49.9971H216.665V58.3306H208.334V49.9971Z" fill="#F1485D"/>
<path d="M216.665 49.9971H225.001V58.3306H216.665V49.9971Z" fill="#F1485D"/>
<path d="M225.001 49.9971H233.332V58.3306H225.001V49.9971Z" fill="#F1485D"/>
<path d="M233.332 49.9971H241.668V58.3306H233.332V49.9971Z" fill="#F1485D"/>
<path d="M241.668 49.9971H249.999V58.3306H241.668V49.9971Z" fill="#F1485D"/>
<path d="M249.999 49.9971H258.335V58.3306H249.999V49.9971Z" fill="#F1485D"/>
<path d="M258.335 49.9971H266.666V58.3306H258.335V49.9971Z" fill="#F1485D"/>
<path d="M266.666 49.9971H275.002V58.3306H266.666V49.9971Z" fill="#F1485D"/>
<path d="M275.002 49.9971H283.333V58.3306H275.002V49.9971Z" fill="#F1485D"/>
<path d="M283.333 49.9971H291.669V58.3306H283.333V49.9971Z" fill="#F686B0"/>
<path d="M291.669 49.9971H300V58.3306H291.669V49.9971Z" fill="#19162E"/>
<path d="M0 58.3311H8.33588V66.6641H0V58.3311Z" fill="#19162E"/>
<path d="M8.33594 58.3311H16.667V66.6641H8.33594V58.3311Z" fill="#F1485D"/>
<path d="M16.667 58.3311H25.0029V66.6641H16.667V58.3311Z" fill="#F1485D"/>
<path d="M25.0029 58.3311H33.334V66.6641H25.0029V58.3311Z" fill="#F1485D"/>
<path d="M33.3335 58.3311H41.6694V66.6641H33.3335V58.3311Z" fill="#F1485D"/>
<path d="M41.6699 58.3311H50.001V66.6641H41.6699V58.3311Z" fill="#F1485D"/>
<path d="M50.0005 58.3311H58.3317V66.6641H50.0005V58.3311Z" fill="#F1485D"/>
<path d="M58.332 58.3311H66.6678V66.6641H58.332V58.3311Z" fill="#F1485D"/>
<path d="M66.6675 58.3311H74.9986V66.6641H66.6675V58.3311Z" fill="#F1485D"/>
<path d="M74.999 58.3311H83.3348V66.6641H74.999V58.3311Z" fill="#F1485D"/>
<path d="M83.3345 58.3311H91.6656V66.6641H83.3345V58.3311Z" fill="#F1485D"/>
<path d="M91.666 58.3311H100.002V66.6641H91.666V58.3311Z" fill="#F1485D"/>
<path d="M100.002 58.3311H108.333V66.6641H100.002V58.3311Z" fill="#F1485D"/>
<path d="M108.333 58.3311H116.669V66.6641H108.333V58.3311Z" fill="#F1485D"/>
<path d="M116.668 58.3311H125V66.6641H116.668V58.3311Z" fill="#F1485D"/>
<path d="M125 58.3311H133.336V66.6641H125V58.3311Z" fill="#F1485D"/>
<path d="M133.335 58.3311H141.667V66.6641H133.335V58.3311Z" fill="#F1485D"/>
<path d="M141.667 58.3311H150.002V66.6641H141.667V58.3311Z" fill="#F1485D"/>
<path d="M150.002 58.3311H158.334V66.6641H150.002V58.3311Z" fill="#F1485D"/>
<path d="M158.333 58.3311H166.669V66.6641H158.333V58.3311Z" fill="#F1485D"/>
<path d="M166.669 58.3311H175V66.6641H166.669V58.3311Z" fill="#F1485D"/>
<path d="M175 58.3311H183.332V66.6641H175V58.3311Z" fill="#F1485D"/>
<path d="M183.331 58.3311H191.667V66.6641H183.331V58.3311Z" fill="#F1485D"/>
<path d="M191.667 58.3311H199.999V66.6641H191.667V58.3311Z" fill="#F1485D"/>
<path d="M199.998 58.3311H208.334V66.6641H199.998V58.3311Z" fill="#F1485D"/>
<path d="M208.334 58.3311H216.665V66.6641H208.334V58.3311Z" fill="#F1485D"/>
<path d="M216.665 58.3311H225.001V66.6641H216.665V58.3311Z" fill="#F1485D"/>
<path d="M225.001 58.3311H233.332V66.6641H225.001V58.3311Z" fill="#F1485D"/>
<path d="M233.332 58.3311H241.668V66.6641H233.332V58.3311Z" fill="#F1485D"/>
<path d="M241.668 58.3311H249.999V66.6641H241.668V58.3311Z" fill="#F1485D"/>
<path d="M249.999 58.3311H258.335V66.6641H249.999V58.3311Z" fill="#F1485D"/>
<path d="M258.335 58.3311H266.666V66.6641H258.335V58.3311Z" fill="#F1485D"/>
<path d="M266.666 58.3311H275.002V66.6641H266.666V58.3311Z" fill="#F1485D"/>
<path d="M275.002 58.3311H283.333V66.6641H275.002V58.3311Z" fill="#F1485D"/>
<path d="M283.333 58.3311H291.669V66.6641H283.333V58.3311Z" fill="#F686B0"/>
<path d="M291.669 58.3311H300V66.6641H291.669V58.3311Z" fill="#19162E"/>
<path d="M0 66.6641H8.33588V74.9976H0V66.6641Z" fill="#19162E"/>
<path d="M8.33594 66.6641H16.667V74.9976H8.33594V66.6641Z" fill="#F1485D"/>
<path d="M16.667 66.6641H25.0029V74.9976H16.667V66.6641Z" fill="#F1485D"/>
<path d="M25.0029 66.6641H33.334V74.9976H25.0029V66.6641Z" fill="#F1485D"/>
<path d="M33.3335 66.6641H41.6694V74.9976H33.3335V66.6641Z" fill="#F1485D"/>
<path d="M41.6699 66.6641H50.001V74.9976H41.6699V66.6641Z" fill="#F1485D"/>
<path d="M50.0005 66.6641H58.3317V74.9976H50.0005V66.6641Z" fill="#F1485D"/>
<path d="M58.332 66.6641H66.6678V74.9976H58.332V66.6641Z" fill="#F1485D"/>
<path d="M66.6675 66.6641H74.9986V74.9976H66.6675V66.6641Z" fill="#F1485D"/>
<path d="M74.999 66.6641H83.3348V74.9976H74.999V66.6641Z" fill="#F1485D"/>
<path d="M83.3345 66.6641H91.6656V74.9976H83.3345V66.6641Z" fill="#F1485D"/>
<path d="M91.666 66.6641H100.002V74.9976H91.666V66.6641Z" fill="#F1485D"/>
<path d="M100.002 66.6641H108.333V74.9976H100.002V66.6641Z" fill="#F1485D"/>
<path d="M108.333 66.6641H116.669V74.9976H108.333V66.6641Z" fill="#F1485D"/>
<path d="M116.668 66.6641H125V74.9976H116.668V66.6641Z" fill="#F1485D"/>
<path d="M125 66.6641H133.336V74.9976H125V66.6641Z" fill="#F1485D"/>
<path d="M133.335 66.6641H141.667V74.9976H133.335V66.6641Z" fill="#F1485D"/>
<path d="M141.667 66.6641H150.002V74.9976H141.667V66.6641Z" fill="#F1485D"/>
<path d="M150.002 66.6641H158.334V74.9976H150.002V66.6641Z" fill="#F1485D"/>
<path d="M158.333 66.6641H166.669V74.9976H158.333V66.6641Z" fill="#F1485D"/>
<path d="M166.669 66.6641H175V74.9976H166.669V66.6641Z" fill="#F1485D"/>
<path d="M175 66.6641H183.332V74.9976H175V66.6641Z" fill="#F1485D"/>
<path d="M183.331 66.6641H191.667V74.9976H183.331V66.6641Z" fill="#F1485D"/>
<path d="M191.667 66.6641H199.999V74.9976H191.667V66.6641Z" fill="#F1485D"/>
<path d="M199.998 66.6641H208.334V74.9976H199.998V66.6641Z" fill="#F1485D"/>
<path d="M208.334 66.6641H216.665V74.9976H208.334V66.6641Z" fill="#F1485D"/>
<path d="M216.665 66.6641H225.001V74.9976H216.665V66.6641Z" fill="#F1485D"/>
<path d="M225.001 66.6641H233.332V74.9976H225.001V66.6641Z" fill="#F1485D"/>
<path d="M233.332 66.6641H241.668V74.9976H233.332V66.6641Z" fill="#F1485D"/>
<path d="M241.668 66.6641H249.999V74.9976H241.668V66.6641Z" fill="#F1485D"/>
<path d="M249.999 66.6641H258.335V74.9976H249.999V66.6641Z" fill="#F1485D"/>
<path d="M258.335 66.6641H266.666V74.9976H258.335V66.6641Z" fill="#F1485D"/>
<path d="M266.666 66.6641H275.002V74.9976H266.666V66.6641Z" fill="#F1485D"/>
<path d="M275.002 66.6641H283.333V74.9976H275.002V66.6641Z" fill="#F1485D"/>
<path d="M283.333 66.6641H291.669V74.9976H283.333V66.6641Z" fill="#F686B0"/>
<path d="M291.669 66.6641H300V74.9976H291.669V66.6641Z" fill="#19162E"/>
<path d="M0 74.9976H8.33588V83.3311H0V74.9976Z" fill="#19162E"/>
<path d="M8.33594 74.9976H16.667V83.3311H8.33594V74.9976Z" fill="#F686B0"/>
<path d="M16.667 74.9976H25.0029V83.3311H16.667V74.9976Z" fill="#F1485D"/>
<path d="M25.0029 74.9976H33.334V83.3311H25.0029V74.9976Z" fill="#F1485D"/>
<path d="M33.3335 74.9976H41.6694V83.3311H33.3335V74.9976Z" fill="#F1485D"/>
<path d="M41.6699 74.9976H50.001V83.3311H41.6699V74.9976Z" fill="#F1485D"/>
<path d="M50.0005 74.9976H58.3317V83.3311H50.0005V74.9976Z" fill="#F1485D"/>
<path d="M58.332 74.9976H66.6678V83.3311H58.332V74.9976Z" fill="#F1485D"/>
<path d="M66.6675 74.9976H74.9986V83.3311H66.6675V74.9976Z" fill="#F1485D"/>
<path d="M74.999 74.9976H83.3348V83.3311H74.999V74.9976Z" fill="#F1485D"/>
<path d="M83.3345 74.9976H91.6656V83.3311H83.3345V74.9976Z" fill="#F1485D"/>
<path d="M91.666 74.9976H100.002V83.3311H91.666V74.9976Z" fill="#F1485D"/>
<path d="M100.002 74.9976H108.333V83.3311H100.002V74.9976Z" fill="#F1485D"/>
<path d="M108.333 74.9976H116.669V83.3311H108.333V74.9976Z" fill="#F1485D"/>
<path d="M116.668 74.9976H125V83.3311H116.668V74.9976Z" fill="#F1485D"/>
<path d="M125 74.9976H133.336V83.3311H125V74.9976Z" fill="#F1485D"/>
<path d="M133.335 74.9976H141.667V83.3311H133.335V74.9976Z" fill="#F1485D"/>
<path d="M141.667 74.9976H150.002V83.3311H141.667V74.9976Z" fill="#F1485D"/>
<path d="M150.002 74.9976H158.334V83.3311H150.002V74.9976Z" fill="#F1485D"/>
<path d="M158.333 74.9976H166.669V83.3311H158.333V74.9976Z" fill="#F1485D"/>
<path d="M166.669 74.9976H175V83.3311H166.669V74.9976Z" fill="#F1485D"/>
<path d="M175 74.9976H183.332V83.3311H175V74.9976Z" fill="#F1485D"/>
<path d="M183.331 74.9976H191.667V83.3311H183.331V74.9976Z" fill="#F1485D"/>
<path d="M191.667 74.9976H199.999V83.3311H191.667V74.9976Z" fill="#F1485D"/>
<path d="M199.998 74.9976H208.334V83.3311H199.998V74.9976Z" fill="#F1485D"/>
<path d="M208.334 74.9976H216.665V83.3311H208.334V74.9976Z" fill="#F1485D"/>
<path d="M216.665 74.9976H225.001V83.3311H216.665V74.9976Z" fill="#F1485D"/>
<path d="M225.001 74.9976H233.332V83.3311H225.001V74.9976Z" fill="#F1485D"/>
<path d="M233.332 74.9976H241.668V83.3311H233.332V74.9976Z" fill="#F1485D"/>
<path d="M241.668 74.9976H249.999V83.3311H241.668V74.9976Z" fill="#F1485D"/>
<path d="M249.999 74.9976H258.335V83.3311H249.999V74.9976Z" fill="#F1485D"/>
<path d="M258.335 74.9976H266.666V83.3311H258.335V74.9976Z" fill="#F1485D"/>
<path d="M266.666 74.9976H275.002V83.3311H266.666V74.9976Z" fill="#F1485D"/>
<path d="M275.002 74.9976H283.333V83.3311H275.002V74.9976Z" fill="#F686B0"/>
<path d="M283.333 74.9976H291.669V83.3311H283.333V74.9976Z" fill="#F686B0"/>
<path d="M291.669 74.9976H300V83.3311H291.669V74.9976Z" fill="#19162E"/>
<path d="M0 83.3306H8.33588V91.6636H0V83.3306Z" fill="#19162E"/>
<path d="M8.33594 83.3306H16.667V91.6636H8.33594V83.3306Z" fill="#CA2C59"/>
<path d="M16.667 83.3306H25.0029V91.6636H16.667V83.3306Z" fill="#F686B0"/>
<path d="M25.0029 83.3306H33.334V91.6636H25.0029V83.3306Z" fill="#F686B0"/>
<path d="M33.3335 83.3306H41.6694V91.6636H33.3335V83.3306Z" fill="#F686B0"/>
<path d="M41.6699 83.3306H50.001V91.6636H41.6699V83.3306Z" fill="#F686B0"/>
<path d="M50.0005 83.3306H58.3317V91.6636H50.0005V83.3306Z" fill="#F686B0"/>
<path d="M58.332 83.3306H66.6678V91.6636H58.332V83.3306Z" fill="#F686B0"/>
<path d="M66.6675 83.3306H74.9986V91.6636H66.6675V83.3306Z" fill="#F686B0"/>
<path d="M74.999 83.3306H83.3348V91.6636H74.999V83.3306Z" fill="#F686B0"/>
<path d="M83.3345 83.3306H91.6656V91.6636H83.3345V83.3306Z" fill="#F686B0"/>
<path d="M91.666 83.3306H100.002V91.6636H91.666V83.3306Z" fill="#F686B0"/>
<path d="M100.002 83.3306H108.333V91.6636H100.002V83.3306Z" fill="#F686B0"/>
<path d="M108.333 83.3306H116.669V91.6636H108.333V83.3306Z" fill="#F686B0"/>
<path d="M116.668 83.3306H125V91.6636H116.668V83.3306Z" fill="#F686B0"/>
<path d="M125 83.3306H133.336V91.6636H125V83.3306Z" fill="#F686B0"/>
<path d="M133.335 83.3306H141.667V91.6636H133.335V83.3306Z" fill="#F686B0"/>
<path d="M141.667 83.3306H150.002V91.6636H141.667V83.3306Z" fill="#F686B0"/>
<path d="M150.002 83.3306H158.334V91.6636H150.002V83.3306Z" fill="#F686B0"/>
<path d="M158.333 83.3306H166.669V91.6636H158.333V83.3306Z" fill="#F686B0"/>
<path d="M166.669 83.3306H175V91.6636H166.669V83.3306Z" fill="#F686B0"/>
<path d="M175 83.3306H183.332V91.6636H175V83.3306Z" fill="#F686B0"/>
<path d="M183.331 83.3306H191.667V91.6636H183.331V83.3306Z" fill="#F686B0"/>
<path d="M191.667 83.3306H199.999V91.6636H191.667V83.3306Z" fill="#F686B0"/>
<path d="M199.998 83.3306H208.334V91.6636H199.998V83.3306Z" fill="#F686B0"/>
<path d="M208.334 83.3306H216.665V91.6636H208.334V83.3306Z" fill="#F686B0"/>
<path d="M216.665 83.3306H225.001V91.6636H216.665V83.3306Z" fill="#F686B0"/>
<path d="M225.001 83.3306H233.332V91.6636H225.001V83.3306Z" fill="#F686B0"/>
<path d="M233.332 83.3306H241.668V91.6636H233.332V83.3306Z" fill="#F686B0"/>
<path d="M241.668 83.3306H249.999V91.6636H241.668V83.3306Z" fill="#F686B0"/>
<path d="M249.999 83.3306H258.335V91.6636H249.999V83.3306Z" fill="#F686B0"/>
<path d="M258.335 83.3306H266.666V91.6636H258.335V83.3306Z" fill="#F686B0"/>
<path d="M266.666 83.3306H275.002V91.6636H266.666V83.3306Z" fill="#F686B0"/>
<path d="M275.002 83.3306H283.333V91.6636H275.002V83.3306Z" fill="#F686B0"/>
<path d="M283.333 83.3306H291.669V91.6636H283.333V83.3306Z" fill="#CA2C59"/>
<path d="M291.669 83.3306H300V91.6636H291.669V83.3306Z" fill="#19162E"/>
<path d="M0 91.6641H8.33588V99.9967H0V91.6641Z" fill="#19162E"/>
<path d="M8.33594 91.6641H16.667V99.9967H8.33594V91.6641Z" fill="#CA2C59"/>
<path d="M16.667 91.6641H25.0029V99.9967H16.667V91.6641Z" fill="#CA2C59"/>
<path d="M25.0029 91.6641H33.334V99.9967H25.0029V91.6641Z" fill="#CA2C59"/>
<path d="M33.3335 91.6641H41.6694V99.9967H33.3335V91.6641Z" fill="#CA2C59"/>
<path d="M41.6699 91.6641H50.001V99.9967H41.6699V91.6641Z" fill="#CA2C59"/>
<path d="M50.0005 91.6641H58.3317V99.9967H50.0005V91.6641Z" fill="#CA2C59"/>
<path d="M58.332 91.6641H66.6678V99.9967H58.332V91.6641Z" fill="#CA2C59"/>
<path d="M66.6675 91.6641H74.9986V99.9967H66.6675V91.6641Z" fill="#CA2C59"/>
<path d="M74.999 91.6641H83.3348V99.9967H74.999V91.6641Z" fill="#CA2C59"/>
<path d="M83.3345 91.6641H91.6656V99.9967H83.3345V91.6641Z" fill="#CA2C59"/>
<path d="M91.666 91.6641H100.002V99.9967H91.666V91.6641Z" fill="#CA2C59"/>
<path d="M100.002 91.6641H108.333V99.9967H100.002V91.6641Z" fill="#CA2C59"/>
<path d="M108.333 91.6641H116.669V99.9967H108.333V91.6641Z" fill="#CA2C59"/>
<path d="M116.668 91.6641H125V99.9967H116.668V91.6641Z" fill="#CA2C59"/>
<path d="M125 91.6641H133.336V99.9967H125V91.6641Z" fill="#CA2C59"/>
<path d="M133.335 91.6641H141.667V99.9967H133.335V91.6641Z" fill="#CA2C59"/>
<path d="M141.667 91.6641H150.002V99.9967H141.667V91.6641Z" fill="#CA2C59"/>
<path d="M150.002 91.6641H158.334V99.9967H150.002V91.6641Z" fill="#CA2C59"/>
<path d="M158.333 91.6641H166.669V99.9967H158.333V91.6641Z" fill="#CA2C59"/>
<path d="M166.669 91.6641H175V99.9967H166.669V91.6641Z" fill="#CA2C59"/>
<path d="M175 91.6641H183.332V99.9967H175V91.6641Z" fill="#CA2C59"/>
<path d="M183.331 91.6641H191.667V99.9967H183.331V91.6641Z" fill="#CA2C59"/>
<path d="M191.667 91.6641H199.999V99.9967H191.667V91.6641Z" fill="#CA2C59"/>
<path d="M199.998 91.6641H208.334V99.9967H199.998V91.6641Z" fill="#CA2C59"/>
<path d="M208.334 91.6641H216.665V99.9967H208.334V91.6641Z" fill="#CA2C59"/>
<path d="M216.665 91.6641H225.001V99.9967H216.665V91.6641Z" fill="#CA2C59"/>
<path d="M225.001 91.6641H233.332V99.9967H225.001V91.6641Z" fill="#CA2C59"/>
<path d="M233.332 91.6641H241.668V99.9967H233.332V91.6641Z" fill="#CA2C59"/>
<path d="M241.668 91.6641H249.999V99.9967H241.668V91.6641Z" fill="#CA2C59"/>
<path d="M249.999 91.6641H258.335V99.9967H249.999V91.6641Z" fill="#CA2C59"/>
<path d="M258.335 91.6641H266.666V99.9967H258.335V91.6641Z" fill="#CA2C59"/>
<path d="M266.666 91.6641H275.002V99.9967H266.666V91.6641Z" fill="#CA2C59"/>
<path d="M275.002 91.6641H283.333V99.9967H275.002V91.6641Z" fill="#CA2C59"/>
<path d="M283.333 91.6641H291.669V99.9967H283.333V91.6641Z" fill="#CA2C59"/>
<path d="M291.669 91.6641H300V99.9967H291.669V91.6641Z" fill="#19162E"/>
<path d="M0 99.9961H8.33588V108.332H0V99.9961Z" fill="#19162E"/>
<path d="M8.33594 99.9961H16.667V108.332H8.33594V99.9961Z" fill="#CA2C59"/>
<path d="M16.667 99.9961H25.0029V108.332H16.667V99.9961Z" fill="#CA2C59"/>
<path d="M25.0029 99.9961H33.334V108.332H25.0029V99.9961Z" fill="#CA2C59"/>
<path d="M33.3335 99.9961H41.6694V108.332H33.3335V99.9961Z" fill="#CA2C59"/>
<path d="M41.6699 99.9961H50.001V108.332H41.6699V99.9961Z" fill="#CA2C59"/>
<path d="M50.0005 99.9961H58.3317V108.332H50.0005V99.9961Z" fill="#CA2C59"/>
<path d="M58.332 99.9961H66.6678V108.332H58.332V99.9961Z" fill="#CA2C59"/>
<path d="M66.6675 99.9961H74.9986V108.332H66.6675V99.9961Z" fill="#CA2C59"/>
<path d="M74.999 99.9961H83.3348V108.332H74.999V99.9961Z" fill="#CA2C59"/>
<path d="M83.3345 99.9961H91.6656V108.332H83.3345V99.9961Z" fill="#CA2C59"/>
<path d="M91.666 99.9961H100.002V108.332H91.666V99.9961Z" fill="#CA2C59"/>
<path d="M100.002 99.9961H108.333V108.332H100.002V99.9961Z" fill="#CA2C59"/>
<path d="M108.333 99.9961H116.669V108.332H108.333V99.9961Z" fill="#CA2C59"/>
<path d="M116.668 99.9961H125V108.332H116.668V99.9961Z" fill="#CA2C59"/>
<path d="M125 99.9961H133.336V108.332H125V99.9961Z" fill="#CA2C59"/>
<path d="M133.335 99.9961H141.667V108.332H133.335V99.9961Z" fill="#CA2C59"/>
<path d="M141.667 99.9961H150.002V108.332H141.667V99.9961Z" fill="#CA2C59"/>
<path d="M150.002 99.9961H158.334V108.332H150.002V99.9961Z" fill="#CA2C59"/>
<path d="M158.333 99.9961H166.669V108.332H158.333V99.9961Z" fill="#CA2C59"/>
<path d="M166.669 99.9961H175V108.332H166.669V99.9961Z" fill="#CA2C59"/>
<path d="M175 99.9961H183.332V108.332H175V99.9961Z" fill="#CA2C59"/>
<path d="M183.331 99.9961H191.667V108.332H183.331V99.9961Z" fill="#CA2C59"/>
<path d="M191.667 99.9961H199.999V108.332H191.667V99.9961Z" fill="#CA2C59"/>
<path d="M199.998 99.9961H208.334V108.332H199.998V99.9961Z" fill="#CA2C59"/>
<path d="M208.334 99.9961H216.665V108.332H208.334V99.9961Z" fill="#CA2C59"/>
<path d="M216.665 99.9961H225.001V108.332H216.665V99.9961Z" fill="#CA2C59"/>
<path d="M225.001 99.9961H233.332V108.332H225.001V99.9961Z" fill="#CA2C59"/>
<path d="M233.332 99.9961H241.668V108.332H233.332V99.9961Z" fill="#CA2C59"/>
<path d="M241.668 99.9961H249.999V108.332H241.668V99.9961Z" fill="#CA2C59"/>
<path d="M249.999 99.9961H258.335V108.332H249.999V99.9961Z" fill="#CA2C59"/>
<path d="M258.335 99.9961H266.666V108.332H258.335V99.9961Z" fill="#CA2C59"/>
<path d="M266.666 99.9961H275.002V108.332H266.666V99.9961Z" fill="#CA2C59"/>
<path d="M275.002 99.9961H283.333V108.332H275.002V99.9961Z" fill="#CA2C59"/>
<path d="M283.333 99.9961H291.669V108.332H283.333V99.9961Z" fill="#CA2C59"/>
<path d="M291.669 99.9961H300V108.332H291.669V99.9961Z" fill="#19162E"/>
<path d="M8.33594 108.333H16.667V116.664H8.33594V108.333Z" fill="#19162E"/>
<path d="M16.667 108.333H25.0029V116.664H16.667V108.333Z" fill="#CA2C59"/>
<path d="M25.0029 108.333H33.334V116.664H25.0029V108.333Z" fill="#CA2C59"/>
<path d="M33.3335 108.333H41.6694V116.664H33.3335V108.333Z" fill="#CA2C59"/>
<path d="M41.6699 108.333H50.001V116.664H41.6699V108.333Z" fill="#CA2C59"/>
<path d="M50.0005 108.333H58.3317V116.664H50.0005V108.333Z" fill="#CA2C59"/>
<path d="M58.332 108.333H66.6678V116.664H58.332V108.333Z" fill="#CA2C59"/>
<path d="M66.6675 108.333H74.9986V116.664H66.6675V108.333Z" fill="#CA2C59"/>
<path d="M74.999 108.333H83.3348V116.664H74.999V108.333Z" fill="#CA2C59"/>
<path d="M83.3345 108.333H91.6656V116.664H83.3345V108.333Z" fill="#CA2C59"/>
<path d="M91.666 108.333H100.002V116.664H91.666V108.333Z" fill="#CA2C59"/>
<path d="M100.002 108.333H108.333V116.664H100.002V108.333Z" fill="#CA2C59"/>
<path d="M108.333 108.333H116.669V116.664H108.333V108.333Z" fill="#CA2C59"/>
<path d="M116.668 108.333H125V116.664H116.668V108.333Z" fill="#CA2C59"/>
<path d="M125 108.333H133.336V116.664H125V108.333Z" fill="#CA2C59"/>
<path d="M133.335 108.333H141.667V116.664H133.335V108.333Z" fill="#CA2C59"/>
<path d="M141.667 108.333H150.002V116.664H141.667V108.333Z" fill="#CA2C59"/>
<path d="M150.002 108.333H158.334V116.664H150.002V108.333Z" fill="#CA2C59"/>
<path d="M158.333 108.333H166.669V116.664H158.333V108.333Z" fill="#CA2C59"/>
<path d="M166.669 108.333H175V116.664H166.669V108.333Z" fill="#CA2C59"/>
<path d="M175 108.333H183.332V116.664H175V108.333Z" fill="#CA2C59"/>
<path d="M183.331 108.333H191.667V116.664H183.331V108.333Z" fill="#CA2C59"/>
<path d="M191.667 108.333H199.999V116.664H191.667V108.333Z" fill="#CA2C59"/>
<path d="M199.998 108.333H208.334V116.664H199.998V108.333Z" fill="#CA2C59"/>
<path d="M208.334 108.333H216.665V116.664H208.334V108.333Z" fill="#CA2C59"/>
<path d="M216.665 108.333H225.001V116.664H216.665V108.333Z" fill="#CA2C59"/>
<path d="M225.001 108.333H233.332V116.664H225.001V108.333Z" fill="#CA2C59"/>
<path d="M233.332 108.333H241.668V116.664H233.332V108.333Z" fill="#CA2C59"/>
<path d="M241.668 108.333H249.999V116.664H241.668V108.333Z" fill="#CA2C59"/>
<path d="M249.999 108.333H258.335V116.664H249.999V108.333Z" fill="#CA2C59"/>
<path d="M258.335 108.333H266.666V116.664H258.335V108.333Z" fill="#CA2C59"/>
<path d="M266.666 108.333H275.002V116.664H266.666V108.333Z" fill="#CA2C59"/>
<path d="M275.002 108.333H283.333V116.664H275.002V108.333Z" fill="#CA2C59"/>
<path d="M283.333 108.333H291.669V116.664H283.333V108.333Z" fill="#19162E"/>
<path d="M16.667 116.664H25.0029V125H16.667V116.664Z" fill="#19162E"/>
<path d="M25.0029 116.664H33.334V125H25.0029V116.664Z" fill="#19162E"/>
<path d="M33.3335 116.664H41.6694V125H33.3335V116.664Z" fill="#19162E"/>
<path d="M41.6699 116.664H50.001V125H41.6699V116.664Z" fill="#19162E"/>
<path d="M50.0005 116.664H58.3317V125H50.0005V116.664Z" fill="#19162E"/>
<path d="M58.332 116.664H66.6678V125H58.332V116.664Z" fill="#19162E"/>
<path d="M66.6675 116.664H74.9986V125H66.6675V116.664Z" fill="#19162E"/>
<path d="M74.999 116.664H83.3348V125H74.999V116.664Z" fill="#19162E"/>
<path d="M83.3345 116.664H91.6656V125H83.3345V116.664Z" fill="#19162E"/>
<path d="M91.666 116.664H100.002V125H91.666V116.664Z" fill="#19162E"/>
<path d="M100.002 116.664H108.333V125H100.002V116.664Z" fill="#19162E"/>
<path d="M108.333 116.664H116.669V125H108.333V116.664Z" fill="#19162E"/>
<path d="M116.668 116.664H125V125H116.668V116.664Z" fill="#19162E"/>
<path d="M125 116.664H133.336V125H125V116.664Z" fill="#19162E"/>
<path d="M133.335 116.664H141.667V125H133.335V116.664Z" fill="#19162E"/>
<path d="M141.667 116.664H150.002V125H141.667V116.664Z" fill="#19162E"/>
<path d="M150.002 116.664H158.334V125H150.002V116.664Z" fill="#19162E"/>
<path d="M158.333 116.664H166.669V125H158.333V116.664Z" fill="#19162E"/>
<path d="M166.669 116.664H175V125H166.669V116.664Z" fill="#19162E"/>
<path d="M175 116.664H183.332V125H175V116.664Z" fill="#19162E"/>
<path d="M183.331 116.664H191.667V125H183.331V116.664Z" fill="#19162E"/>
<path d="M191.667 116.664H199.999V125H191.667V116.664Z" fill="#19162E"/>
<path d="M199.998 116.664H208.334V125H199.998V116.664Z" fill="#19162E"/>
<path d="M208.334 116.664H216.665V125H208.334V116.664Z" fill="#19162E"/>
<path d="M216.665 116.664H225.001V125H216.665V116.664Z" fill="#19162E"/>
<path d="M225.001 116.664H233.332V125H225.001V116.664Z" fill="#19162E"/>
<path d="M233.332 116.664H241.668V125H233.332V116.664Z" fill="#19162E"/>
<path d="M241.668 116.664H249.999V125H241.668V116.664Z" fill="#19162E"/>
<path d="M249.999 116.664H258.335V125H249.999V116.664Z" fill="#19162E"/>
<path d="M258.335 116.664H266.666V125H258.335V116.664Z" fill="#19162E"/>
<path d="M266.666 116.664H275.002V125H266.666V116.664Z" fill="#19162E"/>
<path d="M275.002 116.664H283.333V125H275.002V116.664Z" fill="#19162E"/>
<path d="M97.4058 25H105.742V33.3359H97.4058V25Z" fill="#FFFCFE"/>
<path d="M114.073 25H122.409V33.3359H114.073V25Z" fill="#FFFCFE"/>
<path d="M97.4058 33.3358H105.742V41.667H97.4058V33.3358Z" fill="#FFFCFE"/>
<path d="M114.073 33.3358H122.409V41.667H114.073V33.3358Z" fill="#FFFCFE"/>
<path d="M97.4058 41.667H105.742V50.0029H97.4058V41.667Z" fill="#FFFCFE"/>
<path d="M114.073 41.667H122.409V50.0029H114.073V41.667Z" fill="#FFFCFE"/>
<path d="M97.4058 50.0028H105.742V58.334H97.4058V50.0028Z" fill="#FFFCFE"/>
<path d="M114.073 50.0028H122.409V58.334H114.073V50.0028Z" fill="#FFFCFE"/>
<path d="M97.4058 58.334H105.742V66.6699H97.4058V58.334Z" fill="#FFFCFE"/>
<path d="M105.742 58.334H114.073V66.6699H105.742V58.334Z" fill="#FFFCFE"/>
<path d="M89.3359 25H81V33.3359H89.3359V25Z" fill="#FFFCFE"/>
<path d="M89.3359 33.3358H81V41.667H89.3359V33.3358Z" fill="#FFFCFE"/>
<path d="M89.3359 41.667H81V50.0029H89.3359V41.667Z" fill="#FFFCFE"/>
<path d="M89.3359 50.0028H81V58.334H89.3359V50.0028Z" fill="#FFFCFE"/>
<path d="M97.667 58.334H89.3359V66.6699H97.667V58.334Z" fill="#FFFCFE"/>
<path d="M133 25H141.332V33.3334H133V25Z" fill="#FFFCFE"/>
<path d="M141.331 25H149.667V33.3334H141.331V25Z" fill="#FFFCFE"/>
<path d="M149.667 25H157.998V33.3334H149.667V25Z" fill="#FFFCFE"/>
<path d="M133 33.3335H141.332V41.6669H133V33.3335Z" fill="#FFFCFE"/>
<path d="M149.667 33.3335H157.998V41.6669H149.667V33.3335Z" fill="#FFFCFE"/>
<path d="M133 41.666H141.332V49.999H133V41.666Z" fill="#FFFCFE"/>
<path d="M141.331 41.666H149.667V49.999H141.331V41.666Z" fill="#FFFCFE"/>
<path d="M149.667 41.666H157.998V49.999H149.667V41.666Z" fill="#FFFCFE"/>
<path d="M133 49.999H141.332V58.3325H133V49.999Z" fill="#FFFCFE"/>
<path d="M149.667 49.999H157.998V58.3325H149.667V49.999Z" fill="#FFFCFE"/>
<path d="M133 58.333H141.332V66.666H133V58.333Z" fill="#FFFCFE"/>
<path d="M149.667 58.333H157.998V66.666H149.667V58.333Z" fill="#FFFCFE"/>
<path d="M167 25H175.332V33.3334H167V25Z" fill="#FFFCFE"/>
<path d="M167 33.3335H175.332V41.6669H167V33.3335Z" fill="#FFFCFE"/>
<path d="M167 41.666H175.332V49.999H167V41.666Z" fill="#FFFCFE"/>
<path d="M167 49.999H175.332V58.3325H167V49.999Z" fill="#FFFCFE"/>
<path d="M167 58.333H175.332V66.666H167V58.333Z" fill="#FFFCFE"/>
<path d="M175.332 58.333H183.668V66.666H175.332V58.333Z" fill="#FFFCFE"/>
<path d="M183.667 58.333H191.999V66.666H183.667V58.333Z" fill="#FFFCFE"/>
<path d="M200 24.9999H208.337V33.332H200V24.9999Z" fill="#FFFCFE"/>
<path d="M216.669 24.9999H225.006V33.332H216.669V24.9999Z" fill="#FFFCFE"/>
<path d="M200 33.3321H208.337V41.6689H200V33.3321Z" fill="#FFFCFE"/>
<path d="M216.669 33.3321H225.006V41.6689H216.669V33.3321Z" fill="#FFFCFE"/>
<path d="M200 41.6689H208.337V50.001H200V41.6689Z" fill="#FFFCFE"/>
<path d="M208.337 41.6689H216.669V50.001H208.337V41.6689Z" fill="#FFFCFE"/>
<path d="M200 50.0011H208.337V58.3379H200V50.0011Z" fill="#FFFCFE"/>
<path d="M216.669 50.0011H225.006V58.3379H216.669V50.0011Z" fill="#FFFCFE"/>
<path d="M200 58.3378H208.337V66.6699H200V58.3378Z" fill="#FFFCFE"/>
<path d="M216.669 58.3378H225.006V66.6699H216.669V58.3378Z" fill="#FFFCFE"/>
</g>
<defs>
<clipPath id="clip0_109_8006">
<rect width="300" height="125" fill="white"/>
</clipPath>
</defs>
</svg>
