<svg width="406" height="271" viewBox="0 0 406 271" fill="none" xmlns="http://www.w3.org/2000/svg">
<path d="M22.5442 247.827H0V270.371H22.5442V247.827Z" fill="#808080"/>
<path d="M67.6008 247.827H45.0566V270.371H67.6008V247.827Z" fill="#808080"/>
<path d="M90.145 247.827H67.6008V270.371H90.145V247.827Z" fill="#808080"/>
<path d="M360.516 247.827H337.972V270.371H360.516V247.827Z" fill="#808080"/>
<path d="M405.572 247.827H383.028V270.371H405.572V247.827Z" fill="#808080"/>
<path d="M247.869 67.5791H225.325V90.1233H247.869V67.5791Z" fill="#403C34"/>
<path d="M292.925 67.5791H270.381V90.1233H292.925V67.5791Z" fill="#403C34"/>
<path d="M67.6111 112.636H45.0669V135.18H67.6111V112.636Z" fill="#403C34"/>
<path d="M90.1553 157.692H67.6111V180.237H90.1553V157.692Z" fill="#403C34"/>
<path d="M135.212 180.236H112.667V202.781H135.212V180.236Z" fill="#403C34"/>
<path d="M180.268 180.236H157.724V202.781H180.268V180.236Z" fill="#403C34"/>
<path d="M135.212 202.749H112.667V225.293H135.212V202.749Z" fill="#403C34"/>
<path d="M180.268 202.749H157.724V225.293H180.268V202.749Z" fill="#403C34"/>
<path d="M202.781 22.5225H180.236V45.0667H202.781V22.5225Z" fill="#403C34"/>
<path d="M337.982 22.5225H315.438V45.0667H337.982V22.5225Z" fill="#403C34"/>
<path d="M202.781 45.0361H180.236V67.5794H202.781V45.0361Z" fill="#403C34"/>
<path d="M225.325 45.0361H202.781V67.5794H225.325V45.0361Z" fill="#403C34"/>
<path d="M315.438 45.0361H292.893V67.5794H315.438V45.0361Z" fill="#403C34"/>
<path d="M337.982 45.0361H315.438V67.5794H337.982V45.0361Z" fill="#403C34"/>
<path d="M180.268 67.5791H157.724V90.1233H180.268V67.5791Z" fill="#403C34"/>
<path d="M202.781 67.5791H180.236V90.1233H202.781V67.5791Z" fill="#403C34"/>
<path d="M225.325 67.5791H202.781V90.1233H225.325V67.5791Z" fill="#403C34"/>
<path d="M270.381 67.5791H247.837V90.1233H270.381V67.5791Z" fill="#403C34"/>
<path d="M315.438 67.5791H292.893V90.1233H315.438V67.5791Z" fill="#403C34"/>
<path d="M337.982 67.5791H315.438V90.1233H337.982V67.5791Z" fill="#403C34"/>
<path d="M360.494 67.5791H337.95V90.1233H360.494V67.5791Z" fill="#403C34"/>
<path d="M67.6111 90.1221H45.0669V112.666H67.6111V90.1221Z" fill="#403C34"/>
<path d="M180.268 90.1221H157.724V112.666H180.268V90.1221Z" fill="#403C34"/>
<path d="M202.781 90.1221H180.236V112.666H202.781V90.1221Z" fill="#403C34"/>
<path d="M225.325 90.1221H202.781V112.666H225.325V90.1221Z" fill="#403C34"/>
<path d="M247.869 90.1221H225.325V112.666H247.869V90.1221Z" fill="#403C34"/>
<path d="M270.381 90.1221H247.837V112.666H270.381V90.1221Z" fill="#403C34"/>
<path d="M292.925 90.1221H270.381V112.666H292.925V90.1221Z" fill="#403C34"/>
<path d="M315.438 90.1221H292.893V112.666H315.438V90.1221Z" fill="#403C34"/>
<path d="M337.982 90.1221H315.438V112.666H337.982V90.1221Z" fill="#403C34"/>
<path d="M360.494 90.1221H337.95V112.666H360.494V90.1221Z" fill="#403C34"/>
<path d="M180.268 112.636H157.724V135.18H180.268V112.636Z" fill="#403C34"/>
<path d="M202.781 112.636H180.236V135.18H202.781V112.636Z" fill="#403C34"/>
<path d="M225.325 112.636H202.781V135.18H225.325V112.636Z" fill="#403C34"/>
<path d="M270.381 112.636H247.837V135.18H270.381V112.636Z" fill="#403C34"/>
<path d="M292.925 112.636H270.381V135.18H292.925V112.636Z" fill="#403C34"/>
<path d="M315.438 112.636H292.893V135.18H315.438V112.636Z" fill="#403C34"/>
<path d="M360.494 112.636H337.95V135.18H360.494V112.636Z" fill="#403C34"/>
<path d="M67.6111 135.181H45.0669V157.725H67.6111V135.181Z" fill="#403C34"/>
<path d="M90.1553 135.181H67.6111V157.725H90.1553V135.181Z" fill="#403C34"/>
<path d="M180.268 135.181H157.724V157.725H180.268V135.181Z" fill="#403C34"/>
<path d="M202.781 135.181H180.236V157.725H202.781V135.181Z" fill="#403C34"/>
<path d="M225.325 135.181H202.781V157.725H225.325V135.181Z" fill="#403C34"/>
<path d="M247.869 135.181H225.325V157.725H247.869V135.181Z" fill="#403C34"/>
<path d="M337.982 135.181H315.438V157.725H337.982V135.181Z" fill="#403C34"/>
<path d="M360.494 135.181H337.95V157.725H360.494V135.181Z" fill="#403C34"/>
<path d="M112.667 157.692H90.1235V180.237H112.667V157.692Z" fill="#403C34"/>
<path d="M202.781 157.692H180.236V180.237H202.781V157.692Z" fill="#403C34"/>
<path d="M225.325 157.692H202.781V180.237H225.325V157.692Z" fill="#403C34"/>
<path d="M112.667 180.236H90.1235V202.781H112.667V180.236Z" fill="#403C34"/>
<path d="M157.724 180.236H135.18V202.781H157.724V180.236Z" fill="#403C34"/>
<path d="M157.724 202.749H135.18V225.293H157.724V202.749Z" fill="#403C34"/>
<path d="M202.781 202.749H180.236V225.293H202.781V202.749Z" fill="#403C34"/>
<path d="M225.325 202.749H202.781V225.293H225.325V202.749Z" fill="#403C34"/>
<path d="M247.869 202.749H225.325V225.293H247.869V202.749Z" fill="#403C34"/>
<path d="M270.381 202.749H247.837V225.293H270.381V202.749Z" fill="#403C34"/>
<path d="M292.925 202.749H270.381V225.293H292.925V202.749Z" fill="#403C34"/>
<path d="M315.438 202.749H292.893V225.293H315.438V202.749Z" fill="#403C34"/>
<path d="M135.212 225.292H112.667V247.836H135.212V225.292Z" fill="#403C34"/>
<path d="M157.724 225.292H135.18V247.836H157.724V225.292Z" fill="#403C34"/>
<path d="M180.268 225.292H157.724V247.836H180.268V225.292Z" fill="#403C34"/>
<path d="M202.781 225.292H180.236V247.836H202.781V225.292Z" fill="#403C34"/>
<path d="M225.325 225.292H202.781V247.836H225.325V225.292Z" fill="#403C34"/>
<path d="M247.869 225.292H225.325V247.836H247.869V225.292Z" fill="#403C34"/>
<path d="M270.381 225.292H247.837V247.836H270.381V225.292Z" fill="#403C34"/>
<path d="M292.925 225.292H270.381V247.836H292.925V225.292Z" fill="#403C34"/>
<path d="M315.438 225.292H292.893V247.836H315.438V225.292Z" fill="#403C34"/>
<path d="M270.381 135.181H247.837V157.725H270.381V135.181Z" fill="#403C34"/>
<path d="M292.925 135.181H270.381V157.725H292.925V135.181Z" fill="#403C34"/>
<path d="M315.438 135.181H292.893V157.725H315.438V135.181Z" fill="#403C34"/>
<path d="M247.869 157.692H225.325V180.237H247.869V157.692Z" fill="#403C34"/>
<path d="M270.381 157.692H247.837V180.237H270.381V157.692Z" fill="#403C34"/>
<path d="M292.925 157.692H270.381V180.237H292.925V157.692Z" fill="#403C34"/>
<path d="M315.438 157.692H292.893V180.237H315.438V157.692Z" fill="#403C34"/>
<path d="M337.982 157.692H315.438V180.237H337.982V157.692Z" fill="#403C34"/>
<path d="M135.212 247.837H112.667V270.381H135.212V247.837Z" fill="#403C34"/>
<path d="M180.268 247.837H157.724V270.381H180.268V247.837Z" fill="#403C34"/>
<path d="M270.381 247.837H247.837V270.381H270.381V247.837Z" fill="#403C34"/>
<path d="M315.438 247.837H292.893V270.381H315.438V247.837Z" fill="#403C34"/>
<path d="M180.258 157.713H157.714V180.257H180.258V157.713Z" fill="black"/>
<path d="M202.802 180.226H180.258V202.77H202.802V180.226Z" fill="black"/>
<path d="M225.314 180.226H202.77V202.77H225.314V180.226Z" fill="black"/>
<path d="M247.859 180.226H225.314V202.77H247.859V180.226Z" fill="black"/>
<path d="M270.371 180.226H247.827V202.77H270.371V180.226Z" fill="black"/>
<path d="M292.915 180.226H270.371V202.77H292.915V180.226Z" fill="black"/>
<path d="M315.459 180.226H292.915V202.77H315.459V180.226Z" fill="black"/>
<path d="M180.258 0H157.714V22.5442H180.258V0Z" fill="black"/>
<path d="M202.802 0H180.258V22.5442H202.802V0Z" fill="black"/>
<path d="M337.972 0H315.428V22.5442H337.972V0Z" fill="black"/>
<path d="M360.515 0H337.971V22.5442H360.515V0Z" fill="black"/>
<path d="M180.258 22.5117H157.714V45.0559H180.258V22.5117Z" fill="black"/>
<path d="M225.314 22.5117H202.77V45.0559H225.314V22.5117Z" fill="black"/>
<path d="M315.459 22.5117H292.915V45.0559H315.459V22.5117Z" fill="black"/>
<path d="M360.515 22.5117H337.971V45.0559H360.515V22.5117Z" fill="black"/>
<path d="M180.258 45.0557H157.714V67.5999H180.258V45.0557Z" fill="black"/>
<path d="M247.859 45.0557H225.314V67.5999H247.859V45.0557Z" fill="black"/>
<path d="M270.371 45.0557H247.827V67.5999H270.371V45.0557Z" fill="black"/>
<path d="M292.915 45.0557H270.371V67.5999H292.915V45.0557Z" fill="black"/>
<path d="M360.515 45.0557H337.971V67.5999H360.515V45.0557Z" fill="black"/>
<path d="M67.6008 67.5684H45.0566V90.1126H67.6008V67.5684Z" fill="black"/>
<path d="M90.145 67.5684H67.6008V90.1126H90.145V67.5684Z" fill="black"/>
<path d="M157.746 67.5684H135.201V90.1126H157.746V67.5684Z" fill="black"/>
<path d="M383.028 67.5684H360.484V90.1126H383.028V67.5684Z" fill="black"/>
<path d="M45.0884 90.1123H22.5442V112.657H45.0884V90.1123Z" fill="black"/>
<path d="M90.145 90.1123H67.6008V112.657H90.145V90.1123Z" fill="black"/>
<path d="M157.746 90.1123H135.201V112.657H157.746V90.1123Z" fill="black"/>
<path d="M383.028 90.1123H360.484V112.657H383.028V90.1123Z" fill="black"/>
<path d="M45.0884 112.624H22.5442V135.168H45.0884V112.624Z" fill="black"/>
<path d="M90.145 112.624H67.6008V135.168H90.145V112.624Z" fill="black"/>
<path d="M157.746 112.624H135.201V135.168H157.746V112.624Z" fill="black"/>
<path d="M383.028 112.624H360.484V135.168H383.028V112.624Z" fill="black"/>
<path d="M45.0884 135.168H22.5442V157.712H45.0884V135.168Z" fill="black"/>
<path d="M112.657 135.168H90.113V157.712H112.657V135.168Z" fill="black"/>
<path d="M157.746 135.168H135.201V157.712H157.746V135.168Z" fill="black"/>
<path d="M383.028 135.168H360.484V157.712H383.028V135.168Z" fill="black"/>
<path d="M67.6008 157.713H45.0566V180.257H67.6008V157.713Z" fill="black"/>
<path d="M135.201 157.713H112.657V180.257H135.201V157.713Z" fill="black"/>
<path d="M157.746 157.713H135.201V180.257H157.746V157.713Z" fill="black"/>
<path d="M360.515 157.713H337.971V180.257H360.515V157.713Z" fill="black"/>
<path d="M90.145 180.226H67.6008V202.77H90.145V180.226Z" fill="black"/>
<path d="M337.972 180.226H315.428V202.77H337.972V180.226Z" fill="black"/>
<path d="M112.657 202.77H90.113V225.314H112.657V202.77Z" fill="black"/>
<path d="M337.972 202.77H315.428V225.314H337.972V202.77Z" fill="black"/>
<path d="M112.657 225.282H90.113V247.826H112.657V225.282Z" fill="black"/>
<path d="M337.972 225.282H315.428V247.826H337.972V225.282Z" fill="black"/>
<path d="M112.657 247.826H90.113V270.37H112.657V247.826Z" fill="black"/>
<path d="M157.746 247.826H135.201V270.37H157.746V247.826Z" fill="black"/>
<path d="M202.802 247.826H180.258V270.37H202.802V247.826Z" fill="black"/>
<path d="M225.314 247.826H202.77V270.37H225.314V247.826Z" fill="black"/>
<path d="M247.859 247.826H225.314V270.37H247.859V247.826Z" fill="black"/>
<path d="M292.915 247.826H270.371V270.37H292.915V247.826Z" fill="black"/>
<path d="M337.972 247.826H315.428V270.37H337.972V247.826Z" fill="black"/>
<path d="M247.869 112.636H225.325V135.18H247.869V112.636Z" fill="#48D249"/>
<path d="M337.982 112.636H315.438V135.18H337.982V112.636Z" fill="#48D249"/>
</svg>
