<svg width="406" height="271" viewBox="0 0 406 271" fill="none" xmlns="http://www.w3.org/2000/svg">
<path d="M247.859 67.5684H225.314V90.1126H247.859V67.5684Z" fill="#DE7728"/>
<path d="M292.915 67.5684H270.371V90.1126H292.915V67.5684Z" fill="#DE7728"/>
<path d="M67.6328 112.624H45.0886V135.168H67.6328V112.624Z" fill="#DE7728"/>
<path d="M90.1453 157.713H67.6011V180.257H90.1453V157.713Z" fill="#DE7728"/>
<path d="M135.201 180.226H112.657V202.77H135.201V180.226Z" fill="#DE7728"/>
<path d="M180.258 180.226H157.714V202.77H180.258V180.226Z" fill="#DE7728"/>
<path d="M135.201 202.77H112.657V225.314H135.201V202.77Z" fill="#DE7728"/>
<path d="M180.258 202.77H157.714V225.314H180.258V202.77Z" fill="#DE7728"/>
<path d="M202.802 22.5117H180.258V45.0559H202.802V22.5117Z" fill="#E9AE4F"/>
<path d="M337.971 22.5117H315.427V45.0559H337.971V22.5117Z" fill="#E9AE4F"/>
<path d="M202.802 45.0557H180.258V67.5999H202.802V45.0557Z" fill="#E9AE4F"/>
<path d="M225.346 45.0557H202.802V67.5999H225.346V45.0557Z" fill="#E9AE4F"/>
<path d="M315.459 45.0557H292.915V67.5999H315.459V45.0557Z" fill="#E9AE4F"/>
<path d="M337.971 45.0557H315.427V67.5999H337.971V45.0557Z" fill="#E9AE4F"/>
<path d="M180.258 67.5684H157.714V90.1126H180.258V67.5684Z" fill="#E9AE4F"/>
<path d="M202.802 67.5684H180.258V90.1126H202.802V67.5684Z" fill="#E9AE4F"/>
<path d="M225.346 67.5684H202.802V90.1126H225.346V67.5684Z" fill="#E9AE4F"/>
<path d="M270.403 67.5684H247.859V90.1126H270.403V67.5684Z" fill="#E9AE4F"/>
<path d="M315.459 67.5684H292.915V90.1126H315.459V67.5684Z" fill="#E9AE4F"/>
<path d="M337.971 67.5684H315.427V90.1126H337.971V67.5684Z" fill="#E9AE4F"/>
<path d="M360.516 67.5684H337.971V90.1126H360.516V67.5684Z" fill="#E9AE4F"/>
<path d="M67.6328 90.1123H45.0886V112.657H67.6328V90.1123Z" fill="#E9AE4F"/>
<path d="M180.258 90.1123H157.714V112.657H180.258V90.1123Z" fill="#E9AE4F"/>
<path d="M202.802 90.1123H180.258V112.657H202.802V90.1123Z" fill="#E9AE4F"/>
<path d="M225.346 90.1123H202.802V112.657H225.346V90.1123Z" fill="#E9AE4F"/>
<path d="M247.859 90.1123H225.314V112.657H247.859V90.1123Z" fill="#E9AE4F"/>
<path d="M270.403 90.1123H247.859V112.657H270.403V90.1123Z" fill="#E9AE4F"/>
<path d="M292.915 90.1123H270.371V112.657H292.915V90.1123Z" fill="#E9AE4F"/>
<path d="M315.459 90.1123H292.915V112.657H315.459V90.1123Z" fill="#E9AE4F"/>
<path d="M337.971 90.1123H315.427V112.657H337.971V90.1123Z" fill="#E9AE4F"/>
<path d="M360.516 90.1123H337.971V112.657H360.516V90.1123Z" fill="#E9AE4F"/>
<path d="M180.258 112.624H157.714V135.168H180.258V112.624Z" fill="#E9AE4F"/>
<path d="M202.802 112.624H180.258V135.168H202.802V112.624Z" fill="#E9AE4F"/>
<path d="M225.346 112.624H202.802V135.168H225.346V112.624Z" fill="#E9AE4F"/>
<path d="M270.403 112.624H247.859V135.168H270.403V112.624Z" fill="#E9AE4F"/>
<path d="M292.915 112.624H270.371V135.168H292.915V112.624Z" fill="#E9AE4F"/>
<path d="M315.459 112.624H292.915V135.168H315.459V112.624Z" fill="#E9AE4F"/>
<path d="M360.516 112.624H337.971V135.168H360.516V112.624Z" fill="#E9AE4F"/>
<path d="M67.6328 135.168H45.0886V157.712H67.6328V135.168Z" fill="#E9AE4F"/>
<path d="M90.1453 135.168H67.6011V157.712H90.1453V135.168Z" fill="#E9AE4F"/>
<path d="M180.258 135.168H157.714V157.712H180.258V135.168Z" fill="#E9AE4F"/>
<path d="M202.802 135.168H180.258V157.712H202.802V135.168Z" fill="#E9AE4F"/>
<path d="M225.346 135.168H202.802V157.712H225.346V135.168Z" fill="#E9AE4F"/>
<path d="M247.859 135.168H225.314V157.712H247.859V135.168Z" fill="#E9AE4F"/>
<path d="M337.971 135.168H315.427V157.712H337.971V135.168Z" fill="#E9AE4F"/>
<path d="M360.516 135.168H337.971V157.712H360.516V135.168Z" fill="#E9AE4F"/>
<path d="M112.689 157.713H90.145V180.257H112.689V157.713Z" fill="#E9AE4F"/>
<path d="M202.802 157.713H180.258V180.257H202.802V157.713Z" fill="#E9AE4F"/>
<path d="M225.346 157.713H202.802V180.257H225.346V157.713Z" fill="#E9AE4F"/>
<path d="M112.689 180.226H90.145V202.77H112.689V180.226Z" fill="#E9AE4F"/>
<path d="M157.746 180.226H135.201V202.77H157.746V180.226Z" fill="#E9AE4F"/>
<path d="M157.746 202.77H135.201V225.314H157.746V202.77Z" fill="#E9AE4F"/>
<path d="M202.802 202.77H180.258V225.314H202.802V202.77Z" fill="#E9AE4F"/>
<path d="M225.346 202.77H202.802V225.314H225.346V202.77Z" fill="#E9AE4F"/>
<path d="M247.859 202.77H225.314V225.314H247.859V202.77Z" fill="#E9AE4F"/>
<path d="M270.403 202.77H247.859V225.314H270.403V202.77Z" fill="#E9AE4F"/>
<path d="M292.915 202.77H270.371V225.314H292.915V202.77Z" fill="#E9AE4F"/>
<path d="M315.459 202.77H292.915V225.314H315.459V202.77Z" fill="#E9AE4F"/>
<path d="M135.201 225.282H112.657V247.826H135.201V225.282Z" fill="#E9AE4F"/>
<path d="M157.746 225.282H135.201V247.826H157.746V225.282Z" fill="#E9AE4F"/>
<path d="M180.258 225.282H157.714V247.826H180.258V225.282Z" fill="#E9AE4F"/>
<path d="M202.802 225.282H180.258V247.826H202.802V225.282Z" fill="#E9AE4F"/>
<path d="M225.346 225.282H202.802V247.826H225.346V225.282Z" fill="#E9AE4F"/>
<path d="M247.859 225.282H225.314V247.826H247.859V225.282Z" fill="#E9AE4F"/>
<path d="M270.403 225.282H247.859V247.826H270.403V225.282Z" fill="#E9AE4F"/>
<path d="M292.915 225.282H270.371V247.826H292.915V225.282Z" fill="#E9AE4F"/>
<path d="M315.459 225.282H292.915V247.826H315.459V225.282Z" fill="#E9AE4F"/>
<path d="M270.403 135.168H247.859V157.712H270.403V135.168Z" fill="white"/>
<path d="M292.915 135.168H270.371V157.712H292.915V135.168Z" fill="white"/>
<path d="M315.459 135.168H292.915V157.712H315.459V135.168Z" fill="white"/>
<path d="M247.859 157.713H225.314V180.257H247.859V157.713Z" fill="white"/>
<path d="M270.403 157.713H247.859V180.257H270.403V157.713Z" fill="white"/>
<path d="M292.915 157.713H270.371V180.257H292.915V157.713Z" fill="white"/>
<path d="M315.459 157.713H292.915V180.257H315.459V157.713Z" fill="white"/>
<path d="M337.971 157.713H315.427V180.257H337.971V157.713Z" fill="white"/>
<path d="M135.201 247.826H112.657V270.37H135.201V247.826Z" fill="white"/>
<path d="M180.258 247.826H157.714V270.37H180.258V247.826Z" fill="white"/>
<path d="M270.403 247.826H247.859V270.37H270.403V247.826Z" fill="white"/>
<path d="M315.459 247.826H292.915V270.37H315.459V247.826Z" fill="white"/>
<path d="M180.258 157.713H157.714V180.257H180.258V157.713Z" fill="black"/>
<path d="M202.802 180.226H180.258V202.77H202.802V180.226Z" fill="black"/>
<path d="M225.346 180.226H202.802V202.77H225.346V180.226Z" fill="black"/>
<path d="M247.859 180.226H225.314V202.77H247.859V180.226Z" fill="black"/>
<path d="M270.403 180.226H247.859V202.77H270.403V180.226Z" fill="black"/>
<path d="M292.915 180.226H270.371V202.77H292.915V180.226Z" fill="black"/>
<path d="M315.459 180.226H292.915V202.77H315.459V180.226Z" fill="black"/>
<path d="M180.258 0H157.714V22.5442H180.258V0Z" fill="black"/>
<path d="M202.802 0H180.258V22.5442H202.802V0Z" fill="black"/>
<path d="M337.971 0H315.427V22.5442H337.971V0Z" fill="black"/>
<path d="M360.516 0H337.971V22.5442H360.516V0Z" fill="black"/>
<path d="M180.258 22.5117H157.714V45.0559H180.258V22.5117Z" fill="black"/>
<path d="M225.346 22.5117H202.802V45.0559H225.346V22.5117Z" fill="black"/>
<path d="M315.459 22.5117H292.915V45.0559H315.459V22.5117Z" fill="black"/>
<path d="M360.516 22.5117H337.971V45.0559H360.516V22.5117Z" fill="black"/>
<path d="M180.258 45.0557H157.714V67.5999H180.258V45.0557Z" fill="black"/>
<path d="M247.859 45.0557H225.314V67.5999H247.859V45.0557Z" fill="black"/>
<path d="M270.403 45.0557H247.859V67.5999H270.403V45.0557Z" fill="black"/>
<path d="M292.915 45.0557H270.371V67.5999H292.915V45.0557Z" fill="black"/>
<path d="M360.516 45.0557H337.971V67.5999H360.516V45.0557Z" fill="black"/>
<path d="M67.6328 67.5684H45.0886V90.1126H67.6328V67.5684Z" fill="black"/>
<path d="M90.1453 67.5684H67.6011V90.1126H90.1453V67.5684Z" fill="black"/>
<path d="M157.746 67.5684H135.201V90.1126H157.746V67.5684Z" fill="black"/>
<path d="M383.06 67.5684H360.516V90.1126H383.06V67.5684Z" fill="black"/>
<path d="M45.0886 90.1123H22.5444V112.657H45.0886V90.1123Z" fill="black"/>
<path d="M90.1453 90.1123H67.6011V112.657H90.1453V90.1123Z" fill="black"/>
<path d="M157.746 90.1123H135.201V112.657H157.746V90.1123Z" fill="black"/>
<path d="M383.06 90.1123H360.516V112.657H383.06V90.1123Z" fill="black"/>
<path d="M45.0886 112.624H22.5444V135.168H45.0886V112.624Z" fill="black"/>
<path d="M90.1453 112.624H67.6011V135.168H90.1453V112.624Z" fill="black"/>
<path d="M157.746 112.624H135.201V135.168H157.746V112.624Z" fill="black"/>
<path d="M247.859 112.624H225.314V135.168H247.859V112.624Z" fill="black"/>
<path d="M337.971 112.624H315.427V135.168H337.971V112.624Z" fill="black"/>
<path d="M383.06 112.624H360.516V135.168H383.06V112.624Z" fill="black"/>
<path d="M45.0886 135.168H22.5444V157.712H45.0886V135.168Z" fill="black"/>
<path d="M112.689 135.168H90.145V157.712H112.689V135.168Z" fill="black"/>
<path d="M157.746 135.168H135.201V157.712H157.746V135.168Z" fill="black"/>
<path d="M383.06 135.168H360.516V157.712H383.06V135.168Z" fill="black"/>
<path d="M67.6328 157.713H45.0886V180.257H67.6328V157.713Z" fill="black"/>
<path d="M135.201 157.713H112.657V180.257H135.201V157.713Z" fill="black"/>
<path d="M157.746 157.713H135.201V180.257H157.746V157.713Z" fill="black"/>
<path d="M360.516 157.713H337.971V180.257H360.516V157.713Z" fill="black"/>
<path d="M90.1453 180.226H67.6011V202.77H90.1453V180.226Z" fill="black"/>
<path d="M337.971 180.226H315.427V202.77H337.971V180.226Z" fill="black"/>
<path d="M112.689 202.77H90.145V225.314H112.689V202.77Z" fill="black"/>
<path d="M337.971 202.77H315.427V225.314H337.971V202.77Z" fill="black"/>
<path d="M112.689 225.282H90.145V247.826H112.689V225.282Z" fill="black"/>
<path d="M337.971 225.282H315.427V247.826H337.971V225.282Z" fill="black"/>
<path d="M112.689 247.826H90.145V270.37H112.689V247.826Z" fill="black"/>
<path d="M157.746 247.826H135.201V270.37H157.746V247.826Z" fill="black"/>
<path d="M202.802 247.826H180.258V270.37H202.802V247.826Z" fill="black"/>
<path d="M225.346 247.826H202.802V270.37H225.346V247.826Z" fill="black"/>
<path d="M247.859 247.826H225.314V270.37H247.859V247.826Z" fill="black"/>
<path d="M292.915 247.826H270.371V270.37H292.915V247.826Z" fill="black"/>
<path d="M337.971 247.826H315.427V270.37H337.971V247.826Z" fill="black"/>
<path d="M22.5442 247.827H0V270.371H22.5442V247.827Z" fill="#808080"/>
<path d="M67.6326 247.827H45.0884V270.371H67.6326V247.827Z" fill="#808080"/>
<path d="M90.145 247.827H67.6008V270.371H90.145V247.827Z" fill="#808080"/>
<path d="M360.516 247.827H337.972V270.371H360.516V247.827Z" fill="#808080"/>
<path d="M405.572 247.827H383.028V270.371H405.572V247.827Z" fill="#808080"/>
</svg>
