<svg width="70" height="66" viewBox="0 0 70 66" fill="none" xmlns="http://www.w3.org/2000/svg">
<path d="M21.9992 33.0003H25.6662V36.6667H21.9992V33.0003Z" fill="white"/>
<path d="M21.9992 36.6668H25.6662V40.3333H21.9992V36.6668Z" fill="white"/>
<path d="M18.3328 29.334H21.9992V33.0005H18.3328V29.334Z" fill="#FF8688"/>
<path d="M21.9992 29.334H25.6662V33.0005H21.9992V29.334Z" fill="#FF8688"/>
<path d="M18.3328 33.0003H21.9992V36.6667H18.3328V33.0003Z" fill="#FF8688"/>
<path d="M25.6663 33.0003H29.3327V36.6667H25.6663V33.0003Z" fill="#FF8688"/>
<path d="M7.33282 36.6668H10.9998V40.3333H7.33282V36.6668Z" fill="#FF8688"/>
<path d="M10.9999 36.6668H14.6663V40.3333H10.9999V36.6668Z" fill="#FF8688"/>
<path d="M14.6663 36.6668H18.3328V40.3333H14.6663V36.6668Z" fill="#FF8688"/>
<path d="M18.3328 36.6668H21.9992V40.3333H18.3328V36.6668Z" fill="#FF8688"/>
<path d="M25.6663 36.6668H29.3327V40.3333H25.6663V36.6668Z" fill="#FF8688"/>
<path d="M7.33282 40.3331H10.9998V43.9995H7.33282V40.3331Z" fill="#FF8688"/>
<path d="M10.9999 40.3331H14.6663V43.9995H10.9999V40.3331Z" fill="#FF8688"/>
<path d="M14.6663 40.3331H18.3328V43.9995H14.6663V40.3331Z" fill="#FF8688"/>
<path d="M18.3328 40.3331H21.9992V43.9995H18.3328V40.3331Z" fill="#FF8688"/>
<path d="M21.9992 40.3331H25.6662V43.9995H21.9992V40.3331Z" fill="#FF8688"/>
<path d="M25.6663 40.3331H29.3327V43.9995H25.6663V40.3331Z" fill="#FF8688"/>
<path d="M7.33282 43.9997H10.9998V47.6667H7.33282V43.9997Z" fill="#FF8688"/>
<path d="M10.9999 43.9997H14.6663V47.6667H10.9999V43.9997Z" fill="#FF8688"/>
<path d="M14.6663 43.9997H18.3328V47.6667H14.6663V43.9997Z" fill="#FF8688"/>
<path d="M18.3328 43.9997H21.9992V47.6667H18.3328V43.9997Z" fill="#FF8688"/>
<path d="M21.9992 43.9997H25.6662V47.6667H21.9992V43.9997Z" fill="#FF8688"/>
<path d="M25.6663 43.9997H29.3327V47.6667H25.6663V43.9997Z" fill="#FF8688"/>
<path d="M14.6663 47.6666H18.3328V51.333H14.6663V47.6666Z" fill="#FF8688"/>
<path d="M18.3328 47.6666H21.9992V51.333H18.3328V47.6666Z" fill="#FF8688"/>
<path d="M21.9992 47.6666H25.6662V51.333H21.9992V47.6666Z" fill="#FF8688"/>
<path d="M3.66644 33.0003H7.33289V36.6667H3.66644V33.0003Z" fill="#FF6C6F"/>
<path d="M7.33282 33.0003H10.9998V36.6667H7.33282V33.0003Z" fill="#FF6C6F"/>
<path d="M3.66644 36.6668H7.33289V40.3333H3.66644V36.6668Z" fill="#FF6C6F"/>
<path d="M3.66644 40.3331H7.33289V43.9995H3.66644V40.3331Z" fill="#FF6C6F"/>
<path d="M3.66644 43.9997H7.33289V47.6667H3.66644V43.9997Z" fill="#FF6C6F"/>
<path d="M7.33282 47.6666H10.9998V51.333H7.33282V47.6666Z" fill="#FF6C6F"/>
<path d="M10.9999 47.6666H14.6663V51.333H10.9999V47.6666Z" fill="#FF6C6F"/>
<path d="M14.6663 51.3331H18.3328V54.9995H14.6663V51.3331Z" fill="#FF6C6F"/>
<path d="M18.3328 51.3331H21.9992V54.9995H18.3328V51.3331Z" fill="#FF6C6F"/>
<path d="M18.3328 25.6667H21.9992V29.3337H18.3328V25.6667Z" fill="black"/>
<path d="M21.9992 25.6667H25.6662V29.3337H21.9992V25.6667Z" fill="black"/>
<path d="M3.66644 29.334H7.33289V33.0005H3.66644V29.334Z" fill="black"/>
<path d="M7.33282 29.334H10.9998V33.0005H7.33282V29.334Z" fill="black"/>
<path d="M14.6663 29.334H18.3328V33.0005H14.6663V29.334Z" fill="black"/>
<path d="M25.6663 29.334H29.3327V33.0005H25.6663V29.334Z" fill="black"/>
<path d="M0 33.0003H3.66644V36.6667H0V33.0003Z" fill="black"/>
<path d="M10.9999 33.0003H14.6663V36.6667H10.9999V33.0003Z" fill="black"/>
<path d="M14.6663 33.0003H18.3328V36.6667H14.6663V33.0003Z" fill="black"/>
<path d="M29.3327 33.0003H32.9991V36.6667H29.3327V33.0003Z" fill="black"/>
<path d="M0 36.6668H3.66644V40.3333H0V36.6668Z" fill="black"/>
<path d="M29.3327 36.6668H32.9991V40.3333H29.3327V36.6668Z" fill="black"/>
<path d="M0 40.3331H3.66644V43.9995H0V40.3331Z" fill="black"/>
<path d="M29.3327 40.3331H32.9991V43.9995H29.3327V40.3331Z" fill="black"/>
<path d="M0 43.9997H3.66644V47.6667H0V43.9997Z" fill="black"/>
<path d="M29.3327 43.9997H32.9991V47.6667H29.3327V43.9997Z" fill="black"/>
<path d="M3.66644 47.6666H7.33289V51.333H3.66644V47.6666Z" fill="black"/>
<path d="M25.6663 47.6666H29.3327V51.333H25.6663V47.6666Z" fill="black"/>
<path d="M7.33282 51.3331H10.9998V54.9995H7.33282V51.3331Z" fill="black"/>
<path d="M10.9999 51.3331H14.6663V54.9995H10.9999V51.3331Z" fill="black"/>
<path d="M21.9992 51.3331H25.6662V54.9995H21.9992V51.3331Z" fill="black"/>
<path d="M14.6663 54.9995H18.3328V58.6665H14.6663V54.9995Z" fill="black"/>
<path d="M18.3328 54.9995H21.9992V58.6665H18.3328V54.9995Z" fill="black"/>
<path d="M51.3325 7.33356H54.999V11H51.3325V7.33356Z" fill="white"/>
<path d="M51.3325 11H54.999V14.667H51.3325V11Z" fill="white"/>
<path d="M54.999 10.9992H58.6655V14.6663H54.999V10.9992Z" fill="white"/>
<path d="M54.999 14.6663H58.6655V18.3328H54.999V14.6663Z" fill="white"/>
<path d="M58.6654 14.6668H62.3324V18.3333H58.6654V14.6668Z" fill="white"/>
<path d="M58.6654 18.3333H62.3324V21.9998H58.6654V18.3333Z" fill="white"/>
<path d="M10.9999 3.66697H14.6663V7.33398H10.9999V3.66697Z" fill="#EB2424"/>
<path d="M14.6663 3.66697H18.3328V7.33398H14.6663V3.66697Z" fill="#EB2424"/>
<path d="M18.3328 3.66697H21.9992V7.33398H18.3328V3.66697Z" fill="#EB2424"/>
<path d="M21.9992 3.66697H25.6662V7.33398H21.9992V3.66697Z" fill="#EB2424"/>
<path d="M7.33282 7.33356H10.9998V11H7.33282V7.33356Z" fill="#EB2424"/>
<path d="M10.9999 7.33356H14.6663V11H10.9999V7.33356Z" fill="#EB2424"/>
<path d="M7.33282 11H10.9998V14.667H7.33282V11Z" fill="#EB2424"/>
<path d="M3.66644 14.6668H7.33289V18.3333H3.66644V14.6668Z" fill="#EB2424"/>
<path d="M7.33282 14.6668H10.9998V18.3333H7.33282V14.6668Z" fill="#EB2424"/>
<path d="M3.66644 18.3333H7.33289V21.9998H3.66644V18.3333Z" fill="#EB2424"/>
<path d="M7.33282 18.3333H10.9998V21.9998H7.33282V18.3333Z" fill="#EB2424"/>
<path d="M3.66644 21.9992H7.33289V25.6663H3.66644V21.9992Z" fill="#EB2424"/>
<path d="M7.33282 21.9992H10.9998V25.6663H7.33282V21.9992Z" fill="#EB2424"/>
<path d="M3.66644 25.6667H7.33289V29.3337H3.66644V25.6667Z" fill="#EB2424"/>
<path d="M7.33282 25.6667H10.9998V29.3337H7.33282V25.6667Z" fill="#EB2424"/>
<path d="M10.9999 25.6667H14.6663V29.3337H10.9999V25.6667Z" fill="#EB2424"/>
<path d="M10.9999 29.334H14.6663V33.0005H10.9999V29.334Z" fill="#EB2424"/>
<path d="M29.3327 47.6666H32.9991V51.333H29.3327V47.6666Z" fill="#EB2424"/>
<path d="M25.6663 51.3331H29.3327V54.9995H25.6663V51.3331Z" fill="#EB2424"/>
<path d="M29.3327 51.3331H32.9991V54.9995H29.3327V51.3331Z" fill="#EB2424"/>
<path d="M32.9991 51.3331H36.6656V54.9995H32.9991V51.3331Z" fill="#EB2424"/>
<path d="M29.3327 54.9995H32.9991V58.6665H29.3327V54.9995Z" fill="#EB2424"/>
<path d="M32.9991 54.9995H36.6656V58.6665H32.9991V54.9995Z" fill="#EB2424"/>
<path d="M32.9991 58.6666H36.6656V62.333H32.9991V58.6666Z" fill="#EB2424"/>
<path d="M40.3326 51.3331H43.9991V54.9995H40.3326V51.3331Z" fill="#EB2424"/>
<path d="M36.6663 51.3325H40.3327V54.9995H36.6663V51.3325Z" fill="#EB2424"/>
<path d="M36.6663 54.9993H40.3327V58.6658H36.6663V54.9993Z" fill="#EB2424"/>
<path d="M14.6663 7.33356H18.3328V11H14.6663V7.33356Z" fill="#F73E3E"/>
<path d="M18.3328 7.33356H21.9992V11H18.3328V7.33356Z" fill="#F73E3E"/>
<path d="M21.9992 7.33356H25.6662V11H21.9992V7.33356Z" fill="#F73E3E"/>
<path d="M25.6663 7.33356H29.3327V11H25.6663V7.33356Z" fill="#F73E3E"/>
<path d="M10.9999 11H14.6663V14.667H10.9999V11Z" fill="#F73E3E"/>
<path d="M14.6663 11H18.3328V14.667H14.6663V11Z" fill="#F73E3E"/>
<path d="M18.3328 11H21.9992V14.667H18.3328V11Z" fill="#F73E3E"/>
<path d="M21.9992 11H25.6662V14.667H21.9992V11Z" fill="#F73E3E"/>
<path d="M25.6663 11H29.3327V14.667H25.6663V11Z" fill="#F73E3E"/>
<path d="M29.3327 11H32.9991V14.667H29.3327V11Z" fill="#F73E3E"/>
<path d="M10.9999 14.6668H14.6663V18.3333H10.9999V14.6668Z" fill="#F73E3E"/>
<path d="M14.6663 14.6668H18.3328V18.3333H14.6663V14.6668Z" fill="#F73E3E"/>
<path d="M18.3328 14.6668H21.9992V18.3333H18.3328V14.6668Z" fill="#F73E3E"/>
<path d="M21.9992 14.6668H25.6662V18.3333H21.9992V14.6668Z" fill="#F73E3E"/>
<path d="M25.6663 14.6668H29.3327V18.3333H25.6663V14.6668Z" fill="#F73E3E"/>
<path d="M29.3327 14.6668H32.9991V18.3333H29.3327V14.6668Z" fill="#F73E3E"/>
<path d="M32.9991 14.6668H36.6656V18.3333H32.9991V14.6668Z" fill="#F73E3E"/>
<path d="M10.9999 18.3333H14.6663V21.9998H10.9999V18.3333Z" fill="#F73E3E"/>
<path d="M14.6663 18.3333H18.3328V21.9998H14.6663V18.3333Z" fill="#F73E3E"/>
<path d="M18.3328 18.3333H21.9992V21.9998H18.3328V18.3333Z" fill="#F73E3E"/>
<path d="M21.9992 18.3333H25.6662V21.9998H21.9992V18.3333Z" fill="#F73E3E"/>
<path d="M25.6663 18.3333H29.3327V21.9998H25.6663V18.3333Z" fill="#F73E3E"/>
<path d="M29.3327 18.3333H32.9991V21.9998H29.3327V18.3333Z" fill="#F73E3E"/>
<path d="M32.9991 18.3333H36.6656V21.9998H32.9991V18.3333Z" fill="#F73E3E"/>
<path d="M10.9999 21.9992H14.6663V25.6663H10.9999V21.9992Z" fill="#F73E3E"/>
<path d="M14.6663 21.9992H18.3328V25.6663H14.6663V21.9992Z" fill="#F73E3E"/>
<path d="M18.3328 21.9992H21.9992V25.6663H18.3328V21.9992Z" fill="#F73E3E"/>
<path d="M21.9992 21.9992H25.6662V25.6663H21.9992V21.9992Z" fill="#F73E3E"/>
<path d="M25.6663 21.9992H29.3327V25.6663H25.6663V21.9992Z" fill="#F73E3E"/>
<path d="M29.3327 21.9992H32.9991V25.6663H29.3327V21.9992Z" fill="#F73E3E"/>
<path d="M32.9991 21.9992H36.6656V25.6663H32.9991V21.9992Z" fill="#F73E3E"/>
<path d="M43.999 3.66697H47.6655V7.33398H43.999V3.66697Z" fill="#F73E3E"/>
<path d="M47.6654 3.66697H51.3324V7.33398H47.6654V3.66697Z" fill="#F73E3E"/>
<path d="M51.3325 3.66697H54.999V7.33398H51.3325V3.66697Z" fill="#F73E3E"/>
<path d="M40.3326 7.33356H43.9991V11H40.3326V7.33356Z" fill="#F73E3E"/>
<path d="M43.999 7.33356H47.666V11H43.999V7.33356Z" fill="#F73E3E"/>
<path d="M47.6661 7.33356H51.3326V11H47.6661V7.33356Z" fill="#F73E3E"/>
<path d="M40.3326 11H43.9991V14.667H40.3326V11Z" fill="#F73E3E"/>
<path d="M43.999 11H47.666V14.667H43.999V11Z" fill="#F73E3E"/>
<path d="M47.6661 11H51.3326V14.667H47.6661V11Z" fill="#F73E3E"/>
<path d="M40.3326 14.6668H43.9991V18.3333H40.3326V14.6668Z" fill="#F73E3E"/>
<path d="M43.999 14.6668H47.666V18.3333H43.999V14.6668Z" fill="#F73E3E"/>
<path d="M47.6661 14.6668H51.3326V18.3333H47.6661V14.6668Z" fill="#F73E3E"/>
<path d="M51.3325 14.6668H54.999V18.3333H51.3325V14.6668Z" fill="#F73E3E"/>
<path d="M40.3326 18.3333H43.9991V21.9998H40.3326V18.3333Z" fill="#F73E3E"/>
<path d="M43.999 18.3333H47.6655V21.9998H43.999V18.3333Z" fill="#F73E3E"/>
<path d="M47.6654 18.3333H51.3324V21.9998H47.6654V18.3333Z" fill="#F73E3E"/>
<path d="M51.3325 18.3333H54.999V21.9998H51.3325V18.3333Z" fill="#F73E3E"/>
<path d="M40.3326 21.9992H43.9991V25.6663H40.3326V21.9992Z" fill="#F73E3E"/>
<path d="M43.999 21.9992H47.666V25.6663H43.999V21.9992Z" fill="#F73E3E"/>
<path d="M47.6661 21.9992H51.3326V25.6663H47.6661V21.9992Z" fill="#F73E3E"/>
<path d="M51.3325 21.9992H54.999V25.6663H51.3325V21.9992Z" fill="#F73E3E"/>
<path d="M36.6663 10.9992H40.3327V14.6663H36.6663V10.9992Z" fill="#F73E3E"/>
<path d="M36.6663 14.6663H40.3327V18.3328H36.6663V14.6663Z" fill="#F73E3E"/>
<path d="M36.6663 18.3328H40.3327V21.9993H36.6663V18.3328Z" fill="#F73E3E"/>
<path d="M36.6663 21.9993H40.3327V25.6658H36.6663V21.9993Z" fill="#F73E3E"/>
<path d="M54.999 3.66648H58.6655V7.3335H54.999V3.66648Z" fill="#F73E3E"/>
<path d="M54.999 7.33307H58.6655V10.9995H54.999V7.33307Z" fill="#F73E3E"/>
<path d="M54.999 18.3328H58.6655V21.9993H54.999V18.3328Z" fill="#F73E3E"/>
<path d="M54.999 21.9993H58.6655V25.6658H54.999V21.9993Z" fill="#F73E3E"/>
<path d="M58.6654 7.33356H62.3324V11H58.6654V7.33356Z" fill="#F73E3E"/>
<path d="M58.6654 11H62.3324V14.667H58.6654V11Z" fill="#F73E3E"/>
<path d="M58.6654 21.9992H62.3324V25.6663H58.6654V21.9992Z" fill="#F73E3E"/>
<path d="M62.3325 14.6663H65.999V18.3328H62.3325V14.6663Z" fill="#F73E3E"/>
<path d="M62.3325 18.3328H65.999V21.9993H62.3325V18.3328Z" fill="#F73E3E"/>
<path d="M62.3325 21.9993H65.999V25.6658H62.3325V21.9993Z" fill="#F73E3E"/>
<path d="M14.6663 25.6667H18.3328V29.3337H14.6663V25.6667Z" fill="#F73E3E"/>
<path d="M25.6663 25.6667H29.3327V29.3337H25.6663V25.6667Z" fill="#F73E3E"/>
<path d="M29.3327 25.6667H32.9991V29.3337H29.3327V25.6667Z" fill="#F73E3E"/>
<path d="M32.9991 25.6667H36.6656V29.3337H32.9991V25.6667Z" fill="#F73E3E"/>
<path d="M29.3327 29.334H32.9991V33.0005H29.3327V29.334Z" fill="#F73E3E"/>
<path d="M32.9991 29.334H36.6656V33.0005H32.9991V29.334Z" fill="#F73E3E"/>
<path d="M32.9991 33.0003H36.6656V36.6667H32.9991V33.0003Z" fill="#F73E3E"/>
<path d="M32.9991 36.6668H36.6656V40.3333H32.9991V36.6668Z" fill="#F73E3E"/>
<path d="M32.9991 40.3331H36.6656V43.9995H32.9991V40.3331Z" fill="#F73E3E"/>
<path d="M32.9991 43.9997H36.6656V47.6667H32.9991V43.9997Z" fill="#F73E3E"/>
<path d="M32.9991 47.6666H36.6656V51.333H32.9991V47.6666Z" fill="#F73E3E"/>
<path d="M40.3326 25.6667H43.9991V29.3337H40.3326V25.6667Z" fill="#F73E3E"/>
<path d="M43.999 25.6667H47.666V29.3337H43.999V25.6667Z" fill="#F73E3E"/>
<path d="M47.6661 25.6667H51.3326V29.3337H47.6661V25.6667Z" fill="#F73E3E"/>
<path d="M51.3325 25.6667H54.999V29.3337H51.3325V25.6667Z" fill="#F73E3E"/>
<path d="M40.3326 29.334H43.9991V33.0005H40.3326V29.334Z" fill="#F73E3E"/>
<path d="M43.999 29.334H47.666V33.0005H43.999V29.334Z" fill="#F73E3E"/>
<path d="M47.6661 29.334H51.3326V33.0005H47.6661V29.334Z" fill="#F73E3E"/>
<path d="M51.3325 29.334H54.999V33.0005H51.3325V29.334Z" fill="#F73E3E"/>
<path d="M40.3326 33.0003H43.9991V36.6667H40.3326V33.0003Z" fill="#F73E3E"/>
<path d="M43.999 33.0003H47.666V36.6667H43.999V33.0003Z" fill="#F73E3E"/>
<path d="M47.6661 33.0003H51.3326V36.6667H47.6661V33.0003Z" fill="#F73E3E"/>
<path d="M51.3325 33.0003H54.999V36.6667H51.3325V33.0003Z" fill="#F73E3E"/>
<path d="M40.3326 36.6668H43.9991V40.3333H40.3326V36.6668Z" fill="#F73E3E"/>
<path d="M43.999 36.6668H47.666V40.3333H43.999V36.6668Z" fill="#F73E3E"/>
<path d="M47.6661 36.6668H51.3326V40.3333H47.6661V36.6668Z" fill="#F73E3E"/>
<path d="M51.3325 36.6668H54.999V40.3333H51.3325V36.6668Z" fill="#F73E3E"/>
<path d="M40.3326 40.3331H43.9991V43.9995H40.3326V40.3331Z" fill="#F73E3E"/>
<path d="M43.999 40.3331H47.666V43.9995H43.999V40.3331Z" fill="#F73E3E"/>
<path d="M47.6661 40.3331H51.3326V43.9995H47.6661V40.3331Z" fill="#F73E3E"/>
<path d="M51.3325 40.3331H54.999V43.9995H51.3325V40.3331Z" fill="#F73E3E"/>
<path d="M40.3326 43.9997H43.9991V47.6667H40.3326V43.9997Z" fill="#F73E3E"/>
<path d="M43.999 43.9997H47.666V47.6667H43.999V43.9997Z" fill="#F73E3E"/>
<path d="M47.6661 43.9997H51.3326V47.6667H47.6661V43.9997Z" fill="#F73E3E"/>
<path d="M40.3326 47.6666H43.9991V51.333H40.3326V47.6666Z" fill="#F73E3E"/>
<path d="M43.999 47.6666H47.666V51.333H43.999V47.6666Z" fill="#F73E3E"/>
<path d="M36.6663 25.6668H40.3327V29.3333H36.6663V25.6668Z" fill="#F73E3E"/>
<path d="M36.6663 29.3333H40.3327V32.9998H36.6663V29.3333Z" fill="#F73E3E"/>
<path d="M36.6663 32.9997H40.3327V36.6667H36.6663V32.9997Z" fill="#F73E3E"/>
<path d="M36.6663 36.6661H40.3327V40.3325H36.6663V36.6661Z" fill="#F73E3E"/>
<path d="M36.6663 40.3325H40.3327V43.9995H36.6663V40.3325Z" fill="#F73E3E"/>
<path d="M36.6663 43.9996H40.3327V47.666H36.6663V43.9996Z" fill="#F73E3E"/>
<path d="M36.6663 47.6661H40.3327V51.3325H36.6663V47.6661Z" fill="#F73E3E"/>
<path d="M54.999 25.6668H58.6655V29.3333H54.999V25.6668Z" fill="#F73E3E"/>
<path d="M54.999 29.3333H58.6655V32.9998H54.999V29.3333Z" fill="#F73E3E"/>
<path d="M54.999 32.9997H58.6655V36.6667H54.999V32.9997Z" fill="#F73E3E"/>
<path d="M54.999 36.6661H58.6655V40.3325H54.999V36.6661Z" fill="#F73E3E"/>
<path d="M58.6654 25.6667H62.3324V29.3337H58.6654V25.6667Z" fill="#F73E3E"/>
<path d="M58.6654 29.334H62.3324V33.0005H58.6654V29.334Z" fill="#F73E3E"/>
<path d="M58.6654 33.0003H62.3324V36.6667H58.6654V33.0003Z" fill="#F73E3E"/>
<path d="M62.3325 25.6668H65.999V29.3333H62.3325V25.6668Z" fill="#F73E3E"/>
<path d="M10.9999 0.000546003H14.6663V3.66699H10.9999V0.000546003Z" fill="black"/>
<path d="M14.6663 0.000546003H18.3328V3.66699H14.6663V0.000546003Z" fill="black"/>
<path d="M18.3328 0.000546003H21.9992V3.66699H18.3328V0.000546003Z" fill="black"/>
<path d="M21.9992 0.000546003H25.6662V3.66699H21.9992V0.000546003Z" fill="black"/>
<path d="M7.33282 3.66697H10.9998V7.33398H7.33282V3.66697Z" fill="black"/>
<path d="M25.6663 3.66697H29.3327V7.33398H25.6663V3.66697Z" fill="black"/>
<path d="M3.66644 7.33356H7.33289V11H3.66644V7.33356Z" fill="black"/>
<path d="M29.3327 7.33356H32.9991V11H29.3327V7.33356Z" fill="black"/>
<path d="M3.66644 11H7.33289V14.667H3.66644V11Z" fill="black"/>
<path d="M0 14.6668H3.66644V18.3333H0V14.6668Z" fill="black"/>
<path d="M0 18.3333H3.66644V21.9998H0V18.3333Z" fill="black"/>
<path d="M0 21.9992H3.66644V25.6663H0V21.9992Z" fill="black"/>
<path d="M0 25.6667H3.66644V29.3337H0V25.6667Z" fill="black"/>
<path d="M25.6663 54.9995H29.3327V58.6665H25.6663V54.9995Z" fill="black"/>
<path d="M29.3327 58.6666H32.9991V62.333H29.3327V58.6666Z" fill="black"/>
<path d="M32.9991 11H36.6656V14.667H32.9991V11Z" fill="black"/>
<path d="M43.999 0.000546003H47.6655V3.66699H43.999V0.000546003Z" fill="black"/>
<path d="M47.6654 0.000546003H51.3324V3.66699H47.6654V0.000546003Z" fill="black"/>
<path d="M51.3325 0.000546003H54.999V3.66699H51.3325V0.000546003Z" fill="black"/>
<path d="M40.3326 3.66697H43.9991V7.33398H40.3326V3.66697Z" fill="black"/>
<path d="M36.6663 7.33307H40.3327V10.9995H36.6663V7.33307Z" fill="black"/>
<path d="M54.999 6.32756e-05H58.6655V3.6665H54.999V6.32756e-05Z" fill="black"/>
<path d="M58.6654 3.66697H62.3324V7.33398H58.6654V3.66697Z" fill="black"/>
<path d="M65.9988 14.6668H69.6652V18.3333H65.9988V14.6668Z" fill="black"/>
<path d="M65.9988 18.3333H69.6652V21.9998H65.9988V18.3333Z" fill="black"/>
<path d="M65.9988 21.9992H69.6652V25.6663H65.9988V21.9992Z" fill="black"/>
<path d="M62.3325 7.33307H65.999V10.9995H62.3325V7.33307Z" fill="black"/>
<path d="M62.3325 10.9992H65.999V14.6663H62.3325V10.9992Z" fill="black"/>
<path d="M32.9991 62.333H36.6656V66H32.9991V62.333Z" fill="black"/>
<path d="M51.3325 43.9997H54.999V47.6667H51.3325V43.9997Z" fill="black"/>
<path d="M47.6661 47.6666H51.3326V51.333H47.6661V47.6666Z" fill="black"/>
<path d="M43.999 51.3331H47.666V54.9995H43.999V51.3331Z" fill="black"/>
<path d="M40.3326 54.9995H43.9991V58.6665H40.3326V54.9995Z" fill="black"/>
<path d="M36.6663 58.6661H40.3327V62.3325H36.6663V58.6661Z" fill="black"/>
<path d="M54.999 40.3325H58.6655V43.9995H54.999V40.3325Z" fill="black"/>
<path d="M58.6654 36.6668H62.3324V40.3333H58.6654V36.6668Z" fill="black"/>
<path d="M65.9988 25.6667H69.6658V29.3337H65.9988V25.6667Z" fill="black"/>
<path d="M62.3325 29.3333H65.999V32.9998H62.3325V29.3333Z" fill="black"/>
<path d="M62.3325 32.9997H65.999V36.6667H62.3325V32.9997Z" fill="black"/>
<path d="M21.9992 33.0003H25.6662V36.6667H21.9992V33.0003Z" fill="white"/>
<path d="M21.9992 36.6668H25.6662V40.3333H21.9992V36.6668Z" fill="white"/>
<path d="M18.3328 29.334H21.9992V33.0005H18.3328V29.334Z" fill="#FF8688"/>
<path d="M21.9992 29.334H25.6662V33.0005H21.9992V29.334Z" fill="#FF8688"/>
<path d="M18.3328 33.0003H21.9992V36.6667H18.3328V33.0003Z" fill="#FF8688"/>
<path d="M25.6663 33.0003H29.3327V36.6667H25.6663V33.0003Z" fill="#FF8688"/>
<path d="M7.33282 36.6668H10.9998V40.3333H7.33282V36.6668Z" fill="#FF8688"/>
<path d="M10.9999 36.6668H14.6663V40.3333H10.9999V36.6668Z" fill="#FF8688"/>
<path d="M14.6663 36.6668H18.3328V40.3333H14.6663V36.6668Z" fill="#FF8688"/>
<path d="M18.3328 36.6668H21.9992V40.3333H18.3328V36.6668Z" fill="#FF8688"/>
<path d="M25.6663 36.6668H29.3327V40.3333H25.6663V36.6668Z" fill="#FF8688"/>
<path d="M7.33282 40.3331H10.9998V43.9995H7.33282V40.3331Z" fill="#FF8688"/>
<path d="M10.9999 40.3331H14.6663V43.9995H10.9999V40.3331Z" fill="#FF8688"/>
<path d="M14.6663 40.3331H18.3328V43.9995H14.6663V40.3331Z" fill="#FF8688"/>
<path d="M18.3328 40.3331H21.9992V43.9995H18.3328V40.3331Z" fill="#FF8688"/>
<path d="M21.9992 40.3331H25.6662V43.9995H21.9992V40.3331Z" fill="#FF8688"/>
<path d="M25.6663 40.3331H29.3327V43.9995H25.6663V40.3331Z" fill="#FF8688"/>
<path d="M7.33282 43.9997H10.9998V47.6667H7.33282V43.9997Z" fill="#FF8688"/>
<path d="M10.9999 43.9997H14.6663V47.6667H10.9999V43.9997Z" fill="#FF8688"/>
<path d="M14.6663 43.9997H18.3328V47.6667H14.6663V43.9997Z" fill="#FF8688"/>
<path d="M18.3328 43.9997H21.9992V47.6667H18.3328V43.9997Z" fill="#FF8688"/>
<path d="M21.9992 43.9997H25.6662V47.6667H21.9992V43.9997Z" fill="#FF8688"/>
<path d="M25.6663 43.9997H29.3327V47.6667H25.6663V43.9997Z" fill="#FF8688"/>
<path d="M14.6663 47.6666H18.3328V51.333H14.6663V47.6666Z" fill="#FF8688"/>
<path d="M18.3328 47.6666H21.9992V51.333H18.3328V47.6666Z" fill="#FF8688"/>
<path d="M21.9992 47.6666H25.6662V51.333H21.9992V47.6666Z" fill="#FF8688"/>
<path d="M3.66644 33.0003H7.33289V36.6667H3.66644V33.0003Z" fill="#FF6C6F"/>
<path d="M7.33282 33.0003H10.9998V36.6667H7.33282V33.0003Z" fill="#FF6C6F"/>
<path d="M3.66644 36.6668H7.33289V40.3333H3.66644V36.6668Z" fill="#FF6C6F"/>
<path d="M3.66644 40.3331H7.33289V43.9995H3.66644V40.3331Z" fill="#FF6C6F"/>
<path d="M3.66644 43.9997H7.33289V47.6667H3.66644V43.9997Z" fill="#FF6C6F"/>
<path d="M7.33282 47.6666H10.9998V51.333H7.33282V47.6666Z" fill="#FF6C6F"/>
<path d="M10.9999 47.6666H14.6663V51.333H10.9999V47.6666Z" fill="#FF6C6F"/>
<path d="M14.6663 51.3331H18.3328V54.9995H14.6663V51.3331Z" fill="#FF6C6F"/>
<path d="M18.3328 51.3331H21.9992V54.9995H18.3328V51.3331Z" fill="#FF6C6F"/>
<path d="M18.3328 25.6667H21.9992V29.3337H18.3328V25.6667Z" fill="black"/>
<path d="M21.9992 25.6667H25.6662V29.3337H21.9992V25.6667Z" fill="black"/>
<path d="M3.66644 29.334H7.33289V33.0005H3.66644V29.334Z" fill="black"/>
<path d="M7.33282 29.334H10.9998V33.0005H7.33282V29.334Z" fill="black"/>
<path d="M14.6663 29.334H18.3328V33.0005H14.6663V29.334Z" fill="black"/>
<path d="M25.6663 29.334H29.3327V33.0005H25.6663V29.334Z" fill="black"/>
<path d="M0 33.0003H3.66644V36.6667H0V33.0003Z" fill="black"/>
<path d="M10.9999 33.0003H14.6663V36.6667H10.9999V33.0003Z" fill="black"/>
<path d="M14.6663 33.0003H18.3328V36.6667H14.6663V33.0003Z" fill="black"/>
<path d="M29.3327 33.0003H32.9991V36.6667H29.3327V33.0003Z" fill="black"/>
<path d="M0 36.6668H3.66644V40.3333H0V36.6668Z" fill="black"/>
<path d="M29.3327 36.6668H32.9991V40.3333H29.3327V36.6668Z" fill="black"/>
<path d="M0 40.3331H3.66644V43.9995H0V40.3331Z" fill="black"/>
<path d="M29.3327 40.3331H32.9991V43.9995H29.3327V40.3331Z" fill="black"/>
<path d="M0 43.9997H3.66644V47.6667H0V43.9997Z" fill="black"/>
<path d="M29.3327 43.9997H32.9991V47.6667H29.3327V43.9997Z" fill="black"/>
<path d="M3.66644 47.6666H7.33289V51.333H3.66644V47.6666Z" fill="black"/>
<path d="M25.6663 47.6666H29.3327V51.333H25.6663V47.6666Z" fill="black"/>
<path d="M7.33282 51.3331H10.9998V54.9995H7.33282V51.3331Z" fill="black"/>
<path d="M10.9999 51.3331H14.6663V54.9995H10.9999V51.3331Z" fill="black"/>
<path d="M21.9992 51.3331H25.6662V54.9995H21.9992V51.3331Z" fill="black"/>
<path d="M14.6663 54.9995H18.3328V58.6665H14.6663V54.9995Z" fill="black"/>
<path d="M18.3328 54.9995H21.9992V58.6665H18.3328V54.9995Z" fill="black"/>
<path d="M51.3325 7.33356H54.999V11H51.3325V7.33356Z" fill="white"/>
<path d="M51.3325 11H54.999V14.667H51.3325V11Z" fill="white"/>
<path d="M54.999 10.9992H58.6655V14.6663H54.999V10.9992Z" fill="white"/>
<path d="M54.999 14.6663H58.6655V18.3328H54.999V14.6663Z" fill="white"/>
<path d="M58.6654 14.6668H62.3324V18.3333H58.6654V14.6668Z" fill="white"/>
<path d="M58.6654 18.3333H62.3324V21.9998H58.6654V18.3333Z" fill="white"/>
<path d="M10.9999 3.66697H14.6663V7.33398H10.9999V3.66697Z" fill="#EB2424"/>
<path d="M14.6663 3.66697H18.3328V7.33398H14.6663V3.66697Z" fill="#EB2424"/>
<path d="M18.3328 3.66697H21.9992V7.33398H18.3328V3.66697Z" fill="#EB2424"/>
<path d="M21.9992 3.66697H25.6662V7.33398H21.9992V3.66697Z" fill="#EB2424"/>
<path d="M7.33282 7.33356H10.9998V11H7.33282V7.33356Z" fill="#EB2424"/>
<path d="M10.9999 7.33356H14.6663V11H10.9999V7.33356Z" fill="#EB2424"/>
<path d="M7.33282 11H10.9998V14.667H7.33282V11Z" fill="#EB2424"/>
<path d="M3.66644 14.6668H7.33289V18.3333H3.66644V14.6668Z" fill="#EB2424"/>
<path d="M7.33282 14.6668H10.9998V18.3333H7.33282V14.6668Z" fill="#EB2424"/>
<path d="M3.66644 18.3333H7.33289V21.9998H3.66644V18.3333Z" fill="#EB2424"/>
<path d="M7.33282 18.3333H10.9998V21.9998H7.33282V18.3333Z" fill="#EB2424"/>
<path d="M3.66644 21.9992H7.33289V25.6663H3.66644V21.9992Z" fill="#EB2424"/>
<path d="M7.33282 21.9992H10.9998V25.6663H7.33282V21.9992Z" fill="#EB2424"/>
<path d="M3.66644 25.6667H7.33289V29.3337H3.66644V25.6667Z" fill="#EB2424"/>
<path d="M7.33282 25.6667H10.9998V29.3337H7.33282V25.6667Z" fill="#EB2424"/>
<path d="M10.9999 25.6667H14.6663V29.3337H10.9999V25.6667Z" fill="#EB2424"/>
<path d="M10.9999 29.334H14.6663V33.0005H10.9999V29.334Z" fill="#EB2424"/>
<path d="M29.3327 47.6666H32.9991V51.333H29.3327V47.6666Z" fill="#EB2424"/>
<path d="M25.6663 51.3331H29.3327V54.9995H25.6663V51.3331Z" fill="#EB2424"/>
<path d="M29.3327 51.3331H32.9991V54.9995H29.3327V51.3331Z" fill="#EB2424"/>
<path d="M32.9991 51.3331H36.6656V54.9995H32.9991V51.3331Z" fill="#EB2424"/>
<path d="M29.3327 54.9995H32.9991V58.6665H29.3327V54.9995Z" fill="#EB2424"/>
<path d="M32.9991 54.9995H36.6656V58.6665H32.9991V54.9995Z" fill="#EB2424"/>
<path d="M32.9991 58.6666H36.6656V62.333H32.9991V58.6666Z" fill="#EB2424"/>
<path d="M40.3326 51.3331H43.9991V54.9995H40.3326V51.3331Z" fill="#EB2424"/>
<path d="M36.6663 51.3325H40.3327V54.9995H36.6663V51.3325Z" fill="#EB2424"/>
<path d="M36.6663 54.9993H40.3327V58.6658H36.6663V54.9993Z" fill="#EB2424"/>
<path d="M14.6663 7.33356H18.3328V11H14.6663V7.33356Z" fill="#F73E3E"/>
<path d="M18.3328 7.33356H21.9992V11H18.3328V7.33356Z" fill="#F73E3E"/>
<path d="M21.9992 7.33356H25.6662V11H21.9992V7.33356Z" fill="#F73E3E"/>
<path d="M25.6663 7.33356H29.3327V11H25.6663V7.33356Z" fill="#F73E3E"/>
<path d="M10.9999 11H14.6663V14.667H10.9999V11Z" fill="#F73E3E"/>
<path d="M14.6663 11H18.3328V14.667H14.6663V11Z" fill="#F73E3E"/>
<path d="M18.3328 11H21.9992V14.667H18.3328V11Z" fill="#F73E3E"/>
<path d="M21.9992 11H25.6662V14.667H21.9992V11Z" fill="#F73E3E"/>
<path d="M25.6663 11H29.3327V14.667H25.6663V11Z" fill="#F73E3E"/>
<path d="M29.3327 11H32.9991V14.667H29.3327V11Z" fill="#F73E3E"/>
<path d="M10.9999 14.6668H14.6663V18.3333H10.9999V14.6668Z" fill="#F73E3E"/>
<path d="M14.6663 14.6668H18.3328V18.3333H14.6663V14.6668Z" fill="#F73E3E"/>
<path d="M18.3328 14.6668H21.9992V18.3333H18.3328V14.6668Z" fill="#F73E3E"/>
<path d="M21.9992 14.6668H25.6662V18.3333H21.9992V14.6668Z" fill="#F73E3E"/>
<path d="M25.6663 14.6668H29.3327V18.3333H25.6663V14.6668Z" fill="#F73E3E"/>
<path d="M29.3327 14.6668H32.9991V18.3333H29.3327V14.6668Z" fill="#F73E3E"/>
<path d="M32.9991 14.6668H36.6656V18.3333H32.9991V14.6668Z" fill="#F73E3E"/>
<path d="M10.9999 18.3333H14.6663V21.9998H10.9999V18.3333Z" fill="#F73E3E"/>
<path d="M14.6663 18.3333H18.3328V21.9998H14.6663V18.3333Z" fill="#F73E3E"/>
<path d="M18.3328 18.3333H21.9992V21.9998H18.3328V18.3333Z" fill="#F73E3E"/>
<path d="M21.9992 18.3333H25.6662V21.9998H21.9992V18.3333Z" fill="#F73E3E"/>
<path d="M25.6663 18.3333H29.3327V21.9998H25.6663V18.3333Z" fill="#F73E3E"/>
<path d="M29.3327 18.3333H32.9991V21.9998H29.3327V18.3333Z" fill="#F73E3E"/>
<path d="M32.9991 18.3333H36.6656V21.9998H32.9991V18.3333Z" fill="#F73E3E"/>
<path d="M10.9999 21.9992H14.6663V25.6663H10.9999V21.9992Z" fill="#F73E3E"/>
<path d="M14.6663 21.9992H18.3328V25.6663H14.6663V21.9992Z" fill="#F73E3E"/>
<path d="M18.3328 21.9992H21.9992V25.6663H18.3328V21.9992Z" fill="#F73E3E"/>
<path d="M21.9992 21.9992H25.6662V25.6663H21.9992V21.9992Z" fill="#F73E3E"/>
<path d="M25.6663 21.9992H29.3327V25.6663H25.6663V21.9992Z" fill="#F73E3E"/>
<path d="M29.3327 21.9992H32.9991V25.6663H29.3327V21.9992Z" fill="#F73E3E"/>
<path d="M32.9991 21.9992H36.6656V25.6663H32.9991V21.9992Z" fill="#F73E3E"/>
<path d="M43.999 3.66697H47.6655V7.33398H43.999V3.66697Z" fill="#F73E3E"/>
<path d="M47.6654 3.66697H51.3324V7.33398H47.6654V3.66697Z" fill="#F73E3E"/>
<path d="M51.3325 3.66697H54.999V7.33398H51.3325V3.66697Z" fill="#F73E3E"/>
<path d="M40.3326 7.33356H43.9991V11H40.3326V7.33356Z" fill="#F73E3E"/>
<path d="M43.999 7.33356H47.666V11H43.999V7.33356Z" fill="#F73E3E"/>
<path d="M47.6661 7.33356H51.3326V11H47.6661V7.33356Z" fill="#F73E3E"/>
<path d="M40.3326 11H43.9991V14.667H40.3326V11Z" fill="#F73E3E"/>
<path d="M43.999 11H47.666V14.667H43.999V11Z" fill="#F73E3E"/>
<path d="M47.6661 11H51.3326V14.667H47.6661V11Z" fill="#F73E3E"/>
<path d="M40.3326 14.6668H43.9991V18.3333H40.3326V14.6668Z" fill="#F73E3E"/>
<path d="M43.999 14.6668H47.666V18.3333H43.999V14.6668Z" fill="#F73E3E"/>
<path d="M47.6661 14.6668H51.3326V18.3333H47.6661V14.6668Z" fill="#F73E3E"/>
<path d="M51.3325 14.6668H54.999V18.3333H51.3325V14.6668Z" fill="#F73E3E"/>
<path d="M40.3326 18.3333H43.9991V21.9998H40.3326V18.3333Z" fill="#F73E3E"/>
<path d="M43.999 18.3333H47.6655V21.9998H43.999V18.3333Z" fill="#F73E3E"/>
<path d="M47.6654 18.3333H51.3324V21.9998H47.6654V18.3333Z" fill="#F73E3E"/>
<path d="M51.3325 18.3333H54.999V21.9998H51.3325V18.3333Z" fill="#F73E3E"/>
<path d="M40.3326 21.9992H43.9991V25.6663H40.3326V21.9992Z" fill="#F73E3E"/>
<path d="M43.999 21.9992H47.666V25.6663H43.999V21.9992Z" fill="#F73E3E"/>
<path d="M47.6661 21.9992H51.3326V25.6663H47.6661V21.9992Z" fill="#F73E3E"/>
<path d="M51.3325 21.9992H54.999V25.6663H51.3325V21.9992Z" fill="#F73E3E"/>
<path d="M36.6663 10.9992H40.3327V14.6663H36.6663V10.9992Z" fill="#F73E3E"/>
<path d="M36.6663 14.6663H40.3327V18.3328H36.6663V14.6663Z" fill="#F73E3E"/>
<path d="M36.6663 18.3328H40.3327V21.9993H36.6663V18.3328Z" fill="#F73E3E"/>
<path d="M36.6663 21.9993H40.3327V25.6658H36.6663V21.9993Z" fill="#F73E3E"/>
<path d="M54.999 3.66648H58.6655V7.3335H54.999V3.66648Z" fill="#F73E3E"/>
<path d="M54.999 7.33307H58.6655V10.9995H54.999V7.33307Z" fill="#F73E3E"/>
<path d="M54.999 18.3328H58.6655V21.9993H54.999V18.3328Z" fill="#F73E3E"/>
<path d="M54.999 21.9993H58.6655V25.6658H54.999V21.9993Z" fill="#F73E3E"/>
<path d="M58.6654 7.33356H62.3324V11H58.6654V7.33356Z" fill="#F73E3E"/>
<path d="M58.6654 11H62.3324V14.667H58.6654V11Z" fill="#F73E3E"/>
<path d="M58.6654 21.9992H62.3324V25.6663H58.6654V21.9992Z" fill="#F73E3E"/>
<path d="M62.3325 14.6663H65.999V18.3328H62.3325V14.6663Z" fill="#F73E3E"/>
<path d="M62.3325 18.3328H65.999V21.9993H62.3325V18.3328Z" fill="#F73E3E"/>
<path d="M62.3325 21.9993H65.999V25.6658H62.3325V21.9993Z" fill="#F73E3E"/>
<path d="M14.6663 25.6667H18.3328V29.3337H14.6663V25.6667Z" fill="#F73E3E"/>
<path d="M25.6663 25.6667H29.3327V29.3337H25.6663V25.6667Z" fill="#F73E3E"/>
<path d="M29.3327 25.6667H32.9991V29.3337H29.3327V25.6667Z" fill="#F73E3E"/>
<path d="M32.9991 25.6667H36.6656V29.3337H32.9991V25.6667Z" fill="#F73E3E"/>
<path d="M29.3327 29.334H32.9991V33.0005H29.3327V29.334Z" fill="#F73E3E"/>
<path d="M32.9991 29.334H36.6656V33.0005H32.9991V29.334Z" fill="#F73E3E"/>
<path d="M32.9991 33.0003H36.6656V36.6667H32.9991V33.0003Z" fill="#F73E3E"/>
<path d="M32.9991 36.6668H36.6656V40.3333H32.9991V36.6668Z" fill="#F73E3E"/>
<path d="M32.9991 40.3331H36.6656V43.9995H32.9991V40.3331Z" fill="#F73E3E"/>
<path d="M32.9991 43.9997H36.6656V47.6667H32.9991V43.9997Z" fill="#F73E3E"/>
<path d="M32.9991 47.6666H36.6656V51.333H32.9991V47.6666Z" fill="#F73E3E"/>
<path d="M40.3326 25.6667H43.9991V29.3337H40.3326V25.6667Z" fill="#F73E3E"/>
<path d="M43.999 25.6667H47.666V29.3337H43.999V25.6667Z" fill="#F73E3E"/>
<path d="M47.6661 25.6667H51.3326V29.3337H47.6661V25.6667Z" fill="#F73E3E"/>
<path d="M51.3325 25.6667H54.999V29.3337H51.3325V25.6667Z" fill="#F73E3E"/>
<path d="M40.3326 29.334H43.9991V33.0005H40.3326V29.334Z" fill="#F73E3E"/>
<path d="M43.999 29.334H47.666V33.0005H43.999V29.334Z" fill="#F73E3E"/>
<path d="M47.6661 29.334H51.3326V33.0005H47.6661V29.334Z" fill="#F73E3E"/>
<path d="M51.3325 29.334H54.999V33.0005H51.3325V29.334Z" fill="#F73E3E"/>
<path d="M40.3326 33.0003H43.9991V36.6667H40.3326V33.0003Z" fill="#F73E3E"/>
<path d="M43.999 33.0003H47.666V36.6667H43.999V33.0003Z" fill="#F73E3E"/>
<path d="M47.6661 33.0003H51.3326V36.6667H47.6661V33.0003Z" fill="#F73E3E"/>
<path d="M51.3325 33.0003H54.999V36.6667H51.3325V33.0003Z" fill="#F73E3E"/>
<path d="M40.3326 36.6668H43.9991V40.3333H40.3326V36.6668Z" fill="#F73E3E"/>
<path d="M43.999 36.6668H47.666V40.3333H43.999V36.6668Z" fill="#F73E3E"/>
<path d="M47.6661 36.6668H51.3326V40.3333H47.6661V36.6668Z" fill="#F73E3E"/>
<path d="M51.3325 36.6668H54.999V40.3333H51.3325V36.6668Z" fill="#F73E3E"/>
<path d="M40.3326 40.3331H43.9991V43.9995H40.3326V40.3331Z" fill="#F73E3E"/>
<path d="M43.999 40.3331H47.666V43.9995H43.999V40.3331Z" fill="#F73E3E"/>
<path d="M47.6661 40.3331H51.3326V43.9995H47.6661V40.3331Z" fill="#F73E3E"/>
<path d="M51.3325 40.3331H54.999V43.9995H51.3325V40.3331Z" fill="#F73E3E"/>
<path d="M40.3326 43.9997H43.9991V47.6667H40.3326V43.9997Z" fill="#F73E3E"/>
<path d="M43.999 43.9997H47.666V47.6667H43.999V43.9997Z" fill="#F73E3E"/>
<path d="M47.6661 43.9997H51.3326V47.6667H47.6661V43.9997Z" fill="#F73E3E"/>
<path d="M40.3326 47.6666H43.9991V51.333H40.3326V47.6666Z" fill="#F73E3E"/>
<path d="M43.999 47.6666H47.666V51.333H43.999V47.6666Z" fill="#F73E3E"/>
<path d="M36.6663 25.6668H40.3327V29.3333H36.6663V25.6668Z" fill="#F73E3E"/>
<path d="M36.6663 29.3333H40.3327V32.9998H36.6663V29.3333Z" fill="#F73E3E"/>
<path d="M36.6663 32.9997H40.3327V36.6667H36.6663V32.9997Z" fill="#F73E3E"/>
<path d="M36.6663 36.6661H40.3327V40.3325H36.6663V36.6661Z" fill="#F73E3E"/>
<path d="M36.6663 40.3325H40.3327V43.9995H36.6663V40.3325Z" fill="#F73E3E"/>
<path d="M36.6663 43.9996H40.3327V47.666H36.6663V43.9996Z" fill="#F73E3E"/>
<path d="M36.6663 47.6661H40.3327V51.3325H36.6663V47.6661Z" fill="#F73E3E"/>
<path d="M54.999 25.6668H58.6655V29.3333H54.999V25.6668Z" fill="#F73E3E"/>
<path d="M54.999 29.3333H58.6655V32.9998H54.999V29.3333Z" fill="#F73E3E"/>
<path d="M54.999 32.9997H58.6655V36.6667H54.999V32.9997Z" fill="#F73E3E"/>
<path d="M54.999 36.6661H58.6655V40.3325H54.999V36.6661Z" fill="#F73E3E"/>
<path d="M58.6654 25.6667H62.3324V29.3337H58.6654V25.6667Z" fill="#F73E3E"/>
<path d="M58.6654 29.334H62.3324V33.0005H58.6654V29.334Z" fill="#F73E3E"/>
<path d="M58.6654 33.0003H62.3324V36.6667H58.6654V33.0003Z" fill="#F73E3E"/>
<path d="M62.3325 25.6668H65.999V29.3333H62.3325V25.6668Z" fill="#F73E3E"/>
<path d="M10.9999 0.000546003H14.6663V3.66699H10.9999V0.000546003Z" fill="black"/>
<path d="M14.6663 0.000546003H18.3328V3.66699H14.6663V0.000546003Z" fill="black"/>
<path d="M18.3328 0.000546003H21.9992V3.66699H18.3328V0.000546003Z" fill="black"/>
<path d="M21.9992 0.000546003H25.6662V3.66699H21.9992V0.000546003Z" fill="black"/>
<path d="M7.33282 3.66697H10.9998V7.33398H7.33282V3.66697Z" fill="black"/>
<path d="M25.6663 3.66697H29.3327V7.33398H25.6663V3.66697Z" fill="black"/>
<path d="M3.66644 7.33356H7.33289V11H3.66644V7.33356Z" fill="black"/>
<path d="M29.3327 7.33356H32.9991V11H29.3327V7.33356Z" fill="black"/>
<path d="M3.66644 11H7.33289V14.667H3.66644V11Z" fill="black"/>
<path d="M0 14.6668H3.66644V18.3333H0V14.6668Z" fill="black"/>
<path d="M0 18.3333H3.66644V21.9998H0V18.3333Z" fill="black"/>
<path d="M0 21.9992H3.66644V25.6663H0V21.9992Z" fill="black"/>
<path d="M0 25.6667H3.66644V29.3337H0V25.6667Z" fill="black"/>
<path d="M25.6663 54.9995H29.3327V58.6665H25.6663V54.9995Z" fill="black"/>
<path d="M29.3327 58.6666H32.9991V62.333H29.3327V58.6666Z" fill="black"/>
<path d="M32.9991 11H36.6656V14.667H32.9991V11Z" fill="black"/>
<path d="M43.999 0.000546003H47.6655V3.66699H43.999V0.000546003Z" fill="black"/>
<path d="M47.6654 0.000546003H51.3324V3.66699H47.6654V0.000546003Z" fill="black"/>
<path d="M51.3325 0.000546003H54.999V3.66699H51.3325V0.000546003Z" fill="black"/>
<path d="M40.3326 3.66697H43.9991V7.33398H40.3326V3.66697Z" fill="black"/>
<path d="M36.6663 7.33307H40.3327V10.9995H36.6663V7.33307Z" fill="black"/>
<path d="M54.999 6.32756e-05H58.6655V3.6665H54.999V6.32756e-05Z" fill="black"/>
<path d="M58.6654 3.66697H62.3324V7.33398H58.6654V3.66697Z" fill="black"/>
<path d="M65.9988 14.6668H69.6652V18.3333H65.9988V14.6668Z" fill="black"/>
<path d="M65.9988 18.3333H69.6652V21.9998H65.9988V18.3333Z" fill="black"/>
<path d="M65.9988 21.9992H69.6652V25.6663H65.9988V21.9992Z" fill="black"/>
<path d="M62.3325 7.33307H65.999V10.9995H62.3325V7.33307Z" fill="black"/>
<path d="M62.3325 10.9992H65.999V14.6663H62.3325V10.9992Z" fill="black"/>
<path d="M32.9991 62.333H36.6656V66H32.9991V62.333Z" fill="black"/>
<path d="M51.3325 43.9997H54.999V47.6667H51.3325V43.9997Z" fill="black"/>
<path d="M47.6661 47.6666H51.3326V51.333H47.6661V47.6666Z" fill="black"/>
<path d="M43.999 51.3331H47.666V54.9995H43.999V51.3331Z" fill="black"/>
<path d="M40.3326 54.9995H43.9991V58.6665H40.3326V54.9995Z" fill="black"/>
<path d="M36.6663 58.6661H40.3327V62.3325H36.6663V58.6661Z" fill="black"/>
<path d="M54.999 40.3325H58.6655V43.9995H54.999V40.3325Z" fill="black"/>
<path d="M58.6654 36.6668H62.3324V40.3333H58.6654V36.6668Z" fill="black"/>
<path d="M65.9988 25.6667H69.6658V29.3337H65.9988V25.6667Z" fill="black"/>
<path d="M62.3325 29.3333H65.999V32.9998H62.3325V29.3333Z" fill="black"/>
<path d="M62.3325 32.9997H65.999V36.6667H62.3325V32.9997Z" fill="black"/>
</svg>
