<svg width="219" height="42" viewBox="0 0 219 42" fill="none" xmlns="http://www.w3.org/2000/svg">
<path d="M0 0.00708008H8.332V8.34048H0V0.00708008Z" fill="black"/>
<path d="M0 8.34058H8.332V16.674H0V8.34058Z" fill="black"/>
<path d="M0 16.6731H8.332V25.0061H0V16.6731Z" fill="black"/>
<path d="M0 25.0061H8.332V33.3396H0V25.0061Z" fill="black"/>
<path d="M0 33.3401H8.332V41.6731H0V33.3401Z" fill="black"/>
<path d="M8.33203 33.3401H16.668V41.6731H8.33203V33.3401Z" fill="black"/>
<path d="M16.667 33.3401H24.999V41.6731H16.667V33.3401Z" fill="black"/>
<path d="M34.999 0.011199H43.3339V8.34375H34.999V0.011199Z" fill="black"/>
<path d="M43.334 0.011199H51.6642V8.34375H43.334V0.011199Z" fill="black"/>
<path d="M51.6641 0.011199H59.9989V8.34375H51.6641V0.011199Z" fill="black"/>
<path d="M34.999 8.34372H43.3339V16.6763H34.999V8.34372Z" fill="black"/>
<path d="M51.6641 8.34372H59.9989V16.6763H51.6641V8.34372Z" fill="black"/>
<path d="M34.999 16.6762H43.3339V25.0083H34.999V16.6762Z" fill="black"/>
<path d="M51.6641 16.6762H59.9989V25.0083H51.6641V16.6762Z" fill="black"/>
<path d="M34.999 25.0085H43.3339V33.3411H34.999V25.0085Z" fill="black"/>
<path d="M51.6641 25.0085H59.9989V33.3411H51.6641V25.0085Z" fill="black"/>
<path d="M34.999 33.3411H43.3339V41.6731H34.999V33.3411Z" fill="black"/>
<path d="M43.334 33.3411H51.6642V41.6731H43.334V33.3411Z" fill="black"/>
<path d="M51.6641 33.3411H59.9989V41.6731H51.6641V33.3411Z" fill="black"/>
<path d="M69.999 0.00708008H78.331V8.34048H69.999V0.00708008Z" fill="black"/>
<path d="M78.3301 0.00708008H86.6661V8.34048H78.3301V0.00708008Z" fill="black"/>
<path d="M86.666 0.00708008H94.997V8.34048H86.666V0.00708008Z" fill="black"/>
<path d="M69.999 8.34058H78.331V16.674H69.999V8.34058Z" fill="black"/>
<path d="M86.666 8.34058H94.997V16.674H86.666V8.34058Z" fill="black"/>
<path d="M69.999 16.6731H78.331V25.0061H69.999V16.6731Z" fill="black"/>
<path d="M78.3301 16.6731H86.6661V25.0061H78.3301V16.6731Z" fill="black"/>
<path d="M86.666 16.6731H94.997V25.0061H86.666V16.6731Z" fill="black"/>
<path d="M69.999 25.0061H78.331V33.3396H69.999V25.0061Z" fill="black"/>
<path d="M86.666 25.0061H94.997V33.3396H86.666V25.0061Z" fill="black"/>
<path d="M69.999 33.3401H78.331V41.6731H69.999V33.3401Z" fill="black"/>
<path d="M86.666 33.3401H94.997V41.6731H86.666V33.3401Z" fill="black"/>
<path d="M104.997 -7.34329e-05H113.329V8.33643H104.997V-7.34329e-05Z" fill="black"/>
<path d="M113.329 -7.34329e-05H121.666V8.33643H113.329V-7.34329e-05Z" fill="black"/>
<path d="M121.666 -7.34329e-05H129.997V8.33643H121.666V-7.34329e-05Z" fill="black"/>
<path d="M104.997 8.33645H113.329V16.6682H104.997V8.33645Z" fill="black"/>
<path d="M121.666 8.33645H129.997V16.6682H121.666V8.33645Z" fill="black"/>
<path d="M104.997 16.6681H113.329V25.0046H104.997V16.6681Z" fill="black"/>
<path d="M121.666 16.6681H129.997V25.0046H121.666V16.6681Z" fill="black"/>
<path d="M104.997 25.0047H113.329V33.3364H104.997V25.0047Z" fill="black"/>
<path d="M121.666 25.0047H129.997V33.3364H121.666V25.0047Z" fill="black"/>
<path d="M104.997 33.3366H113.329V41.6731H104.997V33.3366Z" fill="black"/>
<path d="M113.329 33.3366H121.666V41.6731H113.329V33.3366Z" fill="black"/>
<path d="M139.997 0.00286579H148.334V8.33496H139.997V0.00286579Z" fill="black"/>
<path d="M139.997 8.33504H148.334V16.6719H139.997V8.33504Z" fill="black"/>
<path d="M139.997 16.6718H148.334V25.0039H139.997V16.6718Z" fill="black"/>
<path d="M139.997 25.004H148.334V33.3408H139.997V25.004Z" fill="black"/>
<path d="M139.997 33.3408H148.334V41.6729H139.997V33.3408Z" fill="black"/>
<path d="M158.334 0.0052681H166.666V8.33691H158.334V0.0052681Z" fill="black"/>
<path d="M166.666 0.0052681H175.002V8.33691H166.666V0.0052681Z" fill="black"/>
<path d="M158.334 8.33696H166.666V16.6733H158.334V8.33696Z" fill="black"/>
<path d="M175.002 8.33696H183.334V16.6733H175.002V8.33696Z" fill="black"/>
<path d="M158.334 16.6732H166.666V25.0049H158.334V16.6732Z" fill="black"/>
<path d="M175.002 16.6732H183.334V25.0049H175.002V16.6732Z" fill="black"/>
<path d="M158.334 25.0047H166.666V33.3411H158.334V25.0047Z" fill="black"/>
<path d="M175.002 25.0047H183.334V33.3411H175.002V25.0047Z" fill="black"/>
<path d="M158.334 33.3412H166.666V41.6729H158.334V33.3412Z" fill="black"/>
<path d="M175.002 33.3412H183.334V41.6729H175.002V33.3412Z" fill="black"/>
<path d="M193.334 0.00466347H201.666V8.33643H193.334V0.00466347Z" fill="black"/>
<path d="M201.666 0.00466347H210.003V8.33643H201.666V0.00466347Z" fill="black"/>
<path d="M210.002 0.00466347H218.334V8.33643H210.002V0.00466347Z" fill="black"/>
<path d="M193.334 8.3366H201.666V16.6731H193.334V8.3366Z" fill="black"/>
<path d="M193.334 16.6729H201.666V25.0046H193.334V16.6729Z" fill="black"/>
<path d="M210.002 16.6729H218.334V25.0046H210.002V16.6729Z" fill="black"/>
<path d="M193.334 25.0046H201.666V33.3411H193.334V25.0046Z" fill="black"/>
<path d="M210.002 25.0046H218.334V33.3411H210.002V25.0046Z" fill="black"/>
<path d="M193.334 33.3413H201.666V41.6731H193.334V33.3413Z" fill="black"/>
<path d="M201.666 33.3413H210.003V41.6731H201.666V33.3413Z" fill="black"/>
<path d="M210.002 33.3413H218.334V41.6731H210.002V33.3413Z" fill="black"/>
</svg>
