<svg width="103" height="125" viewBox="0 0 103 125" fill="none" xmlns="http://www.w3.org/2000/svg">
<path d="M80.5867 36.6266V43.96H73.2667V36.6266H80.5867Z" fill="#F24C88"/>
<path d="M80.5867 7.3333V14.6533H73.2667V7.3333H80.5867Z" fill="#EE706C"/>
<path d="M73.2667 43.9598V51.2798H65.9333V43.9598H73.2667Z" fill="#F24C88"/>
<path d="M73.2667 36.6266V43.96H65.9333V36.6266H73.2667Z" fill="#F24C88"/>
<path d="M73.2667 7.3333V14.6533H65.9333V7.3333H73.2667Z" fill="#B2453E"/>
<path d="M65.9334 51.2799V58.6133H58.6134V51.2799H65.9334Z" fill="#F24C88"/>
<path d="M65.9334 43.9598V51.2798H58.6134V43.9598H65.9334Z" fill="#F24C88"/>
<path d="M65.9334 36.6266V43.96H58.6134V36.6266H65.9334Z" fill="#F24C88"/>
<path d="M65.9334 14.6532V21.9731H58.6134V14.6532H65.9334Z" fill="#B2453E"/>
<path d="M58.6134 65.9333V73.2666H51.28V65.9333H58.6134Z" fill="#F24C88"/>
<path d="M58.6134 58.6131V65.9331H51.28V58.6131H58.6134Z" fill="#F24C88"/>
<path d="M58.6134 51.2799V58.6133H51.28V51.2799H58.6134Z" fill="#F24C88"/>
<path d="M58.6134 21.9733V29.3066H51.28V21.9733H58.6134Z" fill="#DA625C"/>
<path d="M51.28 51.2799V58.6133H43.96V51.2799H51.28Z" fill="#F24C88"/>
<path d="M51.28 36.6264H43.96C43.96 40.2784 43.96 47.6291 43.96 51.2798C47.612 51.2798 54.9626 51.2798 58.6133 51.2798C58.6133 47.6278 58.6133 40.2771 58.6133 36.6264H51.28Z" fill="#F24C88"/>
<path d="M43.96 43.9598V51.2798H36.64V43.9598H43.96Z" fill="#F24C88"/>
<path d="M43.96 36.6266V43.96H36.64V36.6266H43.96Z" fill="#F24C88"/>
<path d="M36.64 36.6266V43.96H29.3066V36.6266H36.64Z" fill="#F24C88"/>
<path d="M87.92 29.3066C63.7267 29.3066 38.8467 29.3066 14.6533 29.3066V36.6266H21.9867V43.96H29.3067V36.6266C46.072 36.6266 63.8213 36.6266 80.5866 36.6266V43.96H87.92V36.6266H95.24V29.3066H87.92Z" fill="#E8E1F3"/>
<path d="M73.2666 51.2798H65.9333V58.6131H58.6133C58.6133 62.2651 58.6133 69.6158 58.6133 73.2665H51.28C51.28 69.6145 51.28 62.2638 51.28 58.6131H43.96V51.2798H36.64V43.9598H29.3066C29.3066 47.6118 29.3066 54.9625 29.3066 58.6131H36.64V65.9331H43.96C43.96 69.5851 43.96 76.9358 43.96 80.5865H51.28C51.28 87.1118 51.28 96.0358 51.28 102.56H43.96V109.893H36.64V117.213C48.384 117.213 61.5226 117.213 73.2666 117.213V109.893H65.9333V102.56H58.6133C58.6133 96.0345 58.6133 87.1105 58.6133 80.5865H65.9333C65.9333 76.9345 65.9333 69.5838 65.9333 65.9331H73.2666V58.6131H80.5866C80.5866 54.9611 80.5866 47.6105 80.5866 43.9598H73.2666V51.2798Z" fill="#E8E1F3"/>
<path d="M73.2667 51.2799V58.6133H65.9333V51.2799H73.2667Z" fill="#D7CBEA"/>
<path d="M65.9334 102.56V109.893H58.6134V102.56H65.9334Z" fill="#D7CBEA"/>
<path d="M65.9334 58.6131V65.9331H58.6134V58.6131H65.9334Z" fill="#D7CBEA"/>
<path d="M65.9334 29.3065V36.6265H58.6134V29.3065H65.9334Z" fill="#D7CBEA"/>
<path d="M73.2667 51.2798H80.5867V43.9598H73.2667V51.2798Z" fill="#B8B3E0"/>
<path d="M73.2667 29.3065H65.9333V36.6265C69.5853 36.6265 76.936 36.6265 80.5867 36.6265V29.3065H73.2667Z" fill="#B8B3E0"/>
<path d="M58.6134 80.5864H65.9334V73.2664H58.6134V80.5864Z" fill="#B8B3E0"/>
<path d="M51.28 117.213H58.6134V109.893H51.28V117.213Z" fill="#B8B3E0"/>
<path d="M51.28 95.2397H58.6134V87.9198H51.28V95.2397Z" fill="#B8B3E0"/>
<path d="M87.92 29.3066H80.5867C80.5867 32.9586 80.5867 40.3093 80.5867 43.96H87.92V36.6266H95.24V29.3066H87.92Z" fill="#8483C9"/>
<path d="M73.2667 58.6133H80.5867V51.2799H73.2667V58.6133Z" fill="#8483C9"/>
<path d="M65.9333 65.9331H73.2667V58.6131H65.9333V65.9331Z" fill="#8483C9"/>
<path d="M58.6134 109.893V117.213C62.2654 117.213 69.6161 117.213 73.2667 117.213V109.893C69.6147 109.893 62.2641 109.893 58.6134 109.893Z" fill="#8483C9"/>
<path d="M58.6134 73.2666H65.9334V65.9333H58.6134V73.2666Z" fill="#8483C9"/>
<path d="M58.6134 80.5866H51.28V87.9199H58.6134V80.5866Z" fill="#8483C9"/>
<path d="M58.6134 73.2664V80.5864H51.28V73.2664H58.6134Z" fill="#D7CBEA"/>
<path d="M73.2667 36.6266C69.6147 36.6266 62.264 36.6266 58.6134 36.6266C58.6134 40.2786 58.6134 47.6293 58.6134 51.2799H51.28C51.28 57.8093 51.28 66.7386 51.28 73.2666H58.6134C58.6134 69.6146 58.6134 62.2639 58.6134 58.6133H65.9334V51.2799H73.2667V43.9599H80.5867V36.6266H73.2667Z" fill="#EE2665"/>
<path d="M51.28 102.56V109.893H43.96V102.56H51.28Z" fill="white"/>
<path d="M43.96 51.2799V58.6133H51.28V51.2799H43.96Z" fill="#F689AA"/>
<path d="M43.96 36.6264C40.308 36.6264 32.9573 36.6264 29.3066 36.6264V43.9598H36.64V51.2798H43.96C43.96 47.6278 43.96 40.2771 43.96 36.6264Z" fill="#F689AA"/>
<path d="M29.3066 43.9598V51.2798H36.64V43.9598H29.3066Z" fill="white"/>
<path d="M21.9867 36.6266V43.96H29.3067V36.6266H21.9867Z" fill="white"/>
<path d="M29.3067 21.9733V29.3066H21.9867V21.9733H29.3067Z" fill="#F24C88"/>
<path d="M29.3067 14.6532V21.9731H21.9867V14.6532H29.3067Z" fill="#EE2665"/>
<path d="M21.9867 21.9733V29.3066H14.6533V21.9733H21.9867Z" fill="#F689AA"/>
<path d="M14.6534 29.3065V36.6265H7.33337V29.3065H14.6534Z" fill="#EE2665"/>
<path d="M14.6534 14.6533H7.33337C7.33337 18.3053 7.33337 25.656 7.33337 29.3066H14.6534V21.9733H21.9867V14.6533H14.6534Z" fill="#F24C88"/>
<path d="M65.9334 14.6533V21.9733H58.6134V29.3066C70.3574 29.3066 83.4961 29.3066 95.2401 29.3066V21.9733C91.5881 21.9733 84.2374 21.9733 80.5867 21.9733V14.6533C76.9347 14.6533 69.5841 14.6533 65.9334 14.6533Z" fill="black"/>
<path d="M87.92 14.6533V7.3333H80.5867V14.6533H87.92Z" fill="black"/>
<path d="M80.5867 7.33325V-8.09431e-05C76.9347 -8.09431e-05 69.584 -8.09431e-05 65.9333 -8.09431e-05V7.33325C69.5853 7.33325 76.936 7.33325 80.5867 7.33325Z" fill="black"/>
<path d="M65.9334 7.3333H58.6134V14.6533H65.9334V7.3333Z" fill="black"/>
<path d="M58.6134 14.6532H51.28V21.9731H58.6134V14.6532Z" fill="black"/>
<path d="M29.3066 29.3066C35.832 29.3066 44.756 29.3066 51.28 29.3066V21.9733C47.632 21.9733 40.288 21.9733 36.64 21.9733V14.6533H29.3066C29.3066 18.3053 29.3066 25.656 29.3066 29.3066Z" fill="black"/>
<path d="M21.9867 14.6533H29.3067V7.3333C22.7814 7.3333 13.8574 7.3333 7.33337 7.3333V14.6533C10.9854 14.6533 18.336 14.6533 21.9867 14.6533Z" fill="black"/>
<path d="M7.33333 21.9731V14.6532H0C0 21.1785 0 30.1025 0 36.6265H7.33333C7.33333 32.9745 7.33333 25.6238 7.33333 21.9731Z" fill="black"/>
<path d="M14.6534 36.6266H7.33337V43.96C10.9854 43.96 18.336 43.96 21.9867 43.96V36.6266H14.6534Z" fill="black"/>
<path d="M29.3067 43.9599H21.9867C21.9867 47.6119 21.9867 54.9626 21.9867 58.6133H29.3067C29.3067 54.9613 29.3067 47.6106 29.3067 43.9599Z" fill="black"/>
<path d="M29.3066 58.6131V65.9331H36.64V58.6131H29.3066Z" fill="black"/>
<path d="M43.96 65.9331H36.64C36.64 69.5851 36.64 76.9358 36.64 80.5864H43.96C43.96 76.9344 43.96 69.5837 43.96 65.9331Z" fill="black"/>
<path d="M51.28 95.2398C51.28 91.5878 51.28 84.2372 51.28 80.5865H43.96C43.96 87.1118 43.96 96.0358 43.96 102.56H51.28V95.2398Z" fill="black"/>
<path d="M43.96 102.56H36.64V109.893H43.96V102.56Z" fill="black"/>
<path d="M29.3066 109.893V117.213H36.64V109.893H29.3066Z" fill="black"/>
<path d="M58.6134 117.213C52.088 117.213 43.164 117.213 36.64 117.213V124.546C48.384 124.546 61.5227 124.546 73.2667 124.546V117.213C69.6147 117.213 62.264 117.213 58.6134 117.213Z" fill="black"/>
<path d="M80.5867 117.213V109.893H73.2667V117.213H80.5867Z" fill="black"/>
<path d="M73.2667 109.893V102.56H65.9333V109.893H73.2667Z" fill="black"/>
<path d="M58.6134 87.9198C58.6134 91.5678 58.6134 98.9118 58.6134 102.56H65.9334C65.9334 96.0345 65.9334 87.1105 65.9334 80.5865H58.6134V87.9198Z" fill="black"/>
<path d="M65.9333 73.2664V80.5864H73.2667C73.2667 76.9344 73.2667 69.5837 73.2667 65.9331H65.9333V73.2664Z" fill="black"/>
<path d="M73.2667 65.9331H80.5867V58.6131H73.2667V65.9331Z" fill="black"/>
<path d="M80.5867 51.2799V58.6133H87.92C87.92 54.9613 87.92 47.6106 87.92 43.9599H80.5867V51.2799Z" fill="black"/>
<path d="M87.92 43.96H95.2401V36.6266H87.92V43.96Z" fill="black"/>
<path d="M95.24 29.3065V36.6265H102.573V29.3065H95.24Z" fill="black"/>
</svg>
