<svg width="59" height="132" viewBox="0 0 59 132" fill="none" xmlns="http://www.w3.org/2000/svg">
<path d="M51.2934 7.31999V14.6533H43.9601V7.31999H51.2934Z" fill="#FBC37D"/>
<path d="M43.9601 58.6V65.9333H36.6401V58.6H43.9601Z" fill="#B8B3E0"/>
<path d="M36.6401 7.31999V14.6533H43.9601V7.31999H36.6401Z" fill="#FDE1B6"/>
<path d="M29.3068 21.9733V29.3066H36.6401C36.6401 25.6546 36.6401 18.304 36.6401 14.6533H29.3068V21.9733Z" fill="#FDE1B6"/>
<path d="M29.3067 117.213V124.547H21.9867V117.213H29.3067Z" fill="#B8B3E0"/>
<path d="M29.3067 109.893V117.213H21.9867V109.893H29.3067Z" fill="#B8B3E0"/>
<path d="M36.64 29.3067C32.988 29.3067 25.6374 29.3067 21.9867 29.3067V36.6267C28.5107 36.6267 37.436 36.6267 43.96 36.6267V29.3067H36.64Z" fill="#EE8626"/>
<path d="M29.3067 51.2801H21.9867V58.6001H29.3067V65.9334H21.9867C21.9867 72.4587 21.9867 81.3827 21.9867 87.9067C25.6374 87.9067 32.988 87.9067 36.64 87.9067C36.64 73.6427 36.64 58.2241 36.64 43.9601H29.3067V51.2801Z" fill="#EE8626"/>
<path d="M21.9867 95.24H29.3067V87.9067H21.9867V95.24Z" fill="#E36D17"/>
<path d="M21.9867 65.9333H29.3067V58.6H21.9867V65.9333Z" fill="#E36D17"/>
<path d="M21.9867 51.28H29.3067V43.96H21.9867V51.28Z" fill="#E36D17"/>
<path d="M21.9867 14.6533C21.9867 18.3053 21.9867 25.656 21.9867 29.3066H29.3067C29.3067 25.6546 29.3067 18.304 29.3067 14.6533H21.9867Z" fill="#E36D17"/>
<path d="M14.6533 80.5867V87.9067H21.9867V80.5867H14.6533Z" fill="#E36D17"/>
<path d="M14.6533 73.2534H21.9867V65.9334H14.6533V73.2534Z" fill="#E36D17"/>
<path d="M14.6533 36.6267H21.9867V29.3067H14.6533V36.6267Z" fill="#E36D17"/>
<path d="M36.6401 73.2534C36.6401 76.9054 36.6401 84.2561 36.6401 87.9067H43.9601C43.9601 81.3814 43.9601 72.4574 43.9601 65.9334H36.6401V73.2534Z" fill="#D7CBEA"/>
<path d="M36.6401 36.6268H29.3068V43.9601H36.6401C36.6401 47.6081 36.6401 54.9521 36.6401 58.6001H43.9601C43.9601 52.0748 43.9601 43.1508 43.9601 36.6268H36.6401Z" fill="#D7CBEA"/>
<path d="M29.3068 117.213V124.547C32.9588 124.547 40.3094 124.547 43.9601 124.547V117.213C40.3081 117.213 32.9574 117.213 29.3068 117.213Z" fill="#D7CBEA"/>
<path d="M29.3068 95.2401V102.56H36.6401C36.6401 98.9081 36.6401 91.5574 36.6401 87.9067H29.3068V95.2401Z" fill="#D7CBEA"/>
<path d="M21.9867 109.893H29.3067V102.56H21.9867V109.893Z" fill="#D7CBEA"/>
<path d="M7.33337 117.213V124.547C10.984 124.547 18.3347 124.547 21.9867 124.547V117.213C18.3347 117.213 10.984 117.213 7.33337 117.213Z" fill="#D7CBEA"/>
<path d="M14.6533 109.893V117.213H21.9867V109.893H14.6533Z" fill="white"/>
<path d="M14.6534 58.6C14.6534 54.952 14.6534 47.608 14.6534 43.96H7.33337C7.33337 50.4853 7.33337 59.4093 7.33337 65.9333H14.6534V58.6Z" fill="white"/>
<path d="M29.3068 109.893V117.213H36.6401V109.893H29.3068Z" fill="#E8E1F3"/>
<path d="M29.3067 95.2401H21.9867V87.9067H14.6533C14.6533 91.5587 14.6533 98.9094 14.6533 102.56C18.3053 102.56 25.656 102.56 29.3067 102.56V95.2401Z" fill="#E8E1F3"/>
<path d="M21.9867 43.96H29.3067V36.6266C22.7814 36.6266 13.8574 36.6266 7.33337 36.6266V43.96C10.984 43.96 18.3347 43.96 21.9867 43.96Z" fill="#E8E1F3"/>
<path d="M14.6534 73.2534V65.9334H7.33337C7.33337 72.4587 7.33337 81.3827 7.33337 87.9067H14.6534C14.6534 84.2547 14.6534 76.9041 14.6534 73.2534Z" fill="#E8E1F3"/>
<path d="M29.3068 7.31999V14.6533H36.6401V7.31999H29.3068Z" fill="#FFB46F"/>
<path d="M14.6533 80.5867H21.9867V73.2533H14.6533V80.5867Z" fill="#FFB46F"/>
<path d="M14.6533 51.28C14.6533 54.932 14.6533 62.2827 14.6533 65.9333H21.9867C21.9867 59.408 21.9867 50.484 21.9867 43.96H14.6533V51.28Z" fill="#FFB46F"/>
<path d="M14.6533 29.3066H21.9867V21.9733H14.6533V29.3066Z" fill="#FFB46F"/>
<path d="M7.33337 36.6267H14.6534V29.3067H7.33337V36.6267Z" fill="#FFB46F"/>
<path d="M43.9601 36.6266V43.96H36.6401V36.6266H43.9601Z" fill="#B8B3E0"/>
<path d="M36.6401 73.2534C36.6401 76.9054 36.6401 84.2561 36.6401 87.9067H43.9601C43.9601 81.3814 43.9601 72.4574 43.9601 65.9334H36.6401V73.2534Z" fill="#8483C9"/>
<path d="M36.6401 51.2801V58.6001H43.9601V51.2801H36.6401Z" fill="#8483C9"/>
<path d="M36.6401 109.893H29.3068C29.3068 113.545 29.3068 120.896 29.3068 124.547C32.9588 124.547 40.3094 124.547 43.9601 124.547V117.213H36.6401V109.893Z" fill="#8483C9"/>
<path d="M36.6401 95.2401H29.3068V102.56H36.6401V95.2401Z" fill="#8483C9"/>
<path d="M21.9867 102.56V109.893H29.3067V102.56H21.9867Z" fill="#8483C9"/>
<path d="M51.2935 7.31999V14.6533H58.6134V7.31999H51.2935Z" fill="black"/>
<path d="M51.2934 124.547V117.213H43.9601V124.547H51.2934Z" fill="black"/>
<path d="M43.9601 43.9601C43.9601 58.2241 43.9601 73.6427 43.9601 87.9067H51.2934C51.2934 68.6601 51.2934 48.5534 51.2934 29.3067H43.9601C43.9601 32.9587 43.9601 40.3094 43.9601 43.9601Z" fill="black"/>
<path d="M43.9601 117.213V109.893H36.6401V117.213H43.9601Z" fill="black"/>
<path d="M36.6401 95.2401V102.56H43.9601C43.9601 98.9081 43.9601 91.5574 43.9601 87.9067H36.6401V95.2401Z" fill="black"/>
<path d="M36.6401 14.6533C36.6401 18.3053 36.6401 25.656 36.6401 29.3066H43.9601V21.9733H51.2935V14.6533C47.6415 14.6533 40.2908 14.6533 36.6401 14.6533Z" fill="black"/>
<path d="M43.9601 7.32007H51.2934V8.18165e-05C44.7641 8.18165e-05 35.8348 8.18165e-05 29.3068 8.18165e-05V7.32007C32.9588 7.32007 40.3094 7.32007 43.9601 7.32007Z" fill="black"/>
<path d="M29.3067 124.547C22.7814 124.547 13.8574 124.547 7.33337 124.547V131.867C19.0774 131.867 32.2147 131.867 43.9601 131.867V124.547C40.3081 124.547 32.9574 124.547 29.3067 124.547Z" fill="black"/>
<path d="M29.3068 109.893H36.6401V102.56H29.3068V109.893Z" fill="black"/>
<path d="M29.3067 7.31999H21.9867V14.6533H29.3067V7.31999Z" fill="black"/>
<path d="M21.9867 102.56H14.6533V109.893H21.9867V102.56Z" fill="black"/>
<path d="M21.9867 14.6534H14.6533V21.9734H21.9867V14.6534Z" fill="black"/>
<path d="M14.6534 109.893H7.33337V117.213H14.6534V109.893Z" fill="black"/>
<path d="M14.6534 87.9067H7.33337C7.33337 91.5587 7.33337 98.9094 7.33337 102.56H14.6534C14.6534 98.9081 14.6534 91.5574 14.6534 87.9067Z" fill="black"/>
<path d="M14.6534 21.9733H7.33337V29.3066H14.6534V21.9733Z" fill="black"/>
<path d="M0 117.213V124.547H7.33333V117.213H0Z" fill="black"/>
<path d="M7.33333 73.2534C7.33333 58.9894 7.33333 43.5707 7.33333 29.3067H0C0 48.5534 0 68.6601 0 87.9067H7.33333C7.33333 84.2547 7.33333 76.9041 7.33333 73.2534Z" fill="black"/>
</svg>
