<svg width="66" height="95" viewBox="0 0 66 95" fill="none" xmlns="http://www.w3.org/2000/svg">
<path d="M58.9328 72.9064V80.2397H51.5995V72.9064H58.9328Z" fill="#D7CBEA"/>
<path d="M58.9328 65.5862V72.9065H51.5995V65.5862H58.9328Z" fill="#D7CBEA"/>
<path d="M58.9328 58.2663V65.5862H51.5995V58.2663H58.9328Z" fill="#D7CBEA"/>
<path d="M58.9328 50.933V58.2664H51.5995V50.933H58.9328Z" fill="#D7CBEA"/>
<path d="M58.9328 43.6131V50.9331H51.5995V43.6131H58.9328Z" fill="#D7CBEA"/>
<path d="M58.9328 36.2797V43.613H51.5995V36.2797H58.9328Z" fill="#D7CBEA"/>
<path d="M58.9328 28.9598V36.2798H51.5995V28.9598H58.9328Z" fill="#D7CBEA"/>
<path d="M58.9328 21.6264V28.9597H51.5995V21.6264H58.9328Z" fill="#D7CBEA"/>
<path d="M58.9328 14.3065V21.6265H51.5995V14.3065H58.9328Z" fill="#D7CBEA"/>
<path d="M58.9328 6.97306V14.3064H51.5995V6.97306H58.9328Z" fill="#D7CBEA"/>
<path d="M51.5994 80.2398V87.5596H44.2794V80.2398H51.5994Z" fill="#D7CBEA"/>
<path d="M51.5994 72.9064V80.2397H44.2794V72.9064H51.5994Z" fill="#D7CBEA"/>
<path d="M51.5994 14.3065V21.6265H44.2794V14.3065H51.5994Z" fill="#D7CBEA"/>
<path d="M51.5994 6.97306V14.3064H44.2794V6.97306H51.5994Z" fill="#D7CBEA"/>
<path d="M44.2795 80.2398V87.5596H36.9464V80.2398H44.2795Z" fill="#D7CBEA"/>
<path d="M44.2795 14.3065V21.6265H36.9464V14.3065H44.2795Z" fill="#D7CBEA"/>
<path d="M44.2795 6.97306V14.3064H36.9464V6.97306H44.2795Z" fill="#D7CBEA"/>
<path d="M36.9463 80.2398V87.5596H29.6265V80.2398H36.9463Z" fill="#D7CBEA"/>
<path d="M36.9463 14.3065V21.6265H29.6265V14.3065H36.9463Z" fill="#D7CBEA"/>
<path d="M36.9463 6.97306V14.3064H29.6265V6.97306H36.9463Z" fill="#E8E1F3"/>
<path d="M29.6265 80.2398V87.5596H22.2932V80.2398H29.6265Z" fill="#E8E1F3"/>
<path d="M29.6265 14.3065V21.6265H22.2932V14.3065H29.6265Z" fill="#E8E1F3"/>
<path d="M29.6265 6.97306V14.3064H22.2932V6.97306H29.6265Z" fill="#E8E1F3"/>
<path d="M22.2932 80.2398V87.5596H14.9735V80.2398H22.2932Z" fill="#E8E1F3"/>
<path d="M22.2932 72.9064V80.2397H14.9735V72.9064H22.2932Z" fill="#E8E1F3"/>
<path d="M22.2932 14.3065V21.6265H14.9735V14.3065H22.2932Z" fill="#E8E1F3"/>
<path d="M22.2932 6.97306V14.3064H14.9735V6.97306H22.2932Z" fill="#E8E1F3"/>
<path d="M14.9735 72.9064V80.2397H7.65308V72.9064H14.9735Z" fill="#E8E1F3"/>
<path d="M14.9735 65.5862V72.9065H7.65308V65.5862H14.9735Z" fill="#E8E1F3"/>
<path d="M14.9735 28.9598V36.2798H7.65308V28.9598H14.9735Z" fill="#E8E1F3"/>
<path d="M14.9735 14.3065V21.6265H7.65308V14.3065H14.9735Z" fill="#E8E1F3"/>
<path d="M14.9735 6.97306V14.3064H7.65308V6.97306H14.9735Z" fill="#E8E1F3"/>
<path d="M58.9328 72.9064V80.2397H51.5995V72.9064H58.9328Z" fill="#8483C9"/>
<path d="M58.9328 65.5862V72.9065H51.5995V65.5862H58.9328Z" fill="#8483C9"/>
<path d="M58.9328 58.2663V65.5862H51.5995V58.2663H58.9328Z" fill="#B8B3E0"/>
<path d="M58.9328 50.933V58.2664H51.5995V50.933H58.9328Z" fill="#8483C9"/>
<path d="M58.9328 36.2797V43.613H51.5995V36.2797H58.9328Z" fill="#8483C9"/>
<path d="M58.9328 28.9598V36.2798H51.5995V28.9598H58.9328Z" fill="#B8B3E0"/>
<path d="M51.5994 80.2398V87.5596H44.2794V80.2398H51.5994Z" fill="#8483C9"/>
<path d="M51.5994 72.9064V80.2397H44.2794V72.9064H51.5994Z" fill="#B8B3E0"/>
<path d="M51.5994 58.2663V65.5862H44.2794V58.2663H51.5994Z" fill="#5A7ACC"/>
<path d="M44.2795 80.2398V87.5596H36.9464V80.2398H44.2795Z" fill="#B8B3E0"/>
<path d="M29.6265 43.6131V50.9331H22.2932V43.6131H29.6265Z" fill="#B8E6FF"/>
<path d="M14.9735 65.5862V72.9065H7.65308V65.5862H14.9735Z" fill="#B8B3E0"/>
<path d="M14.9735 14.3065V21.6265H7.65308V14.3065H14.9735Z" fill="white"/>
<path d="M14.9735 6.97306V14.3064H7.65308V6.97306H14.9735Z" fill="white"/>
<path d="M44.2795 21.6263H36.9464V28.9596H29.6266V21.6263C25.9746 21.6263 18.624 21.6263 14.9735 21.6263V28.9596H22.2932V36.2796H29.6266C29.6266 39.9316 29.6266 47.2823 29.6266 50.9329H22.2932V43.6129H14.9735C14.9735 50.1371 14.9735 59.0621 14.9735 65.5861H22.2932V58.2663H29.6266V65.5861H22.2932C22.2932 69.2381 22.2932 76.5887 22.2932 80.2397C25.9454 80.2397 33.2959 80.2397 36.9464 80.2397V72.9064H44.2795V65.5861H51.5995C51.5995 51.3168 51.5995 35.8943 51.5995 21.6263H44.2795Z" fill="#8AC7FF"/>
<path d="M15.3383 7H23V-4.02833e-08C16.1702 -4.02833e-08 6.82934 -4.02833e-08 0 -4.02833e-08V7C3.82275 7 11.5167 7 15.3383 7Z" fill="black"/>
<path d="M38.3383 7H46V-4.02833e-08C39.1702 -4.02833e-08 29.8293 -4.02833e-08 23 -4.02833e-08V7C26.8227 7 34.5167 7 38.3383 7Z" fill="black"/>
<path d="M59.3377 7H66V-4.02833e-08C60.0611 -4.02833e-08 51.9386 -4.02833e-08 46 -4.02833e-08V7C49.3241 7 56.0145 7 59.3377 7Z" fill="black"/>
<path d="M8 63.7759C8 45.2138 8 25.5607 8 7H0C0 31.0508 0 55.9477 0 80H8C8 75.9564 8 67.8181 8 63.7759Z" fill="black"/>
<path d="M59 7C59 31.1052 59 55.8949 59 80H66C66 55.8949 66 31.1052 66 7H59Z" fill="black"/>
<path d="M51.5995 87.5596H58.9328V80.2398H51.5995V87.5596Z" fill="black"/>
<path d="M36.9464 87.5595C30.4219 87.5595 21.4974 87.5595 14.9735 87.5595V94.8928C26.7178 94.8928 39.8555 94.8928 51.5995 94.8928V87.5595C47.9488 87.5595 40.5982 87.5595 36.9464 87.5595Z" fill="black"/>
<path d="M7.65308 80.2401V87.5598H14.9735V80.2401H7.65308Z" fill="black"/>
<path d="M51.5994 65.5861H44.2794V58.2663H36.9463V65.5861H29.6265C29.6265 69.2381 29.6265 76.5887 29.6265 80.2397C33.2781 80.2397 40.6287 80.2397 44.2794 80.2397V72.9064H51.5994V65.5861Z" fill="#7DAAEE"/>
<path d="M29.6265 28.9597H36.9463V21.6264H29.6265V28.9597Z" fill="#7DAAEE"/>
<path d="M22.2932 58.2663V65.5862H29.6265V58.2663H22.2932Z" fill="#7DAAEE"/>
<path d="M22.2932 50.9331H29.6266C29.6266 47.2811 29.6266 39.9304 29.6266 36.2798H22.2932V28.9598H14.9735C14.9735 32.6118 14.9735 39.9624 14.9735 43.6131H22.2932V50.9331Z" fill="#7DAAEE"/>
<path d="M14.9735 72.9065H22.2932V65.5862H14.9735V72.9065Z" fill="#7DAAEE"/>
<path d="M51.5994 50.933H44.2794V58.2664H51.5994V50.933Z" fill="#7DAAEE"/>
<path d="M51.5994 36.2797H44.2794V43.613H51.5994V36.2797Z" fill="#7DAAEE"/>
<path d="M36.9464 43.6131V50.9331H44.2795V43.6131H36.9464Z" fill="#7DAAEE"/>
<path d="M51.5994 65.5862V72.9065H44.2794V65.5862H51.5994Z" fill="#5A7ACC"/>
<path d="M44.2795 72.9064V80.2397H36.9464V72.9064H44.2795Z" fill="#5A7ACC"/>
<path d="M51.5994 43.6131V50.9331H44.2794V43.6131H51.5994Z" fill="#5A7ACC"/>
<path d="M51.5994 6.97313H44.2794C44.2794 10.6251 44.2794 17.9758 44.2794 21.6265C47.9314 21.6265 55.2821 21.6265 58.9328 21.6265C58.9328 17.9745 58.9328 10.6238 58.9328 6.97313H51.5994Z" fill="#B8B3E0"/>
<path d="M8 22C8 36.2824 8 51.7176 8 66H15C15 51.7176 15 36.281 15 22H8Z" fill="#E8E1F3"/>
<path d="M14.9735 21.6264C14.9735 28.1557 14.9735 37.085 14.9735 43.613H22.2932C22.2932 37.0837 22.2932 28.1544 22.2932 21.6264H14.9735Z" fill="#B8E6FF"/>
</svg>
