<svg width="96" height="96" viewBox="0 0 96 96" fill="none" xmlns="http://www.w3.org/2000/svg">
<path d="M80.5868 29.2931V36.6265H73.2668V29.2931H80.5868Z" fill="#CD554E"/>
<path d="M80.5868 21.9733V29.2932H73.2668V21.9733H80.5868Z" fill="#CD554E"/>
<path d="M73.2669 36.6265V43.9465H65.9336V36.6265H73.2669Z" fill="#CD554E"/>
<path d="M65.9335 51.2799V58.5999H58.6135V51.2799H65.9335Z" fill="#CD554E"/>
<path d="M43.9601 14.6401V21.9734H36.6396V14.6401H43.9601Z" fill="white"/>
<path d="M36.6396 21.9733V29.2932H29.3063V21.9733H36.6396Z" fill="white"/>
<path d="M29.3063 29.2931V36.6265H21.9866V29.2931H29.3063Z" fill="white"/>
<path d="M73.2668 7.31984V14.6399H80.5868V7.31984H73.2668Z" fill="#DA625C"/>
<path d="M58.6136 29.2932H51.2934V36.6266H43.96V43.9466H36.6396V51.2799H29.3063V58.5999H21.9866V51.2799H29.3063V43.9466H36.6396V36.6266H43.96V29.2932H51.2934V21.9733H58.6136V29.2932ZM65.9336 14.6399H58.6136V7.31989H43.96V14.6399V21.9733H36.6396V29.2932H29.3063V36.6266H21.9866V43.9466H14.6532H7.33337V51.2799H14.6532V58.5999H7.33337V65.9332H14.6532H21.9866V73.2533V80.5732H29.3063V73.2533H36.6396V65.9332V58.5999H43.96V65.9332H51.2934V58.5999V51.2799H58.6136V43.9466H65.9336V36.6266V29.2932H73.267V21.9733H65.9336V14.6399Z" fill="#DA625C"/>
<path d="M36.6396 14.6401H29.3063V21.9734H36.6396V14.6401Z" fill="#DA625C"/>
<path d="M29.3063 21.9733H21.9866V29.2932H29.3063V21.9733Z" fill="#DA625C"/>
<path d="M14.6532 87.9065H21.9865V80.5732H14.6532V87.9065Z" fill="#DA625C"/>
<path d="M14.6532 29.2931V36.6265H21.9865V29.2931H14.6532Z" fill="#DA625C"/>
<path d="M7.33337 73.2533V80.5732H14.6532V73.2533H7.33337Z" fill="#DA625C"/>
<path d="M65.9336 21.9734H73.2669V14.6401H65.9336V21.9734Z" fill="#EE706C"/>
<path d="M58.6135 51.28H65.9335V43.9467H58.6135V51.28Z" fill="#EE706C"/>
<path d="M58.6135 7.31984V14.6399H65.9335V7.31984H58.6135Z" fill="#EE706C"/>
<path d="M36.6396 65.9333H43.9601V58.6H36.6396V65.9333Z" fill="#EE706C"/>
<path d="M14.6532 73.2532H21.9865V65.9332H14.6532V73.2532Z" fill="#EE706C"/>
<path d="M14.6532 51.2799H7.33337V58.5999H14.6532V51.2799Z" fill="#EE706C"/>
<path d="M7.33337 36.6265V43.9465H21.9866V36.6265H14.6532H7.33337Z" fill="#EE706C"/>
<path d="M36.6396 87.9066V80.5732H29.3063V87.9066H21.9865H14.6532V80.5732H7.33333V73.2533H14.6532V65.9332H7.33333V58.5999V51.2799V43.9466V36.6266H0V43.9466V51.2799V58.5999V65.9332V73.2533V80.5732V87.9066H7.33333V95.2266H14.6532H21.9865H29.3063H36.6396H43.96H51.2933V87.9066H43.96H36.6396Z" fill="black"/>
<path d="M80.5868 21.9734V14.6401H73.2668V21.9734H80.5868Z" fill="black"/>
<path d="M51.2933 29.2932H58.6136V21.9733H51.2933V29.2932Z" fill="black"/>
<path d="M43.96 36.6265H51.2933V29.2931H43.96V36.6265Z" fill="black"/>
<path d="M36.6396 43.9465H43.9601V36.6265H36.6396V43.9465Z" fill="black"/>
<path d="M29.3063 51.28H36.6396V43.9467H29.3063V51.28Z" fill="black"/>
<path d="M21.9866 58.5999H29.3063V51.2799H21.9866V58.5999Z" fill="black"/>
<path d="M21.9865 80.5732V73.2533H14.6532V80.5732H21.9865Z" fill="black"/>
<path d="M87.9202 7.32V1.36016e-05H43.96V7.32H51.2933H58.6136H65.9336V14.6401H73.2669V7.32H80.5869V14.6401H87.9202V21.9734H80.5869V29.2933H87.9202V36.6267V43.9467V51.28H95.2402V43.9467V36.6267V29.2933V21.9734V14.6401V7.32H87.9202Z" fill="black"/>
<path d="M80.5869 58.6V65.9333H87.9202V51.28H80.5869V58.6Z" fill="black"/>
<path d="M73.2668 73.2532H80.5868V65.9332H73.2668V73.2532Z" fill="black"/>
<path d="M65.9336 80.5732H73.2669V73.2533H65.9336V80.5732Z" fill="black"/>
<path d="M51.2933 80.5732V87.9065H65.9336V80.5732H58.6136H51.2933Z" fill="black"/>
<path d="M43.96 14.6399V7.31984H29.3063V14.6399H36.6396H43.96Z" fill="black"/>
<path d="M29.3063 14.6401H21.9866V21.9734H29.3063V14.6401Z" fill="black"/>
<path d="M21.9865 21.9733H14.6532V29.2932H21.9865V21.9733Z" fill="black"/>
<path d="M14.6532 29.2931H7.33337V36.6265H14.6532V29.2931Z" fill="black"/>
<path d="M80.5869 14.6401V21.9734H87.9202V14.6401H80.5869Z" fill="#B2453E"/>
<path d="M65.9336 29.2931V36.6265H73.2669V29.2931H65.9336Z" fill="#B2453E"/>
<path d="M21.9866 87.9065H29.3063V80.5732H21.9866V87.9065Z" fill="black"/>
<path d="M80.5869 36.6265H73.2669V43.9465H65.9336V51.2798V58.5998H58.6136V51.2798H51.2933V58.5998V65.9332H43.96H36.6396V73.2532H29.3063V80.5732V87.9065H36.6396H43.96H51.2933V80.5732H58.6136H65.9336V73.2532H73.2669V65.9332H80.5869V58.5998V51.2798H87.9203V43.9465V36.6265V29.2932H80.5869V36.6265Z" fill="#B2453E"/>
</svg>
