<svg width="98" height="98" viewBox="0 0 98 98" fill="none" xmlns="http://www.w3.org/2000/svg">
<path d="M83.172 69.3093H90.096V62.372H83.172V69.3093Z" fill="#8483C9"/>
<path d="M83.172 27.724V34.6479H90.096V27.724H83.172Z" fill="#8483C9"/>
<path d="M76.2346 76.2346H83.1719V69.3093H76.2346V76.2346Z" fill="#8483C9"/>
<path d="M76.2346 55.4481V62.3721H83.1719V55.4481H76.2346Z" fill="#8483C9"/>
<path d="M76.2346 20.7988V27.7241H83.1719V20.7988H76.2346Z" fill="#8483C9"/>
<path d="M62.3719 76.2346H69.3093V69.3093H62.3719V76.2346Z" fill="#8483C9"/>
<path d="M62.372 6.93734H55.448V13.8613H62.372V6.93734Z" fill="#8483C9"/>
<path d="M48.5227 83.172V90.0959H62.372V83.172H55.4481H48.5227Z" fill="#8483C9"/>
<path d="M76.2347 27.7241V20.7988H69.3093V34.6481H76.2347V41.5854H83.172V34.6481V27.7241H76.2347Z" fill="#B8B3E0"/>
<path d="M76.2347 55.448H69.3093V76.2346H76.2347V69.3093H83.172V62.372H76.2347V55.448Z" fill="#B8B3E0"/>
<path d="M69.3093 48.5107H76.2347V41.5854H69.3093V48.5107Z" fill="#B8B3E0"/>
<path d="M55.448 83.1719H62.372V76.2345H55.448V83.1719Z" fill="#B8B3E0"/>
<path d="M55.448 20.7986H62.372V13.8612H55.448V20.7986Z" fill="#B8B3E0"/>
<path d="M48.5227 6.93734V13.8613H55.4481V6.93734H48.5227Z" fill="#B8B3E0"/>
<path d="M41.5867 90.0959H48.5227V83.172H41.5867V90.0959Z" fill="#B8B3E0"/>
<path d="M34.6613 34.6481V41.5854H27.724V34.6481H34.6613Z" fill="white"/>
<path d="M34.6613 20.7988V27.7241H27.724V20.7988H34.6613Z" fill="white"/>
<path d="M27.724 27.724V34.6479H20.8V27.724H27.724Z" fill="white"/>
<path d="M83.1719 34.6481V41.5854H76.2346V55.4481H83.1719V62.3721H90.0959V55.4481V48.5107V41.5854V34.6481H83.1719Z" fill="#5C5F95"/>
<path d="M76.2346 20.7986V13.8612H69.3093V6.93726H62.3719V13.8612V20.7986H69.3093H76.2346Z" fill="#5C5F95"/>
<path d="M62.3719 76.2346V90.0959H69.3093V83.172H76.2346V76.2346H69.3093H62.3719Z" fill="#5C5F95"/>
<path d="M62.372 48.5107V41.5854H55.4481V34.6481H48.5227H41.5867V41.5854H34.6614V48.5107V55.4481H41.5867V62.3721H48.5227H55.4481V55.4481H62.372V48.5107Z" fill="#5C5F95"/>
<path d="M34.6614 20.7986V6.93726H27.724V13.8612H20.8V20.7986H27.724H34.6614Z" fill="#5C5F95"/>
<path d="M20.8 76.2346V83.172H27.724V90.0959H34.6614V83.172V76.2346H27.724H20.8Z" fill="#5C5F95"/>
<path d="M20.7999 48.5107V41.5854H13.8626V34.6481H6.93726V41.5854V48.5107V55.4481V62.3721H13.8626V55.4481H20.7999V48.5107Z" fill="#5C5F95"/>
<path d="M76.2346 41.5853V34.648H69.3093V20.7986H62.3719H55.4479V13.8613H48.5226V6.93728H41.5866H34.6612V13.8613V20.7986V27.724H27.7239V34.648H34.6612V41.5853H41.5866V34.648H48.5226H55.4479V41.5853H62.3719V48.5106V55.448H55.4479V62.372H48.5226H41.5866V55.448H34.6612V48.5106V41.5853H27.7239V34.648H20.7999V27.724H27.7239V20.7986H20.7999H13.8626V27.724H6.93726V34.648H13.8626V41.5853H20.7999V48.5106V55.448H13.8626V62.372H6.93726V69.3093H13.8626V76.2346H20.7999H27.7239H34.6612V83.172V90.0959H41.5866V83.172H48.5226H55.4479V76.2346H62.3719V69.3093H69.3093V62.372V55.448H76.2346V48.5106H69.3093V41.5853H76.2346Z" fill="#E8E1F3"/>
<path d="M76.2347 13.8613V6.93734H69.3093V13.8613H76.2347Z" fill="black"/>
<path d="M83.1719 20.7986V13.8612H76.2346V20.7986H83.1719Z" fill="black"/>
<path d="M90.096 27.7241V20.7988H83.172V27.7241H90.096Z" fill="black"/>
<path d="M90.0959 27.724V69.3093H97.0333V27.724H90.0959Z" fill="black"/>
<path d="M83.172 76.2346H90.096V69.3093H83.172V76.2346Z" fill="black"/>
<path d="M76.2346 83.1719H83.1719V76.2345H76.2346V83.1719Z" fill="black"/>
<path d="M69.3093 90.0959H76.2347V83.172H69.3093V90.0959Z" fill="black"/>
<path d="M55.448 90.0959H27.724V97.0332H69.3093V90.0959H62.372H55.448Z" fill="black"/>
<path d="M20.8 83.172V90.0959H27.724V83.172H20.8Z" fill="black"/>
<path d="M13.8627 76.2345V83.1719H20.8V76.2345H13.8627Z" fill="black"/>
<path d="M6.93726 69.3093V76.2346H13.8626V69.3093H6.93726Z" fill="black"/>
<path d="M6.93734 55.448V27.724H0V69.3093H6.93734V62.372V55.448Z" fill="black"/>
<path d="M13.8626 20.7988H6.93726V27.7241H13.8626V20.7988Z" fill="black"/>
<path d="M20.8 13.8612H13.8627V20.7986H20.8V13.8612Z" fill="black"/>
<path d="M27.724 6.93734H20.8V13.8613H27.724V6.93734Z" fill="black"/>
<path d="M41.5867 6.93726H69.3093V-8.09667e-05H27.724V6.93726H34.6613H41.5867Z" fill="black"/>
</svg>
