<svg width="103" height="88" viewBox="0 0 103 88" fill="none" xmlns="http://www.w3.org/2000/svg">
<path d="M87.9068 21.9733V14.6533H80.5867V29.2933H73.2534V36.6267H80.5867V43.9467H73.2534H65.9334V51.28H58.6001V58.6V65.9333H51.2801V73.2533H43.9468V80.5867H51.2801H58.6001V73.2533H65.9334V65.9333H73.2534V58.6H80.5867V51.28H87.9068V43.9467H95.2268V36.6267V29.2933V21.9733H87.9068Z" fill="#EE2665"/>
<path d="M73.2534 7.32023V14.6536H80.5868V7.32023H73.2534Z" fill="#EE2665"/>
<path d="M65.9333 21.9732V29.2932H73.2533V21.9732H65.9333Z" fill="#EE2665"/>
<path d="M58.6 36.6265H51.28V43.9465H58.6V36.6265Z" fill="#EE2665"/>
<path d="M43.9468 58.6V65.9333H51.2801V58.6H43.9468Z" fill="#EE2665"/>
<path d="M29.2934 29.2934V36.6267H21.9734V29.2934H29.2934Z" fill="#F689AA"/>
<path d="M29.2934 14.6534V21.9734H21.9734V14.6534H29.2934Z" fill="#F689AA"/>
<path d="M21.9733 21.9732V29.2932H14.64V21.9732H21.9733Z" fill="#F689AA"/>
<path d="M51.2801 43.9465V36.6265H58.6001V43.9465H51.2801ZM73.2534 14.6532V7.31984H58.6001V14.6532H51.2801H43.9468V7.31984H36.6267H29.2934H21.9734V14.6532H29.2934V21.9732H21.9734V29.2932H29.2934V36.6265H21.9734V29.2932H14.6401V21.9732H7.32007V29.2932V36.6265V43.9465H14.6401V51.2798H21.9734V58.5999H29.2934V65.9332H36.6267V73.2532H43.9468H51.2801V65.9332H43.9468V58.5999H51.2801V65.9332H58.6001V58.5999V51.2798H65.9334V43.9465H73.2534H80.5867V36.6265H73.2534V29.2932H65.9334V21.9732H73.2534V29.2932H80.5867V21.9732V14.6532H73.2534Z" fill="#F24C88"/>
<path d="M21.9733 14.6534H14.64V21.9734H21.9733V14.6534Z" fill="#F24C88"/>
<path d="M95.2267 21.9732V43.9465H102.56V21.9732H95.2267Z" fill="black"/>
<path d="M87.9067 51.28H95.2267V43.9467H87.9067V51.28Z" fill="black"/>
<path d="M95.2267 21.9734V14.6534H87.9067V21.9734H95.2267Z" fill="black"/>
<path d="M80.5867 58.5999H87.9067V51.2798H80.5867V58.5999Z" fill="black"/>
<path d="M87.9067 14.6536V7.32023H80.5867V14.6536H87.9067Z" fill="black"/>
<path d="M73.2534 65.9333H80.5868V58.6H73.2534V65.9333Z" fill="black"/>
<path d="M65.9333 73.2532H73.2533V65.9332H65.9333V73.2532Z" fill="black"/>
<path d="M73.2534 7.32007H80.5867V8.18165e-05H58.6001V7.32007H65.9334H73.2534Z" fill="black"/>
<path d="M58.6001 80.5867H65.9334V73.2533H58.6001V80.5867Z" fill="black"/>
<path d="M43.9468 80.5865V87.9065H58.6001V80.5865H51.2801H43.9468Z" fill="black"/>
<path d="M51.2801 14.6536H58.6001V7.32023H43.9468V14.6536H51.2801Z" fill="black"/>
<path d="M36.6267 73.2533V80.5867H43.9467V73.2533H36.6267Z" fill="black"/>
<path d="M29.2933 65.9332V73.2532H36.6267V65.9332H29.2933Z" fill="black"/>
<path d="M36.6267 7.32007H43.9467V8.18165e-05H21.9734V7.32007H29.2934H36.6267Z" fill="black"/>
<path d="M21.9734 58.6V65.9333H29.2934V58.6H21.9734Z" fill="black"/>
<path d="M14.64 51.2798V58.5999H21.9733V51.2798H14.64Z" fill="black"/>
<path d="M21.9733 7.32023H14.64V14.6536H21.9733V7.32023Z" fill="black"/>
<path d="M7.32007 43.9467V51.28H14.6401V43.9467H7.32007Z" fill="black"/>
<path d="M14.6401 14.6534H7.32007V21.9734H14.6401V14.6534Z" fill="black"/>
<path d="M7.31999 29.2932V21.9732H0V43.9465H7.31999V36.6265V29.2932Z" fill="black"/>
</svg>
