<svg width="320" height="330" viewBox="0 0 320 330" fill="none" xmlns="http://www.w3.org/2000/svg">
<path d="M227.188 330H237.5V319.687H227.188V330Z" fill="#15151E"/>
<path d="M216.875 330H227.188V319.687H216.875V330Z" fill="#15151E"/>
<path d="M206.562 330H216.875V319.687H206.562V330Z" fill="#15151E"/>
<path d="M196.25 330H206.563V319.687H196.25V330Z" fill="#15151E"/>
<path d="M185.938 330H196.25V319.687H185.938V330Z" fill="#15151E"/>
<path d="M175.625 330H185.938V319.687H175.625V330Z" fill="#15151E"/>
<path d="M165.312 330H175.625V319.687H165.312V330Z" fill="#15151E"/>
<path d="M155 330H165.313V319.687H155V330Z" fill="#15151E"/>
<path d="M144.688 330H155V319.687H144.688V330Z" fill="#15151E"/>
<path d="M134.375 330H144.688V319.687H134.375V330Z" fill="#15151E"/>
<path d="M124.062 330H134.375V319.687H124.062V330Z" fill="#15151E"/>
<path d="M113.75 330H124.063V319.687H113.75V330Z" fill="#15151E"/>
<path d="M103.438 330H113.75V319.687H103.438V330Z" fill="#15151E"/>
<path d="M93.125 330H103.438V319.687H93.125V330Z" fill="#15151E"/>
<path d="M82.8125 330H93.125V319.687H82.8125V330Z" fill="#15151E"/>
<path d="M278.75 319.688H289.063V309.375H278.75V319.688Z" fill="#15151E"/>
<path d="M268.438 319.688H278.75V309.375H268.438V319.688Z" fill="#15151E"/>
<path d="M258.125 319.688H268.437V309.375H258.125V319.688Z" fill="#15151E"/>
<path d="M247.812 319.688H258.125V309.375H247.812V319.688Z" fill="#15151E"/>
<path d="M237.5 319.688H247.813V309.375H237.5V319.688Z" fill="#15151E"/>
<path d="M227.188 319.688H237.5V309.375H227.188V319.688Z" fill="#15151E"/>
<path d="M216.875 319.688H227.188V309.375H216.875V319.688Z" fill="#FADCA4"/>
<path d="M206.562 319.688H216.875V309.375H206.562V319.688Z" fill="#FADCA4"/>
<path d="M196.25 319.688H206.563V309.375H196.25V319.688Z" fill="#F3D7A4"/>
<path d="M185.938 319.688H196.25V309.375H185.938V319.688Z" fill="#15151E"/>
<path d="M175.625 319.688H185.938V309.375H175.625V319.688Z" fill="#2B162A"/>
<path d="M165.312 319.688H175.625V309.375H165.312V319.688Z" fill="#2A1629"/>
<path d="M155 319.688H165.313V309.375H155V319.688Z" fill="#2C152C"/>
<path d="M144.688 319.688H155V309.375H144.688V319.688Z" fill="#2A1629"/>
<path d="M134.375 319.688H144.688V309.375H134.375V319.688Z" fill="#291629"/>
<path d="M124.062 319.688H134.375V309.375H124.062V319.688Z" fill="#15151E"/>
<path d="M113.75 319.688H124.063V309.375H113.75V319.688Z" fill="#FADCA4"/>
<path d="M103.438 319.688H113.75V309.375H103.438V319.688Z" fill="#FADCA4"/>
<path d="M93.125 319.688H103.438V309.375H93.125V319.688Z" fill="#FADCA4"/>
<path d="M82.8125 319.688H93.125V309.375H82.8125V319.688Z" fill="#FADCA4"/>
<path d="M72.5 319.688H82.8125V309.375H72.5V319.688Z" fill="#15151E"/>
<path d="M62.1875 319.688H72.5V309.375H62.1875V319.688Z" fill="#15151E"/>
<path d="M51.875 319.688H62.1875V309.375H51.875V319.688Z" fill="#15151E"/>
<path d="M41.5625 319.688H51.875V309.375H41.5625V319.688Z" fill="#15151E"/>
<path d="M31.25 319.688H41.5625V309.375H31.25V319.688Z" fill="#15151E"/>
<path d="M289.062 309.375H299.375V299.062H289.062V309.375Z" fill="#15151E"/>
<path d="M278.75 309.375H289.063V299.062H278.75V309.375Z" fill="#CD7412"/>
<path d="M268.438 309.375H278.75V299.062H268.438V309.375Z" fill="#DE9545"/>
<path d="M258.125 309.375H268.437V299.062H258.125V309.375Z" fill="#15151E"/>
<path d="M247.812 309.375H258.125V299.062H247.812V309.375Z" fill="#CD7412"/>
<path d="M237.5 309.375H247.813V299.062H237.5V309.375Z" fill="#CD7412"/>
<path d="M227.188 309.375H237.5V299.062H227.188V309.375Z" fill="#DE9545"/>
<path d="M216.875 309.375H227.188V299.062H216.875V309.375Z" fill="#DE9545"/>
<path d="M206.562 309.375H216.875V299.062H206.562V309.375Z" fill="#DE9545"/>
<path d="M196.25 309.375H206.563V299.062H196.25V309.375Z" fill="#DE9545"/>
<path d="M185.938 309.375H196.25V299.062H185.938V309.375Z" fill="#15151E"/>
<path d="M175.625 309.375H185.938V299.062H175.625V309.375Z" fill="#CD7412"/>
<path d="M165.312 309.375H175.625V299.062H165.312V309.375Z" fill="#CD7412"/>
<path d="M155 309.375H165.313V299.062H155V309.375Z" fill="#CD7412"/>
<path d="M144.688 309.375H155V299.062H144.688V309.375Z" fill="#CD7412"/>
<path d="M134.375 309.375H144.688V299.062H134.375V309.375Z" fill="#CD7412"/>
<path d="M124.062 309.375H134.375V299.062H124.062V309.375Z" fill="#15151E"/>
<path d="M113.75 309.375H124.063V299.062H113.75V309.375Z" fill="#DE9545"/>
<path d="M103.438 309.375H113.75V299.062H103.438V309.375Z" fill="#DE9545"/>
<path d="M93.125 309.375H103.438V299.062H93.125V309.375Z" fill="#DE9545"/>
<path d="M82.8125 309.375H93.125V299.062H82.8125V309.375Z" fill="#DE9545"/>
<path d="M72.5 309.375H82.8125V299.062H72.5V309.375Z" fill="#CD7412"/>
<path d="M62.1875 309.375H72.5V299.062H62.1875V309.375Z" fill="#CD7412"/>
<path d="M51.875 309.375H62.1875V299.062H51.875V309.375Z" fill="#15151E"/>
<path d="M41.5625 309.375H51.875V299.062H41.5625V309.375Z" fill="#DE9545"/>
<path d="M31.25 309.375H41.5625V299.062H31.25V309.375Z" fill="#CD7412"/>
<path d="M20.9375 309.375H31.25V299.062H20.9375V309.375Z" fill="#15151E"/>
<path d="M289.062 299.062H299.375V288.75H289.062V299.062Z" fill="#15151E"/>
<path d="M278.75 299.062H289.063V288.75H278.75V299.062Z" fill="#CD7412"/>
<path d="M268.438 299.062H278.75V288.75H268.438V299.062Z" fill="#15151E"/>
<path d="M258.125 299.062H268.437V288.75H258.125V299.062Z" fill="#CD7412"/>
<path d="M247.812 299.062H258.125V288.75H247.812V299.062Z" fill="#CD7412"/>
<path d="M237.5 299.062H247.813V288.75H237.5V299.062Z" fill="#DE9545"/>
<path d="M227.188 299.062H237.5V288.75H227.188V299.062Z" fill="#DE9545"/>
<path d="M216.875 299.062H227.188V288.75H216.875V299.062Z" fill="#DE9545"/>
<path d="M206.562 299.062H216.875V288.75H206.562V299.062Z" fill="#DE9545"/>
<path d="M196.25 299.062H206.563V288.75H196.25V299.062Z" fill="#DE9545"/>
<path d="M185.938 299.062H196.25V288.75H185.938V299.062Z" fill="#15151E"/>
<path d="M175.625 299.062H185.938V288.75H175.625V299.062Z" fill="#FADCA4"/>
<path d="M165.312 299.062H175.625V288.75H165.312V299.062Z" fill="#FADCA4"/>
<path d="M155 299.062H165.313V288.75H155V299.062Z" fill="#FADCA4"/>
<path d="M144.688 299.062H155V288.75H144.688V299.062Z" fill="#FADCA4"/>
<path d="M134.375 299.062H144.688V288.75H134.375V299.062Z" fill="#FADCA4"/>
<path d="M124.062 299.062H134.375V288.75H124.062V299.062Z" fill="#15151E"/>
<path d="M113.75 299.062H124.063V288.75H113.75V299.062Z" fill="#DE9545"/>
<path d="M103.438 299.062H113.75V288.75H103.438V299.062Z" fill="#DE9545"/>
<path d="M93.125 299.062H103.438V288.75H93.125V299.062Z" fill="#DE9545"/>
<path d="M82.8125 299.062H93.125V288.75H82.8125V299.062Z" fill="#DE9545"/>
<path d="M72.5 299.062H82.8125V288.75H72.5V299.062Z" fill="#DE9545"/>
<path d="M62.1875 299.062H72.5V288.75H62.1875V299.062Z" fill="#CD7412"/>
<path d="M51.875 299.062H62.1875V288.75H51.875V299.062Z" fill="#CD7412"/>
<path d="M41.5625 299.062H51.875V288.75H41.5625V299.062Z" fill="#15151E"/>
<path d="M31.25 299.062H41.5625V288.75H31.25V299.062Z" fill="#CD7412"/>
<path d="M20.9375 299.062H31.25V288.75H20.9375V299.062Z" fill="#15151E"/>
<path d="M289.062 288.75H299.375V278.437H289.062V288.75Z" fill="#15151E"/>
<path d="M278.75 288.75H289.063V278.437H278.75V288.75Z" fill="#CD7412"/>
<path d="M268.438 288.75H278.75V278.437H268.438V288.75Z" fill="#CD7412"/>
<path d="M258.125 288.75H268.437V278.437H258.125V288.75Z" fill="#CD7412"/>
<path d="M247.812 288.75H258.125V278.437H247.812V288.75Z" fill="#DE9545"/>
<path d="M237.5 288.75H247.813V278.437H237.5V288.75Z" fill="#DE9545"/>
<path d="M227.188 288.75H237.5V278.437H227.188V288.75Z" fill="#DE9545"/>
<path d="M216.875 288.75H227.188V278.437H216.875V288.75Z" fill="#DE9545"/>
<path d="M206.562 288.75H216.875V278.437H206.562V288.75Z" fill="#DE9545"/>
<path d="M196.25 288.75H206.563V278.437H196.25V288.75Z" fill="#DE9545"/>
<path d="M185.938 288.75H196.25V278.437H185.938V288.75Z" fill="#FADCA4"/>
<path d="M175.625 288.75H185.938V278.437H175.625V288.75Z" fill="#FADCA4"/>
<path d="M165.312 288.75H175.625V278.437H165.312V288.75Z" fill="#FADCA4"/>
<path d="M155 288.75H165.313V278.437H155V288.75Z" fill="#FADCA4"/>
<path d="M144.688 288.75H155V278.437H144.688V288.75Z" fill="#FADCA4"/>
<path d="M134.375 288.75H144.688V278.437H134.375V288.75Z" fill="#FADCA4"/>
<path d="M124.062 288.75H134.375V278.437H124.062V288.75Z" fill="#FADCA4"/>
<path d="M113.75 288.75H124.063V278.437H113.75V288.75Z" fill="#DE9545"/>
<path d="M103.438 288.75H113.75V278.437H103.438V288.75Z" fill="#DE9545"/>
<path d="M93.125 288.75H103.438V278.437H93.125V288.75Z" fill="#DE9545"/>
<path d="M82.8125 288.75H93.125V278.437H82.8125V288.75Z" fill="#DE9545"/>
<path d="M72.5 288.75H82.8125V278.437H72.5V288.75Z" fill="#DE9545"/>
<path d="M62.1875 288.75H72.5V278.437H62.1875V288.75Z" fill="#DE9545"/>
<path d="M51.875 288.75H62.1875V278.437H51.875V288.75Z" fill="#CD7412"/>
<path d="M41.5625 288.75H51.875V278.437H41.5625V288.75Z" fill="#CD7412"/>
<path d="M31.25 288.75H41.5625V278.437H31.25V288.75Z" fill="#CD7412"/>
<path d="M20.9375 288.75H31.25V278.437H20.9375V288.75Z" fill="#15151E"/>
<path d="M299.375 278.438H309.688V268.125H299.375V278.438Z" fill="#15151E"/>
<path d="M289.062 278.438H299.375V268.125H289.062V278.438Z" fill="#CD7412"/>
<path d="M278.75 278.438H289.063V268.125H278.75V278.438Z" fill="#CD7412"/>
<path d="M268.438 278.438H278.75V268.125H268.438V278.438Z" fill="#DE9545"/>
<path d="M258.125 278.438H268.437V268.125H258.125V278.438Z" fill="#DE9545"/>
<path d="M247.812 278.438H258.125V268.125H247.812V278.438Z" fill="#DE9545"/>
<path d="M237.5 278.438H247.813V268.125H237.5V278.438Z" fill="#DE9545"/>
<path d="M227.188 278.438H237.5V268.125H227.188V278.438Z" fill="#DE9545"/>
<path d="M216.875 278.438H227.188V268.125H216.875V278.438Z" fill="#DE9545"/>
<path d="M206.562 278.438H216.875V268.125H206.562V278.438Z" fill="#DE9545"/>
<path d="M196.25 278.438H206.563V268.125H196.25V278.438Z" fill="#FADCA4"/>
<path d="M185.938 278.438H196.25V268.125H185.938V278.438Z" fill="#FADCA4"/>
<path d="M175.625 278.438H185.938V268.125H175.625V278.438Z" fill="#FADCA4"/>
<path d="M165.312 278.438H175.625V268.125H165.312V278.438Z" fill="#FADCA4"/>
<path d="M155 278.438H165.313V268.125H155V278.438Z" fill="#FADCA4"/>
<path d="M144.688 278.438H155V268.125H144.688V278.438Z" fill="#FADCA4"/>
<path d="M134.375 278.438H144.688V268.125H134.375V278.438Z" fill="#FADCA4"/>
<path d="M124.062 278.438H134.375V268.125H124.062V278.438Z" fill="#FADCA4"/>
<path d="M113.75 278.438H124.063V268.125H113.75V278.438Z" fill="#FADCA4"/>
<path d="M103.438 278.438H113.75V268.125H103.438V278.438Z" fill="#DE9545"/>
<path d="M93.125 278.438H103.438V268.125H93.125V278.438Z" fill="#DE9545"/>
<path d="M82.8125 278.438H93.125V268.125H82.8125V278.438Z" fill="#DE9545"/>
<path d="M72.5 278.438H82.8125V268.125H72.5V278.438Z" fill="#DE9545"/>
<path d="M62.1875 278.438H72.5V268.125H62.1875V278.438Z" fill="#DE9545"/>
<path d="M51.875 278.438H62.1875V268.125H51.875V278.438Z" fill="#DE9545"/>
<path d="M41.5625 278.438H51.875V268.125H41.5625V278.438Z" fill="#DE9545"/>
<path d="M31.25 278.438H41.5625V268.125H31.25V278.438Z" fill="#CD7412"/>
<path d="M20.9375 278.438H31.25V268.125H20.9375V278.438Z" fill="#CD7412"/>
<path d="M10.625 278.438H20.9375V268.125H10.625V278.438Z" fill="#15151E"/>
<path d="M299.375 268.125H309.688V257.812H299.375V268.125Z" fill="#15151E"/>
<path d="M289.062 268.125H299.375V257.812H289.062V268.125Z" fill="#CD7412"/>
<path d="M278.75 268.125H289.063V257.812H278.75V268.125Z" fill="#DE9545"/>
<path d="M268.438 268.125H278.75V257.812H268.438V268.125Z" fill="#DE9545"/>
<path d="M258.125 268.125H268.437V257.812H258.125V268.125Z" fill="#DE9545"/>
<path d="M247.812 268.125H258.125V257.812H247.812V268.125Z" fill="#DE9545"/>
<path d="M237.5 268.125H247.813V257.812H237.5V268.125Z" fill="#DE9545"/>
<path d="M227.188 268.125H237.5V257.812H227.188V268.125Z" fill="#DE9545"/>
<path d="M216.875 268.125H227.188V257.812H216.875V268.125Z" fill="#DE9545"/>
<path d="M206.562 268.125H216.875V257.812H206.562V268.125Z" fill="#FADCA4"/>
<path d="M196.25 268.125H206.563V257.812H196.25V268.125Z" fill="#FADCA4"/>
<path d="M185.938 268.125H196.25V257.812H185.938V268.125Z" fill="#FADCA4"/>
<path d="M175.625 268.125H185.938V257.812H175.625V268.125Z" fill="#FADCA4"/>
<path d="M165.312 268.125H175.625V257.812H165.312V268.125Z" fill="#FADCA4"/>
<path d="M155 268.125H165.313V257.812H155V268.125Z" fill="#FADCA4"/>
<path d="M144.688 268.125H155V257.812H144.688V268.125Z" fill="#FADCA4"/>
<path d="M134.375 268.125H144.688V257.812H134.375V268.125Z" fill="#FADCA4"/>
<path d="M124.062 268.125H134.375V257.812H124.062V268.125Z" fill="#FADCA4"/>
<path d="M113.75 268.125H124.063V257.812H113.75V268.125Z" fill="#FADCA4"/>
<path d="M103.438 268.125H113.75V257.812H103.438V268.125Z" fill="#FADCA4"/>
<path d="M93.125 268.125H103.438V257.812H93.125V268.125Z" fill="#DE9545"/>
<path d="M82.8125 268.125H93.125V257.812H82.8125V268.125Z" fill="#DE9545"/>
<path d="M72.5 268.125H82.8125V257.812H72.5V268.125Z" fill="#DE9545"/>
<path d="M62.1875 268.125H72.5V257.812H62.1875V268.125Z" fill="#DE9545"/>
<path d="M51.875 268.125H62.1875V257.812H51.875V268.125Z" fill="#DE9545"/>
<path d="M41.5625 268.125H51.875V257.812H41.5625V268.125Z" fill="#DE9545"/>
<path d="M31.25 268.125H41.5625V257.812H31.25V268.125Z" fill="#DE9545"/>
<path d="M20.9375 268.125H31.25V257.812H20.9375V268.125Z" fill="#CD7412"/>
<path d="M10.625 268.125H20.9375V257.812H10.625V268.125Z" fill="#15151E"/>
<path d="M299.375 257.812H309.688V247.5H299.375V257.812Z" fill="#15151E"/>
<path d="M289.062 257.812H299.375V247.5H289.062V257.812Z" fill="#CD7412"/>
<path d="M278.75 257.812H289.063V247.5H278.75V257.812Z" fill="#DE9545"/>
<path d="M268.438 257.812H278.75V247.5H268.438V257.812Z" fill="#DE9545"/>
<path d="M258.125 257.812H268.437V247.5H258.125V257.812Z" fill="#DE9545"/>
<path d="M247.812 257.812H258.125V247.5H247.812V257.812Z" fill="#DE9545"/>
<path d="M237.5 257.812H247.813V247.5H237.5V257.812Z" fill="#DE9545"/>
<path d="M227.188 257.812H237.5V247.5H227.188V257.812Z" fill="#DE9545"/>
<path d="M216.875 257.812H227.188V247.5H216.875V257.812Z" fill="#FADCA4"/>
<path d="M206.562 257.812H216.875V247.5H206.562V257.812Z" fill="#FADCA4"/>
<path d="M196.25 257.812H206.563V247.5H196.25V257.812Z" fill="#FADCA4"/>
<path d="M185.938 257.812H196.25V247.5H185.938V257.812Z" fill="#FADCA4"/>
<path d="M175.625 257.812H185.938V247.5H175.625V257.812Z" fill="#FADCA4"/>
<path d="M165.312 257.812H175.625V247.5H165.312V257.812Z" fill="#FADCA4"/>
<path d="M155 257.812H165.313V247.5H155V257.812Z" fill="#FADCA4"/>
<path d="M144.688 257.812H155V247.5H144.688V257.812Z" fill="#FADCA4"/>
<path d="M134.375 257.812H144.688V247.5H134.375V257.812Z" fill="#FADCA4"/>
<path d="M124.062 257.812H134.375V247.5H124.062V257.812Z" fill="#FADCA4"/>
<path d="M113.75 257.812H124.063V247.5H113.75V257.812Z" fill="#FADCA4"/>
<path d="M103.438 257.812H113.75V247.5H103.438V257.812Z" fill="#FADCA4"/>
<path d="M93.125 257.812H103.438V247.5H93.125V257.812Z" fill="#FADCA4"/>
<path d="M82.8125 257.812H93.125V247.5H82.8125V257.812Z" fill="#DE9545"/>
<path d="M72.5 257.812H82.8125V247.5H72.5V257.812Z" fill="#DE9545"/>
<path d="M62.1875 257.812H72.5V247.5H62.1875V257.812Z" fill="#DE9545"/>
<path d="M51.875 257.812H62.1875V247.5H51.875V257.812Z" fill="#DE9545"/>
<path d="M41.5625 257.812H51.875V247.5H41.5625V257.812Z" fill="#DE9545"/>
<path d="M31.25 257.812H41.5625V247.5H31.25V257.812Z" fill="#DE9545"/>
<path d="M20.9375 257.812H31.25V247.5H20.9375V257.812Z" fill="#CD7412"/>
<path d="M10.625 257.812H20.9375V247.5H10.625V257.812Z" fill="#15151E"/>
<path d="M309.688 247.5H320V237.187H309.688V247.5Z" fill="#15151E"/>
<path d="M299.375 247.5H309.688V237.187H299.375V247.5Z" fill="#CD7412"/>
<path d="M289.062 247.5H299.375V237.187H289.062V247.5Z" fill="#CD7412"/>
<path d="M278.75 247.5H289.063V237.187H278.75V247.5Z" fill="#DE9545"/>
<path d="M268.438 247.5H278.75V237.187H268.438V247.5Z" fill="#DE9545"/>
<path d="M258.125 247.5H268.437V237.187H258.125V247.5Z" fill="#DE9545"/>
<path d="M247.812 247.5H258.125V237.187H247.812V247.5Z" fill="#DE9545"/>
<path d="M237.5 247.5H247.813V237.187H237.5V247.5Z" fill="#DE9545"/>
<path d="M227.188 247.5H237.5V237.187H227.188V247.5Z" fill="#DE9545"/>
<path d="M216.875 247.5H227.188V237.187H216.875V247.5Z" fill="#FADCA4"/>
<path d="M206.562 247.5H216.875V237.187H206.562V247.5Z" fill="#FADCA4"/>
<path d="M196.25 247.5H206.563V237.187H196.25V247.5Z" fill="#FADCA4"/>
<path d="M185.938 247.5H196.25V237.187H185.938V247.5Z" fill="#FADCA4"/>
<path d="M175.625 247.5H185.938V237.187H175.625V247.5Z" fill="#FADCA4"/>
<path d="M165.312 247.5H175.625V237.187H165.312V247.5Z" fill="#FADCA4"/>
<path d="M155 247.5H165.313V237.187H155V247.5Z" fill="#FADCA4"/>
<path d="M144.688 247.5H155V237.187H144.688V247.5Z" fill="#FADCA4"/>
<path d="M134.375 247.5H144.688V237.187H134.375V247.5Z" fill="#FADCA4"/>
<path d="M124.062 247.5H134.375V237.187H124.062V247.5Z" fill="#FADCA4"/>
<path d="M113.75 247.5H124.063V237.187H113.75V247.5Z" fill="#FADCA4"/>
<path d="M103.438 247.5H113.75V237.187H103.438V247.5Z" fill="#FADCA4"/>
<path d="M93.125 247.5H103.438V237.187H93.125V247.5Z" fill="#FADCA4"/>
<path d="M82.8125 247.5H93.125V237.187H82.8125V247.5Z" fill="#DE9545"/>
<path d="M72.5 247.5H82.8125V237.187H72.5V247.5Z" fill="#DE9545"/>
<path d="M62.1875 247.5H72.5V237.187H62.1875V247.5Z" fill="#DE9545"/>
<path d="M51.875 247.5H62.1875V237.187H51.875V247.5Z" fill="#DE9545"/>
<path d="M41.5625 247.5H51.875V237.187H41.5625V247.5Z" fill="#DE9545"/>
<path d="M31.25 247.5H41.5625V237.187H31.25V247.5Z" fill="#DE9545"/>
<path d="M20.9375 247.5H31.25V237.187H20.9375V247.5Z" fill="#CD7412"/>
<path d="M10.625 247.5H20.9375V237.187H10.625V247.5Z" fill="#CD7412"/>
<path d="M0.3125 247.5H10.625V237.187H0.3125V247.5Z" fill="#15151E"/>
<path d="M309.688 237.188H320V226.875H309.688V237.188Z" fill="#15151E"/>
<path d="M299.375 237.188H309.688V226.875H299.375V237.188Z" fill="#CD7412"/>
<path d="M289.062 237.188H299.375V226.875H289.062V237.188Z" fill="#CD7412"/>
<path d="M278.75 237.188H289.063V226.875H278.75V237.188Z" fill="#DE9545"/>
<path d="M268.438 237.188H278.75V226.875H268.438V237.188Z" fill="#DE9545"/>
<path d="M258.125 237.188H268.437V226.875H258.125V237.188Z" fill="#DE9545"/>
<path d="M247.812 237.188H258.125V226.875H247.812V237.188Z" fill="#DE9545"/>
<path d="M237.5 237.188H247.813V226.875H237.5V237.188Z" fill="#DE9545"/>
<path d="M227.188 237.188H237.5V226.875H227.188V237.188Z" fill="#DE9545"/>
<path d="M216.875 237.188H227.188V226.875H216.875V237.188Z" fill="#FADCA4"/>
<path d="M206.562 237.188H216.875V226.875H206.562V237.188Z" fill="#FADCA4"/>
<path d="M196.25 237.188H206.563V226.875H196.25V237.188Z" fill="#FADCA4"/>
<path d="M185.938 237.188H196.25V226.875H185.938V237.188Z" fill="#FADCA4"/>
<path d="M175.625 237.188H185.938V226.875H175.625V237.188Z" fill="#FADCA4"/>
<path d="M165.312 237.188H175.625V226.875H165.312V237.188Z" fill="#FADCA4"/>
<path d="M155 237.188H165.313V226.875H155V237.188Z" fill="#FADCA4"/>
<path d="M144.688 237.188H155V226.875H144.688V237.188Z" fill="#FADCA4"/>
<path d="M134.375 237.188H144.688V226.875H134.375V237.188Z" fill="#FADCA4"/>
<path d="M124.062 237.188H134.375V226.875H124.062V237.188Z" fill="#FADCA4"/>
<path d="M113.75 237.188H124.063V226.875H113.75V237.188Z" fill="#FADCA4"/>
<path d="M103.438 237.188H113.75V226.875H103.438V237.188Z" fill="#FADCA4"/>
<path d="M93.125 237.188H103.438V226.875H93.125V237.188Z" fill="#FADCA4"/>
<path d="M82.8125 237.188H93.125V226.875H82.8125V237.188Z" fill="#DE9545"/>
<path d="M72.5 237.188H82.8125V226.875H72.5V237.188Z" fill="#DE9545"/>
<path d="M62.1875 237.188H72.5V226.875H62.1875V237.188Z" fill="#DE9545"/>
<path d="M51.875 237.188H62.1875V226.875H51.875V237.188Z" fill="#DE9545"/>
<path d="M41.5625 237.188H51.875V226.875H41.5625V237.188Z" fill="#DE9545"/>
<path d="M31.25 237.188H41.5625V226.875H31.25V237.188Z" fill="#DE9545"/>
<path d="M20.9375 237.188H31.25V226.875H20.9375V237.188Z" fill="#CD7412"/>
<path d="M10.625 237.188H20.9375V226.875H10.625V237.188Z" fill="#CD7412"/>
<path d="M0.3125 237.188H10.625V226.875H0.3125V237.188Z" fill="#15151E"/>
<path d="M309.688 226.875H320V216.562H309.688V226.875Z" fill="#15151E"/>
<path d="M299.375 226.875H309.688V216.562H299.375V226.875Z" fill="#CD7412"/>
<path d="M289.062 226.875H299.375V216.562H289.062V226.875Z" fill="#CD7412"/>
<path d="M278.75 226.875H289.063V216.562H278.75V226.875Z" fill="#DE9545"/>
<path d="M268.438 226.875H278.75V216.562H268.438V226.875Z" fill="#DE9545"/>
<path d="M258.125 226.875H268.437V216.562H258.125V226.875Z" fill="#DE9545"/>
<path d="M247.812 226.875H258.125V216.562H247.812V226.875Z" fill="#DE9545"/>
<path d="M237.5 226.875H247.813V216.562H237.5V226.875Z" fill="#DE9545"/>
<path d="M227.188 226.875H237.5V216.562H227.188V226.875Z" fill="#15151E"/>
<path d="M216.875 226.875H227.188V216.562H216.875V226.875Z" fill="#15151E"/>
<path d="M206.562 226.875H216.875V216.562H206.562V226.875Z" fill="#15151E"/>
<path d="M196.25 226.875H206.563V216.562H196.25V226.875Z" fill="#15151E"/>
<path d="M185.938 226.875H196.25V216.562H185.938V226.875Z" fill="#15151E"/>
<path d="M175.625 226.875H185.938V216.562H175.625V226.875Z" fill="#15151E"/>
<path d="M165.312 226.875H175.625V216.562H165.312V226.875Z" fill="#15151E"/>
<path d="M155 226.875H165.313V216.562H155V226.875Z" fill="#15151E"/>
<path d="M144.688 226.875H155V216.562H144.688V226.875Z" fill="#15151E"/>
<path d="M134.375 226.875H144.688V216.562H134.375V226.875Z" fill="#15151E"/>
<path d="M124.062 226.875H134.375V216.562H124.062V226.875Z" fill="#15151E"/>
<path d="M113.75 226.875H124.063V216.562H113.75V226.875Z" fill="#15151E"/>
<path d="M103.438 226.875H113.75V216.562H103.438V226.875Z" fill="#15151E"/>
<path d="M93.125 226.875H103.438V216.562H93.125V226.875Z" fill="#15151E"/>
<path d="M82.8125 226.875H93.125V216.562H82.8125V226.875Z" fill="#15151E"/>
<path d="M72.5 226.875H82.8125V216.562H72.5V226.875Z" fill="#DE9545"/>
<path d="M62.1875 226.875H72.5V216.562H62.1875V226.875Z" fill="#DE9545"/>
<path d="M51.875 226.875H62.1875V216.562H51.875V226.875Z" fill="#DE9545"/>
<path d="M41.5625 226.875H51.875V216.562H41.5625V226.875Z" fill="#DE9545"/>
<path d="M31.25 226.875H41.5625V216.562H31.25V226.875Z" fill="#DE9545"/>
<path d="M20.9375 226.875H31.25V216.562H20.9375V226.875Z" fill="#CD7412"/>
<path d="M10.625 226.875H20.9375V216.562H10.625V226.875Z" fill="#CD7412"/>
<path d="M0.3125 226.875H10.625V216.562H0.3125V226.875Z" fill="#15151E"/>
<path d="M309.688 216.562H320V206.25H309.688V216.562Z" fill="#15151E"/>
<path d="M299.375 216.562H309.688V206.25H299.375V216.562Z" fill="#15151E"/>
<path d="M289.062 216.562H299.375V206.25H289.062V216.562Z" fill="#CD7412"/>
<path d="M278.75 216.562H289.063V206.25H278.75V216.562Z" fill="#DE9545"/>
<path d="M268.438 216.562H278.75V206.25H268.438V216.562Z" fill="#DE9545"/>
<path d="M258.125 216.562H268.437V206.25H258.125V216.562Z" fill="#DE9545"/>
<path d="M247.812 216.562H258.125V206.25H247.812V216.562Z" fill="#15151E"/>
<path d="M237.5 216.562H247.813V206.25H237.5V216.562Z" fill="#15151E"/>
<path d="M227.188 216.562H237.5V206.25H227.188V216.562Z" fill="#CD7412"/>
<path d="M216.875 216.562H227.188V206.25H216.875V216.562Z" fill="#CD7412"/>
<path d="M206.562 216.562H216.875V206.25H206.562V216.562Z" fill="#CD7412"/>
<path d="M196.25 216.562H206.563V206.25H196.25V216.562Z" fill="#CD7412"/>
<path d="M185.938 216.562H196.25V206.25H185.938V216.562Z" fill="#CD7412"/>
<path d="M175.625 216.562H185.938V206.25H175.625V216.562Z" fill="#CD7412"/>
<path d="M165.312 216.562H175.625V206.25H165.312V216.562Z" fill="#CD7412"/>
<path d="M155 216.562H165.313V206.25H155V216.562Z" fill="#CD7412"/>
<path d="M144.688 216.562H155V206.25H144.688V216.562Z" fill="#CD7412"/>
<path d="M134.375 216.562H144.688V206.25H134.375V216.562Z" fill="#CD7412"/>
<path d="M124.062 216.562H134.375V206.25H124.062V216.562Z" fill="#CD7412"/>
<path d="M113.75 216.562H124.063V206.25H113.75V216.562Z" fill="#CD7412"/>
<path d="M103.438 216.562H113.75V206.25H103.438V216.562Z" fill="#CD7412"/>
<path d="M93.125 216.562H103.438V206.25H93.125V216.562Z" fill="#CD7412"/>
<path d="M82.8125 216.562H93.125V206.25H82.8125V216.562Z" fill="#CD7412"/>
<path d="M72.5 216.562H82.8125V206.25H72.5V216.562Z" fill="#15151E"/>
<path d="M62.1875 216.562H72.5V206.25H62.1875V216.562Z" fill="#15151E"/>
<path d="M51.875 216.562H62.1875V206.25H51.875V216.562Z" fill="#DE9545"/>
<path d="M41.5625 216.562H51.875V206.25H41.5625V216.562Z" fill="#DE9545"/>
<path d="M31.25 216.562H41.5625V206.25H31.25V216.562Z" fill="#DE9545"/>
<path d="M20.9375 216.562H31.25V206.25H20.9375V216.562Z" fill="#CD7412"/>
<path d="M10.625 216.562H20.9375V206.25H10.625V216.562Z" fill="#15151E"/>
<path d="M299.375 206.25H309.688V195.937H299.375V206.25Z" fill="#15151E"/>
<path d="M289.062 206.25H299.375V195.937H289.062V206.25Z" fill="#CD7412"/>
<path d="M278.75 206.25H289.063V195.937H278.75V206.25Z" fill="#DE9545"/>
<path d="M268.438 206.25H278.75V195.937H268.438V206.25Z" fill="#DE9545"/>
<path d="M258.125 206.25H268.437V195.937H258.125V206.25Z" fill="#15151E"/>
<path d="M247.812 206.25H258.125V195.937H247.812V206.25Z" fill="#CD7412"/>
<path d="M237.5 206.25H247.813V195.937H237.5V206.25Z" fill="#CD7412"/>
<path d="M227.188 206.25H237.5V195.937H227.188V206.25Z" fill="#DE9545"/>
<path d="M216.875 206.25H227.188V195.937H216.875V206.25Z" fill="#DE9545"/>
<path d="M206.562 206.25H216.875V195.937H206.562V206.25Z" fill="#DE9545"/>
<path d="M196.25 206.25H206.563V195.937H196.25V206.25Z" fill="#DE9545"/>
<path d="M185.938 206.25H196.25V195.937H185.938V206.25Z" fill="#DE9545"/>
<path d="M175.625 206.25H185.938V195.937H175.625V206.25Z" fill="#DE9545"/>
<path d="M165.312 206.25H175.625V195.937H165.312V206.25Z" fill="#DE9545"/>
<path d="M155 206.25H165.313V195.937H155V206.25Z" fill="#DE9545"/>
<path d="M144.688 206.25H155V195.937H144.688V206.25Z" fill="#DE9545"/>
<path d="M134.375 206.25H144.688V195.937H134.375V206.25Z" fill="#DE9545"/>
<path d="M124.062 206.25H134.375V195.937H124.062V206.25Z" fill="#DE9545"/>
<path d="M113.75 206.25H124.063V195.937H113.75V206.25Z" fill="#DE9545"/>
<path d="M103.438 206.25H113.75V195.937H103.438V206.25Z" fill="#DE9545"/>
<path d="M93.125 206.25H103.438V195.937H93.125V206.25Z" fill="#DE9545"/>
<path d="M82.8125 206.25H93.125V195.937H82.8125V206.25Z" fill="#DE9545"/>
<path d="M72.5 206.25H82.8125V195.937H72.5V206.25Z" fill="#CD7412"/>
<path d="M62.1875 206.25H72.5V195.937H62.1875V206.25Z" fill="#CD7412"/>
<path d="M51.875 206.25H62.1875V195.937H51.875V206.25Z" fill="#15151E"/>
<path d="M41.5625 206.25H51.875V195.937H41.5625V206.25Z" fill="#DE9545"/>
<path d="M31.25 206.25H41.5625V195.937H31.25V206.25Z" fill="#DE9545"/>
<path d="M20.9375 206.25H31.25V195.937H20.9375V206.25Z" fill="#CD7412"/>
<path d="M10.625 206.25H20.9375V195.937H10.625V206.25Z" fill="#15151E"/>
<path d="M299.375 195.938H309.688V185.625H299.375V195.938Z" fill="#15151E"/>
<path d="M289.062 195.938H299.375V185.625H289.062V195.938Z" fill="#CD7412"/>
<path d="M278.75 195.938H289.063V185.625H278.75V195.938Z" fill="#DE9545"/>
<path d="M268.438 195.938H278.75V185.625H268.438V195.938Z" fill="#15151E"/>
<path d="M258.125 195.938H268.437V185.625H258.125V195.938Z" fill="#CD7412"/>
<path d="M247.812 195.938H258.125V185.625H247.812V195.938Z" fill="#CD7412"/>
<path d="M237.5 195.938H247.813V185.625H237.5V195.938Z" fill="#DE9545"/>
<path d="M227.188 195.938H237.5V185.625H227.188V195.938Z" fill="#DE9545"/>
<path d="M216.875 195.938H227.188V185.625H216.875V195.938Z" fill="#DE9545"/>
<path d="M206.562 195.938H216.875V185.625H206.562V195.938Z" fill="#DE9545"/>
<path d="M196.25 195.938H206.563V185.625H196.25V195.938Z" fill="#DE9545"/>
<path d="M185.938 195.938H196.25V185.625H185.938V195.938Z" fill="#DE9545"/>
<path d="M175.625 195.938H185.938V185.625H175.625V195.938Z" fill="#DE9545"/>
<path d="M165.312 195.938H175.625V185.625H165.312V195.938Z" fill="#CD7412"/>
<path d="M155 195.938H165.313V185.625H155V195.938Z" fill="#CD7412"/>
<path d="M144.688 195.938H155V185.625H144.688V195.938Z" fill="#CD7412"/>
<path d="M134.375 195.938H144.688V185.625H134.375V195.938Z" fill="#DE9545"/>
<path d="M124.062 195.938H134.375V185.625H124.062V195.938Z" fill="#DE9545"/>
<path d="M113.75 195.938H124.063V185.625H113.75V195.938Z" fill="#DE9545"/>
<path d="M103.438 195.938H113.75V185.625H103.438V195.938Z" fill="#DE9545"/>
<path d="M93.125 195.938H103.438V185.625H93.125V195.938Z" fill="#DE9545"/>
<path d="M82.8125 195.938H93.125V185.625H82.8125V195.938Z" fill="#DE9545"/>
<path d="M72.5 195.938H82.8125V185.625H72.5V195.938Z" fill="#DE9545"/>
<path d="M62.1875 195.938H72.5V185.625H62.1875V195.938Z" fill="#CD7412"/>
<path d="M51.875 195.938H62.1875V185.625H51.875V195.938Z" fill="#CD7412"/>
<path d="M41.5625 195.938H51.875V185.625H41.5625V195.938Z" fill="#15151E"/>
<path d="M31.25 195.938H41.5625V185.625H31.25V195.938Z" fill="#DE9545"/>
<path d="M20.9375 195.938H31.25V185.625H20.9375V195.938Z" fill="#CD7412"/>
<path d="M10.625 195.938H20.9375V185.625H10.625V195.938Z" fill="#15151E"/>
<path d="M299.375 185.625H309.688V175.312H299.375V185.625Z" fill="#15151E"/>
<path d="M289.062 185.625H299.375V175.312H289.062V185.625Z" fill="#CD7412"/>
<path d="M278.75 185.625H289.063V175.312H278.75V185.625Z" fill="#15151E"/>
<path d="M268.438 185.625H278.75V175.312H268.438V185.625Z" fill="#CD7412"/>
<path d="M258.125 185.625H268.437V175.312H258.125V185.625Z" fill="#CD7412"/>
<path d="M247.812 185.625H258.125V175.312H247.812V185.625Z" fill="#DE9545"/>
<path d="M237.5 185.625H247.813V175.312H237.5V185.625Z" fill="#DE9545"/>
<path d="M227.188 185.625H237.5V175.312H227.188V185.625Z" fill="#DE9545"/>
<path d="M216.875 185.625H227.188V175.312H216.875V185.625Z" fill="#DE9545"/>
<path d="M206.562 185.625H216.875V175.312H206.562V185.625Z" fill="#DE9545"/>
<path d="M196.25 185.625H206.563V175.312H196.25V185.625Z" fill="#DE9545"/>
<path d="M185.938 185.625H196.25V175.312H185.938V185.625Z" fill="#CD7412"/>
<path d="M175.625 185.625H185.938V175.312H175.625V185.625Z" fill="#CD7412"/>
<path d="M165.312 185.625H175.625V175.312H165.312V185.625Z" fill="#15151E"/>
<path d="M155 185.625H165.313V175.312H155V185.625Z" fill="#15151E"/>
<path d="M144.688 185.625H155V175.312H144.688V185.625Z" fill="#15151E"/>
<path d="M134.375 185.625H144.688V175.312H134.375V185.625Z" fill="#CD7412"/>
<path d="M124.062 185.625H134.375V175.312H124.062V185.625Z" fill="#CD7412"/>
<path d="M113.75 185.625H124.063V175.312H113.75V185.625Z" fill="#DE9545"/>
<path d="M103.438 185.625H113.75V175.312H103.438V185.625Z" fill="#DE9545"/>
<path d="M93.125 185.625H103.438V175.312H93.125V185.625Z" fill="#DE9545"/>
<path d="M82.8125 185.625H93.125V175.312H82.8125V185.625Z" fill="#DE9545"/>
<path d="M72.5 185.625H82.8125V175.312H72.5V185.625Z" fill="#DE9545"/>
<path d="M62.1875 185.625H72.5V175.312H62.1875V185.625Z" fill="#DE9545"/>
<path d="M51.875 185.625H62.1875V175.312H51.875V185.625Z" fill="#CD7412"/>
<path d="M41.5625 185.625H51.875V175.312H41.5625V185.625Z" fill="#CD7412"/>
<path d="M31.25 185.625H41.5625V175.312H31.25V185.625Z" fill="#15151E"/>
<path d="M20.9375 185.625H31.25V175.312H20.9375V185.625Z" fill="#CD7412"/>
<path d="M10.625 185.625H20.9375V175.312H10.625V185.625Z" fill="#15151E"/>
<path d="M289.062 175.312H299.375V165H289.062V175.312Z" fill="#15151E"/>
<path d="M278.75 175.312H289.063V165H278.75V175.312Z" fill="#15151E"/>
<path d="M268.438 175.312H278.75V165H268.438V175.312Z" fill="#CD7412"/>
<path d="M258.125 175.312H268.437V165H258.125V175.312Z" fill="#DE9545"/>
<path d="M247.812 175.312H258.125V165H247.812V175.312Z" fill="#DE9545"/>
<path d="M237.5 175.312H247.813V165H237.5V175.312Z" fill="#DE9545"/>
<path d="M227.188 175.312H237.5V165H227.188V175.312Z" fill="#DE9545"/>
<path d="M216.875 175.312H227.188V165H216.875V175.312Z" fill="#DE9545"/>
<path d="M206.562 175.312H216.875V165H206.562V175.312Z" fill="#DE9545"/>
<path d="M196.25 175.312H206.563V165H196.25V175.312Z" fill="#FADCA4"/>
<path d="M185.938 175.312H196.25V165H185.938V175.312Z" fill="#FADCA4"/>
<path d="M175.625 175.312H185.938V165H175.625V175.312Z" fill="#FADCA4"/>
<path d="M165.312 175.312H175.625V165H165.312V175.312Z" fill="#8D6764"/>
<path d="M155 175.312H165.313V165H155V175.312Z" fill="#15151E"/>
<path d="M144.688 175.312H155V165H144.688V175.312Z" fill="#8D6764"/>
<path d="M134.375 175.312H144.688V165H134.375V175.312Z" fill="#FADCA4"/>
<path d="M124.062 175.312H134.375V165H124.062V175.312Z" fill="#FADCA4"/>
<path d="M113.75 175.312H124.063V165H113.75V175.312Z" fill="#FADCA4"/>
<path d="M103.438 175.312H113.75V165H103.438V175.312Z" fill="#DE9545"/>
<path d="M93.125 175.312H103.438V165H93.125V175.312Z" fill="#DE9545"/>
<path d="M82.8125 175.312H93.125V165H82.8125V175.312Z" fill="#DE9545"/>
<path d="M72.5 175.312H82.8125V165H72.5V175.312Z" fill="#DE9545"/>
<path d="M62.1875 175.312H72.5V165H62.1875V175.312Z" fill="#DE9545"/>
<path d="M51.875 175.312H62.1875V165H51.875V175.312Z" fill="#DE9545"/>
<path d="M41.5625 175.312H51.875V165H41.5625V175.312Z" fill="#CD7412"/>
<path d="M31.25 175.312H41.5625V165H31.25V175.312Z" fill="#15151E"/>
<path d="M20.9375 175.312H31.25V165H20.9375V175.312Z" fill="#15151E"/>
<path d="M289.062 165H299.375V154.687H289.062V165Z" fill="#15151E"/>
<path d="M278.75 165H289.063V154.687H278.75V165Z" fill="#DE9545"/>
<path d="M268.438 165H278.75V154.687H268.438V165Z" fill="#DE9545"/>
<path d="M258.125 165H268.437V154.687H258.125V165Z" fill="#DE9545"/>
<path d="M247.812 165H258.125V154.687H247.812V165Z" fill="#DE9545"/>
<path d="M237.5 165H247.813V154.687H237.5V165Z" fill="#DE9545"/>
<path d="M227.188 165H237.5V154.687H227.188V165Z" fill="#DE9545"/>
<path d="M216.875 165H227.188V154.687H216.875V165Z" fill="#DE9545"/>
<path d="M206.562 165H216.875V154.687H206.562V165Z" fill="#DE9545"/>
<path d="M196.25 165H206.563V154.687H196.25V165Z" fill="#FADCA4"/>
<path d="M185.938 165H196.25V154.687H185.938V165Z" fill="#FADCA4"/>
<path d="M175.625 165H185.938V154.687H175.625V165Z" fill="#FADCA4"/>
<path d="M165.312 165H175.625V154.687H165.312V165Z" fill="#8D6764"/>
<path d="M155 165H165.313V154.687H155V165Z" fill="#15151E"/>
<path d="M144.688 165H155V154.687H144.688V165Z" fill="#8D6764"/>
<path d="M134.375 165H144.688V154.687H134.375V165Z" fill="#FADCA4"/>
<path d="M124.062 165H134.375V154.687H124.062V165Z" fill="#FADCA4"/>
<path d="M113.75 165H124.063V154.687H113.75V165Z" fill="#FADCA4"/>
<path d="M103.438 165H113.75V154.687H103.438V165Z" fill="#DE9545"/>
<path d="M93.125 165H103.438V154.687H93.125V165Z" fill="#DE9545"/>
<path d="M82.8125 165H93.125V154.687H82.8125V165Z" fill="#DE9545"/>
<path d="M72.5 165H82.8125V154.687H72.5V165Z" fill="#DE9545"/>
<path d="M62.1875 165H72.5V154.687H62.1875V165Z" fill="#DE9545"/>
<path d="M51.875 165H62.1875V154.687H51.875V165Z" fill="#DE9545"/>
<path d="M41.5625 165H51.875V154.687H41.5625V165Z" fill="#DE9545"/>
<path d="M31.25 165H41.5625V154.687H31.25V165Z" fill="#CD7412"/>
<path d="M20.9375 165H31.25V154.687H20.9375V165Z" fill="#15151E"/>
<path d="M289.062 154.688H299.375V144.375H289.062V154.688Z" fill="#15151E"/>
<path d="M278.75 154.688H289.063V144.375H278.75V154.688Z" fill="#DE9545"/>
<path d="M268.438 154.688H278.75V144.375H268.438V154.688Z" fill="#DE9545"/>
<path d="M258.125 154.688H268.437V144.375H258.125V154.688Z" fill="#DE9545"/>
<path d="M247.812 154.688H258.125V144.375H247.812V154.688Z" fill="#DE9545"/>
<path d="M237.5 154.688H247.813V144.375H237.5V154.688Z" fill="#DE9545"/>
<path d="M227.188 154.688H237.5V144.375H227.188V154.688Z" fill="#DE9545"/>
<path d="M216.875 154.688H227.188V144.375H216.875V154.688Z" fill="#DE9545"/>
<path d="M206.562 154.688H216.875V144.375H206.562V154.688Z" fill="#DE9545"/>
<path d="M196.25 154.688H206.563V144.375H196.25V154.688Z" fill="#FADCA4"/>
<path d="M185.938 154.688H196.25V144.375H185.938V154.688Z" fill="#FADCA4"/>
<path d="M175.625 154.688H185.938V144.375H175.625V154.688Z" fill="#FADCA4"/>
<path d="M165.312 154.688H175.625V144.375H165.312V154.688Z" fill="#8D6764"/>
<path d="M155 154.688H165.313V144.375H155V154.688Z" fill="#15151E"/>
<path d="M144.688 154.688H155V144.375H144.688V154.688Z" fill="#8D6764"/>
<path d="M134.375 154.688H144.688V144.375H134.375V154.688Z" fill="#FADCA4"/>
<path d="M124.062 154.688H134.375V144.375H124.062V154.688Z" fill="#FADCA4"/>
<path d="M113.75 154.688H124.063V144.375H113.75V154.688Z" fill="#FADCA4"/>
<path d="M103.438 154.688H113.75V144.375H103.438V154.688Z" fill="#DE9545"/>
<path d="M93.125 154.688H103.438V144.375H93.125V154.688Z" fill="#DE9545"/>
<path d="M82.8125 154.688H93.125V144.375H82.8125V154.688Z" fill="#DE9545"/>
<path d="M72.5 154.688H82.8125V144.375H72.5V154.688Z" fill="#DE9545"/>
<path d="M62.1875 154.688H72.5V144.375H62.1875V154.688Z" fill="#DE9545"/>
<path d="M51.875 154.688H62.1875V144.375H51.875V154.688Z" fill="#DE9545"/>
<path d="M41.5625 154.688H51.875V144.375H41.5625V154.688Z" fill="#DE9545"/>
<path d="M31.25 154.688H41.5625V144.375H31.25V154.688Z" fill="#DE9545"/>
<path d="M20.9375 154.688H31.25V144.375H20.9375V154.688Z" fill="#15151E"/>
<path d="M289.062 144.375H299.375V134.062H289.062V144.375Z" fill="#15151E"/>
<path d="M278.75 144.375H289.063V134.062H278.75V144.375Z" fill="#DE9545"/>
<path d="M268.438 144.375H278.75V134.062H268.438V144.375Z" fill="#DE9545"/>
<path d="M258.125 144.375H268.437V134.062H258.125V144.375Z" fill="#DE9545"/>
<path d="M247.812 144.375H258.125V134.062H247.812V144.375Z" fill="#DE9545"/>
<path d="M237.5 144.375H247.813V134.062H237.5V144.375Z" fill="#DE9545"/>
<path d="M227.188 144.375H237.5V134.062H227.188V144.375Z" fill="#DE9545"/>
<path d="M216.875 144.375H227.188V134.062H216.875V144.375Z" fill="#DE9545"/>
<path d="M206.562 144.375H216.875V134.062H206.562V144.375Z" fill="#8D6764"/>
<path d="M196.25 144.375H206.563V134.062H196.25V144.375Z" fill="#F8DDA8"/>
<path d="M185.938 144.375H196.25V134.062H185.938V144.375Z" fill="#FADCA4"/>
<path d="M175.625 144.375H185.938V134.062H175.625V144.375Z" fill="#FADCA4"/>
<path d="M165.312 144.375H175.625V134.062H165.312V144.375Z" fill="#8D6764"/>
<path d="M155 144.375H165.313V134.062H155V144.375Z" fill="#15151E"/>
<path d="M144.688 144.375H155V134.062H144.688V144.375Z" fill="#8D6764"/>
<path d="M134.375 144.375H144.688V134.062H134.375V144.375Z" fill="#FADCA4"/>
<path d="M124.062 144.375H134.375V134.062H124.062V144.375Z" fill="#FADCA4"/>
<path d="M113.75 144.375H124.063V134.062H113.75V144.375Z" fill="#FADCA4"/>
<path d="M103.438 144.375H113.75V134.062H103.438V144.375Z" fill="#8D6764"/>
<path d="M93.125 144.375H103.438V134.062H93.125V144.375Z" fill="#DE9545"/>
<path d="M82.8125 144.375H93.125V134.062H82.8125V144.375Z" fill="#DE9545"/>
<path d="M72.5 144.375H82.8125V134.062H72.5V144.375Z" fill="#DE9545"/>
<path d="M62.1875 144.375H72.5V134.062H62.1875V144.375Z" fill="#DE9545"/>
<path d="M51.875 144.375H62.1875V134.062H51.875V144.375Z" fill="#DE9545"/>
<path d="M41.5625 144.375H51.875V134.062H41.5625V144.375Z" fill="#DE9545"/>
<path d="M31.25 144.375H41.5625V134.062H31.25V144.375Z" fill="#DE9545"/>
<path d="M20.9375 144.375H31.25V134.062H20.9375V144.375Z" fill="#15151E"/>
<path d="M289.062 134.062H299.375V123.75H289.062V134.062Z" fill="#15151E"/>
<path d="M278.75 134.062H289.063V123.75H278.75V134.062Z" fill="#DE9545"/>
<path d="M268.438 134.062H278.75V123.75H268.438V134.062Z" fill="#DE9545"/>
<path d="M258.125 134.062H268.437V123.75H258.125V134.062Z" fill="#DE9545"/>
<path d="M247.812 134.062H258.125V123.75H247.812V134.062Z" fill="#DE9545"/>
<path d="M237.5 134.062H247.813V123.75H237.5V134.062Z" fill="#DE9545"/>
<path d="M227.188 134.062H237.5V123.75H227.188V134.062Z" fill="#DE9545"/>
<path d="M216.875 134.062H227.188V123.75H216.875V134.062Z" fill="#DE9545"/>
<path d="M206.562 134.062H216.875V123.75H206.562V134.062Z" fill="#D09E7E"/>
<path d="M196.25 134.062H206.563V123.75H196.25V134.062Z" fill="#FADCA4"/>
<path d="M185.938 134.062H196.25V123.75H185.938V134.062Z" fill="#15151E"/>
<path d="M175.625 134.062H185.938V123.75H175.625V134.062Z" fill="#D09E7E"/>
<path d="M165.312 134.062H175.625V123.75H165.312V134.062Z" fill="#FADCA4"/>
<path d="M155 134.062H165.313V123.75H155V134.062Z" fill="#FADCA4"/>
<path d="M144.688 134.062H155V123.75H144.688V134.062Z" fill="#FADCA4"/>
<path d="M134.375 134.062H144.688V123.75H134.375V134.062Z" fill="#D09E7E"/>
<path d="M124.062 134.062H134.375V123.75H124.062V134.062Z" fill="#15151E"/>
<path d="M113.75 134.062H124.063V123.75H113.75V134.062Z" fill="#FADCA4"/>
<path d="M103.438 134.062H113.75V123.75H103.438V134.062Z" fill="#D09E7E"/>
<path d="M93.125 134.062H103.438V123.75H93.125V134.062Z" fill="#DE9545"/>
<path d="M82.8125 134.062H93.125V123.75H82.8125V134.062Z" fill="#DE9545"/>
<path d="M72.5 134.062H82.8125V123.75H72.5V134.062Z" fill="#DE9545"/>
<path d="M62.1875 134.062H72.5V123.75H62.1875V134.062Z" fill="#DE9545"/>
<path d="M51.875 134.062H62.1875V123.75H51.875V134.062Z" fill="#DE9545"/>
<path d="M41.5625 134.062H51.875V123.75H41.5625V134.062Z" fill="#DE9545"/>
<path d="M31.25 134.062H41.5625V123.75H31.25V134.062Z" fill="#DE9545"/>
<path d="M20.9375 134.062H31.25V123.75H20.9375V134.062Z" fill="#15151E"/>
<path d="M289.062 123.75H299.375V113.437H289.062V123.75Z" fill="#15151E"/>
<path d="M278.75 123.75H289.063V113.437H278.75V123.75Z" fill="#DE9545"/>
<path d="M268.438 123.75H278.75V113.437H268.438V123.75Z" fill="#DE9545"/>
<path d="M258.125 123.75H268.437V113.437H258.125V123.75Z" fill="#DE9545"/>
<path d="M247.812 123.75H258.125V113.437H247.812V123.75Z" fill="#DE9545"/>
<path d="M237.5 123.75H247.813V113.437H237.5V123.75Z" fill="#DE9545"/>
<path d="M227.188 123.75H237.5V113.437H227.188V123.75Z" fill="#DE9545"/>
<path d="M216.875 123.75H227.188V113.437H216.875V123.75Z" fill="#DE9545"/>
<path d="M206.562 123.75H216.875V113.437H206.562V123.75Z" fill="#DE9545"/>
<path d="M196.25 123.75H206.563V113.437H196.25V123.75Z" fill="#FADCA4"/>
<path d="M185.938 123.75H196.25V113.437H185.938V123.75Z" fill="#FADCA4"/>
<path d="M175.625 123.75H185.938V113.437H175.625V123.75Z" fill="#FADCA4"/>
<path d="M165.312 123.75H175.625V113.437H165.312V123.75Z" fill="#FADCA4"/>
<path d="M155 123.75H165.313V113.437H155V123.75Z" fill="#FADCA4"/>
<path d="M144.688 123.75H155V113.437H144.688V123.75Z" fill="#FADCA4"/>
<path d="M134.375 123.75H144.688V113.437H134.375V123.75Z" fill="#FADCA4"/>
<path d="M124.062 123.75H134.375V113.437H124.062V123.75Z" fill="#FADCA4"/>
<path d="M113.75 123.75H124.063V113.437H113.75V123.75Z" fill="#FADCA4"/>
<path d="M103.438 123.75H113.75V113.437H103.438V123.75Z" fill="#DE9545"/>
<path d="M93.125 123.75H103.438V113.437H93.125V123.75Z" fill="#DE9545"/>
<path d="M82.8125 123.75H93.125V113.437H82.8125V123.75Z" fill="#DE9545"/>
<path d="M72.5 123.75H82.8125V113.437H72.5V123.75Z" fill="#DE9545"/>
<path d="M62.1875 123.75H72.5V113.437H62.1875V123.75Z" fill="#DE9545"/>
<path d="M51.875 123.75H62.1875V113.437H51.875V123.75Z" fill="#DE9545"/>
<path d="M41.5625 123.75H51.875V113.437H41.5625V123.75Z" fill="#DE9545"/>
<path d="M31.25 123.75H41.5625V113.437H31.25V123.75Z" fill="#DE9545"/>
<path d="M20.9375 123.75H31.25V113.437H20.9375V123.75Z" fill="#15151E"/>
<path d="M289.062 113.438H299.375V103.125H289.062V113.438Z" fill="#15151E"/>
<path d="M278.75 113.438H289.063V103.125H278.75V113.438Z" fill="#DE9545"/>
<path d="M268.438 113.438H278.75V103.125H268.438V113.438Z" fill="#DE9545"/>
<path d="M258.125 113.438H268.437V103.125H258.125V113.438Z" fill="#DE9545"/>
<path d="M247.812 113.438H258.125V103.125H247.812V113.438Z" fill="#DE9545"/>
<path d="M237.5 113.438H247.813V103.125H237.5V113.438Z" fill="#DE9545"/>
<path d="M227.188 113.438H237.5V103.125H227.188V113.438Z" fill="#DE9545"/>
<path d="M216.875 113.438H227.188V103.125H216.875V113.438Z" fill="#DE9545"/>
<path d="M206.562 113.438H216.875V103.125H206.562V113.438Z" fill="#DE9545"/>
<path d="M196.25 113.438H206.563V103.125H196.25V113.438Z" fill="#DE9545"/>
<path d="M185.938 113.438H196.25V103.125H185.938V113.438Z" fill="#FADCA4"/>
<path d="M175.625 113.438H185.938V103.125H175.625V113.438Z" fill="#FADCA4"/>
<path d="M165.312 113.438H175.625V103.125H165.312V113.438Z" fill="#FADCA4"/>
<path d="M155 113.438H165.313V103.125H155V113.438Z" fill="#FADCA4"/>
<path d="M144.688 113.438H155V103.125H144.688V113.438Z" fill="#FADCA4"/>
<path d="M134.375 113.438H144.688V103.125H134.375V113.438Z" fill="#FADCA4"/>
<path d="M124.062 113.438H134.375V103.125H124.062V113.438Z" fill="#FADCA4"/>
<path d="M113.75 113.438H124.063V103.125H113.75V113.438Z" fill="#DE9545"/>
<path d="M103.438 113.438H113.75V103.125H103.438V113.438Z" fill="#DE9545"/>
<path d="M93.125 113.438H103.438V103.125H93.125V113.438Z" fill="#DE9545"/>
<path d="M82.8125 113.438H93.125V103.125H82.8125V113.438Z" fill="#DE9545"/>
<path d="M72.5 113.438H82.8125V103.125H72.5V113.438Z" fill="#DE9545"/>
<path d="M62.1875 113.438H72.5V103.125H62.1875V113.438Z" fill="#DE9545"/>
<path d="M51.875 113.438H62.1875V103.125H51.875V113.438Z" fill="#DE9545"/>
<path d="M41.5625 113.438H51.875V103.125H41.5625V113.438Z" fill="#DE9545"/>
<path d="M31.25 113.438H41.5625V103.125H31.25V113.438Z" fill="#DE9545"/>
<path d="M20.9375 113.438H31.25V103.125H20.9375V113.438Z" fill="#15151E"/>
<path d="M278.75 103.125H289.063V92.8125H278.75V103.125Z" fill="#15151E"/>
<path d="M268.438 103.125H278.75V92.8125H268.438V103.125Z" fill="#DE9545"/>
<path d="M258.125 103.125H268.437V92.8125H258.125V103.125Z" fill="#DE9545"/>
<path d="M247.812 103.125H258.125V92.8125H247.812V103.125Z" fill="#DE9545"/>
<path d="M237.5 103.125H247.813V92.8125H237.5V103.125Z" fill="#DE9545"/>
<path d="M227.188 103.125H237.5V92.8125H227.188V103.125Z" fill="#DE9545"/>
<path d="M216.875 103.125H227.188V92.8125H216.875V103.125Z" fill="#DE9545"/>
<path d="M206.562 103.125H216.875V92.8125H206.562V103.125Z" fill="#DE9545"/>
<path d="M196.25 103.125H206.563V92.8125H196.25V103.125Z" fill="#DE9545"/>
<path d="M185.938 103.125H196.25V92.8125H185.938V103.125Z" fill="#DE9545"/>
<path d="M175.625 103.125H185.938V92.8125H175.625V103.125Z" fill="#FADCA4"/>
<path d="M165.312 103.125H175.625V92.8125H165.312V103.125Z" fill="#FADCA4"/>
<path d="M155 103.125H165.313V92.8125H155V103.125Z" fill="#FADCA4"/>
<path d="M144.688 103.125H155V92.8125H144.688V103.125Z" fill="#FADCA4"/>
<path d="M134.375 103.125H144.688V92.8125H134.375V103.125Z" fill="#FADCA4"/>
<path d="M124.062 103.125H134.375V92.8125H124.062V103.125Z" fill="#DE9545"/>
<path d="M113.75 103.125H124.063V92.8125H113.75V103.125Z" fill="#DE9545"/>
<path d="M103.438 103.125H113.75V92.8125H103.438V103.125Z" fill="#DE9545"/>
<path d="M93.125 103.125H103.438V92.8125H93.125V103.125Z" fill="#DE9545"/>
<path d="M82.8125 103.125H93.125V92.8125H82.8125V103.125Z" fill="#DE9545"/>
<path d="M72.5 103.125H82.8125V92.8125H72.5V103.125Z" fill="#DE9545"/>
<path d="M62.1875 103.125H72.5V92.8125H62.1875V103.125Z" fill="#DE9545"/>
<path d="M51.875 103.125H62.1875V92.8125H51.875V103.125Z" fill="#DE9545"/>
<path d="M41.5625 103.125H51.875V92.8125H41.5625V103.125Z" fill="#DE9545"/>
<path d="M31.25 103.125H41.5625V92.8125H31.25V103.125Z" fill="#15151E"/>
<path d="M278.75 92.8125H289.063V82.5H278.75V92.8125Z" fill="#15151E"/>
<path d="M268.438 92.8125H278.75V82.5H268.438V92.8125Z" fill="#DE9545"/>
<path d="M258.125 92.8125H268.437V82.5H258.125V92.8125Z" fill="#DE9545"/>
<path d="M247.812 92.8125H258.125V82.5H247.812V92.8125Z" fill="#DE9545"/>
<path d="M237.5 92.8125H247.813V82.5H237.5V92.8125Z" fill="#DE9545"/>
<path d="M227.188 92.8125H237.5V82.5H227.188V92.8125Z" fill="#15151E"/>
<path d="M216.875 92.8125H227.188V82.5H216.875V92.8125Z" fill="#15151E"/>
<path d="M206.562 92.8125H216.875V82.5H206.562V92.8125Z" fill="#FADCA4"/>
<path d="M196.25 92.8125H206.563V82.5H196.25V92.8125Z" fill="#DE9545"/>
<path d="M185.938 92.8125H196.25V82.5H185.938V92.8125Z" fill="#DE9545"/>
<path d="M175.625 92.8125H185.938V82.5H175.625V92.8125Z" fill="#DE9545"/>
<path d="M165.312 92.8125H175.625V82.5H165.312V92.8125Z" fill="#DE9545"/>
<path d="M155 92.8125H165.313V82.5H155V92.8125Z" fill="#DE9545"/>
<path d="M144.688 92.8125H155V82.5H144.688V92.8125Z" fill="#DE9545"/>
<path d="M134.375 92.8125H144.688V82.5H134.375V92.8125Z" fill="#DE9545"/>
<path d="M124.062 92.8125H134.375V82.5H124.062V92.8125Z" fill="#DE9545"/>
<path d="M113.75 92.8125H124.063V82.5H113.75V92.8125Z" fill="#DE9545"/>
<path d="M103.438 92.8125H113.75V82.5H103.438V92.8125Z" fill="#FADCA4"/>
<path d="M93.125 92.8125H103.438V82.5H93.125V92.8125Z" fill="#15151E"/>
<path d="M82.8125 92.8125H93.125V82.5H82.8125V92.8125Z" fill="#15151E"/>
<path d="M72.5 92.8125H82.8125V82.5H72.5V92.8125Z" fill="#DE9545"/>
<path d="M62.1875 92.8125H72.5V82.5H62.1875V92.8125Z" fill="#DE9545"/>
<path d="M51.875 92.8125H62.1875V82.5H51.875V92.8125Z" fill="#DE9545"/>
<path d="M41.5625 92.8125H51.875V82.5H41.5625V92.8125Z" fill="#CD7412"/>
<path d="M31.25 92.8125H41.5625V82.5H31.25V92.8125Z" fill="#15151E"/>
<path d="M268.438 82.5H278.75V72.1875H268.438V82.5Z" fill="#15151E"/>
<path d="M258.125 82.5H268.437V72.1875H258.125V82.5Z" fill="#DE9545"/>
<path d="M247.812 82.5H258.125V72.1875H247.812V82.5Z" fill="#DE9545"/>
<path d="M237.5 82.5H247.813V72.1875H237.5V82.5Z" fill="#DE9545"/>
<path d="M227.188 82.5H237.5V72.1875H227.188V82.5Z" fill="#15151E"/>
<path d="M216.875 82.5H227.188V72.1875H216.875V82.5Z" fill="#FEFFFF"/>
<path d="M206.562 82.5H216.875V72.1875H206.562V82.5Z" fill="#15151E"/>
<path d="M196.25 82.5H206.563V72.1875H196.25V82.5Z" fill="#DE9545"/>
<path d="M185.938 82.5H196.25V72.1875H185.938V82.5Z" fill="#DE9545"/>
<path d="M175.625 82.5H185.938V72.1875H175.625V82.5Z" fill="#DE9545"/>
<path d="M165.312 82.5H175.625V72.1875H165.312V82.5Z" fill="#DE9545"/>
<path d="M155 82.5H165.313V72.1875H155V82.5Z" fill="#DE9545"/>
<path d="M144.688 82.5H155V72.1875H144.688V82.5Z" fill="#DE9545"/>
<path d="M134.375 82.5H144.688V72.1875H134.375V82.5Z" fill="#DE9545"/>
<path d="M124.062 82.5H134.375V72.1875H124.062V82.5Z" fill="#DE9545"/>
<path d="M113.75 82.5H124.063V72.1875H113.75V82.5Z" fill="#DE9545"/>
<path d="M103.438 82.5H113.75V72.1875H103.438V82.5Z" fill="#15151E"/>
<path d="M93.125 82.5H103.438V72.1875H93.125V82.5Z" fill="#FEFFFF"/>
<path d="M82.8125 82.5H93.125V72.1875H82.8125V82.5Z" fill="#15151E"/>
<path d="M72.5 82.5H82.8125V72.1875H72.5V82.5Z" fill="#DE9545"/>
<path d="M62.1875 82.5H72.5V72.1875H62.1875V82.5Z" fill="#DE9545"/>
<path d="M51.875 82.5H62.1875V72.1875H51.875V82.5Z" fill="#DE9545"/>
<path d="M41.5625 82.5H51.875V72.1875H41.5625V82.5Z" fill="#15151E"/>
<path d="M268.438 72.1875H278.75V61.875H268.438V72.1875Z" fill="#15151E"/>
<path d="M258.125 72.1875H268.437V61.875H258.125V72.1875Z" fill="#DE9545"/>
<path d="M247.812 72.1875H258.125V61.875H247.812V72.1875Z" fill="#DE9545"/>
<path d="M237.5 72.1875H247.813V61.875H237.5V72.1875Z" fill="#DE9545"/>
<path d="M227.188 72.1875H237.5V61.875H227.188V72.1875Z" fill="#15151E"/>
<path d="M216.875 72.1875H227.188V61.875H216.875V72.1875Z" fill="#15151E"/>
<path d="M206.562 72.1875H216.875V61.875H206.562V72.1875Z" fill="#15151E"/>
<path d="M196.25 72.1875H206.563V61.875H196.25V72.1875Z" fill="#DE9545"/>
<path d="M185.938 72.1875H196.25V61.875H185.938V72.1875Z" fill="#DE9545"/>
<path d="M175.625 72.1875H185.938V61.875H175.625V72.1875Z" fill="#DE9545"/>
<path d="M165.312 72.1875H175.625V61.875H165.312V72.1875Z" fill="#DE9545"/>
<path d="M155 72.1875H165.313V61.875H155V72.1875Z" fill="#DE9545"/>
<path d="M144.688 72.1875H155V61.875H144.688V72.1875Z" fill="#DE9545"/>
<path d="M134.375 72.1875H144.688V61.875H134.375V72.1875Z" fill="#DE9545"/>
<path d="M124.062 72.1875H134.375V61.875H124.062V72.1875Z" fill="#DE9545"/>
<path d="M113.75 72.1875H124.063V61.875H113.75V72.1875Z" fill="#DE9545"/>
<path d="M103.438 72.1875H113.75V61.875H103.438V72.1875Z" fill="#15151E"/>
<path d="M93.125 72.1875H103.438V61.875H93.125V72.1875Z" fill="#15151E"/>
<path d="M82.8125 72.1875H93.125V61.875H82.8125V72.1875Z" fill="#15151E"/>
<path d="M72.5 72.1875H82.8125V61.875H72.5V72.1875Z" fill="#DE9545"/>
<path d="M62.1875 72.1875H72.5V61.875H62.1875V72.1875Z" fill="#DE9545"/>
<path d="M51.875 72.1875H62.1875V61.875H51.875V72.1875Z" fill="#DE9545"/>
<path d="M41.5625 72.1875H51.875V61.875H41.5625V72.1875Z" fill="#15151E"/>
<path d="M268.438 61.875H278.75V51.5625H268.438V61.875Z" fill="#15151E"/>
<path d="M258.125 61.875H268.437V51.5625H258.125V61.875Z" fill="#15151E"/>
<path d="M247.812 61.875H258.125V51.5625H247.812V61.875Z" fill="#DE9545"/>
<path d="M237.5 61.875H247.813V51.5625H237.5V61.875Z" fill="#DE9545"/>
<path d="M227.188 61.875H237.5V51.5625H227.188V61.875Z" fill="#DE9545"/>
<path d="M216.875 61.875H227.188V51.5625H216.875V61.875Z" fill="#DE9545"/>
<path d="M206.562 61.875H216.875V51.5625H206.562V61.875Z" fill="#DE9545"/>
<path d="M196.25 61.875H206.563V51.5625H196.25V61.875Z" fill="#DE9545"/>
<path d="M185.938 61.875H196.25V51.5625H185.938V61.875Z" fill="#DE9545"/>
<path d="M175.625 61.875H185.938V51.5625H175.625V61.875Z" fill="#DE9545"/>
<path d="M165.312 61.875H175.625V51.5625H165.312V61.875Z" fill="#DE9545"/>
<path d="M155 61.875H165.313V51.5625H155V61.875Z" fill="#DE9545"/>
<path d="M144.688 61.875H155V51.5625H144.688V61.875Z" fill="#DE9545"/>
<path d="M134.375 61.875H144.688V51.5625H134.375V61.875Z" fill="#DE9545"/>
<path d="M124.062 61.875H134.375V51.5625H124.062V61.875Z" fill="#DE9545"/>
<path d="M113.75 61.875H124.063V51.5625H113.75V61.875Z" fill="#DE9545"/>
<path d="M103.438 61.875H113.75V51.5625H103.438V61.875Z" fill="#DE9545"/>
<path d="M93.125 61.875H103.438V51.5625H93.125V61.875Z" fill="#DE9545"/>
<path d="M82.8125 61.875H93.125V51.5625H82.8125V61.875Z" fill="#DE9545"/>
<path d="M72.5 61.875H82.8125V51.5625H72.5V61.875Z" fill="#DE9545"/>
<path d="M62.1875 61.875H72.5V51.5625H62.1875V61.875Z" fill="#DE9545"/>
<path d="M51.875 61.875H62.1875V51.5625H51.875V61.875Z" fill="#15151E"/>
<path d="M41.5625 61.875H51.875V51.5625H41.5625V61.875Z" fill="#15151E"/>
<path d="M258.125 51.5625H268.437V41.25H258.125V51.5625Z" fill="#15151E"/>
<path d="M247.812 51.5625H258.125V41.25H247.812V51.5625Z" fill="#15151E"/>
<path d="M237.5 51.5625H247.813V41.25H237.5V51.5625Z" fill="#DE9545"/>
<path d="M227.188 51.5625H237.5V41.25H227.188V51.5625Z" fill="#DE9545"/>
<path d="M216.875 51.5625H227.188V41.25H216.875V51.5625Z" fill="#DE9545"/>
<path d="M206.562 51.5625H216.875V41.25H206.562V51.5625Z" fill="#DE9545"/>
<path d="M196.25 51.5625H206.563V41.25H196.25V51.5625Z" fill="#DE9545"/>
<path d="M185.938 51.5625H196.25V41.25H185.938V51.5625Z" fill="#DE9545"/>
<path d="M175.625 51.5625H185.938V41.25H175.625V51.5625Z" fill="#DE9545"/>
<path d="M165.312 51.5625H175.625V41.25H165.312V51.5625Z" fill="#DE9545"/>
<path d="M155 51.5625H165.313V41.25H155V51.5625Z" fill="#DE9545"/>
<path d="M144.688 51.5625H155V41.25H144.688V51.5625Z" fill="#DE9545"/>
<path d="M134.375 51.5625H144.688V41.25H134.375V51.5625Z" fill="#DE9545"/>
<path d="M124.062 51.5625H134.375V41.25H124.062V51.5625Z" fill="#DE9545"/>
<path d="M113.75 51.5625H124.063V41.25H113.75V51.5625Z" fill="#DE9545"/>
<path d="M103.438 51.5625H113.75V41.25H103.438V51.5625Z" fill="#DE9545"/>
<path d="M93.125 51.5625H103.438V41.25H93.125V51.5625Z" fill="#DE9545"/>
<path d="M82.8125 51.5625H93.125V41.25H82.8125V51.5625Z" fill="#DE9545"/>
<path d="M72.5 51.5625H82.8125V41.25H72.5V51.5625Z" fill="#DE9545"/>
<path d="M62.1875 51.5625H72.5V41.25H62.1875V51.5625Z" fill="#15151E"/>
<path d="M51.875 51.5625H62.1875V41.25H51.875V51.5625Z" fill="#15151E"/>
<path d="M258.125 41.25H268.437V30.9375H258.125V41.25Z" fill="#15151E"/>
<path d="M247.812 41.25H258.125V30.9375H247.812V41.25Z" fill="#CD7412"/>
<path d="M237.5 41.25H247.813V30.9375H237.5V41.25Z" fill="#15151E"/>
<path d="M227.188 41.25H237.5V30.9375H227.188V41.25Z" fill="#DE9545"/>
<path d="M216.875 41.25H227.188V30.9375H216.875V41.25Z" fill="#DE9545"/>
<path d="M206.562 41.25H216.875V30.9375H206.562V41.25Z" fill="#DE9545"/>
<path d="M196.25 41.25H206.563V30.9375H196.25V41.25Z" fill="#DE9545"/>
<path d="M185.938 41.25H196.25V30.9375H185.938V41.25Z" fill="#DE9545"/>
<path d="M175.625 41.25H185.938V30.9375H175.625V41.25Z" fill="#DE9545"/>
<path d="M165.312 41.25H175.625V30.9375H165.312V41.25Z" fill="#DE9545"/>
<path d="M155 41.25H165.313V30.9375H155V41.25Z" fill="#DE9545"/>
<path d="M144.688 41.25H155V30.9375H144.688V41.25Z" fill="#DE9545"/>
<path d="M134.375 41.25H144.688V30.9375H134.375V41.25Z" fill="#DE9545"/>
<path d="M124.062 41.25H134.375V30.9375H124.062V41.25Z" fill="#DE9545"/>
<path d="M113.75 41.25H124.063V30.9375H113.75V41.25Z" fill="#DE9545"/>
<path d="M103.438 41.25H113.75V30.9375H103.438V41.25Z" fill="#DE9545"/>
<path d="M93.125 41.25H103.438V30.9375H93.125V41.25Z" fill="#DE9545"/>
<path d="M82.8125 41.25H93.125V30.9375H82.8125V41.25Z" fill="#DE9545"/>
<path d="M72.5 41.25H82.8125V30.9375H72.5V41.25Z" fill="#15151E"/>
<path d="M62.1875 41.25H72.5V30.9375H62.1875V41.25Z" fill="#CD7412"/>
<path d="M51.875 41.25H62.1875V30.9375H51.875V41.25Z" fill="#15151E"/>
<path d="M258.125 30.9375H268.437V20.625H258.125V30.9375Z" fill="#15151E"/>
<path d="M247.812 30.9375H258.125V20.625H247.812V30.9375Z" fill="#CD7412"/>
<path d="M237.5 30.9375H247.813V20.625H237.5V30.9375Z" fill="#15151E"/>
<path d="M227.188 30.9375H237.5V20.625H227.188V30.9375Z" fill="#15151E"/>
<path d="M216.875 30.9375H227.188V20.625H216.875V30.9375Z" fill="#CD7412"/>
<path d="M206.562 30.9375H216.875V20.625H206.562V30.9375Z" fill="#DE9545"/>
<path d="M196.25 30.9375H206.563V20.625H196.25V30.9375Z" fill="#DE9545"/>
<path d="M185.938 30.9375H196.25V20.625H185.938V30.9375Z" fill="#DE9545"/>
<path d="M175.625 30.9375H185.938V20.625H175.625V30.9375Z" fill="#DE9545"/>
<path d="M165.312 30.9375H175.625V20.625H165.312V30.9375Z" fill="#DE9545"/>
<path d="M155 30.9375H165.313V20.625H155V30.9375Z" fill="#DE9545"/>
<path d="M144.688 30.9375H155V20.625H144.688V30.9375Z" fill="#DE9545"/>
<path d="M134.375 30.9375H144.688V20.625H134.375V30.9375Z" fill="#DE9545"/>
<path d="M124.062 30.9375H134.375V20.625H124.062V30.9375Z" fill="#DE9545"/>
<path d="M113.75 30.9375H124.063V20.625H113.75V30.9375Z" fill="#DE9545"/>
<path d="M103.438 30.9375H113.75V20.625H103.438V30.9375Z" fill="#DE9545"/>
<path d="M93.125 30.9375H103.438V20.625H93.125V30.9375Z" fill="#CD7412"/>
<path d="M82.8125 30.9375H93.125V20.625H82.8125V30.9375Z" fill="#15151E"/>
<path d="M72.5 30.9375H82.8125V20.625H72.5V30.9375Z" fill="#15151E"/>
<path d="M62.1875 30.9375H72.5V20.625H62.1875V30.9375Z" fill="#CD7412"/>
<path d="M51.875 30.9375H62.1875V20.625H51.875V30.9375Z" fill="#15151E"/>
<path d="M258.125 20.625H268.437V10.3125H258.125V20.625Z" fill="#15151E"/>
<path d="M247.812 20.625H258.125V10.3125H247.812V20.625Z" fill="#FADCA4"/>
<path d="M237.5 20.625H247.813V10.3125H237.5V20.625Z" fill="#FADCA4"/>
<path d="M227.188 20.625H237.5V10.3125H227.188V20.625Z" fill="#FADCA4"/>
<path d="M216.875 20.625H227.188V10.3125H216.875V20.625Z" fill="#15151E"/>
<path d="M206.562 20.625H216.875V10.3125H206.562V20.625Z" fill="#DE9545"/>
<path d="M196.25 20.625H206.563V10.3125H196.25V20.625Z" fill="#DE9545"/>
<path d="M185.938 20.625H196.25V10.3125H185.938V20.625Z" fill="#DE9545"/>
<path d="M175.625 20.625H185.938V10.3125H175.625V20.625Z" fill="#DE9545"/>
<path d="M165.312 20.625H175.625V10.3125H165.312V20.625Z" fill="#DE9545"/>
<path d="M155 20.625H165.313V10.3125H155V20.625Z" fill="#DE9545"/>
<path d="M144.688 20.625H155V10.3125H144.688V20.625Z" fill="#DE9545"/>
<path d="M134.375 20.625H144.688V10.3125H134.375V20.625Z" fill="#DE9545"/>
<path d="M124.062 20.625H134.375V10.3125H124.062V20.625Z" fill="#DE9545"/>
<path d="M113.75 20.625H124.063V10.3125H113.75V20.625Z" fill="#DE9545"/>
<path d="M103.438 20.625H113.75V10.3125H103.438V20.625Z" fill="#DE9545"/>
<path d="M93.125 20.625H103.438V10.3125H93.125V20.625Z" fill="#15151E"/>
<path d="M82.8125 20.625H93.125V10.3125H82.8125V20.625Z" fill="#FADCA4"/>
<path d="M72.5 20.625H82.8125V10.3125H72.5V20.625Z" fill="#FADCA4"/>
<path d="M62.1875 20.625H72.5V10.3125H62.1875V20.625Z" fill="#FADCA4"/>
<path d="M51.875 20.625H62.1875V10.3125H51.875V20.625Z" fill="#15151E"/>
<path d="M258.125 10.3125H268.437V-5.96046e-07H258.125V10.3125Z" fill="#15151E"/>
<path d="M247.812 10.3125H258.125V-5.96046e-07H247.812V10.3125Z" fill="#15151E"/>
<path d="M237.5 10.3125H247.813V-5.96046e-07H237.5V10.3125Z" fill="#15151E"/>
<path d="M227.188 10.3125H237.5V-5.96046e-07H227.188V10.3125Z" fill="#15151E"/>
<path d="M206.562 10.3125H216.875V-5.96046e-07H206.562V10.3125Z" fill="#15151E"/>
<path d="M196.25 10.3125H206.563V-5.96046e-07H196.25V10.3125Z" fill="#15151E"/>
<path d="M185.938 10.3125H196.25V-5.96046e-07H185.938V10.3125Z" fill="#15151E"/>
<path d="M175.625 10.3125H185.938V-5.96046e-07H175.625V10.3125Z" fill="#15151E"/>
<path d="M165.312 10.3125H175.625V-5.96046e-07H165.312V10.3125Z" fill="#15151E"/>
<path d="M155 10.3125H165.313V-5.96046e-07H155V10.3125Z" fill="#15151E"/>
<path d="M144.688 10.3125H155V-5.96046e-07H144.688V10.3125Z" fill="#15151E"/>
<path d="M134.375 10.3125H144.688V-5.96046e-07H134.375V10.3125Z" fill="#15151E"/>
<path d="M124.062 10.3125H134.375V-5.96046e-07H124.062V10.3125Z" fill="#15151E"/>
<path d="M113.75 10.3125H124.063V-5.96046e-07H113.75V10.3125Z" fill="#15151E"/>
<path d="M103.438 10.3125H113.75V-5.96046e-07H103.438V10.3125Z" fill="#15151E"/>
<path d="M82.8125 10.3125H93.125V-5.96046e-07H82.8125V10.3125Z" fill="#15151E"/>
<path d="M72.5 10.3125H82.8125V-5.96046e-07H72.5V10.3125Z" fill="#15151E"/>
<path d="M62.1875 10.3125H72.5V-5.96046e-07H62.1875V10.3125Z" fill="#15151E"/>
<path d="M51.875 10.3125H62.1875V-5.96046e-07H51.875V10.3125Z" fill="#15151E"/>
</svg>
