<svg width="406" height="271" viewBox="0 0 406 271" fill="none" xmlns="http://www.w3.org/2000/svg">
<path d="M22.5442 247.827H0V270.371H22.5442V247.827Z" fill="#808080"/>
<path d="M67.6007 247.827H45.0565V270.371H67.6007V247.827Z" fill="#808080"/>
<path d="M90.1448 247.827H67.6007V270.371H90.1448V247.827Z" fill="#808080"/>
<path d="M360.484 247.827H337.939V270.371H360.484V247.827Z" fill="#808080"/>
<path d="M405.572 247.827H383.028V270.371H405.572V247.827Z" fill="#808080"/>
<path d="M292.893 67.5791H270.349V90.1233H292.893V67.5791Z" fill="white"/>
<path d="M90.1233 157.692H67.5792V180.237H90.1233V157.692Z" fill="white"/>
<path d="M180.268 180.236H157.724V202.781H180.268V180.236Z" fill="white"/>
<path d="M180.268 202.749H157.724V225.293H180.268V202.749Z" fill="white"/>
<path d="M270.381 67.5791H247.837V90.1233H270.381V67.5791Z" fill="white"/>
<path d="M67.6111 90.1221H45.0669V112.666H67.6111V90.1221Z" fill="white"/>
<path d="M247.837 90.1221H225.293V112.666H247.837V90.1221Z" fill="white"/>
<path d="M270.381 90.1221H247.837V112.666H270.381V90.1221Z" fill="white"/>
<path d="M292.893 90.1221H270.349V112.666H292.893V90.1221Z" fill="white"/>
<path d="M315.438 90.1221H292.893V112.666H315.438V90.1221Z" fill="white"/>
<path d="M180.268 112.636H157.724V135.18H180.268V112.636Z" fill="white"/>
<path d="M202.78 112.636H180.236V135.18H202.78V112.636Z" fill="white"/>
<path d="M225.325 112.636H202.78V135.18H225.325V112.636Z" fill="white"/>
<path d="M270.381 112.636H247.837V135.18H270.381V112.636Z" fill="white"/>
<path d="M292.893 112.636H270.349V135.18H292.893V112.636Z" fill="white"/>
<path d="M315.438 112.636H292.893V135.18H315.438V112.636Z" fill="white"/>
<path d="M360.494 112.636H337.95V135.18H360.494V112.636Z" fill="white"/>
<path d="M90.1233 135.181H67.5792V157.725H90.1233V135.181Z" fill="white"/>
<path d="M180.268 135.181H157.724V157.725H180.268V135.181Z" fill="white"/>
<path d="M202.78 135.181H180.236V157.725H202.78V135.181Z" fill="white"/>
<path d="M225.325 135.181H202.78V157.725H225.325V135.181Z" fill="white"/>
<path d="M247.837 135.181H225.293V157.725H247.837V135.181Z" fill="white"/>
<path d="M337.982 135.181H315.438V157.725H337.982V135.181Z" fill="white"/>
<path d="M360.494 135.181H337.95V157.725H360.494V135.181Z" fill="white"/>
<path d="M112.667 157.692H90.1233V180.237H112.667V157.692Z" fill="white"/>
<path d="M202.78 157.692H180.236V180.237H202.78V157.692Z" fill="white"/>
<path d="M225.325 157.692H202.78V180.237H225.325V157.692Z" fill="white"/>
<path d="M157.724 202.749H135.18V225.293H157.724V202.749Z" fill="white"/>
<path d="M202.78 202.749H180.236V225.293H202.78V202.749Z" fill="white"/>
<path d="M292.893 202.749H270.349V225.293H292.893V202.749Z" fill="white"/>
<path d="M315.438 202.749H292.893V225.293H315.438V202.749Z" fill="white"/>
<path d="M135.18 225.292H112.636V247.836H135.18V225.292Z" fill="white"/>
<path d="M157.724 225.292H135.18V247.836H157.724V225.292Z" fill="white"/>
<path d="M180.268 225.292H157.724V247.836H180.268V225.292Z" fill="white"/>
<path d="M202.78 225.292H180.236V247.836H202.78V225.292Z" fill="white"/>
<path d="M225.325 225.292H202.78V247.836H225.325V225.292Z" fill="white"/>
<path d="M247.837 225.292H225.293V247.836H247.837V225.292Z" fill="white"/>
<path d="M270.381 225.292H247.837V247.836H270.381V225.292Z" fill="white"/>
<path d="M292.893 225.292H270.349V247.836H292.893V225.292Z" fill="white"/>
<path d="M315.438 225.292H292.893V247.836H315.438V225.292Z" fill="white"/>
<path d="M270.381 135.181H247.837V157.725H270.381V135.181Z" fill="white"/>
<path d="M292.893 135.181H270.349V157.725H292.893V135.181Z" fill="white"/>
<path d="M315.438 135.181H292.893V157.725H315.438V135.181Z" fill="white"/>
<path d="M247.837 157.692H225.293V180.237H247.837V157.692Z" fill="white"/>
<path d="M270.381 157.692H247.837V180.237H270.381V157.692Z" fill="white"/>
<path d="M292.893 157.692H270.349V180.237H292.893V157.692Z" fill="white"/>
<path d="M315.438 157.692H292.893V180.237H315.438V157.692Z" fill="white"/>
<path d="M337.982 157.692H315.438V180.237H337.982V157.692Z" fill="white"/>
<path d="M135.18 247.805H112.636V270.349H135.18V247.805Z" fill="white"/>
<path d="M180.268 247.805H157.724V270.349H180.268V247.805Z" fill="white"/>
<path d="M270.381 247.805H247.837V270.349H270.381V247.805Z" fill="white"/>
<path d="M315.438 247.805H292.893V270.349H315.438V247.805Z" fill="white"/>
<path d="M180.258 157.713H157.713V180.257H180.258V157.713Z" fill="black"/>
<path d="M202.77 180.227H180.226V202.771H202.77V180.227Z" fill="black"/>
<path d="M225.314 180.227H202.77V202.771H225.314V180.227Z" fill="black"/>
<path d="M247.858 180.227H225.314V202.771H247.858V180.227Z" fill="black"/>
<path d="M270.37 180.227H247.826V202.771H270.37V180.227Z" fill="black"/>
<path d="M292.915 180.227H270.37V202.771H292.915V180.227Z" fill="black"/>
<path d="M315.427 180.227H292.883V202.771H315.427V180.227Z" fill="black"/>
<path d="M180.258 0H157.713V22.5442H180.258V0Z" fill="black"/>
<path d="M202.77 0H180.226V22.5442H202.77V0Z" fill="black"/>
<path d="M337.971 0H315.427V22.5442H337.971V0Z" fill="black"/>
<path d="M360.483 0H337.939V22.5442H360.483V0Z" fill="black"/>
<path d="M180.258 22.5127H157.713V45.0569H180.258V22.5127Z" fill="black"/>
<path d="M225.314 22.5127H202.77V45.0569H225.314V22.5127Z" fill="black"/>
<path d="M315.427 22.5127H292.883V45.0569H315.427V22.5127Z" fill="black"/>
<path d="M360.483 22.5127H337.939V45.0569H360.483V22.5127Z" fill="black"/>
<path d="M180.258 45.0576H157.713V67.6018H180.258V45.0576Z" fill="black"/>
<path d="M247.858 45.0576H225.314V67.6018H247.858V45.0576Z" fill="black"/>
<path d="M270.37 45.0576H247.826V67.6018H270.37V45.0576Z" fill="black"/>
<path d="M292.915 45.0576H270.37V67.6018H292.915V45.0576Z" fill="black"/>
<path d="M360.483 45.0576H337.939V67.6018H360.483V45.0576Z" fill="black"/>
<path d="M67.6005 67.5684H45.0563V90.1126H67.6005V67.5684Z" fill="black"/>
<path d="M90.1447 67.5684H67.6006V90.1126H90.1447V67.5684Z" fill="black"/>
<path d="M157.713 67.5684H135.169V90.1126H157.713V67.5684Z" fill="black"/>
<path d="M383.028 67.5684H360.483V90.1126H383.028V67.5684Z" fill="black"/>
<path d="M45.0563 90.1133H22.5121V112.657H45.0563V90.1133Z" fill="black"/>
<path d="M90.1447 90.1133H67.6006V112.657H90.1447V90.1133Z" fill="black"/>
<path d="M157.713 90.1133H135.169V112.657H157.713V90.1133Z" fill="black"/>
<path d="M383.028 90.1133H360.483V112.657H383.028V90.1133Z" fill="black"/>
<path d="M45.0563 112.626H22.5121V135.17H45.0563V112.626Z" fill="black"/>
<path d="M90.1447 112.626H67.6006V135.17H90.1447V112.626Z" fill="black"/>
<path d="M157.713 112.626H135.169V135.17H157.713V112.626Z" fill="black"/>
<path d="M383.028 112.626H360.483V135.17H383.028V112.626Z" fill="black"/>
<path d="M45.0563 135.17H22.5121V157.714H45.0563V135.17Z" fill="black"/>
<path d="M112.657 135.17H90.1128V157.714H112.657V135.17Z" fill="black"/>
<path d="M157.713 135.17H135.169V157.714H157.713V135.17Z" fill="black"/>
<path d="M383.028 135.17H360.483V157.714H383.028V135.17Z" fill="black"/>
<path d="M67.6005 157.713H45.0563V180.257H67.6005V157.713Z" fill="black"/>
<path d="M135.201 157.713H112.657V180.257H135.201V157.713Z" fill="black"/>
<path d="M157.713 157.713H135.169V180.257H157.713V157.713Z" fill="black"/>
<path d="M360.483 157.713H337.939V180.257H360.483V157.713Z" fill="black"/>
<path d="M90.1447 180.227H67.6006V202.771H90.1447V180.227Z" fill="black"/>
<path d="M337.971 180.227H315.427V202.771H337.971V180.227Z" fill="black"/>
<path d="M112.657 202.771H90.1128V225.316H112.657V202.771Z" fill="black"/>
<path d="M337.971 202.771H315.427V225.316H337.971V202.771Z" fill="black"/>
<path d="M112.657 225.283H90.1128V247.827H112.657V225.283Z" fill="black"/>
<path d="M337.971 225.283H315.427V247.827H337.971V225.283Z" fill="black"/>
<path d="M112.657 247.827H90.1128V270.371H112.657V247.827Z" fill="black"/>
<path d="M157.713 247.827H135.169V270.371H157.713V247.827Z" fill="black"/>
<path d="M202.77 247.827H180.226V270.371H202.77V247.827Z" fill="black"/>
<path d="M225.314 247.827H202.77V270.371H225.314V247.827Z" fill="black"/>
<path d="M247.858 247.827H225.314V270.371H247.858V247.827Z" fill="black"/>
<path d="M292.915 247.827H270.37V270.371H292.915V247.827Z" fill="black"/>
<path d="M337.971 247.827H315.427V270.371H337.971V247.827Z" fill="black"/>
<path d="M247.837 112.636H225.293V135.18H247.837V112.636Z" fill="#333333"/>
<path d="M337.982 112.636H315.438V135.18H337.982V112.636Z" fill="#333333"/>
<path d="M135.201 180.236H112.657V202.781H135.201V180.236Z" fill="#858681"/>
<path d="M135.201 202.749H112.657V225.293H135.201V202.749Z" fill="#858681"/>
<path d="M337.971 22.5225H315.427V45.0667H337.971V22.5225Z" fill="#858681"/>
<path d="M315.427 45.0361H292.883V67.5794H315.427V45.0361Z" fill="#858681"/>
<path d="M337.971 45.0361H315.427V67.5794H337.971V45.0361Z" fill="#858681"/>
<path d="M315.427 67.5791H292.883V90.1233H315.427V67.5791Z" fill="#858681"/>
<path d="M337.971 67.5791H315.427V90.1233H337.971V67.5791Z" fill="#858681"/>
<path d="M360.483 67.5791H337.939V90.1233H360.483V67.5791Z" fill="#858681"/>
<path d="M337.971 90.1221H315.427V112.666H337.971V90.1221Z" fill="#858681"/>
<path d="M360.483 90.1221H337.939V112.666H360.483V90.1221Z" fill="#858681"/>
<path d="M112.657 180.236H90.1125V202.781H112.657V180.236Z" fill="#858681"/>
<path d="M157.713 180.236H135.169V202.781H157.713V180.236Z" fill="#858681"/>
<path d="M247.858 67.5791H225.314V90.1233H247.858V67.5791Z" fill="#DB7435"/>
<path d="M67.6004 112.636H45.0562V135.18H67.6004V112.636Z" fill="#DB7435"/>
<path d="M202.77 22.5225H180.226V45.0667H202.77V22.5225Z" fill="#DB7435"/>
<path d="M202.77 45.0361H180.226V67.5794H202.77V45.0361Z" fill="#DB7435"/>
<path d="M225.314 45.0361H202.77V67.5794H225.314V45.0361Z" fill="#DB7435"/>
<path d="M180.257 67.5791H157.713V90.1233H180.257V67.5791Z" fill="#DB7435"/>
<path d="M202.77 67.5791H180.226V90.1233H202.77V67.5791Z" fill="#DB7435"/>
<path d="M225.314 67.5791H202.77V90.1233H225.314V67.5791Z" fill="#DB7435"/>
<path d="M180.257 90.1221H157.713V112.666H180.257V90.1221Z" fill="#DB7435"/>
<path d="M202.77 90.1221H180.226V112.666H202.77V90.1221Z" fill="#DB7435"/>
<path d="M225.314 90.1221H202.77V112.666H225.314V90.1221Z" fill="#DB7435"/>
<path d="M67.6004 135.181H45.0562V157.725H67.6004V135.181Z" fill="#DB7435"/>
<path d="M225.314 202.749H202.77V225.293H225.314V202.749Z" fill="#DB7435"/>
<path d="M247.858 202.749H225.314V225.293H247.858V202.749Z" fill="#DB7435"/>
<path d="M270.37 202.749H247.826V225.293H270.37V202.749Z" fill="#DB7435"/>
</svg>
