<svg width="406" height="271" viewBox="0 0 406 271" fill="none" xmlns="http://www.w3.org/2000/svg">
<path d="M22.5442 247.827H0V270.371H22.5442V247.827Z" fill="#808080"/>
<path d="M67.6004 247.827H45.0562V270.371H67.6004V247.827Z" fill="#808080"/>
<path d="M90.113 247.827H67.5688V270.371H90.113V247.827Z" fill="#808080"/>
<path d="M360.484 247.827H337.939V270.371H360.484V247.827Z" fill="#808080"/>
<path d="M405.54 247.827H382.996V270.371H405.54V247.827Z" fill="#808080"/>
<path d="M247.837 67.5791H225.293V90.1233H247.837V67.5791Z" fill="white"/>
<path d="M292.894 67.5791H270.349V90.1233H292.894V67.5791Z" fill="white"/>
<path d="M67.5794 112.636H45.0352V135.18H67.5794V112.636Z" fill="white"/>
<path d="M90.1235 157.692H67.5793V180.237H90.1235V157.692Z" fill="white"/>
<path d="M135.18 180.236H112.636V202.781H135.18V180.236Z" fill="white"/>
<path d="M180.236 180.236H157.692V202.781H180.236V180.236Z" fill="white"/>
<path d="M135.18 202.749H112.636V225.293H135.18V202.749Z" fill="white"/>
<path d="M180.236 202.749H157.692V225.293H180.236V202.749Z" fill="white"/>
<path d="M202.781 22.5225H180.236V45.0667H202.781V22.5225Z" fill="white"/>
<path d="M337.95 22.5225H315.406V45.0667H337.95V22.5225Z" fill="white"/>
<path d="M202.781 45.0361H180.236V67.5794H202.781V45.0361Z" fill="white"/>
<path d="M225.293 45.0361H202.749V67.5794H225.293V45.0361Z" fill="white"/>
<path d="M315.438 45.0361H292.894V67.5794H315.438V45.0361Z" fill="white"/>
<path d="M337.95 45.0361H315.406V67.5794H337.95V45.0361Z" fill="white"/>
<path d="M180.236 67.5791H157.692V90.1233H180.236V67.5791Z" fill="white"/>
<path d="M202.781 67.5791H180.236V90.1233H202.781V67.5791Z" fill="white"/>
<path d="M225.293 67.5791H202.749V90.1233H225.293V67.5791Z" fill="white"/>
<path d="M270.381 67.5791H247.837V90.1233H270.381V67.5791Z" fill="white"/>
<path d="M315.438 67.5791H292.894V90.1233H315.438V67.5791Z" fill="white"/>
<path d="M337.95 67.5791H315.406V90.1233H337.95V67.5791Z" fill="white"/>
<path d="M360.494 67.5791H337.95V90.1233H360.494V67.5791Z" fill="white"/>
<path d="M67.5794 90.1221H45.0352V112.666H67.5794V90.1221Z" fill="white"/>
<path d="M180.236 90.1221H157.692V112.666H180.236V90.1221Z" fill="white"/>
<path d="M202.781 90.1221H180.236V112.666H202.781V90.1221Z" fill="white"/>
<path d="M225.293 90.1221H202.749V112.666H225.293V90.1221Z" fill="white"/>
<path d="M247.837 90.1221H225.293V112.666H247.837V90.1221Z" fill="white"/>
<path d="M270.381 90.1221H247.837V112.666H270.381V90.1221Z" fill="white"/>
<path d="M292.894 90.1221H270.349V112.666H292.894V90.1221Z" fill="white"/>
<path d="M315.438 90.1221H292.894V112.666H315.438V90.1221Z" fill="white"/>
<path d="M337.95 90.1221H315.406V112.666H337.95V90.1221Z" fill="white"/>
<path d="M360.494 90.1221H337.95V112.666H360.494V90.1221Z" fill="white"/>
<path d="M180.236 112.636H157.692V135.18H180.236V112.636Z" fill="white"/>
<path d="M202.781 112.636H180.236V135.18H202.781V112.636Z" fill="white"/>
<path d="M225.293 112.636H202.749V135.18H225.293V112.636Z" fill="white"/>
<path d="M270.381 112.636H247.837V135.18H270.381V112.636Z" fill="white"/>
<path d="M292.894 112.636H270.349V135.18H292.894V112.636Z" fill="white"/>
<path d="M315.438 112.636H292.894V135.18H315.438V112.636Z" fill="white"/>
<path d="M360.494 112.636H337.95V135.18H360.494V112.636Z" fill="white"/>
<path d="M67.5794 135.181H45.0352V157.725H67.5794V135.181Z" fill="white"/>
<path d="M90.1235 135.181H67.5793V157.725H90.1235V135.181Z" fill="white"/>
<path d="M180.236 135.181H157.692V157.725H180.236V135.181Z" fill="white"/>
<path d="M202.781 135.181H180.236V157.725H202.781V135.181Z" fill="white"/>
<path d="M225.293 135.181H202.749V157.725H225.293V135.181Z" fill="white"/>
<path d="M247.837 135.181H225.293V157.725H247.837V135.181Z" fill="white"/>
<path d="M337.95 135.181H315.406V157.725H337.95V135.181Z" fill="white"/>
<path d="M360.494 135.181H337.95V157.725H360.494V135.181Z" fill="white"/>
<path d="M112.668 157.692H90.1235V180.237H112.668V157.692Z" fill="white"/>
<path d="M202.781 157.692H180.236V180.237H202.781V157.692Z" fill="white"/>
<path d="M225.293 157.692H202.749V180.237H225.293V157.692Z" fill="white"/>
<path d="M112.668 180.236H90.1235V202.781H112.668V180.236Z" fill="white"/>
<path d="M157.724 180.236H135.18V202.781H157.724V180.236Z" fill="white"/>
<path d="M157.724 202.749H135.18V225.293H157.724V202.749Z" fill="white"/>
<path d="M202.781 202.749H180.236V225.293H202.781V202.749Z" fill="white"/>
<path d="M225.293 202.749H202.749V225.293H225.293V202.749Z" fill="white"/>
<path d="M247.837 202.749H225.293V225.293H247.837V202.749Z" fill="white"/>
<path d="M270.381 202.749H247.837V225.293H270.381V202.749Z" fill="white"/>
<path d="M292.894 202.749H270.349V225.293H292.894V202.749Z" fill="white"/>
<path d="M315.438 202.749H292.894V225.293H315.438V202.749Z" fill="white"/>
<path d="M135.18 225.292H112.636V247.836H135.18V225.292Z" fill="white"/>
<path d="M157.724 225.292H135.18V247.836H157.724V225.292Z" fill="white"/>
<path d="M180.236 225.292H157.692V247.836H180.236V225.292Z" fill="white"/>
<path d="M202.781 225.292H180.236V247.836H202.781V225.292Z" fill="white"/>
<path d="M225.293 225.292H202.749V247.836H225.293V225.292Z" fill="white"/>
<path d="M247.837 225.292H225.293V247.836H247.837V225.292Z" fill="white"/>
<path d="M270.381 225.292H247.837V247.836H270.381V225.292Z" fill="white"/>
<path d="M292.894 225.292H270.349V247.836H292.894V225.292Z" fill="white"/>
<path d="M315.438 225.292H292.894V247.836H315.438V225.292Z" fill="white"/>
<path d="M270.381 135.181H247.837V157.725H270.381V135.181Z" fill="white"/>
<path d="M292.894 135.181H270.349V157.725H292.894V135.181Z" fill="white"/>
<path d="M315.438 135.181H292.894V157.725H315.438V135.181Z" fill="white"/>
<path d="M247.837 157.692H225.293V180.237H247.837V157.692Z" fill="white"/>
<path d="M270.381 157.692H247.837V180.237H270.381V157.692Z" fill="white"/>
<path d="M292.894 157.692H270.349V180.237H292.894V157.692Z" fill="white"/>
<path d="M315.438 157.692H292.894V180.237H315.438V157.692Z" fill="white"/>
<path d="M337.95 157.692H315.406V180.237H337.95V157.692Z" fill="white"/>
<path d="M135.18 247.805H112.636V270.349H135.18V247.805Z" fill="white"/>
<path d="M180.236 247.805H157.692V270.349H180.236V247.805Z" fill="white"/>
<path d="M270.381 247.805H247.837V270.349H270.381V247.805Z" fill="white"/>
<path d="M315.438 247.805H292.894V270.349H315.438V247.805Z" fill="white"/>
<path d="M180.257 157.713H157.713V180.257H180.257V157.713Z" fill="black"/>
<path d="M202.77 180.227H180.226V202.771H202.77V180.227Z" fill="black"/>
<path d="M225.314 180.227H202.77V202.771H225.314V180.227Z" fill="black"/>
<path d="M247.826 180.227H225.282V202.771H247.826V180.227Z" fill="black"/>
<path d="M270.37 180.227H247.826V202.771H270.37V180.227Z" fill="black"/>
<path d="M292.915 180.227H270.371V202.771H292.915V180.227Z" fill="black"/>
<path d="M315.427 180.227H292.883V202.771H315.427V180.227Z" fill="black"/>
<path d="M180.257 0H157.713V22.5442H180.257V0Z" fill="black"/>
<path d="M202.77 0H180.226V22.5442H202.77V0Z" fill="black"/>
<path d="M337.971 0H315.427V22.5442H337.971V0Z" fill="black"/>
<path d="M360.483 0H337.939V22.5442H360.483V0Z" fill="black"/>
<path d="M180.257 22.5127H157.713V45.0569H180.257V22.5127Z" fill="black"/>
<path d="M225.314 22.5127H202.77V45.0569H225.314V22.5127Z" fill="black"/>
<path d="M315.427 22.5127H292.883V45.0569H315.427V22.5127Z" fill="black"/>
<path d="M360.483 22.5127H337.939V45.0569H360.483V22.5127Z" fill="black"/>
<path d="M180.257 45.0576H157.713V67.6018H180.257V45.0576Z" fill="black"/>
<path d="M247.826 45.0576H225.282V67.6018H247.826V45.0576Z" fill="black"/>
<path d="M270.37 45.0576H247.826V67.6018H270.37V45.0576Z" fill="black"/>
<path d="M292.915 45.0576H270.371V67.6018H292.915V45.0576Z" fill="black"/>
<path d="M360.483 45.0576H337.939V67.6018H360.483V45.0576Z" fill="black"/>
<path d="M67.6004 67.5684H45.0562V90.1126H67.6004V67.5684Z" fill="black"/>
<path d="M90.1126 67.5684H67.5684V90.1126H90.1126V67.5684Z" fill="black"/>
<path d="M157.713 67.5684H135.169V90.1126H157.713V67.5684Z" fill="black"/>
<path d="M383.028 67.5684H360.483V90.1126H383.028V67.5684Z" fill="black"/>
<path d="M45.056 90.1133H22.512V112.657H45.056V90.1133Z" fill="black"/>
<path d="M90.1126 90.1133H67.5684V112.657H90.1126V90.1133Z" fill="black"/>
<path d="M157.713 90.1133H135.169V112.657H157.713V90.1133Z" fill="black"/>
<path d="M383.028 90.1133H360.483V112.657H383.028V90.1133Z" fill="black"/>
<path d="M45.056 112.626H22.512V135.17H45.056V112.626Z" fill="black"/>
<path d="M90.1126 112.626H67.5684V135.17H90.1126V112.626Z" fill="black"/>
<path d="M157.713 112.626H135.169V135.17H157.713V112.626Z" fill="black"/>
<path d="M383.028 112.626H360.483V135.17H383.028V112.626Z" fill="black"/>
<path d="M45.056 135.17H22.512V157.714H45.056V135.17Z" fill="black"/>
<path d="M112.657 135.17H90.1125V157.714H112.657V135.17Z" fill="black"/>
<path d="M157.713 135.17H135.169V157.714H157.713V135.17Z" fill="black"/>
<path d="M383.028 135.17H360.483V157.714H383.028V135.17Z" fill="black"/>
<path d="M67.6004 157.713H45.0562V180.257H67.6004V157.713Z" fill="black"/>
<path d="M135.169 157.713H112.625V180.257H135.169V157.713Z" fill="black"/>
<path d="M157.713 157.713H135.169V180.257H157.713V157.713Z" fill="black"/>
<path d="M360.483 157.713H337.939V180.257H360.483V157.713Z" fill="black"/>
<path d="M90.1126 180.227H67.5684V202.771H90.1126V180.227Z" fill="black"/>
<path d="M337.971 180.227H315.427V202.771H337.971V180.227Z" fill="black"/>
<path d="M112.657 202.771H90.1125V225.316H112.657V202.771Z" fill="black"/>
<path d="M337.971 202.771H315.427V225.316H337.971V202.771Z" fill="black"/>
<path d="M112.657 225.283H90.1125V247.827H112.657V225.283Z" fill="black"/>
<path d="M337.971 225.283H315.427V247.827H337.971V225.283Z" fill="black"/>
<path d="M112.657 247.827H90.1125V270.371H112.657V247.827Z" fill="black"/>
<path d="M157.713 247.827H135.169V270.371H157.713V247.827Z" fill="black"/>
<path d="M202.77 247.827H180.226V270.371H202.77V247.827Z" fill="black"/>
<path d="M225.314 247.827H202.77V270.371H225.314V247.827Z" fill="black"/>
<path d="M247.826 247.827H225.282V270.371H247.826V247.827Z" fill="black"/>
<path d="M292.915 247.827H270.371V270.371H292.915V247.827Z" fill="black"/>
<path d="M337.971 247.827H315.427V270.371H337.971V247.827Z" fill="black"/>
<path d="M337.949 112.636H315.405V135.18H337.949V112.636Z" fill="#5B9BE9"/>
<path d="M247.837 112.636H225.292V135.18H247.837V112.636Z" fill="#F0C111"/>
</svg>
