<svg width="321" height="330" viewBox="0 0 321 330" fill="none" xmlns="http://www.w3.org/2000/svg">
<path d="M194.118 330H203.824V320.294H194.118V330Z" fill="#11100F"/>
<path d="M184.412 330H194.118V320.294H184.412V330Z" fill="#11100F"/>
<path d="M174.706 330H184.412V320.294H174.706V330Z" fill="#11100F"/>
<path d="M165 330H174.706V320.294H165V330Z" fill="#11100F"/>
<path d="M145.588 330H155.294V320.294H145.588V330Z" fill="#11100F"/>
<path d="M135.882 330H145.588V320.294H135.882V330Z" fill="#11100F"/>
<path d="M126.177 330H135.882V320.294H126.177V330Z" fill="#11100F"/>
<path d="M116.471 330H126.177V320.294H116.471V330Z" fill="#11100F"/>
<path d="M242.647 320.294H252.353V310.588H242.647V320.294Z" fill="#11100F"/>
<path d="M232.941 320.294H242.647V310.588H232.941V320.294Z" fill="#11100F"/>
<path d="M223.235 320.294H232.941V310.588H223.235V320.294Z" fill="#11100F"/>
<path d="M213.529 320.294H223.235V310.588H213.529V320.294Z" fill="#11100F"/>
<path d="M203.823 320.294H213.529V310.588H203.823V320.294Z" fill="#11100F"/>
<path d="M194.118 320.294H203.824V310.588H194.118V320.294Z" fill="#D1B2B9"/>
<path d="M184.412 320.294H194.118V310.588H184.412V320.294Z" fill="#D1B2B9"/>
<path d="M174.706 320.294H184.412V310.588H174.706V320.294Z" fill="#D1B2B9"/>
<path d="M165 320.294H174.706V310.588H165V320.294Z" fill="#D1B2B9"/>
<path d="M155.294 320.294H165V310.588H155.294V320.294Z" fill="#11100F"/>
<path d="M145.588 320.294H155.294V310.588H145.588V320.294Z" fill="#D1B2B9"/>
<path d="M135.882 320.294H145.588V310.588H135.882V320.294Z" fill="#D1B2B9"/>
<path d="M126.177 320.294H135.882V310.588H126.177V320.294Z" fill="#D1B2B9"/>
<path d="M116.471 320.294H126.177V310.588H116.471V320.294Z" fill="#D1B2B9"/>
<path d="M106.765 320.294H116.471V310.588H106.765V320.294Z" fill="#11100F"/>
<path d="M97.0588 320.294H106.765V310.588H97.0588V320.294Z" fill="#11100F"/>
<path d="M87.353 320.294H97.0589V310.588H87.353V320.294Z" fill="#11100F"/>
<path d="M77.647 320.294H87.3529V310.588H77.647V320.294Z" fill="#11100F"/>
<path d="M67.9412 320.294H77.647V310.588H67.9412V320.294Z" fill="#11100F"/>
<path d="M252.353 310.588H262.059V300.882H252.353V310.588Z" fill="#11100F"/>
<path d="M242.647 310.588H252.353V300.882H242.647V310.588Z" fill="#D1B2B9"/>
<path d="M232.941 310.588H242.647V300.882H232.941V310.588Z" fill="#D1B2B9"/>
<path d="M223.235 310.588H232.941V300.882H223.235V310.588Z" fill="#D1B2B9"/>
<path d="M213.529 310.588H223.235V300.882H213.529V310.588Z" fill="#D1B2B9"/>
<path d="M203.823 310.588H213.529V300.882H203.823V310.588Z" fill="#11100F"/>
<path d="M194.118 310.588H203.824V300.882H194.118V310.588Z" fill="#FEFDE4"/>
<path d="M184.412 310.588H194.118V300.882H184.412V310.588Z" fill="#FEFDE4"/>
<path d="M174.706 310.588H184.412V300.882H174.706V310.588Z" fill="#FEFDE4"/>
<path d="M165 310.588H174.706V300.882H165V310.588Z" fill="#D1B2B9"/>
<path d="M155.294 310.588H165V300.882H155.294V310.588Z" fill="#11100F"/>
<path d="M145.588 310.588H155.294V300.882H145.588V310.588Z" fill="#D1B2B9"/>
<path d="M135.882 310.588H145.588V300.882H135.882V310.588Z" fill="#FEFDE4"/>
<path d="M126.177 310.588H135.882V300.882H126.177V310.588Z" fill="#FEFDE4"/>
<path d="M116.471 310.588H126.177V300.882H116.471V310.588Z" fill="#FEFDE4"/>
<path d="M106.765 310.588H116.471V300.882H106.765V310.588Z" fill="#11100F"/>
<path d="M97.0588 310.588H106.765V300.882H97.0588V310.588Z" fill="#D1B2B9"/>
<path d="M87.353 310.588H97.0589V300.882H87.353V310.588Z" fill="#D1B2B9"/>
<path d="M77.647 310.588H87.3529V300.882H77.647V310.588Z" fill="#D1B2B9"/>
<path d="M67.9412 310.588H77.647V300.882H67.9412V310.588Z" fill="#D1B2B9"/>
<path d="M58.2354 310.588H67.9412V300.882H58.2354V310.588Z" fill="#11100F"/>
<path d="M262.059 300.882H271.765V291.176H262.059V300.882Z" fill="#11100F"/>
<path d="M252.353 300.882H262.059V291.176H252.353V300.882Z" fill="#11100F"/>
<path d="M242.647 300.882H252.353V291.176H242.647V300.882Z" fill="#FEFDE4"/>
<path d="M232.941 300.882H242.647V291.176H232.941V300.882Z" fill="#FEFDE4"/>
<path d="M223.235 300.882H232.941V291.176H223.235V300.882Z" fill="#D1B2B9"/>
<path d="M213.529 300.882H223.235V291.176H213.529V300.882Z" fill="#D1B2B9"/>
<path d="M203.823 300.882H213.529V291.176H203.823V300.882Z" fill="#11100F"/>
<path d="M194.118 300.882H203.824V291.176H194.118V300.882Z" fill="#FEFDE4"/>
<path d="M184.412 300.882H194.118V291.176H184.412V300.882Z" fill="#FEFDE4"/>
<path d="M174.706 300.882H184.412V291.176H174.706V300.882Z" fill="#FEFDE4"/>
<path d="M165 300.882H174.706V291.176H165V300.882Z" fill="#EBD0D4"/>
<path d="M155.294 300.882H165V291.176H155.294V300.882Z" fill="#11100F"/>
<path d="M145.588 300.882H155.294V291.176H145.588V300.882Z" fill="#EBD0D4"/>
<path d="M135.882 300.882H145.588V291.176H135.882V300.882Z" fill="#FEFDE4"/>
<path d="M126.177 300.882H135.882V291.176H126.177V300.882Z" fill="#FEFDE4"/>
<path d="M116.471 300.882H126.177V291.176H116.471V300.882Z" fill="#FEFDE4"/>
<path d="M106.765 300.882H116.471V291.176H106.765V300.882Z" fill="#11100F"/>
<path d="M97.0588 300.882H106.765V291.176H97.0588V300.882Z" fill="#D1B2B9"/>
<path d="M87.353 300.882H97.0589V291.176H87.353V300.882Z" fill="#D1B2B9"/>
<path d="M77.647 300.882H87.3529V291.176H77.647V300.882Z" fill="#FEFDE4"/>
<path d="M67.9412 300.882H77.647V291.176H67.9412V300.882Z" fill="#FEFDE4"/>
<path d="M58.2354 300.882H67.9412V291.176H58.2354V300.882Z" fill="#11100F"/>
<path d="M281.471 291.176H291.177V281.47H281.471V291.176Z" fill="#11100F"/>
<path d="M271.765 291.176H281.471V281.47H271.765V291.176Z" fill="#11100F"/>
<path d="M262.059 291.176H271.765V281.47H262.059V291.176Z" fill="#CF7F4B"/>
<path d="M252.353 291.176H262.059V281.47H252.353V291.176Z" fill="#11100F"/>
<path d="M242.647 291.176H252.353V281.47H242.647V291.176Z" fill="#FEFDE4"/>
<path d="M232.941 291.176H242.647V281.47H232.941V291.176Z" fill="#FEFDE4"/>
<path d="M223.235 291.176H232.941V281.47H223.235V291.176Z" fill="#FEFDE4"/>
<path d="M213.529 291.176H223.235V281.47H213.529V291.176Z" fill="#D1B2B9"/>
<path d="M203.823 291.176H213.529V281.47H203.823V291.176Z" fill="#11100F"/>
<path d="M194.118 291.176H203.824V281.47H194.118V291.176Z" fill="#FEFDE4"/>
<path d="M184.412 291.176H194.118V281.47H184.412V291.176Z" fill="#FEFDE4"/>
<path d="M174.706 291.176H184.412V281.47H174.706V291.176Z" fill="#FEFDE4"/>
<path d="M165 291.176H174.706V281.47H165V291.176Z" fill="#EBD0D4"/>
<path d="M155.294 291.176H165V281.47H155.294V291.176Z" fill="#11100F"/>
<path d="M145.588 291.176H155.294V281.47H145.588V291.176Z" fill="#EBD0D4"/>
<path d="M135.882 291.176H145.588V281.47H135.882V291.176Z" fill="#FEFDE4"/>
<path d="M126.177 291.176H135.882V281.47H126.177V291.176Z" fill="#FEFDE4"/>
<path d="M116.471 291.176H126.177V281.47H116.471V291.176Z" fill="#FEFDE4"/>
<path d="M106.765 291.176H116.471V281.47H106.765V291.176Z" fill="#11100F"/>
<path d="M97.0588 291.176H106.765V281.47H97.0588V291.176Z" fill="#D1B2B9"/>
<path d="M87.353 291.176H97.0589V281.47H87.353V291.176Z" fill="#FEFDE4"/>
<path d="M77.647 291.176H87.3529V281.47H77.647V291.176Z" fill="#FEFDE4"/>
<path d="M67.9412 291.176H77.647V281.47H67.9412V291.176Z" fill="#FEFDE4"/>
<path d="M58.2354 291.176H67.9412V281.47H58.2354V291.176Z" fill="#11100F"/>
<path d="M291.177 281.471H300.882V271.765H291.177V281.471Z" fill="#11100F"/>
<path d="M281.471 281.471H291.177V271.765H281.471V281.471Z" fill="#CF7F4B"/>
<path d="M271.765 281.471H281.471V271.765H271.765V281.471Z" fill="#CF7F4B"/>
<path d="M262.059 281.471H271.765V271.765H262.059V281.471Z" fill="#11100F"/>
<path d="M252.353 281.471H262.059V271.765H252.353V281.471Z" fill="#CF7F4B"/>
<path d="M242.647 281.471H252.353V271.765H242.647V281.471Z" fill="#11100F"/>
<path d="M232.941 281.471H242.647V271.765H232.941V281.471Z" fill="#FEFDE4"/>
<path d="M223.235 281.471H232.941V271.765H223.235V281.471Z" fill="#FEFDE4"/>
<path d="M213.529 281.471H223.235V271.765H213.529V281.471Z" fill="#1B1B21"/>
<path d="M203.823 281.471H213.529V271.765H203.823V281.471Z" fill="#CF7F4B"/>
<path d="M194.118 281.471H203.824V271.765H194.118V281.471Z" fill="#E4B960"/>
<path d="M184.412 281.471H194.118V271.765H184.412V281.471Z" fill="#E4B960"/>
<path d="M174.706 281.471H184.412V271.765H174.706V281.471Z" fill="#E4B960"/>
<path d="M165 281.471H174.706V271.765H165V281.471Z" fill="#EBD0D4"/>
<path d="M155.294 281.471H165V271.765H155.294V281.471Z" fill="#11100F"/>
<path d="M145.588 281.471H155.294V271.765H145.588V281.471Z" fill="#EBD0D4"/>
<path d="M135.882 281.471H145.588V271.765H135.882V281.471Z" fill="#E4B960"/>
<path d="M126.177 281.471H135.882V271.765H126.177V281.471Z" fill="#E4B960"/>
<path d="M116.471 281.471H126.177V271.765H116.471V281.471Z" fill="#E4B960"/>
<path d="M106.765 281.471H116.471V271.765H106.765V281.471Z" fill="#CF7F4B"/>
<path d="M97.0588 281.471H106.765V271.765H97.0588V281.471Z" fill="#11100F"/>
<path d="M87.353 281.471H97.0589V271.765H87.353V281.471Z" fill="#FEFDE4"/>
<path d="M77.647 281.471H87.3529V271.765H77.647V281.471Z" fill="#FEFDE4"/>
<path d="M67.9412 281.471H77.647V271.765H67.9412V281.471Z" fill="#11100F"/>
<path d="M58.2354 281.471H67.9412V271.765H58.2354V281.471Z" fill="#CF7F4B"/>
<path d="M48.5293 281.471H58.2352V271.765H48.5293V281.471Z" fill="#11100F"/>
<path d="M291.177 271.765H300.882V262.059H291.177V271.765Z" fill="#11100F"/>
<path d="M281.471 271.765H291.177V262.059H281.471V271.765Z" fill="#CF7F4B"/>
<path d="M271.765 271.765H281.471V262.059H271.765V271.765Z" fill="#CF7F4B"/>
<path d="M262.059 271.765H271.765V262.059H262.059V271.765Z" fill="#11100F"/>
<path d="M252.353 271.765H262.059V262.059H252.353V271.765Z" fill="#CF7F4B"/>
<path d="M242.647 271.765H252.353V262.059H242.647V271.765Z" fill="#11100F"/>
<path d="M232.941 271.765H242.647V262.059H232.941V271.765Z" fill="#FEFDE4"/>
<path d="M223.235 271.765H232.941V262.059H223.235V271.765Z" fill="#FEFDE4"/>
<path d="M213.529 271.765H223.235V262.059H213.529V271.765Z" fill="#11100F"/>
<path d="M203.823 271.765H213.529V262.059H203.823V271.765Z" fill="#CF7F4B"/>
<path d="M194.118 271.765H203.824V262.059H194.118V271.765Z" fill="#E4B960"/>
<path d="M184.412 271.765H194.118V262.059H184.412V271.765Z" fill="#E4B960"/>
<path d="M174.706 271.765H184.412V262.059H174.706V271.765Z" fill="#E4B960"/>
<path d="M165 271.765H174.706V262.059H165V271.765Z" fill="#EBD0D4"/>
<path d="M155.294 271.765H165V262.059H155.294V271.765Z" fill="#11100F"/>
<path d="M145.588 271.765H155.294V262.059H145.588V271.765Z" fill="#EBD0D4"/>
<path d="M135.882 271.765H145.588V262.059H135.882V271.765Z" fill="#E4B960"/>
<path d="M126.177 271.765H135.882V262.059H126.177V271.765Z" fill="#E4B960"/>
<path d="M116.471 271.765H126.177V262.059H116.471V271.765Z" fill="#E4B960"/>
<path d="M106.765 271.765H116.471V262.059H106.765V271.765Z" fill="#CF7F4B"/>
<path d="M97.0588 271.765H106.765V262.059H97.0588V271.765Z" fill="#11100F"/>
<path d="M87.353 271.765H97.0589V262.059H87.353V271.765Z" fill="#FEFDE4"/>
<path d="M77.647 271.765H87.3529V262.059H77.647V271.765Z" fill="#FEFDE4"/>
<path d="M67.9412 271.765H77.647V262.059H67.9412V271.765Z" fill="#11100F"/>
<path d="M58.2354 271.765H67.9412V262.059H58.2354V271.765Z" fill="#CF7F4B"/>
<path d="M48.5293 271.765H58.2352V262.059H48.5293V271.765Z" fill="#11100F"/>
<path d="M291.177 262.059H300.882V252.353H291.177V262.059Z" fill="#11100F"/>
<path d="M281.471 262.059H291.177V252.353H281.471V262.059Z" fill="#CF7F4B"/>
<path d="M271.765 262.059H281.471V252.353H271.765V262.059Z" fill="#E4B960"/>
<path d="M262.059 262.059H271.765V252.353H262.059V262.059Z" fill="#11100F"/>
<path d="M252.353 262.059H262.059V252.353H252.353V262.059Z" fill="#CF7F4B"/>
<path d="M242.647 262.059H252.353V252.353H242.647V262.059Z" fill="#CF7F4B"/>
<path d="M232.941 262.059H242.647V252.353H232.941V262.059Z" fill="#CF7F4B"/>
<path d="M223.235 262.059H232.941V252.353H223.235V262.059Z" fill="#CF7F4B"/>
<path d="M213.529 262.059H223.235V252.353H213.529V262.059Z" fill="#11100F"/>
<path d="M203.823 262.059H213.529V252.353H203.823V262.059Z" fill="#CF7F4B"/>
<path d="M194.118 262.059H203.824V252.353H194.118V262.059Z" fill="#E4B960"/>
<path d="M184.412 262.059H194.118V252.353H184.412V262.059Z" fill="#EBD0D4"/>
<path d="M174.706 262.059H184.412V252.353H174.706V262.059Z" fill="#EBD0D4"/>
<path d="M165 262.059H174.706V252.353H165V262.059Z" fill="#EBD0D4"/>
<path d="M155.294 262.059H165V252.353H155.294V262.059Z" fill="#D1B2B9"/>
<path d="M145.588 262.059H155.294V252.353H145.588V262.059Z" fill="#EBD0D4"/>
<path d="M135.882 262.059H145.588V252.353H135.882V262.059Z" fill="#EBD0D4"/>
<path d="M126.177 262.059H135.882V252.353H126.177V262.059Z" fill="#EBD0D4"/>
<path d="M116.471 262.059H126.177V252.353H116.471V262.059Z" fill="#E4B960"/>
<path d="M106.765 262.059H116.471V252.353H106.765V262.059Z" fill="#CF7F4B"/>
<path d="M97.0588 262.059H106.765V252.353H97.0588V262.059Z" fill="#11100F"/>
<path d="M87.353 262.059H97.0589V252.353H87.353V262.059Z" fill="#CF7F4B"/>
<path d="M77.647 262.059H87.3529V252.353H77.647V262.059Z" fill="#CF7F4B"/>
<path d="M67.9412 262.059H77.647V252.353H67.9412V262.059Z" fill="#CF7F4B"/>
<path d="M58.2354 262.059H67.9412V252.353H58.2354V262.059Z" fill="#CF7F4B"/>
<path d="M48.5293 262.059H58.2352V252.353H48.5293V262.059Z" fill="#11100F"/>
<path d="M281.471 252.353H291.177V242.647H281.471V252.353Z" fill="#CF7F4B"/>
<path d="M271.765 252.353H281.471V242.647H271.765V252.353Z" fill="#E4B960"/>
<path d="M262.059 252.353H271.765V242.647H262.059V252.353Z" fill="#11100F"/>
<path d="M252.353 252.353H262.059V242.647H252.353V252.353Z" fill="#CF7F4B"/>
<path d="M242.647 252.353H252.353V242.647H242.647V252.353Z" fill="#CF7F4B"/>
<path d="M232.941 252.353H242.647V242.647H232.941V252.353Z" fill="#11100F"/>
<path d="M223.235 252.353H232.941V242.647H223.235V252.353Z" fill="#11100F"/>
<path d="M213.529 252.353H223.235V242.647H213.529V252.353Z" fill="#CF7F4B"/>
<path d="M203.823 252.353H213.529V242.647H203.823V252.353Z" fill="#CF7F4B"/>
<path d="M194.118 252.353H203.824V242.647H194.118V252.353Z" fill="#EBD0D4"/>
<path d="M184.412 252.353H194.118V242.647H184.412V252.353Z" fill="#EBD0D4"/>
<path d="M174.706 252.353H184.412V242.647H174.706V252.353Z" fill="#EBD0D4"/>
<path d="M165 252.353H174.706V242.647H165V252.353Z" fill="#EBD0D4"/>
<path d="M155.294 252.353H165V242.647H155.294V252.353Z" fill="#D1B2B9"/>
<path d="M145.588 252.353H155.294V242.647H145.588V252.353Z" fill="#EBD0D4"/>
<path d="M135.882 252.353H145.588V242.647H135.882V252.353Z" fill="#EBD0D4"/>
<path d="M126.177 252.353H135.882V242.647H126.177V252.353Z" fill="#EBD0D4"/>
<path d="M116.471 252.353H126.177V242.647H116.471V252.353Z" fill="#EBD0D4"/>
<path d="M106.765 252.353H116.471V242.647H106.765V252.353Z" fill="#CF7F4B"/>
<path d="M97.0588 252.353H106.765V242.647H97.0588V252.353Z" fill="#CF7F4B"/>
<path d="M87.353 252.353H97.0589V242.647H87.353V252.353Z" fill="#11100F"/>
<path d="M77.647 252.353H87.3529V242.647H77.647V252.353Z" fill="#CF7F4B"/>
<path d="M67.9412 252.353H77.647V242.647H67.9412V252.353Z" fill="#CF7F4B"/>
<path d="M58.2354 252.353H67.9412V242.647H58.2354V252.353Z" fill="#CF7F4B"/>
<path d="M48.5293 252.353H58.2352V242.647H48.5293V252.353Z" fill="#11100F"/>
<path d="M281.471 242.647H291.177V232.941H281.471V242.647Z" fill="#11100F"/>
<path d="M271.765 242.647H281.471V232.941H271.765V242.647Z" fill="#E4B960"/>
<path d="M262.059 242.647H271.765V232.941H262.059V242.647Z" fill="#E4B960"/>
<path d="M252.353 242.647H262.059V232.941H252.353V242.647Z" fill="#11100F"/>
<path d="M242.647 242.647H252.353V232.941H242.647V242.647Z" fill="#11100F"/>
<path d="M232.941 242.647H242.647V232.941H232.941V242.647Z" fill="#11100F"/>
<path d="M223.235 242.647H232.941V232.941H223.235V242.647Z" fill="#CF7F4B"/>
<path d="M213.529 242.647H223.235V232.941H213.529V242.647Z" fill="#CF7F4B"/>
<path d="M203.823 242.647H213.529V232.941H203.823V242.647Z" fill="#EBD0D4"/>
<path d="M194.118 242.647H203.824V232.941H194.118V242.647Z" fill="#EBD0D4"/>
<path d="M184.412 242.647H194.118V232.941H184.412V242.647Z" fill="#EBD0D4"/>
<path d="M174.706 242.647H184.412V232.941H174.706V242.647Z" fill="#FEFDE4"/>
<path d="M165 242.647H174.706V232.941H165V242.647Z" fill="#FEFDE4"/>
<path d="M155.294 242.647H165V232.941H155.294V242.647Z" fill="#FEFDE4"/>
<path d="M145.588 242.647H155.294V232.941H145.588V242.647Z" fill="#FEFDE4"/>
<path d="M135.882 242.647H145.588V232.941H135.882V242.647Z" fill="#FEFDE4"/>
<path d="M126.177 242.647H135.882V232.941H126.177V242.647Z" fill="#FEFDE4"/>
<path d="M116.471 242.647H126.177V232.941H116.471V242.647Z" fill="#EBD0D4"/>
<path d="M106.765 242.647H116.471V232.941H106.765V242.647Z" fill="#EBD0D4"/>
<path d="M97.0588 242.647H106.765V232.941H97.0588V242.647Z" fill="#CF7F4B"/>
<path d="M87.353 242.647H97.0589V232.941H87.353V242.647Z" fill="#CF7F4B"/>
<path d="M77.647 242.647H87.3529V232.941H77.647V242.647Z" fill="#11100F"/>
<path d="M67.9412 242.647H77.647V232.941H67.9412V242.647Z" fill="#11100F"/>
<path d="M58.2354 242.647H67.9412V232.941H58.2354V242.647Z" fill="#11100F"/>
<path d="M271.765 232.941H281.471V223.236H271.765V232.941Z" fill="#11100F"/>
<path d="M262.059 232.941H271.765V223.236H262.059V232.941Z" fill="#E4B960"/>
<path d="M252.353 232.941H262.059V223.236H252.353V232.941Z" fill="#11100F"/>
<path d="M242.647 232.941H252.353V223.236H242.647V232.941Z" fill="#CF7F4B"/>
<path d="M232.941 232.941H242.647V223.236H232.941V232.941Z" fill="#CF7F4B"/>
<path d="M223.235 232.941H232.941V223.236H223.235V232.941Z" fill="#CF7F4B"/>
<path d="M213.529 232.941H223.235V223.236H213.529V232.941Z" fill="#EBD0D4"/>
<path d="M203.823 232.941H213.529V223.236H203.823V232.941Z" fill="#EBD0D4"/>
<path d="M194.118 232.941H203.824V223.236H194.118V232.941Z" fill="#FEFDE4"/>
<path d="M184.412 232.941H194.118V223.236H184.412V232.941Z" fill="#FEFDE4"/>
<path d="M174.706 232.941H184.412V223.236H174.706V232.941Z" fill="#FEFDE4"/>
<path d="M165 232.941H174.706V223.236H165V232.941Z" fill="#FEFDE4"/>
<path d="M155.294 232.941H165V223.236H155.294V232.941Z" fill="#FEFDE4"/>
<path d="M145.588 232.941H155.294V223.236H145.588V232.941Z" fill="#FEFDE4"/>
<path d="M135.882 232.941H145.588V223.236H135.882V232.941Z" fill="#FEFDE4"/>
<path d="M126.177 232.941H135.882V223.236H126.177V232.941Z" fill="#FEFDE4"/>
<path d="M116.471 232.941H126.177V223.236H116.471V232.941Z" fill="#FEFDE4"/>
<path d="M106.765 232.941H116.471V223.236H106.765V232.941Z" fill="#EBD0D4"/>
<path d="M97.0588 232.941H106.765V223.236H97.0588V232.941Z" fill="#EBD0D4"/>
<path d="M87.353 232.941H97.0589V223.236H87.353V232.941Z" fill="#CF7F4B"/>
<path d="M77.647 232.941H87.3529V223.236H77.647V232.941Z" fill="#CF7F4B"/>
<path d="M67.9412 232.941H77.647V223.236H67.9412V232.941Z" fill="#CF7F4B"/>
<path d="M58.2354 232.941H67.9412V223.236H58.2354V232.941Z" fill="#11100F"/>
<path d="M262.059 223.235H271.765V213.529H262.059V223.235Z" fill="#11100F"/>
<path d="M252.353 223.235H262.059V213.529H252.353V223.235Z" fill="#11100F"/>
<path d="M242.647 223.235H252.353V213.529H242.647V223.235Z" fill="#CF7F4B"/>
<path d="M232.941 223.235H242.647V213.529H232.941V223.235Z" fill="#CF7F4B"/>
<path d="M223.235 223.235H232.941V213.529H223.235V223.235Z" fill="#EBD0D4"/>
<path d="M213.529 223.235H223.235V213.529H213.529V223.235Z" fill="#EBD0D4"/>
<path d="M203.823 223.235H213.529V213.529H203.823V223.235Z" fill="#FEFDE4"/>
<path d="M194.118 223.235H203.824V213.529H194.118V223.235Z" fill="#FEFDE4"/>
<path d="M184.412 223.235H194.118V213.529H184.412V223.235Z" fill="#FEFDE4"/>
<path d="M174.706 223.235H184.412V213.529H174.706V223.235Z" fill="#FEFDE4"/>
<path d="M165 223.235H174.706V213.529H165V223.235Z" fill="#FEFDE4"/>
<path d="M155.294 223.235H165V213.529H155.294V223.235Z" fill="#FEFDE4"/>
<path d="M145.588 223.235H155.294V213.529H145.588V223.235Z" fill="#FEFDE4"/>
<path d="M135.882 223.235H145.588V213.529H135.882V223.235Z" fill="#FEFDE4"/>
<path d="M126.177 223.235H135.882V213.529H126.177V223.235Z" fill="#FEFDE4"/>
<path d="M116.471 223.235H126.177V213.529H116.471V223.235Z" fill="#FEFDE4"/>
<path d="M106.765 223.235H116.471V213.529H106.765V223.235Z" fill="#FEFDE4"/>
<path d="M97.0588 223.235H106.765V213.529H97.0588V223.235Z" fill="#EBD0D4"/>
<path d="M87.353 223.235H97.0589V213.529H87.353V223.235Z" fill="#EBD0D4"/>
<path d="M77.647 223.235H87.3529V213.529H77.647V223.235Z" fill="#CF7F4B"/>
<path d="M67.9412 223.235H77.647V213.529H67.9412V223.235Z" fill="#CF7F4B"/>
<path d="M58.2354 223.235H67.9412V213.529H58.2354V223.235Z" fill="#11100F"/>
<path d="M252.353 213.529H262.059V203.823H252.353V213.529Z" fill="#11100F"/>
<path d="M242.647 213.529H252.353V203.823H242.647V213.529Z" fill="#E4B960"/>
<path d="M232.941 213.529H242.647V203.823H232.941V213.529Z" fill="#E4B960"/>
<path d="M223.235 213.529H232.941V203.823H223.235V213.529Z" fill="#E4B960"/>
<path d="M213.529 213.529H223.235V203.823H213.529V213.529Z" fill="#FEFDE4"/>
<path d="M203.823 213.529H213.529V203.823H203.823V213.529Z" fill="#FEFDE4"/>
<path d="M194.118 213.529H203.824V203.823H194.118V213.529Z" fill="#FEFDE4"/>
<path d="M184.412 213.529H194.118V203.823H184.412V213.529Z" fill="#FEFDE4"/>
<path d="M174.706 213.529H184.412V203.823H174.706V213.529Z" fill="#FEFDE4"/>
<path d="M165 213.529H174.706V203.823H165V213.529Z" fill="#FEFDE4"/>
<path d="M155.294 213.529H165V203.823H155.294V213.529Z" fill="#FEFDE4"/>
<path d="M145.588 213.529H155.294V203.823H145.588V213.529Z" fill="#FEFDE4"/>
<path d="M135.882 213.529H145.588V203.823H135.882V213.529Z" fill="#FEFDE4"/>
<path d="M126.177 213.529H135.882V203.823H126.177V213.529Z" fill="#FEFDE4"/>
<path d="M116.471 213.529H126.177V203.823H116.471V213.529Z" fill="#FEFDE4"/>
<path d="M106.765 213.529H116.471V203.823H106.765V213.529Z" fill="#FEFDE4"/>
<path d="M97.0588 213.529H106.765V203.823H97.0588V213.529Z" fill="#FEFDE4"/>
<path d="M87.353 213.529H97.0589V203.823H87.353V213.529Z" fill="#E4B960"/>
<path d="M77.647 213.529H87.3529V203.823H77.647V213.529Z" fill="#E4B960"/>
<path d="M67.9412 213.529H77.647V203.823H67.9412V213.529Z" fill="#E4B960"/>
<path d="M58.2354 213.529H67.9412V203.823H58.2354V213.529Z" fill="#11100F"/>
<path d="M252.353 203.824H262.059V194.118H252.353V203.824Z" fill="#11100F"/>
<path d="M242.647 203.824H252.353V194.118H242.647V203.824Z" fill="#E4B960"/>
<path d="M232.941 203.824H242.647V194.118H232.941V203.824Z" fill="#E4B960"/>
<path d="M223.235 203.824H232.941V194.118H223.235V203.824Z" fill="#FEFDE4"/>
<path d="M213.529 203.824H223.235V194.118H213.529V203.824Z" fill="#FEFDE4"/>
<path d="M203.823 203.824H213.529V194.118H203.823V203.824Z" fill="#FEFDE4"/>
<path d="M194.118 203.824H203.824V194.118H194.118V203.824Z" fill="#FEFDE4"/>
<path d="M184.412 203.824H194.118V194.118H184.412V203.824Z" fill="#FEFDE4"/>
<path d="M174.706 203.824H184.412V194.118H174.706V203.824Z" fill="#FEFDE4"/>
<path d="M165 203.824H174.706V194.118H165V203.824Z" fill="#EBD0D4"/>
<path d="M155.294 203.824H165V194.118H155.294V203.824Z" fill="#EBD0D4"/>
<path d="M145.588 203.824H155.294V194.118H145.588V203.824Z" fill="#EBD0D4"/>
<path d="M135.882 203.824H145.588V194.118H135.882V203.824Z" fill="#FEFDE4"/>
<path d="M126.177 203.824H135.882V194.118H126.177V203.824Z" fill="#FEFDE4"/>
<path d="M116.471 203.824H126.177V194.118H116.471V203.824Z" fill="#FEFDE4"/>
<path d="M106.765 203.824H116.471V194.118H106.765V203.824Z" fill="#FEFDE4"/>
<path d="M97.0588 203.824H106.765V194.118H97.0588V203.824Z" fill="#FEFDE4"/>
<path d="M87.353 203.824H97.0589V194.118H87.353V203.824Z" fill="#FEFDE4"/>
<path d="M77.647 203.824H87.3529V194.118H77.647V203.824Z" fill="#E4B960"/>
<path d="M67.9412 203.824H77.647V194.118H67.9412V203.824Z" fill="#E4B960"/>
<path d="M58.2354 203.824H67.9412V194.118H58.2354V203.824Z" fill="#11100F"/>
<path d="M252.353 194.118H262.059V184.412H252.353V194.118Z" fill="#11100F"/>
<path d="M242.647 194.118H252.353V184.412H242.647V194.118Z" fill="#E4B960"/>
<path d="M232.941 194.118H242.647V184.412H232.941V194.118Z" fill="#E4B960"/>
<path d="M223.235 194.118H232.941V184.412H223.235V194.118Z" fill="#FEFDE4"/>
<path d="M213.529 194.118H223.235V184.412H213.529V194.118Z" fill="#FEFDE4"/>
<path d="M203.823 194.118H213.529V184.412H203.823V194.118Z" fill="#FEFDE4"/>
<path d="M194.118 194.118H203.824V184.412H194.118V194.118Z" fill="#EBD0D4"/>
<path d="M184.412 194.118H194.118V184.412H184.412V194.118Z" fill="#EBD0D4"/>
<path d="M174.706 194.118H184.412V184.412H174.706V194.118Z" fill="#EBD0D4"/>
<path d="M165 194.118H174.706V184.412H165V194.118Z" fill="#EBD0D4"/>
<path d="M155.294 194.118H165V184.412H155.294V194.118Z" fill="#EBD0D4"/>
<path d="M145.588 194.118H155.294V184.412H145.588V194.118Z" fill="#EBD0D4"/>
<path d="M135.882 194.118H145.588V184.412H135.882V194.118Z" fill="#EBD0D4"/>
<path d="M126.177 194.118H135.882V184.412H126.177V194.118Z" fill="#EBD0D4"/>
<path d="M116.471 194.118H126.177V184.412H116.471V194.118Z" fill="#EBD0D4"/>
<path d="M106.765 194.118H116.471V184.412H106.765V194.118Z" fill="#FEFDE4"/>
<path d="M97.0588 194.118H106.765V184.412H97.0588V194.118Z" fill="#FEFDE4"/>
<path d="M87.353 194.118H97.0589V184.412H87.353V194.118Z" fill="#FEFDE4"/>
<path d="M77.647 194.118H87.3529V184.412H77.647V194.118Z" fill="#E4B960"/>
<path d="M67.9412 194.118H77.647V184.412H67.9412V194.118Z" fill="#E4B960"/>
<path d="M58.2354 194.118H67.9412V184.412H58.2354V194.118Z" fill="#11100F"/>
<path d="M242.647 184.412H252.353V174.706H242.647V184.412Z" fill="#11100F"/>
<path d="M232.941 184.412H242.647V174.706H232.941V184.412Z" fill="#E4B960"/>
<path d="M223.235 184.412H232.941V174.706H223.235V184.412Z" fill="#E4B960"/>
<path d="M213.529 184.412H223.235V174.706H213.529V184.412Z" fill="#EBD0D4"/>
<path d="M203.823 184.412H213.529V174.706H203.823V184.412Z" fill="#EBD0D4"/>
<path d="M194.118 184.412H203.824V174.706H194.118V184.412Z" fill="#D1B2B9"/>
<path d="M184.412 184.412H194.118V174.706H184.412V184.412Z" fill="#D1B2B9"/>
<path d="M174.706 184.412H184.412V174.706H174.706V184.412Z" fill="#D1B2B9"/>
<path d="M165 184.412H174.706V174.706H165V184.412Z" fill="#D1B2B9"/>
<path d="M155.294 184.412H165V174.706H155.294V184.412Z" fill="#D1B2B9"/>
<path d="M145.588 184.412H155.294V174.706H145.588V184.412Z" fill="#D2B3BA"/>
<path d="M135.882 184.412H145.588V174.706H135.882V184.412Z" fill="#D2B3BA"/>
<path d="M126.177 184.412H135.882V174.706H126.177V184.412Z" fill="#D2B3BA"/>
<path d="M116.471 184.412H126.177V174.706H116.471V184.412Z" fill="#D2B3BA"/>
<path d="M106.765 184.412H116.471V174.706H106.765V184.412Z" fill="#EBD0D4"/>
<path d="M97.0588 184.412H106.765V174.706H97.0588V184.412Z" fill="#EBD0D4"/>
<path d="M87.353 184.412H97.0589V174.706H87.353V184.412Z" fill="#E4B960"/>
<path d="M77.647 184.412H87.3529V174.706H77.647V184.412Z" fill="#E4B960"/>
<path d="M67.9412 184.412H77.647V174.706H67.9412V184.412Z" fill="#11100F"/>
<path d="M232.941 174.706H242.647V165H232.941V174.706Z" fill="#11100F"/>
<path d="M223.235 174.706H232.941V165H223.235V174.706Z" fill="#11100F"/>
<path d="M213.529 174.706H223.235V165H213.529V174.706Z" fill="#D2B3BA"/>
<path d="M203.823 174.706H213.529V165H203.823V174.706Z" fill="#D2B3BA"/>
<path d="M194.118 174.706H203.824V165H194.118V174.706Z" fill="#D2B3BA"/>
<path d="M184.412 174.706H194.118V165H184.412V174.706Z" fill="#D1B2B9"/>
<path d="M174.706 174.706H184.412V165H174.706V174.706Z" fill="#D2B3BA"/>
<path d="M165 174.706H174.706V165H165V174.706Z" fill="#D2B3BA"/>
<path d="M155.294 174.706H165V165H155.294V174.706Z" fill="#D2B3BA"/>
<path d="M145.588 174.706H155.294V165H145.588V174.706Z" fill="#D2B3BA"/>
<path d="M135.882 174.706H145.588V165H135.882V174.706Z" fill="#D2B3BA"/>
<path d="M126.177 174.706H135.882V165H126.177V174.706Z" fill="#D2B3BA"/>
<path d="M116.471 174.706H126.177V165H116.471V174.706Z" fill="#D2B3BA"/>
<path d="M106.765 174.706H116.471V165H106.765V174.706Z" fill="#D2B3BA"/>
<path d="M97.0588 174.706H106.765V165H97.0588V174.706Z" fill="#D2B3BA"/>
<path d="M87.353 174.706H97.0589V165H87.353V174.706Z" fill="#11100F"/>
<path d="M77.647 174.706H87.3529V165H77.647V174.706Z" fill="#11100F"/>
<path d="M242.647 165H252.353V155.294H242.647V165Z" fill="#11100F"/>
<path d="M232.941 165H242.647V155.294H232.941V165Z" fill="#D2B3BA"/>
<path d="M223.235 165H232.941V155.294H223.235V165Z" fill="#D2B3BA"/>
<path d="M213.529 165H223.235V155.294H213.529V165Z" fill="#EBD0D4"/>
<path d="M203.823 165H213.529V155.294H203.823V165Z" fill="#EBD0D4"/>
<path d="M194.118 165H203.824V155.294H194.118V165Z" fill="#EBD0D4"/>
<path d="M184.412 165H194.118V155.294H184.412V165Z" fill="#EBD0D4"/>
<path d="M174.706 165H184.412V155.294H174.706V165Z" fill="#EBD0D4"/>
<path d="M165 165H174.706V155.294H165V165Z" fill="#EBD0D4"/>
<path d="M155.294 165H165V155.294H155.294V165Z" fill="#EBD0D4"/>
<path d="M145.588 165H155.294V155.294H145.588V165Z" fill="#EBD0D4"/>
<path d="M135.882 165H145.588V155.294H135.882V165Z" fill="#EBD0D4"/>
<path d="M126.177 165H135.882V155.294H126.177V165Z" fill="#EBD0D4"/>
<path d="M116.471 165H126.177V155.294H116.471V165Z" fill="#EBD0D4"/>
<path d="M106.765 165H116.471V155.294H106.765V165Z" fill="#EBD0D4"/>
<path d="M97.0588 165H106.765V155.294H97.0588V165Z" fill="#EBD0D4"/>
<path d="M87.353 165H97.0589V155.294H87.353V165Z" fill="#D2B3BA"/>
<path d="M77.647 165H87.3529V155.294H77.647V165Z" fill="#D2B3BA"/>
<path d="M67.9412 165H77.647V155.294H67.9412V165Z" fill="#11100F"/>
<path d="M291.177 155.294H300.882V145.588H291.177V155.294Z" fill="#11100F"/>
<path d="M281.471 155.294H291.177V145.588H281.471V155.294Z" fill="#11100F"/>
<path d="M271.765 155.294H281.471V145.588H271.765V155.294Z" fill="#11100F"/>
<path d="M262.059 155.294H271.765V145.588H262.059V155.294Z" fill="#11100F"/>
<path d="M252.353 155.294H262.059V145.588H252.353V155.294Z" fill="#11100F"/>
<path d="M242.647 155.294H252.353V145.588H242.647V155.294Z" fill="#D2B3BA"/>
<path d="M232.941 155.294H242.647V145.588H232.941V155.294Z" fill="#EBD0D4"/>
<path d="M223.235 155.294H232.941V145.588H223.235V155.294Z" fill="#EBD0D4"/>
<path d="M213.529 155.294H223.235V145.588H213.529V155.294Z" fill="#EBD0D4"/>
<path d="M203.823 155.294H213.529V145.588H203.823V155.294Z" fill="#EBD0D4"/>
<path d="M194.118 155.294H203.824V145.588H194.118V155.294Z" fill="#FEFDE4"/>
<path d="M184.412 155.294H194.118V145.588H184.412V155.294Z" fill="#FEFDE4"/>
<path d="M174.706 155.294H184.412V145.588H174.706V155.294Z" fill="#11100F"/>
<path d="M165 155.294H174.706V145.588H165V155.294Z" fill="#11100F"/>
<path d="M155.294 155.294H165V145.588H155.294V155.294Z" fill="#EBD0D4"/>
<path d="M145.588 155.294H155.294V145.588H145.588V155.294Z" fill="#11100F"/>
<path d="M135.882 155.294H145.588V145.588H135.882V155.294Z" fill="#11100F"/>
<path d="M126.177 155.294H135.882V145.588H126.177V155.294Z" fill="#FEFDE4"/>
<path d="M116.471 155.294H126.177V145.588H116.471V155.294Z" fill="#FEFDE4"/>
<path d="M106.765 155.294H116.471V145.588H106.765V155.294Z" fill="#EBD0D4"/>
<path d="M97.0588 155.294H106.765V145.588H97.0588V155.294Z" fill="#EBD0D4"/>
<path d="M87.353 155.294H97.0589V145.588H87.353V155.294Z" fill="#EBD0D4"/>
<path d="M77.647 155.294H87.3529V145.588H77.647V155.294Z" fill="#EBD0D4"/>
<path d="M67.9412 155.294H77.647V145.588H67.9412V155.294Z" fill="#D2B3BA"/>
<path d="M58.2354 155.294H67.9412V145.588H58.2354V155.294Z" fill="#11100F"/>
<path d="M48.5293 155.294H58.2352V145.588H48.5293V155.294Z" fill="#11100F"/>
<path d="M38.8235 155.294H48.5294V145.588H38.8235V155.294Z" fill="#11100F"/>
<path d="M29.1177 155.294H38.8236V145.588H29.1177V155.294Z" fill="#11100F"/>
<path d="M19.4119 155.294H29.1177V145.588H19.4119V155.294Z" fill="#11100F"/>
<path d="M300.882 145.588H310.588V135.882H300.882V145.588Z" fill="#11100F"/>
<path d="M291.177 145.588H300.882V135.882H291.177V145.588Z" fill="#EBD0D4"/>
<path d="M281.471 145.588H291.177V135.882H281.471V145.588Z" fill="#EBD0D4"/>
<path d="M271.765 145.588H281.471V135.882H271.765V145.588Z" fill="#EBD0D4"/>
<path d="M262.059 145.588H271.765V135.882H262.059V145.588Z" fill="#EBD0D4"/>
<path d="M252.353 145.588H262.059V135.882H252.353V145.588Z" fill="#EBD0D4"/>
<path d="M242.647 145.588H252.353V135.882H242.647V145.588Z" fill="#EBD0D4"/>
<path d="M232.941 145.588H242.647V135.882H232.941V145.588Z" fill="#EBD0D4"/>
<path d="M223.235 145.588H232.941V135.882H223.235V145.588Z" fill="#EBD0D4"/>
<path d="M213.529 145.588H223.235V135.882H213.529V145.588Z" fill="#EBD0D4"/>
<path d="M203.823 145.588H213.529V135.882H203.823V145.588Z" fill="#FEFDE4"/>
<path d="M194.118 145.588H203.824V135.882H194.118V145.588Z" fill="#FEFDE4"/>
<path d="M184.412 145.588H194.118V135.882H184.412V145.588Z" fill="#11100F"/>
<path d="M174.706 145.588H184.412V135.882H174.706V145.588Z" fill="#FEFDE4"/>
<path d="M165 145.588H174.706V135.882H165V145.588Z" fill="#FEFDE4"/>
<path d="M155.294 145.588H165V135.882H155.294V145.588Z" fill="#11100F"/>
<path d="M145.588 145.588H155.294V135.882H145.588V145.588Z" fill="#FEFDE4"/>
<path d="M135.882 145.588H145.588V135.882H135.882V145.588Z" fill="#FEFDE4"/>
<path d="M126.177 145.588H135.882V135.882H126.177V145.588Z" fill="#11100F"/>
<path d="M116.471 145.588H126.177V135.882H116.471V145.588Z" fill="#FEFDE4"/>
<path d="M106.765 145.588H116.471V135.882H106.765V145.588Z" fill="#FEFDE4"/>
<path d="M97.0588 145.588H106.765V135.882H97.0588V145.588Z" fill="#EBD0D4"/>
<path d="M87.353 145.588H97.0589V135.882H87.353V145.588Z" fill="#EBD0D4"/>
<path d="M77.647 145.588H87.3529V135.882H77.647V145.588Z" fill="#EBD0D4"/>
<path d="M67.9412 145.588H77.647V135.882H67.9412V145.588Z" fill="#EBD0D4"/>
<path d="M58.2354 145.588H67.9412V135.882H58.2354V145.588Z" fill="#EBD0D4"/>
<path d="M48.5293 145.588H58.2352V135.882H48.5293V145.588Z" fill="#EBD0D4"/>
<path d="M38.8235 145.588H48.5294V135.882H38.8235V145.588Z" fill="#EBD0D4"/>
<path d="M29.1177 145.588H38.8236V135.882H29.1177V145.588Z" fill="#EBD0D4"/>
<path d="M19.4119 145.588H29.1177V135.882H19.4119V145.588Z" fill="#EBD0D4"/>
<path d="M9.70581 145.588H19.4117V135.882H9.70581V145.588Z" fill="#11100F"/>
<path d="M300.882 135.882H310.588V126.176H300.882V135.882Z" fill="#11100F"/>
<path d="M291.177 135.882H300.882V126.176H291.177V135.882Z" fill="#11100F"/>
<path d="M281.471 135.882H291.177V126.176H281.471V135.882Z" fill="#11100F"/>
<path d="M271.765 135.882H281.471V126.176H271.765V135.882Z" fill="#11100F"/>
<path d="M262.059 135.882H271.765V126.176H262.059V135.882Z" fill="#11100F"/>
<path d="M252.353 135.882H262.059V126.176H252.353V135.882Z" fill="#E4B960"/>
<path d="M242.647 135.882H252.353V126.176H242.647V135.882Z" fill="#E4B960"/>
<path d="M232.941 135.882H242.647V126.176H232.941V135.882Z" fill="#E4B960"/>
<path d="M223.235 135.882H232.941V126.176H223.235V135.882Z" fill="#E4B960"/>
<path d="M213.529 135.882H223.235V126.176H213.529V135.882Z" fill="#E4B960"/>
<path d="M203.823 135.882H213.529V126.176H203.823V135.882Z" fill="#FEFDE4"/>
<path d="M194.118 135.882H203.824V126.176H194.118V135.882Z" fill="#FEFDE4"/>
<path d="M184.412 135.882H194.118V126.176H184.412V135.882Z" fill="#FEFDE4"/>
<path d="M174.706 135.882H184.412V126.176H174.706V135.882Z" fill="#FEFDE4"/>
<path d="M165 135.882H174.706V126.176H165V135.882Z" fill="#11100F"/>
<path d="M155.294 135.882H165V126.176H155.294V135.882Z" fill="#11100F"/>
<path d="M145.588 135.882H155.294V126.176H145.588V135.882Z" fill="#11100F"/>
<path d="M135.882 135.882H145.588V126.176H135.882V135.882Z" fill="#FEFDE4"/>
<path d="M126.177 135.882H135.882V126.176H126.177V135.882Z" fill="#FEFDE4"/>
<path d="M116.471 135.882H126.177V126.176H116.471V135.882Z" fill="#FEFDE4"/>
<path d="M106.765 135.882H116.471V126.176H106.765V135.882Z" fill="#FEFDE4"/>
<path d="M97.0588 135.882H106.765V126.176H97.0588V135.882Z" fill="#E4B960"/>
<path d="M87.353 135.882H97.0589V126.176H87.353V135.882Z" fill="#E4B960"/>
<path d="M77.647 135.882H87.3529V126.176H77.647V135.882Z" fill="#E4B960"/>
<path d="M67.9412 135.882H77.647V126.176H67.9412V135.882Z" fill="#E4B960"/>
<path d="M58.2354 135.882H67.9412V126.176H58.2354V135.882Z" fill="#CF7F4B"/>
<path d="M48.5293 135.882H58.2352V126.176H48.5293V135.882Z" fill="#11100F"/>
<path d="M38.8235 135.882H48.5294V126.176H38.8235V135.882Z" fill="#11100F"/>
<path d="M29.1177 135.882H38.8236V126.176H29.1177V135.882Z" fill="#11100F"/>
<path d="M19.4119 135.882H29.1177V126.176H19.4119V135.882Z" fill="#11100F"/>
<path d="M9.70581 135.882H19.4117V126.176H9.70581V135.882Z" fill="#11100F"/>
<path d="M310.588 126.177H320.294V116.471H310.588V126.177Z" fill="#11100F"/>
<path d="M300.882 126.177H310.588V116.471H300.882V126.177Z" fill="#11100F"/>
<path d="M291.177 126.177H300.882V116.471H291.177V126.177Z" fill="#CF7F4B"/>
<path d="M281.471 126.177H291.177V116.471H281.471V126.177Z" fill="#CF7F4B"/>
<path d="M271.765 126.177H281.471V116.471H271.765V126.177Z" fill="#CF7F4B"/>
<path d="M262.059 126.177H271.765V116.471H262.059V126.177Z" fill="#CF7F4B"/>
<path d="M252.353 126.177H262.059V116.471H252.353V126.177Z" fill="#11100F"/>
<path d="M242.647 126.177H252.353V116.471H242.647V126.177Z" fill="#CF7F4B"/>
<path d="M232.941 126.177H242.647V116.471H232.941V126.177Z" fill="#E4B960"/>
<path d="M223.235 126.177H232.941V116.471H223.235V126.177Z" fill="#E4B960"/>
<path d="M213.529 126.177H223.235V116.471H213.529V126.177Z" fill="#E4B960"/>
<path d="M203.823 126.177H213.529V116.471H203.823V126.177Z" fill="#E4B960"/>
<path d="M194.118 126.177H203.824V116.471H194.118V126.177Z" fill="#FEFDE4"/>
<path d="M184.412 126.177H194.118V116.471H184.412V126.177Z" fill="#FEFDE4"/>
<path d="M174.706 126.177H184.412V116.471H174.706V126.177Z" fill="#11100F"/>
<path d="M165 126.177H174.706V116.471H165V126.177Z" fill="#903F52"/>
<path d="M155.294 126.177H165V116.471H155.294V126.177Z" fill="#903F52"/>
<path d="M145.588 126.177H155.294V116.471H145.588V126.177Z" fill="#903F52"/>
<path d="M135.882 126.177H145.588V116.471H135.882V126.177Z" fill="#11100F"/>
<path d="M126.177 126.177H135.882V116.471H126.177V126.177Z" fill="#FEFDE4"/>
<path d="M116.471 126.177H126.177V116.471H116.471V126.177Z" fill="#FEFDE4"/>
<path d="M106.765 126.177H116.471V116.471H106.765V126.177Z" fill="#E4B960"/>
<path d="M97.0588 126.177H106.765V116.471H97.0588V126.177Z" fill="#E4B960"/>
<path d="M87.353 126.177H97.0589V116.471H87.353V126.177Z" fill="#E4B960"/>
<path d="M77.647 126.177H87.3529V116.471H77.647V126.177Z" fill="#E4B960"/>
<path d="M67.9412 126.177H77.647V116.471H67.9412V126.177Z" fill="#CF7F4B"/>
<path d="M58.2354 126.177H67.9412V116.471H58.2354V126.177Z" fill="#E4B960"/>
<path d="M48.5293 126.177H58.2352V116.471H48.5293V126.177Z" fill="#CF7F4B"/>
<path d="M38.8235 126.177H48.5294V116.471H38.8235V126.177Z" fill="#CF7F4B"/>
<path d="M29.1177 126.177H38.8236V116.471H29.1177V126.177Z" fill="#CF7F4B"/>
<path d="M19.4119 126.177H29.1177V116.471H19.4119V126.177Z" fill="#CF7F4B"/>
<path d="M9.70581 126.177H19.4117V116.471H9.70581V126.177Z" fill="#11100F"/>
<path d="M0 126.177H9.70588V116.471H0V126.177Z" fill="#11100F"/>
<path d="M310.588 116.471H320.294V106.765H310.588V116.471Z" fill="#11100F"/>
<path d="M300.882 116.471H310.588V106.765H300.882V116.471Z" fill="#CF7F4B"/>
<path d="M291.177 116.471H300.882V106.765H291.177V116.471Z" fill="#CF7F4B"/>
<path d="M281.471 116.471H291.177V106.765H281.471V116.471Z" fill="#CF7F4B"/>
<path d="M271.765 116.471H281.471V106.765H271.765V116.471Z" fill="#CF7F4B"/>
<path d="M262.059 116.471H271.765V106.765H262.059V116.471Z" fill="#CF7F4B"/>
<path d="M252.353 116.471H262.059V106.765H252.353V116.471Z" fill="#11100F"/>
<path d="M242.647 116.471H252.353V106.765H242.647V116.471Z" fill="#CF7F4B"/>
<path d="M232.941 116.471H242.647V106.765H232.941V116.471Z" fill="#CF7F4B"/>
<path d="M223.235 116.471H232.941V106.765H223.235V116.471Z" fill="#E4B960"/>
<path d="M213.529 116.471H223.235V106.765H213.529V116.471Z" fill="#E4B960"/>
<path d="M203.823 116.471H213.529V106.765H203.823V116.471Z" fill="#E4B960"/>
<path d="M194.118 116.471H203.824V106.765H194.118V116.471Z" fill="#E4B960"/>
<path d="M184.412 116.471H194.118V106.765H184.412V116.471Z" fill="#FEFDE4"/>
<path d="M174.706 116.471H184.412V106.765H174.706V116.471Z" fill="#FEFDE4"/>
<path d="M165 116.471H174.706V106.765H165V116.471Z" fill="#FEFDE4"/>
<path d="M155.294 116.471H165V106.765H155.294V116.471Z" fill="#FEFDE4"/>
<path d="M145.588 116.471H155.294V106.765H145.588V116.471Z" fill="#FEFDE4"/>
<path d="M135.882 116.471H145.588V106.765H135.882V116.471Z" fill="#FEFDE4"/>
<path d="M126.177 116.471H135.882V106.765H126.177V116.471Z" fill="#FEFDE4"/>
<path d="M116.471 116.471H126.177V106.765H116.471V116.471Z" fill="#E4B960"/>
<path d="M106.765 116.471H116.471V106.765H106.765V116.471Z" fill="#E4B960"/>
<path d="M97.0588 116.471H106.765V106.765H97.0588V116.471Z" fill="#E4B960"/>
<path d="M87.353 116.471H97.0589V106.765H87.353V116.471Z" fill="#E4B960"/>
<path d="M77.647 116.471H87.3529V106.765H77.647V116.471Z" fill="#CF7F4B"/>
<path d="M67.9412 116.471H77.647V106.765H67.9412V116.471Z" fill="#CF7F4B"/>
<path d="M58.2354 116.471H67.9412V106.765H58.2354V116.471Z" fill="#11100F"/>
<path d="M48.5293 116.471H58.2352V106.765H48.5293V116.471Z" fill="#CF7F4B"/>
<path d="M38.8235 116.471H48.5294V106.765H38.8235V116.471Z" fill="#CF7F4B"/>
<path d="M29.1177 116.471H38.8236V106.765H29.1177V116.471Z" fill="#CF7F4B"/>
<path d="M19.4119 116.471H29.1177V106.765H19.4119V116.471Z" fill="#CF7F4B"/>
<path d="M9.70581 116.471H19.4117V106.765H9.70581V116.471Z" fill="#CF7F4B"/>
<path d="M0 116.471H9.70588V106.765H0V116.471Z" fill="#11100F"/>
<path d="M310.588 106.765H320.294V97.0588H310.588V106.765Z" fill="#11100F"/>
<path d="M300.882 106.765H310.588V97.0588H300.882V106.765Z" fill="#CF7F4B"/>
<path d="M291.177 106.765H300.882V97.0588H291.177V106.765Z" fill="#CF7F4B"/>
<path d="M281.471 106.765H291.177V97.0588H281.471V106.765Z" fill="#CF7F4B"/>
<path d="M271.765 106.765H281.471V97.0588H271.765V106.765Z" fill="#CF7F4B"/>
<path d="M262.059 106.765H271.765V97.0588H262.059V106.765Z" fill="#CF7F4B"/>
<path d="M252.353 106.765H262.059V97.0588H252.353V106.765Z" fill="#11100F"/>
<path d="M242.647 106.765H252.353V97.0588H242.647V106.765Z" fill="#CF7F4B"/>
<path d="M232.941 106.765H242.647V97.0588H232.941V106.765Z" fill="#E4B960"/>
<path d="M223.235 106.765H232.941V97.0588H223.235V106.765Z" fill="#CF7F4B"/>
<path d="M213.529 106.765H223.235V97.0588H213.529V106.765Z" fill="#E4B960"/>
<path d="M203.823 106.765H213.529V97.0588H203.823V106.765Z" fill="#11100F"/>
<path d="M194.118 106.765H203.824V97.0588H194.118V106.765Z" fill="#11100F"/>
<path d="M184.412 106.765H194.118V97.0588H184.412V106.765Z" fill="#EBD0D4"/>
<path d="M174.706 106.765H184.412V97.0588H174.706V106.765Z" fill="#FEFDE4"/>
<path d="M165 106.765H174.706V97.0588H165V106.765Z" fill="#FEFDE4"/>
<path d="M155.294 106.765H165V97.0588H155.294V106.765Z" fill="#FEFDE4"/>
<path d="M145.588 106.765H155.294V97.0588H145.588V106.765Z" fill="#FEFDE4"/>
<path d="M135.882 106.765H145.588V97.0588H135.882V106.765Z" fill="#FEFDE4"/>
<path d="M126.177 106.765H135.882V97.0588H126.177V106.765Z" fill="#EBD0D4"/>
<path d="M116.471 106.765H126.177V97.0588H116.471V106.765Z" fill="#11100F"/>
<path d="M106.765 106.765H116.471V97.0588H106.765V106.765Z" fill="#11100F"/>
<path d="M97.0588 106.765H106.765V97.0588H97.0588V106.765Z" fill="#E4B960"/>
<path d="M87.353 106.765H97.0589V97.0588H87.353V106.765Z" fill="#CF7F4B"/>
<path d="M77.647 106.765H87.3529V97.0588H77.647V106.765Z" fill="#E4B960"/>
<path d="M67.9412 106.765H77.647V97.0588H67.9412V106.765Z" fill="#CF7F4B"/>
<path d="M58.2354 106.765H67.9412V97.0588H58.2354V106.765Z" fill="#11100F"/>
<path d="M48.5293 106.765H58.2352V97.0588H48.5293V106.765Z" fill="#CF7F4B"/>
<path d="M38.8235 106.765H48.5294V97.0588H38.8235V106.765Z" fill="#CF7F4B"/>
<path d="M29.1177 106.765H38.8236V97.0588H29.1177V106.765Z" fill="#CF7F4B"/>
<path d="M19.4119 106.765H29.1177V97.0588H19.4119V106.765Z" fill="#CF7F4B"/>
<path d="M9.70581 106.765H19.4117V97.0588H9.70581V106.765Z" fill="#CF7F4B"/>
<path d="M0 106.765H9.70588V97.0588H0V106.765Z" fill="#11100F"/>
<path d="M310.588 97.0588H320.294V87.353H310.588V97.0588Z" fill="#11100F"/>
<path d="M300.882 97.0588H310.588V87.353H300.882V97.0588Z" fill="#CF7F4B"/>
<path d="M291.177 97.0588H300.882V87.353H291.177V97.0588Z" fill="#E4B960"/>
<path d="M281.471 97.0588H291.177V87.353H281.471V97.0588Z" fill="#E4B960"/>
<path d="M271.765 97.0588H281.471V87.353H271.765V97.0588Z" fill="#CF7F4B"/>
<path d="M262.059 97.0588H271.765V87.353H262.059V97.0588Z" fill="#CF7F4B"/>
<path d="M252.353 97.0588H262.059V87.353H252.353V97.0588Z" fill="#11100F"/>
<path d="M242.647 97.0588H252.353V87.353H242.647V97.0588Z" fill="#CF7F4B"/>
<path d="M232.941 97.0588H242.647V87.353H232.941V97.0588Z" fill="#E4B960"/>
<path d="M223.235 97.0588H232.941V87.353H223.235V97.0588Z" fill="#E4B960"/>
<path d="M213.529 97.0588H223.235V87.353H213.529V97.0588Z" fill="#11100F"/>
<path d="M203.823 97.0588H213.529V87.353H203.823V97.0588Z" fill="#11100F"/>
<path d="M194.118 97.0588H203.824V87.353H194.118V97.0588Z" fill="#11100F"/>
<path d="M184.412 97.0588H194.118V87.353H184.412V97.0588Z" fill="#11100F"/>
<path d="M174.706 97.0588H184.412V87.353H174.706V97.0588Z" fill="#E4B960"/>
<path d="M165 97.0588H174.706V87.353H165V97.0588Z" fill="#FEFDE4"/>
<path d="M155.294 97.0588H165V87.353H155.294V97.0588Z" fill="#FEFDE4"/>
<path d="M145.588 97.0588H155.294V87.353H145.588V97.0588Z" fill="#FEFDE4"/>
<path d="M135.882 97.0588H145.588V87.353H135.882V97.0588Z" fill="#E4B960"/>
<path d="M126.177 97.0588H135.882V87.353H126.177V97.0588Z" fill="#11100F"/>
<path d="M116.471 97.0588H126.177V87.353H116.471V97.0588Z" fill="#11100F"/>
<path d="M106.765 97.0588H116.471V87.353H106.765V97.0588Z" fill="#11100F"/>
<path d="M97.0588 97.0588H106.765V87.353H97.0588V97.0588Z" fill="#11100F"/>
<path d="M87.353 97.0588H97.0589V87.353H87.353V97.0588Z" fill="#E4B960"/>
<path d="M77.647 97.0588H87.3529V87.353H77.647V97.0588Z" fill="#E4B960"/>
<path d="M67.9412 97.0588H77.647V87.353H67.9412V97.0588Z" fill="#CF7F4B"/>
<path d="M58.2354 97.0588H67.9412V87.353H58.2354V97.0588Z" fill="#11100F"/>
<path d="M48.5293 97.0588H58.2352V87.353H48.5293V97.0588Z" fill="#CF7F4B"/>
<path d="M38.8235 97.0588H48.5294V87.353H38.8235V97.0588Z" fill="#CF7F4B"/>
<path d="M29.1177 97.0588H38.8236V87.353H29.1177V97.0588Z" fill="#E4B960"/>
<path d="M19.4119 97.0588H29.1177V87.353H19.4119V97.0588Z" fill="#E4B960"/>
<path d="M9.70581 97.0588H19.4117V87.353H9.70581V97.0588Z" fill="#CF7F4B"/>
<path d="M0 97.0588H9.70588V87.353H0V97.0588Z" fill="#11100F"/>
<path d="M310.588 87.353H320.294V77.6471H310.588V87.353Z" fill="#11100F"/>
<path d="M300.882 87.353H310.588V77.6471H300.882V87.353Z" fill="#CF7F4B"/>
<path d="M291.177 87.353H300.882V77.6471H291.177V87.353Z" fill="#E4B960"/>
<path d="M281.471 87.353H291.177V77.6471H281.471V87.353Z" fill="#E4B960"/>
<path d="M271.765 87.353H281.471V77.6471H271.765V87.353Z" fill="#E4B960"/>
<path d="M262.059 87.353H271.765V77.6471H262.059V87.353Z" fill="#CF7F4B"/>
<path d="M252.353 87.353H262.059V77.6471H252.353V87.353Z" fill="#11100F"/>
<path d="M242.647 87.353H252.353V77.6471H242.647V87.353Z" fill="#CF7F4B"/>
<path d="M232.941 87.353H242.647V77.6471H232.941V87.353Z" fill="#E4B960"/>
<path d="M223.235 87.353H232.941V77.6471H223.235V87.353Z" fill="#E4B960"/>
<path d="M213.529 87.353H223.235V77.6471H213.529V87.353Z" fill="#11100F"/>
<path d="M203.823 87.353H213.529V77.6471H203.823V87.353Z" fill="#11100F"/>
<path d="M184.412 87.353H194.118V77.6471H184.412V87.353Z" fill="#11100F"/>
<path d="M174.706 87.353H184.412V77.6471H174.706V87.353Z" fill="#E4B960"/>
<path d="M165 87.353H174.706V77.6471H165V87.353Z" fill="#FEFDE4"/>
<path d="M155.294 87.353H165V77.6471H155.294V87.353Z" fill="#FEFDE4"/>
<path d="M145.588 87.353H155.294V77.6471H145.588V87.353Z" fill="#FEFDE4"/>
<path d="M135.882 87.353H145.588V77.6471H135.882V87.353Z" fill="#E4B960"/>
<path d="M126.177 87.353H135.882V77.6471H126.177V87.353Z" fill="#11100F"/>
<path d="M116.471 87.353H126.177V77.6471H116.471V87.353Z" fill="#11100F"/>
<path d="M106.765 87.353H116.471V77.6471H106.765V87.353Z" fill="#FEFDE4"/>
<path d="M97.0588 87.353H106.765V77.6471H97.0588V87.353Z" fill="#11100F"/>
<path d="M87.353 87.353H97.0589V77.6471H87.353V87.353Z" fill="#E4B960"/>
<path d="M77.647 87.353H87.3529V77.6471H77.647V87.353Z" fill="#E4B960"/>
<path d="M67.9412 87.353H77.647V77.6471H67.9412V87.353Z" fill="#CF7F4B"/>
<path d="M58.2354 87.353H67.9412V77.6471H58.2354V87.353Z" fill="#11100F"/>
<path d="M48.5293 87.353H58.2352V77.6471H48.5293V87.353Z" fill="#CF7F4B"/>
<path d="M38.8235 87.353H48.5294V77.6471H38.8235V87.353Z" fill="#E4B960"/>
<path d="M29.1177 87.353H38.8236V77.6471H29.1177V87.353Z" fill="#E4B960"/>
<path d="M19.4119 87.353H29.1177V77.6471H19.4119V87.353Z" fill="#E4B960"/>
<path d="M9.70581 87.353H19.4117V77.6471H9.70581V87.353Z" fill="#CF7F4B"/>
<path d="M0 87.353H9.70588V77.6471H0V87.353Z" fill="#11100F"/>
<path d="M310.588 77.647H320.294V67.9411H310.588V77.647Z" fill="#11100F"/>
<path d="M300.882 77.647H310.588V67.9411H300.882V77.647Z" fill="#CF7F4B"/>
<path d="M291.177 77.647H300.882V67.9411H291.177V77.647Z" fill="#E4B960"/>
<path d="M281.471 77.647H291.177V67.9411H281.471V77.647Z" fill="#E4B960"/>
<path d="M271.765 77.647H281.471V67.9411H271.765V77.647Z" fill="#E4B960"/>
<path d="M262.059 77.647H271.765V67.9411H262.059V77.647Z" fill="#CF7F4B"/>
<path d="M252.353 77.647H262.059V67.9411H252.353V77.647Z" fill="#11100F"/>
<path d="M242.647 77.647H252.353V67.9411H242.647V77.647Z" fill="#CF7F4B"/>
<path d="M232.941 77.647H242.647V67.9411H232.941V77.647Z" fill="#E4B960"/>
<path d="M223.235 77.647H232.941V67.9411H223.235V77.647Z" fill="#E4B960"/>
<path d="M213.529 77.647H223.235V67.9411H213.529V77.647Z" fill="#E4B960"/>
<path d="M203.823 77.647H213.529V67.9411H203.823V77.647Z" fill="#11100F"/>
<path d="M194.118 77.647H203.824V67.9411H194.118V77.647Z" fill="#11100F"/>
<path d="M194.118 87.353H203.824V77.6471H194.118V87.353Z" fill="#FEFDE4"/>
<path d="M184.412 77.647H194.118V67.9411H184.412V77.647Z" fill="#E4B960"/>
<path d="M174.706 77.647H184.412V67.9411H174.706V77.647Z" fill="#E4B960"/>
<path d="M165 77.647H174.706V67.9411H165V77.647Z" fill="#FEFDE4"/>
<path d="M155.294 77.647H165V67.9411H155.294V77.647Z" fill="#FEFDE4"/>
<path d="M145.588 77.647H155.294V67.9411H145.588V77.647Z" fill="#FEFDE4"/>
<path d="M135.882 77.647H145.588V67.9411H135.882V77.647Z" fill="#E4B960"/>
<path d="M126.177 77.647H135.882V67.9411H126.177V77.647Z" fill="#E4B960"/>
<path d="M116.471 77.647H126.177V67.9411H116.471V77.647Z" fill="#11100F"/>
<path d="M106.765 77.647H116.471V67.9411H106.765V77.647Z" fill="#11100F"/>
<path d="M97.0588 77.647H106.765V67.9411H97.0588V77.647Z" fill="#E4B960"/>
<path d="M87.353 77.647H97.0589V67.9411H87.353V77.647Z" fill="#E4B960"/>
<path d="M77.647 77.647H87.3529V67.9411H77.647V77.647Z" fill="#E4B960"/>
<path d="M67.9412 77.647H77.647V67.9411H67.9412V77.647Z" fill="#CF7F4B"/>
<path d="M58.2354 77.647H67.9412V67.9411H58.2354V77.647Z" fill="#11100F"/>
<path d="M48.5293 77.647H58.2352V67.9411H48.5293V77.647Z" fill="#CF7F4B"/>
<path d="M38.8235 77.647H48.5294V67.9411H38.8235V77.647Z" fill="#E4B960"/>
<path d="M29.1177 77.647H38.8236V67.9411H29.1177V77.647Z" fill="#E4B960"/>
<path d="M19.4119 77.647H29.1177V67.9411H19.4119V77.647Z" fill="#E4B960"/>
<path d="M9.70581 77.647H19.4117V67.9411H9.70581V77.647Z" fill="#CF7F4B"/>
<path d="M0 77.647H9.70588V67.9411H0V77.647Z" fill="#11100F"/>
<path d="M310.588 67.9412H320.294V58.2353H310.588V67.9412Z" fill="#11100F"/>
<path d="M300.882 67.9412H310.588V58.2353H300.882V67.9412Z" fill="#CF7F4B"/>
<path d="M291.177 67.9412H300.882V58.2353H291.177V67.9412Z" fill="#E4B960"/>
<path d="M281.471 67.9412H291.177V58.2353H281.471V67.9412Z" fill="#E4B960"/>
<path d="M271.765 67.9412H281.471V58.2353H271.765V67.9412Z" fill="#E4B960"/>
<path d="M262.059 67.9412H271.765V58.2353H262.059V67.9412Z" fill="#CF7F4B"/>
<path d="M252.353 67.9412H262.059V58.2353H252.353V67.9412Z" fill="#11100F"/>
<path d="M242.647 67.9412H252.353V58.2353H242.647V67.9412Z" fill="#CF7F4B"/>
<path d="M232.941 67.9412H242.647V58.2353H232.941V67.9412Z" fill="#E4B960"/>
<path d="M223.235 67.9412H232.941V58.2353H223.235V67.9412Z" fill="#E4B960"/>
<path d="M213.529 67.9412H223.235V58.2353H213.529V67.9412Z" fill="#E4B960"/>
<path d="M203.823 67.9412H213.529V58.2353H203.823V67.9412Z" fill="#E4B960"/>
<path d="M194.118 67.9412H203.824V58.2353H194.118V67.9412Z" fill="#E4B960"/>
<path d="M184.412 67.9412H194.118V58.2353H184.412V67.9412Z" fill="#E4B960"/>
<path d="M174.706 67.9412H184.412V58.2353H174.706V67.9412Z" fill="#E4B960"/>
<path d="M165 67.9412H174.706V58.2353H165V67.9412Z" fill="#FEFDE4"/>
<path d="M155.294 67.9412H165V58.2353H155.294V67.9412Z" fill="#FEFDE4"/>
<path d="M145.588 67.9412H155.294V58.2353H145.588V67.9412Z" fill="#FEFDE4"/>
<path d="M135.882 67.9412H145.588V58.2353H135.882V67.9412Z" fill="#E4B960"/>
<path d="M126.177 67.9412H135.882V58.2353H126.177V67.9412Z" fill="#E4B960"/>
<path d="M116.471 67.9412H126.177V58.2353H116.471V67.9412Z" fill="#E4B960"/>
<path d="M106.765 67.9412H116.471V58.2353H106.765V67.9412Z" fill="#E4B960"/>
<path d="M97.0588 67.9412H106.765V58.2353H97.0588V67.9412Z" fill="#E4B960"/>
<path d="M87.353 67.9412H97.0589V58.2353H87.353V67.9412Z" fill="#E4B960"/>
<path d="M77.647 67.9412H87.3529V58.2353H77.647V67.9412Z" fill="#E4B960"/>
<path d="M67.9412 67.9412H77.647V58.2353H67.9412V67.9412Z" fill="#CF7F4B"/>
<path d="M58.2354 67.9412H67.9412V58.2353H58.2354V67.9412Z" fill="#11100F"/>
<path d="M48.5293 67.9412H58.2352V58.2353H48.5293V67.9412Z" fill="#CF7F4B"/>
<path d="M38.8235 67.9412H48.5294V58.2353H38.8235V67.9412Z" fill="#E4B960"/>
<path d="M29.1177 67.9412H38.8236V58.2353H29.1177V67.9412Z" fill="#E4B960"/>
<path d="M19.4119 67.9412H29.1177V58.2353H19.4119V67.9412Z" fill="#E4B960"/>
<path d="M9.70581 67.9412H19.4117V58.2353H9.70581V67.9412Z" fill="#CF7F4B"/>
<path d="M0 67.9412H9.70588V58.2353H0V67.9412Z" fill="#11100F"/>
<path d="M300.882 58.2354H310.588V48.5295H300.882V58.2354Z" fill="#11100F"/>
<path d="M291.177 58.2354H300.882V48.5295H291.177V58.2354Z" fill="#CF7F4B"/>
<path d="M281.471 58.2354H291.177V48.5295H281.471V58.2354Z" fill="#E4B960"/>
<path d="M271.765 58.2354H281.471V48.5295H271.765V58.2354Z" fill="#E4B960"/>
<path d="M262.059 58.2354H271.765V48.5295H262.059V58.2354Z" fill="#E4B960"/>
<path d="M252.353 58.2354H262.059V48.5295H252.353V58.2354Z" fill="#CF7F4B"/>
<path d="M242.647 58.2354H252.353V48.5295H242.647V58.2354Z" fill="#11100F"/>
<path d="M232.941 58.2354H242.647V48.5295H232.941V58.2354Z" fill="#CF7F4B"/>
<path d="M223.235 58.2354H232.941V48.5295H223.235V58.2354Z" fill="#E4B960"/>
<path d="M213.529 58.2354H223.235V48.5295H213.529V58.2354Z" fill="#E4B960"/>
<path d="M203.823 58.2354H213.529V48.5295H203.823V58.2354Z" fill="#E4B960"/>
<path d="M194.118 58.2354H203.824V48.5295H194.118V58.2354Z" fill="#E4B960"/>
<path d="M184.412 58.2354H194.118V48.5295H184.412V58.2354Z" fill="#E4B960"/>
<path d="M174.706 58.2354H184.412V48.5295H174.706V58.2354Z" fill="#E4B960"/>
<path d="M165 58.2354H174.706V48.5295H165V58.2354Z" fill="#FEFDE4"/>
<path d="M155.294 58.2354H165V48.5295H155.294V58.2354Z" fill="#FEFDE4"/>
<path d="M145.588 58.2354H155.294V48.5295H145.588V58.2354Z" fill="#FEFDE4"/>
<path d="M135.882 58.2354H145.588V48.5295H135.882V58.2354Z" fill="#E4B960"/>
<path d="M126.177 58.2354H135.882V48.5295H126.177V58.2354Z" fill="#E4B960"/>
<path d="M116.471 58.2354H126.177V48.5295H116.471V58.2354Z" fill="#E4B960"/>
<path d="M106.765 58.2354H116.471V48.5295H106.765V58.2354Z" fill="#E4B960"/>
<path d="M97.0588 58.2354H106.765V48.5295H97.0588V58.2354Z" fill="#E4B960"/>
<path d="M87.353 58.2354H97.0589V48.5295H87.353V58.2354Z" fill="#E4B960"/>
<path d="M77.647 58.2354H87.3529V48.5295H77.647V58.2354Z" fill="#CF7F4B"/>
<path d="M67.9412 58.2354H77.647V48.5295H67.9412V58.2354Z" fill="#11100F"/>
<path d="M58.2354 58.2354H67.9412V48.5295H58.2354V58.2354Z" fill="#CF7F4B"/>
<path d="M48.5293 58.2354H58.2352V48.5295H48.5293V58.2354Z" fill="#E4B960"/>
<path d="M38.8235 58.2354H48.5294V48.5295H38.8235V58.2354Z" fill="#E4B960"/>
<path d="M29.1177 58.2354H38.8236V48.5295H29.1177V58.2354Z" fill="#E4B960"/>
<path d="M19.4119 58.2354H29.1177V48.5295H19.4119V58.2354Z" fill="#CF7F4B"/>
<path d="M9.70581 58.2354H19.4117V48.5295H9.70581V58.2354Z" fill="#11100F"/>
<path d="M291.177 48.5293H300.882V38.8234H291.177V48.5293Z" fill="#11100F"/>
<path d="M281.471 48.5293H291.177V38.8234H281.471V48.5293Z" fill="#11100F"/>
<path d="M271.765 48.5293H281.471V38.8234H271.765V48.5293Z" fill="#CF7F4B"/>
<path d="M262.059 48.5293H271.765V38.8234H262.059V48.5293Z" fill="#E4B960"/>
<path d="M252.353 48.5293H262.059V38.8234H252.353V48.5293Z" fill="#E4B960"/>
<path d="M242.647 48.5293H252.353V38.8234H242.647V48.5293Z" fill="#11100F"/>
<path d="M232.941 48.5293H242.647V38.8234H232.941V48.5293Z" fill="#CF7F4B"/>
<path d="M223.235 48.5293H232.941V38.8234H223.235V48.5293Z" fill="#CF7F4B"/>
<path d="M213.529 48.5293H223.235V38.8234H213.529V48.5293Z" fill="#E4B960"/>
<path d="M203.823 48.5293H213.529V38.8234H203.823V48.5293Z" fill="#E4B960"/>
<path d="M194.118 48.5293H203.824V38.8234H194.118V48.5293Z" fill="#E4B960"/>
<path d="M184.412 48.5293H194.118V38.8234H184.412V48.5293Z" fill="#E4B960"/>
<path d="M174.706 48.5293H184.412V38.8234H174.706V48.5293Z" fill="#E4B960"/>
<path d="M165 48.5293H174.706V38.8234H165V48.5293Z" fill="#FEFDE4"/>
<path d="M155.294 48.5293H165V38.8234H155.294V48.5293Z" fill="#FEFDE4"/>
<path d="M145.588 48.5293H155.294V38.8234H145.588V48.5293Z" fill="#FEFDE4"/>
<path d="M135.882 48.5293H145.588V38.8234H135.882V48.5293Z" fill="#E4B960"/>
<path d="M126.177 48.5293H135.882V38.8234H126.177V48.5293Z" fill="#E4B960"/>
<path d="M116.471 48.5293H126.177V38.8234H116.471V48.5293Z" fill="#E4B960"/>
<path d="M106.765 48.5293H116.471V38.8234H106.765V48.5293Z" fill="#E4B960"/>
<path d="M97.0588 48.5293H106.765V38.8234H97.0588V48.5293Z" fill="#E4B960"/>
<path d="M87.353 48.5293H97.0589V38.8234H87.353V48.5293Z" fill="#CF7F4B"/>
<path d="M77.647 48.5293H87.3529V38.8234H77.647V48.5293Z" fill="#CF7F4B"/>
<path d="M67.9412 48.5293H77.647V38.8234H67.9412V48.5293Z" fill="#11100F"/>
<path d="M58.2354 48.5293H67.9412V38.8234H58.2354V48.5293Z" fill="#CF7F4B"/>
<path d="M48.5293 48.5293H58.2352V38.8234H48.5293V48.5293Z" fill="#E4B960"/>
<path d="M38.8235 48.5293H48.5294V38.8234H38.8235V48.5293Z" fill="#E4B960"/>
<path d="M29.1177 48.5293H38.8236V38.8234H29.1177V48.5293Z" fill="#11100F"/>
<path d="M19.4119 48.5293H29.1177V38.8234H19.4119V48.5293Z" fill="#11100F"/>
<path d="M271.765 38.8235H281.471V29.1176H271.765V38.8235Z" fill="#11100F"/>
<path d="M262.059 38.8235H271.765V29.1176H262.059V38.8235Z" fill="#E4B960"/>
<path d="M252.353 38.8235H262.059V29.1176H252.353V38.8235Z" fill="#E4B960"/>
<path d="M242.647 38.8235H252.353V29.1176H242.647V38.8235Z" fill="#CF7F4B"/>
<path d="M232.941 38.8235H242.647V29.1176H232.941V38.8235Z" fill="#11100F"/>
<path d="M223.235 38.8235H232.941V29.1176H223.235V38.8235Z" fill="#CF7F4B"/>
<path d="M213.529 38.8235H223.235V29.1176H213.529V38.8235Z" fill="#E4B960"/>
<path d="M203.823 38.8235H213.529V29.1176H203.823V38.8235Z" fill="#E4B960"/>
<path d="M194.118 38.8235H203.824V29.1176H194.118V38.8235Z" fill="#E4B960"/>
<path d="M184.412 38.8235H194.118V29.1176H184.412V38.8235Z" fill="#E4B960"/>
<path d="M174.706 38.8235H184.412V29.1176H174.706V38.8235Z" fill="#E4B960"/>
<path d="M165 38.8235H174.706V29.1176H165V38.8235Z" fill="#FEFDE4"/>
<path d="M155.294 38.8235H165V29.1176H155.294V38.8235Z" fill="#FEFDE4"/>
<path d="M145.588 38.8235H155.294V29.1176H145.588V38.8235Z" fill="#FEFDE4"/>
<path d="M135.882 38.8235H145.588V29.1176H135.882V38.8235Z" fill="#E4B960"/>
<path d="M126.177 38.8235H135.882V29.1176H126.177V38.8235Z" fill="#E4B960"/>
<path d="M116.471 38.8235H126.177V29.1176H116.471V38.8235Z" fill="#E4B960"/>
<path d="M106.765 38.8235H116.471V29.1176H106.765V38.8235Z" fill="#E4B960"/>
<path d="M97.0588 38.8235H106.765V29.1176H97.0588V38.8235Z" fill="#E4B960"/>
<path d="M87.353 38.8235H97.0589V29.1176H87.353V38.8235Z" fill="#CF7F4B"/>
<path d="M77.647 38.8235H87.3529V29.1176H77.647V38.8235Z" fill="#11100F"/>
<path d="M67.9412 38.8235H77.647V29.1176H67.9412V38.8235Z" fill="#CF7F4B"/>
<path d="M58.2354 38.8235H67.9412V29.1176H58.2354V38.8235Z" fill="#E4B960"/>
<path d="M48.5293 38.8235H58.2352V29.1176H48.5293V38.8235Z" fill="#E4B960"/>
<path d="M38.8235 38.8235H48.5294V29.1176H38.8235V38.8235Z" fill="#11100F"/>
<path d="M262.059 29.1177H271.765V19.4118H262.059V29.1177Z" fill="#11100F"/>
<path d="M252.353 29.1177H262.059V19.4118H252.353V29.1177Z" fill="#E4B960"/>
<path d="M242.647 29.1177H252.353V19.4118H242.647V29.1177Z" fill="#E4B960"/>
<path d="M232.941 29.1177H242.647V19.4118H232.941V29.1177Z" fill="#CF7F4B"/>
<path d="M223.235 29.1177H232.941V19.4118H223.235V29.1177Z" fill="#11100F"/>
<path d="M213.529 29.1177H223.235V19.4118H213.529V29.1177Z" fill="#CF7F4B"/>
<path d="M203.823 29.1177H213.529V19.4118H203.823V29.1177Z" fill="#E4B960"/>
<path d="M194.118 29.1177H203.824V19.4118H194.118V29.1177Z" fill="#E4B960"/>
<path d="M184.412 29.1177H194.118V19.4118H184.412V29.1177Z" fill="#E4B960"/>
<path d="M174.706 29.1177H184.412V19.4118H174.706V29.1177Z" fill="#E4B960"/>
<path d="M165 29.1177H174.706V19.4118H165V29.1177Z" fill="#FEFDE4"/>
<path d="M155.294 29.1177H165V19.4118H155.294V29.1177Z" fill="#FEFDE4"/>
<path d="M145.588 29.1177H155.294V19.4118H145.588V29.1177Z" fill="#FEFDE4"/>
<path d="M135.882 29.1177H145.588V19.4118H135.882V29.1177Z" fill="#E4B960"/>
<path d="M126.177 29.1177H135.882V19.4118H126.177V29.1177Z" fill="#E4B960"/>
<path d="M116.471 29.1177H126.177V19.4118H116.471V29.1177Z" fill="#E4B960"/>
<path d="M106.765 29.1177H116.471V19.4118H106.765V29.1177Z" fill="#E4B960"/>
<path d="M97.0588 29.1177H106.765V19.4118H97.0588V29.1177Z" fill="#CF7F4B"/>
<path d="M87.353 29.1177H97.0589V19.4118H87.353V29.1177Z" fill="#11100F"/>
<path d="M77.647 29.1177H87.3529V19.4118H77.647V29.1177Z" fill="#E4B960"/>
<path d="M67.9412 29.1177H77.647V19.4118H67.9412V29.1177Z" fill="#E4B960"/>
<path d="M58.2354 29.1177H67.9412V19.4118H58.2354V29.1177Z" fill="#E4B960"/>
<path d="M48.5293 29.1177H58.2352V19.4118H48.5293V29.1177Z" fill="#11100F"/>
<path d="M252.353 19.4119H262.059V9.70598H252.353V19.4119Z" fill="#11100F"/>
<path d="M242.647 19.4119H252.353V9.70598H242.647V19.4119Z" fill="#CF7F4B"/>
<path d="M232.941 19.4119H242.647V9.70598H232.941V19.4119Z" fill="#CF7F4B"/>
<path d="M223.235 19.4119H232.941V9.70598H223.235V19.4119Z" fill="#CF7F4B"/>
<path d="M213.529 19.4119H223.235V9.70598H213.529V19.4119Z" fill="#CF7F4B"/>
<path d="M203.823 19.4119H213.529V9.70598H203.823V19.4119Z" fill="#CF7F4B"/>
<path d="M194.118 19.4119H203.824V9.70598H194.118V19.4119Z" fill="#E4B960"/>
<path d="M184.412 19.4119H194.118V9.70598H184.412V19.4119Z" fill="#E4B960"/>
<path d="M174.706 19.4119H184.412V9.70598H174.706V19.4119Z" fill="#E4B960"/>
<path d="M165 19.4119H174.706V9.70598H165V19.4119Z" fill="#E4B960"/>
<path d="M155.294 19.4119H165V9.70598H155.294V19.4119Z" fill="#FEFDE4"/>
<path d="M145.588 19.4119H155.294V9.70598H145.588V19.4119Z" fill="#E4B960"/>
<path d="M135.882 19.4119H145.588V9.70598H135.882V19.4119Z" fill="#E4B960"/>
<path d="M126.177 19.4119H135.882V9.70598H126.177V19.4119Z" fill="#E4B960"/>
<path d="M116.471 19.4119H126.177V9.70598H116.471V19.4119Z" fill="#E4B960"/>
<path d="M106.765 19.4119H116.471V9.70598H106.765V19.4119Z" fill="#CF7F4B"/>
<path d="M97.0588 19.4119H106.765V9.70598H97.0588V19.4119Z" fill="#CF7F4B"/>
<path d="M87.353 19.4119H97.0589V9.70598H87.353V19.4119Z" fill="#CF7F4B"/>
<path d="M77.647 19.4119H87.3529V9.70598H77.647V19.4119Z" fill="#CF7F4B"/>
<path d="M67.9412 19.4119H77.647V9.70598H67.9412V19.4119Z" fill="#CF7F4B"/>
<path d="M58.2354 19.4119H67.9412V9.70598H58.2354V19.4119Z" fill="#11100F"/>
<path d="M242.647 9.70581H252.353V-7.23451e-05H242.647V9.70581Z" fill="#11100F"/>
<path d="M232.941 9.70581H242.647V-7.23451e-05H232.941V9.70581Z" fill="#11100F"/>
<path d="M223.235 9.70581H232.941V-7.23451e-05H223.235V9.70581Z" fill="#11100F"/>
<path d="M213.529 9.70581H223.235V-7.23451e-05H213.529V9.70581Z" fill="#11100F"/>
<path d="M203.823 9.70581H213.529V-7.23451e-05H203.823V9.70581Z" fill="#11100F"/>
<path d="M194.118 9.70581H203.824V-7.23451e-05H194.118V9.70581Z" fill="#11100F"/>
<path d="M184.412 9.70581H194.118V-7.23451e-05H184.412V9.70581Z" fill="#11100F"/>
<path d="M174.706 9.70581H184.412V-7.23451e-05H174.706V9.70581Z" fill="#11100F"/>
<path d="M165 9.70581H174.706V-7.23451e-05H165V9.70581Z" fill="#11100F"/>
<path d="M155.294 9.70581H165V-7.23451e-05H155.294V9.70581Z" fill="#11100F"/>
<path d="M145.588 9.70581H155.294V-7.23451e-05H145.588V9.70581Z" fill="#11100F"/>
<path d="M135.882 9.70581H145.588V-7.23451e-05H135.882V9.70581Z" fill="#11100F"/>
<path d="M126.177 9.70581H135.882V-7.23451e-05H126.177V9.70581Z" fill="#11100F"/>
<path d="M116.471 9.70581H126.177V-7.23451e-05H116.471V9.70581Z" fill="#11100F"/>
<path d="M106.765 9.70581H116.471V-7.23451e-05H106.765V9.70581Z" fill="#11100F"/>
<path d="M97.0588 9.70581H106.765V-7.23451e-05H97.0588V9.70581Z" fill="#11100F"/>
<path d="M87.353 9.70581H97.0589V-7.23451e-05H87.353V9.70581Z" fill="#11100F"/>
<path d="M77.647 9.70581H87.3529V-7.23451e-05H77.647V9.70581Z" fill="#11100F"/>
<path d="M67.9412 9.70581H77.647V-7.23451e-05H67.9412V9.70581Z" fill="#11100F"/>
<path d="M291.177 252.353H300.882V242.647H291.177V252.353Z" fill="#11100F"/>
</svg>
