<svg width="305" height="330" viewBox="0 0 305 330" fill="none" xmlns="http://www.w3.org/2000/svg">
<path d="M208.583 330H217.273V321.316H208.583V330Z" fill="#100F0D"/>
<path d="M199.892 330H208.583V321.316H199.892V330Z" fill="#100F0D"/>
<path d="M191.2 330H199.891V321.316H191.2V330Z" fill="#100F0D"/>
<path d="M182.51 330H191.2V321.316H182.51V330Z" fill="#100F0D"/>
<path d="M173.819 330H182.51V321.316H173.819V330Z" fill="#100F0D"/>
<path d="M165.128 330H173.819V321.316H165.128V330Z" fill="#100F0D"/>
<path d="M156.437 330H165.128V321.316H156.437V330Z" fill="#100F0D"/>
<path d="M147.746 330H156.437V321.316H147.746V330Z" fill="#100F0D"/>
<path d="M139.055 330H147.746V321.316H139.055V330Z" fill="#100F0D"/>
<path d="M130.364 330H139.055V321.316H130.364V330Z" fill="#100F0D"/>
<path d="M121.673 330H130.364V321.316H121.673V330Z" fill="#100F0D"/>
<path d="M112.982 330H121.673V321.316H112.982V330Z" fill="#100F0D"/>
<path d="M104.291 330H112.982V321.316H104.291V330Z" fill="#100F0D"/>
<path d="M95.6001 330H104.291V321.316H95.6001V330Z" fill="#100F0D"/>
<path d="M86.9092 330H95.6001V321.316H86.9092V330Z" fill="#100F0D"/>
<path d="M78.2183 330H86.9092V321.316H78.2183V330Z" fill="#100F0D"/>
<path d="M69.5273 330H78.2183V321.316H69.5273V330Z" fill="#100F0D"/>
<path d="M60.8364 330H69.5274V321.316H60.8364V330Z" fill="#100F0D"/>
<path d="M52.1455 330H60.8364V321.316H52.1455V330Z" fill="#100F0D"/>
<path d="M43.4546 330H52.1455V321.316H43.4546V330Z" fill="#100F0D"/>
<path d="M243.346 321.316H252.037V312.631H243.346V321.316Z" fill="#100F0D"/>
<path d="M234.655 321.316H243.346V312.631H234.655V321.316Z" fill="#100F0D"/>
<path d="M225.964 321.316H234.655V312.631H225.964V321.316Z" fill="#100F0D"/>
<path d="M217.273 321.316H225.964V312.631H217.273V321.316Z" fill="#100F0D"/>
<path d="M208.583 321.316H217.273V312.631H208.583V321.316Z" fill="#100F0D"/>
<path d="M199.892 321.316H208.583V312.631H199.892V321.316Z" fill="#C63C25"/>
<path d="M191.2 321.316H199.891V312.631H191.2V321.316Z" fill="#C63C25"/>
<path d="M182.51 321.316H191.2V312.631H182.51V321.316Z" fill="#C63C25"/>
<path d="M173.819 321.316H182.51V312.631H173.819V321.316Z" fill="#C63C25"/>
<path d="M165.128 321.316H173.819V312.631H165.128V321.316Z" fill="#C63C25"/>
<path d="M156.437 321.316H165.128V312.631H156.437V321.316Z" fill="#C63C25"/>
<path d="M147.746 321.316H156.437V312.631H147.746V321.316Z" fill="#1D1312"/>
<path d="M139.055 321.316H147.746V312.631H139.055V321.316Z" fill="#C63C25"/>
<path d="M130.364 321.316H139.055V312.631H130.364V321.316Z" fill="#C63C25"/>
<path d="M121.673 321.316H130.364V312.631H121.673V321.316Z" fill="#C63C25"/>
<path d="M112.982 321.316H121.673V312.631H112.982V321.316Z" fill="#C63C25"/>
<path d="M104.291 321.316H112.982V312.631H104.291V321.316Z" fill="#100F0D"/>
<path d="M95.6001 321.316H104.291V312.631H95.6001V321.316Z" fill="#C63C25"/>
<path d="M86.9092 321.316H95.6001V312.631H86.9092V321.316Z" fill="#C63C25"/>
<path d="M78.2183 321.316H86.9092V312.631H78.2183V321.316Z" fill="#C63C25"/>
<path d="M69.5273 321.316H78.2183V312.631H69.5273V321.316Z" fill="#100F0D"/>
<path d="M60.8364 321.316H69.5274V312.631H60.8364V321.316Z" fill="#C63C25"/>
<path d="M52.1455 321.316H60.8364V312.631H52.1455V321.316Z" fill="#C63C25"/>
<path d="M43.4546 321.316H52.1455V312.631H43.4546V321.316Z" fill="#100F0D"/>
<path d="M34.7637 321.316H43.4546V312.631H34.7637V321.316Z" fill="#100F0D"/>
<path d="M252.037 312.632H260.728V303.947H252.037V312.632Z" fill="#100F0D"/>
<path d="M243.346 312.632H252.037V303.947H243.346V312.632Z" fill="#C63C25"/>
<path d="M234.655 312.632H243.346V303.947H234.655V312.632Z" fill="#C63C25"/>
<path d="M225.964 312.632H234.655V303.947H225.964V312.632Z" fill="#C63C25"/>
<path d="M217.273 312.632H225.964V303.947H217.273V312.632Z" fill="#C63C25"/>
<path d="M208.583 312.632H217.273V303.947H208.583V312.632Z" fill="#100F0D"/>
<path d="M199.892 312.632H208.583V303.947H199.892V312.632Z" fill="#C63C25"/>
<path d="M191.2 312.632H199.891V303.947H191.2V312.632Z" fill="#C63C25"/>
<path d="M182.51 312.632H191.2V303.947H182.51V312.632Z" fill="#F47527"/>
<path d="M173.819 312.632H182.51V303.947H173.819V312.632Z" fill="#F47527"/>
<path d="M165.128 312.632H173.819V303.947H165.128V312.632Z" fill="#F47527"/>
<path d="M156.437 312.632H165.128V303.947H156.437V312.632Z" fill="#F47527"/>
<path d="M147.746 312.632H156.437V303.947H147.746V312.632Z" fill="#1D1312"/>
<path d="M139.055 312.632H147.746V303.947H139.055V312.632Z" fill="#C63C25"/>
<path d="M130.364 312.632H139.055V303.947H130.364V312.632Z" fill="#F47527"/>
<path d="M121.673 312.632H130.364V303.947H121.673V312.632Z" fill="#F47527"/>
<path d="M112.982 312.632H121.673V303.947H112.982V312.632Z" fill="#F47527"/>
<path d="M104.291 312.632H112.982V303.947H104.291V312.632Z" fill="#100F0D"/>
<path d="M95.6001 312.632H104.291V303.947H95.6001V312.632Z" fill="#F47527"/>
<path d="M86.9092 312.632H95.6001V303.947H86.9092V312.632Z" fill="#F47527"/>
<path d="M78.2183 312.632H86.9092V303.947H78.2183V312.632Z" fill="#C63C25"/>
<path d="M69.5273 312.632H78.2183V303.947H69.5273V312.632Z" fill="#100F0D"/>
<path d="M60.8364 312.632H69.5274V303.947H60.8364V312.632Z" fill="#F47527"/>
<path d="M52.1455 312.632H60.8364V303.947H52.1455V312.632Z" fill="#F47527"/>
<path d="M43.4546 312.632H52.1455V303.947H43.4546V312.632Z" fill="#C63C25"/>
<path d="M34.7637 312.632H43.4546V303.947H34.7637V312.632Z" fill="#100F0D"/>
<path d="M269.419 303.948H278.11V295.263H269.419V303.948Z" fill="#100F0D"/>
<path d="M260.728 303.948H269.419V295.263H260.728V303.948Z" fill="#100F0D"/>
<path d="M252.037 303.948H260.728V295.263H252.037V303.948Z" fill="#100F0D"/>
<path d="M243.346 303.948H252.037V295.263H243.346V303.948Z" fill="#C63C25"/>
<path d="M234.655 303.948H243.346V295.263H234.655V303.948Z" fill="#E65226"/>
<path d="M225.964 303.948H234.655V295.263H225.964V303.948Z" fill="#E65226"/>
<path d="M217.273 303.948H225.964V295.263H217.273V303.948Z" fill="#E65226"/>
<path d="M208.583 303.948H217.273V295.263H208.583V303.948Z" fill="#100F0D"/>
<path d="M199.892 303.948H208.583V295.263H199.892V303.948Z" fill="#C63C25"/>
<path d="M191.2 303.948H199.891V295.263H191.2V303.948Z" fill="#F47527"/>
<path d="M182.51 303.948H191.2V295.263H182.51V303.948Z" fill="#F47527"/>
<path d="M173.819 303.948H182.51V295.263H173.819V303.948Z" fill="#F47527"/>
<path d="M165.128 303.948H173.819V295.263H165.128V303.948Z" fill="#F47527"/>
<path d="M156.437 303.948H165.128V295.263H156.437V303.948Z" fill="#E65226"/>
<path d="M147.746 303.948H156.437V295.263H147.746V303.948Z" fill="#1E1312"/>
<path d="M139.055 303.948H147.746V295.263H139.055V303.948Z" fill="#F47527"/>
<path d="M130.364 303.948H139.055V295.263H130.364V303.948Z" fill="#F47527"/>
<path d="M121.673 303.948H130.364V295.263H121.673V303.948Z" fill="#F47527"/>
<path d="M112.982 303.948H121.673V295.263H112.982V303.948Z" fill="#F47527"/>
<path d="M104.291 303.948H112.982V295.263H104.291V303.948Z" fill="#100F0D"/>
<path d="M95.6001 303.948H104.291V295.263H95.6001V303.948Z" fill="#F47527"/>
<path d="M86.9092 303.948H95.6001V295.263H86.9092V303.948Z" fill="#F47527"/>
<path d="M78.2183 303.948H86.9092V295.263H78.2183V303.948Z" fill="#F47527"/>
<path d="M69.5273 303.948H78.2183V295.263H69.5273V303.948Z" fill="#100F0D"/>
<path d="M60.8364 303.948H69.5274V295.263H60.8364V303.948Z" fill="#F47527"/>
<path d="M52.1455 303.948H60.8364V295.263H52.1455V303.948Z" fill="#F47527"/>
<path d="M43.4546 303.948H52.1455V295.263H43.4546V303.948Z" fill="#F47527"/>
<path d="M34.7637 303.948H43.4546V295.263H34.7637V303.948Z" fill="#C63C25"/>
<path d="M26.0728 303.948H34.7637V295.263H26.0728V303.948Z" fill="#100F0D"/>
<path d="M278.11 295.263H286.801V286.579H278.11V295.263Z" fill="#100F0D"/>
<path d="M269.419 295.263H278.11V286.579H269.419V295.263Z" fill="#C63C25"/>
<path d="M260.728 295.263H269.419V286.579H260.728V295.263Z" fill="#C63C25"/>
<path d="M252.037 295.263H260.728V286.579H252.037V295.263Z" fill="#E65226"/>
<path d="M243.346 295.263H252.037V286.579H243.346V295.263Z" fill="#F47527"/>
<path d="M234.655 295.263H243.346V286.579H234.655V295.263Z" fill="#F47527"/>
<path d="M225.964 295.263H234.655V286.579H225.964V295.263Z" fill="#F47527"/>
<path d="M217.273 295.263H225.964V286.579H217.273V295.263Z" fill="#F47527"/>
<path d="M208.583 295.263H217.273V286.579H208.583V295.263Z" fill="#100F0D"/>
<path d="M199.892 295.263H208.583V286.579H199.892V295.263Z" fill="#F47527"/>
<path d="M191.2 295.263H199.891V286.579H191.2V295.263Z" fill="#F47527"/>
<path d="M182.51 295.263H191.2V286.579H182.51V295.263Z" fill="#F47527"/>
<path d="M173.819 295.263H182.51V286.579H173.819V295.263Z" fill="#F47527"/>
<path d="M165.128 295.263H173.819V286.579H165.128V295.263Z" fill="#F47527"/>
<path d="M156.437 295.263H165.128V286.579H156.437V295.263Z" fill="#E65226"/>
<path d="M147.746 295.263H156.437V286.579H147.746V295.263Z" fill="#100F0D"/>
<path d="M139.055 295.263H147.746V286.579H139.055V295.263Z" fill="#F47527"/>
<path d="M130.364 295.263H139.055V286.579H130.364V295.263Z" fill="#F47527"/>
<path d="M121.673 295.263H130.364V286.579H121.673V295.263Z" fill="#F47527"/>
<path d="M112.982 295.263H121.673V286.579H112.982V295.263Z" fill="#F47527"/>
<path d="M104.291 295.263H112.982V286.579H104.291V295.263Z" fill="#100F0D"/>
<path d="M95.6001 295.263H104.291V286.579H95.6001V295.263Z" fill="#F47527"/>
<path d="M86.9092 295.263H95.6001V286.579H86.9092V295.263Z" fill="#F47527"/>
<path d="M78.2183 295.263H86.9092V286.579H78.2183V295.263Z" fill="#F47527"/>
<path d="M69.5273 295.263H78.2183V286.579H69.5273V295.263Z" fill="#100F0D"/>
<path d="M60.8364 295.263H69.5274V286.579H60.8364V295.263Z" fill="#F47527"/>
<path d="M52.1455 295.263H60.8364V286.579H52.1455V295.263Z" fill="#F47527"/>
<path d="M43.4546 295.263H52.1455V286.579H43.4546V295.263Z" fill="#F47527"/>
<path d="M34.7637 295.263H43.4546V286.579H34.7637V295.263Z" fill="#F47527"/>
<path d="M26.0728 295.263H34.7637V286.579H26.0728V295.263Z" fill="#100F0D"/>
<path d="M286.801 286.579H295.492V277.895H286.801V286.579Z" fill="#100F0D"/>
<path d="M278.11 286.579H286.801V277.895H278.11V286.579Z" fill="#100F0D"/>
<path d="M269.419 286.579H278.11V277.895H269.419V286.579Z" fill="#C63C25"/>
<path d="M260.728 286.579H269.419V277.895H260.728V286.579Z" fill="#E65226"/>
<path d="M252.037 286.579H260.728V277.895H252.037V286.579Z" fill="#F47527"/>
<path d="M243.346 286.579H252.037V277.895H243.346V286.579Z" fill="#F47527"/>
<path d="M234.655 286.579H243.346V277.895H234.655V286.579Z" fill="#F47527"/>
<path d="M225.964 286.579H234.655V277.895H225.964V286.579Z" fill="#F47527"/>
<path d="M217.273 286.579H225.964V277.895H217.273V286.579Z" fill="#F47527"/>
<path d="M208.583 286.579H217.273V277.895H208.583V286.579Z" fill="#100F0D"/>
<path d="M199.892 286.579H208.583V277.895H199.892V286.579Z" fill="#F47527"/>
<path d="M191.2 286.579H199.891V277.895H191.2V286.579Z" fill="#F47527"/>
<path d="M182.51 286.579H191.2V277.895H182.51V286.579Z" fill="#F47527"/>
<path d="M173.819 286.579H182.51V277.895H173.819V286.579Z" fill="#F47527"/>
<path d="M165.128 286.579H173.819V277.895H165.128V286.579Z" fill="#F47527"/>
<path d="M156.437 286.579H165.128V277.895H156.437V286.579Z" fill="#E65226"/>
<path d="M147.746 286.579H156.437V277.895H147.746V286.579Z" fill="#100F0D"/>
<path d="M139.055 286.579H147.746V277.895H139.055V286.579Z" fill="#F47527"/>
<path d="M130.364 286.579H139.055V277.895H130.364V286.579Z" fill="#F47527"/>
<path d="M121.673 286.579H130.364V277.895H121.673V286.579Z" fill="#F47527"/>
<path d="M112.982 286.579H121.673V277.895H112.982V286.579Z" fill="#F47527"/>
<path d="M104.291 286.579H112.982V277.895H104.291V286.579Z" fill="#100F0D"/>
<path d="M95.6001 286.579H104.291V277.895H95.6001V286.579Z" fill="#F47527"/>
<path d="M86.9092 286.579H95.6001V277.895H86.9092V286.579Z" fill="#F47527"/>
<path d="M78.2183 286.579H86.9092V277.895H78.2183V286.579Z" fill="#F47527"/>
<path d="M69.5273 286.579H78.2183V277.895H69.5273V286.579Z" fill="#100F0D"/>
<path d="M60.8364 286.579H69.5274V277.895H60.8364V286.579Z" fill="#F47527"/>
<path d="M52.1455 286.579H60.8364V277.895H52.1455V286.579Z" fill="#F47527"/>
<path d="M43.4546 286.579H52.1455V277.895H43.4546V286.579Z" fill="#100F0D"/>
<path d="M34.7637 286.579H43.4546V277.895H34.7637V286.579Z" fill="#100F0D"/>
<path d="M286.801 277.895H295.492V269.211H286.801V277.895Z" fill="#100F0D"/>
<path d="M278.11 277.895H286.801V269.211H278.11V277.895Z" fill="#C63C25"/>
<path d="M269.419 277.895H278.11V269.211H269.419V277.895Z" fill="#E65226"/>
<path d="M260.728 277.895H269.419V269.211H260.728V277.895Z" fill="#F47527"/>
<path d="M252.037 277.895H260.728V269.211H252.037V277.895Z" fill="#F47527"/>
<path d="M243.346 277.895H252.037V269.211H243.346V277.895Z" fill="#F47527"/>
<path d="M234.655 277.895H243.346V269.211H234.655V277.895Z" fill="#F47527"/>
<path d="M225.964 277.895H234.655V269.211H225.964V277.895Z" fill="#F47527"/>
<path d="M217.273 277.895H225.964V269.211H217.273V277.895Z" fill="#100F0D"/>
<path d="M208.583 277.895H217.273V269.211H208.583V277.895Z" fill="#100F0D"/>
<path d="M199.892 277.895H208.583V269.211H199.892V277.895Z" fill="#F47527"/>
<path d="M191.2 277.895H199.891V269.211H191.2V277.895Z" fill="#F47527"/>
<path d="M182.51 277.895H191.2V269.211H182.51V277.895Z" fill="#F47527"/>
<path d="M173.819 277.895H182.51V269.211H173.819V277.895Z" fill="#F47527"/>
<path d="M165.128 277.895H173.819V269.211H165.128V277.895Z" fill="#F47527"/>
<path d="M156.437 277.895H165.128V269.211H156.437V277.895Z" fill="#100F0D"/>
<path d="M147.746 277.895H156.437V269.211H147.746V277.895Z" fill="#100F0D"/>
<path d="M139.055 277.895H147.746V269.211H139.055V277.895Z" fill="#F47527"/>
<path d="M130.364 277.895H139.055V269.211H130.364V277.895Z" fill="#F47527"/>
<path d="M121.673 277.895H130.364V269.211H121.673V277.895Z" fill="#F47527"/>
<path d="M112.982 277.895H121.673V269.211H112.982V277.895Z" fill="#E65226"/>
<path d="M104.291 277.895H112.982V269.211H104.291V277.895Z" fill="#100F0D"/>
<path d="M95.6001 277.895H104.291V269.211H95.6001V277.895Z" fill="#E65226"/>
<path d="M86.9092 277.895H95.6001V269.211H86.9092V277.895Z" fill="#F47527"/>
<path d="M78.2183 277.895H86.9092V269.211H78.2183V277.895Z" fill="#F47527"/>
<path d="M69.5273 277.895H78.2183V269.211H69.5273V277.895Z" fill="#100F0D"/>
<path d="M60.8364 277.895H69.5274V269.211H60.8364V277.895Z" fill="#F47527"/>
<path d="M52.1455 277.895H60.8364V269.211H52.1455V277.895Z" fill="#100F0D"/>
<path d="M295.492 269.21H304.183V260.526H295.492V269.21Z" fill="#100F0D"/>
<path d="M286.801 269.21H295.492V260.526H286.801V269.21Z" fill="#E7DBD7"/>
<path d="M278.11 269.21H286.801V260.526H278.11V269.21Z" fill="#E65226"/>
<path d="M269.419 269.21H278.11V260.526H269.419V269.21Z" fill="#F47527"/>
<path d="M260.728 269.21H269.419V260.526H260.728V269.21Z" fill="#F47527"/>
<path d="M252.037 269.21H260.728V260.526H252.037V269.21Z" fill="#F47527"/>
<path d="M243.346 269.21H252.037V260.526H243.346V269.21Z" fill="#F47527"/>
<path d="M234.655 269.21H243.346V260.526H234.655V269.21Z" fill="#F47527"/>
<path d="M225.964 269.21H234.655V260.526H225.964V269.21Z" fill="#100F0D"/>
<path d="M208.583 269.21H217.273V260.526H208.583V269.21Z" fill="#100F0D"/>
<path d="M199.892 269.21H208.583V260.526H199.892V269.21Z" fill="#F47527"/>
<path d="M191.2 269.21H199.891V260.526H191.2V269.21Z" fill="#F47527"/>
<path d="M182.51 269.21H191.2V260.526H182.51V269.21Z" fill="#F47527"/>
<path d="M173.819 269.21H182.51V260.526H173.819V269.21Z" fill="#F47527"/>
<path d="M165.128 269.21H173.819V260.526H165.128V269.21Z" fill="#E65226"/>
<path d="M156.437 269.21H165.128V260.526H156.437V269.21Z" fill="#100F0D"/>
<path d="M147.746 269.21H156.437V260.526H147.746V269.21Z" fill="#F47527"/>
<path d="M139.055 269.21H147.746V260.526H139.055V269.21Z" fill="#F47527"/>
<path d="M130.364 269.21H139.055V260.526H130.364V269.21Z" fill="#F47527"/>
<path d="M121.673 269.21H130.364V260.526H121.673V269.21Z" fill="#E65226"/>
<path d="M112.982 269.21H121.673V260.526H112.982V269.21Z" fill="#100F0D"/>
<path d="M104.291 269.21H112.982V260.526H104.291V269.21Z" fill="#100F0D"/>
<path d="M95.6001 269.21H104.291V260.526H95.6001V269.21Z" fill="#100F0D"/>
<path d="M86.9092 269.21H95.6001V260.526H86.9092V269.21Z" fill="#100F0D"/>
<path d="M78.2183 269.21H86.9092V260.526H78.2183V269.21Z" fill="#F47527"/>
<path d="M69.5273 269.21H78.2183V260.526H69.5273V269.21Z" fill="#F47527"/>
<path d="M60.8364 269.21H69.5274V260.526H60.8364V269.21Z" fill="#F47527"/>
<path d="M52.1455 269.21H60.8364V260.526H52.1455V269.21Z" fill="#100F0D"/>
<path d="M295.492 260.526H304.183V251.842H295.492V260.526Z" fill="#100F0D"/>
<path d="M286.801 260.526H295.492V251.842H286.801V260.526Z" fill="#E7DBD7"/>
<path d="M278.11 260.526H286.801V251.842H278.11V260.526Z" fill="#E9DFE0"/>
<path d="M269.419 260.526H278.11V251.842H269.419V260.526Z" fill="#E7DBD7"/>
<path d="M260.728 260.526H269.419V251.842H260.728V260.526Z" fill="#F47527"/>
<path d="M252.037 260.526H260.728V251.842H252.037V260.526Z" fill="#F47527"/>
<path d="M243.346 260.526H252.037V251.842H243.346V260.526Z" fill="#F47527"/>
<path d="M234.655 260.526H243.346V251.842H234.655V260.526Z" fill="#100F0D"/>
<path d="M225.964 260.526H234.655V251.842H225.964V260.526Z" fill="#100F0D"/>
<path d="M208.583 260.526H217.273V251.842H208.583V260.526Z" fill="#100F0D"/>
<path d="M199.892 260.526H208.583V251.842H199.892V260.526Z" fill="#100F0D"/>
<path d="M191.2 260.526H199.891V251.842H191.2V260.526Z" fill="#F47527"/>
<path d="M182.51 260.526H191.2V251.842H182.51V260.526Z" fill="#F47527"/>
<path d="M173.819 260.526H182.51V251.842H173.819V260.526Z" fill="#E65226"/>
<path d="M165.128 260.526H173.819V251.842H165.128V260.526Z" fill="#100F0D"/>
<path d="M156.437 260.526H165.128V251.842H156.437V260.526Z" fill="#F47527"/>
<path d="M147.746 260.526H156.437V251.842H147.746V260.526Z" fill="#F47527"/>
<path d="M139.055 260.526H147.746V251.842H139.055V260.526Z" fill="#F47527"/>
<path d="M130.364 260.526H139.055V251.842H130.364V260.526Z" fill="#E65226"/>
<path d="M121.673 260.526H130.364V251.842H121.673V260.526Z" fill="#E65226"/>
<path d="M112.982 260.526H121.673V251.842H112.982V260.526Z" fill="#100F0D"/>
<path d="M104.291 260.526H112.982V251.842H104.291V260.526Z" fill="#E5C2BF"/>
<path d="M95.6001 260.526H104.291V251.842H95.6001V260.526Z" fill="#E5C2BF"/>
<path d="M86.9092 260.526H95.6001V251.842H86.9092V260.526Z" fill="#100F0D"/>
<path d="M78.2183 260.526H86.9092V251.842H78.2183V260.526Z" fill="#E65226"/>
<path d="M69.5273 260.526H78.2183V251.842H69.5273V260.526Z" fill="#F47527"/>
<path d="M60.8364 260.526H69.5274V251.842H60.8364V260.526Z" fill="#F47527"/>
<path d="M52.1455 260.526H60.8364V251.842H52.1455V260.526Z" fill="#100F0D"/>
<path d="M295.492 251.842H304.183V243.158H295.492V251.842Z" fill="#100F0D"/>
<path d="M286.801 251.842H295.492V243.158H286.801V251.842Z" fill="#E7DBD7"/>
<path d="M278.11 251.842H286.801V243.158H278.11V251.842Z" fill="#E7DBD7"/>
<path d="M269.419 251.842H278.11V243.158H269.419V251.842Z" fill="#E7DBD7"/>
<path d="M260.728 251.842H269.419V243.158H260.728V251.842Z" fill="#E7DBD7"/>
<path d="M252.037 251.842H260.728V243.158H252.037V251.842Z" fill="#E7DBD7"/>
<path d="M243.346 251.842H252.037V243.158H243.346V251.842Z" fill="#100F0D"/>
<path d="M234.655 251.842H243.346V243.158H234.655V251.842Z" fill="#100F0D"/>
<path d="M199.892 251.842H208.583V243.158H199.892V251.842Z" fill="#100F0D"/>
<path d="M191.2 251.842H199.891V243.158H191.2V251.842Z" fill="#C63C25"/>
<path d="M182.51 251.842H191.2V243.158H182.51V251.842Z" fill="#E44D27"/>
<path d="M173.819 251.842H182.51V243.158H173.819V251.842Z" fill="#E44D27"/>
<path d="M165.128 251.842H173.819V243.158H165.128V251.842Z" fill="#E15123"/>
<path d="M156.437 251.842H165.128V243.158H156.437V251.842Z" fill="#E65226"/>
<path d="M147.746 251.842H156.437V243.158H147.746V251.842Z" fill="#E65226"/>
<path d="M139.055 251.842H147.746V243.158H139.055V251.842Z" fill="#E65226"/>
<path d="M130.364 251.842H139.055V243.158H130.364V251.842Z" fill="#E65226"/>
<path d="M121.673 251.842H130.364V243.158H121.673V251.842Z" fill="#100F0D"/>
<path d="M112.982 251.842H121.673V243.158H112.982V251.842Z" fill="#100F0D"/>
<path d="M104.291 251.842H112.982V243.158H104.291V251.842Z" fill="#E5C2BF"/>
<path d="M95.6001 251.842H104.291V243.158H95.6001V251.842Z" fill="#E5C2BF"/>
<path d="M86.9092 251.842H95.6001V243.158H86.9092V251.842Z" fill="#100F0D"/>
<path d="M78.2183 251.842H86.9092V243.158H78.2183V251.842Z" fill="#E65226"/>
<path d="M69.5273 251.842H78.2183V243.158H69.5273V251.842Z" fill="#E65226"/>
<path d="M60.8364 251.842H69.5274V243.158H60.8364V251.842Z" fill="#F47527"/>
<path d="M52.1455 251.842H60.8364V243.158H52.1455V251.842Z" fill="#100F0D"/>
<path d="M295.492 243.158H304.183V234.474H295.492V243.158Z" fill="#100F0D"/>
<path d="M286.801 243.158H295.492V234.474H286.801V243.158Z" fill="#E7DBD7"/>
<path d="M278.11 243.158H286.801V234.474H278.11V243.158Z" fill="#E7DBD7"/>
<path d="M269.419 243.158H278.11V234.474H269.419V243.158Z" fill="#E7DBD7"/>
<path d="M260.728 243.158H269.419V234.474H260.728V243.158Z" fill="#FBFCE4"/>
<path d="M252.037 243.158H260.728V234.474H252.037V243.158Z" fill="#FBFCE4"/>
<path d="M243.346 243.158H252.037V234.474H243.346V243.158Z" fill="#201314"/>
<path d="M191.2 243.158H199.891V234.474H191.2V243.158Z" fill="#100F0D"/>
<path d="M182.51 243.158H191.2V234.474H182.51V243.158Z" fill="#C63C25"/>
<path d="M173.819 243.158H182.51V234.474H173.819V243.158Z" fill="#E65226"/>
<path d="M165.128 243.158H173.819V234.474H165.128V243.158Z" fill="#E15123"/>
<path d="M156.437 243.158H165.128V234.474H156.437V243.158Z" fill="#E65226"/>
<path d="M147.746 243.158H156.437V234.474H147.746V243.158Z" fill="#100F0D"/>
<path d="M139.055 243.158H147.746V234.474H139.055V243.158Z" fill="#100F0D"/>
<path d="M130.364 243.158H139.055V234.474H130.364V243.158Z" fill="#100F0D"/>
<path d="M121.673 243.158H130.364V234.474H121.673V243.158Z" fill="#E5BEC0"/>
<path d="M112.982 243.158H121.673V234.474H112.982V243.158Z" fill="#E5C3C2"/>
<path d="M104.291 243.158H112.982V234.474H104.291V243.158Z" fill="#FBFCE4"/>
<path d="M95.6001 243.158H104.291V234.474H95.6001V243.158Z" fill="#FBFCE4"/>
<path d="M86.9092 243.158H95.6001V234.474H86.9092V243.158Z" fill="#E5C2BF"/>
<path d="M78.2183 243.158H86.9092V234.474H78.2183V243.158Z" fill="#100F0D"/>
<path d="M69.5273 243.158H78.2183V234.474H69.5273V243.158Z" fill="#100F0D"/>
<path d="M60.8364 243.158H69.5274V234.474H60.8364V243.158Z" fill="#E65226"/>
<path d="M52.1455 243.158H60.8364V234.474H52.1455V243.158Z" fill="#100F0D"/>
<path d="M295.492 234.474H304.183V225.789H295.492V234.474Z" fill="#100F0D"/>
<path d="M286.801 234.474H295.492V225.789H286.801V234.474Z" fill="#E7DBD7"/>
<path d="M278.11 234.474H286.801V225.789H278.11V234.474Z" fill="#FBFCE4"/>
<path d="M269.419 234.474H278.11V225.789H269.419V234.474Z" fill="#FBFCE4"/>
<path d="M260.728 234.474H269.419V225.789H260.728V234.474Z" fill="#FBFCE4"/>
<path d="M252.037 234.474H260.728V225.789H252.037V234.474Z" fill="#FBFCE4"/>
<path d="M243.346 234.474H252.037V225.789H243.346V234.474Z" fill="#100F0D"/>
<path d="M191.2 234.474H199.891V225.789H191.2V234.474Z" fill="#100F0D"/>
<path d="M182.51 234.474H191.2V225.789H182.51V234.474Z" fill="#C63C25"/>
<path d="M173.819 234.474H182.51V225.789H173.819V234.474Z" fill="#E8572E"/>
<path d="M165.128 234.474H173.819V225.789H165.128V234.474Z" fill="#100F0D"/>
<path d="M156.437 234.474H165.128V225.789H156.437V234.474Z" fill="#100F0D"/>
<path d="M147.746 234.474H156.437V225.789H147.746V234.474Z" fill="#100F0D"/>
<path d="M139.055 234.474H147.746V225.789H139.055V234.474Z" fill="#E5BEC0"/>
<path d="M130.364 234.474H139.055V225.789H130.364V234.474Z" fill="#E5BEC0"/>
<path d="M121.673 234.474H130.364V225.789H121.673V234.474Z" fill="#E5BEC0"/>
<path d="M112.982 234.474H121.673V225.789H112.982V234.474Z" fill="#FBFCE4"/>
<path d="M104.291 234.474H112.982V225.789H104.291V234.474Z" fill="#FBFCE4"/>
<path d="M95.6001 234.474H104.291V225.789H95.6001V234.474Z" fill="#FBFCE4"/>
<path d="M86.9092 234.474H95.6001V225.789H86.9092V234.474Z" fill="#FBFCE4"/>
<path d="M78.2183 234.474H86.9092V225.789H78.2183V234.474Z" fill="#E5C2BF"/>
<path d="M69.5273 234.474H78.2183V225.789H69.5273V234.474Z" fill="#E5C2BF"/>
<path d="M60.8364 234.474H69.5274V225.789H60.8364V234.474Z" fill="#100F0D"/>
<path d="M52.1455 234.474H60.8364V225.789H52.1455V234.474Z" fill="#100F0D"/>
<path d="M295.492 225.79H304.183V217.105H295.492V225.79Z" fill="#100F0D"/>
<path d="M286.801 225.79H295.492V217.105H286.801V225.79Z" fill="#FBFCE4"/>
<path d="M278.11 225.79H286.801V217.105H278.11V225.79Z" fill="#FBFCE4"/>
<path d="M269.419 225.79H278.11V217.105H269.419V225.79Z" fill="#FBFCE4"/>
<path d="M260.728 225.79H269.419V217.105H260.728V225.79Z" fill="#FBFCE4"/>
<path d="M252.037 225.79H260.728V217.105H252.037V225.79Z" fill="#FBFCE4"/>
<path d="M243.346 225.79H252.037V217.105H243.346V225.79Z" fill="#100F0D"/>
<path d="M199.892 225.79H208.583V217.105H199.892V225.79Z" fill="#100F0D"/>
<path d="M191.2 225.79H199.891V217.105H191.2V225.79Z" fill="#100F0D"/>
<path d="M182.51 225.79H191.2V217.105H182.51V225.79Z" fill="#100F0D"/>
<path d="M173.819 225.79H182.51V217.105H173.819V225.79Z" fill="#100F0D"/>
<path d="M165.128 225.79H173.819V217.105H165.128V225.79Z" fill="#100F0D"/>
<path d="M156.437 225.79H165.128V217.105H156.437V225.79Z" fill="#FBFCE4"/>
<path d="M147.746 225.79H156.437V217.105H147.746V225.79Z" fill="#FBFCE4"/>
<path d="M139.055 225.79H147.746V217.105H139.055V225.79Z" fill="#FBFCE4"/>
<path d="M130.364 225.79H139.055V217.105H130.364V225.79Z" fill="#FBFCE4"/>
<path d="M121.673 225.79H130.364V217.105H121.673V225.79Z" fill="#FBFCE4"/>
<path d="M112.982 225.79H121.673V217.105H112.982V225.79Z" fill="#FBFCE4"/>
<path d="M104.291 225.79H112.982V217.105H104.291V225.79Z" fill="#FBFCE4"/>
<path d="M95.6001 225.79H104.291V217.105H95.6001V225.79Z" fill="#FBFCE4"/>
<path d="M86.9092 225.79H95.6001V217.105H86.9092V225.79Z" fill="#FBFCE4"/>
<path d="M78.2183 225.79H86.9092V217.105H78.2183V225.79Z" fill="#FBFCE4"/>
<path d="M69.5273 225.79H78.2183V217.105H69.5273V225.79Z" fill="#FBFCE4"/>
<path d="M60.8364 225.79H69.5274V217.105H60.8364V225.79Z" fill="#FBFCE4"/>
<path d="M52.1455 225.79H60.8364V217.105H52.1455V225.79Z" fill="#100F0D"/>
<path d="M43.4546 225.79H52.1455V217.105H43.4546V225.79Z" fill="#100F0D"/>
<path d="M34.7637 225.79H43.4546V217.105H34.7637V225.79Z" fill="#100F0D"/>
<path d="M26.0728 225.79H34.7637V217.105H26.0728V225.79Z" fill="#100F0D"/>
<path d="M286.801 217.105H295.492V208.421H286.801V217.105Z" fill="#100F0D"/>
<path d="M278.11 217.105H286.801V208.421H278.11V217.105Z" fill="#FBFCE4"/>
<path d="M269.419 217.105H278.11V208.421H269.419V217.105Z" fill="#FBFCE4"/>
<path d="M260.728 217.105H269.419V208.421H260.728V217.105Z" fill="#FBFCE4"/>
<path d="M252.037 217.105H260.728V208.421H252.037V217.105Z" fill="#FBFCE4"/>
<path d="M243.346 217.105H252.037V208.421H243.346V217.105Z" fill="#100F0D"/>
<path d="M191.2 217.105H199.891V208.421H191.2V217.105Z" fill="#242326"/>
<path d="M182.51 217.105H191.2V208.421H182.51V217.105Z" fill="#FBFCE4"/>
<path d="M173.819 217.105H182.51V208.421H173.819V217.105Z" fill="#FBFCE4"/>
<path d="M165.128 217.105H173.819V208.421H165.128V217.105Z" fill="#FBFCE4"/>
<path d="M156.437 217.105H165.128V208.421H156.437V217.105Z" fill="#FBFCE4"/>
<path d="M147.746 217.105H156.437V208.421H147.746V217.105Z" fill="#FBFCE4"/>
<path d="M139.055 217.105H147.746V208.421H139.055V217.105Z" fill="#FBFCE4"/>
<path d="M130.364 217.105H139.055V208.421H130.364V217.105Z" fill="#FBFCE4"/>
<path d="M121.673 217.105H130.364V208.421H121.673V217.105Z" fill="#FBFCE4"/>
<path d="M112.982 217.105H121.673V208.421H112.982V217.105Z" fill="#FBFCE4"/>
<path d="M104.291 217.105H112.982V208.421H104.291V217.105Z" fill="#FBFCE4"/>
<path d="M95.6001 217.105H104.291V208.421H95.6001V217.105Z" fill="#FBFCE4"/>
<path d="M86.9092 217.105H95.6001V208.421H86.9092V217.105Z" fill="#FBFCE4"/>
<path d="M78.2183 217.105H86.9092V208.421H78.2183V217.105Z" fill="#FBFCE4"/>
<path d="M69.5273 217.105H78.2183V208.421H69.5273V217.105Z" fill="#FBFCE4"/>
<path d="M60.8364 217.105H69.5274V208.421H60.8364V217.105Z" fill="#FBFCE4"/>
<path d="M52.1455 217.105H60.8364V208.421H52.1455V217.105Z" fill="#FBFCE4"/>
<path d="M43.4546 217.105H52.1455V208.421H43.4546V217.105Z" fill="#FBFCE4"/>
<path d="M34.7637 217.105H43.4546V208.421H34.7637V217.105Z" fill="#100F0D"/>
<path d="M278.11 208.421H286.801V199.737H278.11V208.421Z" fill="#100F0D"/>
<path d="M269.419 208.421H278.11V199.737H269.419V208.421Z" fill="#FBFCE4"/>
<path d="M260.728 208.421H269.419V199.737H260.728V208.421Z" fill="#FBFCE4"/>
<path d="M252.037 208.421H260.728V199.737H252.037V208.421Z" fill="#FBFCE4"/>
<path d="M243.346 208.421H252.037V199.737H243.346V208.421Z" fill="#100F0D"/>
<path d="M199.892 208.421H208.583V199.737H199.892V208.421Z" fill="#100F0D"/>
<path d="M191.2 208.421H199.891V199.737H191.2V208.421Z" fill="#100F0D"/>
<path d="M182.51 208.421H191.2V199.737H182.51V208.421Z" fill="#FBFCE4"/>
<path d="M173.819 208.421H182.51V199.737H173.819V208.421Z" fill="#FBFCE4"/>
<path d="M165.128 208.421H173.819V199.737H165.128V208.421Z" fill="#FBFCE4"/>
<path d="M156.437 208.421H165.128V199.737H156.437V208.421Z" fill="#FBFCE4"/>
<path d="M147.746 208.421H156.437V199.737H147.746V208.421Z" fill="#FBFCE4"/>
<path d="M139.055 208.421H147.746V199.737H139.055V208.421Z" fill="#FBFCE4"/>
<path d="M130.364 208.421H139.055V199.737H130.364V208.421Z" fill="#DEBBBF"/>
<path d="M121.673 208.421H130.364V199.737H121.673V208.421Z" fill="#FBFCE4"/>
<path d="M112.982 208.421H121.673V199.737H112.982V208.421Z" fill="#FBFCE4"/>
<path d="M104.291 208.421H112.982V199.737H104.291V208.421Z" fill="#FBFCE4"/>
<path d="M95.6001 208.421H104.291V199.737H95.6001V208.421Z" fill="#FBFCE4"/>
<path d="M86.9092 208.421H95.6001V199.737H86.9092V208.421Z" fill="#FBFCE4"/>
<path d="M78.2183 208.421H86.9092V199.737H78.2183V208.421Z" fill="#E4C3CB"/>
<path d="M69.5273 208.421H78.2183V199.737H69.5273V208.421Z" fill="#FBFCE4"/>
<path d="M60.8364 208.421H69.5274V199.737H60.8364V208.421Z" fill="#FBFCE4"/>
<path d="M52.1455 208.421H60.8364V199.737H52.1455V208.421Z" fill="#FBFCE4"/>
<path d="M43.4546 208.421H52.1455V199.737H43.4546V208.421Z" fill="#FBFCE4"/>
<path d="M34.7637 208.421H43.4546V199.737H34.7637V208.421Z" fill="#100F0D"/>
<path d="M269.419 199.737H278.11V191.053H269.419V199.737Z" fill="#100F0D"/>
<path d="M260.728 199.737H269.419V191.053H260.728V199.737Z" fill="#FBFCE4"/>
<path d="M252.037 199.737H260.728V191.053H252.037V199.737Z" fill="#FBFCE4"/>
<path d="M243.346 199.737H252.037V191.053H243.346V199.737Z" fill="#100F0D"/>
<path d="M199.892 199.737H208.583V191.053H199.892V199.737Z" fill="#100F0D"/>
<path d="M191.2 199.737H199.891V191.053H191.2V199.737Z" fill="#FBFCE4"/>
<path d="M182.51 199.737H191.2V191.053H182.51V199.737Z" fill="#FBFCE4"/>
<path d="M173.819 199.737H182.51V191.053H173.819V199.737Z" fill="#FBFCE4"/>
<path d="M165.128 199.737H173.819V191.053H165.128V199.737Z" fill="#FBFCE4"/>
<path d="M156.437 199.737H165.128V191.053H156.437V199.737Z" fill="#FBFCE4"/>
<path d="M147.746 199.737H156.437V191.053H147.746V199.737Z" fill="#FBFCE4"/>
<path d="M139.055 199.737H147.746V191.053H139.055V199.737Z" fill="#DEBBBF"/>
<path d="M130.364 199.737H139.055V191.053H130.364V199.737Z" fill="#FBFCE4"/>
<path d="M121.673 199.737H130.364V191.053H121.673V199.737Z" fill="#FBFCE4"/>
<path d="M112.982 199.737H121.673V191.053H112.982V199.737Z" fill="#FBFCE4"/>
<path d="M104.291 199.737H112.982V191.053H104.291V199.737Z" fill="#FBFCE4"/>
<path d="M95.6001 199.737H104.291V191.053H95.6001V199.737Z" fill="#FBFCE4"/>
<path d="M86.9092 199.737H95.6001V191.053H86.9092V199.737Z" fill="#FBFCE4"/>
<path d="M78.2183 199.737H86.9092V191.053H78.2183V199.737Z" fill="#FBFCE4"/>
<path d="M69.5273 199.737H78.2183V191.053H69.5273V199.737Z" fill="#E4C3CB"/>
<path d="M60.8364 199.737H69.5274V191.053H60.8364V199.737Z" fill="#FBFCE4"/>
<path d="M52.1455 199.737H60.8364V191.053H52.1455V199.737Z" fill="#100F0D"/>
<path d="M43.4546 199.737H52.1455V191.053H43.4546V199.737Z" fill="#100F0D"/>
<path d="M260.728 191.053H269.419V182.369H260.728V191.053Z" fill="#100F0D"/>
<path d="M252.037 191.053H260.728V182.369H252.037V191.053Z" fill="#FBFCE4"/>
<path d="M252.037 182.368H260.728V173.684H252.037V182.368Z" fill="#100F0D"/>
<path d="M243.346 191.053H252.037V182.369H243.346V191.053Z" fill="#100F0D"/>
<path d="M191.2 191.053H199.891V182.369H191.2V191.053Z" fill="#100F0D"/>
<path d="M182.51 191.053H191.2V182.369H182.51V191.053Z" fill="#100F0D"/>
<path d="M173.819 191.053H182.51V182.369H173.819V191.053Z" fill="#100F0D"/>
<path d="M165.128 191.053H173.819V182.369H165.128V191.053Z" fill="#DEBBBF"/>
<path d="M156.437 191.053H165.128V182.369H156.437V191.053Z" fill="#DEBBBF"/>
<path d="M147.746 191.053H156.437V182.369H147.746V191.053Z" fill="#DEBBBF"/>
<path d="M139.055 191.053H147.746V182.369H139.055V191.053Z" fill="#FBFCE4"/>
<path d="M130.364 191.053H139.055V182.369H130.364V191.053Z" fill="#FBFCE4"/>
<path d="M121.673 191.053H130.364V182.369H121.673V191.053Z" fill="#FBFCE4"/>
<path d="M112.982 191.053H121.673V182.369H112.982V191.053Z" fill="#FBFCE4"/>
<path d="M104.291 191.053H112.982V182.369H104.291V191.053Z" fill="#FBFCE4"/>
<path d="M95.6001 191.053H104.291V182.369H95.6001V191.053Z" fill="#FBFCE4"/>
<path d="M86.9092 191.053H95.6001V182.369H86.9092V191.053Z" fill="#FBFCE4"/>
<path d="M78.2183 191.053H86.9092V182.369H78.2183V191.053Z" fill="#FBFCE4"/>
<path d="M69.5273 191.053H78.2183V182.369H69.5273V191.053Z" fill="#FBFCE4"/>
<path d="M60.8364 191.053H69.5274V182.369H60.8364V191.053Z" fill="#E4C3CB"/>
<path d="M52.1455 191.053H60.8364V182.369H52.1455V191.053Z" fill="#100F0D"/>
<path d="M243.346 182.368H252.037V173.684H243.346V182.368Z" fill="#100F0D"/>
<path d="M173.819 182.368H182.51V173.684H173.819V182.368Z" fill="#100F0D"/>
<path d="M165.128 182.368H173.819V173.684H165.128V182.368Z" fill="#DEBBBF"/>
<path d="M156.437 182.368H165.128V173.684H156.437V182.368Z" fill="#DEBBBF"/>
<path d="M147.746 182.368H156.437V173.684H147.746V182.368Z" fill="#FBFCE4"/>
<path d="M139.055 182.368H147.746V173.684H139.055V182.368Z" fill="#FBFCE4"/>
<path d="M130.364 182.368H139.055V173.684H130.364V182.368Z" fill="#FBFCE4"/>
<path d="M121.673 182.368H130.364V173.684H121.673V182.368Z" fill="#FBFCE4"/>
<path d="M112.982 182.368H121.673V173.684H112.982V182.368Z" fill="#FBFCE4"/>
<path d="M104.291 182.368H112.982V173.684H104.291V182.368Z" fill="#FBFCE4"/>
<path d="M95.6001 182.368H104.291V173.684H95.6001V182.368Z" fill="#FBFCE4"/>
<path d="M86.9092 182.368H95.6001V173.684H86.9092V182.368Z" fill="#FBFCE4"/>
<path d="M78.2183 182.368H86.9092V173.684H78.2183V182.368Z" fill="#FBFCE4"/>
<path d="M69.5273 182.368H78.2183V173.684H69.5273V182.368Z" fill="#FBFCE4"/>
<path d="M60.8364 182.368H69.5274V173.684H60.8364V182.368Z" fill="#E4C3CB"/>
<path d="M52.1455 182.368H60.8364V173.684H52.1455V182.368Z" fill="#100F0D"/>
<path d="M199.892 173.684H208.583V165H199.892V173.684Z" fill="#100F0D"/>
<path d="M191.2 173.684H199.891V165H191.2V173.684Z" fill="#100F0D"/>
<path d="M182.51 173.684H191.2V165H182.51V173.684Z" fill="#100F0D"/>
<path d="M173.819 173.684H182.51V165H173.819V173.684Z" fill="#E6BEC1"/>
<path d="M165.128 173.684H173.819V165H165.128V173.684Z" fill="#441C1D"/>
<path d="M156.437 173.684H165.128V165H156.437V173.684Z" fill="#E7C0C3"/>
<path d="M147.746 173.684H156.437V165H147.746V173.684Z" fill="#E7C0C3"/>
<path d="M139.055 173.684H147.746V165H139.055V173.684Z" fill="#E7C0C3"/>
<path d="M130.364 173.684H139.055V165H130.364V173.684Z" fill="#E7C0C3"/>
<path d="M121.673 173.684H130.364V165H121.673V173.684Z" fill="#E1C4C1"/>
<path d="M112.982 173.684H121.673V165H112.982V173.684Z" fill="#E6BAC0"/>
<path d="M104.291 173.684H112.982V165H104.291V173.684Z" fill="#E5BDC0"/>
<path d="M95.6001 173.684H104.291V165H95.6001V173.684Z" fill="#E7BDC1"/>
<path d="M86.9092 173.684H95.6001V165H86.9092V173.684Z" fill="#E6BEC1"/>
<path d="M78.2183 173.684H86.9092V165H78.2183V173.684Z" fill="#E1BFC3"/>
<path d="M69.5273 173.684H78.2183V165H69.5273V173.684Z" fill="#DDC5BC"/>
<path d="M60.8364 173.684H69.5274V165H60.8364V173.684Z" fill="#441C1D"/>
<path d="M52.1455 173.684H60.8364V165H52.1455V173.684Z" fill="#E6BEC1"/>
<path d="M43.4546 173.684H52.1455V165H43.4546V173.684Z" fill="#100F0D"/>
<path d="M34.7637 173.684H43.4546V165H34.7637V173.684Z" fill="#100F0D"/>
<path d="M217.273 165H225.964V156.316H217.273V165Z" fill="#100F0D"/>
<path d="M208.583 165H217.273V156.316H208.583V165Z" fill="#100F0D"/>
<path d="M199.892 165H208.583V156.316H199.892V165Z" fill="#100F0D"/>
<path d="M191.2 165H199.891V156.316H191.2V165Z" fill="#100F0D"/>
<path d="M182.51 165H191.2V156.316H182.51V165Z" fill="#E6BEC1"/>
<path d="M173.819 165H182.51V156.316H173.819V165Z" fill="#E6BEC1"/>
<path d="M165.128 165H173.819V156.316H165.128V165Z" fill="#E6BEC1"/>
<path d="M156.437 165H165.128V156.316H156.437V165Z" fill="#E6BEC1"/>
<path d="M147.746 165H156.437V156.316H147.746V165Z" fill="#E6BEC1"/>
<path d="M139.055 165H147.746V156.316H139.055V165Z" fill="#E5C0C0"/>
<path d="M130.364 165H139.055V156.316H130.364V165Z" fill="#E6C3C2"/>
<path d="M121.673 165H130.364V156.316H121.673V165Z" fill="#E5C0C0"/>
<path d="M112.982 165H121.673V156.316H112.982V165Z" fill="#E5C0C0"/>
<path d="M104.291 165H112.982V156.316H104.291V165Z" fill="#E7C2C4"/>
<path d="M95.6001 165H104.291V156.316H95.6001V165Z" fill="#E6C3C2"/>
<path d="M86.9092 165H95.6001V156.316H86.9092V165Z" fill="#E6C3C2"/>
<path d="M78.2183 165H86.9092V156.316H78.2183V165Z" fill="#E5C0C0"/>
<path d="M69.5273 165H78.2183V156.316H69.5273V165Z" fill="#E3BFBD"/>
<path d="M60.8364 165H69.5274V156.316H60.8364V165Z" fill="#E2C2BE"/>
<path d="M52.1455 165H60.8364V156.316H52.1455V165Z" fill="#E6BEC1"/>
<path d="M43.4546 165H52.1455V156.316H43.4546V165Z" fill="#E6BEC1"/>
<path d="M34.7637 165H43.4546V156.316H34.7637V165Z" fill="#100F0D"/>
<path d="M26.0728 165H34.7637V156.316H26.0728V165Z" fill="#100F0D"/>
<path d="M17.3818 165H26.0728V156.316H17.3818V165Z" fill="#100F0D"/>
<path d="M217.273 156.316H225.964V147.632H217.273V156.316Z" fill="#100F0D"/>
<path d="M208.583 156.316H217.273V147.632H208.583V156.316Z" fill="#100F0D"/>
<path d="M199.892 156.316H208.583V147.632H199.892V156.316Z" fill="#E6BEC1"/>
<path d="M191.2 156.316H199.891V147.632H191.2V156.316Z" fill="#E6BEC1"/>
<path d="M182.51 156.316H191.2V147.632H182.51V156.316Z" fill="#E6BEC1"/>
<path d="M173.819 156.316H182.51V147.632H173.819V156.316Z" fill="#E6BEC1"/>
<path d="M165.128 156.316H173.819V147.632H165.128V156.316Z" fill="#E6BEC1"/>
<path d="M156.437 156.316H165.128V147.632H156.437V156.316Z" fill="#FBFCE4"/>
<path d="M147.746 156.316H156.437V147.632H147.746V156.316Z" fill="#FBFCE4"/>
<path d="M139.055 156.316H147.746V147.632H139.055V156.316Z" fill="#FBFCE4"/>
<path d="M130.364 156.316H139.055V147.632H130.364V156.316Z" fill="#FBFCE4"/>
<path d="M121.673 156.316H130.364V147.632H121.673V156.316Z" fill="#FBFCE4"/>
<path d="M112.982 156.316H121.673V147.632H112.982V156.316Z" fill="#FBFCE4"/>
<path d="M104.291 156.316H112.982V147.632H104.291V156.316Z" fill="#E6C5C3"/>
<path d="M95.6001 156.316H104.291V147.632H95.6001V156.316Z" fill="#E7C4C6"/>
<path d="M86.9092 156.316H95.6001V147.632H86.9092V156.316Z" fill="#E8C6C8"/>
<path d="M78.2183 156.316H86.9092V147.632H78.2183V156.316Z" fill="#FBFCE4"/>
<path d="M69.5273 156.316H78.2183V147.632H69.5273V156.316Z" fill="#FBFCE4"/>
<path d="M60.8364 156.316H69.5274V147.632H60.8364V156.316Z" fill="#FBFCE4"/>
<path d="M52.1455 156.316H60.8364V147.632H52.1455V156.316Z" fill="#FBFCE4"/>
<path d="M43.4546 156.316H52.1455V147.632H43.4546V156.316Z" fill="#E6BEC1"/>
<path d="M34.7637 156.316H43.4546V147.632H34.7637V156.316Z" fill="#E6BEC1"/>
<path d="M26.0728 156.316H34.7637V147.632H26.0728V156.316Z" fill="#E6BEC1"/>
<path d="M17.3818 156.316H26.0728V147.632H17.3818V156.316Z" fill="#100F0D"/>
<path d="M225.964 147.632H234.655V138.947H225.964V147.632Z" fill="#100F0D"/>
<path d="M217.273 147.632H225.964V138.947H217.273V147.632Z" fill="#FBFCE4"/>
<path d="M208.583 147.632H217.273V138.947H208.583V147.632Z" fill="#FBFCE4"/>
<path d="M199.892 147.632H208.583V138.947H199.892V147.632Z" fill="#FBFCE4"/>
<path d="M191.2 147.632H199.891V138.947H191.2V147.632Z" fill="#FBFCE4"/>
<path d="M182.51 147.632H191.2V138.947H182.51V147.632Z" fill="#E6BEC1"/>
<path d="M173.819 147.632H182.51V138.947H173.819V147.632Z" fill="#FBFCE4"/>
<path d="M165.128 147.632H173.819V138.947H165.128V147.632Z" fill="#FBFCE4"/>
<path d="M156.437 147.632H165.128V138.947H156.437V147.632Z" fill="#FBFCE4"/>
<path d="M147.746 147.632H156.437V138.947H147.746V147.632Z" fill="#FBFCE4"/>
<path d="M139.055 147.632H147.746V138.947H139.055V147.632Z" fill="#FBFCE4"/>
<path d="M130.364 147.632H139.055V138.947H130.364V147.632Z" fill="#FBFCE4"/>
<path d="M121.673 147.632H130.364V138.947H121.673V147.632Z" fill="#FBFCE4"/>
<path d="M112.982 147.632H121.673V138.947H112.982V147.632Z" fill="#FBFCE4"/>
<path d="M104.291 147.632H112.982V138.947H104.291V147.632Z" fill="#100F0D"/>
<path d="M95.6001 147.632H104.291V138.947H95.6001V147.632Z" fill="#100F0D"/>
<path d="M86.9092 147.632H95.6001V138.947H86.9092V147.632Z" fill="#100F0D"/>
<path d="M78.2183 147.632H86.9092V138.947H78.2183V147.632Z" fill="#100F0D"/>
<path d="M69.5273 147.632H78.2183V138.947H69.5273V147.632Z" fill="#FBFCE4"/>
<path d="M60.8364 147.632H69.5274V138.947H60.8364V147.632Z" fill="#FBFCE4"/>
<path d="M52.1455 147.632H60.8364V138.947H52.1455V147.632Z" fill="#FBFCE4"/>
<path d="M43.4546 147.632H52.1455V138.947H43.4546V147.632Z" fill="#FBFCE4"/>
<path d="M34.7637 147.632H43.4546V138.947H34.7637V147.632Z" fill="#E6BEC1"/>
<path d="M26.0728 147.632H34.7637V138.947H26.0728V147.632Z" fill="#FBFCE4"/>
<path d="M17.3818 147.632H26.0728V138.947H17.3818V147.632Z" fill="#FBFCE4"/>
<path d="M8.69092 147.632H17.3818V138.947H8.69092V147.632Z" fill="#100F0D"/>
<path d="M0 147.632H8.69093V138.947H0V147.632Z" fill="#100F0D"/>
<path d="M217.273 138.948H225.964V130.263H217.273V138.948Z" fill="#100F0D"/>
<path d="M208.583 138.948H217.273V130.263H208.583V138.948Z" fill="#D45726"/>
<path d="M199.892 138.948H208.583V130.263H199.892V138.948Z" fill="#F1DEB5"/>
<path d="M191.2 138.948H199.891V130.263H191.2V138.948Z" fill="#FBFCE4"/>
<path d="M182.51 138.948H191.2V130.263H182.51V138.948Z" fill="#FBFCE4"/>
<path d="M173.819 138.948H182.51V130.263H173.819V138.948Z" fill="#FBFCE4"/>
<path d="M165.128 138.948H173.819V130.263H165.128V138.948Z" fill="#FBFCE4"/>
<path d="M156.437 138.948H165.128V130.263H156.437V138.948Z" fill="#F1DEB5"/>
<path d="M147.746 138.948H156.437V130.263H147.746V138.948Z" fill="#F47527"/>
<path d="M139.055 138.948H147.746V130.263H139.055V138.948Z" fill="#F47527"/>
<path d="M130.364 138.948H139.055V130.263H130.364V138.948Z" fill="#F47527"/>
<path d="M121.673 138.948H130.364V130.263H121.673V138.948Z" fill="#F47527"/>
<path d="M112.982 138.948H121.673V130.263H112.982V138.948Z" fill="#F47527"/>
<path d="M104.291 138.948H112.982V130.263H104.291V138.948Z" fill="#FBFCE4"/>
<path d="M95.6001 138.948H104.291V130.263H95.6001V138.948Z" fill="#100F0D"/>
<path d="M86.9092 138.948H95.6001V130.263H86.9092V138.948Z" fill="#100F0D"/>
<path d="M78.2183 138.948H86.9092V130.263H78.2183V138.948Z" fill="#FBFCE4"/>
<path d="M69.5273 138.948H78.2183V130.263H69.5273V138.948Z" fill="#F47527"/>
<path d="M60.8364 138.948H69.5274V130.263H60.8364V138.948Z" fill="#F1DEB5"/>
<path d="M52.1455 138.948H60.8364V130.263H52.1455V138.948Z" fill="#F1DEB5"/>
<path d="M43.4546 138.948H52.1455V130.263H43.4546V138.948Z" fill="#FBFCE4"/>
<path d="M34.7637 138.948H43.4546V130.263H34.7637V138.948Z" fill="#FBFCE4"/>
<path d="M26.0728 138.948H34.7637V130.263H26.0728V138.948Z" fill="#F47527"/>
<path d="M17.3818 138.948H26.0728V130.263H17.3818V138.948Z" fill="#100F0D"/>
<path d="M8.69092 138.948H17.3818V130.263H8.69092V138.948Z" fill="#100F0D"/>
<path d="M208.583 130.263H217.273V121.579H208.583V130.263Z" fill="#100F0D"/>
<path d="M199.892 130.263H208.583V121.579H199.892V130.263Z" fill="#F47527"/>
<path d="M191.2 130.263H199.891V121.579H191.2V130.263Z" fill="#F1DEB5"/>
<path d="M182.51 130.263H191.2V121.579H182.51V130.263Z" fill="#F1DEB5"/>
<path d="M173.819 130.263H182.51V121.579H173.819V130.263Z" fill="#F1DEB5"/>
<path d="M165.128 130.263H173.819V121.579H165.128V130.263Z" fill="#F1DEB5"/>
<path d="M156.437 130.263H165.128V121.579H156.437V130.263Z" fill="#F47527"/>
<path d="M147.746 130.263H156.437V121.579H147.746V130.263Z" fill="#52281F"/>
<path d="M139.055 130.263H147.746V121.579H139.055V130.263Z" fill="#52281F"/>
<path d="M130.364 130.263H139.055V121.579H130.364V130.263Z" fill="#E15123"/>
<path d="M121.673 130.263H130.364V121.579H121.673V130.263Z" fill="#E15123"/>
<path d="M112.982 130.263H121.673V121.579H112.982V130.263Z" fill="#F47527"/>
<path d="M104.291 130.263H112.982V121.579H104.291V130.263Z" fill="#FBFCE4"/>
<path d="M95.6001 130.263H104.291V121.579H95.6001V130.263Z" fill="#100F0D"/>
<path d="M86.9092 130.263H95.6001V121.579H86.9092V130.263Z" fill="#100F0D"/>
<path d="M78.2183 130.263H86.9092V121.579H78.2183V130.263Z" fill="#FBFCE4"/>
<path d="M69.5273 130.263H78.2183V121.579H69.5273V130.263Z" fill="#52281F"/>
<path d="M60.8364 130.263H69.5274V121.579H60.8364V130.263Z" fill="#55271D"/>
<path d="M52.1455 130.263H60.8364V121.579H52.1455V130.263Z" fill="#E15123"/>
<path d="M43.4546 130.263H52.1455V121.579H43.4546V130.263Z" fill="#E15123"/>
<path d="M34.7637 130.263H43.4546V121.579H34.7637V130.263Z" fill="#F47527"/>
<path d="M26.0728 130.263H34.7637V121.579H26.0728V130.263Z" fill="#F47527"/>
<path d="M17.3818 130.263H26.0728V121.579H17.3818V130.263Z" fill="#100F0D"/>
<path d="M208.583 121.579H217.273V112.895H208.583V121.579Z" fill="#100F0D"/>
<path d="M199.892 121.579H208.583V112.895H199.892V121.579Z" fill="#F47527"/>
<path d="M191.2 121.579H199.891V112.895H191.2V121.579Z" fill="#F47527"/>
<path d="M182.51 121.579H191.2V112.895H182.51V121.579Z" fill="#F47527"/>
<path d="M173.819 121.579H182.51V112.895H173.819V121.579Z" fill="#F47527"/>
<path d="M165.128 121.579H173.819V112.895H165.128V121.579Z" fill="#F47527"/>
<path d="M156.437 121.579H165.128V112.895H156.437V121.579Z" fill="#F47527"/>
<path d="M147.746 121.579H156.437V112.895H147.746V121.579Z" fill="#100F0D"/>
<path d="M139.055 121.579H147.746V112.895H139.055V121.579Z" fill="#100F0D"/>
<path d="M130.364 121.579H139.055V112.895H130.364V121.579Z" fill="#100F0D"/>
<path d="M121.673 121.579H130.364V112.895H121.673V121.579Z" fill="#FBFCE4"/>
<path d="M112.982 121.579H121.673V112.895H112.982V121.579Z" fill="#F47527"/>
<path d="M104.291 121.579H112.982V112.895H104.291V121.579Z" fill="#F47527"/>
<path d="M95.6001 121.579H104.291V112.895H95.6001V121.579Z" fill="#FBFCE4"/>
<path d="M86.9092 121.579H95.6001V112.895H86.9092V121.579Z" fill="#FBFCE4"/>
<path d="M78.2183 121.579H86.9092V112.895H78.2183V121.579Z" fill="#F47527"/>
<path d="M69.5273 121.579H78.2183V112.895H69.5273V121.579Z" fill="#100F0D"/>
<path d="M60.8364 121.579H69.5274V112.895H60.8364V121.579Z" fill="#100F0D"/>
<path d="M52.1455 121.579H60.8364V112.895H52.1455V121.579Z" fill="#100F0D"/>
<path d="M43.4546 121.579H52.1455V112.895H43.4546V121.579Z" fill="#FBFCE4"/>
<path d="M34.7637 121.579H43.4546V112.895H34.7637V121.579Z" fill="#F47527"/>
<path d="M26.0728 121.579H34.7637V112.895H26.0728V121.579Z" fill="#F47527"/>
<path d="M17.3818 121.579H26.0728V112.895H17.3818V121.579Z" fill="#100F0D"/>
<path d="M208.583 112.895H217.273V104.211H208.583V112.895Z" fill="#100F0D"/>
<path d="M199.892 112.895H208.583V104.211H199.892V112.895Z" fill="#F47527"/>
<path d="M191.2 112.895H199.891V104.211H191.2V112.895Z" fill="#F47527"/>
<path d="M182.51 112.895H191.2V104.211H182.51V112.895Z" fill="#F47527"/>
<path d="M173.819 112.895H182.51V104.211H173.819V112.895Z" fill="#F47527"/>
<path d="M165.128 112.895H173.819V104.211H165.128V112.895Z" fill="#F47527"/>
<path d="M156.437 112.895H165.128V104.211H156.437V112.895Z" fill="#F47527"/>
<path d="M147.746 112.895H156.437V104.211H147.746V112.895Z" fill="#100F0D"/>
<path d="M139.055 112.895H147.746V104.211H139.055V112.895Z" fill="#FBFCE4"/>
<path d="M130.364 112.895H139.055V104.211H130.364V112.895Z" fill="#100F0D"/>
<path d="M121.673 112.895H130.364V104.211H121.673V112.895Z" fill="#FBFCE4"/>
<path d="M112.982 112.895H121.673V104.211H112.982V112.895Z" fill="#F47527"/>
<path d="M104.291 112.895H112.982V104.211H104.291V112.895Z" fill="#F47527"/>
<path d="M95.6001 112.895H104.291V104.211H95.6001V112.895Z" fill="#F47527"/>
<path d="M86.9092 112.895H95.6001V104.211H86.9092V112.895Z" fill="#F47527"/>
<path d="M78.2183 112.895H86.9092V104.211H78.2183V112.895Z" fill="#F47527"/>
<path d="M69.5273 112.895H78.2183V104.211H69.5273V112.895Z" fill="#100F0D"/>
<path d="M60.8364 112.895H69.5274V104.211H60.8364V112.895Z" fill="#FBFCE4"/>
<path d="M52.1455 112.895H60.8364V104.211H52.1455V112.895Z" fill="#100F0D"/>
<path d="M43.4546 112.895H52.1455V104.211H43.4546V112.895Z" fill="#FBFCE4"/>
<path d="M34.7637 112.895H43.4546V104.211H34.7637V112.895Z" fill="#F47527"/>
<path d="M26.0728 112.895H34.7637V104.211H26.0728V112.895Z" fill="#F47527"/>
<path d="M17.3818 112.895H26.0728V104.211H17.3818V112.895Z" fill="#100F0D"/>
<path d="M208.583 104.21H217.273V95.5262H208.583V104.21Z" fill="#100F0D"/>
<path d="M199.892 104.21H208.583V95.5262H199.892V104.21Z" fill="#100F0D"/>
<path d="M191.2 104.21H199.891V95.5262H191.2V104.21Z" fill="#F47527"/>
<path d="M182.51 104.21H191.2V95.5262H182.51V104.21Z" fill="#F47527"/>
<path d="M173.819 104.21H182.51V95.5262H173.819V104.21Z" fill="#F47527"/>
<path d="M165.128 104.21H173.819V95.5262H165.128V104.21Z" fill="#F47527"/>
<path d="M156.437 104.21H165.128V95.5262H156.437V104.21Z" fill="#F47527"/>
<path d="M147.746 104.21H156.437V95.5262H147.746V104.21Z" fill="#F68B49"/>
<path d="M139.055 104.21H147.746V95.5262H139.055V104.21Z" fill="#100F0D"/>
<path d="M130.364 104.21H139.055V95.5262H130.364V104.21Z" fill="#100F0D"/>
<path d="M121.673 104.21H130.364V95.5262H121.673V104.21Z" fill="#F47527"/>
<path d="M112.982 104.21H121.673V95.5262H112.982V104.21Z" fill="#F47527"/>
<path d="M104.291 104.21H112.982V95.5262H104.291V104.21Z" fill="#F47527"/>
<path d="M95.6001 104.21H104.291V95.5262H95.6001V104.21Z" fill="#F47527"/>
<path d="M86.9092 104.21H95.6001V95.5262H86.9092V104.21Z" fill="#F47527"/>
<path d="M78.2183 104.21H86.9092V95.5262H78.2183V104.21Z" fill="#F47527"/>
<path d="M69.5273 104.21H78.2183V95.5262H69.5273V104.21Z" fill="#F68B49"/>
<path d="M60.8364 104.21H69.5274V95.5262H60.8364V104.21Z" fill="#100F0D"/>
<path d="M52.1455 104.21H60.8364V95.5262H52.1455V104.21Z" fill="#100F0D"/>
<path d="M43.4546 104.21H52.1455V95.5262H43.4546V104.21Z" fill="#F47527"/>
<path d="M34.7637 104.21H43.4546V95.5262H34.7637V104.21Z" fill="#F47527"/>
<path d="M26.0728 104.21H34.7637V95.5262H26.0728V104.21Z" fill="#100F0D"/>
<path d="M208.583 95.5264H217.273V86.8422H208.583V95.5264Z" fill="#100F0D"/>
<path d="M199.892 95.5264H208.583V86.8422H199.892V95.5264Z" fill="#F47527"/>
<path d="M191.2 95.5264H199.891V86.8422H191.2V95.5264Z" fill="#F47527"/>
<path d="M182.51 95.5264H191.2V86.8422H182.51V95.5264Z" fill="#F47527"/>
<path d="M173.819 95.5264H182.51V86.8422H173.819V95.5264Z" fill="#F47527"/>
<path d="M165.128 95.5264H173.819V86.8422H165.128V95.5264Z" fill="#F47527"/>
<path d="M156.437 95.5264H165.128V86.8422H156.437V95.5264Z" fill="#F47527"/>
<path d="M147.746 95.5264H156.437V86.8422H147.746V95.5264Z" fill="#F47527"/>
<path d="M139.055 95.5264H147.746V86.8422H139.055V95.5264Z" fill="#F47527"/>
<path d="M130.364 95.5264H139.055V86.8422H130.364V95.5264Z" fill="#F47527"/>
<path d="M121.673 95.5264H130.364V86.8422H121.673V95.5264Z" fill="#C63C25"/>
<path d="M112.982 95.5264H121.673V86.8422H112.982V95.5264Z" fill="#F47527"/>
<path d="M104.291 95.5264H112.982V86.8422H104.291V95.5264Z" fill="#F47527"/>
<path d="M95.6001 95.5264H104.291V86.8422H95.6001V95.5264Z" fill="#F47527"/>
<path d="M86.9092 95.5264H95.6001V86.8422H86.9092V95.5264Z" fill="#F47527"/>
<path d="M78.2183 95.5264H86.9092V86.8422H78.2183V95.5264Z" fill="#F47527"/>
<path d="M69.5273 95.5264H78.2183V86.8422H69.5273V95.5264Z" fill="#F47527"/>
<path d="M60.8364 95.5264H69.5274V86.8422H60.8364V95.5264Z" fill="#F47527"/>
<path d="M52.1455 95.5264H60.8364V86.8422H52.1455V95.5264Z" fill="#F47527"/>
<path d="M43.4546 95.5264H52.1455V86.8422H43.4546V95.5264Z" fill="#C63C25"/>
<path d="M34.7637 95.5264H43.4546V86.8422H34.7637V95.5264Z" fill="#F47527"/>
<path d="M26.0728 95.5264H34.7637V86.8422H26.0728V95.5264Z" fill="#100F0D"/>
<path d="M208.583 86.842H217.273V78.1578H208.583V86.842Z" fill="#100F0D"/>
<path d="M199.892 86.842H208.583V78.1578H199.892V86.842Z" fill="#F47527"/>
<path d="M191.2 86.842H199.891V78.1578H191.2V86.842Z" fill="#F47527"/>
<path d="M182.51 86.842H191.2V78.1578H182.51V86.842Z" fill="#F47527"/>
<path d="M173.819 86.842H182.51V78.1578H173.819V86.842Z" fill="#F47527"/>
<path d="M165.128 86.842H173.819V78.1578H165.128V86.842Z" fill="#E15123"/>
<path d="M156.437 86.842H165.128V78.1578H156.437V86.842Z" fill="#F47527"/>
<path d="M147.746 86.842H156.437V78.1578H147.746V86.842Z" fill="#F47527"/>
<path d="M139.055 86.842H147.746V78.1578H139.055V86.842Z" fill="#F47527"/>
<path d="M130.364 86.842H139.055V78.1578H130.364V86.842Z" fill="#F47527"/>
<path d="M121.673 86.842H130.364V78.1578H121.673V86.842Z" fill="#F47527"/>
<path d="M112.982 86.842H121.673V78.1578H112.982V86.842Z" fill="#F47527"/>
<path d="M104.291 86.842H112.982V78.1578H104.291V86.842Z" fill="#F47527"/>
<path d="M95.6001 86.842H104.291V78.1578H95.6001V86.842Z" fill="#F47527"/>
<path d="M86.9092 86.842H95.6001V78.1578H86.9092V86.842Z" fill="#F47527"/>
<path d="M78.2183 86.842H86.9092V78.1578H78.2183V86.842Z" fill="#F47527"/>
<path d="M69.5273 86.842H78.2183V78.1578H69.5273V86.842Z" fill="#F47527"/>
<path d="M60.8364 86.842H69.5274V78.1578H60.8364V86.842Z" fill="#F47527"/>
<path d="M52.1455 86.842H60.8364V78.1578H52.1455V86.842Z" fill="#F47527"/>
<path d="M43.4546 86.842H52.1455V78.1578H43.4546V86.842Z" fill="#F47527"/>
<path d="M34.7637 86.842H43.4546V78.1578H34.7637V86.842Z" fill="#F47527"/>
<path d="M26.0728 86.842H34.7637V78.1578H26.0728V86.842Z" fill="#100F0D"/>
<path d="M208.583 78.158H217.273V69.4737H208.583V78.158Z" fill="#100F0D"/>
<path d="M199.892 78.158H208.583V69.4737H199.892V78.158Z" fill="#F47527"/>
<path d="M191.2 78.158H199.891V69.4737H191.2V78.158Z" fill="#100F0D"/>
<path d="M182.51 78.158H191.2V69.4737H182.51V78.158Z" fill="#FBFCE4"/>
<path d="M173.819 78.158H182.51V69.4737H173.819V78.158Z" fill="#F47527"/>
<path d="M165.128 78.158H173.819V69.4737H165.128V78.158Z" fill="#F47527"/>
<path d="M156.437 78.158H165.128V69.4737H156.437V78.158Z" fill="#E15123"/>
<path d="M147.746 78.158H156.437V69.4737H147.746V78.158Z" fill="#F47527"/>
<path d="M139.055 78.158H147.746V69.4737H139.055V78.158Z" fill="#F47527"/>
<path d="M130.364 78.158H139.055V69.4737H130.364V78.158Z" fill="#F47527"/>
<path d="M121.673 78.158H130.364V69.4737H121.673V78.158Z" fill="#F47527"/>
<path d="M112.982 78.158H121.673V69.4737H112.982V78.158Z" fill="#F47527"/>
<path d="M104.291 78.158H112.982V69.4737H104.291V78.158Z" fill="#F47527"/>
<path d="M95.6001 78.158H104.291V69.4737H95.6001V78.158Z" fill="#F47527"/>
<path d="M86.9092 78.158H95.6001V69.4737H86.9092V78.158Z" fill="#F47527"/>
<path d="M78.2183 78.158H86.9092V69.4737H78.2183V78.158Z" fill="#F47527"/>
<path d="M69.5273 78.158H78.2183V69.4737H69.5273V78.158Z" fill="#F47527"/>
<path d="M60.8364 78.158H69.5274V69.4737H60.8364V78.158Z" fill="#100F0D"/>
<path d="M52.1455 78.158H60.8364V69.4737H52.1455V78.158Z" fill="#FBFCE4"/>
<path d="M43.4546 78.158H52.1455V69.4737H43.4546V78.158Z" fill="#F47527"/>
<path d="M34.7637 78.158H43.4546V69.4737H34.7637V78.158Z" fill="#F47527"/>
<path d="M26.0728 78.158H34.7637V69.4737H26.0728V78.158Z" fill="#F47527"/>
<path d="M17.3818 78.158H26.0728V69.4737H17.3818V78.158Z" fill="#100F0D"/>
<path d="M208.583 69.4736H217.273V60.7894H208.583V69.4736Z" fill="#100F0D"/>
<path d="M199.892 69.4736H208.583V60.7894H199.892V69.4736Z" fill="#F47527"/>
<path d="M191.2 69.4736H199.891V60.7894H191.2V69.4736Z" fill="#100F0D"/>
<path d="M182.51 69.4736H191.2V60.7894H182.51V69.4736Z" fill="#FBFCE4"/>
<path d="M173.819 69.4736H182.51V60.7894H173.819V69.4736Z" fill="#FBFCE4"/>
<path d="M165.128 69.4736H173.819V60.7894H165.128V69.4736Z" fill="#F47527"/>
<path d="M156.437 69.4736H165.128V60.7894H156.437V69.4736Z" fill="#100F0D"/>
<path d="M147.746 69.4736H156.437V60.7894H147.746V69.4736Z" fill="#E15123"/>
<path d="M139.055 69.4736H147.746V60.7894H139.055V69.4736Z" fill="#F47527"/>
<path d="M130.364 69.4736H139.055V60.7894H130.364V69.4736Z" fill="#F47527"/>
<path d="M121.673 69.4736H130.364V60.7894H121.673V69.4736Z" fill="#F47527"/>
<path d="M112.982 69.4736H121.673V60.7894H112.982V69.4736Z" fill="#F47527"/>
<path d="M104.291 69.4736H112.982V60.7894H104.291V69.4736Z" fill="#F47527"/>
<path d="M95.6001 69.4736H104.291V60.7894H95.6001V69.4736Z" fill="#F47527"/>
<path d="M86.9092 69.4736H95.6001V60.7894H86.9092V69.4736Z" fill="#F47527"/>
<path d="M78.2183 69.4736H86.9092V60.7894H78.2183V69.4736Z" fill="#F47527"/>
<path d="M69.5273 69.4736H78.2183V60.7894H69.5273V69.4736Z" fill="#F47527"/>
<path d="M60.8364 69.4736H69.5274V60.7894H60.8364V69.4736Z" fill="#100F0D"/>
<path d="M52.1455 69.4736H60.8364V60.7894H52.1455V69.4736Z" fill="#FBFCE4"/>
<path d="M43.4546 69.4736H52.1455V60.7894H43.4546V69.4736Z" fill="#FBFCE4"/>
<path d="M34.7637 69.4736H43.4546V60.7894H34.7637V69.4736Z" fill="#F47527"/>
<path d="M26.0728 69.4736H34.7637V60.7894H26.0728V69.4736Z" fill="#F47527"/>
<path d="M17.3818 69.4736H26.0728V60.7894H17.3818V69.4736Z" fill="#100F0D"/>
<path d="M208.583 60.7896H217.273V52.1053H208.583V60.7896Z" fill="#100F0D"/>
<path d="M199.892 60.7896H208.583V52.1053H199.892V60.7896Z" fill="#F47527"/>
<path d="M191.2 60.7896H199.891V52.1053H191.2V60.7896Z" fill="#1D1612"/>
<path d="M182.51 60.7896H191.2V52.1053H182.51V60.7896Z" fill="#FBFCE4"/>
<path d="M173.819 60.7896H182.51V52.1053H173.819V60.7896Z" fill="#FBFCE4"/>
<path d="M165.128 60.7896H173.819V52.1053H165.128V60.7896Z" fill="#F47527"/>
<path d="M156.437 60.7896H165.128V52.1053H156.437V60.7896Z" fill="#F47527"/>
<path d="M147.746 60.7896H156.437V52.1053H147.746V60.7896Z" fill="#100F0D"/>
<path d="M139.055 60.7896H147.746V52.1053H139.055V60.7896Z" fill="#F47527"/>
<path d="M130.364 60.7896H139.055V52.1053H130.364V60.7896Z" fill="#F47527"/>
<path d="M121.673 60.7896H130.364V52.1053H121.673V60.7896Z" fill="#F47527"/>
<path d="M112.982 60.7896H121.673V52.1053H112.982V60.7896Z" fill="#F47527"/>
<path d="M104.291 60.7896H112.982V52.1053H104.291V60.7896Z" fill="#F47527"/>
<path d="M95.6001 60.7896H104.291V52.1053H95.6001V60.7896Z" fill="#F47527"/>
<path d="M86.9092 60.7896H95.6001V52.1053H86.9092V60.7896Z" fill="#F47527"/>
<path d="M78.2183 60.7896H86.9092V52.1053H78.2183V60.7896Z" fill="#F47527"/>
<path d="M69.5273 60.7896H78.2183V52.1053H69.5273V60.7896Z" fill="#F47527"/>
<path d="M60.8364 60.7896H69.5274V52.1053H60.8364V60.7896Z" fill="#100F0D"/>
<path d="M52.1455 60.7896H60.8364V52.1053H52.1455V60.7896Z" fill="#FBFCE4"/>
<path d="M43.4546 60.7896H52.1455V52.1053H43.4546V60.7896Z" fill="#FBFCE4"/>
<path d="M34.7637 60.7896H43.4546V52.1053H34.7637V60.7896Z" fill="#100F0D"/>
<path d="M26.0728 60.7896H34.7637V52.1053H26.0728V60.7896Z" fill="#F47527"/>
<path d="M17.3818 60.7896H26.0728V52.1053H17.3818V60.7896Z" fill="#100F0D"/>
<path d="M208.583 52.1052H217.273V43.421H208.583V52.1052Z" fill="#100F0D"/>
<path d="M199.892 52.1052H208.583V43.421H199.892V52.1052Z" fill="#F47527"/>
<path d="M191.2 52.1052H199.891V43.421H191.2V52.1052Z" fill="#100F0D"/>
<path d="M182.51 52.1052H191.2V43.421H182.51V52.1052Z" fill="#FBFCE4"/>
<path d="M173.819 52.1052H182.51V43.421H173.819V52.1052Z" fill="#FBFCE4"/>
<path d="M165.128 52.1052H173.819V43.421H165.128V52.1052Z" fill="#F47527"/>
<path d="M156.437 52.1052H165.128V43.421H156.437V52.1052Z" fill="#F47527"/>
<path d="M147.746 52.1052H156.437V43.421H147.746V52.1052Z" fill="#100F0D"/>
<path d="M139.055 52.1052H147.746V43.421H139.055V52.1052Z" fill="#100F0D"/>
<path d="M130.364 52.1052H139.055V43.421H130.364V52.1052Z" fill="#100F0D"/>
<path d="M121.673 52.1052H130.364V43.421H121.673V52.1052Z" fill="#100F0D"/>
<path d="M112.982 52.1052H121.673V43.421H112.982V52.1052Z" fill="#100F0D"/>
<path d="M104.291 52.1052H112.982V43.421H104.291V52.1052Z" fill="#100F0D"/>
<path d="M95.6001 52.1052H104.291V43.421H95.6001V52.1052Z" fill="#100F0D"/>
<path d="M86.9092 52.1052H95.6001V43.421H86.9092V52.1052Z" fill="#100F0D"/>
<path d="M78.2183 52.1052H86.9092V43.421H78.2183V52.1052Z" fill="#100F0D"/>
<path d="M69.5273 52.1052H78.2183V43.421H69.5273V52.1052Z" fill="#F47527"/>
<path d="M60.8364 52.1052H69.5274V43.421H60.8364V52.1052Z" fill="#100F0D"/>
<path d="M52.1455 52.1052H60.8364V43.421H52.1455V52.1052Z" fill="#FBFCE4"/>
<path d="M43.4546 52.1052H52.1455V43.421H43.4546V52.1052Z" fill="#FBFCE4"/>
<path d="M34.7637 52.1052H43.4546V43.421H34.7637V52.1052Z" fill="#100F0D"/>
<path d="M26.0728 52.1052H34.7637V43.421H26.0728V52.1052Z" fill="#F47527"/>
<path d="M17.3818 52.1052H26.0728V43.421H17.3818V52.1052Z" fill="#100F0D"/>
<path d="M208.583 43.4211H217.273V34.7369H208.583V43.4211Z" fill="#100F0D"/>
<path d="M199.892 43.4211H208.583V34.7369H199.892V43.4211Z" fill="#F47527"/>
<path d="M191.2 43.4211H199.891V34.7369H191.2V43.4211Z" fill="#100F0D"/>
<path d="M182.51 43.4211H191.2V34.7369H182.51V43.4211Z" fill="#FBFCE4"/>
<path d="M173.819 43.4211H182.51V34.7369H173.819V43.4211Z" fill="#FBFCE4"/>
<path d="M165.128 43.4211H173.819V34.7369H165.128V43.4211Z" fill="#F47527"/>
<path d="M156.437 43.4211H165.128V34.7369H156.437V43.4211Z" fill="#F47527"/>
<path d="M147.746 43.4211H156.437V34.7369H147.746V43.4211Z" fill="#100F0D"/>
<path d="M78.2183 43.4211H86.9092V34.7369H78.2183V43.4211Z" fill="#100F0D"/>
<path d="M69.5273 43.4211H78.2183V34.7369H69.5273V43.4211Z" fill="#F47527"/>
<path d="M60.8364 43.4211H69.5274V34.7369H60.8364V43.4211Z" fill="#100F0D"/>
<path d="M52.1455 43.4211H60.8364V34.7369H52.1455V43.4211Z" fill="#FBFCE4"/>
<path d="M43.4546 43.4211H52.1455V34.7369H43.4546V43.4211Z" fill="#FBFCE4"/>
<path d="M34.7637 43.4211H43.4546V34.7369H34.7637V43.4211Z" fill="#100F0D"/>
<path d="M26.0728 43.4211H34.7637V34.7369H26.0728V43.4211Z" fill="#F47527"/>
<path d="M17.3818 43.4211H26.0728V34.7369H17.3818V43.4211Z" fill="#100F0D"/>
<path d="M208.583 34.7368H217.273V26.0526H208.583V34.7368Z" fill="#100F0D"/>
<path d="M199.892 34.7368H208.583V26.0526H199.892V34.7368Z" fill="#F47527"/>
<path d="M191.2 34.7368H199.891V26.0526H191.2V34.7368Z" fill="#100F0D"/>
<path d="M182.51 34.7368H191.2V26.0526H182.51V34.7368Z" fill="#100F0D"/>
<path d="M173.819 34.7368H182.51V26.0526H173.819V34.7368Z" fill="#100F0D"/>
<path d="M165.128 34.7368H173.819V26.0526H165.128V34.7368Z" fill="#F47527"/>
<path d="M156.437 34.7368H165.128V26.0526H156.437V34.7368Z" fill="#F47527"/>
<path d="M147.746 34.7368H156.437V26.0526H147.746V34.7368Z" fill="#100F0D"/>
<path d="M69.5273 34.7368H78.2183V26.0526H69.5273V34.7368Z" fill="#100F0D"/>
<path d="M60.8364 34.7368H69.5274V26.0526H60.8364V34.7368Z" fill="#F47527"/>
<path d="M52.1455 34.7368H60.8364V26.0526H52.1455V34.7368Z" fill="#100F0D"/>
<path d="M43.4546 34.7368H52.1455V26.0526H43.4546V34.7368Z" fill="#100F0D"/>
<path d="M34.7637 34.7368H43.4546V26.0526H34.7637V34.7368Z" fill="#100F0D"/>
<path d="M26.0728 34.7368H34.7637V26.0526H26.0728V34.7368Z" fill="#F47527"/>
<path d="M17.3818 34.7368H26.0728V26.0526H17.3818V34.7368Z" fill="#100F0D"/>
<path d="M208.583 26.0525H217.273V17.3683H208.583V26.0525Z" fill="#100F0D"/>
<path d="M199.892 26.0525H208.583V17.3683H199.892V26.0525Z" fill="#100F0D"/>
<path d="M191.2 26.0525H199.891V17.3683H191.2V26.0525Z" fill="#F47527"/>
<path d="M182.51 26.0525H191.2V17.3683H182.51V26.0525Z" fill="#F47527"/>
<path d="M173.819 26.0525H182.51V17.3683H173.819V26.0525Z" fill="#F47527"/>
<path d="M165.128 26.0525H173.819V17.3683H165.128V26.0525Z" fill="#F47527"/>
<path d="M156.437 26.0525H165.128V17.3683H156.437V26.0525Z" fill="#100F0D"/>
<path d="M60.8364 26.0525H69.5274V17.3683H60.8364V26.0525Z" fill="#100F0D"/>
<path d="M52.1455 26.0525H60.8364V17.3683H52.1455V26.0525Z" fill="#F47527"/>
<path d="M43.4546 26.0525H52.1455V17.3683H43.4546V26.0525Z" fill="#F47527"/>
<path d="M34.7637 26.0525H43.4546V17.3683H34.7637V26.0525Z" fill="#F47527"/>
<path d="M26.0728 26.0525H34.7637V17.3683H26.0728V26.0525Z" fill="#100F0D"/>
<path d="M199.892 17.3684H208.583V8.68418H199.892V17.3684Z" fill="#100F0D"/>
<path d="M191.2 17.3684H199.891V8.68418H191.2V17.3684Z" fill="#F47527"/>
<path d="M182.51 17.3684H191.2V8.68418H182.51V17.3684Z" fill="#F47527"/>
<path d="M173.819 17.3684H182.51V8.68418H173.819V17.3684Z" fill="#100F0D"/>
<path d="M165.128 17.3684H173.819V8.68418H165.128V17.3684Z" fill="#100F0D"/>
<path d="M52.1455 17.3684H60.8364V8.68418H52.1455V17.3684Z" fill="#100F0D"/>
<path d="M43.4546 17.3684H52.1455V8.68418H43.4546V17.3684Z" fill="#F47527"/>
<path d="M34.7637 17.3684H43.4546V8.68418H34.7637V17.3684Z" fill="#F47527"/>
<path d="M26.0728 17.3684H34.7637V8.68418H26.0728V17.3684Z" fill="#100F0D"/>
<path d="M191.2 8.68433H199.891V0.000133775H191.2V8.68433Z" fill="#100F0D"/>
<path d="M182.51 8.68433H191.2V0.000133775H182.51V8.68433Z" fill="#100F0D"/>
<path d="M43.4546 8.68433H52.1455V0.000133775H43.4546V8.68433Z" fill="#100F0D"/>
<path d="M34.7637 8.68433H43.4546V0.000133775H34.7637V8.68433Z" fill="#100F0D"/>
</svg>
