<svg width="284" height="330" viewBox="0 0 284 330" fill="none" xmlns="http://www.w3.org/2000/svg">
<path d="M189.001 11.7842H200.787V23.5703H189.001V11.7842Z" fill="#FEB6B8"/>
<path d="M189.001 23.5706H200.786V35.3567H189.001V23.5706Z" fill="#FEB6B8"/>
<path d="M200.786 23.5706H212.572V35.3567H200.786V23.5706Z" fill="#FEB6B8"/>
<path d="M82.9282 23.5706H94.7143V35.3567H82.9282V23.5706Z" fill="#E78E8E"/>
<path d="M94.7141 35.3553H106.5V47.1414H94.7141V35.3553Z" fill="#E78E8E"/>
<path d="M106.5 47.1414H118.286V58.9275H106.5V47.1414Z" fill="#E78E8E"/>
<path d="M94.7141 58.9273H106.5V70.7119H94.7141V58.9273Z" fill="#E78E8E"/>
<path d="M177.215 11.783H189.001V23.5691H177.215V11.783Z" fill="#E78E8E"/>
<path d="M165.429 35.3536H177.215V47.1396H165.429V35.3536Z" fill="#F8A878"/>
<path d="M177.215 35.3553H189.001V47.1414H177.215V35.3553Z" fill="#F8A878"/>
<path d="M189.001 47.1427H200.787V58.9287H189.001V47.1427Z" fill="#F8A878"/>
<path d="M200.786 47.1427H212.572V58.9287H200.786V47.1427Z" fill="#F8A878"/>
<path d="M212.572 58.9273H224.358V70.7119H212.572V58.9273Z" fill="#F8A878"/>
<path d="M47.5715 23.5706H59.3576V35.3567H47.5715V23.5706Z" fill="#FEB5BA"/>
<path d="M59.3574 23.5706H71.1435V35.3567H59.3574V23.5706Z" fill="#FEB5BA"/>
<path d="M71.1434 23.5706H82.928V35.3567H71.1434V23.5706Z" fill="#FEB5BA"/>
<path d="M47.5715 35.3553H59.3576V47.1414H47.5715V35.3553Z" fill="#FEB5BA"/>
<path d="M59.3574 35.3553H71.1435V47.1414H59.3574V35.3553Z" fill="#FEB5BA"/>
<path d="M82.9282 35.3553H94.7143V47.1414H82.9282V35.3553Z" fill="#FEB5BA"/>
<path d="M47.5715 47.1427H59.3576V58.9287H47.5715V47.1427Z" fill="#FEB5BA"/>
<path d="M59.3574 47.1427H71.1435V58.9287H59.3574V47.1427Z" fill="#FEB5BA"/>
<path d="M71.1434 47.1427H82.928V58.9287H71.1434V47.1427Z" fill="#FEB5BA"/>
<path d="M94.7141 47.1427H106.5V58.9287H94.7141V47.1427Z" fill="#FEB5BA"/>
<path d="M47.5715 58.9273H59.3576V70.7119H47.5715V58.9273Z" fill="#FEB5BA"/>
<path d="M59.3574 58.9273H71.1435V70.7119H59.3574V58.9273Z" fill="#FEB5BA"/>
<path d="M82.9282 58.9273H94.7143V70.7119H82.9282V58.9273Z" fill="#FEB5BA"/>
<path d="M59.3574 70.7135H71.1435V82.4995H59.3574V70.7135Z" fill="#FEB5BA"/>
<path d="M71.1434 70.7135H82.928V82.4995H71.1434V70.7135Z" fill="#FEB5BA"/>
<path d="M224.358 82.4978H236.144V94.2839H224.358V82.4978Z" fill="#FBBF94"/>
<path d="M130.073 82.4978H141.859V94.2839H130.073V82.4978Z" fill="#FBBF94"/>
<path d="M141.859 82.4978H153.645V94.2839H141.859V82.4978Z" fill="#FBBF94"/>
<path d="M153.645 94.2852H165.429V106.071H153.645V94.2852Z" fill="#FBBF94"/>
<path d="M212.572 94.2852H224.358V106.071H212.572V94.2852Z" fill="#FBBF94"/>
<path d="M82.9282 70.7135H94.7143V82.4995H82.9282V70.7135Z" fill="#FE9454"/>
<path d="M59.3574 82.4978H71.1435V94.2839H59.3574V82.4978Z" fill="#FE9454"/>
<path d="M71.1434 82.4978H82.928V94.2839H71.1434V82.4978Z" fill="#FE9454"/>
<path d="M118.286 35.3553H130.072V47.1414H118.286V35.3553Z" fill="#FE9454"/>
<path d="M130.073 35.3553H141.859V47.1414H130.073V35.3553Z" fill="#FE9454"/>
<path d="M141.859 35.3553H153.645V47.1414H141.859V35.3553Z" fill="#FE9454"/>
<path d="M153.645 35.3553H165.429V47.1414H153.645V35.3553Z" fill="#FE9454"/>
<path d="M118.286 47.1427H130.072V58.9287H118.286V47.1427Z" fill="#FE9454"/>
<path d="M130.073 47.1427H141.859V58.9287H130.073V47.1427Z" fill="#FE9454"/>
<path d="M141.859 47.1427H153.645V58.9287H141.859V47.1427Z" fill="#FE9454"/>
<path d="M153.645 47.1427H165.429V58.9287H153.645V47.1427Z" fill="#FE9454"/>
<path d="M165.429 47.1414H177.215V58.9275H165.429V47.1414Z" fill="#FE9454"/>
<path d="M177.215 47.1427H189.001V58.9287H177.215V47.1427Z" fill="#FE9454"/>
<path d="M118.286 58.9273H130.072V70.7119H118.286V58.9273Z" fill="#FE9454"/>
<path d="M130.073 58.9273H141.859V70.7119H130.073V58.9273Z" fill="#FE9454"/>
<path d="M141.859 58.9273H153.645V70.7119H141.859V58.9273Z" fill="#FE9454"/>
<path d="M153.645 58.9273H165.431V70.7119H153.645V58.9273Z" fill="#FE9454"/>
<path d="M106.5 58.9258H118.286V70.7119H106.5V58.9258Z" fill="#FE9454"/>
<path d="M165.431 58.9258H177.215V70.7119H165.431V58.9258Z" fill="#FE9454"/>
<path d="M177.215 58.9273H189.001V70.7119H177.215V58.9273Z" fill="#FE9454"/>
<path d="M189.001 58.9273H200.787V70.7119H189.001V58.9273Z" fill="#FE9454"/>
<path d="M200.787 58.9273H212.572V70.7119H200.787V58.9273Z" fill="#FE9454"/>
<path d="M224.358 70.7135H236.144V82.4995H224.358V70.7135Z" fill="#FE9454"/>
<path d="M94.7141 70.7135H106.5V82.4995H94.7141V70.7135Z" fill="#FE9454"/>
<path d="M118.286 70.7135H130.072V82.4995H118.286V70.7135Z" fill="#FE9454"/>
<path d="M130.073 70.7135H141.859V82.4995H130.073V70.7135Z" fill="#FE9454"/>
<path d="M141.859 70.7135H153.645V82.4995H141.859V70.7135Z" fill="#FE9454"/>
<path d="M153.645 70.7135H165.429V82.4995H153.645V70.7135Z" fill="#FE9454"/>
<path d="M106.5 70.7122H118.286V82.4983H106.5V70.7122Z" fill="#FE9454"/>
<path d="M165.429 70.7122H177.215V82.4983H165.429V70.7122Z" fill="#FE9454"/>
<path d="M177.215 70.7135H189.001V82.4995H177.215V70.7135Z" fill="#FE9454"/>
<path d="M189.001 70.7135H200.786V82.4995H189.001V70.7135Z" fill="#FE9454"/>
<path d="M200.786 70.7135H212.572V82.4995H200.786V70.7135Z" fill="#FE9454"/>
<path d="M212.572 70.7135H224.358V82.4995H212.572V70.7135Z" fill="#FE9454"/>
<path d="M236.144 82.4978H247.93V94.2839H236.144V82.4978Z" fill="#FE9454"/>
<path d="M82.9282 82.4978H94.7143V94.2839H82.9282V82.4978Z" fill="#FE9454"/>
<path d="M94.7141 82.4978H106.5V94.2839H94.7141V82.4978Z" fill="#FE9454"/>
<path d="M118.286 82.4978H130.072V94.2839H118.286V82.4978Z" fill="#FE9454"/>
<path d="M153.645 82.4978H165.429V94.2839H153.645V82.4978Z" fill="#FE9454"/>
<path d="M106.5 82.4978H118.286V94.2839H106.5V82.4978Z" fill="#FE9454"/>
<path d="M165.429 82.4978H177.215V94.2839H165.429V82.4978Z" fill="#FE9454"/>
<path d="M177.215 82.4978H189.001V94.2839H177.215V82.4978Z" fill="#FE9454"/>
<path d="M189.001 82.4978H200.787V94.2839H189.001V82.4978Z" fill="#FE9454"/>
<path d="M200.786 82.4978H212.572V94.2839H200.786V82.4978Z" fill="#FE9454"/>
<path d="M212.572 82.4978H224.358V94.2839H212.572V82.4978Z" fill="#FE9454"/>
<path d="M247.93 94.2852H259.715V106.071H247.93V94.2852Z" fill="#FE9454"/>
<path d="M59.3574 94.2852H71.1435V106.071H59.3574V94.2852Z" fill="#FE9454"/>
<path d="M71.1434 94.2852H82.928V106.071H71.1434V94.2852Z" fill="#FE9454"/>
<path d="M82.9282 94.2852H94.7143V106.071H82.9282V94.2852Z" fill="#FE9454"/>
<path d="M94.7141 94.2852H106.5V106.071H94.7141V94.2852Z" fill="#FE9454"/>
<path d="M118.286 94.2852H130.072V106.071H118.286V94.2852Z" fill="#FE9454"/>
<path d="M130.073 94.2852H141.859V106.071H130.073V94.2852Z" fill="#FE9454"/>
<path d="M141.859 94.2852H153.645V106.071H141.859V94.2852Z" fill="#FE9454"/>
<path d="M106.5 94.284H118.286V106.07H106.5V94.284Z" fill="#FE9454"/>
<path d="M165.429 94.284H177.215V106.07H165.429V94.284Z" fill="#FE9454"/>
<path d="M177.215 94.2852H189.001V106.071H177.215V94.2852Z" fill="#FE9454"/>
<path d="M189.001 94.2852H200.787V106.071H189.001V94.2852Z" fill="#FE9454"/>
<path d="M200.786 94.2852H212.572V106.071H200.786V94.2852Z" fill="#FE9454"/>
<path d="M224.358 106.07H236.144V117.856H224.358V106.07Z" fill="#FE9454"/>
<path d="M236.144 106.07H247.93V117.856H236.144V106.07Z" fill="#FE9454"/>
<path d="M247.93 106.07H259.716V117.856H247.93V106.07Z" fill="#FE9454"/>
<path d="M47.5715 106.07H59.3576V117.856H47.5715V106.07Z" fill="#FE9454"/>
<path d="M59.3574 106.07H71.1435V117.856H59.3574V106.07Z" fill="#FE9454"/>
<path d="M71.1434 106.07H82.928V117.856H71.1434V106.07Z" fill="#FE9454"/>
<path d="M82.9282 106.07H94.7143V117.856H82.9282V106.07Z" fill="#FE9454"/>
<path d="M94.7141 106.07H106.5V117.856H94.7141V106.07Z" fill="#FE9454"/>
<path d="M118.286 106.07H130.072V117.856H118.286V106.07Z" fill="#FE9454"/>
<path d="M130.073 106.07H141.859V117.856H130.073V106.07Z" fill="#FE9454"/>
<path d="M106.5 106.068H118.286V117.854H106.5V106.068Z" fill="#FE9454"/>
<path d="M165.431 106.068H177.215V117.854H165.431V106.068Z" fill="#FE9454"/>
<path d="M177.215 106.07H189.001V117.856H177.215V106.07Z" fill="#FE9454"/>
<path d="M189.001 106.07H200.787V117.856H189.001V106.07Z" fill="#FE9454"/>
<path d="M200.787 106.07H212.572V117.856H200.787V106.07Z" fill="#FE9454"/>
<path d="M224.358 117.856H236.144V129.642H224.358V117.856Z" fill="#FE9454"/>
<path d="M236.144 117.856H247.93V129.642H236.144V117.856Z" fill="#FE9454"/>
<path d="M247.93 117.856H259.715V129.642H247.93V117.856Z" fill="#FE9454"/>
<path d="M47.5715 117.856H59.3576V129.642H47.5715V117.856Z" fill="#FE9454"/>
<path d="M59.3574 117.856H71.1435V129.642H59.3574V117.856Z" fill="#FE9454"/>
<path d="M71.1434 117.856H82.928V129.642H71.1434V117.856Z" fill="#FE9454"/>
<path d="M82.9282 117.856H94.7143V129.642H82.9282V117.856Z" fill="#FE9454"/>
<path d="M94.7141 117.856H106.5V129.642H94.7141V117.856Z" fill="#FE9454"/>
<path d="M118.286 117.856H130.072V129.642H118.286V117.856Z" fill="#FE9454"/>
<path d="M141.859 117.856H153.645V129.642H141.859V117.856Z" fill="#FE9454"/>
<path d="M153.645 117.856H165.429V129.642H153.645V117.856Z" fill="#FE9454"/>
<path d="M106.5 117.855H118.286V129.641H106.5V117.855Z" fill="#FE9454"/>
<path d="M165.429 117.855H177.215V129.641H165.429V117.855Z" fill="#FE9454"/>
<path d="M177.215 117.856H189.001V129.642H177.215V117.856Z" fill="#FE9454"/>
<path d="M189.001 117.856H200.787V129.642H189.001V117.856Z" fill="#FE9454"/>
<path d="M212.572 117.856H224.358V129.642H212.572V117.856Z" fill="#FE9454"/>
<path d="M35.7852 129.641H47.5712V141.427H35.7852V129.641Z" fill="#FE9454"/>
<path d="M47.5715 129.641H59.3576V141.427H47.5715V129.641Z" fill="#FE9454"/>
<path d="M59.3574 129.641H71.1435V141.427H59.3574V129.641Z" fill="#FE9454"/>
<path d="M71.1434 129.641H82.928V141.427H71.1434V129.641Z" fill="#FE9454"/>
<path d="M82.9282 129.641H94.7143V141.427H82.9282V129.641Z" fill="#FE9454"/>
<path d="M94.7141 129.641H106.5V141.427H94.7141V129.641Z" fill="#FE9454"/>
<path d="M118.286 129.641H130.072V141.427H118.286V129.641Z" fill="#FE9454"/>
<path d="M130.073 129.641H141.859V141.427H130.073V129.641Z" fill="#FE9454"/>
<path d="M141.859 129.641H153.645V141.427H141.859V129.641Z" fill="#FE9454"/>
<path d="M153.645 129.641H165.431V141.427H153.645V129.641Z" fill="#FE9454"/>
<path d="M106.5 129.639H118.286V141.425H106.5V129.639Z" fill="#FE9454"/>
<path d="M35.7852 141.428H47.5712V153.214H35.7852V141.428Z" fill="#FE9454"/>
<path d="M47.5715 141.428H59.3576V153.214H47.5715V141.428Z" fill="#FE9454"/>
<path d="M59.3574 141.428H71.1435V153.214H59.3574V141.428Z" fill="#FE9454"/>
<path d="M71.1434 141.428H82.928V153.214H71.1434V141.428Z" fill="#FE9454"/>
<path d="M224.358 176.785H236.144V188.571H224.358V176.785Z" fill="#FEDFB6"/>
<path d="M165.429 176.784H177.215V188.57H165.429V176.784Z" fill="#FEDFB6"/>
<path d="M177.215 176.785H189.001V188.571H177.215V176.785Z" fill="#FEDFB6"/>
<path d="M236.144 188.573H247.93V200.359H236.144V188.573Z" fill="#FEDFB6"/>
<path d="M153.645 188.573H165.429V200.359H153.645V188.573Z" fill="#FEDFB6"/>
<path d="M165.429 188.571H177.215V200.357H165.429V188.571Z" fill="#FEDFB6"/>
<path d="M224.358 188.573H236.144V200.359H224.358V188.573Z" fill="#EBC490"/>
<path d="M177.215 188.573H189.001V200.359H177.215V188.573Z" fill="#EBC490"/>
<path d="M165.431 200.356H177.215V212.142H165.431V200.356Z" fill="#EBC490"/>
<path d="M12.2148 176.785H23.9994V188.571H12.2148V176.785Z" fill="#DFDFDF"/>
<path d="M12.2148 188.573H23.9994V200.359H12.2148V188.573Z" fill="#DFDFDF"/>
<path d="M12.2148 200.357H23.9994V212.143H12.2148V200.357Z" fill="#DFDFDF"/>
<path d="M12.2148 212.143H23.9994V223.929H12.2148V212.143Z" fill="#DFDFDF"/>
<path d="M12.2148 223.928H23.9994V235.714H12.2148V223.928Z" fill="#DFDFDF"/>
<path d="M12.2148 235.715H23.9994V247.501H12.2148V235.715Z" fill="#DFDFDF"/>
<path d="M12.2148 247.5H23.9994V259.286H12.2148V247.5Z" fill="#DFDFDF"/>
<path d="M23.9993 247.5H35.7853V259.286H23.9993V247.5Z" fill="#DFDFDF"/>
<path d="M23.9993 259.288H35.7853V271.072H23.9993V259.288Z" fill="#DFDFDF"/>
<path d="M23.9993 271.073H35.7853V282.859H23.9993V271.073Z" fill="#DFDFDF"/>
<path d="M35.7852 271.073H47.5712V282.859H35.7852V271.073Z" fill="#DFDFDF"/>
<path d="M35.7852 282.858H47.5712V294.644H35.7852V282.858Z" fill="#DFDFDF"/>
<path d="M47.5715 282.858H59.3576V294.644H47.5715V282.858Z" fill="#DFDFDF"/>
<path d="M59.3574 294.643H71.1435V306.429H59.3574V294.643Z" fill="#DFDFDF"/>
<path d="M71.1434 294.643H82.9295V306.429H71.1434V294.643Z" fill="#DFDFDF"/>
<path d="M224.358 294.643H236.144V306.429H224.358V294.643Z" fill="#FFB3B6"/>
<path d="M236.144 294.643H247.93V306.429H236.144V294.643Z" fill="#FFB3B6"/>
<path d="M118.286 294.643H130.072V306.429H118.286V294.643Z" fill="#FFB3B6"/>
<path d="M106.502 294.643H118.286V306.427H106.502V294.643Z" fill="#FFB3B6"/>
<path d="M224.358 306.429H236.144V318.215H224.358V306.429Z" fill="#FFB3B6"/>
<path d="M236.144 306.429H247.93V318.215H236.144V306.429Z" fill="#FFB3B6"/>
<path d="M247.93 306.429H259.716V318.215H247.93V306.429Z" fill="#FFB3B6"/>
<path d="M94.7141 306.429H106.5V318.215H94.7141V306.429Z" fill="#FFB3B6"/>
<path d="M118.286 306.429H130.072V318.215H118.286V306.429Z" fill="#FFB3B6"/>
<path d="M130.073 306.429H141.859V318.215H130.073V306.429Z" fill="#FFB3B6"/>
<path d="M106.5 306.428H118.286V318.214H106.5V306.428Z" fill="#FFB3B6"/>
<path d="M212.572 306.429H224.358V318.215H212.572V306.429Z" fill="#FFB3B6"/>
<path d="M177.215 -0.000170916H189.001V11.7859H177.215V-0.000170916Z" fill="black"/>
<path d="M189.001 -0.000170916H200.786V11.7859H189.001V-0.000170916Z" fill="black"/>
<path d="M165.429 11.783H177.215V23.5691H165.429V11.783Z" fill="black"/>
<path d="M200.786 11.7842H212.572V23.5703H200.786V11.7842Z" fill="black"/>
<path d="M212.572 23.5706H224.358V35.3567H212.572V23.5706Z" fill="black"/>
<path d="M212.572 35.3553H224.358V47.1414H212.572V35.3553Z" fill="black"/>
<path d="M71.1434 35.3553H82.928V47.1414H71.1434V35.3553Z" fill="black"/>
<path d="M82.9282 47.1427H94.7143V58.9287H82.9282V47.1427Z" fill="black"/>
<path d="M71.1434 58.9273H82.928V70.7119H71.1434V58.9273Z" fill="black"/>
<path d="M224.358 94.2852H236.144V106.071H224.358V94.2852Z" fill="black"/>
<path d="M236.144 94.2852H247.93V106.071H236.144V94.2852Z" fill="black"/>
<path d="M141.859 106.07H153.645V117.856H141.859V106.07Z" fill="black"/>
<path d="M153.645 106.07H165.431V117.856H153.645V106.07Z" fill="black"/>
<path d="M212.572 106.07H224.358V117.856H212.572V106.07Z" fill="black"/>
<path d="M130.073 117.856H141.859V129.642H130.073V117.856Z" fill="black"/>
<path d="M200.787 129.641H212.572V141.427H200.787V129.641Z" fill="black"/>
<path d="M189.001 141.428H200.787V153.214H189.001V141.428Z" fill="black"/>
<path d="M212.572 141.428H224.358V153.214H212.572V141.428Z" fill="black"/>
<path d="M224.358 165.001H236.144V176.787H224.358V165.001Z" fill="black"/>
<path d="M165.429 164.999H177.215V176.785H165.429V164.999Z" fill="black"/>
<path d="M177.215 164.999H189.001V176.785H177.215V164.999Z" fill="black"/>
<path d="M189.001 165.001H200.786V176.787H189.001V165.001Z" fill="black"/>
<path d="M212.572 165.001H224.358V176.787H212.572V165.001Z" fill="black"/>
<path d="M236.144 176.785H247.93V188.571H236.144V176.785Z" fill="black"/>
<path d="M153.645 176.785H165.429V188.571H153.645V176.785Z" fill="black"/>
<path d="M189.001 176.785H200.787V188.571H189.001V176.785Z" fill="black"/>
<path d="M212.572 176.785H224.358V188.571H212.572V176.785Z" fill="black"/>
<path d="M189.001 188.573H200.787V200.359H189.001V188.573Z" fill="black"/>
<path d="M212.572 188.573H224.358V200.359H212.572V188.573Z" fill="black"/>
<path d="M224.358 200.357H236.144V212.143H224.358V200.357Z" fill="black"/>
<path d="M177.215 200.357H189.001V212.143H177.215V200.357Z" fill="black"/>
<path d="M130.073 294.643H141.859V306.429H130.073V294.643Z" fill="black"/>
<path d="M47.5715 11.7842H59.3576V23.5703H47.5715V11.7842Z" fill="black"/>
<path d="M59.3574 11.7842H71.1435V23.5703H59.3574V11.7842Z" fill="black"/>
<path d="M71.1434 11.7842H82.928V23.5703H71.1434V11.7842Z" fill="black"/>
<path d="M82.9282 11.7842H94.7143V23.5703H82.9282V11.7842Z" fill="black"/>
<path d="M35.7852 23.5706H47.5712V35.3567H35.7852V23.5706Z" fill="black"/>
<path d="M94.7141 23.5706H106.5V35.3567H94.7141V23.5706Z" fill="black"/>
<path d="M118.286 23.5706H130.072V35.3567H118.286V23.5706Z" fill="black"/>
<path d="M130.073 23.5706H141.859V35.3567H130.073V23.5706Z" fill="black"/>
<path d="M141.859 23.5706H153.645V35.3567H141.859V23.5706Z" fill="black"/>
<path d="M153.645 23.5706H165.429V35.3567H153.645V23.5706Z" fill="black"/>
<path d="M165.429 23.5689H177.215V35.355H165.429V23.5689Z" fill="black"/>
<path d="M177.215 23.5706H189.001V35.3567H177.215V23.5706Z" fill="black"/>
<path d="M35.7852 35.3553H47.5712V47.1414H35.7852V35.3553Z" fill="black"/>
<path d="M106.5 35.3536H118.286V47.1396H106.5V35.3536Z" fill="black"/>
<path d="M189.001 35.3553H200.787V47.1414H189.001V35.3553Z" fill="black"/>
<path d="M200.786 35.3553H212.572V47.1414H200.786V35.3553Z" fill="black"/>
<path d="M35.7852 47.1427H47.5712V58.9287H35.7852V47.1427Z" fill="black"/>
<path d="M212.572 47.1427H224.358V58.9287H212.572V47.1427Z" fill="black"/>
<path d="M224.358 58.9273H236.144V70.7119H224.358V58.9273Z" fill="black"/>
<path d="M35.7852 58.9273H47.5712V70.7119H35.7852V58.9273Z" fill="black"/>
<path d="M236.144 70.7135H247.93V82.4995H236.144V70.7135Z" fill="black"/>
<path d="M47.5715 70.7135H59.3576V82.4995H47.5715V70.7135Z" fill="black"/>
<path d="M247.93 82.4978H259.715V94.2839H247.93V82.4978Z" fill="black"/>
<path d="M47.5715 82.4978H59.3576V94.2839H47.5715V82.4978Z" fill="black"/>
<path d="M259.715 94.2852H271.501V106.071H259.715V94.2852Z" fill="black"/>
<path d="M47.5715 94.2852H59.3576V106.071H47.5715V94.2852Z" fill="black"/>
<path d="M259.716 106.07H271.501V117.856H259.716V106.07Z" fill="black"/>
<path d="M35.7852 106.07H47.5712V117.856H35.7852V106.07Z" fill="black"/>
<path d="M271.501 117.856H283.287V129.642H271.501V117.856Z" fill="black"/>
<path d="M35.7852 117.856H47.5712V129.642H35.7852V117.856Z" fill="black"/>
<path d="M271.501 129.641H283.287V141.427H271.501V129.641Z" fill="black"/>
<path d="M23.9993 129.641H35.7853V141.427H23.9993V129.641Z" fill="black"/>
<path d="M271.501 141.428H283.287V153.214H271.501V141.428Z" fill="black"/>
<path d="M23.9993 141.428H35.7853V153.214H23.9993V141.428Z" fill="black"/>
<path d="M271.501 153.213H283.287V164.999H271.501V153.213Z" fill="black"/>
<path d="M12.2148 153.213H23.9994V164.999H12.2148V153.213Z" fill="black"/>
<path d="M271.501 165.001H283.287V176.787H271.501V165.001Z" fill="black"/>
<path d="M12.2131 165.001H23.9992V176.787H12.2131V165.001Z" fill="black"/>
<path d="M259.715 176.785H271.501V188.571H259.715V176.785Z" fill="black"/>
<path d="M0.428589 176.785H12.2132V188.571H0.428589V176.785Z" fill="black"/>
<path d="M271.501 188.573H283.287V200.359H271.501V188.573Z" fill="black"/>
<path d="M0.428589 188.573H12.2132V200.359H0.428589V188.573Z" fill="black"/>
<path d="M271.501 200.357H283.287V212.143H271.501V200.357Z" fill="black"/>
<path d="M0.428589 200.357H12.2147V212.143H0.428589V200.357Z" fill="black"/>
<path d="M271.501 212.143H283.287V223.929H271.501V212.143Z" fill="black"/>
<path d="M0.428589 212.143H12.2132V223.929H0.428589V212.143Z" fill="black"/>
<path d="M259.716 223.928H271.501V235.714H259.716V223.928Z" fill="black"/>
<path d="M0.428589 223.928H12.2147V235.714H0.428589V223.928Z" fill="black"/>
<path d="M247.93 235.715H259.716V247.501H247.93V235.715Z" fill="black"/>
<path d="M0.428589 235.715H12.2147V247.501H0.428589V235.715Z" fill="black"/>
<path d="M247.93 247.5H259.716V259.286H247.93V247.5Z" fill="black"/>
<path d="M0.428589 247.5H12.2147V259.286H0.428589V247.5Z" fill="black"/>
<path d="M259.715 259.288H271.501V271.072H259.715V259.288Z" fill="black"/>
<path d="M12.2148 259.288H23.9994V271.072H12.2148V259.288Z" fill="black"/>
<path d="M259.716 271.073H271.501V282.859H259.716V271.073Z" fill="black"/>
<path d="M12.2148 271.073H23.9994V282.859H12.2148V271.073Z" fill="black"/>
<path d="M259.716 282.858H271.501V294.644H259.716V282.858Z" fill="black"/>
<path d="M23.9993 282.858H35.7853V294.644H23.9993V282.858Z" fill="black"/>
<path d="M247.93 294.643H259.716V306.429H247.93V294.643Z" fill="black"/>
<path d="M35.7852 294.643H47.5712V306.429H35.7852V294.643Z" fill="black"/>
<path d="M47.5715 294.643H59.3576V306.429H47.5715V294.643Z" fill="black"/>
<path d="M259.716 306.429H271.501V318.215H259.716V306.429Z" fill="black"/>
<path d="M59.3574 306.429H71.1435V318.215H59.3574V306.429Z" fill="black"/>
<path d="M71.1434 306.429H82.928V318.215H71.1434V306.429Z" fill="black"/>
<path d="M82.9282 306.429H94.7143V318.215H82.9282V306.429Z" fill="black"/>
<path d="M141.859 306.429H153.645V318.215H141.859V306.429Z" fill="black"/>
<path d="M153.645 306.429H165.431V318.215H153.645V306.429Z" fill="black"/>
<path d="M165.431 306.428H177.215V318.214H165.431V306.428Z" fill="black"/>
<path d="M177.215 306.429H189.001V318.215H177.215V306.429Z" fill="black"/>
<path d="M189.001 306.429H200.787V318.215H189.001V306.429Z" fill="black"/>
<path d="M200.787 306.429H212.572V318.215H200.787V306.429Z" fill="black"/>
<path d="M94.7141 318.214H106.5V330H94.7141V318.214Z" fill="black"/>
<path d="M118.286 318.214H130.072V330H118.286V318.214Z" fill="black"/>
<path d="M130.073 318.214H141.859V330H130.073V318.214Z" fill="black"/>
<path d="M106.502 318.213H118.286V329.998H106.502V318.213Z" fill="black"/>
<path d="M212.572 318.214H224.358V330H212.572V318.214Z" fill="black"/>
<path d="M224.358 318.214H236.144V330H224.358V318.214Z" fill="black"/>
<path d="M236.144 318.214H247.93V330H236.144V318.214Z" fill="black"/>
<path d="M247.93 318.214H259.715V330H247.93V318.214Z" fill="black"/>
<path d="M259.715 117.856H271.501V129.642H259.715V117.856Z" fill="white"/>
<path d="M200.786 117.856H212.572V129.642H200.786V117.856Z" fill="white"/>
<path d="M224.358 129.641H236.144V141.427H224.358V129.641Z" fill="white"/>
<path d="M236.144 129.641H247.93V141.427H236.144V129.641Z" fill="white"/>
<path d="M247.93 129.641H259.716V141.427H247.93V129.641Z" fill="white"/>
<path d="M259.716 129.641H271.501V141.427H259.716V129.641Z" fill="white"/>
<path d="M165.431 129.639H177.215V141.425H165.431V129.639Z" fill="white"/>
<path d="M177.215 129.641H189.001V141.427H177.215V129.641Z" fill="white"/>
<path d="M189.001 129.641H200.787V141.427H189.001V129.641Z" fill="white"/>
<path d="M212.572 129.641H224.358V141.427H212.572V129.641Z" fill="white"/>
<path d="M224.358 141.428H236.144V153.214H224.358V141.428Z" fill="white"/>
<path d="M236.144 141.428H247.93V153.214H236.144V141.428Z" fill="white"/>
<path d="M247.93 141.428H259.716V153.214H247.93V141.428Z" fill="white"/>
<path d="M259.716 141.428H271.501V153.214H259.716V141.428Z" fill="white"/>
<path d="M82.9282 141.428H94.7143V153.214H82.9282V141.428Z" fill="white"/>
<path d="M94.7141 141.428H106.5V153.214H94.7141V141.428Z" fill="white"/>
<path d="M118.286 141.428H130.072V153.214H118.286V141.428Z" fill="white"/>
<path d="M130.073 141.428H141.859V153.214H130.073V141.428Z" fill="white"/>
<path d="M141.859 141.428H153.645V153.214H141.859V141.428Z" fill="white"/>
<path d="M153.645 141.428H165.431V153.214H153.645V141.428Z" fill="white"/>
<path d="M106.5 141.427H118.286V153.213H106.5V141.427Z" fill="white"/>
<path d="M165.431 141.427H177.215V153.213H165.431V141.427Z" fill="white"/>
<path d="M177.215 141.428H189.001V153.214H177.215V141.428Z" fill="white"/>
<path d="M200.787 141.428H212.572V153.214H200.787V141.428Z" fill="white"/>
<path d="M236.144 153.213H247.93V164.999H236.144V153.213Z" fill="white"/>
<path d="M247.93 153.213H259.716V164.999H247.93V153.213Z" fill="white"/>
<path d="M259.716 153.213H271.501V164.999H259.716V153.213Z" fill="white"/>
<path d="M23.9993 153.213H35.7853V164.999H23.9993V153.213Z" fill="white"/>
<path d="M35.7852 153.213H47.5712V164.999H35.7852V153.213Z" fill="white"/>
<path d="M47.5715 153.213H59.3576V164.999H47.5715V153.213Z" fill="white"/>
<path d="M59.3574 153.213H71.1435V164.999H59.3574V153.213Z" fill="white"/>
<path d="M71.1434 153.213H82.9295V164.999H71.1434V153.213Z" fill="white"/>
<path d="M82.9297 153.213H94.7142V164.999H82.9297V153.213Z" fill="white"/>
<path d="M94.7141 153.213H106.5V164.999H94.7141V153.213Z" fill="white"/>
<path d="M118.286 153.213H130.072V164.999H118.286V153.213Z" fill="white"/>
<path d="M130.073 153.213H141.859V164.999H130.073V153.213Z" fill="white"/>
<path d="M141.859 153.213H153.645V164.999H141.859V153.213Z" fill="white"/>
<path d="M153.645 153.213H165.431V164.999H153.645V153.213Z" fill="white"/>
<path d="M106.502 153.212H118.286V164.998H106.502V153.212Z" fill="white"/>
<path d="M165.431 153.212H177.215V164.998H165.431V153.212Z" fill="white"/>
<path d="M189.001 153.213H200.787V164.999H189.001V153.213Z" fill="white"/>
<path d="M200.787 153.213H212.572V164.999H200.787V153.213Z" fill="white"/>
<path d="M212.572 153.213H224.358V164.999H212.572V153.213Z" fill="white"/>
<path d="M236.144 165.001H247.93V176.787H236.144V165.001Z" fill="white"/>
<path d="M247.93 165.001H259.715V176.787H247.93V165.001Z" fill="white"/>
<path d="M259.715 165.001H271.501V176.787H259.715V165.001Z" fill="white"/>
<path d="M23.9993 165.001H35.7853V176.787H23.9993V165.001Z" fill="white"/>
<path d="M35.7852 165.001H47.5712V176.787H35.7852V165.001Z" fill="white"/>
<path d="M47.5715 165.001H59.3576V176.787H47.5715V165.001Z" fill="white"/>
<path d="M59.3574 165.001H71.1435V176.787H59.3574V165.001Z" fill="white"/>
<path d="M71.1434 165.001H82.928V176.787H71.1434V165.001Z" fill="white"/>
<path d="M82.9282 165.001H94.7143V176.787H82.9282V165.001Z" fill="white"/>
<path d="M94.7141 165.001H106.5V176.787H94.7141V165.001Z" fill="white"/>
<path d="M118.286 165.001H130.072V176.787H118.286V165.001Z" fill="white"/>
<path d="M130.073 165.001H141.859V176.787H130.073V165.001Z" fill="white"/>
<path d="M141.859 165.001H153.645V176.787H141.859V165.001Z" fill="white"/>
<path d="M153.645 165.001H165.429V176.787H153.645V165.001Z" fill="white"/>
<path d="M106.5 164.999H118.286V176.785H106.5V164.999Z" fill="white"/>
<path d="M200.786 165.001H212.572V176.787H200.786V165.001Z" fill="white"/>
<path d="M247.93 176.785H259.715V188.571H247.93V176.785Z" fill="white"/>
<path d="M23.9993 176.785H35.7853V188.571H23.9993V176.785Z" fill="white"/>
<path d="M35.7852 176.785H47.5712V188.571H35.7852V176.785Z" fill="white"/>
<path d="M47.5715 176.785H59.3576V188.571H47.5715V176.785Z" fill="white"/>
<path d="M59.3574 176.785H71.1435V188.571H59.3574V176.785Z" fill="white"/>
<path d="M71.1434 176.785H82.928V188.571H71.1434V176.785Z" fill="white"/>
<path d="M82.9282 176.785H94.7143V188.571H82.9282V176.785Z" fill="white"/>
<path d="M94.7141 176.785H106.5V188.571H94.7141V176.785Z" fill="white"/>
<path d="M118.286 176.785H130.072V188.571H118.286V176.785Z" fill="white"/>
<path d="M130.073 176.785H141.859V188.571H130.073V176.785Z" fill="white"/>
<path d="M141.859 176.785H153.645V188.571H141.859V176.785Z" fill="white"/>
<path d="M106.5 176.784H118.286V188.57H106.5V176.784Z" fill="white"/>
<path d="M200.786 176.785H212.572V188.571H200.786V176.785Z" fill="white"/>
<path d="M247.93 188.573H259.715V200.359H247.93V188.573Z" fill="white"/>
<path d="M259.715 188.573H271.501V200.359H259.715V188.573Z" fill="white"/>
<path d="M23.9993 188.573H35.7853V200.359H23.9993V188.573Z" fill="white"/>
<path d="M35.7852 188.573H47.5712V200.359H35.7852V188.573Z" fill="white"/>
<path d="M47.5715 188.573H59.3576V200.359H47.5715V188.573Z" fill="white"/>
<path d="M59.3574 188.573H71.1435V200.359H59.3574V188.573Z" fill="white"/>
<path d="M71.1434 188.573H82.928V200.359H71.1434V188.573Z" fill="white"/>
<path d="M82.9282 188.573H94.7143V200.359H82.9282V188.573Z" fill="white"/>
<path d="M94.7141 188.573H106.5V200.359H94.7141V188.573Z" fill="white"/>
<path d="M118.286 188.573H130.072V200.359H118.286V188.573Z" fill="white"/>
<path d="M130.073 188.573H141.859V200.359H130.073V188.573Z" fill="white"/>
<path d="M141.859 188.573H153.645V200.359H141.859V188.573Z" fill="white"/>
<path d="M106.5 188.571H118.286V200.357H106.5V188.571Z" fill="white"/>
<path d="M236.144 200.357H247.93V212.143H236.144V200.357Z" fill="white"/>
<path d="M247.93 200.357H259.716V212.143H247.93V200.357Z" fill="white"/>
<path d="M259.716 200.357H271.501V212.143H259.716V200.357Z" fill="white"/>
<path d="M23.9993 200.357H35.7853V212.143H23.9993V200.357Z" fill="white"/>
<path d="M35.7852 200.357H47.5712V212.143H35.7852V200.357Z" fill="white"/>
<path d="M47.5715 200.357H59.3576V212.143H47.5715V200.357Z" fill="white"/>
<path d="M59.3574 200.357H71.1435V212.143H59.3574V200.357Z" fill="white"/>
<path d="M71.1434 200.357H82.928V212.143H71.1434V200.357Z" fill="white"/>
<path d="M82.9282 200.357H94.7143V212.143H82.9282V200.357Z" fill="white"/>
<path d="M94.7141 200.357H106.5V212.143H94.7141V200.357Z" fill="white"/>
<path d="M118.286 200.357H130.072V212.143H118.286V200.357Z" fill="white"/>
<path d="M130.073 200.357H141.859V212.143H130.073V200.357Z" fill="white"/>
<path d="M141.859 200.357H153.645V212.143H141.859V200.357Z" fill="white"/>
<path d="M153.645 200.357H165.431V212.143H153.645V200.357Z" fill="white"/>
<path d="M106.5 200.356H118.286V212.142H106.5V200.356Z" fill="white"/>
<path d="M189.001 200.357H200.787V212.143H189.001V200.357Z" fill="white"/>
<path d="M200.787 200.357H212.572V212.143H200.787V200.357Z" fill="white"/>
<path d="M212.572 200.357H224.358V212.143H212.572V200.357Z" fill="white"/>
<path d="M224.358 212.143H236.144V223.929H224.358V212.143Z" fill="white"/>
<path d="M236.144 212.143H247.93V223.929H236.144V212.143Z" fill="white"/>
<path d="M247.93 212.143H259.715V223.929H247.93V212.143Z" fill="white"/>
<path d="M259.715 212.143H271.501V223.929H259.715V212.143Z" fill="white"/>
<path d="M23.9993 212.143H35.7853V223.929H23.9993V212.143Z" fill="white"/>
<path d="M35.7852 212.143H47.5712V223.929H35.7852V212.143Z" fill="white"/>
<path d="M47.5715 212.143H59.3576V223.929H47.5715V212.143Z" fill="white"/>
<path d="M59.3574 212.143H71.1435V223.929H59.3574V212.143Z" fill="white"/>
<path d="M71.1434 212.143H82.928V223.929H71.1434V212.143Z" fill="white"/>
<path d="M82.9282 212.143H94.7143V223.929H82.9282V212.143Z" fill="white"/>
<path d="M94.7141 212.143H106.5V223.929H94.7141V212.143Z" fill="white"/>
<path d="M118.286 212.143H130.072V223.929H118.286V212.143Z" fill="white"/>
<path d="M130.073 212.143H141.859V223.929H130.073V212.143Z" fill="white"/>
<path d="M141.859 212.143H153.645V223.929H141.859V212.143Z" fill="white"/>
<path d="M153.645 212.143H165.429V223.929H153.645V212.143Z" fill="white"/>
<path d="M106.5 212.142H118.286V223.928H106.5V212.142Z" fill="white"/>
<path d="M165.429 212.142H177.215V223.928H165.429V212.142Z" fill="white"/>
<path d="M177.215 212.143H189.001V223.929H177.215V212.143Z" fill="white"/>
<path d="M189.001 212.143H200.787V223.929H189.001V212.143Z" fill="white"/>
<path d="M200.786 212.143H212.572V223.929H200.786V212.143Z" fill="white"/>
<path d="M212.572 212.143H224.358V223.929H212.572V212.143Z" fill="white"/>
<path d="M224.358 223.928H236.144V235.714H224.358V223.928Z" fill="white"/>
<path d="M236.144 223.928H247.93V235.714H236.144V223.928Z" fill="white"/>
<path d="M247.93 223.928H259.716V235.714H247.93V223.928Z" fill="white"/>
<path d="M23.9993 223.928H35.7853V235.714H23.9993V223.928Z" fill="white"/>
<path d="M35.7852 223.928H47.5712V235.714H35.7852V223.928Z" fill="white"/>
<path d="M47.5715 223.928H59.3576V235.714H47.5715V223.928Z" fill="white"/>
<path d="M59.3574 223.928H71.1435V235.714H59.3574V223.928Z" fill="white"/>
<path d="M71.1434 223.928H82.928V235.714H71.1434V223.928Z" fill="white"/>
<path d="M82.9282 223.928H94.7143V235.714H82.9282V223.928Z" fill="white"/>
<path d="M94.7141 223.928H106.5V235.714H94.7141V223.928Z" fill="white"/>
<path d="M118.286 223.928H130.072V235.714H118.286V223.928Z" fill="white"/>
<path d="M130.073 223.928H141.859V235.714H130.073V223.928Z" fill="white"/>
<path d="M141.859 223.928H153.645V235.714H141.859V223.928Z" fill="white"/>
<path d="M153.645 223.928H165.431V235.714H153.645V223.928Z" fill="white"/>
<path d="M106.5 223.926H118.286V235.712H106.5V223.926Z" fill="white"/>
<path d="M165.431 223.926H177.215V235.712H165.431V223.926Z" fill="white"/>
<path d="M177.215 223.928H189.001V235.714H177.215V223.928Z" fill="white"/>
<path d="M189.001 223.928H200.787V235.714H189.001V223.928Z" fill="white"/>
<path d="M200.787 223.928H212.572V235.714H200.787V223.928Z" fill="white"/>
<path d="M212.572 223.928H224.358V235.714H212.572V223.928Z" fill="white"/>
<path d="M224.358 235.715H236.144V247.501H224.358V235.715Z" fill="white"/>
<path d="M236.144 235.715H247.93V247.501H236.144V235.715Z" fill="white"/>
<path d="M23.9993 235.715H35.7853V247.501H23.9993V235.715Z" fill="white"/>
<path d="M35.7852 235.715H47.5712V247.501H35.7852V235.715Z" fill="white"/>
<path d="M47.5715 235.715H59.3576V247.501H47.5715V235.715Z" fill="white"/>
<path d="M59.3574 235.715H71.1435V247.501H59.3574V235.715Z" fill="white"/>
<path d="M71.1434 235.715H82.928V247.501H71.1434V235.715Z" fill="white"/>
<path d="M82.9282 235.715H94.7143V247.501H82.9282V235.715Z" fill="white"/>
<path d="M94.7141 235.715H106.5V247.501H94.7141V235.715Z" fill="white"/>
<path d="M118.286 235.715H130.072V247.501H118.286V235.715Z" fill="white"/>
<path d="M130.073 235.715H141.859V247.501H130.073V235.715Z" fill="white"/>
<path d="M141.859 235.715H153.645V247.501H141.859V235.715Z" fill="white"/>
<path d="M153.645 235.715H165.431V247.501H153.645V235.715Z" fill="white"/>
<path d="M106.5 235.714H118.286V247.5H106.5V235.714Z" fill="white"/>
<path d="M165.431 235.714H177.215V247.5H165.431V235.714Z" fill="white"/>
<path d="M177.215 235.715H189.001V247.501H177.215V235.715Z" fill="white"/>
<path d="M189.001 235.715H200.787V247.501H189.001V235.715Z" fill="white"/>
<path d="M200.787 235.715H212.572V247.501H200.787V235.715Z" fill="white"/>
<path d="M212.572 235.715H224.358V247.501H212.572V235.715Z" fill="white"/>
<path d="M224.358 247.5H236.144V259.286H224.358V247.5Z" fill="white"/>
<path d="M236.144 247.5H247.93V259.286H236.144V247.5Z" fill="white"/>
<path d="M35.7852 247.5H47.5712V259.286H35.7852V247.5Z" fill="white"/>
<path d="M47.5715 247.5H59.3576V259.286H47.5715V247.5Z" fill="white"/>
<path d="M59.3574 247.5H71.1435V259.286H59.3574V247.5Z" fill="white"/>
<path d="M71.1434 247.5H82.9295V259.286H71.1434V247.5Z" fill="white"/>
<path d="M82.9297 247.5H94.7142V259.286H82.9297V247.5Z" fill="white"/>
<path d="M94.7141 247.5H106.5V259.286H94.7141V247.5Z" fill="white"/>
<path d="M118.286 247.5H130.072V259.286H118.286V247.5Z" fill="white"/>
<path d="M130.073 247.5H141.859V259.286H130.073V247.5Z" fill="white"/>
<path d="M141.859 247.5H153.645V259.286H141.859V247.5Z" fill="white"/>
<path d="M153.645 247.5H165.431V259.286H153.645V247.5Z" fill="white"/>
<path d="M106.502 247.499H118.286V259.285H106.502V247.499Z" fill="white"/>
<path d="M165.431 247.499H177.215V259.285H165.431V247.499Z" fill="white"/>
<path d="M177.215 247.5H189.001V259.286H177.215V247.5Z" fill="white"/>
<path d="M189.001 247.5H200.787V259.286H189.001V247.5Z" fill="white"/>
<path d="M200.787 247.5H212.572V259.286H200.787V247.5Z" fill="white"/>
<path d="M212.572 247.5H224.358V259.286H212.572V247.5Z" fill="white"/>
<path d="M224.358 259.288H236.144V271.072H224.358V259.288Z" fill="white"/>
<path d="M236.144 259.288H247.93V271.072H236.144V259.288Z" fill="white"/>
<path d="M247.93 259.288H259.715V271.072H247.93V259.288Z" fill="white"/>
<path d="M35.7852 259.288H47.5712V271.072H35.7852V259.288Z" fill="white"/>
<path d="M47.5715 259.288H59.3576V271.072H47.5715V259.288Z" fill="white"/>
<path d="M59.3574 259.288H71.1435V271.072H59.3574V259.288Z" fill="white"/>
<path d="M71.1434 259.288H82.928V271.072H71.1434V259.288Z" fill="white"/>
<path d="M82.9282 259.288H94.7143V271.072H82.9282V259.288Z" fill="white"/>
<path d="M94.7141 259.288H106.5V271.072H94.7141V259.288Z" fill="white"/>
<path d="M118.286 259.288H130.072V271.072H118.286V259.288Z" fill="white"/>
<path d="M130.073 259.288H141.859V271.072H130.073V259.288Z" fill="white"/>
<path d="M141.859 259.288H153.645V271.072H141.859V259.288Z" fill="white"/>
<path d="M153.645 259.288H165.429V271.072H153.645V259.288Z" fill="white"/>
<path d="M106.5 259.286H118.286V271.072H106.5V259.286Z" fill="white"/>
<path d="M165.429 259.286H177.215V271.072H165.429V259.286Z" fill="white"/>
<path d="M177.215 259.288H189.001V271.072H177.215V259.288Z" fill="white"/>
<path d="M189.001 259.288H200.787V271.072H189.001V259.288Z" fill="white"/>
<path d="M200.786 259.288H212.572V271.072H200.786V259.288Z" fill="white"/>
<path d="M212.572 259.288H224.358V271.072H212.572V259.288Z" fill="white"/>
<path d="M224.358 271.073H236.144V282.859H224.358V271.073Z" fill="white"/>
<path d="M236.144 271.073H247.93V282.859H236.144V271.073Z" fill="white"/>
<path d="M247.93 271.073H259.716V282.859H247.93V271.073Z" fill="white"/>
<path d="M47.5715 271.073H59.3576V282.859H47.5715V271.073Z" fill="white"/>
<path d="M59.3574 271.073H71.1435V282.859H59.3574V271.073Z" fill="white"/>
<path d="M71.1434 271.073H82.928V282.859H71.1434V271.073Z" fill="white"/>
<path d="M82.9282 271.073H94.7143V282.859H82.9282V271.073Z" fill="white"/>
<path d="M94.7141 271.073H106.5V282.859H94.7141V271.073Z" fill="white"/>
<path d="M118.286 271.073H130.072V282.859H118.286V271.073Z" fill="white"/>
<path d="M130.073 271.073H141.859V282.859H130.073V271.073Z" fill="white"/>
<path d="M141.859 271.073H153.645V282.859H141.859V271.073Z" fill="white"/>
<path d="M153.645 271.073H165.431V282.859H153.645V271.073Z" fill="white"/>
<path d="M106.5 271.071H118.286V282.857H106.5V271.071Z" fill="white"/>
<path d="M165.431 271.071H177.215V282.857H165.431V271.071Z" fill="white"/>
<path d="M177.215 271.073H189.001V282.859H177.215V271.073Z" fill="white"/>
<path d="M189.001 271.073H200.787V282.859H189.001V271.073Z" fill="white"/>
<path d="M200.787 271.073H212.572V282.859H200.787V271.073Z" fill="white"/>
<path d="M212.572 271.073H224.358V282.859H212.572V271.073Z" fill="white"/>
<path d="M224.358 282.858H236.144V294.644H224.358V282.858Z" fill="white"/>
<path d="M236.144 282.858H247.93V294.644H236.144V282.858Z" fill="white"/>
<path d="M247.93 282.858H259.716V294.644H247.93V282.858Z" fill="white"/>
<path d="M59.3574 282.858H71.1435V294.644H59.3574V282.858Z" fill="white"/>
<path d="M71.1434 282.858H82.928V294.644H71.1434V282.858Z" fill="white"/>
<path d="M82.9282 282.858H94.7143V294.644H82.9282V282.858Z" fill="white"/>
<path d="M94.7141 282.858H106.5V294.644H94.7141V282.858Z" fill="white"/>
<path d="M118.286 282.858H130.072V294.644H118.286V282.858Z" fill="white"/>
<path d="M130.073 282.858H141.859V294.644H130.073V282.858Z" fill="white"/>
<path d="M141.859 282.858H153.645V294.644H141.859V282.858Z" fill="white"/>
<path d="M153.645 282.858H165.431V294.644H153.645V282.858Z" fill="white"/>
<path d="M106.5 282.859H118.286V294.643H106.5V282.859Z" fill="white"/>
<path d="M165.431 282.859H177.215V294.643H165.431V282.859Z" fill="white"/>
<path d="M177.215 282.858H189.001V294.644H177.215V282.858Z" fill="white"/>
<path d="M189.001 282.858H200.787V294.644H189.001V282.858Z" fill="white"/>
<path d="M200.787 282.858H212.572V294.644H200.787V282.858Z" fill="white"/>
<path d="M212.572 282.858H224.358V294.644H212.572V282.858Z" fill="white"/>
<path d="M82.9297 294.643H94.7142V306.429H82.9297V294.643Z" fill="white"/>
<path d="M94.7141 294.643H106.5V306.429H94.7141V294.643Z" fill="white"/>
<path d="M141.859 294.643H153.645V306.429H141.859V294.643Z" fill="white"/>
<path d="M153.645 294.643H165.431V306.429H153.645V294.643Z" fill="white"/>
<path d="M165.431 294.643H177.215V306.427H165.431V294.643Z" fill="white"/>
<path d="M177.215 294.643H189.001V306.429H177.215V294.643Z" fill="white"/>
<path d="M189.001 294.643H200.787V306.429H189.001V294.643Z" fill="white"/>
<path d="M200.787 294.643H212.572V306.429H200.787V294.643Z" fill="white"/>
<path d="M212.572 294.643H224.358V306.429H212.572V294.643Z" fill="white"/>
<path d="M200.786 188.57H212.572V200.356H200.786V188.57Z" fill="white"/>
<path d="M224.358 153.213H236.144V164.999H224.358V153.213Z" fill="white"/>
<path d="M177.215 153.213H189.001V164.999H177.215V153.213Z" fill="white"/>
<path d="M189.001 11.7842H200.787V23.5703H189.001V11.7842Z" fill="#FEB6B8"/>
<path d="M189.001 23.5706H200.786V35.3567H189.001V23.5706Z" fill="#FEB6B8"/>
<path d="M200.786 23.5706H212.572V35.3567H200.786V23.5706Z" fill="#FEB6B8"/>
<path d="M82.9282 23.5706H94.7143V35.3567H82.9282V23.5706Z" fill="#E78E8E"/>
<path d="M94.7141 35.3553H106.5V47.1414H94.7141V35.3553Z" fill="#E78E8E"/>
<path d="M106.5 47.1414H118.286V58.9275H106.5V47.1414Z" fill="#E78E8E"/>
<path d="M94.7141 58.9273H106.5V70.7119H94.7141V58.9273Z" fill="#E78E8E"/>
<path d="M177.215 11.783H189.001V23.5691H177.215V11.783Z" fill="#E78E8E"/>
<path d="M165.429 35.3536H177.215V47.1396H165.429V35.3536Z" fill="#D97D46"/>
<path d="M177.215 35.3553H189.001V47.1414H177.215V35.3553Z" fill="#D97D46"/>
<path d="M189.001 47.1427H200.787V58.9287H189.001V47.1427Z" fill="#D97D46"/>
<path d="M200.786 47.1427H212.572V58.9287H200.786V47.1427Z" fill="#D97D46"/>
<path d="M212.572 58.9273H224.358V70.7119H212.572V58.9273Z" fill="#D97D46"/>
<path d="M47.5715 23.5706H59.3576V35.3567H47.5715V23.5706Z" fill="#FEB5BA"/>
<path d="M59.3574 23.5706H71.1435V35.3567H59.3574V23.5706Z" fill="#FEB5BA"/>
<path d="M71.1434 23.5706H82.928V35.3567H71.1434V23.5706Z" fill="#FEB5BA"/>
<path d="M47.5715 35.3553H59.3576V47.1414H47.5715V35.3553Z" fill="#FEB5BA"/>
<path d="M59.3574 35.3553H71.1435V47.1414H59.3574V35.3553Z" fill="#FEB5BA"/>
<path d="M82.9282 35.3553H94.7143V47.1414H82.9282V35.3553Z" fill="#FEB5BA"/>
<path d="M47.5715 47.1427H59.3576V58.9287H47.5715V47.1427Z" fill="#FEB5BA"/>
<path d="M59.3574 47.1427H71.1435V58.9287H59.3574V47.1427Z" fill="#FEB5BA"/>
<path d="M71.1434 47.1427H82.928V58.9287H71.1434V47.1427Z" fill="#FEB5BA"/>
<path d="M94.7141 47.1427H106.5V58.9287H94.7141V47.1427Z" fill="#FEB5BA"/>
<path d="M47.5715 58.9273H59.3576V70.7119H47.5715V58.9273Z" fill="#FEB5BA"/>
<path d="M59.3574 58.9273H71.1435V70.7119H59.3574V58.9273Z" fill="#FEB5BA"/>
<path d="M82.9282 58.9273H94.7143V70.7119H82.9282V58.9273Z" fill="#FEB5BA"/>
<path d="M59.3574 70.7135H71.1435V82.4995H59.3574V70.7135Z" fill="#FEB5BA"/>
<path d="M71.1434 70.7135H82.928V82.4995H71.1434V70.7135Z" fill="#FEB5BA"/>
<path d="M224.358 82.4978H236.144V94.2839H224.358V82.4978Z" fill="#D97D46"/>
<path d="M130.073 82.4978H141.859V94.2839H130.073V82.4978Z" fill="#D97D46"/>
<path d="M141.859 82.4978H153.645V94.2839H141.859V82.4978Z" fill="#D97D46"/>
<path d="M153.645 94.2852H165.429V106.071H153.645V94.2852Z" fill="#D97D46"/>
<path d="M212.572 94.2852H224.358V106.071H212.572V94.2852Z" fill="#D97D46"/>
<path d="M82.9282 70.7135H94.7143V82.4995H82.9282V70.7135Z" fill="#FE9454"/>
<path d="M59.3574 82.4978H71.1435V94.2839H59.3574V82.4978Z" fill="#FE9454"/>
<path d="M71.1434 82.4978H82.928V94.2839H71.1434V82.4978Z" fill="#FE9454"/>
<path d="M118.286 35.3553H130.072V47.1414H118.286V35.3553Z" fill="#FE9454"/>
<path d="M130.073 35.3553H141.859V47.1414H130.073V35.3553Z" fill="#FE9454"/>
<path d="M141.859 35.3553H153.645V47.1414H141.859V35.3553Z" fill="#FE9454"/>
<path d="M153.645 35.3553H165.429V47.1414H153.645V35.3553Z" fill="#FE9454"/>
<path d="M118.286 47.1427H130.072V58.9287H118.286V47.1427Z" fill="#FE9454"/>
<path d="M130.073 47.1427H141.859V58.9287H130.073V47.1427Z" fill="#FE9454"/>
<path d="M141.859 47.1427H153.645V58.9287H141.859V47.1427Z" fill="#FE9454"/>
<path d="M153.645 47.1427H165.429V58.9287H153.645V47.1427Z" fill="#FE9454"/>
<path d="M165.429 47.1414H177.215V58.9275H165.429V47.1414Z" fill="#FE9454"/>
<path d="M177.215 47.1427H189.001V58.9287H177.215V47.1427Z" fill="#FE9454"/>
<path d="M118.286 58.9273H130.072V70.7119H118.286V58.9273Z" fill="#FE9454"/>
<path d="M130.073 58.9273H141.859V70.7119H130.073V58.9273Z" fill="#FE9454"/>
<path d="M141.859 58.9273H153.645V70.7119H141.859V58.9273Z" fill="#FE9454"/>
<path d="M153.645 58.9273H165.431V70.7119H153.645V58.9273Z" fill="#FE9454"/>
<path d="M106.5 58.9258H118.286V70.7119H106.5V58.9258Z" fill="#FE9454"/>
<path d="M165.431 58.9258H177.215V70.7119H165.431V58.9258Z" fill="#FE9454"/>
<path d="M177.215 58.9273H189.001V70.7119H177.215V58.9273Z" fill="#FE9454"/>
<path d="M189.001 58.9273H200.787V70.7119H189.001V58.9273Z" fill="#FE9454"/>
<path d="M200.787 58.9273H212.572V70.7119H200.787V58.9273Z" fill="#FE9454"/>
<path d="M224.358 70.7135H236.144V82.4995H224.358V70.7135Z" fill="#FE9454"/>
<path d="M94.7141 70.7135H106.5V82.4995H94.7141V70.7135Z" fill="#FE9454"/>
<path d="M118.286 70.7135H130.072V82.4995H118.286V70.7135Z" fill="#FE9454"/>
<path d="M130.073 70.7135H141.859V82.4995H130.073V70.7135Z" fill="#FE9454"/>
<path d="M141.859 70.7135H153.645V82.4995H141.859V70.7135Z" fill="#FE9454"/>
<path d="M153.645 70.7135H165.429V82.4995H153.645V70.7135Z" fill="#FE9454"/>
<path d="M106.5 70.7122H118.286V82.4983H106.5V70.7122Z" fill="#FE9454"/>
<path d="M165.429 70.7122H177.215V82.4983H165.429V70.7122Z" fill="#FE9454"/>
<path d="M177.215 70.7135H189.001V82.4995H177.215V70.7135Z" fill="#FE9454"/>
<path d="M189.001 70.7135H200.786V82.4995H189.001V70.7135Z" fill="#FE9454"/>
<path d="M200.786 70.7135H212.572V82.4995H200.786V70.7135Z" fill="#FE9454"/>
<path d="M212.572 70.7135H224.358V82.4995H212.572V70.7135Z" fill="#FE9454"/>
<path d="M236.144 82.4978H247.93V94.2839H236.144V82.4978Z" fill="#FE9454"/>
<path d="M82.9282 82.4978H94.7143V94.2839H82.9282V82.4978Z" fill="#FE9454"/>
<path d="M94.7141 82.4978H106.5V94.2839H94.7141V82.4978Z" fill="#FE9454"/>
<path d="M118.286 82.4978H130.072V94.2839H118.286V82.4978Z" fill="#FE9454"/>
<path d="M153.645 82.4978H165.429V94.2839H153.645V82.4978Z" fill="#FE9454"/>
<path d="M106.5 82.4978H118.286V94.2839H106.5V82.4978Z" fill="#FE9454"/>
<path d="M165.429 82.4978H177.215V94.2839H165.429V82.4978Z" fill="#FE9454"/>
<path d="M177.215 82.4978H189.001V94.2839H177.215V82.4978Z" fill="#FE9454"/>
<path d="M189.001 82.4978H200.787V94.2839H189.001V82.4978Z" fill="#FE9454"/>
<path d="M200.786 82.4978H212.572V94.2839H200.786V82.4978Z" fill="#FE9454"/>
<path d="M212.572 82.4978H224.358V94.2839H212.572V82.4978Z" fill="#FE9454"/>
<path d="M247.93 94.2852H259.715V106.071H247.93V94.2852Z" fill="#FE9454"/>
<path d="M59.3574 94.2852H71.1435V106.071H59.3574V94.2852Z" fill="#FE9454"/>
<path d="M71.1434 94.2852H82.928V106.071H71.1434V94.2852Z" fill="#FE9454"/>
<path d="M82.9282 94.2852H94.7143V106.071H82.9282V94.2852Z" fill="#FE9454"/>
<path d="M94.7141 94.2852H106.5V106.071H94.7141V94.2852Z" fill="#FE9454"/>
<path d="M118.286 94.2852H130.072V106.071H118.286V94.2852Z" fill="#FE9454"/>
<path d="M130.073 94.2852H141.859V106.071H130.073V94.2852Z" fill="#FE9454"/>
<path d="M141.859 94.2852H153.645V106.071H141.859V94.2852Z" fill="#FE9454"/>
<path d="M106.5 94.284H118.286V106.07H106.5V94.284Z" fill="#FE9454"/>
<path d="M165.429 94.284H177.215V106.07H165.429V94.284Z" fill="#FE9454"/>
<path d="M177.215 94.2852H189.001V106.071H177.215V94.2852Z" fill="#FE9454"/>
<path d="M189.001 94.2852H200.787V106.071H189.001V94.2852Z" fill="#FE9454"/>
<path d="M200.786 94.2852H212.572V106.071H200.786V94.2852Z" fill="#FE9454"/>
<path d="M224.358 106.07H236.144V117.856H224.358V106.07Z" fill="#FE9454"/>
<path d="M236.144 106.07H247.93V117.856H236.144V106.07Z" fill="#FE9454"/>
<path d="M247.93 106.07H259.716V117.856H247.93V106.07Z" fill="#FE9454"/>
<path d="M47.5715 106.07H59.3576V117.856H47.5715V106.07Z" fill="#FE9454"/>
<path d="M59.3574 106.07H71.1435V117.856H59.3574V106.07Z" fill="#FE9454"/>
<path d="M71.1434 106.07H82.928V117.856H71.1434V106.07Z" fill="#FE9454"/>
<path d="M82.9282 106.07H94.7143V117.856H82.9282V106.07Z" fill="#FE9454"/>
<path d="M94.7141 106.07H106.5V117.856H94.7141V106.07Z" fill="#FE9454"/>
<path d="M118.286 106.07H130.072V117.856H118.286V106.07Z" fill="#FE9454"/>
<path d="M130.073 106.07H141.859V117.856H130.073V106.07Z" fill="#FE9454"/>
<path d="M106.5 106.068H118.286V117.854H106.5V106.068Z" fill="#FE9454"/>
<path d="M165.431 106.068H177.215V117.854H165.431V106.068Z" fill="#FE9454"/>
<path d="M177.215 106.07H189.001V117.856H177.215V106.07Z" fill="#FE9454"/>
<path d="M189.001 106.07H200.787V117.856H189.001V106.07Z" fill="#FE9454"/>
<path d="M200.787 106.07H212.572V117.856H200.787V106.07Z" fill="#FE9454"/>
<path d="M224.358 117.856H236.144V129.642H224.358V117.856Z" fill="#FE9454"/>
<path d="M236.144 117.856H247.93V129.642H236.144V117.856Z" fill="#FE9454"/>
<path d="M247.93 117.856H259.715V129.642H247.93V117.856Z" fill="#FE9454"/>
<path d="M47.5715 117.856H59.3576V129.642H47.5715V117.856Z" fill="#FE9454"/>
<path d="M59.3574 117.856H71.1435V129.642H59.3574V117.856Z" fill="#FE9454"/>
<path d="M71.1434 117.856H82.928V129.642H71.1434V117.856Z" fill="#FE9454"/>
<path d="M82.9282 117.856H94.7143V129.642H82.9282V117.856Z" fill="#FE9454"/>
<path d="M94.7141 117.856H106.5V129.642H94.7141V117.856Z" fill="#FE9454"/>
<path d="M118.286 117.856H130.072V129.642H118.286V117.856Z" fill="#FE9454"/>
<path d="M141.859 117.856H153.645V129.642H141.859V117.856Z" fill="#FE9454"/>
<path d="M153.645 117.856H165.429V129.642H153.645V117.856Z" fill="#FE9454"/>
<path d="M106.5 117.855H118.286V129.641H106.5V117.855Z" fill="#FE9454"/>
<path d="M165.429 117.855H177.215V129.641H165.429V117.855Z" fill="#FE9454"/>
<path d="M177.215 117.856H189.001V129.642H177.215V117.856Z" fill="#FE9454"/>
<path d="M189.001 117.856H200.787V129.642H189.001V117.856Z" fill="#FE9454"/>
<path d="M212.572 117.856H224.358V129.642H212.572V117.856Z" fill="#FE9454"/>
<path d="M35.7852 129.641H47.5712V141.427H35.7852V129.641Z" fill="#FE9454"/>
<path d="M47.5715 129.641H59.3576V141.427H47.5715V129.641Z" fill="#FE9454"/>
<path d="M59.3574 129.641H71.1435V141.427H59.3574V129.641Z" fill="#FE9454"/>
<path d="M71.1434 129.641H82.928V141.427H71.1434V129.641Z" fill="#FE9454"/>
<path d="M82.9282 129.641H94.7143V141.427H82.9282V129.641Z" fill="#FE9454"/>
<path d="M94.7141 129.641H106.5V141.427H94.7141V129.641Z" fill="#FE9454"/>
<path d="M118.286 129.641H130.072V141.427H118.286V129.641Z" fill="#FE9454"/>
<path d="M130.073 129.641H141.859V141.427H130.073V129.641Z" fill="#FE9454"/>
<path d="M141.859 129.641H153.645V141.427H141.859V129.641Z" fill="#FE9454"/>
<path d="M153.645 129.641H165.431V141.427H153.645V129.641Z" fill="#FE9454"/>
<path d="M106.5 129.639H118.286V141.425H106.5V129.639Z" fill="#FE9454"/>
<path d="M35.7852 141.428H47.5712V153.214H35.7852V141.428Z" fill="#FE9454"/>
<path d="M47.5715 141.428H59.3576V153.214H47.5715V141.428Z" fill="#FE9454"/>
<path d="M59.3574 141.428H71.1435V153.214H59.3574V141.428Z" fill="#FE9454"/>
<path d="M71.1434 141.428H82.928V153.214H71.1434V141.428Z" fill="#FE9454"/>
<path d="M224.358 176.785H236.144V188.571H224.358V176.785Z" fill="#FEDFB6"/>
<path d="M165.429 176.784H177.215V188.57H165.429V176.784Z" fill="#FEDFB6"/>
<path d="M177.215 176.785H189.001V188.571H177.215V176.785Z" fill="#FEDFB6"/>
<path d="M236.144 188.573H247.93V200.359H236.144V188.573Z" fill="#FEDFB6"/>
<path d="M153.645 188.573H165.429V200.359H153.645V188.573Z" fill="#FEDFB6"/>
<path d="M165.429 188.571H177.215V200.357H165.429V188.571Z" fill="#FEDFB6"/>
<path d="M224.358 188.573H236.144V200.359H224.358V188.573Z" fill="#EBC490"/>
<path d="M177.215 188.573H189.001V200.359H177.215V188.573Z" fill="#EBC490"/>
<path d="M165.431 200.356H177.215V212.142H165.431V200.356Z" fill="#EBC490"/>
<path d="M12.2148 176.785H23.9994V188.571H12.2148V176.785Z" fill="#DFDFDF"/>
<path d="M12.2148 188.573H23.9994V200.359H12.2148V188.573Z" fill="#DFDFDF"/>
<path d="M12.2148 200.357H23.9994V212.143H12.2148V200.357Z" fill="#DFDFDF"/>
<path d="M12.2148 212.143H23.9994V223.929H12.2148V212.143Z" fill="#DFDFDF"/>
<path d="M12.2148 223.928H23.9994V235.714H12.2148V223.928Z" fill="#DFDFDF"/>
<path d="M12.2148 235.715H23.9994V247.501H12.2148V235.715Z" fill="#DFDFDF"/>
<path d="M12.2148 247.5H23.9994V259.286H12.2148V247.5Z" fill="#DFDFDF"/>
<path d="M23.9993 247.5H35.7853V259.286H23.9993V247.5Z" fill="#DFDFDF"/>
<path d="M23.9993 259.288H35.7853V271.072H23.9993V259.288Z" fill="#DFDFDF"/>
<path d="M23.9993 271.073H35.7853V282.859H23.9993V271.073Z" fill="#DFDFDF"/>
<path d="M35.7852 271.073H47.5712V282.859H35.7852V271.073Z" fill="#DFDFDF"/>
<path d="M35.7852 282.858H47.5712V294.644H35.7852V282.858Z" fill="#DFDFDF"/>
<path d="M47.5715 282.858H59.3576V294.644H47.5715V282.858Z" fill="#DFDFDF"/>
<path d="M59.3574 294.643H71.1435V306.429H59.3574V294.643Z" fill="#DFDFDF"/>
<path d="M71.1434 294.643H82.9295V306.429H71.1434V294.643Z" fill="#DFDFDF"/>
<path d="M224.358 294.643H236.144V306.429H224.358V294.643Z" fill="#FFB3B6"/>
<path d="M236.144 294.643H247.93V306.429H236.144V294.643Z" fill="#FFB3B6"/>
<path d="M118.286 294.643H130.072V306.429H118.286V294.643Z" fill="#FFB3B6"/>
<path d="M106.502 294.643H118.286V306.427H106.502V294.643Z" fill="#FFB3B6"/>
<path d="M224.358 306.429H236.144V318.215H224.358V306.429Z" fill="#FFB3B6"/>
<path d="M236.144 306.429H247.93V318.215H236.144V306.429Z" fill="#FFB3B6"/>
<path d="M247.93 306.429H259.716V318.215H247.93V306.429Z" fill="#FFB3B6"/>
<path d="M94.7141 306.429H106.5V318.215H94.7141V306.429Z" fill="#FFB3B6"/>
<path d="M118.286 306.429H130.072V318.215H118.286V306.429Z" fill="#FFB3B6"/>
<path d="M130.073 306.429H141.859V318.215H130.073V306.429Z" fill="#FFB3B6"/>
<path d="M106.5 306.428H118.286V318.214H106.5V306.428Z" fill="#FFB3B6"/>
<path d="M212.572 306.429H224.358V318.215H212.572V306.429Z" fill="#FFB3B6"/>
<path d="M177.215 -0.000170916H189.001V11.7859H177.215V-0.000170916Z" fill="black"/>
<path d="M189.001 -0.000170916H200.786V11.7859H189.001V-0.000170916Z" fill="black"/>
<path d="M165.429 11.783H177.215V23.5691H165.429V11.783Z" fill="black"/>
<path d="M200.786 11.7842H212.572V23.5703H200.786V11.7842Z" fill="black"/>
<path d="M212.572 23.5706H224.358V35.3567H212.572V23.5706Z" fill="black"/>
<path d="M212.572 35.3553H224.358V47.1414H212.572V35.3553Z" fill="black"/>
<path d="M71.1434 35.3553H82.928V47.1414H71.1434V35.3553Z" fill="black"/>
<path d="M82.9282 47.1427H94.7143V58.9287H82.9282V47.1427Z" fill="black"/>
<path d="M71.1434 58.9273H82.928V70.7119H71.1434V58.9273Z" fill="black"/>
<path d="M224.358 94.2852H236.144V106.071H224.358V94.2852Z" fill="black"/>
<path d="M236.144 94.2852H247.93V106.071H236.144V94.2852Z" fill="black"/>
<path d="M141.859 106.07H153.645V117.856H141.859V106.07Z" fill="black"/>
<path d="M153.645 106.07H165.431V117.856H153.645V106.07Z" fill="black"/>
<path d="M212.572 106.07H224.358V117.856H212.572V106.07Z" fill="black"/>
<path d="M130.073 117.856H141.859V129.642H130.073V117.856Z" fill="black"/>
<path d="M200.787 129.641H212.572V141.427H200.787V129.641Z" fill="black"/>
<path d="M189.001 141.428H200.787V153.214H189.001V141.428Z" fill="black"/>
<path d="M212.572 141.428H224.358V153.214H212.572V141.428Z" fill="black"/>
<path d="M224.358 165.001H236.144V176.787H224.358V165.001Z" fill="black"/>
<path d="M165.429 164.999H177.215V176.785H165.429V164.999Z" fill="black"/>
<path d="M177.215 164.999H189.001V176.785H177.215V164.999Z" fill="black"/>
<path d="M189.001 165.001H200.786V176.787H189.001V165.001Z" fill="black"/>
<path d="M212.572 165.001H224.358V176.787H212.572V165.001Z" fill="black"/>
<path d="M236.144 176.785H247.93V188.571H236.144V176.785Z" fill="black"/>
<path d="M153.645 176.785H165.429V188.571H153.645V176.785Z" fill="black"/>
<path d="M189.001 176.785H200.787V188.571H189.001V176.785Z" fill="black"/>
<path d="M212.572 176.785H224.358V188.571H212.572V176.785Z" fill="black"/>
<path d="M189.001 188.573H200.787V200.359H189.001V188.573Z" fill="black"/>
<path d="M212.572 188.573H224.358V200.359H212.572V188.573Z" fill="black"/>
<path d="M224.358 200.357H236.144V212.143H224.358V200.357Z" fill="black"/>
<path d="M177.215 200.357H189.001V212.143H177.215V200.357Z" fill="black"/>
<path d="M130.073 294.643H141.859V306.429H130.073V294.643Z" fill="black"/>
<path d="M47.5715 11.7842H59.3576V23.5703H47.5715V11.7842Z" fill="black"/>
<path d="M59.3574 11.7842H71.1435V23.5703H59.3574V11.7842Z" fill="black"/>
<path d="M71.1434 11.7842H82.928V23.5703H71.1434V11.7842Z" fill="black"/>
<path d="M82.9282 11.7842H94.7143V23.5703H82.9282V11.7842Z" fill="black"/>
<path d="M35.7852 23.5706H47.5712V35.3567H35.7852V23.5706Z" fill="black"/>
<path d="M94.7141 23.5706H106.5V35.3567H94.7141V23.5706Z" fill="black"/>
<path d="M118.286 23.5706H130.072V35.3567H118.286V23.5706Z" fill="black"/>
<path d="M130.073 23.5706H141.859V35.3567H130.073V23.5706Z" fill="black"/>
<path d="M141.859 23.5706H153.645V35.3567H141.859V23.5706Z" fill="black"/>
<path d="M153.645 23.5706H165.429V35.3567H153.645V23.5706Z" fill="black"/>
<path d="M165.429 23.5689H177.215V35.355H165.429V23.5689Z" fill="black"/>
<path d="M177.215 23.5706H189.001V35.3567H177.215V23.5706Z" fill="black"/>
<path d="M35.7852 35.3553H47.5712V47.1414H35.7852V35.3553Z" fill="black"/>
<path d="M106.5 35.3536H118.286V47.1396H106.5V35.3536Z" fill="black"/>
<path d="M189.001 35.3553H200.787V47.1414H189.001V35.3553Z" fill="black"/>
<path d="M200.786 35.3553H212.572V47.1414H200.786V35.3553Z" fill="black"/>
<path d="M35.7852 47.1427H47.5712V58.9287H35.7852V47.1427Z" fill="black"/>
<path d="M212.572 47.1427H224.358V58.9287H212.572V47.1427Z" fill="black"/>
<path d="M224.358 58.9273H236.144V70.7119H224.358V58.9273Z" fill="black"/>
<path d="M35.7852 58.9273H47.5712V70.7119H35.7852V58.9273Z" fill="black"/>
<path d="M236.144 70.7135H247.93V82.4995H236.144V70.7135Z" fill="black"/>
<path d="M47.5715 70.7135H59.3576V82.4995H47.5715V70.7135Z" fill="black"/>
<path d="M247.93 82.4978H259.715V94.2839H247.93V82.4978Z" fill="black"/>
<path d="M47.5715 82.4978H59.3576V94.2839H47.5715V82.4978Z" fill="black"/>
<path d="M259.715 94.2852H271.501V106.071H259.715V94.2852Z" fill="black"/>
<path d="M47.5715 94.2852H59.3576V106.071H47.5715V94.2852Z" fill="black"/>
<path d="M259.716 106.07H271.501V117.856H259.716V106.07Z" fill="black"/>
<path d="M35.7852 106.07H47.5712V117.856H35.7852V106.07Z" fill="black"/>
<path d="M271.501 117.856H283.287V129.642H271.501V117.856Z" fill="black"/>
<path d="M35.7852 117.856H47.5712V129.642H35.7852V117.856Z" fill="black"/>
<path d="M271.501 129.641H283.287V141.427H271.501V129.641Z" fill="black"/>
<path d="M23.9993 129.641H35.7853V141.427H23.9993V129.641Z" fill="black"/>
<path d="M271.501 141.428H283.287V153.214H271.501V141.428Z" fill="black"/>
<path d="M23.9993 141.428H35.7853V153.214H23.9993V141.428Z" fill="black"/>
<path d="M271.501 153.213H283.287V164.999H271.501V153.213Z" fill="black"/>
<path d="M12.2148 153.213H23.9994V164.999H12.2148V153.213Z" fill="black"/>
<path d="M271.501 165.001H283.287V176.787H271.501V165.001Z" fill="black"/>
<path d="M12.2131 165.001H23.9992V176.787H12.2131V165.001Z" fill="black"/>
<path d="M259.715 176.785H271.501V188.571H259.715V176.785Z" fill="black"/>
<path d="M0.428589 176.785H12.2132V188.571H0.428589V176.785Z" fill="black"/>
<path d="M271.501 188.573H283.287V200.359H271.501V188.573Z" fill="black"/>
<path d="M0.428589 188.573H12.2132V200.359H0.428589V188.573Z" fill="black"/>
<path d="M271.501 200.357H283.287V212.143H271.501V200.357Z" fill="black"/>
<path d="M0.428589 200.357H12.2147V212.143H0.428589V200.357Z" fill="black"/>
<path d="M271.501 212.143H283.287V223.929H271.501V212.143Z" fill="black"/>
<path d="M0.428589 212.143H12.2132V223.929H0.428589V212.143Z" fill="black"/>
<path d="M259.716 223.928H271.501V235.714H259.716V223.928Z" fill="black"/>
<path d="M0.428589 223.928H12.2147V235.714H0.428589V223.928Z" fill="black"/>
<path d="M247.93 235.715H259.716V247.501H247.93V235.715Z" fill="black"/>
<path d="M0.428589 235.715H12.2147V247.501H0.428589V235.715Z" fill="black"/>
<path d="M247.93 247.5H259.716V259.286H247.93V247.5Z" fill="black"/>
<path d="M0.428589 247.5H12.2147V259.286H0.428589V247.5Z" fill="black"/>
<path d="M259.715 259.288H271.501V271.072H259.715V259.288Z" fill="black"/>
<path d="M12.2148 259.288H23.9994V271.072H12.2148V259.288Z" fill="black"/>
<path d="M259.716 271.073H271.501V282.859H259.716V271.073Z" fill="black"/>
<path d="M12.2148 271.073H23.9994V282.859H12.2148V271.073Z" fill="black"/>
<path d="M259.716 282.858H271.501V294.644H259.716V282.858Z" fill="black"/>
<path d="M23.9993 282.858H35.7853V294.644H23.9993V282.858Z" fill="black"/>
<path d="M247.93 294.643H259.716V306.429H247.93V294.643Z" fill="black"/>
<path d="M35.7852 294.643H47.5712V306.429H35.7852V294.643Z" fill="black"/>
<path d="M47.5715 294.643H59.3576V306.429H47.5715V294.643Z" fill="black"/>
<path d="M259.716 306.429H271.501V318.215H259.716V306.429Z" fill="black"/>
<path d="M59.3574 306.429H71.1435V318.215H59.3574V306.429Z" fill="black"/>
<path d="M71.1434 306.429H82.928V318.215H71.1434V306.429Z" fill="black"/>
<path d="M82.9282 306.429H94.7143V318.215H82.9282V306.429Z" fill="black"/>
<path d="M141.859 306.429H153.645V318.215H141.859V306.429Z" fill="black"/>
<path d="M153.645 306.429H165.431V318.215H153.645V306.429Z" fill="black"/>
<path d="M165.431 306.428H177.215V318.214H165.431V306.428Z" fill="black"/>
<path d="M177.215 306.429H189.001V318.215H177.215V306.429Z" fill="black"/>
<path d="M189.001 306.429H200.787V318.215H189.001V306.429Z" fill="black"/>
<path d="M200.787 306.429H212.572V318.215H200.787V306.429Z" fill="black"/>
<path d="M94.7141 318.214H106.5V330H94.7141V318.214Z" fill="black"/>
<path d="M118.286 318.214H130.072V330H118.286V318.214Z" fill="black"/>
<path d="M130.073 318.214H141.859V330H130.073V318.214Z" fill="black"/>
<path d="M106.502 318.213H118.286V329.998H106.502V318.213Z" fill="black"/>
<path d="M212.572 318.214H224.358V330H212.572V318.214Z" fill="black"/>
<path d="M224.358 318.214H236.144V330H224.358V318.214Z" fill="black"/>
<path d="M236.144 318.214H247.93V330H236.144V318.214Z" fill="black"/>
<path d="M247.93 318.214H259.715V330H247.93V318.214Z" fill="black"/>
<path d="M259.715 117.856H271.501V129.642H259.715V117.856Z" fill="white"/>
<path d="M200.786 117.856H212.572V129.642H200.786V117.856Z" fill="white"/>
<path d="M224.358 129.641H236.144V141.427H224.358V129.641Z" fill="white"/>
<path d="M236.144 129.641H247.93V141.427H236.144V129.641Z" fill="white"/>
<path d="M247.93 129.641H259.716V141.427H247.93V129.641Z" fill="white"/>
<path d="M259.716 129.641H271.501V141.427H259.716V129.641Z" fill="white"/>
<path d="M165.431 129.639H177.215V141.425H165.431V129.639Z" fill="white"/>
<path d="M177.215 129.641H189.001V141.427H177.215V129.641Z" fill="white"/>
<path d="M189.001 129.641H200.787V141.427H189.001V129.641Z" fill="white"/>
<path d="M212.572 129.641H224.358V141.427H212.572V129.641Z" fill="white"/>
<path d="M224.358 141.428H236.144V153.214H224.358V141.428Z" fill="white"/>
<path d="M236.144 141.428H247.93V153.214H236.144V141.428Z" fill="white"/>
<path d="M247.93 141.428H259.716V153.214H247.93V141.428Z" fill="white"/>
<path d="M259.716 141.428H271.501V153.214H259.716V141.428Z" fill="white"/>
<path d="M82.9282 141.428H94.7143V153.214H82.9282V141.428Z" fill="white"/>
<path d="M94.7141 141.428H106.5V153.214H94.7141V141.428Z" fill="white"/>
<path d="M118.286 141.428H130.072V153.214H118.286V141.428Z" fill="white"/>
<path d="M130.073 141.428H141.859V153.214H130.073V141.428Z" fill="white"/>
<path d="M141.859 141.428H153.645V153.214H141.859V141.428Z" fill="white"/>
<path d="M153.645 141.428H165.431V153.214H153.645V141.428Z" fill="white"/>
<path d="M106.5 141.427H118.286V153.213H106.5V141.427Z" fill="white"/>
<path d="M165.431 141.427H177.215V153.213H165.431V141.427Z" fill="white"/>
<path d="M177.215 141.428H189.001V153.214H177.215V141.428Z" fill="white"/>
<path d="M200.787 141.428H212.572V153.214H200.787V141.428Z" fill="white"/>
<path d="M236.144 153.213H247.93V164.999H236.144V153.213Z" fill="white"/>
<path d="M247.93 153.213H259.716V164.999H247.93V153.213Z" fill="white"/>
<path d="M259.716 153.213H271.501V164.999H259.716V153.213Z" fill="white"/>
<path d="M23.9993 153.213H35.7853V164.999H23.9993V153.213Z" fill="white"/>
<path d="M35.7852 153.213H47.5712V164.999H35.7852V153.213Z" fill="white"/>
<path d="M47.5715 153.213H59.3576V164.999H47.5715V153.213Z" fill="white"/>
<path d="M59.3574 153.213H71.1435V164.999H59.3574V153.213Z" fill="white"/>
<path d="M71.1434 153.213H82.9295V164.999H71.1434V153.213Z" fill="white"/>
<path d="M82.9297 153.213H94.7142V164.999H82.9297V153.213Z" fill="white"/>
<path d="M94.7141 153.213H106.5V164.999H94.7141V153.213Z" fill="white"/>
<path d="M118.286 153.213H130.072V164.999H118.286V153.213Z" fill="white"/>
<path d="M130.073 153.213H141.859V164.999H130.073V153.213Z" fill="white"/>
<path d="M141.859 153.213H153.645V164.999H141.859V153.213Z" fill="white"/>
<path d="M153.645 153.213H165.431V164.999H153.645V153.213Z" fill="white"/>
<path d="M106.502 153.212H118.286V164.998H106.502V153.212Z" fill="white"/>
<path d="M165.431 153.212H177.215V164.998H165.431V153.212Z" fill="white"/>
<path d="M189.001 153.213H200.787V164.999H189.001V153.213Z" fill="white"/>
<path d="M200.787 153.213H212.572V164.999H200.787V153.213Z" fill="white"/>
<path d="M212.572 153.213H224.358V164.999H212.572V153.213Z" fill="white"/>
<path d="M236.144 165.001H247.93V176.787H236.144V165.001Z" fill="white"/>
<path d="M247.93 165.001H259.715V176.787H247.93V165.001Z" fill="white"/>
<path d="M259.715 165.001H271.501V176.787H259.715V165.001Z" fill="white"/>
<path d="M23.9993 165.001H35.7853V176.787H23.9993V165.001Z" fill="white"/>
<path d="M35.7852 165.001H47.5712V176.787H35.7852V165.001Z" fill="white"/>
<path d="M47.5715 165.001H59.3576V176.787H47.5715V165.001Z" fill="white"/>
<path d="M59.3574 165.001H71.1435V176.787H59.3574V165.001Z" fill="white"/>
<path d="M71.1434 165.001H82.928V176.787H71.1434V165.001Z" fill="white"/>
<path d="M82.9282 165.001H94.7143V176.787H82.9282V165.001Z" fill="white"/>
<path d="M94.7141 165.001H106.5V176.787H94.7141V165.001Z" fill="white"/>
<path d="M118.286 165.001H130.072V176.787H118.286V165.001Z" fill="white"/>
<path d="M130.073 165.001H141.859V176.787H130.073V165.001Z" fill="white"/>
<path d="M141.859 165.001H153.645V176.787H141.859V165.001Z" fill="white"/>
<path d="M153.645 165.001H165.429V176.787H153.645V165.001Z" fill="white"/>
<path d="M106.5 164.999H118.286V176.785H106.5V164.999Z" fill="white"/>
<path d="M200.786 165.001H212.572V176.787H200.786V165.001Z" fill="white"/>
<path d="M247.93 176.785H259.715V188.571H247.93V176.785Z" fill="white"/>
<path d="M23.9993 176.785H35.7853V188.571H23.9993V176.785Z" fill="white"/>
<path d="M35.7852 176.785H47.5712V188.571H35.7852V176.785Z" fill="white"/>
<path d="M47.5715 176.785H59.3576V188.571H47.5715V176.785Z" fill="white"/>
<path d="M59.3574 176.785H71.1435V188.571H59.3574V176.785Z" fill="white"/>
<path d="M71.1434 176.785H82.928V188.571H71.1434V176.785Z" fill="white"/>
<path d="M82.9282 176.785H94.7143V188.571H82.9282V176.785Z" fill="white"/>
<path d="M94.7141 176.785H106.5V188.571H94.7141V176.785Z" fill="white"/>
<path d="M118.286 176.785H130.072V188.571H118.286V176.785Z" fill="white"/>
<path d="M130.073 176.785H141.859V188.571H130.073V176.785Z" fill="white"/>
<path d="M141.859 176.785H153.645V188.571H141.859V176.785Z" fill="white"/>
<path d="M106.5 176.784H118.286V188.57H106.5V176.784Z" fill="white"/>
<path d="M200.786 176.785H212.572V188.571H200.786V176.785Z" fill="white"/>
<path d="M247.93 188.573H259.715V200.359H247.93V188.573Z" fill="white"/>
<path d="M259.715 188.573H271.501V200.359H259.715V188.573Z" fill="white"/>
<path d="M23.9993 188.573H35.7853V200.359H23.9993V188.573Z" fill="white"/>
<path d="M35.7852 188.573H47.5712V200.359H35.7852V188.573Z" fill="white"/>
<path d="M47.5715 188.573H59.3576V200.359H47.5715V188.573Z" fill="white"/>
<path d="M59.3574 188.573H71.1435V200.359H59.3574V188.573Z" fill="white"/>
<path d="M71.1434 188.573H82.928V200.359H71.1434V188.573Z" fill="white"/>
<path d="M82.9282 188.573H94.7143V200.359H82.9282V188.573Z" fill="white"/>
<path d="M94.7141 188.573H106.5V200.359H94.7141V188.573Z" fill="white"/>
<path d="M118.286 188.573H130.072V200.359H118.286V188.573Z" fill="white"/>
<path d="M130.073 188.573H141.859V200.359H130.073V188.573Z" fill="white"/>
<path d="M141.859 188.573H153.645V200.359H141.859V188.573Z" fill="white"/>
<path d="M106.5 188.571H118.286V200.357H106.5V188.571Z" fill="white"/>
<path d="M236.144 200.357H247.93V212.143H236.144V200.357Z" fill="white"/>
<path d="M247.93 200.357H259.716V212.143H247.93V200.357Z" fill="white"/>
<path d="M259.716 200.357H271.501V212.143H259.716V200.357Z" fill="white"/>
<path d="M23.9993 200.357H35.7853V212.143H23.9993V200.357Z" fill="white"/>
<path d="M35.7852 200.357H47.5712V212.143H35.7852V200.357Z" fill="white"/>
<path d="M47.5715 200.357H59.3576V212.143H47.5715V200.357Z" fill="white"/>
<path d="M59.3574 200.357H71.1435V212.143H59.3574V200.357Z" fill="white"/>
<path d="M71.1434 200.357H82.928V212.143H71.1434V200.357Z" fill="white"/>
<path d="M82.9282 200.357H94.7143V212.143H82.9282V200.357Z" fill="white"/>
<path d="M94.7141 200.357H106.5V212.143H94.7141V200.357Z" fill="white"/>
<path d="M118.286 200.357H130.072V212.143H118.286V200.357Z" fill="white"/>
<path d="M130.073 200.357H141.859V212.143H130.073V200.357Z" fill="white"/>
<path d="M141.859 200.357H153.645V212.143H141.859V200.357Z" fill="white"/>
<path d="M153.645 200.357H165.431V212.143H153.645V200.357Z" fill="white"/>
<path d="M106.5 200.356H118.286V212.142H106.5V200.356Z" fill="white"/>
<path d="M189.001 200.357H200.787V212.143H189.001V200.357Z" fill="white"/>
<path d="M200.787 200.357H212.572V212.143H200.787V200.357Z" fill="white"/>
<path d="M212.572 200.357H224.358V212.143H212.572V200.357Z" fill="white"/>
<path d="M224.358 212.143H236.144V223.929H224.358V212.143Z" fill="white"/>
<path d="M236.144 212.143H247.93V223.929H236.144V212.143Z" fill="white"/>
<path d="M247.93 212.143H259.715V223.929H247.93V212.143Z" fill="white"/>
<path d="M259.715 212.143H271.501V223.929H259.715V212.143Z" fill="white"/>
<path d="M23.9993 212.143H35.7853V223.929H23.9993V212.143Z" fill="white"/>
<path d="M35.7852 212.143H47.5712V223.929H35.7852V212.143Z" fill="white"/>
<path d="M47.5715 212.143H59.3576V223.929H47.5715V212.143Z" fill="white"/>
<path d="M59.3574 212.143H71.1435V223.929H59.3574V212.143Z" fill="white"/>
<path d="M71.1434 212.143H82.928V223.929H71.1434V212.143Z" fill="white"/>
<path d="M82.9282 212.143H94.7143V223.929H82.9282V212.143Z" fill="white"/>
<path d="M94.7141 212.143H106.5V223.929H94.7141V212.143Z" fill="white"/>
<path d="M118.286 212.143H130.072V223.929H118.286V212.143Z" fill="white"/>
<path d="M130.073 212.143H141.859V223.929H130.073V212.143Z" fill="white"/>
<path d="M141.859 212.143H153.645V223.929H141.859V212.143Z" fill="white"/>
<path d="M153.645 212.143H165.429V223.929H153.645V212.143Z" fill="white"/>
<path d="M106.5 212.142H118.286V223.928H106.5V212.142Z" fill="white"/>
<path d="M165.429 212.142H177.215V223.928H165.429V212.142Z" fill="white"/>
<path d="M177.215 212.143H189.001V223.929H177.215V212.143Z" fill="white"/>
<path d="M189.001 212.143H200.787V223.929H189.001V212.143Z" fill="white"/>
<path d="M200.786 212.143H212.572V223.929H200.786V212.143Z" fill="white"/>
<path d="M212.572 212.143H224.358V223.929H212.572V212.143Z" fill="white"/>
<path d="M224.358 223.928H236.144V235.714H224.358V223.928Z" fill="white"/>
<path d="M236.144 223.928H247.93V235.714H236.144V223.928Z" fill="white"/>
<path d="M247.93 223.928H259.716V235.714H247.93V223.928Z" fill="white"/>
<path d="M23.9993 223.928H35.7853V235.714H23.9993V223.928Z" fill="white"/>
<path d="M35.7852 223.928H47.5712V235.714H35.7852V223.928Z" fill="white"/>
<path d="M47.5715 223.928H59.3576V235.714H47.5715V223.928Z" fill="white"/>
<path d="M59.3574 223.928H71.1435V235.714H59.3574V223.928Z" fill="white"/>
<path d="M71.1434 223.928H82.928V235.714H71.1434V223.928Z" fill="white"/>
<path d="M82.9282 223.928H94.7143V235.714H82.9282V223.928Z" fill="white"/>
<path d="M94.7141 223.928H106.5V235.714H94.7141V223.928Z" fill="white"/>
<path d="M118.286 223.928H130.072V235.714H118.286V223.928Z" fill="white"/>
<path d="M130.073 223.928H141.859V235.714H130.073V223.928Z" fill="white"/>
<path d="M141.859 223.928H153.645V235.714H141.859V223.928Z" fill="white"/>
<path d="M153.645 223.928H165.431V235.714H153.645V223.928Z" fill="white"/>
<path d="M106.5 223.926H118.286V235.712H106.5V223.926Z" fill="white"/>
<path d="M165.431 223.926H177.215V235.712H165.431V223.926Z" fill="white"/>
<path d="M177.215 223.928H189.001V235.714H177.215V223.928Z" fill="white"/>
<path d="M189.001 223.928H200.787V235.714H189.001V223.928Z" fill="white"/>
<path d="M200.787 223.928H212.572V235.714H200.787V223.928Z" fill="white"/>
<path d="M212.572 223.928H224.358V235.714H212.572V223.928Z" fill="white"/>
<path d="M224.358 235.715H236.144V247.501H224.358V235.715Z" fill="white"/>
<path d="M236.144 235.715H247.93V247.501H236.144V235.715Z" fill="white"/>
<path d="M23.9993 235.715H35.7853V247.501H23.9993V235.715Z" fill="white"/>
<path d="M35.7852 235.715H47.5712V247.501H35.7852V235.715Z" fill="white"/>
<path d="M47.5715 235.715H59.3576V247.501H47.5715V235.715Z" fill="white"/>
<path d="M59.3574 235.715H71.1435V247.501H59.3574V235.715Z" fill="white"/>
<path d="M71.1434 235.715H82.928V247.501H71.1434V235.715Z" fill="white"/>
<path d="M82.9282 235.715H94.7143V247.501H82.9282V235.715Z" fill="white"/>
<path d="M94.7141 235.715H106.5V247.501H94.7141V235.715Z" fill="white"/>
<path d="M118.286 235.715H130.072V247.501H118.286V235.715Z" fill="white"/>
<path d="M130.073 235.715H141.859V247.501H130.073V235.715Z" fill="white"/>
<path d="M141.859 235.715H153.645V247.501H141.859V235.715Z" fill="white"/>
<path d="M153.645 235.715H165.431V247.501H153.645V235.715Z" fill="white"/>
<path d="M106.5 235.714H118.286V247.5H106.5V235.714Z" fill="white"/>
<path d="M165.431 235.714H177.215V247.5H165.431V235.714Z" fill="white"/>
<path d="M177.215 235.715H189.001V247.501H177.215V235.715Z" fill="white"/>
<path d="M189.001 235.715H200.787V247.501H189.001V235.715Z" fill="white"/>
<path d="M200.787 235.715H212.572V247.501H200.787V235.715Z" fill="white"/>
<path d="M212.572 235.715H224.358V247.501H212.572V235.715Z" fill="white"/>
<path d="M224.358 247.5H236.144V259.286H224.358V247.5Z" fill="white"/>
<path d="M236.144 247.5H247.93V259.286H236.144V247.5Z" fill="white"/>
<path d="M35.7852 247.5H47.5712V259.286H35.7852V247.5Z" fill="white"/>
<path d="M47.5715 247.5H59.3576V259.286H47.5715V247.5Z" fill="white"/>
<path d="M59.3574 247.5H71.1435V259.286H59.3574V247.5Z" fill="white"/>
<path d="M71.1434 247.5H82.9295V259.286H71.1434V247.5Z" fill="white"/>
<path d="M82.9297 247.5H94.7142V259.286H82.9297V247.5Z" fill="white"/>
<path d="M94.7141 247.5H106.5V259.286H94.7141V247.5Z" fill="white"/>
<path d="M118.286 247.5H130.072V259.286H118.286V247.5Z" fill="white"/>
<path d="M130.073 247.5H141.859V259.286H130.073V247.5Z" fill="white"/>
<path d="M141.859 247.5H153.645V259.286H141.859V247.5Z" fill="white"/>
<path d="M153.645 247.5H165.431V259.286H153.645V247.5Z" fill="white"/>
<path d="M106.502 247.499H118.286V259.285H106.502V247.499Z" fill="white"/>
<path d="M165.431 247.499H177.215V259.285H165.431V247.499Z" fill="white"/>
<path d="M177.215 247.5H189.001V259.286H177.215V247.5Z" fill="white"/>
<path d="M189.001 247.5H200.787V259.286H189.001V247.5Z" fill="white"/>
<path d="M200.787 247.5H212.572V259.286H200.787V247.5Z" fill="white"/>
<path d="M212.572 247.5H224.358V259.286H212.572V247.5Z" fill="white"/>
<path d="M224.358 259.288H236.144V271.072H224.358V259.288Z" fill="white"/>
<path d="M236.144 259.288H247.93V271.072H236.144V259.288Z" fill="white"/>
<path d="M247.93 259.288H259.715V271.072H247.93V259.288Z" fill="white"/>
<path d="M35.7852 259.288H47.5712V271.072H35.7852V259.288Z" fill="white"/>
<path d="M47.5715 259.288H59.3576V271.072H47.5715V259.288Z" fill="white"/>
<path d="M59.3574 259.288H71.1435V271.072H59.3574V259.288Z" fill="white"/>
<path d="M71.1434 259.288H82.928V271.072H71.1434V259.288Z" fill="white"/>
<path d="M82.9282 259.288H94.7143V271.072H82.9282V259.288Z" fill="white"/>
<path d="M94.7141 259.288H106.5V271.072H94.7141V259.288Z" fill="white"/>
<path d="M118.286 259.288H130.072V271.072H118.286V259.288Z" fill="white"/>
<path d="M130.073 259.288H141.859V271.072H130.073V259.288Z" fill="white"/>
<path d="M141.859 259.288H153.645V271.072H141.859V259.288Z" fill="white"/>
<path d="M153.645 259.288H165.429V271.072H153.645V259.288Z" fill="white"/>
<path d="M106.5 259.286H118.286V271.072H106.5V259.286Z" fill="white"/>
<path d="M165.429 259.286H177.215V271.072H165.429V259.286Z" fill="white"/>
<path d="M177.215 259.288H189.001V271.072H177.215V259.288Z" fill="white"/>
<path d="M189.001 259.288H200.787V271.072H189.001V259.288Z" fill="white"/>
<path d="M200.786 259.288H212.572V271.072H200.786V259.288Z" fill="white"/>
<path d="M212.572 259.288H224.358V271.072H212.572V259.288Z" fill="white"/>
<path d="M224.358 271.073H236.144V282.859H224.358V271.073Z" fill="white"/>
<path d="M236.144 271.073H247.93V282.859H236.144V271.073Z" fill="white"/>
<path d="M247.93 271.073H259.716V282.859H247.93V271.073Z" fill="white"/>
<path d="M47.5715 271.073H59.3576V282.859H47.5715V271.073Z" fill="white"/>
<path d="M59.3574 271.073H71.1435V282.859H59.3574V271.073Z" fill="white"/>
<path d="M71.1434 271.073H82.928V282.859H71.1434V271.073Z" fill="white"/>
<path d="M82.9282 271.073H94.7143V282.859H82.9282V271.073Z" fill="white"/>
<path d="M94.7141 271.073H106.5V282.859H94.7141V271.073Z" fill="white"/>
<path d="M118.286 271.073H130.072V282.859H118.286V271.073Z" fill="white"/>
<path d="M130.073 271.073H141.859V282.859H130.073V271.073Z" fill="white"/>
<path d="M141.859 271.073H153.645V282.859H141.859V271.073Z" fill="white"/>
<path d="M153.645 271.073H165.431V282.859H153.645V271.073Z" fill="white"/>
<path d="M106.5 271.071H118.286V282.857H106.5V271.071Z" fill="white"/>
<path d="M165.431 271.071H177.215V282.857H165.431V271.071Z" fill="white"/>
<path d="M177.215 271.073H189.001V282.859H177.215V271.073Z" fill="white"/>
<path d="M189.001 271.073H200.787V282.859H189.001V271.073Z" fill="white"/>
<path d="M200.787 271.073H212.572V282.859H200.787V271.073Z" fill="white"/>
<path d="M212.572 271.073H224.358V282.859H212.572V271.073Z" fill="white"/>
<path d="M224.358 282.858H236.144V294.644H224.358V282.858Z" fill="white"/>
<path d="M236.144 282.858H247.93V294.644H236.144V282.858Z" fill="white"/>
<path d="M247.93 282.858H259.716V294.644H247.93V282.858Z" fill="white"/>
<path d="M59.3574 282.858H71.1435V294.644H59.3574V282.858Z" fill="white"/>
<path d="M71.1434 282.858H82.928V294.644H71.1434V282.858Z" fill="white"/>
<path d="M82.9282 282.858H94.7143V294.644H82.9282V282.858Z" fill="white"/>
<path d="M94.7141 282.858H106.5V294.644H94.7141V282.858Z" fill="white"/>
<path d="M118.286 282.858H130.072V294.644H118.286V282.858Z" fill="white"/>
<path d="M130.073 282.858H141.859V294.644H130.073V282.858Z" fill="white"/>
<path d="M141.859 282.858H153.645V294.644H141.859V282.858Z" fill="white"/>
<path d="M153.645 282.858H165.431V294.644H153.645V282.858Z" fill="white"/>
<path d="M106.5 282.859H118.286V294.643H106.5V282.859Z" fill="white"/>
<path d="M165.431 282.859H177.215V294.643H165.431V282.859Z" fill="white"/>
<path d="M177.215 282.858H189.001V294.644H177.215V282.858Z" fill="white"/>
<path d="M189.001 282.858H200.787V294.644H189.001V282.858Z" fill="white"/>
<path d="M200.787 282.858H212.572V294.644H200.787V282.858Z" fill="white"/>
<path d="M212.572 282.858H224.358V294.644H212.572V282.858Z" fill="white"/>
<path d="M82.9297 294.643H94.7142V306.429H82.9297V294.643Z" fill="white"/>
<path d="M94.7141 294.643H106.5V306.429H94.7141V294.643Z" fill="white"/>
<path d="M141.859 294.643H153.645V306.429H141.859V294.643Z" fill="white"/>
<path d="M153.645 294.643H165.431V306.429H153.645V294.643Z" fill="white"/>
<path d="M165.431 294.643H177.215V306.427H165.431V294.643Z" fill="white"/>
<path d="M177.215 294.643H189.001V306.429H177.215V294.643Z" fill="white"/>
<path d="M189.001 294.643H200.787V306.429H189.001V294.643Z" fill="white"/>
<path d="M200.787 294.643H212.572V306.429H200.787V294.643Z" fill="white"/>
<path d="M212.572 294.643H224.358V306.429H212.572V294.643Z" fill="white"/>
<path d="M200.786 188.57H212.572V200.356H200.786V188.57Z" fill="white"/>
<path d="M224.358 153.213H236.144V164.999H224.358V153.213Z" fill="white"/>
<path d="M177.215 153.213H189.001V164.999H177.215V153.213Z" fill="white"/>
</svg>
