<svg width="291" height="330" viewBox="0 0 291 330" fill="none" xmlns="http://www.w3.org/2000/svg">
<path d="M70.718 31.4299H62.8634V39.2847H70.718V31.4299Z" fill="#91796D"/>
<path d="M62.8634 31.4299H55.0088V39.2847H62.8634V31.4299Z" fill="#91796D"/>
<path d="M55.0088 31.4299H47.1542V39.2847H55.0088V31.4299Z" fill="#91796D"/>
<path d="M78.5726 39.2849H70.718V47.1394H78.5726V39.2849Z" fill="#91796D"/>
<path d="M70.718 39.2849H62.8634V47.1394H70.718V39.2849Z" fill="#91796D"/>
<path d="M62.8634 39.2849H55.0088V47.1394H62.8634V39.2849Z" fill="#91796D"/>
<path d="M55.0088 39.2849H47.1542V47.1394H55.0088V39.2849Z" fill="#91796D"/>
<path d="M47.1423 39.2849H39.2877V47.1394H47.1423V39.2849Z" fill="#91796D"/>
<path d="M78.5726 47.1392H70.718V54.994H78.5726V47.1392Z" fill="#91796D"/>
<path d="M70.718 47.1392H62.8634V54.994H70.718V47.1392Z" fill="#91796D"/>
<path d="M62.8634 47.1392H55.0088V54.994H62.8634V47.1392Z" fill="#91796D"/>
<path d="M55.0088 47.1392H47.1542V54.994H55.0088V47.1392Z" fill="#91796D"/>
<path d="M47.1423 47.1392H39.2877V54.994H47.1423V47.1392Z" fill="#91796D"/>
<path d="M39.2877 47.1392H31.4331V54.994H39.2877V47.1392Z" fill="#91796D"/>
<path d="M78.5726 55.0061H70.718V62.8606H78.5726V55.0061Z" fill="#91796D"/>
<path d="M70.718 55.0061H62.8634V62.8606H70.718V55.0061Z" fill="#91796D"/>
<path d="M62.8634 55.0061H55.0088V62.8606H62.8634V55.0061Z" fill="#91796D"/>
<path d="M55.0088 55.0061H47.1542V62.8606H55.0088V55.0061Z" fill="#91796D"/>
<path d="M47.1423 55.0061H39.2877V62.8606H47.1423V55.0061Z" fill="#91796D"/>
<path d="M39.2877 55.0061H31.4331V62.8606H39.2877V55.0061Z" fill="#91796D"/>
<path d="M70.718 62.8604H62.8634V70.7152H70.718V62.8604Z" fill="#91796D"/>
<path d="M62.8634 62.8604H55.0088V70.7152H62.8634V62.8604Z" fill="#91796D"/>
<path d="M55.0088 62.8604H47.1542V70.7152H55.0088V62.8604Z" fill="#91796D"/>
<path d="M47.1423 62.8604H39.2877V70.7152H47.1423V62.8604Z" fill="#91796D"/>
<path d="M39.2877 62.8604H31.4331V70.7152H39.2877V62.8604Z" fill="#91796D"/>
<path d="M70.718 70.7153H62.8634V78.5698H70.718V70.7153Z" fill="#91796D"/>
<path d="M62.8634 70.7153H55.0088V78.5698H62.8634V70.7153Z" fill="#91796D"/>
<path d="M55.0088 70.7153H47.1542V78.5698H55.0088V70.7153Z" fill="#91796D"/>
<path d="M47.1423 70.7153H39.2877V78.5698H47.1423V70.7153Z" fill="#91796D"/>
<path d="M39.2877 70.7153H31.4331V78.5698H39.2877V70.7153Z" fill="#91796D"/>
<path d="M62.8634 78.5696H55.0088V86.4244H62.8634V78.5696Z" fill="#91796D"/>
<path d="M55.0088 78.5696H47.1542V86.4244H55.0088V78.5696Z" fill="#91796D"/>
<path d="M47.1423 78.5696H39.2877V86.4244H47.1423V78.5696Z" fill="#91796D"/>
<path d="M62.8634 86.436H55.0088V94.2908H62.8634V86.436Z" fill="#91796D"/>
<path d="M55.0088 86.436H47.1542V94.2908H55.0088V86.436Z" fill="#91796D"/>
<path d="M220.01 31.4299H227.865V39.2847H220.01V31.4299Z" fill="#91796D"/>
<path d="M227.865 31.4299H235.719V39.2847H227.865V31.4299Z" fill="#91796D"/>
<path d="M235.719 31.4299H243.574V39.2847H235.719V31.4299Z" fill="#91796D"/>
<path d="M212.143 39.2847H219.998V47.1391H212.143V39.2847Z" fill="#91796D"/>
<path d="M220.01 39.2847H227.865V47.1391H220.01V39.2847Z" fill="#91796D"/>
<path d="M227.865 39.2847H235.719V47.1391H227.865V39.2847Z" fill="#91796D"/>
<path d="M235.719 39.2847H243.574V47.1391H235.719V39.2847Z" fill="#91796D"/>
<path d="M243.574 39.2847H251.44V47.1391H243.586L243.574 39.2847Z" fill="#91796D"/>
<path d="M212.143 47.1392H219.998V54.994H212.143V47.1392Z" fill="#91796D"/>
<path d="M220.01 47.1392H227.865V54.994H220.01V47.1392Z" fill="#91796D"/>
<path d="M227.865 47.1392H235.719V54.994H227.865V47.1392Z" fill="#91796D"/>
<path d="M235.719 47.1392H243.574V54.994H235.719V47.1392Z" fill="#91796D"/>
<path d="M243.574 47.1392H251.44V54.994H243.586L243.574 47.1392Z" fill="#91796D"/>
<path d="M251.44 47.1392H259.295V54.994H251.44V47.1392Z" fill="#91796D"/>
<path d="M212.143 55.0056H219.998V62.8601H212.143V55.0056Z" fill="#91796D"/>
<path d="M220.01 55.0056H227.865V62.8601H220.01V55.0056Z" fill="#91796D"/>
<path d="M227.865 55.0056H235.719V62.8601H227.865V55.0056Z" fill="#91796D"/>
<path d="M235.719 55.0056H243.574V62.8601H235.719V55.0056Z" fill="#91796D"/>
<path d="M243.574 55.0056H251.44V62.8601H243.586L243.574 55.0056Z" fill="#91796D"/>
<path d="M251.44 55.0056H259.295V62.8601H251.44V55.0056Z" fill="#91796D"/>
<path d="M220.01 62.8604H227.865V70.7152H220.01V62.8604Z" fill="#91796D"/>
<path d="M227.865 62.8604H235.719V70.7152H227.865V62.8604Z" fill="#91796D"/>
<path d="M235.719 62.8604H243.574V70.7152H235.719V62.8604Z" fill="#91796D"/>
<path d="M243.574 62.8604H251.44V70.7152H243.586L243.574 62.8604Z" fill="#91796D"/>
<path d="M251.44 62.8604H259.295V70.7152H251.44V62.8604Z" fill="#91796D"/>
<path d="M220.01 70.7148H227.865V78.5693H220.01V70.7148Z" fill="#91796D"/>
<path d="M227.865 70.7148H235.719V78.5693H227.865V70.7148Z" fill="#91796D"/>
<path d="M235.719 70.7148H243.574V78.5693H235.719V70.7148Z" fill="#91796D"/>
<path d="M243.574 70.7148H251.44V78.5693H243.586L243.574 70.7148Z" fill="#91796D"/>
<path d="M251.44 70.7148H259.295V78.5693H251.44V70.7148Z" fill="#91796D"/>
<path d="M227.865 78.5696H235.719V86.4244H227.865V78.5696Z" fill="#91796D"/>
<path d="M235.719 78.5696H243.574V86.4244H235.719V78.5696Z" fill="#91796D"/>
<path d="M243.574 78.5696H251.44V86.4244H243.586L243.574 78.5696Z" fill="#91796D"/>
<path d="M227.865 86.4355H235.719V94.2904H227.865V86.4355Z" fill="#91796D"/>
<path d="M235.719 86.4355H243.574V94.2904H235.719V86.4355Z" fill="#91796D"/>
<path d="M102.146 86.436H94.291V94.2908H102.146V86.436Z" fill="black"/>
<path d="M94.291 86.436H86.4364V94.2908H94.291V86.436Z" fill="black"/>
<path d="M110 94.2905H102.146V102.145H110V94.2905Z" fill="black"/>
<path d="M94.291 94.2905H86.4364V102.145H94.291V94.2905Z" fill="black"/>
<path d="M86.4364 94.2905H78.5818V102.145H86.4364V94.2905Z" fill="black"/>
<path d="M110 102.145H102.146V110H110V102.145Z" fill="black"/>
<path d="M102.146 102.145H94.291V110H102.146V102.145Z" fill="black"/>
<path d="M94.291 102.145H86.4364V110H94.291V102.145Z" fill="black"/>
<path d="M86.4364 102.145H78.5818V110H86.4364V102.145Z" fill="black"/>
<path d="M102.146 110H94.291V117.854H102.146V110Z" fill="black"/>
<path d="M94.291 110H86.4364V117.854H94.291V110Z" fill="black"/>
<path d="M188.582 86.436H196.437V94.2908H188.582V86.436Z" fill="black"/>
<path d="M196.437 86.436H204.291V94.2908H196.437V86.436Z" fill="black"/>
<path d="M180.716 94.2905H188.57V102.145H180.716V94.2905Z" fill="black"/>
<path d="M188.582 94.2905H196.437V102.145H188.582V94.2905Z" fill="black"/>
<path d="M204.291 94.2905H212.146V102.145H204.291V94.2905Z" fill="black"/>
<path d="M180.716 102.145H188.57V110H180.716V102.145Z" fill="black"/>
<path d="M188.582 102.145H196.437V110H188.582V102.145Z" fill="black"/>
<path d="M196.437 102.145H204.291V110H196.437V102.145Z" fill="black"/>
<path d="M204.291 102.145H212.146V110H204.291V102.145Z" fill="black"/>
<path d="M188.582 110H196.437V117.854H188.582V110Z" fill="black"/>
<path d="M196.437 110H204.291V117.854H196.437V110Z" fill="black"/>
<path d="M149.297 133.576H141.442V141.43H149.297V133.576Z" fill="black"/>
<path d="M125.721 133.576H117.867V141.43H125.721V133.576Z" fill="black"/>
<path d="M141.431 141.43H133.576V149.285H141.431V141.43Z" fill="black"/>
<path d="M133.576 141.43H125.721V149.285H133.576V141.43Z" fill="black"/>
<path d="M149.297 86.436H141.442V94.2908H149.297V86.436Z" fill="black"/>
<path d="M149.297 94.2905H141.442V102.145H149.297V94.2905Z" fill="black"/>
<path d="M141.431 94.2905H133.576V102.145H141.431V94.2905Z" fill="black"/>
<path d="M149.297 102.145H141.442V110H149.297V102.145Z" fill="black"/>
<path d="M141.431 102.145H133.576V110H141.431V102.145Z" fill="black"/>
<path d="M149.297 110H141.442V117.854H149.297V110Z" fill="black"/>
<path d="M141.431 110H133.576V117.854H141.431V110Z" fill="black"/>
<path d="M133.576 110H125.721V117.854H133.576V110Z" fill="black"/>
<path d="M149.297 117.854H141.442V125.709H149.297V117.854Z" fill="black"/>
<path d="M141.431 117.854H133.576V125.709H141.431V117.854Z" fill="black"/>
<path d="M133.576 117.854H125.721V125.709H133.576V117.854Z" fill="black"/>
<path d="M149.297 125.721H141.442V133.575H149.297V125.721Z" fill="black"/>
<path d="M141.431 125.721H133.576V133.575H141.431V125.721Z" fill="black"/>
<path d="M165.006 133.576H172.861V141.43H165.006V133.576Z" fill="black"/>
<path d="M149.297 141.43H157.152V149.285H149.297V141.43Z" fill="black"/>
<path d="M157.152 141.43H165.006V149.285H157.152V141.43Z" fill="black"/>
<path d="M149.297 94.2905H157.152V102.145H149.297V94.2905Z" fill="black"/>
<path d="M149.297 102.145H157.152V110H149.297V102.145Z" fill="black"/>
<path d="M149.297 110H157.152V117.854H149.297V110Z" fill="black"/>
<path d="M157.152 110H165.006V117.854H157.152V110Z" fill="black"/>
<path d="M149.297 117.866H157.152V125.721H149.297V117.866Z" fill="black"/>
<path d="M157.152 117.866H165.006V125.721H157.152V117.866Z" fill="black"/>
<path d="M149.297 125.721H157.152V133.575H149.297V125.721Z" fill="black"/>
<path d="M133.576 133.576H125.721V141.43H133.576V133.576Z" fill="#DBD1C7"/>
<path d="M117.867 133.576H110.012V141.43H117.867V133.576Z" fill="#DBD1C7"/>
<path d="M110 133.576H102.146V141.43H110V133.576Z" fill="#DBD1C7"/>
<path d="M102.146 133.576H94.291V141.43H102.146V133.576Z" fill="#DBD1C7"/>
<path d="M94.291 133.576H86.4364V141.43H94.291V133.576Z" fill="#DBD1C7"/>
<path d="M86.4364 133.576H78.5818V141.43H86.4364V133.576Z" fill="#DBD1C7"/>
<path d="M78.5818 133.576H70.7272V141.43H78.5818V133.576Z" fill="#DBD1C7"/>
<path d="M117.867 141.43H110.012V149.285H117.867V141.43Z" fill="#DBD1C7"/>
<path d="M110 141.43H102.146V149.285H110V141.43Z" fill="#DBD1C7"/>
<path d="M102.146 141.43H94.291V149.285H102.146V141.43Z" fill="#DBD1C7"/>
<path d="M94.291 141.43H86.4364V149.285H94.291V141.43Z" fill="#DBD1C7"/>
<path d="M86.4364 141.43H78.5818V149.285H86.4364V141.43Z" fill="#DBD1C7"/>
<path d="M78.5818 141.43H70.7272V149.285H78.5818V141.43Z" fill="#DBD1C7"/>
<path d="M125.721 149.285H117.867V157.139H125.721V149.285Z" fill="#DBD1C7"/>
<path d="M117.867 149.285H110.012V157.139H117.867V149.285Z" fill="#DBD1C7"/>
<path d="M110 149.285H102.146V157.139H110V149.285Z" fill="#DBD1C7"/>
<path d="M102.146 149.285H94.291V157.139H102.146V149.285Z" fill="#DBD1C7"/>
<path d="M94.291 149.285H86.4364V157.139H94.291V149.285Z" fill="#DBD1C7"/>
<path d="M86.4364 149.285H78.5818V157.139H86.4364V149.285Z" fill="#DBD1C7"/>
<path d="M141.431 157.151H133.576V165.006H141.431V157.151Z" fill="#DBD1C7"/>
<path d="M133.576 157.151H125.721V165.006H133.576V157.151Z" fill="#DBD1C7"/>
<path d="M125.721 157.151H117.867V165.006H125.721V157.151Z" fill="#DBD1C7"/>
<path d="M117.867 157.151H110.012V165.006H117.867V157.151Z" fill="#DBD1C7"/>
<path d="M110 157.151H102.146V165.006H110V157.151Z" fill="#DBD1C7"/>
<path d="M102.146 157.151H94.291V165.006H102.146V157.151Z" fill="#DBD1C7"/>
<path d="M141.431 165.006H133.576V172.86H141.431V165.006Z" fill="#DBD1C7"/>
<path d="M133.576 165.006H125.721V172.86H133.576V165.006Z" fill="#DBD1C7"/>
<path d="M125.721 165.006H117.867V172.86H125.721V165.006Z" fill="#DBD1C7"/>
<path d="M78.5818 7.85425H70.7272V15.7091H78.5818V7.85425Z" fill="#DBD1C7"/>
<path d="M70.7153 7.85425H62.8607V15.7091H70.7153V7.85425Z" fill="#DBD1C7"/>
<path d="M62.8607 7.85425H55.0061V15.7091H62.8607V7.85425Z" fill="#DBD1C7"/>
<path d="M55.0061 7.85425H47.1515V15.7091H55.0061V7.85425Z" fill="#DBD1C7"/>
<path d="M47.1515 7.85425H39.2969V15.7091H47.1515V7.85425Z" fill="#DBD1C7"/>
<path d="M39.285 7.85425H31.4304V15.7091H39.285V7.85425Z" fill="#DBD1C7"/>
<path d="M86.4364 15.7207H78.5818V23.5755H86.4364V15.7207Z" fill="#DBD1C7"/>
<path d="M78.5818 15.7207H70.7272V23.5755H78.5818V15.7207Z" fill="#DBD1C7"/>
<path d="M70.7153 15.7207H62.8607V23.5755H70.7153V15.7207Z" fill="#DBD1C7"/>
<path d="M62.8607 15.7207H55.0061V23.5755H62.8607V15.7207Z" fill="#DBD1C7"/>
<path d="M55.0061 15.7207H47.1515V23.5755H55.0061V15.7207Z" fill="#DBD1C7"/>
<path d="M47.1515 15.7207H39.2969V23.5755H47.1515V15.7207Z" fill="#DBD1C7"/>
<path d="M39.285 15.7207H31.4304V23.5755H39.285V15.7207Z" fill="#DBD1C7"/>
<path d="M31.4304 15.7207H23.5758V23.5755H31.4304V15.7207Z" fill="#DBD1C7"/>
<path d="M23.5758 15.7207H15.7212V23.5755H23.5758V15.7207Z" fill="#DBD1C7"/>
<path d="M141.431 23.5757H133.576V31.4301H141.431V23.5757Z" fill="#DBD1C7"/>
<path d="M133.576 23.5757H125.721V31.4301H133.576V23.5757Z" fill="#DBD1C7"/>
<path d="M125.721 23.5757H117.867V31.4301H125.721V23.5757Z" fill="#DBD1C7"/>
<path d="M86.4364 23.5757H78.5818V31.4301H86.4364V23.5757Z" fill="#DBD1C7"/>
<path d="M78.5818 23.5757H70.7272V31.4301H78.5818V23.5757Z" fill="#DBD1C7"/>
<path d="M70.7153 23.5757H62.8607V31.4301H70.7153V23.5757Z" fill="#DBD1C7"/>
<path d="M62.8607 23.5757H55.0061V31.4301H62.8607V23.5757Z" fill="#DBD1C7"/>
<path d="M55.0061 23.5757H47.1515V31.4301H55.0061V23.5757Z" fill="#DBD1C7"/>
<path d="M47.1515 23.5757H39.2969V31.4301H47.1515V23.5757Z" fill="#DBD1C7"/>
<path d="M39.285 23.5757H31.4304V31.4301H39.285V23.5757Z" fill="#DBD1C7"/>
<path d="M31.4304 23.5757H23.5758V31.4301H31.4304V23.5757Z" fill="#DBD1C7"/>
<path d="M23.5758 23.5757H15.7212V31.4301H23.5758V23.5757Z" fill="#DBD1C7"/>
<path d="M141.431 31.4299H133.576V39.2847H141.431V31.4299Z" fill="#DBD1C7"/>
<path d="M133.576 31.4299H125.721V39.2847H133.576V31.4299Z" fill="#DBD1C7"/>
<path d="M125.721 31.4299H117.867V39.2847H125.721V31.4299Z" fill="#DBD1C7"/>
<path d="M117.867 31.4299H110.012V39.2847H117.867V31.4299Z" fill="#DBD1C7"/>
<path d="M110 31.4299H102.146V39.2847H110V31.4299Z" fill="#DBD1C7"/>
<path d="M86.4364 31.4299H78.5818V39.2847H86.4364V31.4299Z" fill="#DBD1C7"/>
<path d="M78.5818 31.4299H70.7272V39.2847H78.5818V31.4299Z" fill="#DBD1C7"/>
<path d="M47.1515 31.4299H39.2969V39.2847H47.1515V31.4299Z" fill="#DBD1C7"/>
<path d="M39.285 31.4299H31.4304V39.2847H39.285V31.4299Z" fill="#DBD1C7"/>
<path d="M31.4304 31.4299H23.5758V39.2847H31.4304V31.4299Z" fill="#DBD1C7"/>
<path d="M141.431 39.2849H133.576V47.1394H141.431V39.2849Z" fill="#DBD1C7"/>
<path d="M133.576 39.2849H125.721V47.1394H133.576V39.2849Z" fill="#DBD1C7"/>
<path d="M125.721 39.2849H117.867V47.1394H125.721V39.2849Z" fill="#DBD1C7"/>
<path d="M117.867 39.2849H110.012V47.1394H117.867V39.2849Z" fill="#DBD1C7"/>
<path d="M110 39.2849H102.146V47.1394H110V39.2849Z" fill="#DBD1C7"/>
<path d="M102.146 39.2849H94.291V47.1394H102.146V39.2849Z" fill="#DBD1C7"/>
<path d="M86.4364 39.2849H78.5818V47.1394H86.4364V39.2849Z" fill="#DBD1C7"/>
<path d="M39.285 39.2849H31.4304V47.1394H39.285V39.2849Z" fill="#DBD1C7"/>
<path d="M31.4304 39.2849H23.5758V47.1394H31.4304V39.2849Z" fill="#DBD1C7"/>
<path d="M141.431 47.1392H133.576V54.994H141.431V47.1392Z" fill="#DBD1C7"/>
<path d="M133.576 47.1392H125.721V54.994H133.576V47.1392Z" fill="#DBD1C7"/>
<path d="M125.721 47.1392H117.867V54.994H125.721V47.1392Z" fill="#DBD1C7"/>
<path d="M117.867 47.1392H110.012V54.994H117.867V47.1392Z" fill="#DBD1C7"/>
<path d="M110 47.1392H102.146V54.994H110V47.1392Z" fill="#DBD1C7"/>
<path d="M102.146 47.1392H94.291V54.994H102.146V47.1392Z" fill="#DBD1C7"/>
<path d="M94.291 47.1392H86.4364V54.994H94.291V47.1392Z" fill="#DBD1C7"/>
<path d="M86.4364 47.1392H78.5818V54.994H86.4364V47.1392Z" fill="#DBD1C7"/>
<path d="M31.4304 47.1392H23.5758V54.994H31.4304V47.1392Z" fill="#DBD1C7"/>
<path d="M23.5758 47.1392H15.7212V54.994H23.5758V47.1392Z" fill="#DBD1C7"/>
<path d="M141.431 55.0061H133.576V62.8606H141.431V55.0061Z" fill="#DBD1C7"/>
<path d="M133.576 55.0061H125.721V62.8606H133.576V55.0061Z" fill="#DBD1C7"/>
<path d="M125.721 55.0061H117.867V62.8606H125.721V55.0061Z" fill="#DBD1C7"/>
<path d="M117.867 55.0061H110.012V62.8606H117.867V55.0061Z" fill="#DBD1C7"/>
<path d="M110 55.0061H102.146V62.8606H110V55.0061Z" fill="#DBD1C7"/>
<path d="M102.146 55.0061H94.291V62.8606H102.146V55.0061Z" fill="#DBD1C7"/>
<path d="M94.291 55.0061H86.4364V62.8606H94.291V55.0061Z" fill="#DBD1C7"/>
<path d="M86.4364 55.0061H78.5818V62.8606H86.4364V55.0061Z" fill="#DBD1C7"/>
<path d="M31.4304 55.0061H23.5758V62.8606H31.4304V55.0061Z" fill="#DBD1C7"/>
<path d="M23.5758 55.0061H15.7212V62.8606H23.5758V55.0061Z" fill="#DBD1C7"/>
<path d="M141.431 62.8604H133.576V70.7152H141.431V62.8604Z" fill="#DBD1C7"/>
<path d="M133.576 62.8604H125.721V70.7152H133.576V62.8604Z" fill="#DBD1C7"/>
<path d="M125.721 62.8604H117.867V70.7152H125.721V62.8604Z" fill="#DBD1C7"/>
<path d="M117.867 62.8604H110.012V70.7152H117.867V62.8604Z" fill="#DBD1C7"/>
<path d="M110 62.8604H102.146V70.7152H110V62.8604Z" fill="#DBD1C7"/>
<path d="M102.146 62.8604H94.291V70.7152H102.146V62.8604Z" fill="#DBD1C7"/>
<path d="M94.291 62.8604H86.4364V70.7152H94.291V62.8604Z" fill="#DBD1C7"/>
<path d="M86.4364 62.8604H78.5818V70.7152H86.4364V62.8604Z" fill="#DBD1C7"/>
<path d="M78.5818 62.8604H70.7272V70.7152H78.5818V62.8604Z" fill="#DBD1C7"/>
<path d="M31.4304 62.8604H23.5758V70.7152H31.4304V62.8604Z" fill="#DBD1C7"/>
<path d="M23.5758 62.8604H15.7212V70.7152H23.5758V62.8604Z" fill="#DBD1C7"/>
<path d="M141.431 70.7153H133.576V78.5698H141.431V70.7153Z" fill="#DBD1C7"/>
<path d="M133.576 70.7153H125.721V78.5698H133.576V70.7153Z" fill="#DBD1C7"/>
<path d="M125.721 70.7153H117.867V78.5698H125.721V70.7153Z" fill="#DBD1C7"/>
<path d="M117.867 70.7153H110.012V78.5698H117.867V70.7153Z" fill="#DBD1C7"/>
<path d="M110 70.7153H102.146V78.5698H110V70.7153Z" fill="#DBD1C7"/>
<path d="M102.146 70.7153H94.291V78.5698H102.146V70.7153Z" fill="#DBD1C7"/>
<path d="M94.291 70.7153H86.4364V78.5698H94.291V70.7153Z" fill="#DBD1C7"/>
<path d="M86.4364 70.7153H78.5818V78.5698H86.4364V70.7153Z" fill="#DBD1C7"/>
<path d="M78.5818 70.7153H70.7272V78.5698H78.5818V70.7153Z" fill="#DBD1C7"/>
<path d="M31.4304 70.7153H23.5758V78.5698H31.4304V70.7153Z" fill="#DBD1C7"/>
<path d="M23.5758 70.7153H15.7212V78.5698H23.5758V70.7153Z" fill="#DBD1C7"/>
<path d="M141.431 78.5696H133.576V86.4244H141.431V78.5696Z" fill="#DBD1C7"/>
<path d="M133.576 78.5696H125.721V86.4244H133.576V78.5696Z" fill="#DBD1C7"/>
<path d="M125.721 78.5696H117.867V86.4244H125.721V78.5696Z" fill="#DBD1C7"/>
<path d="M117.867 78.5696H110.012V86.4244H117.867V78.5696Z" fill="#DBD1C7"/>
<path d="M110 78.5696H102.146V86.4244H110V78.5696Z" fill="#DBD1C7"/>
<path d="M102.146 78.5696H94.291V86.4244H102.146V78.5696Z" fill="#DBD1C7"/>
<path d="M94.291 78.5696H86.4364V86.4244H94.291V78.5696Z" fill="#DBD1C7"/>
<path d="M86.4364 78.5696H78.5818V86.4244H86.4364V78.5696Z" fill="#DBD1C7"/>
<path d="M78.5818 78.5696H70.7272V86.4244H78.5818V78.5696Z" fill="#DBD1C7"/>
<path d="M70.7153 78.5696H62.8607V86.4244H70.7153V78.5696Z" fill="#DBD1C7"/>
<path d="M39.285 78.5696H31.4304V86.4244H39.285V78.5696Z" fill="#DBD1C7"/>
<path d="M133.576 86.436H125.721V94.2908H133.576V86.436Z" fill="#DBD1C7"/>
<path d="M125.721 86.436H117.867V94.2908H125.721V86.436Z" fill="#DBD1C7"/>
<path d="M117.867 86.436H110.012V94.2908H117.867V86.436Z" fill="#DBD1C7"/>
<path d="M110 86.436H102.146V94.2908H110V86.436Z" fill="#DBD1C7"/>
<path d="M86.4364 86.436H78.5818V94.2908H86.4364V86.436Z" fill="#DBD1C7"/>
<path d="M78.5818 86.436H70.7272V94.2908H78.5818V86.436Z" fill="#DBD1C7"/>
<path d="M70.7153 86.436H62.8607V94.2908H70.7153V86.436Z" fill="#DBD1C7"/>
<path d="M47.1515 86.436H39.2969V94.2908H47.1515V86.436Z" fill="#DBD1C7"/>
<path d="M39.285 86.436H31.4304V94.2908H39.285V86.436Z" fill="#DBD1C7"/>
<path d="M125.721 94.2905H117.867V102.145H125.721V94.2905Z" fill="#DBD1C7"/>
<path d="M117.867 94.2905H110.012V102.145H117.867V94.2905Z" fill="#DBD1C7"/>
<path d="M78.5818 94.2905H70.7272V102.145H78.5818V94.2905Z" fill="#DBD1C7"/>
<path d="M70.7153 94.2905H62.8607V102.145H70.7153V94.2905Z" fill="#DBD1C7"/>
<path d="M62.8607 94.2905H55.0061V102.145H62.8607V94.2905Z" fill="#DBD1C7"/>
<path d="M55.0061 94.2905H47.1515V102.145H55.0061V94.2905Z" fill="#DBD1C7"/>
<path d="M47.1515 94.2905H39.2969V102.145H47.1515V94.2905Z" fill="#DBD1C7"/>
<path d="M125.721 102.145H117.867V110H125.721V102.145Z" fill="#DBD1C7"/>
<path d="M117.867 102.145H110.012V110H117.867V102.145Z" fill="#DBD1C7"/>
<path d="M78.5818 102.145H70.7272V110H78.5818V102.145Z" fill="#DBD1C7"/>
<path d="M70.7153 102.145H62.8607V110H70.7153V102.145Z" fill="#DBD1C7"/>
<path d="M117.867 110H110.012V117.854H117.867V110Z" fill="#DBD1C7"/>
<path d="M110 110H102.146V117.854H110V110Z" fill="#DBD1C7"/>
<path d="M86.4364 110H78.5818V117.854H86.4364V110Z" fill="#DBD1C7"/>
<path d="M78.5818 110H70.7272V117.854H78.5818V110Z" fill="#DBD1C7"/>
<path d="M70.7153 110H62.8607V117.854H70.7153V110Z" fill="#DBD1C7"/>
<path d="M117.867 117.854H110.012V125.709H117.867V117.854Z" fill="#DBD1C7"/>
<path d="M110 117.854H102.146V125.709H110V117.854Z" fill="#DBD1C7"/>
<path d="M102.146 117.854H94.291V125.709H102.146V117.854Z" fill="#DBD1C7"/>
<path d="M94.291 117.854H86.4364V125.709H94.291V117.854Z" fill="#DBD1C7"/>
<path d="M86.4364 117.854H78.5818V125.709H86.4364V117.854Z" fill="#DBD1C7"/>
<path d="M78.5818 117.854H70.7272V125.709H78.5818V117.854Z" fill="#DBD1C7"/>
<path d="M125.721 125.721H117.867V133.575H125.721V125.721Z" fill="#DBD1C7"/>
<path d="M117.867 125.721H110.012V133.575H117.867V125.721Z" fill="#DBD1C7"/>
<path d="M110 125.721H102.146V133.575H110V125.721Z" fill="#DBD1C7"/>
<path d="M102.146 125.721H94.291V133.575H102.146V125.721Z" fill="#DBD1C7"/>
<path d="M94.291 125.721H86.4364V133.575H94.291V125.721Z" fill="#DBD1C7"/>
<path d="M86.4364 125.721H78.5818V133.575H86.4364V125.721Z" fill="#DBD1C7"/>
<path d="M78.5818 125.721H70.7272V133.575H78.5818V125.721Z" fill="#DBD1C7"/>
<path d="M141.431 133.576H133.576V141.43H141.431V133.576Z" fill="#DBD1C7"/>
<path d="M149.297 149.285H141.442V157.139H149.297V149.285Z" fill="#DBD1C7"/>
<path d="M141.431 86.436H133.576V94.2908H141.431V86.436Z" fill="#DBD1C7"/>
<path d="M133.576 94.2905H125.721V102.145H133.576V94.2905Z" fill="#DBD1C7"/>
<path d="M133.576 102.145H125.721V110H133.576V102.145Z" fill="#DBD1C7"/>
<path d="M125.721 110H117.867V117.854H125.721V110Z" fill="#DBD1C7"/>
<path d="M125.721 117.854H117.867V125.709H125.721V117.854Z" fill="#DBD1C7"/>
<path d="M133.576 125.721H125.721V133.575H133.576V125.721Z" fill="#DBD1C7"/>
<path d="M149.297 157.151H141.442V165.006H149.297V157.151Z" fill="#DBD1C7"/>
<path d="M149.297 165.006H141.442V172.86H149.297V165.006Z" fill="#DBD1C7"/>
<path d="M149.297 78.5696H141.442V86.4244H149.297V78.5696Z" fill="#DBD1C7"/>
<path d="M149.297 70.7153H141.442V78.5698H149.297V70.7153Z" fill="#DBD1C7"/>
<path d="M149.297 62.8604H141.442V70.7152H149.297V62.8604Z" fill="#DBD1C7"/>
<path d="M149.297 55.0061H141.442V62.8606H149.297V55.0061Z" fill="#DBD1C7"/>
<path d="M149.297 47.1392H141.442V54.994H149.297V47.1392Z" fill="#DBD1C7"/>
<path d="M149.297 39.2849H141.442V47.1394H149.297V39.2849Z" fill="#DBD1C7"/>
<path d="M149.297 31.4299H141.442V39.2847H149.297V31.4299Z" fill="#DBD1C7"/>
<path d="M149.297 23.5757H141.442V31.4301H149.297V23.5757Z" fill="#DBD1C7"/>
<path d="M125.721 141.43H117.867V149.285H125.721V141.43Z" fill="#DBD1C7"/>
<path d="M141.431 149.285H133.576V157.139H141.431V149.285Z" fill="#DBD1C7"/>
<path d="M133.576 149.285H125.721V157.139H133.576V149.285Z" fill="#DBD1C7"/>
<path d="M149.297 141.43H141.442V149.285H149.297V141.43Z" fill="#DBD1C7"/>
<path d="M157.152 133.576H165.006V141.43H157.152V133.576Z" fill="#DBD1C7"/>
<path d="M172.861 133.576H180.715V141.43H172.861V133.576Z" fill="#DBD1C7"/>
<path d="M180.716 133.576H188.57V141.43H180.716V133.576Z" fill="#DBD1C7"/>
<path d="M188.582 133.576H196.437V141.43H188.582V133.576Z" fill="#DBD1C7"/>
<path d="M196.437 133.576H204.291V141.43H196.437V133.576Z" fill="#DBD1C7"/>
<path d="M204.291 133.576H212.146V141.43H204.291V133.576Z" fill="#DBD1C7"/>
<path d="M212.146 133.576H220V141.43H212.146V133.576Z" fill="#DBD1C7"/>
<path d="M172.861 141.43H180.715V149.285H172.861V141.43Z" fill="#DBD1C7"/>
<path d="M180.716 141.43H188.57V149.285H180.716V141.43Z" fill="#DBD1C7"/>
<path d="M188.582 141.43H196.437V149.285H188.582V141.43Z" fill="#DBD1C7"/>
<path d="M196.437 141.43H204.291V149.285H196.437V141.43Z" fill="#DBD1C7"/>
<path d="M204.291 141.43H212.146V149.285H204.291V141.43Z" fill="#DBD1C7"/>
<path d="M212.146 141.43H220V149.285H212.146V141.43Z" fill="#DBD1C7"/>
<path d="M165.006 149.285H172.861V157.139H165.006V149.285Z" fill="#DBD1C7"/>
<path d="M172.861 149.285H180.715V157.139H172.861V149.285Z" fill="#DBD1C7"/>
<path d="M180.716 149.285H188.57V157.139H180.716V149.285Z" fill="#DBD1C7"/>
<path d="M188.582 149.285H196.437V157.139H188.582V149.285Z" fill="#DBD1C7"/>
<path d="M196.437 149.285H204.291V157.139H196.437V149.285Z" fill="#DBD1C7"/>
<path d="M204.291 149.285H212.146V157.139H204.291V149.285Z" fill="#DBD1C7"/>
<path d="M149.297 157.151H157.152V165.006H149.297V157.151Z" fill="#DBD1C7"/>
<path d="M157.152 157.151H165.006V165.006H157.152V157.151Z" fill="#DBD1C7"/>
<path d="M165.006 157.151H172.861V165.006H165.006V157.151Z" fill="#DBD1C7"/>
<path d="M172.861 157.151H180.715V165.006H172.861V157.151Z" fill="#DBD1C7"/>
<path d="M180.716 157.151H188.57V165.006H180.716V157.151Z" fill="#DBD1C7"/>
<path d="M188.582 157.151H196.437V165.006H188.582V157.151Z" fill="#DBD1C7"/>
<path d="M149.297 165.006H157.152V172.86H149.297V165.006Z" fill="#DBD1C7"/>
<path d="M157.152 165.006H165.006V172.86H157.152V165.006Z" fill="#DBD1C7"/>
<path d="M165.006 165.006H172.861V172.86H165.006V165.006Z" fill="#DBD1C7"/>
<path d="M212.146 7.85425H220V15.7091H212.146V7.85425Z" fill="#DBD1C7"/>
<path d="M220.012 7.85425H227.867V15.7091H220.012V7.85425Z" fill="#DBD1C7"/>
<path d="M227.867 7.85425H235.721V15.7091H227.867V7.85425Z" fill="#DBD1C7"/>
<path d="M235.721 7.85425H243.576V15.7091H235.721V7.85425Z" fill="#DBD1C7"/>
<path d="M243.576 7.85425H251.431V15.7091H243.576V7.85425Z" fill="#DBD1C7"/>
<path d="M251.431 7.85425H259.285V15.7091H251.431V7.85425Z" fill="#DBD1C7"/>
<path d="M204.291 15.7207H212.146V23.5755H204.291V15.7207Z" fill="#DBD1C7"/>
<path d="M212.146 15.7207H220V23.5755H212.146V15.7207Z" fill="#DBD1C7"/>
<path d="M220.012 15.7207H227.867V23.5755H220.012V15.7207Z" fill="#DBD1C7"/>
<path d="M227.867 15.7207H235.721V23.5755H227.867V15.7207Z" fill="#DBD1C7"/>
<path d="M235.721 15.7207H243.576V23.5755H235.721V15.7207Z" fill="#DBD1C7"/>
<path d="M243.576 15.7207H251.431V23.5755H243.576V15.7207Z" fill="#DBD1C7"/>
<path d="M251.431 15.7207H259.285V23.5755H251.431V15.7207Z" fill="#DBD1C7"/>
<path d="M259.297 15.7207H267.152V23.5755H259.297V15.7207Z" fill="#DBD1C7"/>
<path d="M267.152 15.7207H275.006V23.5755H267.152V15.7207Z" fill="#DBD1C7"/>
<path d="M149.297 23.5757H157.152V31.4301H149.297V23.5757Z" fill="#DBD1C7"/>
<path d="M157.152 23.5757H165.006V31.4301H157.152V23.5757Z" fill="#DBD1C7"/>
<path d="M165.006 23.5757H172.861V31.4301H165.006V23.5757Z" fill="#DBD1C7"/>
<path d="M204.291 23.5757H212.146V31.4301H204.291V23.5757Z" fill="#DBD1C7"/>
<path d="M212.146 23.5757H220V31.4301H212.146V23.5757Z" fill="#DBD1C7"/>
<path d="M220.012 23.5757H227.867V31.4301H220.012V23.5757Z" fill="#DBD1C7"/>
<path d="M227.867 23.5757H235.721V31.4301H227.867V23.5757Z" fill="#DBD1C7"/>
<path d="M235.721 23.5757H243.576V31.4301H235.721V23.5757Z" fill="#DBD1C7"/>
<path d="M243.576 23.5757H251.431V31.4301H243.576V23.5757Z" fill="#DBD1C7"/>
<path d="M251.431 23.5757H259.285V31.4301H251.431V23.5757Z" fill="#DBD1C7"/>
<path d="M259.297 23.5757H267.152V31.4301H259.297V23.5757Z" fill="#DBD1C7"/>
<path d="M267.152 23.5757H275.006V31.4301H267.152V23.5757Z" fill="#DBD1C7"/>
<path d="M149.297 31.4299H157.152V39.2847H149.297V31.4299Z" fill="#DBD1C7"/>
<path d="M157.152 31.4299H165.006V39.2847H157.152V31.4299Z" fill="#DBD1C7"/>
<path d="M165.006 31.4299H172.861V39.2847H165.006V31.4299Z" fill="#DBD1C7"/>
<path d="M172.861 31.4299H180.715V39.2847H172.861V31.4299Z" fill="#DBD1C7"/>
<path d="M180.716 31.4299H188.57V39.2847H180.716V31.4299Z" fill="#DBD1C7"/>
<path d="M204.291 31.4299H212.146V39.2847H204.291V31.4299Z" fill="#DBD1C7"/>
<path d="M212.146 31.4299H220V39.2847H212.146V31.4299Z" fill="#DBD1C7"/>
<path d="M243.576 31.4299H251.431V39.2847H243.576V31.4299Z" fill="#DBD1C7"/>
<path d="M251.431 31.4299H259.285V39.2847H251.431V31.4299Z" fill="#DBD1C7"/>
<path d="M259.297 31.4299H267.152V39.2847H259.297V31.4299Z" fill="#DBD1C7"/>
<path d="M149.297 39.2849H157.152V47.1394H149.297V39.2849Z" fill="#DBD1C7"/>
<path d="M157.152 39.2849H165.006V47.1394H157.152V39.2849Z" fill="#DBD1C7"/>
<path d="M165.006 39.2849H172.861V47.1394H165.006V39.2849Z" fill="#DBD1C7"/>
<path d="M172.861 39.2849H180.715V47.1394H172.861V39.2849Z" fill="#DBD1C7"/>
<path d="M180.716 39.2849H188.57V47.1394H180.716V39.2849Z" fill="#DBD1C7"/>
<path d="M188.582 39.2849H196.437V47.1394H188.582V39.2849Z" fill="#DBD1C7"/>
<path d="M204.291 39.2849H212.146V47.1394H204.291V39.2849Z" fill="#DBD1C7"/>
<path d="M251.431 39.2849H259.285V47.1394H251.431V39.2849Z" fill="#DBD1C7"/>
<path d="M259.297 39.2849H267.152V47.1394H259.297V39.2849Z" fill="#DBD1C7"/>
<path d="M149.297 47.1392H157.152V54.994H149.297V47.1392Z" fill="#DBD1C7"/>
<path d="M157.152 47.1392H165.006V54.994H157.152V47.1392Z" fill="#DBD1C7"/>
<path d="M165.006 47.1392H172.861V54.994H165.006V47.1392Z" fill="#DBD1C7"/>
<path d="M172.861 47.1392H180.715V54.994H172.861V47.1392Z" fill="#DBD1C7"/>
<path d="M180.716 47.1392H188.57V54.994H180.716V47.1392Z" fill="#DBD1C7"/>
<path d="M188.582 47.1392H196.437V54.994H188.582V47.1392Z" fill="#DBD1C7"/>
<path d="M196.437 47.1392H204.291V54.994H196.437V47.1392Z" fill="#DBD1C7"/>
<path d="M204.291 47.1392H212.146V54.994H204.291V47.1392Z" fill="#DBD1C7"/>
<path d="M259.297 47.1392H267.152V54.994H259.297V47.1392Z" fill="#DBD1C7"/>
<path d="M267.152 47.1392H275.006V54.994H267.152V47.1392Z" fill="#DBD1C7"/>
<path d="M149.297 55.0061H157.152V62.8606H149.297V55.0061Z" fill="#DBD1C7"/>
<path d="M157.152 55.0061H165.006V62.8606H157.152V55.0061Z" fill="#DBD1C7"/>
<path d="M165.006 55.0061H172.861V62.8606H165.006V55.0061Z" fill="#DBD1C7"/>
<path d="M172.861 55.0061H180.715V62.8606H172.861V55.0061Z" fill="#DBD1C7"/>
<path d="M180.716 55.0061H188.57V62.8606H180.716V55.0061Z" fill="#DBD1C7"/>
<path d="M188.582 55.0061H196.437V62.8606H188.582V55.0061Z" fill="#DBD1C7"/>
<path d="M196.437 55.0061H204.291V62.8606H196.437V55.0061Z" fill="#DBD1C7"/>
<path d="M204.291 55.0061H212.146V62.8606H204.291V55.0061Z" fill="#DBD1C7"/>
<path d="M259.297 55.0061H267.152V62.8606H259.297V55.0061Z" fill="#DBD1C7"/>
<path d="M267.152 55.0061H275.006V62.8606H267.152V55.0061Z" fill="#DBD1C7"/>
<path d="M149.297 62.8604H157.152V70.7152H149.297V62.8604Z" fill="#DBD1C7"/>
<path d="M157.152 62.8604H165.006V70.7152H157.152V62.8604Z" fill="#DBD1C7"/>
<path d="M165.006 62.8604H172.861V70.7152H165.006V62.8604Z" fill="#DBD1C7"/>
<path d="M172.861 62.8604H180.715V70.7152H172.861V62.8604Z" fill="#DBD1C7"/>
<path d="M180.716 62.8604H188.57V70.7152H180.716V62.8604Z" fill="#DBD1C7"/>
<path d="M188.582 62.8604H196.437V70.7152H188.582V62.8604Z" fill="#DBD1C7"/>
<path d="M196.437 62.8604H204.291V70.7152H196.437V62.8604Z" fill="#DBD1C7"/>
<path d="M204.291 62.8604H212.146V70.7152H204.291V62.8604Z" fill="#DBD1C7"/>
<path d="M212.146 62.8604H220V70.7152H212.146V62.8604Z" fill="#DBD1C7"/>
<path d="M259.297 62.8604H267.152V70.7152H259.297V62.8604Z" fill="#DBD1C7"/>
<path d="M267.152 62.8604H275.006V70.7152H267.152V62.8604Z" fill="#DBD1C7"/>
<path d="M149.297 70.7153H157.152V78.5698H149.297V70.7153Z" fill="#DBD1C7"/>
<path d="M157.152 70.7153H165.006V78.5698H157.152V70.7153Z" fill="#DBD1C7"/>
<path d="M165.006 70.7153H172.861V78.5698H165.006V70.7153Z" fill="#DBD1C7"/>
<path d="M172.861 70.7153H180.715V78.5698H172.861V70.7153Z" fill="#DBD1C7"/>
<path d="M180.716 70.7153H188.57V78.5698H180.716V70.7153Z" fill="#DBD1C7"/>
<path d="M188.582 70.7153H196.437V78.5698H188.582V70.7153Z" fill="#DBD1C7"/>
<path d="M196.437 70.7153H204.291V78.5698H196.437V70.7153Z" fill="#DBD1C7"/>
<path d="M204.291 70.7153H212.146V78.5698H204.291V70.7153Z" fill="#DBD1C7"/>
<path d="M212.146 70.7153H220V78.5698H212.146V70.7153Z" fill="#DBD1C7"/>
<path d="M259.297 70.7153H267.152V78.5698H259.297V70.7153Z" fill="#DBD1C7"/>
<path d="M267.152 70.7153H275.006V78.5698H267.152V70.7153Z" fill="#DBD1C7"/>
<path d="M149.297 78.5696H157.152V86.4244H149.297V78.5696Z" fill="#DBD1C7"/>
<path d="M157.152 78.5696H165.006V86.4244H157.152V78.5696Z" fill="#DBD1C7"/>
<path d="M165.006 78.5696H172.861V86.4244H165.006V78.5696Z" fill="#DBD1C7"/>
<path d="M172.861 78.5696H180.715V86.4244H172.861V78.5696Z" fill="#DBD1C7"/>
<path d="M180.716 78.5696H188.57V86.4244H180.716V78.5696Z" fill="#DBD1C7"/>
<path d="M188.582 78.5696H196.437V86.4244H188.582V78.5696Z" fill="#DBD1C7"/>
<path d="M196.437 78.5696H204.291V86.4244H196.437V78.5696Z" fill="#DBD1C7"/>
<path d="M204.291 78.5696H212.146V86.4244H204.291V78.5696Z" fill="#DBD1C7"/>
<path d="M212.146 78.5696H220V86.4244H212.146V78.5696Z" fill="#DBD1C7"/>
<path d="M220.012 78.5696H227.867V86.4244H220.012V78.5696Z" fill="#DBD1C7"/>
<path d="M251.431 78.5696H259.285V86.4244H251.431V78.5696Z" fill="#DBD1C7"/>
<path d="M157.152 86.436H165.006V94.2908H157.152V86.436Z" fill="#DBD1C7"/>
<path d="M165.006 86.436H172.861V94.2908H165.006V86.436Z" fill="#DBD1C7"/>
<path d="M172.861 86.436H180.715V94.2908H172.861V86.436Z" fill="#DBD1C7"/>
<path d="M180.716 86.436H188.57V94.2908H180.716V86.436Z" fill="#DBD1C7"/>
<path d="M204.291 86.436H212.146V94.2908H204.291V86.436Z" fill="#DBD1C7"/>
<path d="M212.146 86.436H220V94.2908H212.146V86.436Z" fill="#DBD1C7"/>
<path d="M220.012 86.436H227.867V94.2908H220.012V86.436Z" fill="#DBD1C7"/>
<path d="M243.576 86.436H251.431V94.2908H243.576V86.436Z" fill="#DBD1C7"/>
<path d="M251.431 86.436H259.285V94.2908H251.431V86.436Z" fill="#DBD1C7"/>
<path d="M165.006 94.2905H172.861V102.145H165.006V94.2905Z" fill="#DBD1C7"/>
<path d="M172.861 94.2905H180.715V102.145H172.861V94.2905Z" fill="#DBD1C7"/>
<path d="M212.146 94.2905H220V102.145H212.146V94.2905Z" fill="#DBD1C7"/>
<path d="M220.012 94.2905H227.867V102.145H220.012V94.2905Z" fill="#DBD1C7"/>
<path d="M227.867 94.2905H235.721V102.145H227.867V94.2905Z" fill="#DBD1C7"/>
<path d="M235.721 94.2905H243.576V102.145H235.721V94.2905Z" fill="#DBD1C7"/>
<path d="M243.576 94.2905H251.431V102.145H243.576V94.2905Z" fill="#DBD1C7"/>
<path d="M165.006 102.145H172.861V110H165.006V102.145Z" fill="#DBD1C7"/>
<path d="M172.861 102.145H180.715V110H172.861V102.145Z" fill="#DBD1C7"/>
<path d="M212.146 102.145H220V110H212.146V102.145Z" fill="#DBD1C7"/>
<path d="M220.012 102.145H227.867V110H220.012V102.145Z" fill="#DBD1C7"/>
<path d="M172.861 110H180.715V117.854H172.861V110Z" fill="#DBD1C7"/>
<path d="M180.716 110H188.57V117.854H180.716V110Z" fill="#DBD1C7"/>
<path d="M204.291 110H212.146V117.854H204.291V110Z" fill="#DBD1C7"/>
<path d="M212.146 110H220V117.854H212.146V110Z" fill="#DBD1C7"/>
<path d="M220.012 110H227.867V117.854H220.012V110Z" fill="#DBD1C7"/>
<path d="M172.861 117.854H180.715V125.709H172.861V117.854Z" fill="#DBD1C7"/>
<path d="M180.716 117.854H188.57V125.709H180.716V117.854Z" fill="#DBD1C7"/>
<path d="M188.582 117.854H196.437V125.709H188.582V117.854Z" fill="#DBD1C7"/>
<path d="M196.437 117.854H204.291V125.709H196.437V117.854Z" fill="#DBD1C7"/>
<path d="M204.291 117.854H212.146V125.709H204.291V117.854Z" fill="#DBD1C7"/>
<path d="M212.146 117.854H220V125.709H212.146V117.854Z" fill="#DBD1C7"/>
<path d="M165.006 125.721H172.861V133.575H165.006V125.721Z" fill="#DBD1C7"/>
<path d="M172.861 125.721H180.715V133.575H172.861V125.721Z" fill="#DBD1C7"/>
<path d="M180.716 125.721H188.57V133.575H180.716V125.721Z" fill="#DBD1C7"/>
<path d="M188.582 125.721H196.437V133.575H188.582V125.721Z" fill="#DBD1C7"/>
<path d="M196.437 125.721H204.291V133.575H196.437V125.721Z" fill="#DBD1C7"/>
<path d="M204.291 125.721H212.146V133.575H204.291V125.721Z" fill="#DBD1C7"/>
<path d="M212.146 125.721H220V133.575H212.146V125.721Z" fill="#DBD1C7"/>
<path d="M149.297 133.576H157.152V141.43H149.297V133.576Z" fill="#DBD1C7"/>
<path d="M149.297 86.436H157.152V94.2908H149.297V86.436Z" fill="#DBD1C7"/>
<path d="M157.152 94.2905H165.006V102.145H157.152V94.2905Z" fill="#DBD1C7"/>
<path d="M157.152 102.145H165.006V110H157.152V102.145Z" fill="#DBD1C7"/>
<path d="M165.006 110H172.861V117.854H165.006V110Z" fill="#DBD1C7"/>
<path d="M165.006 117.854H172.861V125.709H165.006V117.854Z" fill="#DBD1C7"/>
<path d="M157.152 125.721H165.006V133.575H157.152V125.721Z" fill="#DBD1C7"/>
<path d="M165.006 141.43H172.861V149.285H165.006V141.43Z" fill="#DBD1C7"/>
<path d="M149.297 149.285H157.152V157.139H149.297V149.285Z" fill="#DBD1C7"/>
<path d="M157.152 149.285H165.006V157.139H157.152V149.285Z" fill="#DBD1C7"/>
<path d="M70.7181 275.006H62.8635V282.86H70.7181V275.006Z" fill="#91796D"/>
<path d="M62.8635 275.006H55.0089V282.86H62.8635V275.006Z" fill="#91796D"/>
<path d="M78.5728 282.861H70.7181V290.715H78.5728V282.861Z" fill="#91796D"/>
<path d="M70.7181 282.861H62.8635V290.715H70.7181V282.861Z" fill="#91796D"/>
<path d="M62.8635 282.861H55.0089V290.715H62.8635V282.861Z" fill="#91796D"/>
<path d="M55.0089 282.861H47.1543V290.715H55.0089V282.861Z" fill="#91796D"/>
<path d="M86.4392 290.715H78.5846V298.57H86.4392V290.715Z" fill="#91796D"/>
<path d="M78.5728 290.715H70.7181V298.57H78.5728V290.715Z" fill="#91796D"/>
<path d="M70.7181 290.715H62.8635V298.57H70.7181V290.715Z" fill="#91796D"/>
<path d="M62.8635 290.715H55.0089V298.57H62.8635V290.715Z" fill="#91796D"/>
<path d="M55.0089 290.715H47.1543V298.57H55.0089V290.715Z" fill="#91796D"/>
<path d="M86.4392 298.57H78.5846V306.425H86.4392V298.57Z" fill="#91796D"/>
<path d="M78.5728 298.57H70.7181V306.425H78.5728V298.57Z" fill="#91796D"/>
<path d="M70.7181 298.57H62.8635V306.425H70.7181V298.57Z" fill="#91796D"/>
<path d="M62.8635 298.57H55.0089V306.425H62.8635V298.57Z" fill="#91796D"/>
<path d="M55.0089 298.57H47.1543V306.425H55.0089V298.57Z" fill="#91796D"/>
<path d="M78.5728 306.437H70.7181V314.291H78.5728V306.437Z" fill="#91796D"/>
<path d="M70.7181 306.437H62.8635V314.291H70.7181V306.437Z" fill="#91796D"/>
<path d="M62.8635 306.437H55.0089V314.291H62.8635V306.437Z" fill="#91796D"/>
<path d="M220.01 275.006H227.865V282.86H220.01V275.006Z" fill="#91796D"/>
<path d="M227.865 275.006H235.719V282.86H227.865V275.006Z" fill="#91796D"/>
<path d="M212.144 282.86H219.998V290.715H212.144V282.86Z" fill="#91796D"/>
<path d="M220.01 282.86H227.865V290.715H220.01V282.86Z" fill="#91796D"/>
<path d="M227.865 282.86H235.719V290.715H227.865V282.86Z" fill="#91796D"/>
<path d="M235.719 282.86H243.574V290.715H235.719V282.86Z" fill="#91796D"/>
<path d="M204.289 290.715H212.144V298.57H204.289V290.715Z" fill="#91796D"/>
<path d="M212.144 290.715H219.998V298.57H212.144V290.715Z" fill="#91796D"/>
<path d="M220.01 290.715H227.865V298.57H220.01V290.715Z" fill="#91796D"/>
<path d="M227.865 290.715H235.719V298.57H227.865V290.715Z" fill="#91796D"/>
<path d="M235.719 290.715H243.574V298.57H235.719V290.715Z" fill="#91796D"/>
<path d="M204.289 298.569H212.144V306.424H204.289V298.569Z" fill="#91796D"/>
<path d="M212.144 298.569H219.998V306.424H212.144V298.569Z" fill="#91796D"/>
<path d="M220.01 298.569H227.865V306.424H220.01V298.569Z" fill="#91796D"/>
<path d="M227.865 298.569H235.719V306.424H227.865V298.569Z" fill="#91796D"/>
<path d="M235.719 298.569H243.574V306.424H235.719V298.569Z" fill="#91796D"/>
<path d="M212.144 306.436H219.998V314.291H212.144V306.436Z" fill="#91796D"/>
<path d="M220.01 306.436H227.865V314.291H220.01V306.436Z" fill="#91796D"/>
<path d="M227.865 306.436H235.719V314.291H227.865V306.436Z" fill="#91796D"/>
<path d="M141.43 188.57H133.576V196.425H141.43V188.57Z" fill="#F4EBE2"/>
<path d="M133.576 188.57H125.721V196.425H133.576V188.57Z" fill="#F4EBE2"/>
<path d="M125.721 188.57H117.867V196.425H125.721V188.57Z" fill="#F4EBE2"/>
<path d="M117.867 188.57H110.012V196.425H117.867V188.57Z" fill="#F4EBE2"/>
<path d="M141.43 196.436H133.576V204.291H141.43V196.436Z" fill="#F4EBE2"/>
<path d="M133.576 196.436H125.721V204.291H133.576V196.436Z" fill="#F4EBE2"/>
<path d="M125.721 196.436H117.867V204.291H125.721V196.436Z" fill="#F4EBE2"/>
<path d="M117.867 196.436H110.012V204.291H117.867V196.436Z" fill="#F4EBE2"/>
<path d="M110 196.436H102.146V204.291H110V196.436Z" fill="#F4EBE2"/>
<path d="M141.43 204.291H133.576V212.145H141.43V204.291Z" fill="#F4EBE2"/>
<path d="M133.576 204.291H125.721V212.145H133.576V204.291Z" fill="#F4EBE2"/>
<path d="M125.721 204.291H117.867V212.145H125.721V204.291Z" fill="#F4EBE2"/>
<path d="M117.867 204.291H110.012V212.145H117.867V204.291Z" fill="#F4EBE2"/>
<path d="M110 204.291H102.146V212.145H110V204.291Z" fill="#F4EBE2"/>
<path d="M141.43 275.006H133.576V282.86H141.43V275.006Z" fill="#F4EBE2"/>
<path d="M141.43 282.861H133.576V290.715H141.43V282.861Z" fill="#F4EBE2"/>
<path d="M141.43 290.715H133.576V298.57H141.43V290.715Z" fill="#F4EBE2"/>
<path d="M133.576 290.715H125.721V298.57H133.576V290.715Z" fill="#F4EBE2"/>
<path d="M141.43 298.57H133.576V306.425H141.43V298.57Z" fill="#F4EBE2"/>
<path d="M133.576 298.57H125.721V306.425H133.576V298.57Z" fill="#F4EBE2"/>
<path d="M141.43 212.145H133.576V220H141.43V212.145Z" fill="#F4EBE2"/>
<path d="M133.576 212.145H125.721V220H133.576V212.145Z" fill="#F4EBE2"/>
<path d="M125.721 212.145H117.867V220H125.721V212.145Z" fill="#F4EBE2"/>
<path d="M117.867 212.145H110.012V220H117.867V212.145Z" fill="#F4EBE2"/>
<path d="M110 212.145H102.146V220H110V212.145Z" fill="#F4EBE2"/>
<path d="M141.43 220H133.576V227.855H141.43V220Z" fill="#F4EBE2"/>
<path d="M133.576 220H125.721V227.855H133.576V220Z" fill="#F4EBE2"/>
<path d="M125.721 220H117.867V227.855H125.721V220Z" fill="#F4EBE2"/>
<path d="M117.867 220H110.012V227.855H117.867V220Z" fill="#F4EBE2"/>
<path d="M141.43 227.854H133.576V235.709H141.43V227.854Z" fill="#F4EBE2"/>
<path d="M133.576 227.854H125.721V235.709H133.576V227.854Z" fill="#F4EBE2"/>
<path d="M125.721 227.854H117.867V235.709H125.721V227.854Z" fill="#F4EBE2"/>
<path d="M117.867 227.854H110.012V235.709H117.867V227.854Z" fill="#F4EBE2"/>
<path d="M141.43 235.721H133.576V243.576H141.43V235.721Z" fill="#F4EBE2"/>
<path d="M133.576 235.721H125.721V243.576H133.576V235.721Z" fill="#F4EBE2"/>
<path d="M125.721 235.721H117.867V243.576H125.721V235.721Z" fill="#F4EBE2"/>
<path d="M141.43 243.576H133.576V251.43H141.43V243.576Z" fill="#F4EBE2"/>
<path d="M133.576 243.576H125.721V251.43H133.576V243.576Z" fill="#F4EBE2"/>
<path d="M141.43 251.431H133.576V259.285H141.43V251.431Z" fill="#F4EBE2"/>
<path d="M133.576 251.431H125.721V259.285H133.576V251.431Z" fill="#F4EBE2"/>
<path d="M141.43 259.285H133.576V267.14H141.43V259.285Z" fill="#F4EBE2"/>
<path d="M141.43 267.151H133.576V275.006H141.43V267.151Z" fill="#F4EBE2"/>
<path d="M149.297 188.57H157.151V196.425H149.297V188.57Z" fill="#F4EBE2"/>
<path d="M157.151 188.57H165.006V196.425H157.151V188.57Z" fill="#F4EBE2"/>
<path d="M165.006 188.57H172.861V196.425H165.006V188.57Z" fill="#F4EBE2"/>
<path d="M172.861 188.57H180.715V196.425H172.861V188.57Z" fill="#F4EBE2"/>
<path d="M149.297 196.436H157.151V204.291H149.297V196.436Z" fill="#F4EBE2"/>
<path d="M157.151 196.436H165.006V204.291H157.151V196.436Z" fill="#F4EBE2"/>
<path d="M165.006 196.436H172.861V204.291H165.006V196.436Z" fill="#F4EBE2"/>
<path d="M172.861 196.436H180.715V204.291H172.861V196.436Z" fill="#F4EBE2"/>
<path d="M180.715 196.436H188.57V204.291H180.715V196.436Z" fill="#F4EBE2"/>
<path d="M149.297 204.291H157.151V212.145H149.297V204.291Z" fill="#F4EBE2"/>
<path d="M157.151 204.291H165.006V212.145H157.151V204.291Z" fill="#F4EBE2"/>
<path d="M165.006 204.291H172.861V212.145H165.006V204.291Z" fill="#F4EBE2"/>
<path d="M172.861 204.291H180.715V212.145H172.861V204.291Z" fill="#F4EBE2"/>
<path d="M180.715 204.291H188.57V212.145H180.715V204.291Z" fill="#F4EBE2"/>
<path d="M149.297 275.006H157.151V282.86H149.297V275.006Z" fill="#F4EBE2"/>
<path d="M149.297 282.861H157.151V290.715H149.297V282.861Z" fill="#F4EBE2"/>
<path d="M149.297 290.715H157.151V298.57H149.297V290.715Z" fill="#F4EBE2"/>
<path d="M157.151 290.715H165.006V298.57H157.151V290.715Z" fill="#F4EBE2"/>
<path d="M149.297 298.57H157.151V306.425H149.297V298.57Z" fill="#F4EBE2"/>
<path d="M157.151 298.57H165.006V306.425H157.151V298.57Z" fill="#F4EBE2"/>
<path d="M149.297 212.145H157.151V220H149.297V212.145Z" fill="#F4EBE2"/>
<path d="M157.151 212.145H165.006V220H157.151V212.145Z" fill="#F4EBE2"/>
<path d="M165.006 212.145H172.861V220H165.006V212.145Z" fill="#F4EBE2"/>
<path d="M172.861 212.145H180.715V220H172.861V212.145Z" fill="#F4EBE2"/>
<path d="M180.715 212.145H188.57V220H180.715V212.145Z" fill="#F4EBE2"/>
<path d="M149.297 220H157.151V227.855H149.297V220Z" fill="#F4EBE2"/>
<path d="M157.151 220H165.006V227.855H157.151V220Z" fill="#F4EBE2"/>
<path d="M165.006 220H172.861V227.855H165.006V220Z" fill="#F4EBE2"/>
<path d="M172.861 220H180.715V227.855H172.861V220Z" fill="#F4EBE2"/>
<path d="M149.297 227.854H157.151V235.709H149.297V227.854Z" fill="#F4EBE2"/>
<path d="M157.151 227.854H165.006V235.709H157.151V227.854Z" fill="#F4EBE2"/>
<path d="M165.006 227.854H172.861V235.709H165.006V227.854Z" fill="#F4EBE2"/>
<path d="M172.861 227.854H180.715V235.709H172.861V227.854Z" fill="#F4EBE2"/>
<path d="M149.297 235.721H157.151V243.576H149.297V235.721Z" fill="#F4EBE2"/>
<path d="M157.151 235.721H165.006V243.576H157.151V235.721Z" fill="#F4EBE2"/>
<path d="M165.006 235.721H172.861V243.576H165.006V235.721Z" fill="#F4EBE2"/>
<path d="M149.297 243.576H157.151V251.43H149.297V243.576Z" fill="#F4EBE2"/>
<path d="M157.151 243.576H165.006V251.43H157.151V243.576Z" fill="#F4EBE2"/>
<path d="M149.297 251.431H157.151V259.285H149.297V251.431Z" fill="#F4EBE2"/>
<path d="M157.151 251.431H165.006V259.285H157.151V251.431Z" fill="#F4EBE2"/>
<path d="M149.297 259.285H157.151V267.14H149.297V259.285Z" fill="#F4EBE2"/>
<path d="M149.297 267.151H157.151V275.006H149.297V267.151Z" fill="#F4EBE2"/>
<path d="M141.43 188.582H149.285V196.436H141.43V188.582Z" fill="#F4EBE2"/>
<path d="M141.43 196.436H149.285V204.291H141.43V196.436Z" fill="#F4EBE2"/>
<path d="M141.43 204.291H149.285V212.145H141.43V204.291Z" fill="#F4EBE2"/>
<path d="M141.43 275.006H149.285V282.86H141.43V275.006Z" fill="#F4EBE2"/>
<path d="M141.43 282.861H149.285V290.715H141.43V282.861Z" fill="#F4EBE2"/>
<path d="M141.43 290.715H149.285V298.57H141.43V290.715Z" fill="#F4EBE2"/>
<path d="M141.43 298.582H149.285V306.436H141.43V298.582Z" fill="#F4EBE2"/>
<path d="M141.43 212.145H149.285V220H141.43V212.145Z" fill="#F4EBE2"/>
<path d="M141.43 220H149.285V227.855H141.43V220Z" fill="#F4EBE2"/>
<path d="M141.43 227.866H149.285V235.721H141.43V227.866Z" fill="#F4EBE2"/>
<path d="M141.43 235.721H149.285V243.576H141.43V235.721Z" fill="#F4EBE2"/>
<path d="M141.43 243.576H149.285V251.43H141.43V243.576Z" fill="#F4EBE2"/>
<path d="M141.43 251.431H149.285V259.285H141.43V251.431Z" fill="#F4EBE2"/>
<path d="M141.43 259.285H149.285V267.14H141.43V259.285Z" fill="#F4EBE2"/>
<path d="M141.43 267.151H149.285V275.006H141.43V267.151Z" fill="#F4EBE2"/>
<path d="M94.2938 172.861H86.4392V180.715H94.2938V172.861Z" fill="#DBD1C7"/>
<path d="M86.4392 172.861H78.5846V180.715H86.4392V172.861Z" fill="#DBD1C7"/>
<path d="M78.5729 172.861H70.7182V180.715H78.5729V172.861Z" fill="#DBD1C7"/>
<path d="M110.003 180.715H102.148V188.57H110.003V180.715Z" fill="#DBD1C7"/>
<path d="M102.148 180.715H94.2938V188.57H102.148V180.715Z" fill="#DBD1C7"/>
<path d="M94.2938 180.715H86.4392V188.57H94.2938V180.715Z" fill="#DBD1C7"/>
<path d="M86.4392 180.715H78.5846V188.57H86.4392V180.715Z" fill="#DBD1C7"/>
<path d="M78.5729 180.715H70.7182V188.57H78.5729V180.715Z" fill="#DBD1C7"/>
<path d="M110.003 188.57H102.148V196.425H110.003V188.57Z" fill="#DBD1C7"/>
<path d="M102.148 188.57H94.2938V196.425H102.148V188.57Z" fill="#DBD1C7"/>
<path d="M94.2938 188.57H86.4392V196.425H94.2938V188.57Z" fill="#DBD1C7"/>
<path d="M86.4392 188.57H78.5846V196.425H86.4392V188.57Z" fill="#DBD1C7"/>
<path d="M78.5729 188.57H70.7182V196.425H78.5729V188.57Z" fill="#DBD1C7"/>
<path d="M70.7181 188.57H62.8635V196.425H70.7181V188.57Z" fill="#DBD1C7"/>
<path d="M102.148 196.436H94.2938V204.291H102.148V196.436Z" fill="#DBD1C7"/>
<path d="M94.2938 196.436H86.4392V204.291H94.2938V196.436Z" fill="#DBD1C7"/>
<path d="M86.4392 196.436H78.5846V204.291H86.4392V196.436Z" fill="#DBD1C7"/>
<path d="M78.5729 196.436H70.7182V204.291H78.5729V196.436Z" fill="#DBD1C7"/>
<path d="M70.7181 196.436H62.8635V204.291H70.7181V196.436Z" fill="#DBD1C7"/>
<path d="M94.2938 204.291H86.4392V212.145H94.2938V204.291Z" fill="#DBD1C7"/>
<path d="M86.4392 204.291H78.5846V212.145H86.4392V204.291Z" fill="#DBD1C7"/>
<path d="M78.5729 204.291H70.7182V212.145H78.5729V204.291Z" fill="#DBD1C7"/>
<path d="M70.7181 204.291H62.8635V212.145H70.7181V204.291Z" fill="#DBD1C7"/>
<path d="M125.724 275.006H117.869V282.86H125.724V275.006Z" fill="#DBD1C7"/>
<path d="M117.858 275.006H110.003V282.86H117.858V275.006Z" fill="#DBD1C7"/>
<path d="M110.003 275.006H102.148V282.86H110.003V275.006Z" fill="#DBD1C7"/>
<path d="M94.2938 212.145H86.4392V220H94.2938V212.145Z" fill="#DBD1C7"/>
<path d="M86.4392 212.145H78.5846V220H86.4392V212.145Z" fill="#DBD1C7"/>
<path d="M78.5729 212.145H70.7182V220H78.5729V212.145Z" fill="#DBD1C7"/>
<path d="M70.7181 212.145H62.8635V220H70.7181V212.145Z" fill="#DBD1C7"/>
<path d="M94.2938 220H86.4392V227.855H94.2938V220Z" fill="#DBD1C7"/>
<path d="M86.4392 220H78.5846V227.855H86.4392V220Z" fill="#DBD1C7"/>
<path d="M78.5729 220H70.7182V227.855H78.5729V220Z" fill="#DBD1C7"/>
<path d="M70.7181 220H62.8635V227.855H70.7181V220Z" fill="#DBD1C7"/>
<path d="M94.2938 227.854H86.4392V235.709H94.2938V227.854Z" fill="#DBD1C7"/>
<path d="M86.4392 227.854H78.5846V235.709H86.4392V227.854Z" fill="#DBD1C7"/>
<path d="M78.5729 227.854H70.7182V235.709H78.5729V227.854Z" fill="#DBD1C7"/>
<path d="M70.7181 227.854H62.8635V235.709H70.7181V227.854Z" fill="#DBD1C7"/>
<path d="M102.148 235.721H94.2938V243.576H102.148V235.721Z" fill="#DBD1C7"/>
<path d="M94.2938 235.721H86.4392V243.576H94.2938V235.721Z" fill="#DBD1C7"/>
<path d="M86.4392 235.721H78.5846V243.576H86.4392V235.721Z" fill="#DBD1C7"/>
<path d="M78.5729 235.721H70.7182V243.576H78.5729V235.721Z" fill="#DBD1C7"/>
<path d="M110.003 243.576H102.148V251.43H110.003V243.576Z" fill="#DBD1C7"/>
<path d="M102.148 243.576H94.2938V251.43H102.148V243.576Z" fill="#DBD1C7"/>
<path d="M94.2938 243.576H86.4392V251.43H94.2938V243.576Z" fill="#DBD1C7"/>
<path d="M86.4392 243.576H78.5846V251.43H86.4392V243.576Z" fill="#DBD1C7"/>
<path d="M78.5729 243.576H70.7182V251.43H78.5729V243.576Z" fill="#DBD1C7"/>
<path d="M110.003 251.431H102.148V259.285H110.003V251.431Z" fill="#DBD1C7"/>
<path d="M102.148 251.431H94.2938V259.285H102.148V251.431Z" fill="#DBD1C7"/>
<path d="M94.2938 251.431H86.4392V259.285H94.2938V251.431Z" fill="#DBD1C7"/>
<path d="M86.4392 251.431H78.5846V259.285H86.4392V251.431Z" fill="#DBD1C7"/>
<path d="M117.858 259.285H110.003V267.14H117.858V259.285Z" fill="#DBD1C7"/>
<path d="M110.003 259.285H102.148V267.14H110.003V259.285Z" fill="#DBD1C7"/>
<path d="M102.148 259.285H94.2938V267.14H102.148V259.285Z" fill="#DBD1C7"/>
<path d="M94.2938 259.285H86.4392V267.14H94.2938V259.285Z" fill="#DBD1C7"/>
<path d="M125.724 267.151H117.869V275.006H125.724V267.151Z" fill="#DBD1C7"/>
<path d="M117.858 267.151H110.003V275.006H117.858V267.151Z" fill="#DBD1C7"/>
<path d="M110.003 267.151H102.148V275.006H110.003V267.151Z" fill="#DBD1C7"/>
<path d="M102.148 267.151H94.2938V275.006H102.148V267.151Z" fill="#DBD1C7"/>
<path d="M196.434 172.86H204.289V180.715H196.434V172.86Z" fill="#DBD1C7"/>
<path d="M204.289 172.86H212.144V180.715H204.289V172.86Z" fill="#DBD1C7"/>
<path d="M212.144 172.86H219.998V180.715H212.144V172.86Z" fill="#DBD1C7"/>
<path d="M180.725 180.715H188.58V188.57H180.725V180.715Z" fill="#DBD1C7"/>
<path d="M188.58 180.715H196.434V188.57H188.58V180.715Z" fill="#DBD1C7"/>
<path d="M196.434 180.715H204.289V188.57H196.434V180.715Z" fill="#DBD1C7"/>
<path d="M204.289 180.715H212.144V188.57H204.289V180.715Z" fill="#DBD1C7"/>
<path d="M212.144 180.715H219.998V188.57H212.144V180.715Z" fill="#DBD1C7"/>
<path d="M180.725 188.57H188.58V196.424H180.725V188.57Z" fill="#DBD1C7"/>
<path d="M188.58 188.57H196.434V196.424H188.58V188.57Z" fill="#DBD1C7"/>
<path d="M196.434 188.57H204.289V196.424H196.434V188.57Z" fill="#DBD1C7"/>
<path d="M204.289 188.57H212.144V196.424H204.289V188.57Z" fill="#DBD1C7"/>
<path d="M212.144 188.57H219.998V196.424H212.144V188.57Z" fill="#DBD1C7"/>
<path d="M220.01 188.57H227.865V196.424H220.01V188.57Z" fill="#DBD1C7"/>
<path d="M188.58 196.436H196.434V204.291H188.58V196.436Z" fill="#DBD1C7"/>
<path d="M196.434 196.436H204.289V204.291H196.434V196.436Z" fill="#DBD1C7"/>
<path d="M204.289 196.436H212.144V204.291H204.289V196.436Z" fill="#DBD1C7"/>
<path d="M212.144 196.436H219.998V204.291H212.144V196.436Z" fill="#DBD1C7"/>
<path d="M220.01 196.436H227.865V204.291H220.01V196.436Z" fill="#DBD1C7"/>
<path d="M196.434 204.291H204.289V212.145H196.434V204.291Z" fill="#DBD1C7"/>
<path d="M204.289 204.291H212.144V212.145H204.289V204.291Z" fill="#DBD1C7"/>
<path d="M212.144 204.291H219.998V212.145H212.144V204.291Z" fill="#DBD1C7"/>
<path d="M220.01 204.291H227.865V212.145H220.01V204.291Z" fill="#DBD1C7"/>
<path d="M165.004 275.006H172.859V282.86H165.004V275.006Z" fill="#DBD1C7"/>
<path d="M172.859 275.006H180.713V282.86H172.859V275.006Z" fill="#DBD1C7"/>
<path d="M180.725 275.006H188.58V282.86H180.725V275.006Z" fill="#DBD1C7"/>
<path d="M196.434 212.145H204.289V220H196.434V212.145Z" fill="#DBD1C7"/>
<path d="M204.289 212.145H212.144V220H204.289V212.145Z" fill="#DBD1C7"/>
<path d="M212.144 212.145H219.998V220H212.144V212.145Z" fill="#DBD1C7"/>
<path d="M220.01 212.145H227.865V220H220.01V212.145Z" fill="#DBD1C7"/>
<path d="M196.434 220H204.289V227.854H196.434V220Z" fill="#DBD1C7"/>
<path d="M204.289 220H212.144V227.854H204.289V220Z" fill="#DBD1C7"/>
<path d="M212.144 220H219.998V227.854H212.144V220Z" fill="#DBD1C7"/>
<path d="M220.01 220H227.865V227.854H220.01V220Z" fill="#DBD1C7"/>
<path d="M196.434 227.854H204.289V235.709H196.434V227.854Z" fill="#DBD1C7"/>
<path d="M204.289 227.854H212.144V235.709H204.289V227.854Z" fill="#DBD1C7"/>
<path d="M212.144 227.854H219.998V235.709H212.144V227.854Z" fill="#DBD1C7"/>
<path d="M220.01 227.854H227.865V235.709H220.01V227.854Z" fill="#DBD1C7"/>
<path d="M188.58 235.721H196.434V243.575H188.58V235.721Z" fill="#DBD1C7"/>
<path d="M196.434 235.721H204.289V243.575H196.434V235.721Z" fill="#DBD1C7"/>
<path d="M204.289 235.721H212.144V243.575H204.289V235.721Z" fill="#DBD1C7"/>
<path d="M212.144 235.721H219.998V243.575H212.144V235.721Z" fill="#DBD1C7"/>
<path d="M180.725 243.576H188.58V251.43H180.725V243.576Z" fill="#DBD1C7"/>
<path d="M188.58 243.576H196.434V251.43H188.58V243.576Z" fill="#DBD1C7"/>
<path d="M196.434 243.576H204.289V251.43H196.434V243.576Z" fill="#DBD1C7"/>
<path d="M204.289 243.576H212.144V251.43H204.289V243.576Z" fill="#DBD1C7"/>
<path d="M212.144 243.576H219.998V251.43H212.144V243.576Z" fill="#DBD1C7"/>
<path d="M180.725 251.43H188.58V259.285H180.725V251.43Z" fill="#DBD1C7"/>
<path d="M188.58 251.43H196.434V259.285H188.58V251.43Z" fill="#DBD1C7"/>
<path d="M196.434 251.43H204.289V259.285H196.434V251.43Z" fill="#DBD1C7"/>
<path d="M204.289 251.43H212.144V259.285H204.289V251.43Z" fill="#DBD1C7"/>
<path d="M172.859 259.285H180.713V267.14H172.859V259.285Z" fill="#DBD1C7"/>
<path d="M180.725 259.285H188.58V267.14H180.725V259.285Z" fill="#DBD1C7"/>
<path d="M188.58 259.285H196.434V267.14H188.58V259.285Z" fill="#DBD1C7"/>
<path d="M196.434 259.285H204.289V267.14H196.434V259.285Z" fill="#DBD1C7"/>
<path d="M165.004 267.151H172.859V275.006H165.004V267.151Z" fill="#DBD1C7"/>
<path d="M172.859 267.151H180.713V275.006H172.859V267.151Z" fill="#DBD1C7"/>
<path d="M180.725 267.151H188.58V275.006H180.725V267.151Z" fill="#DBD1C7"/>
<path d="M188.58 267.151H196.434V275.006H188.58V267.151Z" fill="#DBD1C7"/>
<path d="M86.439 275.006H78.5843V282.86H86.439V275.006Z" fill="#DBD1C7"/>
<path d="M78.5726 275.006H70.718V282.86H78.5726V275.006Z" fill="#DBD1C7"/>
<path d="M55.0087 275.006H47.1541V282.86H55.0087V275.006Z" fill="#DBD1C7"/>
<path d="M47.1422 275.006H39.2876V282.86H47.1422V275.006Z" fill="#DBD1C7"/>
<path d="M39.2876 275.006H31.433V282.86H39.2876V275.006Z" fill="#DBD1C7"/>
<path d="M94.2936 282.861H86.4389V290.715H94.2936V282.861Z" fill="#DBD1C7"/>
<path d="M86.439 282.861H78.5843V290.715H86.439V282.861Z" fill="#DBD1C7"/>
<path d="M47.1422 282.861H39.2876V290.715H47.1422V282.861Z" fill="#DBD1C7"/>
<path d="M39.2876 282.861H31.433V290.715H39.2876V282.861Z" fill="#DBD1C7"/>
<path d="M94.2936 290.715H86.4389V298.57H94.2936V290.715Z" fill="#DBD1C7"/>
<path d="M47.1422 290.715H39.2876V298.57H47.1422V290.715Z" fill="#DBD1C7"/>
<path d="M39.2876 290.715H31.433V298.57H39.2876V290.715Z" fill="#DBD1C7"/>
<path d="M47.1422 298.57H39.2876V306.425H47.1422V298.57Z" fill="#DBD1C7"/>
<path d="M55.0087 235.721H47.1541V243.576H55.0087V235.721Z" fill="#DBD1C7"/>
<path d="M55.0087 243.576H47.1541V251.43H55.0087V243.576Z" fill="#DBD1C7"/>
<path d="M62.8633 251.431H55.0087V259.285H62.8633V251.431Z" fill="#DBD1C7"/>
<path d="M55.0087 251.431H47.1541V259.285H55.0087V251.431Z" fill="#DBD1C7"/>
<path d="M39.2876 251.431H31.433V259.285H39.2876V251.431Z" fill="#DBD1C7"/>
<path d="M70.7179 259.285H62.8633V267.14H70.7179V259.285Z" fill="#DBD1C7"/>
<path d="M62.8633 259.285H55.0087V267.14H62.8633V259.285Z" fill="#DBD1C7"/>
<path d="M55.0087 259.285H47.1541V267.14H55.0087V259.285Z" fill="#DBD1C7"/>
<path d="M47.1422 259.285H39.2876V267.14H47.1422V259.285Z" fill="#DBD1C7"/>
<path d="M39.2876 259.285H31.433V267.14H39.2876V259.285Z" fill="#DBD1C7"/>
<path d="M78.5726 267.151H70.718V275.006H78.5726V267.151Z" fill="#DBD1C7"/>
<path d="M70.7179 267.151H62.8633V275.006H70.7179V267.151Z" fill="#DBD1C7"/>
<path d="M62.8633 267.151H55.0087V275.006H62.8633V267.151Z" fill="#DBD1C7"/>
<path d="M55.0087 267.151H47.1541V275.006H55.0087V267.151Z" fill="#DBD1C7"/>
<path d="M47.1422 267.151H39.2876V275.006H47.1422V267.151Z" fill="#DBD1C7"/>
<path d="M204.289 275.006H212.144V282.86H204.289V275.006Z" fill="#DBD1C7"/>
<path d="M212.144 275.006H219.998V282.86H212.144V275.006Z" fill="#DBD1C7"/>
<path d="M235.719 275.006H243.574V282.86H235.719V275.006Z" fill="#DBD1C7"/>
<path d="M243.574 275.006H251.44V282.86H243.586L243.574 275.006Z" fill="#DBD1C7"/>
<path d="M251.44 275.006H259.295V282.86H251.44V275.006Z" fill="#DBD1C7"/>
<path d="M196.434 282.86H204.289V290.715H196.434V282.86Z" fill="#DBD1C7"/>
<path d="M204.289 282.86H212.144V290.715H204.289V282.86Z" fill="#DBD1C7"/>
<path d="M243.574 282.86H251.44V290.715H243.586L243.574 282.86Z" fill="#DBD1C7"/>
<path d="M251.44 282.86H259.295V290.715H251.44V282.86Z" fill="#DBD1C7"/>
<path d="M196.434 290.715H204.289V298.57H196.434V290.715Z" fill="#DBD1C7"/>
<path d="M243.574 290.715H251.44V298.57H243.586L243.574 290.715Z" fill="#DBD1C7"/>
<path d="M251.44 290.715H259.295V298.57H251.44V290.715Z" fill="#DBD1C7"/>
<path d="M243.574 298.569H251.44V306.424H243.586L243.574 298.569Z" fill="#DBD1C7"/>
<path d="M235.719 235.721H243.574V243.575H235.719V235.721Z" fill="#DBD1C7"/>
<path d="M235.719 243.576H243.574V251.43H235.719V243.576Z" fill="#DBD1C7"/>
<path d="M227.865 251.43H235.719V259.285H227.865V251.43Z" fill="#DBD1C7"/>
<path d="M235.719 251.43H243.574V259.285H235.719V251.43Z" fill="#DBD1C7"/>
<path d="M251.44 251.43H259.295V259.285H251.44V251.43Z" fill="#DBD1C7"/>
<path d="M220.01 259.285H227.865V267.14H220.01V259.285Z" fill="#DBD1C7"/>
<path d="M227.865 259.285H235.719V267.14H227.865V259.285Z" fill="#DBD1C7"/>
<path d="M235.719 259.285H243.574V267.14H235.719V259.285Z" fill="#DBD1C7"/>
<path d="M243.574 259.285H251.44V267.14H243.586L243.574 259.285Z" fill="#DBD1C7"/>
<path d="M251.44 259.285H259.295V267.14H251.44V259.285Z" fill="#DBD1C7"/>
<path d="M212.144 267.151H219.998V275.006H212.144V267.151Z" fill="#DBD1C7"/>
<path d="M220.01 267.151H227.865V275.006H220.01V267.151Z" fill="#DBD1C7"/>
<path d="M227.865 267.151H235.719V275.006H227.865V267.151Z" fill="#DBD1C7"/>
<path d="M235.719 267.151H243.574V275.006H235.719V267.151Z" fill="#DBD1C7"/>
<path d="M243.574 267.151H251.44V275.006H243.586L243.574 267.151Z" fill="#DBD1C7"/>
<path d="M141.43 15.7207H133.576V23.5755H141.43V15.7207Z" fill="black"/>
<path d="M133.576 15.7207H125.721V23.5755H133.576V15.7207Z" fill="black"/>
<path d="M125.721 15.7207H117.867V23.5755H125.721V15.7207Z" fill="black"/>
<path d="M117.867 23.5757H110.012V31.4301H117.867V23.5757Z" fill="black"/>
<path d="M110 23.5757H102.146V31.4301H110V23.5757Z" fill="black"/>
<path d="M102.146 31.4299H94.2909V39.2847H102.146V31.4299Z" fill="black"/>
<path d="M94.2909 39.2849H86.4363V47.1394H94.2909V39.2849Z" fill="black"/>
<path d="M78.5817 0H70.7271V7.85445H78.5817V0Z" fill="black"/>
<path d="M70.7152 0H62.8606V7.85445H70.7152V0Z" fill="black"/>
<path d="M62.8606 0H55.006V7.85445H62.8606V0Z" fill="black"/>
<path d="M55.006 0H47.1514V7.85445H55.006V0Z" fill="black"/>
<path d="M47.1514 0H39.2968V7.85445H47.1514V0Z" fill="black"/>
<path d="M39.2849 0H31.4303V7.85445H39.2849V0Z" fill="black"/>
<path d="M86.4363 7.85425H78.5817V15.7091H86.4363V7.85425Z" fill="black"/>
<path d="M31.4303 7.85425H23.5757V15.7091H31.4303V7.85425Z" fill="black"/>
<path d="M23.5757 7.85425H15.7211V15.7091H23.5757V7.85425Z" fill="black"/>
<path d="M94.2909 15.7207H86.4363V23.5755H94.2909V15.7207Z" fill="black"/>
<path d="M15.7211 15.7207H7.86646V23.5755H15.7211V15.7207Z" fill="black"/>
<path d="M94.2909 23.5757H86.4363V31.4301H94.2909V23.5757Z" fill="black"/>
<path d="M15.7211 23.5757H7.86646V31.4301H15.7211V23.5757Z" fill="black"/>
<path d="M94.2909 31.4299H86.4363V39.2847H94.2909V31.4299Z" fill="black"/>
<path d="M15.7211 31.4299H7.86646V39.2847H15.7211V31.4299Z" fill="black"/>
<path d="M23.5757 39.2849H15.7211V47.1394H23.5757V39.2849Z" fill="black"/>
<path d="M15.7211 47.1392H7.86646V54.994H15.7211V47.1392Z" fill="black"/>
<path d="M7.86643 55.0061H0V62.8606H7.85463V55.0061H7.86643Z" fill="black"/>
<path d="M7.86643 62.8604H0V70.7152H7.85463V62.8604H7.86643Z" fill="black"/>
<path d="M7.86643 70.7153H0V78.5698H7.85463V70.7153H7.86643Z" fill="black"/>
<path d="M15.7211 78.5696H7.86646V86.4244H15.7211V78.5696Z" fill="black"/>
<path d="M23.5757 86.436H15.7211V94.2908H23.5757V86.436Z" fill="black"/>
<path d="M62.8606 133.576H55.006V141.43H62.8606V133.576Z" fill="black"/>
<path d="M62.8606 141.43H55.006V149.285H62.8606V141.43Z" fill="black"/>
<path d="M70.7152 149.285H62.8606V157.139H70.7152V149.285Z" fill="black"/>
<path d="M78.5817 157.151H70.7271V165.006H78.5817V157.151Z" fill="black"/>
<path d="M94.2909 165.006H86.4363V172.86H94.2909V165.006Z" fill="black"/>
<path d="M86.4363 165.006H78.5817V172.86H86.4363V165.006Z" fill="black"/>
<path d="M110 172.861H102.146V180.715H110V172.861Z" fill="black"/>
<path d="M102.146 172.861H94.2909V180.715H102.146V172.861Z" fill="black"/>
<path d="M141.43 180.715H133.576V188.57H141.43V180.715Z" fill="black"/>
<path d="M133.576 180.715H125.721V188.57H133.576V180.715Z" fill="black"/>
<path d="M125.721 180.715H117.867V188.57H125.721V180.715Z" fill="black"/>
<path d="M117.867 180.715H110.012V188.57H117.867V180.715Z" fill="black"/>
<path d="M31.4303 86.436H23.5757V94.2908H31.4303V86.436Z" fill="black"/>
<path d="M31.4303 94.2905H23.5757V102.145H31.4303V94.2905Z" fill="black"/>
<path d="M62.8606 102.145H55.006V110H62.8606V102.145Z" fill="black"/>
<path d="M31.4303 102.145H23.5757V110H31.4303V102.145Z" fill="black"/>
<path d="M62.8606 110H55.006V117.854H62.8606V110Z" fill="black"/>
<path d="M55.006 110H47.1514V117.854H55.006V110Z" fill="black"/>
<path d="M47.1514 110H39.2968V117.854H47.1514V110Z" fill="black"/>
<path d="M39.2849 110H31.4303V117.854H39.2849V110Z" fill="black"/>
<path d="M62.8606 117.854H55.006V125.709H62.8606V117.854Z" fill="black"/>
<path d="M62.8606 125.721H55.006V133.575H62.8606V125.721Z" fill="black"/>
<path d="M110 306.437H102.146V314.291H110V306.437Z" fill="black"/>
<path d="M141.43 314.291H133.576V322.146H141.43V314.291Z" fill="black"/>
<path d="M133.576 314.291H125.721V322.146H133.576V314.291Z" fill="black"/>
<path d="M125.721 314.291H117.867V322.146H125.721V314.291Z" fill="black"/>
<path d="M117.867 314.291H110.012V322.146H117.867V314.291Z" fill="black"/>
<path d="M102.146 204.291H94.2909V212.145H102.146V204.291Z" fill="black"/>
<path d="M133.576 275.006H125.721V282.86H133.576V275.006Z" fill="black"/>
<path d="M133.576 282.861H125.721V290.715H133.576V282.861Z" fill="black"/>
<path d="M125.721 290.715H117.867V298.57H125.721V290.715Z" fill="black"/>
<path d="M117.867 290.715H110.012V298.57H117.867V290.715Z" fill="black"/>
<path d="M110 290.715H102.146V298.57H110V290.715Z" fill="black"/>
<path d="M102.146 212.145H94.2909V220H102.146V212.145Z" fill="black"/>
<path d="M110 220H102.146V227.855H110V220Z" fill="black"/>
<path d="M110 227.854H102.146V235.709H110V227.854Z" fill="black"/>
<path d="M117.867 235.721H110.012V243.576H117.867V235.721Z" fill="black"/>
<path d="M125.721 243.576H117.867V251.43H125.721V243.576Z" fill="black"/>
<path d="M125.721 251.431H117.867V259.285H125.721V251.431Z" fill="black"/>
<path d="M133.576 259.285H125.721V267.14H133.576V259.285Z" fill="black"/>
<path d="M133.576 267.151H125.721V275.006H133.576V267.151Z" fill="black"/>
<path d="M47.1514 235.721H39.2968V243.576H47.1514V235.721Z" fill="black"/>
<path d="M47.1514 243.576H39.2968V251.43H47.1514V243.576Z" fill="black"/>
<path d="M39.2849 243.576H31.4303V251.43H39.2849V243.576Z" fill="black"/>
<path d="M47.1514 251.431H39.2968V259.285H47.1514V251.431Z" fill="black"/>
<path d="M31.4303 251.431H23.5757V259.285H31.4303V251.431Z" fill="black"/>
<path d="M31.4303 259.285H23.5757V267.14H31.4303V259.285Z" fill="black"/>
<path d="M39.2849 267.151H31.4303V275.006H39.2849V267.151Z" fill="black"/>
<path d="M78.5817 165.006H70.7271V172.86H78.5817V165.006Z" fill="black"/>
<path d="M70.7152 172.861H62.8606V180.715H70.7152V172.861Z" fill="black"/>
<path d="M70.7152 180.715H62.8606V188.57H70.7152V180.715Z" fill="black"/>
<path d="M62.8606 188.57H55.006V196.425H62.8606V188.57Z" fill="black"/>
<path d="M62.8606 196.436H55.006V204.291H62.8606V196.436Z" fill="black"/>
<path d="M55.006 204.291H47.1514V212.145H55.006V204.291Z" fill="black"/>
<path d="M94.2909 275.006H86.4363V282.86H94.2909V275.006Z" fill="black"/>
<path d="M23.5757 275.006H15.7211V282.86H23.5757V275.006Z" fill="black"/>
<path d="M102.146 282.861H94.2909V290.715H102.146V282.861Z" fill="black"/>
<path d="M23.5757 282.861H15.7211V290.715H23.5757V282.861Z" fill="black"/>
<path d="M102.146 290.715H94.2909V298.57H102.146V290.715Z" fill="black"/>
<path d="M23.5757 290.715H15.7211V298.57H23.5757V290.715Z" fill="black"/>
<path d="M102.146 298.57H94.2909V306.425H102.146V298.57Z" fill="black"/>
<path d="M31.4303 298.57H23.5757V306.425H31.4303V298.57Z" fill="black"/>
<path d="M102.146 306.437H94.2909V314.291H102.146V306.437Z" fill="black"/>
<path d="M39.2849 306.437H31.4303V314.291H39.2849V306.437Z" fill="black"/>
<path d="M102.146 314.291H94.2909V322.146H102.146V314.291Z" fill="black"/>
<path d="M55.006 314.291H47.1514V322.146H55.006V314.291Z" fill="black"/>
<path d="M47.1514 314.291H39.2968V322.146H47.1514V314.291Z" fill="black"/>
<path d="M94.2909 322.146H86.4363V330H94.2909V322.146Z" fill="black"/>
<path d="M86.4363 322.146H78.5817V330H86.4363V322.146Z" fill="black"/>
<path d="M78.5817 322.146H70.7271V330H78.5817V322.146Z" fill="black"/>
<path d="M70.7152 322.146H62.8606V330H70.7152V322.146Z" fill="black"/>
<path d="M62.8606 322.146H55.006V330H62.8606V322.146Z" fill="black"/>
<path d="M55.006 212.145H47.1514V220H55.006V212.145Z" fill="black"/>
<path d="M55.006 220H47.1514V227.855H55.006V220Z" fill="black"/>
<path d="M55.006 227.854H47.1514V235.709H55.006V227.854Z" fill="black"/>
<path d="M62.8606 235.721H55.006V243.576H62.8606V235.721Z" fill="black"/>
<path d="M62.8606 243.576H55.006V251.43H62.8606V243.576Z" fill="black"/>
<path d="M70.7152 251.431H62.8606V259.285H70.7152V251.431Z" fill="black"/>
<path d="M78.5817 259.285H70.7271V267.14H78.5817V259.285Z" fill="black"/>
<path d="M86.4363 267.151H78.5817V275.006H86.4363V267.151Z" fill="black"/>
<path d="M23.5757 267.151H15.7211V275.006H23.5757V267.151Z" fill="black"/>
<path d="M149.297 15.7207H141.442V23.5755H149.297V15.7207Z" fill="black"/>
<path d="M149.297 15.7207H157.152V23.5755H149.297V15.7207Z" fill="black"/>
<path d="M157.151 15.7207H165.006V23.5755H157.151V15.7207Z" fill="black"/>
<path d="M165.006 15.7207H172.861V23.5755H165.006V15.7207Z" fill="black"/>
<path d="M172.861 23.5757H180.715V31.4301H172.861V23.5757Z" fill="black"/>
<path d="M180.715 23.5757H188.57V31.4301H180.715V23.5757Z" fill="black"/>
<path d="M188.582 31.4299H196.436V39.2847H188.582V31.4299Z" fill="black"/>
<path d="M196.436 39.2849H204.291V47.1394H196.436V39.2849Z" fill="black"/>
<path d="M212.146 0H220V7.85445H212.146V0Z" fill="black"/>
<path d="M220.012 0H227.867V7.85445H220.012V0Z" fill="black"/>
<path d="M227.867 0H235.721V7.85445H227.867V0Z" fill="black"/>
<path d="M235.721 0H243.576V7.85445H235.721V0Z" fill="black"/>
<path d="M243.576 0H251.431V7.85445H243.576V0Z" fill="black"/>
<path d="M251.431 0H259.285V7.85445H251.431V0Z" fill="black"/>
<path d="M204.291 7.85425H212.146V15.7091H204.291V7.85425Z" fill="black"/>
<path d="M259.297 7.85425H267.152V15.7091H259.297V7.85425Z" fill="black"/>
<path d="M267.152 7.85425H275.006V15.7091H267.152V7.85425Z" fill="black"/>
<path d="M196.436 15.7207H204.291V23.5755H196.436V15.7207Z" fill="black"/>
<path d="M275.006 15.7207H282.861V23.5755H275.006V15.7207Z" fill="black"/>
<path d="M196.436 23.5757H204.291V31.4301H196.436V23.5757Z" fill="black"/>
<path d="M275.006 23.5757H282.861V31.4301H275.006V23.5757Z" fill="black"/>
<path d="M196.436 31.4299H204.291V39.2847H196.436V31.4299Z" fill="black"/>
<path d="M275.006 31.4299H282.861V39.2847H275.006V31.4299Z" fill="black"/>
<path d="M267.152 39.2849H275.006V47.1394H267.152V39.2849Z" fill="black"/>
<path d="M275.006 47.1392H282.861V54.994H275.006V47.1392Z" fill="black"/>
<path d="M282.861 55.0061H290.715V62.8606H282.861V55.0061Z" fill="black"/>
<path d="M282.861 62.8604H290.715V70.7152H282.861V62.8604Z" fill="black"/>
<path d="M282.861 70.7153H290.715V78.5698H282.861V70.7153Z" fill="black"/>
<path d="M275.006 78.5696H282.861V86.4244H275.006V78.5696Z" fill="black"/>
<path d="M267.152 86.436H275.006V94.2908H267.152V86.436Z" fill="black"/>
<path d="M227.867 133.576H235.721V141.43H227.867V133.576Z" fill="black"/>
<path d="M227.867 141.43H235.721V149.285H227.867V141.43Z" fill="black"/>
<path d="M220.012 149.285H227.867V157.139H220.012V149.285Z" fill="black"/>
<path d="M212.146 157.151H220V165.006H212.146V157.151Z" fill="black"/>
<path d="M196.436 165.006H204.291V172.86H196.436V165.006Z" fill="black"/>
<path d="M204.291 165.006H212.146V172.86H204.291V165.006Z" fill="black"/>
<path d="M180.715 172.861H188.57V180.715H180.715V172.861Z" fill="black"/>
<path d="M188.582 172.861H196.436V180.715H188.582V172.861Z" fill="black"/>
<path d="M149.297 180.715H157.152V188.57H149.297V180.715Z" fill="black"/>
<path d="M157.151 180.715H165.006V188.57H157.151V180.715Z" fill="black"/>
<path d="M165.006 180.715H172.861V188.57H165.006V180.715Z" fill="black"/>
<path d="M172.861 180.715H180.715V188.57H172.861V180.715Z" fill="black"/>
<path d="M259.297 86.436H267.152V94.2908H259.297V86.436Z" fill="black"/>
<path d="M259.297 94.2905H267.152V102.145H259.297V94.2905Z" fill="black"/>
<path d="M227.867 102.145H235.721V110H227.867V102.145Z" fill="black"/>
<path d="M259.297 102.145H267.152V110H259.297V102.145Z" fill="black"/>
<path d="M227.867 110H235.721V117.854H227.867V110Z" fill="black"/>
<path d="M235.721 110H243.576V117.854H235.721V110Z" fill="black"/>
<path d="M243.576 110H251.431V117.854H243.576V110Z" fill="black"/>
<path d="M251.431 110H259.285V117.854H251.431V110Z" fill="black"/>
<path d="M227.867 117.854H235.721V125.709H227.867V117.854Z" fill="black"/>
<path d="M227.867 125.721H235.721V133.575H227.867V125.721Z" fill="black"/>
<path d="M180.715 306.437H188.57V314.291H180.715V306.437Z" fill="black"/>
<path d="M149.297 314.291H157.152V322.146H149.297V314.291Z" fill="black"/>
<path d="M157.151 314.291H165.006V322.146H157.151V314.291Z" fill="black"/>
<path d="M165.006 314.291H172.861V322.146H165.006V314.291Z" fill="black"/>
<path d="M172.861 314.291H180.715V322.146H172.861V314.291Z" fill="black"/>
<path d="M188.582 204.291H196.436V212.145H188.582V204.291Z" fill="black"/>
<path d="M157.151 275.006H165.006V282.86H157.151V275.006Z" fill="black"/>
<path d="M157.151 282.861H165.006V290.715H157.151V282.861Z" fill="black"/>
<path d="M165.006 290.715H172.861V298.57H165.006V290.715Z" fill="black"/>
<path d="M172.861 290.715H180.715V298.57H172.861V290.715Z" fill="black"/>
<path d="M180.715 290.715H188.57V298.57H180.715V290.715Z" fill="black"/>
<path d="M188.582 212.145H196.436V220H188.582V212.145Z" fill="black"/>
<path d="M180.715 220H188.57V227.855H180.715V220Z" fill="black"/>
<path d="M180.715 227.854H188.57V235.709H180.715V227.854Z" fill="black"/>
<path d="M172.861 235.721H180.715V243.576H172.861V235.721Z" fill="black"/>
<path d="M165.006 243.576H172.861V251.43H165.006V243.576Z" fill="black"/>
<path d="M165.006 251.431H172.861V259.285H165.006V251.431Z" fill="black"/>
<path d="M157.151 259.285H165.006V267.14H157.151V259.285Z" fill="black"/>
<path d="M157.151 267.151H165.006V275.006H157.151V267.151Z" fill="black"/>
<path d="M243.576 235.721H251.431V243.576H243.576V235.721Z" fill="black"/>
<path d="M243.576 243.576H251.431V251.43H243.576V243.576Z" fill="black"/>
<path d="M251.431 243.576H259.285V251.43H251.431V243.576Z" fill="black"/>
<path d="M243.576 251.431H251.431V259.285H243.576V251.431Z" fill="black"/>
<path d="M259.297 251.431H267.152V259.285H259.297V251.431Z" fill="black"/>
<path d="M259.297 259.285H267.152V267.14H259.297V259.285Z" fill="black"/>
<path d="M251.431 267.151H259.285V275.006H251.431V267.151Z" fill="black"/>
<path d="M212.146 165.006H220V172.86H212.146V165.006Z" fill="black"/>
<path d="M220.012 172.861H227.867V180.715H220.012V172.861Z" fill="black"/>
<path d="M220.012 180.715H227.867V188.57H220.012V180.715Z" fill="black"/>
<path d="M227.867 188.57H235.721V196.425H227.867V188.57Z" fill="black"/>
<path d="M227.867 196.436H235.721V204.291H227.867V196.436Z" fill="black"/>
<path d="M235.721 204.291H243.576V212.145H235.721V204.291Z" fill="black"/>
<path d="M196.436 275.006H204.291V282.86H196.436V275.006Z" fill="black"/>
<path d="M267.152 275.006H275.006V282.86H267.152V275.006Z" fill="black"/>
<path d="M188.582 282.861H196.436V290.715H188.582V282.861Z" fill="black"/>
<path d="M267.152 282.861H275.006V290.715H267.152V282.861Z" fill="black"/>
<path d="M188.582 290.715H196.436V298.57H188.582V290.715Z" fill="black"/>
<path d="M267.152 290.715H275.006V298.57H267.152V290.715Z" fill="black"/>
<path d="M188.582 298.57H196.436V306.425H188.582V298.57Z" fill="black"/>
<path d="M259.297 298.57H267.152V306.425H259.297V298.57Z" fill="black"/>
<path d="M188.582 306.437H196.436V314.291H188.582V306.437Z" fill="black"/>
<path d="M251.431 306.437H259.285V314.291H251.431V306.437Z" fill="black"/>
<path d="M188.582 314.291H196.436V322.146H188.582V314.291Z" fill="black"/>
<path d="M235.721 314.291H243.576V322.146H235.721V314.291Z" fill="black"/>
<path d="M243.576 314.291H251.431V322.146H243.576V314.291Z" fill="black"/>
<path d="M196.436 322.146H204.291V330H196.436V322.146Z" fill="black"/>
<path d="M204.291 322.146H212.146V330H204.291V322.146Z" fill="black"/>
<path d="M212.146 322.146H220V330H212.146V322.146Z" fill="black"/>
<path d="M220.012 322.146H227.867V330H220.012V322.146Z" fill="black"/>
<path d="M227.867 322.146H235.721V330H227.867V322.146Z" fill="black"/>
<path d="M235.721 212.145H243.576V220H235.721V212.145Z" fill="black"/>
<path d="M235.721 220H243.576V227.855H235.721V220Z" fill="black"/>
<path d="M235.721 227.854H243.576V235.709H235.721V227.854Z" fill="black"/>
<path d="M227.867 235.721H235.721V243.576H227.867V235.721Z" fill="black"/>
<path d="M227.867 243.576H235.721V251.43H227.867V243.576Z" fill="black"/>
<path d="M220.012 251.431H227.867V259.285H220.012V251.431Z" fill="black"/>
<path d="M212.146 259.285H220V267.14H212.146V259.285Z" fill="black"/>
<path d="M204.291 267.151H212.146V275.006H204.291V267.151Z" fill="black"/>
<path d="M267.152 267.151H275.006V275.006H267.152V267.151Z" fill="black"/>
<path d="M141.43 180.715H149.285V188.57H141.43V180.715Z" fill="black"/>
<path d="M141.43 314.291H149.285V322.146H141.43V314.291Z" fill="black"/>
<path d="M102.146 94.2905H94.2909V102.145H102.146V94.2905Z" fill="white"/>
<path d="M196.436 94.2905H204.291V102.145H196.436V94.2905Z" fill="white"/>
<path d="M70.7162 133.572H62.8616V141.426H70.7162V133.572Z" fill="#C1A58D"/>
<path d="M70.7162 141.426H62.8616V149.28H70.7162V141.426Z" fill="#C1A58D"/>
<path d="M78.5708 149.292H70.7162V157.147H78.5708V149.292Z" fill="#C1A58D"/>
<path d="M94.2919 157.147H86.4373V165.002H94.2919V157.147Z" fill="#C1A58D"/>
<path d="M86.4373 157.147H78.5826V165.002H86.4373V157.147Z" fill="#C1A58D"/>
<path d="M117.867 165.002H110.013V172.856H117.867V165.002Z" fill="#C1A58D"/>
<path d="M110.001 165.002H102.146V172.856H110.001V165.002Z" fill="#C1A58D"/>
<path d="M102.146 165.002H94.2917V172.856H102.146V165.002Z" fill="#C1A58D"/>
<path d="M141.431 172.856H133.577V180.711H141.431V172.856Z" fill="#C1A58D"/>
<path d="M133.577 172.856H125.722V180.711H133.577V172.856Z" fill="#C1A58D"/>
<path d="M125.722 172.856H117.868V180.711H125.722V172.856Z" fill="#C1A58D"/>
<path d="M117.867 172.856H110.013V180.711H117.867V172.856Z" fill="#C1A58D"/>
<path d="M70.7162 117.862H62.8616V125.717H70.7162V117.862Z" fill="#C1A58D"/>
<path d="M70.7162 125.717H62.8616V133.572H70.7162V125.717Z" fill="#C1A58D"/>
<path d="M149.286 172.856H141.431V180.711H149.286V172.856Z" fill="#C1A58D"/>
<path d="M220.001 133.572H227.856V141.426H220.001V133.572Z" fill="#C1A58D"/>
<path d="M220.001 141.426H227.856V149.28H220.001V141.426Z" fill="#C1A58D"/>
<path d="M212.147 149.292H220.001V157.147H212.147V149.292Z" fill="#C1A58D"/>
<path d="M196.437 157.147H204.292V165.002H196.437V157.147Z" fill="#C1A58D"/>
<path d="M204.292 157.147H212.147V165.002H204.292V157.147Z" fill="#C1A58D"/>
<path d="M172.862 165.002H180.716V172.856H172.862V165.002Z" fill="#C1A58D"/>
<path d="M180.716 165.002H188.571V172.856H180.716V165.002Z" fill="#C1A58D"/>
<path d="M188.583 165.002H196.437V172.856H188.583V165.002Z" fill="#C1A58D"/>
<path d="M149.286 172.856H157.141V180.711H149.286V172.856Z" fill="#C1A58D"/>
<path d="M157.152 172.856H165.007V180.711H157.152V172.856Z" fill="#C1A58D"/>
<path d="M165.007 172.856H172.862V180.711H165.007V172.856Z" fill="#C1A58D"/>
<path d="M172.862 172.856H180.716V180.711H172.862V172.856Z" fill="#C1A58D"/>
<path d="M220.001 117.862H227.856V125.717H220.001V117.862Z" fill="#C1A58D"/>
<path d="M220.001 125.717H227.856V133.572H220.001V125.717Z" fill="#C1A58D"/>
<path d="M102.146 220H94.2909V227.855H102.146V220Z" fill="#E4DCD4"/>
<path d="M102.145 227.866H94.2908V235.721H102.145V227.866Z" fill="#E4DCD4"/>
<path d="M110 235.721H102.145V243.576H110V235.721Z" fill="#E4DCD4"/>
<path d="M117.866 243.576H110.012V251.43H117.866V243.576Z" fill="#E4DCD4"/>
<path d="M117.866 251.431H110.012V259.285H117.866V251.431Z" fill="#E4DCD4"/>
<path d="M125.721 259.285H117.866V267.14H125.721V259.285Z" fill="#E4DCD4"/>
<path d="M188.582 220H196.436V227.855H188.582V220Z" fill="#E4DCD4"/>
<path d="M188.582 227.866H196.436V235.721H188.582V227.866Z" fill="#E4DCD4"/>
<path d="M180.715 235.721H188.57V243.576H180.715V235.721Z" fill="#E4DCD4"/>
<path d="M172.861 243.576H180.715V251.43H172.861V243.576Z" fill="#E4DCD4"/>
<path d="M172.861 251.431H180.715V259.285H172.861V251.431Z" fill="#E4DCD4"/>
<path d="M165.006 259.285H172.861V267.14H165.006V259.285Z" fill="#E4DCD4"/>
<path d="M23.5718 31.4341H15.7172V39.2885H23.5718V31.4341Z" fill="#C1A58D"/>
<path d="M15.7172 54.9976H7.86255V62.8524H15.7172V54.9976Z" fill="#C1A58D"/>
<path d="M15.7172 62.8645H7.86255V70.719H15.7172V62.8645Z" fill="#C1A58D"/>
<path d="M15.7172 70.7188H7.86255V78.5736H15.7172V70.7188Z" fill="#C1A58D"/>
<path d="M31.4382 78.5737H23.5836V86.4282H31.4382V78.5737Z" fill="#C1A58D"/>
<path d="M23.5718 78.5737H15.7172V86.4282H23.5718V78.5737Z" fill="#C1A58D"/>
<path d="M39.2929 94.2827H31.4382V102.138H39.2929V94.2827Z" fill="#C1A58D"/>
<path d="M55.0021 102.149H47.1475V110.004H55.0021V102.149Z" fill="#C1A58D"/>
<path d="M47.1475 102.149H39.2928V110.004H47.1475V102.149Z" fill="#C1A58D"/>
<path d="M39.2929 102.149H31.4382V110.004H39.2929V102.149Z" fill="#C1A58D"/>
<path d="M267.148 31.4341H275.002V39.2885H267.148V31.4341Z" fill="#C1A58D"/>
<path d="M275.002 54.9976H282.857V62.8524H275.002V54.9976Z" fill="#C1A58D"/>
<path d="M275.002 62.8645H282.857V70.719H275.002V62.8645Z" fill="#C1A58D"/>
<path d="M275.002 70.7188H282.857V78.5736H275.002V70.7188Z" fill="#C1A58D"/>
<path d="M259.293 78.5737H267.148V86.4282H259.293V78.5737Z" fill="#C1A58D"/>
<path d="M267.148 78.5737H275.002V86.4282H267.148V78.5737Z" fill="#C1A58D"/>
<path d="M251.438 94.2827H259.293V102.138H251.438V94.2827Z" fill="#C1A58D"/>
<path d="M235.717 102.149H243.572V110.004H235.717V102.149Z" fill="#C1A58D"/>
<path d="M243.584 102.149H251.438V110.004H243.584V102.149Z" fill="#C1A58D"/>
<path d="M251.438 102.149H259.293V110.004H251.438V102.149Z" fill="#C1A58D"/>
<path d="M62.8606 204.293H55.006V212.147H62.8606V204.293Z" fill="#C1A58D"/>
<path d="M102.146 275.008H94.291V282.863H102.146V275.008Z" fill="#C1A58D"/>
<path d="M125.721 282.862H117.867V290.717H125.721V282.862Z" fill="#C1A58D"/>
<path d="M117.867 282.862H110.012V290.717H117.867V282.862Z" fill="#C1A58D"/>
<path d="M110 282.862H102.146V290.717H110V282.862Z" fill="#C1A58D"/>
<path d="M62.8607 212.147H55.0061V220.002H62.8607V212.147Z" fill="#C1A58D"/>
<path d="M62.8607 220.002H55.0061V227.856H62.8607V220.002Z" fill="#C1A58D"/>
<path d="M62.8607 227.856H55.0061V235.711H62.8607V227.856Z" fill="#C1A58D"/>
<path d="M70.7153 235.711H62.8607V243.566H70.7153V235.711Z" fill="#C1A58D"/>
<path d="M70.7153 243.578H62.8607V251.432H70.7153V243.578Z" fill="#C1A58D"/>
<path d="M78.5818 251.432H70.7272V259.287H78.5818V251.432Z" fill="#C1A58D"/>
<path d="M86.4363 259.287H78.5817V267.141H86.4363V259.287Z" fill="#C1A58D"/>
<path d="M94.291 267.141H86.4364V274.996H94.291V267.141Z" fill="#C1A58D"/>
<path d="M227.867 204.293H235.721V212.147H227.867V204.293Z" fill="#C1A58D"/>
<path d="M188.582 275.008H196.437V282.863H188.582V275.008Z" fill="#C1A58D"/>
<path d="M165.006 282.862H172.861V290.717H165.006V282.862Z" fill="#C1A58D"/>
<path d="M172.861 282.862H180.715V290.717H172.861V282.862Z" fill="#C1A58D"/>
<path d="M180.715 282.862H188.57V290.717H180.715V282.862Z" fill="#C1A58D"/>
<path d="M227.867 212.147H235.721V220.002H227.867V212.147Z" fill="#C1A58D"/>
<path d="M227.867 220.002H235.721V227.856H227.867V220.002Z" fill="#C1A58D"/>
<path d="M227.867 227.856H235.721V235.711H227.867V227.856Z" fill="#C1A58D"/>
<path d="M220.012 235.711H227.867V243.566H220.012V235.711Z" fill="#C1A58D"/>
<path d="M220.012 243.578H227.867V251.432H220.012V243.578Z" fill="#C1A58D"/>
<path d="M212.146 251.432H220V259.287H212.146V251.432Z" fill="#C1A58D"/>
<path d="M204.291 259.287H212.146V267.141H204.291V259.287Z" fill="#C1A58D"/>
<path d="M196.437 267.141H204.291V274.996H196.437V267.141Z" fill="#C1A58D"/>
<path d="M31.4342 275.003H23.5796V282.858H31.4342V275.003Z" fill="#C1A58D"/>
<path d="M31.4342 282.858H23.5796V290.712H31.4342V282.858Z" fill="#C1A58D"/>
<path d="M31.4342 290.712H23.5796V298.567H31.4342V290.712Z" fill="#C1A58D"/>
<path d="M94.2948 298.579H86.4402V306.433H94.2948V298.579Z" fill="#C1A58D"/>
<path d="M39.2888 298.579H31.4342V306.433H39.2888V298.579Z" fill="#C1A58D"/>
<path d="M94.2948 306.433H86.4402V314.288H94.2948V306.433Z" fill="#C1A58D"/>
<path d="M86.4284 306.433H78.5737V314.288H86.4284V306.433Z" fill="#C1A58D"/>
<path d="M55.0099 306.433H47.1553V314.288H55.0099V306.433Z" fill="#C1A58D"/>
<path d="M47.1434 306.433H39.2888V314.288H47.1434V306.433Z" fill="#C1A58D"/>
<path d="M94.2948 314.288H86.4402V322.143H94.2948V314.288Z" fill="#C1A58D"/>
<path d="M86.4284 314.288H78.5737V322.143H86.4284V314.288Z" fill="#C1A58D"/>
<path d="M78.5737 314.288H70.7191V322.143H78.5737V314.288Z" fill="#C1A58D"/>
<path d="M70.7191 314.288H62.8645V322.143H70.7191V314.288Z" fill="#C1A58D"/>
<path d="M62.8645 314.288H55.0099V322.143H62.8645V314.288Z" fill="#C1A58D"/>
<path d="M31.4342 267.149H23.5796V275.003H31.4342V267.149Z" fill="#C1A58D"/>
<path d="M259.289 275.003H267.144V282.858H259.289V275.003Z" fill="#C1A58D"/>
<path d="M259.289 282.858H267.144V290.712H259.289V282.858Z" fill="#C1A58D"/>
<path d="M259.289 290.712H267.144V298.567H259.289V290.712Z" fill="#C1A58D"/>
<path d="M196.44 298.579H204.295V306.433H196.44V298.579Z" fill="#C1A58D"/>
<path d="M251.434 298.579H259.289V306.433H251.434V298.579Z" fill="#C1A58D"/>
<path d="M196.44 306.433H204.295V314.288H196.44V306.433Z" fill="#C1A58D"/>
<path d="M204.295 306.433H212.15V314.288H204.295V306.433Z" fill="#C1A58D"/>
<path d="M235.725 306.433H243.58V314.288H235.725V306.433Z" fill="#C1A58D"/>
<path d="M243.58 306.433H251.434V314.288H243.58V306.433Z" fill="#C1A58D"/>
<path d="M196.44 314.288H204.295V322.143H196.44V314.288Z" fill="#C1A58D"/>
<path d="M204.295 314.288H212.15V322.143H204.295V314.288Z" fill="#C1A58D"/>
<path d="M212.15 314.288H220.004V322.143H212.15V314.288Z" fill="#C1A58D"/>
<path d="M220.004 314.288H227.859V322.143H220.004V314.288Z" fill="#C1A58D"/>
<path d="M227.859 314.288H235.713V322.143H227.859V314.288Z" fill="#C1A58D"/>
<path d="M259.289 267.149H267.144V275.003H259.289V267.149Z" fill="#C1A58D"/>
<path d="M125.723 298.574H117.869V306.428H125.723V298.574Z" fill="#ECDDCE"/>
<path d="M117.869 298.574H110.014V306.428H117.869V298.574Z" fill="#ECDDCE"/>
<path d="M110.002 298.574H102.147V306.428H110.002V298.574Z" fill="#ECDDCE"/>
<path d="M141.432 306.428H133.578V314.283H141.432V306.428Z" fill="#ECDDCE"/>
<path d="M133.578 306.428H125.723V314.283H133.578V306.428Z" fill="#ECDDCE"/>
<path d="M125.723 306.428H117.869V314.283H125.723V306.428Z" fill="#ECDDCE"/>
<path d="M117.869 306.428H110.014V314.283H117.869V306.428Z" fill="#ECDDCE"/>
<path d="M165.008 298.574H172.863V306.428H165.008V298.574Z" fill="#ECDDCE"/>
<path d="M172.863 298.574H180.717V306.428H172.863V298.574Z" fill="#ECDDCE"/>
<path d="M180.717 298.574H188.572V306.428H180.717V298.574Z" fill="#ECDDCE"/>
<path d="M149.287 306.428H157.142V314.283H149.287V306.428Z" fill="#ECDDCE"/>
<path d="M157.153 306.428H165.008V314.283H157.153V306.428Z" fill="#ECDDCE"/>
<path d="M165.008 306.428H172.863V314.283H165.008V306.428Z" fill="#ECDDCE"/>
<path d="M172.863 306.428H180.717V314.283H172.863V306.428Z" fill="#ECDDCE"/>
<path d="M141.432 306.428H149.287V314.283H141.432V306.428Z" fill="#ECDDCE"/>
</svg>
