<svg width="256" height="330" viewBox="0 0 256 330" fill="none" xmlns="http://www.w3.org/2000/svg">
<path d="M202.258 330H212.903V319.355H202.258V330Z" fill="#11100F"/>
<path d="M191.613 330H202.258V319.355H191.613V330Z" fill="#11100F"/>
<path d="M180.968 330H191.613V319.355H180.968V330Z" fill="#11100F"/>
<path d="M170.323 330H180.968V319.355H170.323V330Z" fill="#11100F"/>
<path d="M159.677 330H170.323V319.355H159.677V330Z" fill="#11100F"/>
<path d="M149.032 330H159.677V319.355H149.032V330Z" fill="#11100F"/>
<path d="M138.387 330H149.032V319.355H138.387V330Z" fill="#11100F"/>
<path d="M127.742 330H138.387V319.355H127.742V330Z" fill="#11100F"/>
<path d="M117.097 330H127.742V319.355H117.097V330Z" fill="#11100F"/>
<path d="M106.452 330H117.097V319.355H106.452V330Z" fill="#11100F"/>
<path d="M95.8064 330H106.452V319.355H95.8064V330Z" fill="#11100F"/>
<path d="M85.1613 330H95.8064V319.355H85.1613V330Z" fill="#11100F"/>
<path d="M74.5161 330H85.1613V319.355H74.5161V330Z" fill="#11100F"/>
<path d="M63.871 330H74.5161V319.355H63.871V330Z" fill="#11100F"/>
<path d="M53.2258 330H63.871V319.355H53.2258V330Z" fill="#11100F"/>
<path d="M42.5806 330H53.2257V319.355H42.5806V330Z" fill="#11100F"/>
<path d="M31.9354 330H42.5806V319.355H31.9354V330Z" fill="#11100F"/>
<path d="M223.548 319.355H234.194V308.71H223.548V319.355Z" fill="#11100F"/>
<path d="M212.903 319.355H223.548V308.71H212.903V319.355Z" fill="#11100F"/>
<path d="M202.258 319.355H212.903V308.71H202.258V319.355Z" fill="#D59F70"/>
<path d="M191.613 319.355H202.258V308.71H191.613V319.355Z" fill="#D59F70"/>
<path d="M180.968 319.355H191.613V308.71H180.968V319.355Z" fill="#D59F70"/>
<path d="M170.323 319.355H180.968V308.71H170.323V319.355Z" fill="#11100F"/>
<path d="M159.677 319.355H170.323V308.71H159.677V319.355Z" fill="#11100F"/>
<path d="M149.032 319.355H159.677V308.71H149.032V319.355Z" fill="#D59F70"/>
<path d="M138.387 319.355H149.032V308.71H138.387V319.355Z" fill="#D59F70"/>
<path d="M127.742 319.355H138.387V308.71H127.742V319.355Z" fill="#11100F"/>
<path d="M117.097 319.355H127.742V308.71H117.097V319.355Z" fill="#11100F"/>
<path d="M106.452 319.355H117.097V308.71H106.452V319.355Z" fill="#11100F"/>
<path d="M95.8064 319.355H106.452V308.71H95.8064V319.355Z" fill="#D59F70"/>
<path d="M85.1613 319.355H95.8064V308.71H85.1613V319.355Z" fill="#D59F70"/>
<path d="M74.5161 319.355H85.1613V308.71H74.5161V319.355Z" fill="#11100F"/>
<path d="M63.871 319.355H74.5161V308.71H63.871V319.355Z" fill="#11100F"/>
<path d="M53.2258 319.355H63.871V308.71H53.2258V319.355Z" fill="#D59F70"/>
<path d="M42.5806 319.355H53.2257V308.71H42.5806V319.355Z" fill="#D59F70"/>
<path d="M31.9354 319.355H42.5806V308.71H31.9354V319.355Z" fill="#D59F70"/>
<path d="M21.2903 319.355H31.9354V308.71H21.2903V319.355Z" fill="#11100F"/>
<path d="M234.194 308.71H244.839V298.065H234.194V308.71Z" fill="#11100F"/>
<path d="M223.548 308.71H234.194V298.065H223.548V308.71Z" fill="#F5DCA8"/>
<path d="M212.903 308.71H223.548V298.065H212.903V308.71Z" fill="#11100F"/>
<path d="M202.258 308.71H212.903V298.065H202.258V308.71Z" fill="#D59F70"/>
<path d="M191.613 308.71H202.258V298.065H191.613V308.71Z" fill="#D59F70"/>
<path d="M180.968 308.71H191.613V298.065H180.968V308.71Z" fill="#F5DCA8"/>
<path d="M170.323 308.71H180.968V298.065H170.323V308.71Z" fill="#11100F"/>
<path d="M159.677 308.71H170.323V298.065H159.677V308.71Z" fill="#D59F70"/>
<path d="M149.032 308.71H159.677V298.065H149.032V308.71Z" fill="#D59F70"/>
<path d="M138.387 308.71H149.032V298.065H138.387V308.71Z" fill="#FDFCF9"/>
<path d="M127.742 308.71H138.387V298.065H127.742V308.71Z" fill="#11100F"/>
<path d="M117.097 308.71H127.742V298.065H117.097V308.71Z" fill="#D59F70"/>
<path d="M106.452 308.71H117.097V298.065H106.452V308.71Z" fill="#11100F"/>
<path d="M95.8064 308.71H106.452V298.065H95.8064V308.71Z" fill="#FDFCF9"/>
<path d="M85.1613 308.71H95.8064V298.065H85.1613V308.71Z" fill="#D59F70"/>
<path d="M74.5161 308.71H85.1613V298.065H74.5161V308.71Z" fill="#D59F70"/>
<path d="M63.871 308.71H74.5161V298.065H63.871V308.71Z" fill="#11100F"/>
<path d="M53.2258 308.71H63.871V298.065H53.2258V308.71Z" fill="#F5DCA8"/>
<path d="M42.5806 308.71H53.2257V298.065H42.5806V308.71Z" fill="#D59F70"/>
<path d="M31.9354 308.71H42.5806V298.065H31.9354V308.71Z" fill="#D59F70"/>
<path d="M21.2903 308.71H31.9354V298.065H21.2903V308.71Z" fill="#11100F"/>
<path d="M244.839 298.064H255.484V287.419H244.839V298.064Z" fill="#11100F"/>
<path d="M234.194 298.064H244.839V287.419H234.194V298.064Z" fill="#F5DCA8"/>
<path d="M223.548 298.064H234.194V287.419H223.548V298.064Z" fill="#F5DCA8"/>
<path d="M212.903 298.064H223.548V287.419H212.903V298.064Z" fill="#11100F"/>
<path d="M202.258 298.064H212.903V287.419H202.258V298.064Z" fill="#D59F70"/>
<path d="M191.613 298.064H202.258V287.419H191.613V298.064Z" fill="#F5DCA8"/>
<path d="M180.968 298.064H191.613V287.419H180.968V298.064Z" fill="#F5DCA8"/>
<path d="M170.323 298.064H180.968V287.419H170.323V298.064Z" fill="#11100F"/>
<path d="M159.677 298.064H170.323V287.419H159.677V298.064Z" fill="#F5DCA8"/>
<path d="M149.032 298.064H159.677V287.419H149.032V298.064Z" fill="#FDFCF9"/>
<path d="M138.387 298.064H149.032V287.419H138.387V298.064Z" fill="#FDFCF9"/>
<path d="M127.742 298.064H138.387V287.419H127.742V298.064Z" fill="#11100F"/>
<path d="M117.097 298.064H127.742V287.419H117.097V298.064Z" fill="#D59F70"/>
<path d="M106.452 298.064H117.097V287.419H106.452V298.064Z" fill="#11100F"/>
<path d="M95.8064 298.064H106.452V287.419H95.8064V298.064Z" fill="#FDFCF9"/>
<path d="M85.1613 298.064H95.8064V287.419H85.1613V298.064Z" fill="#FDFCF9"/>
<path d="M74.5161 298.064H85.1613V287.419H74.5161V298.064Z" fill="#F5DCA8"/>
<path d="M63.871 298.064H74.5161V287.419H63.871V298.064Z" fill="#11100F"/>
<path d="M53.2258 298.064H63.871V287.419H53.2258V298.064Z" fill="#F5DCA8"/>
<path d="M42.5806 298.064H53.2257V287.419H42.5806V298.064Z" fill="#F5DCA8"/>
<path d="M31.9354 298.064H42.5806V287.419H31.9354V298.064Z" fill="#D59F70"/>
<path d="M21.2903 298.064H31.9354V287.419H21.2903V298.064Z" fill="#11100F"/>
<path d="M244.839 287.419H255.484V276.774H244.839V287.419Z" fill="#11100F"/>
<path d="M234.194 287.419H244.839V276.774H234.194V287.419Z" fill="#D59F70"/>
<path d="M223.548 287.419H234.194V276.774H223.548V287.419Z" fill="#11100F"/>
<path d="M212.903 287.419H223.548V276.774H212.903V287.419Z" fill="#11100F"/>
<path d="M202.258 287.419H212.903V276.774H202.258V287.419Z" fill="#11100F"/>
<path d="M191.613 287.419H202.258V276.774H191.613V287.419Z" fill="#11100F"/>
<path d="M180.968 287.419H191.613V276.774H180.968V287.419Z" fill="#F5DCA8"/>
<path d="M170.323 287.419H180.968V276.774H170.323V287.419Z" fill="#11100F"/>
<path d="M159.677 287.419H170.323V276.774H159.677V287.419Z" fill="#F5DCA8"/>
<path d="M149.032 287.419H159.677V276.774H149.032V287.419Z" fill="#FDFCF9"/>
<path d="M138.387 287.419H149.032V276.774H138.387V287.419Z" fill="#FDFCF9"/>
<path d="M127.742 287.419H138.387V276.774H127.742V287.419Z" fill="#11100F"/>
<path d="M117.097 287.419H127.742V276.774H117.097V287.419Z" fill="#D59F70"/>
<path d="M106.452 287.419H117.097V276.774H106.452V287.419Z" fill="#11100F"/>
<path d="M95.8064 287.419H106.452V276.774H95.8064V287.419Z" fill="#FDFCF9"/>
<path d="M85.1613 287.419H95.8064V276.774H85.1613V287.419Z" fill="#FDFCF9"/>
<path d="M74.5161 287.419H85.1613V276.774H74.5161V287.419Z" fill="#F5DCA8"/>
<path d="M63.871 287.419H74.5161V276.774H63.871V287.419Z" fill="#11100F"/>
<path d="M53.2258 287.419H63.871V276.774H53.2258V287.419Z" fill="#F5DCA8"/>
<path d="M42.5806 287.419H53.2257V276.774H42.5806V287.419Z" fill="#11100F"/>
<path d="M31.9354 287.419H42.5806V276.774H31.9354V287.419Z" fill="#11100F"/>
<path d="M21.2903 287.419H31.9354V276.774H21.2903V287.419Z" fill="#11100F"/>
<path d="M10.6451 287.419H21.2903V276.774H10.6451V287.419Z" fill="#11100F"/>
<path d="M244.839 276.774H255.484V266.129H244.839V276.774Z" fill="#11100F"/>
<path d="M234.194 276.774H244.839V266.129H234.194V276.774Z" fill="#F5DCA8"/>
<path d="M223.548 276.774H234.194V266.129H223.548V276.774Z" fill="#11100F"/>
<path d="M212.903 276.774H223.548V266.129H212.903V276.774Z" fill="#C78458"/>
<path d="M202.258 276.774H212.903V266.129H202.258V276.774Z" fill="#F5DCA8"/>
<path d="M191.613 276.774H202.258V266.129H191.613V276.774Z" fill="#F5DCA8"/>
<path d="M180.968 276.774H191.613V266.129H180.968V276.774Z" fill="#F5DCA8"/>
<path d="M170.323 276.774H180.968V266.129H170.323V276.774Z" fill="#11100F"/>
<path d="M159.677 276.774H170.323V266.129H159.677V276.774Z" fill="#F5DCA8"/>
<path d="M149.032 276.774H159.677V266.129H149.032V276.774Z" fill="#FDFCF9"/>
<path d="M138.387 276.774H149.032V266.129H138.387V276.774Z" fill="#FDFCF9"/>
<path d="M127.742 276.774H138.387V266.129H127.742V276.774Z" fill="#11100F"/>
<path d="M117.097 276.774H127.742V266.129H117.097V276.774Z" fill="#D59F70"/>
<path d="M106.452 276.774H117.097V266.129H106.452V276.774Z" fill="#11100F"/>
<path d="M95.8064 276.774H106.452V266.129H95.8064V276.774Z" fill="#FDFCF9"/>
<path d="M85.1613 276.774H95.8064V266.129H85.1613V276.774Z" fill="#FDFCF9"/>
<path d="M74.5161 276.774H85.1613V266.129H74.5161V276.774Z" fill="#F5DCA8"/>
<path d="M63.871 276.774H74.5161V266.129H63.871V276.774Z" fill="#11100F"/>
<path d="M53.2258 276.774H63.871V266.129H53.2258V276.774Z" fill="#F5DCA8"/>
<path d="M42.5806 276.774H53.2257V266.129H42.5806V276.774Z" fill="#F5DCA8"/>
<path d="M31.9354 276.774H42.5806V266.129H31.9354V276.774Z" fill="#F5DCA8"/>
<path d="M21.2903 276.774H31.9354V266.129H21.2903V276.774Z" fill="#F5DCA8"/>
<path d="M10.6451 276.774H21.2903V266.129H10.6451V276.774Z" fill="#11100F"/>
<path d="M244.839 266.129H255.484V255.484H244.839V266.129Z" fill="#11100F"/>
<path d="M234.194 266.129H244.839V255.484H234.194V266.129Z" fill="#F5DCA8"/>
<path d="M223.548 266.129H234.194V255.484H223.548V266.129Z" fill="#11100F"/>
<path d="M212.903 266.129H223.548V255.484H212.903V266.129Z" fill="#F5DCA8"/>
<path d="M202.258 266.129H212.903V255.484H202.258V266.129Z" fill="#F5DCA8"/>
<path d="M191.613 266.129H202.258V255.484H191.613V266.129Z" fill="#F5DCA8"/>
<path d="M180.968 266.129H191.613V255.484H180.968V266.129Z" fill="#F5DCA8"/>
<path d="M170.323 266.129H180.968V255.484H170.323V266.129Z" fill="#11100F"/>
<path d="M159.677 266.129H170.323V255.484H159.677V266.129Z" fill="#F5DCA8"/>
<path d="M149.032 266.129H159.677V255.484H149.032V266.129Z" fill="#FDFCF9"/>
<path d="M138.387 266.129H149.032V255.484H138.387V266.129Z" fill="#FDFCF9"/>
<path d="M127.742 266.129H138.387V255.484H127.742V266.129Z" fill="#D59F70"/>
<path d="M117.097 266.129H127.742V255.484H117.097V266.129Z" fill="#F5DCA8"/>
<path d="M106.452 266.129H117.097V255.484H106.452V266.129Z" fill="#D59F70"/>
<path d="M95.8064 266.129H106.452V255.484H95.8064V266.129Z" fill="#FDFCF9"/>
<path d="M85.1613 266.129H95.8064V255.484H85.1613V266.129Z" fill="#FDFCF9"/>
<path d="M74.5161 266.129H85.1613V255.484H74.5161V266.129Z" fill="#F5DCA8"/>
<path d="M63.871 266.129H74.5161V255.484H63.871V266.129Z" fill="#11100F"/>
<path d="M53.2258 266.129H63.871V255.484H53.2258V266.129Z" fill="#F5DCA8"/>
<path d="M42.5806 266.129H53.2257V255.484H42.5806V266.129Z" fill="#F5DCA8"/>
<path d="M31.9354 266.129H42.5806V255.484H31.9354V266.129Z" fill="#F5DCA8"/>
<path d="M21.2903 266.129H31.9354V255.484H21.2903V266.129Z" fill="#F5DCA8"/>
<path d="M10.6451 266.129H21.2903V255.484H10.6451V266.129Z" fill="#11100F"/>
<path d="M244.839 255.484H255.484V244.839H244.839V255.484Z" fill="#11100F"/>
<path d="M234.194 255.484H244.839V244.839H234.194V255.484Z" fill="#F5DCA8"/>
<path d="M223.548 255.484H234.194V244.839H223.548V255.484Z" fill="#11100F"/>
<path d="M212.903 255.484H223.548V244.839H212.903V255.484Z" fill="#F5DCA8"/>
<path d="M202.258 255.484H212.903V244.839H202.258V255.484Z" fill="#D59F70"/>
<path d="M191.613 255.484H202.258V244.839H191.613V255.484Z" fill="#D59F70"/>
<path d="M180.968 255.484H191.613V244.839H180.968V255.484Z" fill="#11100F"/>
<path d="M170.323 255.484H180.968V244.839H170.323V255.484Z" fill="#F5DCA8"/>
<path d="M159.677 255.484H170.323V244.839H159.677V255.484Z" fill="#F5DCA8"/>
<path d="M149.032 255.484H159.677V244.839H149.032V255.484Z" fill="#F5DCA8"/>
<path d="M138.387 255.484H149.032V244.839H138.387V255.484Z" fill="#F5DCA8"/>
<path d="M127.742 255.484H138.387V244.839H127.742V255.484Z" fill="#F5DCA8"/>
<path d="M117.097 255.484H127.742V244.839H117.097V255.484Z" fill="#D59F70"/>
<path d="M106.452 255.484H117.097V244.839H106.452V255.484Z" fill="#F5DCA8"/>
<path d="M95.8064 255.484H106.452V244.839H95.8064V255.484Z" fill="#F5DCA8"/>
<path d="M85.1613 255.484H95.8064V244.839H85.1613V255.484Z" fill="#F5DCA8"/>
<path d="M74.5161 255.484H85.1613V244.839H74.5161V255.484Z" fill="#F5DCA8"/>
<path d="M63.871 255.484H74.5161V244.839H63.871V255.484Z" fill="#F5DCA8"/>
<path d="M53.2258 255.484H63.871V244.839H53.2258V255.484Z" fill="#11100F"/>
<path d="M42.5806 255.484H53.2257V244.839H42.5806V255.484Z" fill="#D59F70"/>
<path d="M31.9354 255.484H42.5806V244.839H31.9354V255.484Z" fill="#D59F70"/>
<path d="M21.2903 255.484H31.9354V244.839H21.2903V255.484Z" fill="#F5DCA8"/>
<path d="M10.6451 255.484H21.2903V244.839H10.6451V255.484Z" fill="#11100F"/>
<path d="M244.839 244.839H255.484V234.194H244.839V244.839Z" fill="#11100F"/>
<path d="M234.194 244.839H244.839V234.194H234.194V244.839Z" fill="#F5DCA8"/>
<path d="M223.548 244.839H234.194V234.194H223.548V244.839Z" fill="#11100F"/>
<path d="M212.903 244.839H223.548V234.194H212.903V244.839Z" fill="#D59F70"/>
<path d="M202.258 244.839H212.903V234.194H202.258V244.839Z" fill="#D59F70"/>
<path d="M191.613 244.839H202.258V234.194H191.613V244.839Z" fill="#D59F70"/>
<path d="M180.968 244.839H191.613V234.194H180.968V244.839Z" fill="#11100F"/>
<path d="M170.323 244.839H180.968V234.194H170.323V244.839Z" fill="#F5DCA8"/>
<path d="M159.677 244.839H170.323V234.194H159.677V244.839Z" fill="#F5DCA8"/>
<path d="M149.032 244.839H159.677V234.194H149.032V244.839Z" fill="#F5DCA8"/>
<path d="M138.387 244.839H149.032V234.194H138.387V244.839Z" fill="#D59F70"/>
<path d="M127.742 244.839H138.387V234.194H127.742V244.839Z" fill="#D59F70"/>
<path d="M117.097 244.839H127.742V234.194H117.097V244.839Z" fill="#FDFCF9"/>
<path d="M106.452 244.839H117.097V234.194H106.452V244.839Z" fill="#D59F70"/>
<path d="M95.8064 244.839H106.452V234.194H95.8064V244.839Z" fill="#D59F70"/>
<path d="M85.1613 244.839H95.8064V234.194H85.1613V244.839Z" fill="#F5DCA8"/>
<path d="M74.5161 244.839H85.1613V234.194H74.5161V244.839Z" fill="#F5DCA8"/>
<path d="M63.871 244.839H74.5161V234.194H63.871V244.839Z" fill="#F5DCA8"/>
<path d="M53.2258 244.839H63.871V234.194H53.2258V244.839Z" fill="#11100F"/>
<path d="M42.5806 244.839H53.2257V234.194H42.5806V244.839Z" fill="#D59F70"/>
<path d="M31.9354 244.839H42.5806V234.194H31.9354V244.839Z" fill="#D59F70"/>
<path d="M21.2903 244.839H31.9354V234.194H21.2903V244.839Z" fill="#D59F70"/>
<path d="M10.6451 244.839H21.2903V234.194H10.6451V244.839Z" fill="#11100F"/>
<path d="M244.839 234.194H255.484V223.548H244.839V234.194Z" fill="#11100F"/>
<path d="M234.194 234.194H244.839V223.548H234.194V234.194Z" fill="#D59F70"/>
<path d="M223.548 234.194H234.194V223.548H223.548V234.194Z" fill="#F5DCA8"/>
<path d="M212.903 234.194H223.548V223.548H212.903V234.194Z" fill="#11100F"/>
<path d="M202.258 234.194H212.903V223.548H202.258V234.194Z" fill="#D59F70"/>
<path d="M191.613 234.194H202.258V223.548H191.613V234.194Z" fill="#11100F"/>
<path d="M180.968 234.194H191.613V223.548H180.968V234.194Z" fill="#F5DCA8"/>
<path d="M170.323 234.194H180.968V223.548H170.323V234.194Z" fill="#F5DCA8"/>
<path d="M159.677 234.194H170.323V223.548H159.677V234.194Z" fill="#F5DCA8"/>
<path d="M149.032 234.194H159.677V223.548H149.032V234.194Z" fill="#D59F70"/>
<path d="M138.387 234.194H149.032V223.548H138.387V234.194Z" fill="#FDFCF9"/>
<path d="M127.742 234.194H138.387V223.548H127.742V234.194Z" fill="#FDFCF9"/>
<path d="M117.097 234.194H127.742V223.548H117.097V234.194Z" fill="#FDFCF9"/>
<path d="M106.452 234.194H117.097V223.548H106.452V234.194Z" fill="#FDFCF9"/>
<path d="M95.8064 234.194H106.452V223.548H95.8064V234.194Z" fill="#FDFCF9"/>
<path d="M85.1613 234.194H95.8064V223.548H85.1613V234.194Z" fill="#D59F70"/>
<path d="M74.5161 234.194H85.1613V223.548H74.5161V234.194Z" fill="#F5DCA8"/>
<path d="M63.871 234.194H74.5161V223.548H63.871V234.194Z" fill="#F5DCA8"/>
<path d="M53.2258 234.194H63.871V223.548H53.2258V234.194Z" fill="#F5DCA8"/>
<path d="M42.5806 234.194H53.2257V223.548H42.5806V234.194Z" fill="#11100F"/>
<path d="M31.9354 234.194H42.5806V223.548H31.9354V234.194Z" fill="#D59F70"/>
<path d="M21.2903 234.194H31.9354V223.548H21.2903V234.194Z" fill="#11100F"/>
<path d="M234.194 223.548H244.839V212.903H234.194V223.548Z" fill="#11100F"/>
<path d="M223.548 223.548H234.194V212.903H223.548V223.548Z" fill="#F5DCA8"/>
<path d="M212.903 223.548H223.548V212.903H212.903V223.548Z" fill="#11100F"/>
<path d="M202.258 223.548H212.903V212.903H202.258V223.548Z" fill="#11100F"/>
<path d="M191.613 223.548H202.258V212.903H191.613V223.548Z" fill="#F5DCA8"/>
<path d="M180.968 223.548H191.613V212.903H180.968V223.548Z" fill="#F5DCA8"/>
<path d="M170.323 223.548H180.968V212.903H170.323V223.548Z" fill="#F5DCA8"/>
<path d="M159.677 223.548H170.323V212.903H159.677V223.548Z" fill="#D59F70"/>
<path d="M149.032 223.548H159.677V212.903H149.032V223.548Z" fill="#FDFCF9"/>
<path d="M138.387 223.548H149.032V212.903H138.387V223.548Z" fill="#FDFCF9"/>
<path d="M127.742 223.548H138.387V212.903H127.742V223.548Z" fill="#FDFCF9"/>
<path d="M117.097 223.548H127.742V212.903H117.097V223.548Z" fill="#FDFCF9"/>
<path d="M106.452 223.548H117.097V212.903H106.452V223.548Z" fill="#FDFCF9"/>
<path d="M95.8064 223.548H106.452V212.903H95.8064V223.548Z" fill="#FDFCF9"/>
<path d="M85.1613 223.548H95.8064V212.903H85.1613V223.548Z" fill="#FDFCF9"/>
<path d="M74.5161 223.548H85.1613V212.903H74.5161V223.548Z" fill="#D59F70"/>
<path d="M63.871 223.548H74.5161V212.903H63.871V223.548Z" fill="#F5DCA8"/>
<path d="M53.2258 223.548H63.871V212.903H53.2258V223.548Z" fill="#F5DCA8"/>
<path d="M42.5806 223.548H53.2257V212.903H42.5806V223.548Z" fill="#F5DCA8"/>
<path d="M31.9354 223.548H42.5806V212.903H31.9354V223.548Z" fill="#11100F"/>
<path d="M21.2903 223.548H31.9354V212.903H21.2903V223.548Z" fill="#11100F"/>
<path d="M234.194 212.903H244.839V202.258H234.194V212.903Z" fill="#11100F"/>
<path d="M223.548 212.903H234.194V202.258H223.548V212.903Z" fill="#F5DCA8"/>
<path d="M212.903 212.903H223.548V202.258H212.903V212.903Z" fill="#11100F"/>
<path d="M202.258 212.903H212.903V202.258H202.258V212.903Z" fill="#F5DCA8"/>
<path d="M191.613 212.903H202.258V202.258H191.613V212.903Z" fill="#D59F70"/>
<path d="M180.968 212.903H191.613V202.258H180.968V212.903Z" fill="#D59F70"/>
<path d="M170.323 212.903H180.968V202.258H170.323V212.903Z" fill="#D59F70"/>
<path d="M159.677 212.903H170.323V202.258H159.677V212.903Z" fill="#FDFCF9"/>
<path d="M149.032 212.903H159.677V202.258H149.032V212.903Z" fill="#FDFCF9"/>
<path d="M138.387 212.903H149.032V202.258H138.387V212.903Z" fill="#FDFCF9"/>
<path d="M127.742 212.903H138.387V202.258H127.742V212.903Z" fill="#FDFCF9"/>
<path d="M117.097 212.903H127.742V202.258H117.097V212.903Z" fill="#FDFCF9"/>
<path d="M106.452 212.903H117.097V202.258H106.452V212.903Z" fill="#FDFCF9"/>
<path d="M95.8064 212.903H106.452V202.258H95.8064V212.903Z" fill="#FDFCF9"/>
<path d="M85.1613 212.903H95.8064V202.258H85.1613V212.903Z" fill="#FDFCF9"/>
<path d="M74.5161 212.903H85.1613V202.258H74.5161V212.903Z" fill="#FDFCF9"/>
<path d="M63.871 212.903H74.5161V202.258H63.871V212.903Z" fill="#D59F70"/>
<path d="M53.2258 212.903H63.871V202.258H53.2258V212.903Z" fill="#D59F70"/>
<path d="M42.5806 212.903H53.2257V202.258H42.5806V212.903Z" fill="#D59F70"/>
<path d="M31.9354 212.903H42.5806V202.258H31.9354V212.903Z" fill="#F5DCA8"/>
<path d="M21.2903 212.903H31.9354V202.258H21.2903V212.903Z" fill="#11100F"/>
<path d="M234.194 202.258H244.839V191.613H234.194V202.258Z" fill="#11100F"/>
<path d="M223.548 202.258H234.194V191.613H223.548V202.258Z" fill="#FDFCF9"/>
<path d="M212.903 202.258H223.548V191.613H212.903V202.258Z" fill="#11100F"/>
<path d="M202.258 202.258H212.903V191.613H202.258V202.258Z" fill="#D59F70"/>
<path d="M191.613 202.258H202.258V191.613H191.613V202.258Z" fill="#FDFCF9"/>
<path d="M180.968 202.258H191.613V191.613H180.968V202.258Z" fill="#FDFCF9"/>
<path d="M170.323 202.258H180.968V191.613H170.323V202.258Z" fill="#FDFCF9"/>
<path d="M159.677 202.258H170.323V191.613H159.677V202.258Z" fill="#FDFCF9"/>
<path d="M149.032 202.258H159.677V191.613H149.032V202.258Z" fill="#FDFCF9"/>
<path d="M138.387 202.258H149.032V191.613H138.387V202.258Z" fill="#FDFCF9"/>
<path d="M127.742 202.258H138.387V191.613H127.742V202.258Z" fill="#FDFCF9"/>
<path d="M117.097 202.258H127.742V191.613H117.097V202.258Z" fill="#FDFCF9"/>
<path d="M106.452 202.258H117.097V191.613H106.452V202.258Z" fill="#FDFCF9"/>
<path d="M95.8064 202.258H106.452V191.613H95.8064V202.258Z" fill="#FDFCF9"/>
<path d="M85.1613 202.258H95.8064V191.613H85.1613V202.258Z" fill="#FDFCF9"/>
<path d="M74.5161 202.258H85.1613V191.613H74.5161V202.258Z" fill="#FDFCF9"/>
<path d="M63.871 202.258H74.5161V191.613H63.871V202.258Z" fill="#FDFCF9"/>
<path d="M53.2258 202.258H63.871V191.613H53.2258V202.258Z" fill="#FDFCF9"/>
<path d="M42.5806 202.258H53.2257V191.613H42.5806V202.258Z" fill="#F5DCA8"/>
<path d="M31.9354 202.258H42.5806V191.613H31.9354V202.258Z" fill="#D59F70"/>
<path d="M21.2903 202.258H31.9354V191.613H21.2903V202.258Z" fill="#11100F"/>
<path d="M234.194 191.613H244.839V180.968H234.194V191.613Z" fill="#11100F"/>
<path d="M223.548 191.613H234.194V180.968H223.548V191.613Z" fill="#11100F"/>
<path d="M202.258 191.613H212.903V180.968H202.258V191.613Z" fill="#11100F"/>
<path d="M191.613 191.613H202.258V180.968H191.613V191.613Z" fill="#D59F70"/>
<path d="M180.968 191.613H191.613V180.968H180.968V191.613Z" fill="#FDFCF9"/>
<path d="M170.323 191.613H180.968V180.968H170.323V191.613Z" fill="#FDFCF9"/>
<path d="M159.677 191.613H170.323V180.968H159.677V191.613Z" fill="#FDFCF9"/>
<path d="M149.032 191.613H159.677V180.968H149.032V191.613Z" fill="#FDFCF9"/>
<path d="M138.387 191.613H149.032V180.968H138.387V191.613Z" fill="#FDFCF9"/>
<path d="M127.742 191.613H138.387V180.968H127.742V191.613Z" fill="#FDFCF9"/>
<path d="M117.097 191.613H127.742V180.968H117.097V191.613Z" fill="#FDFCF9"/>
<path d="M106.452 191.613H117.097V180.968H106.452V191.613Z" fill="#FDFCF9"/>
<path d="M95.8064 191.613H106.452V180.968H95.8064V191.613Z" fill="#FDFCF9"/>
<path d="M85.1613 191.613H95.8064V180.968H85.1613V191.613Z" fill="#FDFCF9"/>
<path d="M74.5161 191.613H85.1613V180.968H74.5161V191.613Z" fill="#FDFCF9"/>
<path d="M63.871 191.613H74.5161V180.968H63.871V191.613Z" fill="#FDFCF9"/>
<path d="M53.2258 191.613H63.871V180.968H53.2258V191.613Z" fill="#FDFCF9"/>
<path d="M42.5806 191.613H53.2257V180.968H42.5806V191.613Z" fill="#D59F70"/>
<path d="M31.9354 191.613H42.5806V180.968H31.9354V191.613Z" fill="#11100F"/>
<path d="M21.2903 191.613H31.9354V180.968H21.2903V191.613Z" fill="#11100F"/>
<path d="M202.258 180.968H212.903V170.323H202.258V180.968Z" fill="#11100F"/>
<path d="M191.613 180.968H202.258V170.323H191.613V180.968Z" fill="#11100F"/>
<path d="M180.968 180.968H191.613V170.323H180.968V180.968Z" fill="#11100F"/>
<path d="M170.323 180.968H180.968V170.323H170.323V180.968Z" fill="#11100F"/>
<path d="M159.677 180.968H170.323V170.323H159.677V180.968Z" fill="#D59F70"/>
<path d="M149.032 180.968H159.677V170.323H149.032V180.968Z" fill="#D59F70"/>
<path d="M138.387 180.968H149.032V170.323H138.387V180.968Z" fill="#D59F70"/>
<path d="M127.742 180.968H138.387V170.323H127.742V180.968Z" fill="#D59F70"/>
<path d="M117.097 180.968H127.742V170.323H117.097V180.968Z" fill="#D59F70"/>
<path d="M106.452 180.968H117.097V170.323H106.452V180.968Z" fill="#D59F70"/>
<path d="M95.8064 180.968H106.452V170.323H95.8064V180.968Z" fill="#D59F70"/>
<path d="M85.1613 180.968H95.8064V170.323H85.1613V180.968Z" fill="#D59F70"/>
<path d="M74.5161 180.968H85.1613V170.323H74.5161V180.968Z" fill="#D59F70"/>
<path d="M63.871 180.968H74.5161V170.323H63.871V180.968Z" fill="#11100F"/>
<path d="M53.2258 180.968H63.871V170.323H53.2258V180.968Z" fill="#11100F"/>
<path d="M42.5806 180.968H53.2257V170.323H42.5806V180.968Z" fill="#11100F"/>
<path d="M31.9354 180.968H42.5806V170.323H31.9354V180.968Z" fill="#11100F"/>
<path d="M212.903 170.323H223.548V159.677H212.903V170.323Z" fill="#11100F"/>
<path d="M202.258 170.323H212.903V159.677H202.258V170.323Z" fill="#11100F"/>
<path d="M191.613 170.323H202.258V159.677H191.613V170.323Z" fill="#D59F70"/>
<path d="M180.968 170.323H191.613V159.677H180.968V170.323Z" fill="#D59F70"/>
<path d="M170.323 170.323H180.968V159.677H170.323V170.323Z" fill="#D59F70"/>
<path d="M159.677 170.323H170.323V159.677H159.677V170.323Z" fill="#F5DCA8"/>
<path d="M149.032 170.323H159.677V159.677H149.032V170.323Z" fill="#F5DCA8"/>
<path d="M138.387 170.323H149.032V159.677H138.387V170.323Z" fill="#F5DCA8"/>
<path d="M127.742 170.323H138.387V159.677H127.742V170.323Z" fill="#F5DCA8"/>
<path d="M117.097 170.323H127.742V159.677H117.097V170.323Z" fill="#F5DCA8"/>
<path d="M106.452 170.323H117.097V159.677H106.452V170.323Z" fill="#F5DCA8"/>
<path d="M95.8064 170.323H106.452V159.677H95.8064V170.323Z" fill="#F5DCA8"/>
<path d="M85.1613 170.323H95.8064V159.677H85.1613V170.323Z" fill="#F5DCA8"/>
<path d="M74.5161 170.323H85.1613V159.677H74.5161V170.323Z" fill="#F5DCA8"/>
<path d="M63.871 170.323H74.5161V159.677H63.871V170.323Z" fill="#F5DCA8"/>
<path d="M53.2258 170.323H63.871V159.677H53.2258V170.323Z" fill="#D59F70"/>
<path d="M42.5806 170.323H53.2257V159.677H42.5806V170.323Z" fill="#D59F70"/>
<path d="M31.9354 170.323H42.5806V159.677H31.9354V170.323Z" fill="#11100F"/>
<path d="M21.2903 170.323H31.9354V159.677H21.2903V170.323Z" fill="#11100F"/>
<path d="M212.903 159.677H223.548V149.032H212.903V159.677Z" fill="#11100F"/>
<path d="M202.258 159.677H212.903V149.032H202.258V159.677Z" fill="#D59F70"/>
<path d="M191.613 159.677H202.258V149.032H191.613V159.677Z" fill="#D59F70"/>
<path d="M180.968 159.677H191.613V149.032H180.968V159.677Z" fill="#F5DCA8"/>
<path d="M170.323 159.677H180.968V149.032H170.323V159.677Z" fill="#F5DCA8"/>
<path d="M159.677 159.677H170.323V149.032H159.677V159.677Z" fill="#F5DCA8"/>
<path d="M149.032 159.677H159.677V149.032H149.032V159.677Z" fill="#F5DCA8"/>
<path d="M138.387 159.677H149.032V149.032H138.387V159.677Z" fill="#F5DCA8"/>
<path d="M127.742 159.677H138.387V149.032H127.742V159.677Z" fill="#F5DCA8"/>
<path d="M117.097 159.677H127.742V149.032H117.097V159.677Z" fill="#F5DCA8"/>
<path d="M106.452 159.677H117.097V149.032H106.452V159.677Z" fill="#F5DCA8"/>
<path d="M95.8064 159.677H106.452V149.032H95.8064V159.677Z" fill="#F5DCA8"/>
<path d="M85.1613 159.677H95.8064V149.032H85.1613V159.677Z" fill="#F5DCA8"/>
<path d="M74.5161 159.677H85.1613V149.032H74.5161V159.677Z" fill="#F5DCA8"/>
<path d="M63.871 159.677H74.5161V149.032H63.871V159.677Z" fill="#F5DCA8"/>
<path d="M53.2258 159.677H63.871V149.032H53.2258V159.677Z" fill="#F5DCA8"/>
<path d="M42.5806 159.677H53.2257V149.032H42.5806V159.677Z" fill="#F5DCA8"/>
<path d="M31.9354 159.677H42.5806V149.032H31.9354V159.677Z" fill="#D59F70"/>
<path d="M21.2903 159.677H31.9354V149.032H21.2903V159.677Z" fill="#11100F"/>
<path d="M223.548 149.032H234.194V138.387H223.548V149.032Z" fill="#11100F"/>
<path d="M212.903 149.032H223.548V138.387H212.903V149.032Z" fill="#D59F70"/>
<path d="M202.258 149.032H212.903V138.387H202.258V149.032Z" fill="#F5DCA8"/>
<path d="M191.613 149.032H202.258V138.387H191.613V149.032Z" fill="#F5DCA8"/>
<path d="M180.968 149.032H191.613V138.387H180.968V149.032Z" fill="#F5DCA8"/>
<path d="M170.323 149.032H180.968V138.387H170.323V149.032Z" fill="#F5DCA8"/>
<path d="M159.677 149.032H170.323V138.387H159.677V149.032Z" fill="#F5DCA8"/>
<path d="M149.032 149.032H159.677V138.387H149.032V149.032Z" fill="#11100F"/>
<path d="M138.387 149.032H149.032V138.387H138.387V149.032Z" fill="#11100F"/>
<path d="M127.742 149.032H138.387V138.387H127.742V149.032Z" fill="#11100F"/>
<path d="M117.097 149.032H127.742V138.387H117.097V149.032Z" fill="#11100F"/>
<path d="M106.452 149.032H117.097V138.387H106.452V149.032Z" fill="#11100F"/>
<path d="M95.8064 149.032H106.452V138.387H95.8064V149.032Z" fill="#11100F"/>
<path d="M85.1613 149.032H95.8064V138.387H85.1613V149.032Z" fill="#11100F"/>
<path d="M74.5161 149.032H85.1613V138.387H74.5161V149.032Z" fill="#F5DCA8"/>
<path d="M63.871 149.032H74.5161V138.387H63.871V149.032Z" fill="#F5DCA8"/>
<path d="M53.2258 149.032H63.871V138.387H53.2258V149.032Z" fill="#F5DCA8"/>
<path d="M42.5806 149.032H53.2257V138.387H42.5806V149.032Z" fill="#F5DCA8"/>
<path d="M31.9354 149.032H42.5806V138.387H31.9354V149.032Z" fill="#F5DCA8"/>
<path d="M21.2903 149.032H31.9354V138.387H21.2903V149.032Z" fill="#D59F70"/>
<path d="M10.6451 149.032H21.2903V138.387H10.6451V149.032Z" fill="#11100F"/>
<path d="M223.548 138.387H234.194V127.742H223.548V138.387Z" fill="#11100F"/>
<path d="M212.903 138.387H223.548V127.742H212.903V138.387Z" fill="#F5DCA8"/>
<path d="M202.258 138.387H212.903V127.742H202.258V138.387Z" fill="#F5DCA8"/>
<path d="M191.613 138.387H202.258V127.742H191.613V138.387Z" fill="#F5DCA8"/>
<path d="M180.968 138.387H191.613V127.742H180.968V138.387Z" fill="#F5DCA8"/>
<path d="M170.323 138.387H180.968V127.742H170.323V138.387Z" fill="#F3826D"/>
<path d="M159.677 138.387H170.323V127.742H159.677V138.387Z" fill="#11100F"/>
<path d="M149.032 138.387H159.677V127.742H149.032V138.387Z" fill="#FDFCF9"/>
<path d="M138.387 138.387H149.032V127.742H138.387V138.387Z" fill="#FDFCF9"/>
<path d="M127.742 138.387H138.387V127.742H127.742V138.387Z" fill="#FDFCF9"/>
<path d="M117.097 138.387H127.742V127.742H117.097V138.387Z" fill="#11100F"/>
<path d="M106.452 138.387H117.097V127.742H106.452V138.387Z" fill="#FDFCF9"/>
<path d="M95.8064 138.387H106.452V127.742H95.8064V138.387Z" fill="#FDFCF9"/>
<path d="M85.1613 138.387H95.8064V127.742H85.1613V138.387Z" fill="#FDFCF9"/>
<path d="M74.5161 138.387H85.1613V127.742H74.5161V138.387Z" fill="#11100F"/>
<path d="M63.871 138.387H74.5161V127.742H63.871V138.387Z" fill="#F3826D"/>
<path d="M53.2258 138.387H63.871V127.742H53.2258V138.387Z" fill="#F5DCA8"/>
<path d="M42.5806 138.387H53.2257V127.742H42.5806V138.387Z" fill="#F5DCA8"/>
<path d="M31.9354 138.387H42.5806V127.742H31.9354V138.387Z" fill="#F5DCA8"/>
<path d="M21.2903 138.387H31.9354V127.742H21.2903V138.387Z" fill="#F5DCA8"/>
<path d="M10.6451 138.387H21.2903V127.742H10.6451V138.387Z" fill="#11100F"/>
<path d="M223.548 127.742H234.194V117.097H223.548V127.742Z" fill="#11100F"/>
<path d="M212.903 127.742H223.548V117.097H212.903V127.742Z" fill="#F5DCA8"/>
<path d="M202.258 127.742H212.903V117.097H202.258V127.742Z" fill="#F5DCA8"/>
<path d="M191.613 127.742H202.258V117.097H191.613V127.742Z" fill="#F5DCA8"/>
<path d="M180.968 127.742H191.613V117.097H180.968V127.742Z" fill="#F5DCA8"/>
<path d="M170.323 127.742H180.968V117.097H170.323V127.742Z" fill="#FDFCF9"/>
<path d="M159.677 127.742H170.323V117.097H159.677V127.742Z" fill="#FDFCF9"/>
<path d="M149.032 127.742H159.677V117.097H149.032V127.742Z" fill="#FDFCF9"/>
<path d="M138.387 127.742H149.032V117.097H138.387V127.742Z" fill="#FDFCF9"/>
<path d="M127.742 127.742H138.387V117.097H127.742V127.742Z" fill="#F25586"/>
<path d="M117.097 127.742H127.742V117.097H117.097V127.742Z" fill="#11100F"/>
<path d="M106.452 127.742H117.097V117.097H106.452V127.742Z" fill="#F25586"/>
<path d="M95.8064 127.742H106.452V117.097H95.8064V127.742Z" fill="#FDFCF9"/>
<path d="M85.1613 127.742H95.8064V117.097H85.1613V127.742Z" fill="#FDFCF9"/>
<path d="M74.5161 127.742H85.1613V117.097H74.5161V127.742Z" fill="#FDFCF9"/>
<path d="M63.871 127.742H74.5161V117.097H63.871V127.742Z" fill="#FDFCF9"/>
<path d="M53.2258 127.742H63.871V117.097H53.2258V127.742Z" fill="#F5DCA8"/>
<path d="M42.5806 127.742H53.2257V117.097H42.5806V127.742Z" fill="#F5DCA8"/>
<path d="M31.9354 127.742H42.5806V117.097H31.9354V127.742Z" fill="#F5DCA8"/>
<path d="M21.2903 127.742H31.9354V117.097H21.2903V127.742Z" fill="#F5DCA8"/>
<path d="M10.6451 127.742H21.2903V117.097H10.6451V127.742Z" fill="#11100F"/>
<path d="M223.548 117.097H234.194V106.452H223.548V117.097Z" fill="#11100F"/>
<path d="M212.903 117.097H223.548V106.452H212.903V117.097Z" fill="#F5DCA8"/>
<path d="M202.258 117.097H212.903V106.452H202.258V117.097Z" fill="#F5DCA8"/>
<path d="M191.613 117.097H202.258V106.452H191.613V117.097Z" fill="#F5DCA8"/>
<path d="M180.968 117.097H191.613V106.452H180.968V117.097Z" fill="#D59F70"/>
<path d="M170.323 117.097H180.968V106.452H170.323V117.097Z" fill="#F5DCA8"/>
<path d="M159.677 117.097H170.323V106.452H159.677V117.097Z" fill="#F5DCA8"/>
<path d="M149.032 117.097H159.677V106.452H149.032V117.097Z" fill="#F5DCA8"/>
<path d="M138.387 117.097H149.032V106.452H138.387V117.097Z" fill="#F5DCA8"/>
<path d="M127.742 117.097H138.387V106.452H127.742V117.097Z" fill="#11100F"/>
<path d="M117.097 117.097H127.742V106.452H117.097V117.097Z" fill="#FDFCF9"/>
<path d="M106.452 117.097H117.097V106.452H106.452V117.097Z" fill="#11100F"/>
<path d="M95.8064 117.097H106.452V106.452H95.8064V117.097Z" fill="#F5DCA8"/>
<path d="M85.1613 117.097H95.8064V106.452H85.1613V117.097Z" fill="#F5DCA8"/>
<path d="M74.5161 117.097H85.1613V106.452H74.5161V117.097Z" fill="#F5DCA8"/>
<path d="M63.871 117.097H74.5161V106.452H63.871V117.097Z" fill="#F5DCA8"/>
<path d="M53.2258 117.097H63.871V106.452H53.2258V117.097Z" fill="#D59F70"/>
<path d="M42.5806 117.097H53.2257V106.452H42.5806V117.097Z" fill="#F5DCA8"/>
<path d="M31.9354 117.097H42.5806V106.452H31.9354V117.097Z" fill="#F5DCA8"/>
<path d="M21.2903 117.097H31.9354V106.452H21.2903V117.097Z" fill="#F5DCA8"/>
<path d="M10.6451 117.097H21.2903V106.452H10.6451V117.097Z" fill="#11100F"/>
<path d="M223.548 106.452H234.194V95.8065H223.548V106.452Z" fill="#D59F70"/>
<path d="M223.548 95.8064H234.194V85.1612H223.548V95.8064Z" fill="#11100F"/>
<path d="M234.194 106.452H244.839V95.8065H234.194V106.452Z" fill="#11100F"/>
<path d="M212.903 106.452H223.548V95.8065H212.903V106.452Z" fill="#F5DCA8"/>
<path d="M202.258 106.452H212.903V95.8065H202.258V106.452Z" fill="#F5DCA8"/>
<path d="M191.613 106.452H202.258V95.8065H191.613V106.452Z" fill="#F5DCA8"/>
<path d="M180.968 106.452H191.613V95.8065H180.968V106.452Z" fill="#F5DCA8"/>
<path d="M170.323 106.452H180.968V95.8065H170.323V106.452Z" fill="#11100F"/>
<path d="M159.677 106.452H170.323V95.8065H159.677V106.452Z" fill="#11100F"/>
<path d="M149.032 106.452H159.677V95.8065H149.032V106.452Z" fill="#11100F"/>
<path d="M138.387 106.452H149.032V95.8065H138.387V106.452Z" fill="#F5DCA8"/>
<path d="M127.742 106.452H138.387V95.8065H127.742V106.452Z" fill="#F5DCA8"/>
<path d="M117.097 106.452H127.742V95.8065H117.097V106.452Z" fill="#FDFCF9"/>
<path d="M106.452 106.452H117.097V95.8065H106.452V106.452Z" fill="#F5DCA8"/>
<path d="M95.8064 106.452H106.452V95.8065H95.8064V106.452Z" fill="#F5DCA8"/>
<path d="M85.1613 106.452H95.8064V95.8065H85.1613V106.452Z" fill="#11100F"/>
<path d="M74.5161 106.452H85.1613V95.8065H74.5161V106.452Z" fill="#11100F"/>
<path d="M63.871 106.452H74.5161V95.8065H63.871V106.452Z" fill="#11100F"/>
<path d="M53.2258 106.452H63.871V95.8065H53.2258V106.452Z" fill="#F5DCA8"/>
<path d="M42.5806 106.452H53.2257V95.8065H42.5806V106.452Z" fill="#F5DCA8"/>
<path d="M31.9354 106.452H42.5806V95.8065H31.9354V106.452Z" fill="#F5DCA8"/>
<path d="M21.2903 106.452H31.9354V95.8065H21.2903V106.452Z" fill="#F5DCA8"/>
<path d="M10.6451 106.452H21.2903V95.8065H10.6451V106.452Z" fill="#D59F70"/>
<path d="M0 106.452H10.6452V95.8065H0V106.452Z" fill="#11100F"/>
<path d="M212.903 95.8064H223.548V85.1612H212.903V95.8064Z" fill="#11100F"/>
<path d="M202.258 95.8064H212.903V85.1612H202.258V95.8064Z" fill="#F5DCA8"/>
<path d="M191.613 95.8064H202.258V85.1612H191.613V95.8064Z" fill="#F5DCA8"/>
<path d="M180.968 95.8064H191.613V85.1612H180.968V95.8064Z" fill="#F5DCA8"/>
<path d="M170.323 95.8064H180.968V85.1612H170.323V95.8064Z" fill="#F5DCA8"/>
<path d="M159.677 95.8064H170.323V85.1612H159.677V95.8064Z" fill="#F5DCA8"/>
<path d="M149.032 95.8064H159.677V85.1612H149.032V95.8064Z" fill="#F5DCA8"/>
<path d="M138.387 95.8064H149.032V85.1612H138.387V95.8064Z" fill="#F5DCA8"/>
<path d="M127.742 95.8064H138.387V85.1612H127.742V95.8064Z" fill="#D59F70"/>
<path d="M117.097 95.8064H127.742V85.1612H117.097V95.8064Z" fill="#D59F70"/>
<path d="M106.452 95.8064H117.097V85.1612H106.452V95.8064Z" fill="#D59F70"/>
<path d="M95.8064 95.8064H106.452V85.1612H95.8064V95.8064Z" fill="#F5DCA8"/>
<path d="M85.1613 95.8064H95.8064V85.1612H85.1613V95.8064Z" fill="#F5DCA8"/>
<path d="M74.5161 95.8064H85.1613V85.1612H74.5161V95.8064Z" fill="#F5DCA8"/>
<path d="M63.871 95.8064H74.5161V85.1612H63.871V95.8064Z" fill="#F5DCA8"/>
<path d="M53.2258 95.8064H63.871V85.1612H53.2258V95.8064Z" fill="#F5DCA8"/>
<path d="M42.5806 95.8064H53.2257V85.1612H42.5806V95.8064Z" fill="#F5DCA8"/>
<path d="M31.9354 95.8064H42.5806V85.1612H31.9354V95.8064Z" fill="#F5DCA8"/>
<path d="M21.2903 95.8064H31.9354V85.1612H21.2903V95.8064Z" fill="#11100F"/>
<path d="M10.6451 95.8064H21.2903V85.1612H10.6451V95.8064Z" fill="#11100F"/>
<path d="M212.903 85.1611H223.548V74.516H212.903V85.1611Z" fill="#11100F"/>
<path d="M202.258 85.1611H212.903V74.516H202.258V85.1611Z" fill="#F5DCA8"/>
<path d="M191.613 85.1611H202.258V74.516H191.613V85.1611Z" fill="#F5DCA8"/>
<path d="M180.968 85.1611H191.613V74.516H180.968V85.1611Z" fill="#F5DCA8"/>
<path d="M170.323 85.1611H180.968V74.516H170.323V85.1611Z" fill="#F5DCA8"/>
<path d="M159.677 85.1611H170.323V74.516H159.677V85.1611Z" fill="#F5DCA8"/>
<path d="M149.032 85.1611H159.677V74.516H149.032V85.1611Z" fill="#F5DCA8"/>
<path d="M138.387 85.1611H149.032V74.516H138.387V85.1611Z" fill="#D59F70"/>
<path d="M127.742 85.1611H138.387V74.516H127.742V85.1611Z" fill="#F5DCA8"/>
<path d="M117.097 85.1611H127.742V74.516H117.097V85.1611Z" fill="#FDFCF9"/>
<path d="M106.452 85.1611H117.097V74.516H106.452V85.1611Z" fill="#F5DCA8"/>
<path d="M95.8064 85.1611H106.452V74.516H95.8064V85.1611Z" fill="#D59F70"/>
<path d="M85.1613 85.1611H95.8064V74.516H85.1613V85.1611Z" fill="#F5DCA8"/>
<path d="M74.5161 85.1611H85.1613V74.516H74.5161V85.1611Z" fill="#F5DCA8"/>
<path d="M63.871 85.1611H74.5161V74.516H63.871V85.1611Z" fill="#F5DCA8"/>
<path d="M53.2258 85.1611H63.871V74.516H53.2258V85.1611Z" fill="#F5DCA8"/>
<path d="M42.5806 85.1611H53.2257V74.516H42.5806V85.1611Z" fill="#F5DCA8"/>
<path d="M31.9354 85.1611H42.5806V74.516H31.9354V85.1611Z" fill="#F5DCA8"/>
<path d="M21.2903 85.1611H31.9354V74.516H21.2903V85.1611Z" fill="#11100F"/>
<path d="M212.903 74.5161H223.548V63.871H212.903V74.5161Z" fill="#11100F"/>
<path d="M202.258 74.5161H212.903V63.871H202.258V74.5161Z" fill="#D59F70"/>
<path d="M191.613 74.5161H202.258V63.871H191.613V74.5161Z" fill="#D59F70"/>
<path d="M180.968 74.5161H191.613V63.871H180.968V74.5161Z" fill="#D59F70"/>
<path d="M170.323 74.5161H180.968V63.871H170.323V74.5161Z" fill="#F5DCA8"/>
<path d="M159.677 74.5161H170.323V63.871H159.677V74.5161Z" fill="#F5DCA8"/>
<path d="M149.032 74.5161H159.677V63.871H149.032V74.5161Z" fill="#F5DCA8"/>
<path d="M138.387 74.5161H149.032V63.871H138.387V74.5161Z" fill="#F5DCA8"/>
<path d="M127.742 74.5161H138.387V63.871H127.742V74.5161Z" fill="#D59F70"/>
<path d="M117.097 74.5161H127.742V63.871H117.097V74.5161Z" fill="#FDFCF9"/>
<path d="M106.452 74.5161H117.097V63.871H106.452V74.5161Z" fill="#D59F70"/>
<path d="M95.8064 74.5161H106.452V63.871H95.8064V74.5161Z" fill="#F5DCA8"/>
<path d="M85.1613 74.5161H95.8064V63.871H85.1613V74.5161Z" fill="#F5DCA8"/>
<path d="M74.5161 74.5161H85.1613V63.871H74.5161V74.5161Z" fill="#F5DCA8"/>
<path d="M63.871 74.5161H74.5161V63.871H63.871V74.5161Z" fill="#F5DCA8"/>
<path d="M53.2258 74.5161H63.871V63.871H53.2258V74.5161Z" fill="#D59F70"/>
<path d="M42.5806 74.5161H53.2257V63.871H42.5806V74.5161Z" fill="#D59F70"/>
<path d="M31.9354 74.5161H42.5806V63.871H31.9354V74.5161Z" fill="#D59F70"/>
<path d="M21.2903 74.5161H31.9354V63.871H21.2903V74.5161Z" fill="#11100F"/>
<path d="M212.903 63.8708H223.548V53.2257H212.903V63.8708Z" fill="#11100F"/>
<path d="M202.258 63.8708H212.903V53.2257H202.258V63.8708Z" fill="#F5DCA8"/>
<path d="M191.613 63.8708H202.258V53.2257H191.613V63.8708Z" fill="#11100F"/>
<path d="M180.968 63.8708H191.613V53.2257H180.968V63.8708Z" fill="#11100F"/>
<path d="M170.323 63.8708H180.968V53.2257H170.323V63.8708Z" fill="#D59F70"/>
<path d="M159.677 63.8708H170.323V53.2257H159.677V63.8708Z" fill="#F5DCA8"/>
<path d="M149.032 63.8708H159.677V53.2257H149.032V63.8708Z" fill="#F5DCA8"/>
<path d="M138.387 63.8708H149.032V53.2257H138.387V63.8708Z" fill="#F5DCA8"/>
<path d="M127.742 63.8708H138.387V53.2257H127.742V63.8708Z" fill="#D59F70"/>
<path d="M117.097 63.8708H127.742V53.2257H117.097V63.8708Z" fill="#FDFCF9"/>
<path d="M106.452 63.8708H117.097V53.2257H106.452V63.8708Z" fill="#D59F70"/>
<path d="M95.8064 63.8708H106.452V53.2257H95.8064V63.8708Z" fill="#F5DCA8"/>
<path d="M85.1613 63.8708H95.8064V53.2257H85.1613V63.8708Z" fill="#F5DCA8"/>
<path d="M74.5161 63.8708H85.1613V53.2257H74.5161V63.8708Z" fill="#F5DCA8"/>
<path d="M63.871 63.8708H74.5161V53.2257H63.871V63.8708Z" fill="#D59F70"/>
<path d="M53.2258 63.8708H63.871V53.2257H53.2258V63.8708Z" fill="#11100F"/>
<path d="M42.5806 63.8708H53.2257V53.2257H42.5806V63.8708Z" fill="#11100F"/>
<path d="M31.9354 63.8708H42.5806V53.2257H31.9354V63.8708Z" fill="#F5DCA8"/>
<path d="M21.2903 63.8708H31.9354V53.2257H21.2903V63.8708Z" fill="#11100F"/>
<path d="M212.903 53.2258H223.548V42.5807H212.903V53.2258Z" fill="#11100F"/>
<path d="M202.258 53.2258H212.903V42.5807H202.258V53.2258Z" fill="#F5DCA8"/>
<path d="M191.613 53.2258H202.258V42.5807H191.613V53.2258Z" fill="#F25586"/>
<path d="M180.968 53.2258H191.613V42.5807H180.968V53.2258Z" fill="#F25586"/>
<path d="M170.323 53.2258H180.968V42.5807H170.323V53.2258Z" fill="#11100F"/>
<path d="M159.677 53.2258H170.323V42.5807H159.677V53.2258Z" fill="#F5DCA8"/>
<path d="M149.032 53.2258H159.677V42.5807H149.032V53.2258Z" fill="#F5DCA8"/>
<path d="M138.387 53.2258H149.032V42.5807H138.387V53.2258Z" fill="#F5DCA8"/>
<path d="M127.742 53.2258H138.387V42.5807H127.742V53.2258Z" fill="#D59F70"/>
<path d="M117.097 53.2258H127.742V42.5807H117.097V53.2258Z" fill="#FDFCF9"/>
<path d="M106.452 53.2258H117.097V42.5807H106.452V53.2258Z" fill="#D59F70"/>
<path d="M95.8064 53.2258H106.452V42.5807H95.8064V53.2258Z" fill="#F5DCA8"/>
<path d="M85.1613 53.2258H95.8064V42.5807H85.1613V53.2258Z" fill="#F5DCA8"/>
<path d="M74.5161 53.2258H85.1613V42.5807H74.5161V53.2258Z" fill="#F5DCA8"/>
<path d="M63.871 53.2258H74.5161V42.5807H63.871V53.2258Z" fill="#11100F"/>
<path d="M53.2258 53.2258H63.871V42.5807H53.2258V53.2258Z" fill="#F25586"/>
<path d="M42.5806 53.2258H53.2257V42.5807H42.5806V53.2258Z" fill="#F25586"/>
<path d="M31.9354 53.2258H42.5806V42.5807H31.9354V53.2258Z" fill="#F5DCA8"/>
<path d="M21.2903 53.2258H31.9354V42.5807H21.2903V53.2258Z" fill="#11100F"/>
<path d="M212.903 42.5806H223.548V31.9354H212.903V42.5806Z" fill="#11100F"/>
<path d="M202.258 42.5806H212.903V31.9354H202.258V42.5806Z" fill="#F5DCA8"/>
<path d="M191.613 42.5806H202.258V31.9354H191.613V42.5806Z" fill="#F25586"/>
<path d="M180.968 42.5806H191.613V31.9354H180.968V42.5806Z" fill="#D59F70"/>
<path d="M170.323 42.5806H180.968V31.9354H170.323V42.5806Z" fill="#FDFCF9"/>
<path d="M159.677 42.5806H170.323V31.9354H159.677V42.5806Z" fill="#F5DCA8"/>
<path d="M149.032 42.5806H159.677V31.9354H149.032V42.5806Z" fill="#11100F"/>
<path d="M138.387 42.5806H149.032V31.9354H138.387V42.5806Z" fill="#11100F"/>
<path d="M127.742 42.5806H138.387V31.9354H127.742V42.5806Z" fill="#11100F"/>
<path d="M117.097 42.5806H127.742V31.9354H117.097V42.5806Z" fill="#11100F"/>
<path d="M106.452 42.5806H117.097V31.9354H106.452V42.5806Z" fill="#11100F"/>
<path d="M95.8064 42.5806H106.452V31.9354H95.8064V42.5806Z" fill="#11100F"/>
<path d="M85.1613 42.5806H95.8064V31.9354H85.1613V42.5806Z" fill="#11100F"/>
<path d="M74.5161 42.5806H85.1613V31.9354H74.5161V42.5806Z" fill="#F5DCA8"/>
<path d="M63.871 42.5806H74.5161V31.9354H63.871V42.5806Z" fill="#FDFCF9"/>
<path d="M53.2258 42.5806H63.871V31.9354H53.2258V42.5806Z" fill="#D59F70"/>
<path d="M42.5806 42.5806H53.2257V31.9354H42.5806V42.5806Z" fill="#F25586"/>
<path d="M31.9354 42.5806H42.5806V31.9354H31.9354V42.5806Z" fill="#F5DCA8"/>
<path d="M21.2903 42.5806H31.9354V31.9354H21.2903V42.5806Z" fill="#11100F"/>
<path d="M212.903 31.9355H223.548V21.2904H212.903V31.9355Z" fill="#11100F"/>
<path d="M202.258 31.9355H212.903V21.2904H202.258V31.9355Z" fill="#F5DCA8"/>
<path d="M191.613 31.9355H202.258V21.2904H191.613V31.9355Z" fill="#FDFCF9"/>
<path d="M180.968 31.9355H191.613V21.2904H180.968V31.9355Z" fill="#FDFCF9"/>
<path d="M170.323 31.9355H180.968V21.2904H170.323V31.9355Z" fill="#11100F"/>
<path d="M159.677 31.9355H170.323V21.2904H159.677V31.9355Z" fill="#11100F"/>
<path d="M74.5161 31.9355H85.1613V21.2904H74.5161V31.9355Z" fill="#11100F"/>
<path d="M63.871 31.9355H74.5161V21.2904H63.871V31.9355Z" fill="#11100F"/>
<path d="M53.2258 31.9355H63.871V21.2904H53.2258V31.9355Z" fill="#FDFCF9"/>
<path d="M42.5806 31.9355H53.2257V21.2904H42.5806V31.9355Z" fill="#FDFCF9"/>
<path d="M31.9354 31.9355H42.5806V21.2904H31.9354V31.9355Z" fill="#F5DCA8"/>
<path d="M21.2903 31.9355H31.9354V21.2904H21.2903V31.9355Z" fill="#11100F"/>
<path d="M212.903 21.2903H223.548V10.6451H212.903V21.2903Z" fill="#11100F"/>
<path d="M202.258 21.2903H212.903V10.6451H202.258V21.2903Z" fill="#FDFCF9"/>
<path d="M191.613 21.2903H202.258V10.6451H191.613V21.2903Z" fill="#11100F"/>
<path d="M180.968 21.2903H191.613V10.6451H180.968V21.2903Z" fill="#11100F"/>
<path d="M53.2258 21.2903H63.871V10.6451H53.2258V21.2903Z" fill="#11100F"/>
<path d="M42.5806 21.2903H53.2257V10.6451H42.5806V21.2903Z" fill="#11100F"/>
<path d="M31.9354 21.2903H42.5806V10.6451H31.9354V21.2903Z" fill="#FDFCF9"/>
<path d="M21.2903 21.2903H31.9354V10.6451H21.2903V21.2903Z" fill="#11100F"/>
<path d="M202.258 10.6453H212.903V0.000102475H202.258V10.6453Z" fill="#11100F"/>
<path d="M191.613 10.6453H202.258V0.000102475H191.613V10.6453Z" fill="#11100F"/>
<path d="M42.5806 10.6453H53.2257V0.000102475H42.5806V10.6453Z" fill="#11100F"/>
<path d="M31.9354 10.6453H42.5806V0.000102475H31.9354V10.6453Z" fill="#11100F"/>
</svg>
