<svg width="413" height="330" viewBox="0 0 413 330" fill="none" xmlns="http://www.w3.org/2000/svg">
<path d="M282.858 35.3556H294.643V47.1409H282.858V35.3556Z" fill="#C9FF83"/>
<path d="M294.643 35.3556H306.431V47.1409H294.643V35.3556Z" fill="#C9FF83"/>
<path d="M318.216 35.3556H330.002V47.1409H318.216V35.3556Z" fill="#C9FF83"/>
<path d="M306.431 35.3556H318.216V47.1409H306.431V35.3556Z" fill="#C9FF83"/>
<path d="M365.36 47.1437H377.145V58.929H365.36V47.1437Z" fill="#CC212A"/>
<path d="M353.572 58.9289H365.36V70.7141H353.572V58.9289Z" fill="#CC212A"/>
<path d="M365.36 58.9289H377.145V70.7141H365.36V58.9289Z" fill="#CC212A"/>
<path d="M377.145 58.9289H388.93V70.7141H377.145V58.9289Z" fill="#CC212A"/>
<path d="M223.929 70.714H235.714V82.502H223.929V70.714Z" fill="black"/>
<path d="M223.929 82.4992H235.714V94.2844H223.929V82.4992Z" fill="black"/>
<path d="M271.073 70.714H282.858V82.502H271.073V70.714Z" fill="#B9FF5E"/>
<path d="M271.073 82.4992H282.858V94.2844H271.073V82.4992Z" fill="#B9FF5E"/>
<path d="M282.858 47.1437H294.643V58.929H282.858V47.1437Z" fill="#B9FF5E"/>
<path d="M294.643 47.1437H306.431V58.929H294.643V47.1437Z" fill="#B9FF5E"/>
<path d="M318.216 47.1437H330.002V58.929H318.216V47.1437Z" fill="#B9FF5E"/>
<path d="M330.002 47.1437H341.787V58.929H330.002V47.1437Z" fill="#B9FF5E"/>
<path d="M306.431 47.141H318.216V58.929H306.431V47.141Z" fill="#B9FF5E"/>
<path d="M341.787 47.1437H353.572V58.929H341.787V47.1437Z" fill="#B9FF5E"/>
<path d="M353.572 47.1437H365.36V58.929H353.572V47.1437Z" fill="#B9FF5E"/>
<path d="M282.858 58.9289H294.643V70.7141H282.858V58.9289Z" fill="#B9FF5E"/>
<path d="M294.643 58.9289H306.431V70.7141H294.643V58.9289Z" fill="#B9FF5E"/>
<path d="M318.216 58.9289H330.002V70.7141H318.216V58.9289Z" fill="#B9FF5E"/>
<path d="M330.002 58.9289H341.787V70.7141H330.002V58.9289Z" fill="#B9FF5E"/>
<path d="M306.431 58.9262H318.216V70.7114H306.431V58.9262Z" fill="#B9FF5E"/>
<path d="M341.787 58.9289H353.572V70.7141H341.787V58.9289Z" fill="#B9FF5E"/>
<path d="M282.858 70.714H294.643V82.502H282.858V70.714Z" fill="#B9FF5E"/>
<path d="M294.643 70.714H306.431V82.502H294.643V70.714Z" fill="#B9FF5E"/>
<path d="M306.431 70.714H318.216V82.4993H306.431V70.714Z" fill="#B9FF5E"/>
<path d="M282.858 82.4992H294.643V94.2844H282.858V82.4992Z" fill="#B9FF5E"/>
<path d="M318.216 70.714H330.002V82.502H318.216V70.714Z" fill="#F39E3C"/>
<path d="M330.002 70.714H341.787V82.502H330.002V70.714Z" fill="#F39E3C"/>
<path d="M341.787 70.714H353.572V82.502H341.787V70.714Z" fill="#F39E3C"/>
<path d="M353.572 70.714H365.36V82.502H353.572V70.714Z" fill="#F39E3C"/>
<path d="M294.643 82.4992H306.431V94.2844H294.643V82.4992Z" fill="#F39E3C"/>
<path d="M306.431 82.4992H318.216V94.2844H306.431V82.4992Z" fill="#F39E3C"/>
<path d="M365.36 82.4992H377.145V94.2844H365.36V82.4992Z" fill="#B23742"/>
<path d="M377.145 82.4992H388.93V94.2844H377.145V82.4992Z" fill="#B23742"/>
<path d="M223.929 58.9289H235.714V70.7141H223.929V58.9289Z" fill="#BDFC67"/>
<path d="M212.144 70.714H223.929V82.502H212.144V70.714Z" fill="#BDFC67"/>
<path d="M235.714 70.714H247.5V82.502H235.714V70.714Z" fill="#BDFC67"/>
<path d="M212.144 82.4992H223.929V94.2844H212.144V82.4992Z" fill="#BDFC67"/>
<path d="M235.714 82.4992H247.5V94.2844H235.714V82.4992Z" fill="#BDFC67"/>
<path d="M223.929 94.2873H235.714V106.073H223.929V94.2873Z" fill="#BDFC67"/>
<path d="M318.216 94.2873H330.002V106.073H318.216V94.2873Z" fill="#AEFAC3"/>
<path d="M330.002 94.2873H341.787V106.073H330.002V94.2873Z" fill="#AEFAC3"/>
<path d="M341.787 94.2873H353.572V106.073H341.787V94.2873Z" fill="#97FAFC"/>
<path d="M353.572 94.2873H365.36V106.073H353.572V94.2873Z" fill="#97FAFC"/>
<path d="M188.572 11.7851H200.359V23.5703H188.572V11.7851Z" fill="#353537"/>
<path d="M200.359 11.7851H212.144V23.5703H200.359V11.7851Z" fill="#353537"/>
<path d="M212.144 11.7851H223.929V23.5703H212.144V11.7851Z" fill="#353537"/>
<path d="M223.929 11.7851H235.714V23.5703H223.929V11.7851Z" fill="#353537"/>
<path d="M235.714 11.7851H247.5V23.5703H235.714V11.7851Z" fill="#353537"/>
<path d="M247.5 11.7851H259.287V23.5703H247.5V11.7851Z" fill="#353537"/>
<path d="M165 23.5704H176.786V35.3584H165V23.5704Z" fill="#353537"/>
<path d="M176.786 23.5704H188.572V35.3584H176.786V23.5704Z" fill="#353537"/>
<path d="M259.287 23.5704H271.073V35.3584H259.287V23.5704Z" fill="#353537"/>
<path d="M153.215 35.3556H165.001V47.1409H153.215V35.3556Z" fill="#353537"/>
<path d="M141.43 47.141H153.215V58.929H141.43V47.141Z" fill="#353537"/>
<path d="M141.43 58.9262H153.215V70.7114H141.43V58.9262Z" fill="#353537"/>
<path d="M129.644 70.714H141.43V82.502H129.644V70.714Z" fill="#353537"/>
<path d="M129.644 82.4992H141.43V94.2844H129.644V82.4992Z" fill="#353537"/>
<path d="M117.858 94.2873H129.644V106.073H117.858V94.2873Z" fill="#353537"/>
<path d="M106.073 106.072H117.858V117.858H106.073V106.072Z" fill="#353537"/>
<path d="M282.858 106.072H294.643V117.858H282.858V106.072Z" fill="#C9F680"/>
<path d="M294.643 106.072H306.431V117.858H294.643V106.072Z" fill="#C9F680"/>
<path d="M318.216 106.072H330.002V117.858H318.216V106.072Z" fill="#C9F680"/>
<path d="M306.431 106.07H318.216V117.855H306.431V106.07Z" fill="#C9F680"/>
<path d="M188.572 23.5704H200.359V35.3584H188.572V23.5704Z" fill="#323136"/>
<path d="M200.359 23.5704H212.144V35.3584H200.359V23.5704Z" fill="#323136"/>
<path d="M212.144 23.5704H223.929V35.3584H212.144V23.5704Z" fill="#323136"/>
<path d="M223.929 23.5704H235.714V35.3584H223.929V23.5704Z" fill="#323136"/>
<path d="M235.714 23.5704H247.5V35.3584H235.714V23.5704Z" fill="#323136"/>
<path d="M247.5 23.5704H259.287V35.3584H247.5V23.5704Z" fill="#323136"/>
<path d="M165.001 35.3556H176.786V47.1409H165.001V35.3556Z" fill="#323136"/>
<path d="M176.786 35.3556H188.572V47.1409H176.786V35.3556Z" fill="#323136"/>
<path d="M188.572 35.3556H200.359V47.1409H188.572V35.3556Z" fill="#323136"/>
<path d="M200.359 35.3556H212.144V47.1409H200.359V35.3556Z" fill="#323136"/>
<path d="M259.287 35.3556H271.073V47.1409H259.287V35.3556Z" fill="#323136"/>
<path d="M153.215 47.1437H165.001V58.929H153.215V47.1437Z" fill="#323136"/>
<path d="M165.001 47.1437H176.786V58.929H165.001V47.1437Z" fill="#323136"/>
<path d="M176.786 47.1437H188.572V58.929H176.786V47.1437Z" fill="#323136"/>
<path d="M188.572 47.1437H200.359V58.929H188.572V47.1437Z" fill="#323136"/>
<path d="M153.215 58.9289H165.001V70.7141H153.215V58.9289Z" fill="#323136"/>
<path d="M165.001 58.9289H176.786V70.7141H165.001V58.9289Z" fill="#323136"/>
<path d="M176.786 58.9289H188.572V70.7141H176.786V58.9289Z" fill="#323136"/>
<path d="M141.429 70.714H153.216V82.4993H141.429V70.714Z" fill="#323136"/>
<path d="M153.215 70.714H165.001V82.502H153.215V70.714Z" fill="#323136"/>
<path d="M165 70.714H176.786V82.502H165V70.714Z" fill="#323136"/>
<path d="M176.786 70.714H188.572V82.502H176.786V70.714Z" fill="#323136"/>
<path d="M141.43 82.4992H153.215V94.2844H141.43V82.4992Z" fill="#323136"/>
<path d="M153.215 82.4992H165.001V94.2844H153.215V82.4992Z" fill="#323136"/>
<path d="M165.001 82.4992H176.786V94.2844H165.001V82.4992Z" fill="#323136"/>
<path d="M176.786 82.4992H188.572V94.2844H176.786V82.4992Z" fill="#323136"/>
<path d="M129.644 94.2873H141.43V106.073H129.644V94.2873Z" fill="#323136"/>
<path d="M141.43 94.2846H153.215V106.073H141.43V94.2846Z" fill="#323136"/>
<path d="M153.215 94.2873H165.001V106.073H153.215V94.2873Z" fill="#323136"/>
<path d="M165.001 94.2873H176.786V106.073H165.001V94.2873Z" fill="#323136"/>
<path d="M176.786 94.2873H188.572V106.073H176.786V94.2873Z" fill="#323136"/>
<path d="M117.858 106.072H129.644V117.858H117.858V106.072Z" fill="#323136"/>
<path d="M129.644 106.072H141.43V117.858H129.644V106.072Z" fill="#323136"/>
<path d="M141.43 106.07H153.215V117.855H141.43V106.07Z" fill="#323136"/>
<path d="M153.215 106.072H165.001V117.858H153.215V106.072Z" fill="#323136"/>
<path d="M165.001 106.072H176.786V117.858H165.001V106.072Z" fill="#323136"/>
<path d="M106.072 117.858H117.858V129.643H106.072V117.858Z" fill="#323136"/>
<path d="M117.858 117.858H129.644V129.643H117.858V117.858Z" fill="#323136"/>
<path d="M129.644 117.858H141.43V129.643H129.644V117.858Z" fill="#323136"/>
<path d="M141.43 117.855H153.215V129.643H141.43V117.855Z" fill="#323136"/>
<path d="M153.215 117.858H165.001V129.643H153.215V117.858Z" fill="#323136"/>
<path d="M94.2866 129.643H106.072V141.428H94.2866V129.643Z" fill="#323136"/>
<path d="M106.073 129.643H117.858V141.428H106.073V129.643Z" fill="#323136"/>
<path d="M117.858 129.643H129.644V141.428H117.858V129.643Z" fill="#323136"/>
<path d="M129.644 129.643H141.43V141.428H129.644V129.643Z" fill="#323136"/>
<path d="M141.43 129.64H153.215V141.426H141.43V129.64Z" fill="#323136"/>
<path d="M153.215 129.643H165.001V141.428H153.215V129.643Z" fill="#323136"/>
<path d="M94.2866 141.428H106.072V153.216H94.2866V141.428Z" fill="#323136"/>
<path d="M106.073 141.428H117.858V153.216H106.073V141.428Z" fill="#323136"/>
<path d="M117.858 141.428H129.644V153.216H117.858V141.428Z" fill="#323136"/>
<path d="M129.644 141.428H141.43V153.216H129.644V141.428Z" fill="#323136"/>
<path d="M141.43 141.428H153.215V153.213H141.43V141.428Z" fill="#323136"/>
<path d="M153.215 141.428H165.001V153.216H153.215V141.428Z" fill="#323136"/>
<path d="M94.2866 153.214H106.072V164.999H94.2866V153.214Z" fill="#323136"/>
<path d="M106.073 153.214H117.858V164.999H106.073V153.214Z" fill="#323136"/>
<path d="M117.858 153.214H129.644V164.999H117.858V153.214Z" fill="#323136"/>
<path d="M129.644 153.214H141.43V164.999H129.644V153.214Z" fill="#323136"/>
<path d="M82.501 153.214H94.2868V164.999H82.501V153.214Z" fill="#323136"/>
<path d="M141.43 153.214H153.215V164.999H141.43V153.214Z" fill="#323136"/>
<path d="M70.7146 165.001H82.5001V176.787H70.7146V165.001Z" fill="#323136"/>
<path d="M94.2864 165.001H106.072V176.787H94.2864V165.001Z" fill="#323136"/>
<path d="M106.072 165.001H117.858V176.787H106.072V165.001Z" fill="#323136"/>
<path d="M117.858 165.001H129.644V176.787H117.858V165.001Z" fill="#323136"/>
<path d="M129.644 165.001H141.43V176.787H129.644V165.001Z" fill="#323136"/>
<path d="M82.5007 164.999H94.2865V176.787H82.5007V164.999Z" fill="#323136"/>
<path d="M141.429 164.999H153.216V176.787H141.429V164.999Z" fill="#323136"/>
<path d="M58.929 176.787H70.7147V188.572H58.929V176.787Z" fill="#323136"/>
<path d="M70.7146 176.787H82.5001V188.572H70.7146V176.787Z" fill="#323136"/>
<path d="M94.2864 176.787H106.072V188.572H94.2864V176.787Z" fill="#323136"/>
<path d="M106.072 176.787H117.858V188.572H106.072V176.787Z" fill="#323136"/>
<path d="M117.858 176.787H129.644V188.572H117.858V176.787Z" fill="#323136"/>
<path d="M129.644 176.787H141.43V188.572H129.644V176.787Z" fill="#323136"/>
<path d="M82.5007 176.784H94.2865V188.572H82.5007V176.784Z" fill="#323136"/>
<path d="M47.1431 188.575H58.9288V200.36H47.1431V188.575Z" fill="#323136"/>
<path d="M58.929 188.575H70.7147V200.36H58.929V188.575Z" fill="#323136"/>
<path d="M70.7146 188.575H82.5001V200.36H70.7146V188.575Z" fill="#323136"/>
<path d="M94.2864 188.575H106.072V200.36H94.2864V188.575Z" fill="#323136"/>
<path d="M106.072 188.575H117.858V200.36H106.072V188.575Z" fill="#323136"/>
<path d="M117.858 188.575H129.644V200.36H117.858V188.575Z" fill="#323136"/>
<path d="M129.644 188.575H141.43V200.36H129.644V188.575Z" fill="#323136"/>
<path d="M82.5007 188.572H94.2865V200.357H82.5007V188.572Z" fill="#323136"/>
<path d="M35.3572 200.357H47.1429V212.145H35.3572V200.357Z" fill="#323136"/>
<path d="M47.1431 200.357H58.9288V212.145H47.1431V200.357Z" fill="#323136"/>
<path d="M58.929 200.357H70.7147V212.145H58.929V200.357Z" fill="#323136"/>
<path d="M70.7146 200.357H82.5001V212.145H70.7146V200.357Z" fill="#323136"/>
<path d="M94.2866 200.357H106.072V212.145H94.2866V200.357Z" fill="#323136"/>
<path d="M106.073 200.357H117.858V212.145H106.073V200.357Z" fill="#323136"/>
<path d="M117.858 200.357H129.644V212.145H117.858V200.357Z" fill="#323136"/>
<path d="M82.501 200.357H94.2868V212.142H82.501V200.357Z" fill="#323136"/>
<path d="M23.5715 212.145H35.3573V223.93H23.5715V212.145Z" fill="#323136"/>
<path d="M35.3572 212.145H47.1429V223.93H35.3572V212.145Z" fill="#323136"/>
<path d="M47.1431 212.145H58.9288V223.93H47.1431V212.145Z" fill="#323136"/>
<path d="M58.929 212.145H70.7147V223.93H58.929V212.145Z" fill="#323136"/>
<path d="M70.7146 212.145H82.5001V223.93H70.7146V212.145Z" fill="#323136"/>
<path d="M94.2864 212.145H106.072V223.93H94.2864V212.145Z" fill="#323136"/>
<path d="M82.5007 212.142H94.2865V223.927H82.5007V212.142Z" fill="#323136"/>
<path d="M47.1431 223.928H58.9288V235.716H47.1431V223.928Z" fill="#323136"/>
<path d="M58.929 223.928H70.7147V235.716H58.929V223.928Z" fill="#323136"/>
<path d="M70.7146 223.928H82.5001V235.716H70.7146V223.928Z" fill="#323136"/>
<path d="M153.215 153.214H165.001V164.999H153.215V153.214Z" fill="#909092"/>
<path d="M153.215 165.001H165.001V176.787H153.215V165.001Z" fill="#909092"/>
<path d="M141.43 176.784H153.215V188.572H141.43V176.784Z" fill="#909092"/>
<path d="M141.43 188.572H153.215V200.357H141.43V188.572Z" fill="#909092"/>
<path d="M129.644 200.357H141.43V212.145H129.644V200.357Z" fill="#909092"/>
<path d="M106.072 212.145H117.858V223.93H106.072V212.145Z" fill="#909092"/>
<path d="M117.858 212.145H129.644V223.93H117.858V212.145Z" fill="#909092"/>
<path d="M94.2866 223.928H106.072V235.716H94.2866V223.928Z" fill="#909092"/>
<path d="M82.501 223.927H94.2868V235.713H82.501V223.927Z" fill="#909092"/>
<path d="M212.144 47.1437H223.929V58.929H212.144V47.1437Z" fill="#FEF766"/>
<path d="M223.929 47.1437H235.714V58.929H223.929V47.1437Z" fill="#FEF766"/>
<path d="M235.714 47.1437H247.5V58.929H235.714V47.1437Z" fill="#FEF766"/>
<path d="M247.5 47.1437H259.287V58.929H247.5V47.1437Z" fill="#FEF766"/>
<path d="M200.359 58.9289H212.144V70.7141H200.359V58.9289Z" fill="#FEF766"/>
<path d="M212.144 58.9289H223.929V70.7141H212.144V58.9289Z" fill="#FEF766"/>
<path d="M235.714 58.9289H247.5V70.7141H235.714V58.9289Z" fill="#FEF766"/>
<path d="M247.5 58.9289H259.287V70.7141H247.5V58.9289Z" fill="#FEF766"/>
<path d="M259.287 58.9289H271.073V70.7141H259.287V58.9289Z" fill="#FEF766"/>
<path d="M200.359 70.714H212.144V82.502H200.359V70.714Z" fill="#FEF766"/>
<path d="M247.5 70.714H259.287V82.502H247.5V70.714Z" fill="#FEF766"/>
<path d="M200.359 82.4992H212.144V94.2844H200.359V82.4992Z" fill="#FEF766"/>
<path d="M247.5 82.4992H259.287V94.2844H247.5V82.4992Z" fill="#FEF766"/>
<path d="M200.359 94.2873H212.144V106.073H200.359V94.2873Z" fill="#FEF766"/>
<path d="M212.144 94.2873H223.929V106.073H212.144V94.2873Z" fill="#FEF766"/>
<path d="M235.714 94.2873H247.5V106.073H235.714V94.2873Z" fill="#FEF766"/>
<path d="M247.5 94.2873H259.287V106.073H247.5V94.2873Z" fill="#FEF766"/>
<path d="M259.287 94.2873H271.073V106.073H259.287V94.2873Z" fill="#FEF766"/>
<path d="M188.572 106.072H200.359V117.858H188.572V106.072Z" fill="#FEF766"/>
<path d="M200.359 106.072H212.144V117.858H200.359V106.072Z" fill="#FEF766"/>
<path d="M212.144 106.072H223.929V117.858H212.144V106.072Z" fill="#FEF766"/>
<path d="M223.929 106.072H235.714V117.858H223.929V106.072Z" fill="#FEF766"/>
<path d="M235.714 106.072H247.5V117.858H235.714V106.072Z" fill="#FEF766"/>
<path d="M247.5 106.072H259.287V117.858H247.5V106.072Z" fill="#FEF766"/>
<path d="M259.287 106.072H271.073V117.858H259.287V106.072Z" fill="#FEF766"/>
<path d="M176.786 117.858H188.572V129.643H176.786V117.858Z" fill="#FEF766"/>
<path d="M188.572 117.858H200.359V129.643H188.572V117.858Z" fill="#FEF766"/>
<path d="M200.359 117.858H212.144V129.643H200.359V117.858Z" fill="#FEF766"/>
<path d="M212.144 117.858H223.929V129.643H212.144V117.858Z" fill="#FEF766"/>
<path d="M223.929 117.858H235.714V129.643H223.929V117.858Z" fill="#FEF766"/>
<path d="M235.714 117.858H247.5V129.643H235.714V117.858Z" fill="#FEF766"/>
<path d="M247.5 117.858H259.287V129.643H247.5V117.858Z" fill="#FEF766"/>
<path d="M259.287 117.858H271.073V129.643H259.287V117.858Z" fill="#FEF766"/>
<path d="M271.073 117.858H282.858V129.643H271.073V117.858Z" fill="#FEF766"/>
<path d="M176.786 129.643H188.572V141.428H176.786V129.643Z" fill="#FEF766"/>
<path d="M188.572 129.643H200.359V141.428H188.572V129.643Z" fill="#FEF766"/>
<path d="M200.359 129.643H212.144V141.428H200.359V129.643Z" fill="#FEF766"/>
<path d="M212.144 129.643H223.929V141.428H212.144V129.643Z" fill="#FEF766"/>
<path d="M223.929 129.643H235.714V141.428H223.929V129.643Z" fill="#FEF766"/>
<path d="M235.714 129.643H247.5V141.428H235.714V129.643Z" fill="#FEF766"/>
<path d="M247.5 129.643H259.287V141.428H247.5V129.643Z" fill="#FEF766"/>
<path d="M259.287 129.643H271.073V141.428H259.287V129.643Z" fill="#FEF766"/>
<path d="M176.786 141.428H188.572V153.216H176.786V141.428Z" fill="#FEF766"/>
<path d="M188.572 141.428H200.359V153.216H188.572V141.428Z" fill="#FEF766"/>
<path d="M200.359 141.428H212.144V153.216H200.359V141.428Z" fill="#FEF766"/>
<path d="M212.144 141.428H223.929V153.216H212.144V141.428Z" fill="#FEF766"/>
<path d="M223.929 141.428H235.714V153.216H223.929V141.428Z" fill="#FEF766"/>
<path d="M235.714 141.428H247.5V153.216H235.714V141.428Z" fill="#FEF766"/>
<path d="M247.5 141.428H259.287V153.216H247.5V141.428Z" fill="#FEF766"/>
<path d="M259.287 141.428H271.073V153.216H259.287V141.428Z" fill="#FEF766"/>
<path d="M176.786 153.214H188.572V164.999H176.786V153.214Z" fill="#FEF766"/>
<path d="M188.572 153.214H200.359V164.999H188.572V153.214Z" fill="#FEF766"/>
<path d="M200.359 153.214H212.144V164.999H200.359V153.214Z" fill="#FEF766"/>
<path d="M212.144 153.214H223.929V164.999H212.144V153.214Z" fill="#FEF766"/>
<path d="M223.929 153.214H235.714V164.999H223.929V153.214Z" fill="#FEF766"/>
<path d="M235.714 153.214H247.502V164.999H235.714V153.214Z" fill="#FEF766"/>
<path d="M247.502 153.214H259.287V164.999H247.502V153.214Z" fill="#FEF766"/>
<path d="M259.287 153.214H271.073V164.999H259.287V153.214Z" fill="#FEF766"/>
<path d="M176.786 165.001H188.572V176.787H176.786V165.001Z" fill="#FEF766"/>
<path d="M188.572 165.001H200.359V176.787H188.572V165.001Z" fill="#FEF766"/>
<path d="M200.359 165.001H212.144V176.787H200.359V165.001Z" fill="#FEF766"/>
<path d="M212.144 165.001H223.929V176.787H212.144V165.001Z" fill="#FEF766"/>
<path d="M223.929 165.001H235.714V176.787H223.929V165.001Z" fill="#FEF766"/>
<path d="M235.714 165.001H247.5V176.787H235.714V165.001Z" fill="#FEF766"/>
<path d="M247.5 165.001H259.287V176.787H247.5V165.001Z" fill="#FEF766"/>
<path d="M259.287 165.001H271.073V176.787H259.287V165.001Z" fill="#FEF766"/>
<path d="M271.073 165.001H282.858V176.787H271.073V165.001Z" fill="#FEF766"/>
<path d="M188.572 176.787H200.359V188.572H188.572V176.787Z" fill="#FEF766"/>
<path d="M200.359 176.787H212.144V188.572H200.359V176.787Z" fill="#FEF766"/>
<path d="M212.144 176.787H223.929V188.572H212.144V176.787Z" fill="#FEF766"/>
<path d="M223.929 176.787H235.714V188.572H223.929V176.787Z" fill="#FEF766"/>
<path d="M235.714 176.787H247.5V188.572H235.714V176.787Z" fill="#FEF766"/>
<path d="M247.5 176.787H259.287V188.572H247.5V176.787Z" fill="#FEF766"/>
<path d="M259.287 176.787H271.073V188.572H259.287V176.787Z" fill="#FEF766"/>
<path d="M271.073 176.787H282.858V188.572H271.073V176.787Z" fill="#FEF766"/>
<path d="M188.572 188.575H200.359V200.36H188.572V188.575Z" fill="#FEF766"/>
<path d="M200.359 188.575H212.144V200.36H200.359V188.575Z" fill="#FEF766"/>
<path d="M212.144 188.575H223.929V200.36H212.144V188.575Z" fill="#FEF766"/>
<path d="M223.929 188.575H235.714V200.36H223.929V188.575Z" fill="#FEF766"/>
<path d="M235.714 188.575H247.5V200.36H235.714V188.575Z" fill="#FEF766"/>
<path d="M247.5 188.575H259.287V200.36H247.5V188.575Z" fill="#FEF766"/>
<path d="M259.287 188.575H271.073V200.36H259.287V188.575Z" fill="#FEF766"/>
<path d="M271.073 188.575H282.858V200.36H271.073V188.575Z" fill="#FEF766"/>
<path d="M200.359 200.357H212.144V212.145H200.359V200.357Z" fill="#FEF766"/>
<path d="M212.144 200.357H223.929V212.145H212.144V200.357Z" fill="#FEF766"/>
<path d="M223.929 200.357H235.714V212.145H223.929V200.357Z" fill="#FEF766"/>
<path d="M235.714 200.357H247.5V212.145H235.714V200.357Z" fill="#FEF766"/>
<path d="M247.5 200.357H259.287V212.145H247.5V200.357Z" fill="#FEF766"/>
<path d="M259.287 200.357H271.073V212.145H259.287V200.357Z" fill="#FEF766"/>
<path d="M271.073 200.357H282.858V212.145H271.073V200.357Z" fill="#FEF766"/>
<path d="M200.359 212.145H212.144V223.93H200.359V212.145Z" fill="#FEF766"/>
<path d="M212.144 212.145H223.929V223.93H212.144V212.145Z" fill="#FEF766"/>
<path d="M223.929 212.145H235.714V223.93H223.929V212.145Z" fill="#FEF766"/>
<path d="M235.714 212.145H247.5V223.93H235.714V212.145Z" fill="#FEF766"/>
<path d="M247.5 212.145H259.287V223.93H247.5V212.145Z" fill="#FEF766"/>
<path d="M259.287 212.145H271.073V223.93H259.287V212.145Z" fill="#FEF766"/>
<path d="M271.073 212.145H282.858V223.93H271.073V212.145Z" fill="#FEF766"/>
<path d="M212.144 223.928H223.929V235.716H212.144V223.928Z" fill="#FEF766"/>
<path d="M223.929 223.928H235.714V235.716H223.929V223.928Z" fill="#FEF766"/>
<path d="M235.714 223.928H247.5V235.716H235.714V223.928Z" fill="#FEF766"/>
<path d="M247.5 223.928H259.287V235.716H247.5V223.928Z" fill="#FEF766"/>
<path d="M82.501 247.498H94.2868V259.286H82.501V247.498Z" fill="#353537"/>
<path d="M94.2864 259.289H106.072V271.074H94.2864V259.289Z" fill="#353537"/>
<path d="M106.073 271.071H117.858V282.859H106.073V271.071Z" fill="#353537"/>
<path d="M117.858 271.071H129.644V282.859H117.858V271.071Z" fill="#353537"/>
<path d="M129.644 282.859H141.43V294.644H129.644V282.859Z" fill="#353537"/>
<path d="M141.43 282.859H153.215V294.644H141.43V282.859Z" fill="#353537"/>
<path d="M165.001 176.787H176.786V188.572H165.001V176.787Z" fill="#323136"/>
<path d="M165.001 188.575H176.786V200.36H165.001V188.575Z" fill="#323136"/>
<path d="M153.215 200.357H165.001V212.145H153.215V200.357Z" fill="#323136"/>
<path d="M165.001 200.357H176.786V212.145H165.001V200.357Z" fill="#323136"/>
<path d="M176.786 200.357H188.572V212.145H176.786V200.357Z" fill="#323136"/>
<path d="M141.43 212.142H153.215V223.927H141.43V212.142Z" fill="#323136"/>
<path d="M153.215 212.145H165.001V223.93H153.215V212.145Z" fill="#323136"/>
<path d="M165.001 212.145H176.786V223.93H165.001V212.145Z" fill="#323136"/>
<path d="M176.786 212.145H188.572V223.93H176.786V212.145Z" fill="#323136"/>
<path d="M129.644 223.928H141.43V235.716H129.644V223.928Z" fill="#323136"/>
<path d="M141.43 223.927H153.215V235.713H141.43V223.927Z" fill="#323136"/>
<path d="M153.215 223.928H165.001V235.716H153.215V223.928Z" fill="#323136"/>
<path d="M165.001 223.928H176.786V235.716H165.001V223.928Z" fill="#323136"/>
<path d="M176.786 223.928H188.572V235.716H176.786V223.928Z" fill="#323136"/>
<path d="M188.572 223.928H200.359V235.716H188.572V223.928Z" fill="#323136"/>
<path d="M106.073 235.716H117.858V247.501H106.073V235.716Z" fill="#323136"/>
<path d="M117.858 235.716H129.644V247.501H117.858V235.716Z" fill="#323136"/>
<path d="M129.644 235.716H141.43V247.501H129.644V235.716Z" fill="#323136"/>
<path d="M141.43 235.716H153.215V247.501H141.43V235.716Z" fill="#323136"/>
<path d="M153.215 235.716H165.001V247.501H153.215V235.716Z" fill="#323136"/>
<path d="M165.001 235.716H176.786V247.501H165.001V235.716Z" fill="#323136"/>
<path d="M176.786 235.716H188.572V247.501H176.786V235.716Z" fill="#323136"/>
<path d="M188.572 235.716H200.359V247.501H188.572V235.716Z" fill="#323136"/>
<path d="M200.359 235.716H212.144V247.501H200.359V235.716Z" fill="#323136"/>
<path d="M259.287 235.716H271.073V247.501H259.287V235.716Z" fill="#323136"/>
<path d="M271.073 235.716H282.858V247.501H271.073V235.716Z" fill="#323136"/>
<path d="M94.2866 247.501H106.072V259.286H94.2866V247.501Z" fill="#323136"/>
<path d="M106.073 247.501H117.858V259.286H106.073V247.501Z" fill="#323136"/>
<path d="M117.858 247.501H129.644V259.286H117.858V247.501Z" fill="#323136"/>
<path d="M129.644 247.501H141.43V259.286H129.644V247.501Z" fill="#323136"/>
<path d="M141.43 247.498H153.215V259.286H141.43V247.498Z" fill="#323136"/>
<path d="M153.215 247.501H165.001V259.286H153.215V247.501Z" fill="#323136"/>
<path d="M165.001 247.501H176.786V259.286H165.001V247.501Z" fill="#323136"/>
<path d="M176.786 247.501H188.572V259.286H176.786V247.501Z" fill="#323136"/>
<path d="M188.572 247.501H200.359V259.286H188.572V247.501Z" fill="#323136"/>
<path d="M200.359 247.501H212.144V259.286H200.359V247.501Z" fill="#323136"/>
<path d="M212.144 247.501H223.929V259.286H212.144V247.501Z" fill="#323136"/>
<path d="M223.929 247.501H235.714V259.286H223.929V247.501Z" fill="#323136"/>
<path d="M235.714 247.501H247.502V259.286H235.714V247.501Z" fill="#323136"/>
<path d="M247.502 247.501H259.287V259.286H247.502V247.501Z" fill="#323136"/>
<path d="M259.287 247.501H271.073V259.286H259.287V247.501Z" fill="#323136"/>
<path d="M106.072 259.289H117.858V271.074H106.072V259.289Z" fill="#323136"/>
<path d="M117.858 259.289H129.644V271.074H117.858V259.289Z" fill="#323136"/>
<path d="M129.644 259.289H141.43V271.074H129.644V259.289Z" fill="#323136"/>
<path d="M141.43 259.286H153.215V271.071H141.43V259.286Z" fill="#323136"/>
<path d="M153.215 259.289H165.001V271.074H153.215V259.289Z" fill="#323136"/>
<path d="M165.001 259.289H176.786V271.074H165.001V259.289Z" fill="#323136"/>
<path d="M176.786 259.289H188.572V271.074H176.786V259.289Z" fill="#323136"/>
<path d="M188.572 259.289H200.359V271.074H188.572V259.289Z" fill="#323136"/>
<path d="M200.359 259.289H212.144V271.074H200.359V259.289Z" fill="#323136"/>
<path d="M212.144 259.289H223.929V271.074H212.144V259.289Z" fill="#323136"/>
<path d="M223.929 259.289H235.714V271.074H223.929V259.289Z" fill="#323136"/>
<path d="M235.714 259.289H247.5V271.074H235.714V259.289Z" fill="#323136"/>
<path d="M247.5 259.289H259.287V271.074H247.5V259.289Z" fill="#323136"/>
<path d="M259.287 259.289H271.073V271.074H259.287V259.289Z" fill="#323136"/>
<path d="M129.644 271.071H141.43V282.859H129.644V271.071Z" fill="#323136"/>
<path d="M141.43 271.071H153.215V282.856H141.43V271.071Z" fill="#323136"/>
<path d="M153.215 271.071H165.001V282.859H153.215V271.071Z" fill="#323136"/>
<path d="M165.001 271.071H176.786V282.859H165.001V271.071Z" fill="#323136"/>
<path d="M176.786 271.071H188.572V282.859H176.786V271.071Z" fill="#323136"/>
<path d="M188.572 271.071H200.359V282.859H188.572V271.071Z" fill="#323136"/>
<path d="M200.359 271.071H212.144V282.859H200.359V271.071Z" fill="#323136"/>
<path d="M212.144 271.071H223.929V282.859H212.144V271.071Z" fill="#323136"/>
<path d="M223.929 271.071H235.714V282.859H223.929V271.071Z" fill="#323136"/>
<path d="M235.714 271.071H247.5V282.859H235.714V271.071Z" fill="#323136"/>
<path d="M247.5 271.071H259.287V282.859H247.5V271.071Z" fill="#323136"/>
<path d="M165.001 282.859H176.786V294.644H165.001V282.859Z" fill="#323136"/>
<path d="M188.572 282.859H200.359V294.644H188.572V282.859Z" fill="#323136"/>
<path d="M200.359 282.859H212.144V294.644H200.359V282.859Z" fill="#323136"/>
<path d="M212.144 282.859H223.929V294.644H212.144V282.859Z" fill="#323136"/>
<path d="M223.929 282.859H235.714V294.644H223.929V282.859Z" fill="#323136"/>
<path d="M47.1433 247.501H58.9291V259.286H47.1433V247.501Z" fill="#2F2E34"/>
<path d="M58.929 247.501H70.7147V259.286H58.929V247.501Z" fill="#2F2E34"/>
<path d="M11.7854 259.289H23.5714V271.074H11.7854V259.289Z" fill="#2F2E34"/>
<path d="M23.5715 259.289H35.3573V271.074H23.5715V259.289Z" fill="#2F2E34"/>
<path d="M35.3572 259.289H47.1429V271.074H35.3572V259.289Z" fill="#2F2E34"/>
<path d="M70.7146 259.289H82.5001V271.074H70.7146V259.289Z" fill="#2F2E34"/>
<path d="M58.929 271.071H70.7147V282.859H58.929V271.071Z" fill="#2F2E34"/>
<path d="M23.5715 282.859H35.3573V294.644H23.5715V282.859Z" fill="#2F2E34"/>
<path d="M35.3572 282.859H47.1429V294.644H35.3572V282.859Z" fill="#2F2E34"/>
<path d="M47.1431 282.859H58.9288V294.644H47.1431V282.859Z" fill="#2F2E34"/>
<path d="M82.501 282.859H94.2868V294.644H82.501V282.859Z" fill="#2F2E34"/>
<path d="M70.7148 294.644H82.5003V306.429H70.7148V294.644Z" fill="#2F2E34"/>
<path d="M47.1431 306.43H58.9288V318.215H47.1431V306.43Z" fill="#2F2E34"/>
<path d="M58.929 306.43H70.7147V318.215H58.929V306.43Z" fill="#2F2E34"/>
<path d="M47.1431 259.289H58.9288V271.074H47.1431V259.289Z" fill="#909098"/>
<path d="M11.7859 271.071H23.5717V282.859H11.7859V271.071Z" fill="#909098"/>
<path d="M70.7146 271.071H82.5001V282.859H70.7146V271.071Z" fill="#909098"/>
<path d="M58.929 282.859H70.7147V294.644H58.929V282.859Z" fill="#909098"/>
<path d="M94.2866 282.859H106.072V294.644H94.2866V282.859Z" fill="#909098"/>
<path d="M35.3577 294.644H47.1434V306.429H35.3577V294.644Z" fill="#909098"/>
<path d="M82.501 294.641H94.2868V306.429H82.501V294.641Z" fill="#909098"/>
<path d="M70.7146 306.43H82.5001V318.215H70.7146V306.43Z" fill="#909098"/>
<path d="M153.215 294.644H165.001V306.429H153.215V294.644Z" fill="#B0C8DF"/>
<path d="M176.786 294.644H188.572V306.429H176.786V294.644Z" fill="#B0C8DF"/>
<path d="M235.714 294.644H247.502V306.429H235.714V294.644Z" fill="#B0C8DF"/>
<path d="M153.215 306.43H165.001V318.215H153.215V306.43Z" fill="#B0C8DF"/>
<path d="M176.786 306.43H188.572V318.215H176.786V306.43Z" fill="#B0C8DF"/>
<path d="M223.929 306.43H235.714V318.215H223.929V306.43Z" fill="#B0C8DF"/>
<path d="M271.073 47.1437H282.858V58.929H271.073V47.1437Z" fill="black"/>
<path d="M271.073 58.9289H282.858V70.7141H271.073V58.9289Z" fill="black"/>
<path d="M259.287 70.714H271.073V82.502H259.287V70.714Z" fill="black"/>
<path d="M282.858 23.5704H294.643V35.3584H282.858V23.5704Z" fill="black"/>
<path d="M294.643 23.5704H306.431V35.3584H294.643V23.5704Z" fill="black"/>
<path d="M318.216 23.5704H330.002V35.3584H318.216V23.5704Z" fill="black"/>
<path d="M306.431 23.5705H318.216V35.3557H306.431V23.5705Z" fill="black"/>
<path d="M271.073 35.3556H282.858V47.1409H271.073V35.3556Z" fill="black"/>
<path d="M330.002 35.3556H341.787V47.1409H330.002V35.3556Z" fill="black"/>
<path d="M341.787 35.3556H353.572V47.1409H341.787V35.3556Z" fill="black"/>
<path d="M353.572 35.3556H365.36V47.1409H353.572V35.3556Z" fill="black"/>
<path d="M365.36 35.3556H377.145V47.1409H365.36V35.3556Z" fill="black"/>
<path d="M377.145 47.1437H388.93V58.929H377.145V47.1437Z" fill="black"/>
<path d="M388.93 58.9289H400.716V70.7141H388.93V58.9289Z" fill="black"/>
<path d="M365.36 70.714H377.145V82.502H365.36V70.714Z" fill="black"/>
<path d="M377.145 70.714H388.93V82.502H377.145V70.714Z" fill="black"/>
<path d="M388.93 70.714H400.716V82.502H388.93V70.714Z" fill="black"/>
<path d="M400.716 70.714H412.501V82.502H400.716V70.714Z" fill="black"/>
<path d="M259.287 82.4992H271.073V94.2844H259.287V82.4992Z" fill="black"/>
<path d="M318.216 82.4992H330.002V94.2844H318.216V82.4992Z" fill="black"/>
<path d="M330.002 82.4992H341.787V94.2844H330.002V82.4992Z" fill="black"/>
<path d="M341.787 82.4992H353.572V94.2844H341.787V82.4992Z" fill="black"/>
<path d="M353.572 82.4992H365.36V94.2844H353.572V82.4992Z" fill="black"/>
<path d="M388.93 82.4992H400.716V94.2844H388.93V82.4992Z" fill="black"/>
<path d="M400.716 82.4992H412.501V94.2844H400.716V82.4992Z" fill="black"/>
<path d="M271.073 94.2873H282.858V106.073H271.073V94.2873Z" fill="black"/>
<path d="M282.858 94.2873H294.643V106.073H282.858V94.2873Z" fill="black"/>
<path d="M294.643 94.2873H306.431V106.073H294.643V94.2873Z" fill="black"/>
<path d="M306.431 94.2846H318.216V106.073H306.431V94.2846Z" fill="black"/>
<path d="M365.36 94.2873H377.145V106.073H365.36V94.2873Z" fill="black"/>
<path d="M377.145 94.2873H388.93V106.073H377.145V94.2873Z" fill="black"/>
<path d="M271.073 106.072H282.858V117.858H271.073V106.072Z" fill="black"/>
<path d="M330.002 106.072H341.787V117.858H330.002V106.072Z" fill="black"/>
<path d="M341.787 106.072H353.572V117.858H341.787V106.072Z" fill="black"/>
<path d="M353.572 106.072H365.36V117.858H353.572V106.072Z" fill="black"/>
<path d="M282.858 117.858H294.643V129.643H282.858V117.858Z" fill="black"/>
<path d="M294.643 117.858H306.431V129.643H294.643V117.858Z" fill="black"/>
<path d="M318.216 117.858H330.002V129.643H318.216V117.858Z" fill="black"/>
<path d="M306.431 117.855H318.216V129.643H306.431V117.855Z" fill="black"/>
<path d="M188.572 -7.74368e-05H200.359V11.7852H188.572V-7.74368e-05Z" fill="black"/>
<path d="M200.359 -7.74368e-05H212.144V11.7852H200.359V-7.74368e-05Z" fill="black"/>
<path d="M212.144 -7.74368e-05H223.929V11.7852H212.144V-7.74368e-05Z" fill="black"/>
<path d="M223.929 -7.74368e-05H235.714V11.7852H223.929V-7.74368e-05Z" fill="black"/>
<path d="M235.714 -7.74368e-05H247.5V11.7852H235.714V-7.74368e-05Z" fill="black"/>
<path d="M247.5 -7.74368e-05H259.287V11.7852H247.5V-7.74368e-05Z" fill="black"/>
<path d="M165.001 11.7851H176.786V23.5703H165.001V11.7851Z" fill="black"/>
<path d="M176.786 11.7851H188.572V23.5703H176.786V11.7851Z" fill="black"/>
<path d="M259.287 11.7851H271.073V23.5703H259.287V11.7851Z" fill="black"/>
<path d="M153.215 23.5704H165.001V35.3584H153.215V23.5704Z" fill="black"/>
<path d="M271.073 23.5704H282.858V35.3584H271.073V23.5704Z" fill="black"/>
<path d="M141.43 35.3556H153.215V47.1409H141.43V35.3556Z" fill="black"/>
<path d="M212.144 35.3556H223.929V47.1409H212.144V35.3556Z" fill="black"/>
<path d="M223.929 35.3556H235.714V47.1409H223.929V35.3556Z" fill="black"/>
<path d="M235.714 35.3556H247.5V47.1409H235.714V35.3556Z" fill="black"/>
<path d="M247.5 35.3556H259.287V47.1409H247.5V35.3556Z" fill="black"/>
<path d="M129.644 47.1437H141.43V58.929H129.644V47.1437Z" fill="black"/>
<path d="M200.359 47.1437H212.144V58.929H200.359V47.1437Z" fill="black"/>
<path d="M259.287 47.1437H271.073V58.929H259.287V47.1437Z" fill="black"/>
<path d="M129.644 58.9289H141.43V70.7141H129.644V58.9289Z" fill="black"/>
<path d="M188.572 58.9289H200.359V70.7141H188.572V58.9289Z" fill="black"/>
<path d="M117.858 70.714H129.644V82.502H117.858V70.714Z" fill="black"/>
<path d="M188.572 70.714H200.359V82.502H188.572V70.714Z" fill="black"/>
<path d="M117.858 82.4992H129.644V94.2844H117.858V82.4992Z" fill="black"/>
<path d="M188.572 82.4992H200.359V94.2844H188.572V82.4992Z" fill="black"/>
<path d="M106.072 94.2873H117.858V106.073H106.072V94.2873Z" fill="black"/>
<path d="M188.572 94.2873H200.359V106.073H188.572V94.2873Z" fill="black"/>
<path d="M94.2866 106.072H106.072V117.858H94.2866V106.072Z" fill="black"/>
<path d="M176.786 106.072H188.572V117.858H176.786V106.072Z" fill="black"/>
<path d="M94.2864 117.858H106.072V129.643H94.2864V117.858Z" fill="black"/>
<path d="M165.001 117.858H176.786V129.643H165.001V117.858Z" fill="black"/>
<path d="M82.501 129.64H94.2868V141.426H82.501V129.64Z" fill="black"/>
<path d="M165.001 129.643H176.786V141.428H165.001V129.643Z" fill="black"/>
<path d="M82.501 141.428H94.2868V153.213H82.501V141.428Z" fill="black"/>
<path d="M165.001 141.428H176.786V153.216H165.001V141.428Z" fill="black"/>
<path d="M70.7148 153.214H82.5003V164.999H70.7148V153.214Z" fill="black"/>
<path d="M165.001 153.214H176.786V164.999H165.001V153.214Z" fill="black"/>
<path d="M58.929 165.001H70.7147V176.787H58.929V165.001Z" fill="black"/>
<path d="M165 165.001H176.786V176.787H165V165.001Z" fill="black"/>
<path d="M47.1431 176.787H58.9288V188.572H47.1431V176.787Z" fill="black"/>
<path d="M153.215 176.787H165.001V188.572H153.215V176.787Z" fill="black"/>
<path d="M35.3572 188.575H47.1429V200.36H35.3572V188.575Z" fill="black"/>
<path d="M153.215 188.575H165.001V200.36H153.215V188.575Z" fill="black"/>
<path d="M23.5715 200.357H35.3573V212.145H23.5715V200.357Z" fill="black"/>
<path d="M141.43 200.357H153.215V212.142H141.43V200.357Z" fill="black"/>
<path d="M11.7854 212.145H23.5714V223.93H11.7854V212.145Z" fill="black"/>
<path d="M129.644 212.145H141.43V223.93H129.644V212.145Z" fill="black"/>
<path d="M23.5715 223.928H35.3573V235.716H23.5715V223.928Z" fill="black"/>
<path d="M35.3572 223.928H47.1429V235.716H35.3572V223.928Z" fill="black"/>
<path d="M106.073 223.928H117.858V235.716H106.073V223.928Z" fill="black"/>
<path d="M117.858 223.928H129.644V235.716H117.858V223.928Z" fill="black"/>
<path d="M47.1431 235.716H58.9288V247.501H47.1431V235.716Z" fill="black"/>
<path d="M58.929 235.716H70.7147V247.501H58.929V235.716Z" fill="black"/>
<path d="M70.7146 235.716H82.5001V247.501H70.7146V235.716Z" fill="black"/>
<path d="M94.2866 235.716H106.072V247.501H94.2866V235.716Z" fill="black"/>
<path d="M82.501 235.716H94.2868V247.501H82.501V235.716Z" fill="black"/>
<path d="M271.073 129.643H282.858V141.428H271.073V129.643Z" fill="black"/>
<path d="M271.073 141.428H282.858V153.216H271.073V141.428Z" fill="black"/>
<path d="M271.073 153.214H282.858V164.999H271.073V153.214Z" fill="black"/>
<path d="M282.858 165.001H294.643V176.787H282.858V165.001Z" fill="black"/>
<path d="M176.786 176.787H188.572V188.572H176.786V176.787Z" fill="black"/>
<path d="M282.858 176.787H294.643V188.572H282.858V176.787Z" fill="black"/>
<path d="M176.786 188.575H188.572V200.36H176.786V188.575Z" fill="black"/>
<path d="M282.858 188.575H294.643V200.36H282.858V188.575Z" fill="black"/>
<path d="M188.572 200.357H200.359V212.145H188.572V200.357Z" fill="black"/>
<path d="M282.858 200.357H294.643V212.145H282.858V200.357Z" fill="black"/>
<path d="M188.572 212.145H200.359V223.93H188.572V212.145Z" fill="black"/>
<path d="M282.858 212.145H294.643V223.93H282.858V212.145Z" fill="black"/>
<path d="M200.359 223.928H212.144V235.716H200.359V223.928Z" fill="black"/>
<path d="M259.287 223.928H271.073V235.716H259.287V223.928Z" fill="black"/>
<path d="M271.073 223.928H282.858V235.716H271.073V223.928Z" fill="black"/>
<path d="M212.144 235.716H223.929V247.501H212.144V235.716Z" fill="black"/>
<path d="M223.929 235.716H235.714V247.501H223.929V235.716Z" fill="black"/>
<path d="M235.714 235.716H247.5V247.501H235.714V235.716Z" fill="black"/>
<path d="M247.5 235.716H259.287V247.501H247.5V235.716Z" fill="black"/>
<path d="M11.7859 247.501H23.5717V259.286H11.7859V247.501Z" fill="black"/>
<path d="M23.5715 247.501H35.3573V259.286H23.5715V247.501Z" fill="black"/>
<path d="M35.3577 247.501H47.1434V259.286H35.3577V247.501Z" fill="black"/>
<path d="M70.7148 247.501H82.5003V259.286H70.7148V247.501Z" fill="black"/>
<path d="M0 259.289H11.7855V271.074H0V259.289Z" fill="black"/>
<path d="M58.929 259.289H70.7147V271.074H58.929V259.289Z" fill="black"/>
<path d="M82.5007 259.286H94.2865V271.071H82.5007V259.286Z" fill="black"/>
<path d="M0 271.071H11.7858V282.859H0V271.071Z" fill="black"/>
<path d="M23.5715 271.071H35.3573V282.859H23.5715V271.071Z" fill="black"/>
<path d="M35.3572 271.071H47.1429V282.859H35.3572V271.071Z" fill="black"/>
<path d="M47.1431 271.071H58.9288V282.859H47.1431V271.071Z" fill="black"/>
<path d="M94.2866 271.071H106.072V282.859H94.2866V271.071Z" fill="black"/>
<path d="M82.501 271.071H94.2868V282.856H82.501V271.071Z" fill="black"/>
<path d="M11.7859 282.859H23.5717V294.644H11.7859V282.859Z" fill="black"/>
<path d="M70.7146 282.859H82.5001V294.644H70.7146V282.859Z" fill="black"/>
<path d="M106.073 282.859H117.858V294.644H106.073V282.859Z" fill="black"/>
<path d="M117.858 282.859H129.644V294.644H117.858V282.859Z" fill="black"/>
<path d="M11.7859 294.644H23.5717V306.429H11.7859V294.644Z" fill="black"/>
<path d="M23.5715 294.644H35.3573V306.429H23.5715V294.644Z" fill="black"/>
<path d="M47.1433 294.644H58.9291V306.429H47.1433V294.644Z" fill="black"/>
<path d="M58.929 294.644H70.7147V306.429H58.929V294.644Z" fill="black"/>
<path d="M94.2866 294.644H106.072V306.429H94.2866V294.644Z" fill="black"/>
<path d="M129.644 294.644H141.43V306.429H129.644V294.644Z" fill="black"/>
<path d="M35.3572 306.43H47.1429V318.215H35.3572V306.43Z" fill="black"/>
<path d="M82.501 306.43H94.2868V318.215H82.501V306.43Z" fill="black"/>
<path d="M47.1433 318.215H58.9291V330H47.1433V318.215Z" fill="black"/>
<path d="M58.929 318.215H70.7147V330H58.929V318.215Z" fill="black"/>
<path d="M70.7148 318.215H82.5003V330H70.7148V318.215Z" fill="black"/>
<path d="M282.858 223.928H294.643V235.716H282.858V223.928Z" fill="black"/>
<path d="M282.858 235.716H294.643V247.501H282.858V235.716Z" fill="black"/>
<path d="M271.073 247.501H282.858V259.286H271.073V247.501Z" fill="black"/>
<path d="M271.073 259.289H282.858V271.074H271.073V259.289Z" fill="black"/>
<path d="M259.287 271.071H271.073V282.859H259.287V271.071Z" fill="black"/>
<path d="M153.215 282.859H165.001V294.644H153.215V282.859Z" fill="black"/>
<path d="M176.786 282.859H188.572V294.644H176.786V282.859Z" fill="black"/>
<path d="M235.714 282.859H247.5V294.644H235.714V282.859Z" fill="black"/>
<path d="M247.5 282.859H259.287V294.644H247.5V282.859Z" fill="black"/>
<path d="M141.43 294.641H153.215V306.429H141.43V294.641Z" fill="black"/>
<path d="M165.001 294.644H176.786V306.429H165.001V294.644Z" fill="black"/>
<path d="M188.572 294.644H200.359V306.429H188.572V294.644Z" fill="black"/>
<path d="M200.359 294.644H212.144V306.429H200.359V294.644Z" fill="black"/>
<path d="M212.144 294.644H223.929V306.429H212.144V294.644Z" fill="black"/>
<path d="M223.929 294.644H235.714V306.429H223.929V294.644Z" fill="black"/>
<path d="M247.502 294.644H259.287V306.429H247.502V294.644Z" fill="black"/>
<path d="M141.43 306.43H153.215V318.215H141.43V306.43Z" fill="black"/>
<path d="M165.001 306.43H176.786V318.215H165.001V306.43Z" fill="black"/>
<path d="M188.572 306.43H200.359V318.215H188.572V306.43Z" fill="black"/>
<path d="M212.144 306.43H223.929V318.215H212.144V306.43Z" fill="black"/>
<path d="M235.714 306.43H247.5V318.215H235.714V306.43Z" fill="black"/>
<path d="M247.5 306.43H259.287V318.215H247.5V306.43Z" fill="black"/>
<path d="M153.215 318.215H165.001V330H153.215V318.215Z" fill="black"/>
<path d="M165.001 318.215H176.786V330H165.001V318.215Z" fill="black"/>
<path d="M176.786 318.215H188.572V330H176.786V318.215Z" fill="black"/>
<path d="M188.572 318.215H200.359V330H188.572V318.215Z" fill="black"/>
<path d="M223.929 318.215H235.714V330H223.929V318.215Z" fill="black"/>
<path d="M235.714 318.215H247.502V330H235.714V318.215Z" fill="black"/>
<path d="M282.858 35.3556H294.643V47.1409H282.858V35.3556Z" fill="#C9FF83"/>
<path d="M294.643 35.3556H306.431V47.1409H294.643V35.3556Z" fill="#C9FF83"/>
<path d="M318.216 35.3556H330.002V47.1409H318.216V35.3556Z" fill="#C9FF83"/>
<path d="M306.431 35.3556H318.216V47.1409H306.431V35.3556Z" fill="#C9FF83"/>
<path d="M365.36 47.1437H377.145V58.929H365.36V47.1437Z" fill="#CC212A"/>
<path d="M353.572 58.9289H365.36V70.7141H353.572V58.9289Z" fill="#CC212A"/>
<path d="M365.36 58.9289H377.145V70.7141H365.36V58.9289Z" fill="#CC212A"/>
<path d="M377.145 58.9289H388.93V70.7141H377.145V58.9289Z" fill="#CC212A"/>
<path d="M223.929 70.714H235.714V82.502H223.929V70.714Z" fill="white"/>
<path d="M223.929 82.4992H235.714V94.2844H223.929V82.4992Z" fill="black"/>
<path d="M271.073 70.714H282.858V82.502H271.073V70.714Z" fill="#B9FF5E"/>
<path d="M271.073 82.4992H282.858V94.2844H271.073V82.4992Z" fill="#B9FF5E"/>
<path d="M282.858 47.1437H294.643V58.929H282.858V47.1437Z" fill="#B9FF5E"/>
<path d="M294.643 47.1437H306.431V58.929H294.643V47.1437Z" fill="#B9FF5E"/>
<path d="M318.216 47.1437H330.002V58.929H318.216V47.1437Z" fill="#B9FF5E"/>
<path d="M330.002 47.1437H341.787V58.929H330.002V47.1437Z" fill="#B9FF5E"/>
<path d="M306.431 47.141H318.216V58.929H306.431V47.141Z" fill="#B9FF5E"/>
<path d="M341.787 47.1437H353.572V58.929H341.787V47.1437Z" fill="#B9FF5E"/>
<path d="M353.572 47.1437H365.36V58.929H353.572V47.1437Z" fill="#B9FF5E"/>
<path d="M282.858 58.9289H294.643V70.7141H282.858V58.9289Z" fill="#B9FF5E"/>
<path d="M294.643 58.9289H306.431V70.7141H294.643V58.9289Z" fill="#B9FF5E"/>
<path d="M318.216 58.9289H330.002V70.7141H318.216V58.9289Z" fill="#B9FF5E"/>
<path d="M330.002 58.9289H341.787V70.7141H330.002V58.9289Z" fill="#B9FF5E"/>
<path d="M306.431 58.9262H318.216V70.7114H306.431V58.9262Z" fill="#B9FF5E"/>
<path d="M341.787 58.9289H353.572V70.7141H341.787V58.9289Z" fill="#B9FF5E"/>
<path d="M282.858 70.714H294.643V82.502H282.858V70.714Z" fill="#B9FF5E"/>
<path d="M294.643 70.714H306.431V82.502H294.643V70.714Z" fill="#B9FF5E"/>
<path d="M306.431 70.714H318.216V82.4993H306.431V70.714Z" fill="#B9FF5E"/>
<path d="M282.858 82.4992H294.643V94.2844H282.858V82.4992Z" fill="#B9FF5E"/>
<path d="M318.216 70.714H330.002V82.502H318.216V70.714Z" fill="#F39E3C"/>
<path d="M330.002 70.714H341.787V82.502H330.002V70.714Z" fill="#F39E3C"/>
<path d="M341.787 70.714H353.572V82.502H341.787V70.714Z" fill="#F39E3C"/>
<path d="M353.572 70.714H365.36V82.502H353.572V70.714Z" fill="#F39E3C"/>
<path d="M294.643 82.4992H306.431V94.2844H294.643V82.4992Z" fill="#F39E3C"/>
<path d="M306.431 82.4992H318.216V94.2844H306.431V82.4992Z" fill="#F39E3C"/>
<path d="M365.36 82.4992H377.145V94.2844H365.36V82.4992Z" fill="#B23742"/>
<path d="M377.145 82.4992H388.93V94.2844H377.145V82.4992Z" fill="#B23742"/>
<path d="M223.929 58.9289H235.714V70.7141H223.929V58.9289Z" fill="#7BD35C"/>
<path d="M212.144 70.714H223.929V82.502H212.144V70.714Z" fill="#7BD35C"/>
<path d="M235.714 70.714H247.5V82.502H235.714V70.714Z" fill="#7BD35C"/>
<path d="M212.144 82.4992H223.929V94.2844H212.144V82.4992Z" fill="#7BD35C"/>
<path d="M235.714 82.4992H247.5V94.2844H235.714V82.4992Z" fill="#7BD35C"/>
<path d="M223.929 94.2873H235.714V106.073H223.929V94.2873Z" fill="#7BD35C"/>
<path d="M318.216 94.2873H330.002V106.073H318.216V94.2873Z" fill="#AEFAC3"/>
<path d="M330.002 94.2873H341.787V106.073H330.002V94.2873Z" fill="#AEFAC3"/>
<path d="M341.787 94.2873H353.572V106.073H341.787V94.2873Z" fill="#97FAFC"/>
<path d="M353.572 94.2873H365.36V106.073H353.572V94.2873Z" fill="#97FAFC"/>
<path d="M188.572 11.7851H200.359V23.5703H188.572V11.7851Z" fill="#353537"/>
<path d="M200.359 11.7851H212.144V23.5703H200.359V11.7851Z" fill="#353537"/>
<path d="M212.144 11.7851H223.929V23.5703H212.144V11.7851Z" fill="#353537"/>
<path d="M223.929 11.7851H235.714V23.5703H223.929V11.7851Z" fill="#353537"/>
<path d="M235.714 11.7851H247.5V23.5703H235.714V11.7851Z" fill="#353537"/>
<path d="M247.5 11.7851H259.287V23.5703H247.5V11.7851Z" fill="#353537"/>
<path d="M165 23.5704H176.786V35.3584H165V23.5704Z" fill="#353537"/>
<path d="M176.786 23.5704H188.572V35.3584H176.786V23.5704Z" fill="#353537"/>
<path d="M259.287 23.5704H271.073V35.3584H259.287V23.5704Z" fill="#353537"/>
<path d="M153.215 35.3556H165.001V47.1409H153.215V35.3556Z" fill="#353537"/>
<path d="M141.43 47.141H153.215V58.929H141.43V47.141Z" fill="#353537"/>
<path d="M141.43 58.9262H153.215V70.7114H141.43V58.9262Z" fill="#353537"/>
<path d="M129.644 70.714H141.43V82.502H129.644V70.714Z" fill="#353537"/>
<path d="M129.644 82.4992H141.43V94.2844H129.644V82.4992Z" fill="#353537"/>
<path d="M117.858 94.2873H129.644V106.073H117.858V94.2873Z" fill="#353537"/>
<path d="M106.073 106.072H117.858V117.858H106.073V106.072Z" fill="#353537"/>
<path d="M282.858 106.072H294.643V117.858H282.858V106.072Z" fill="#7BD35C"/>
<path d="M294.643 106.072H306.431V117.858H294.643V106.072Z" fill="#7BD35C"/>
<path d="M318.216 106.072H330.002V117.858H318.216V106.072Z" fill="#7BD35C"/>
<path d="M306.431 106.07H318.216V117.855H306.431V106.07Z" fill="#7BD35C"/>
<path d="M188.572 23.5704H200.359V35.3584H188.572V23.5704Z" fill="#323136"/>
<path d="M200.359 23.5704H212.144V35.3584H200.359V23.5704Z" fill="#323136"/>
<path d="M212.144 23.5704H223.929V35.3584H212.144V23.5704Z" fill="#323136"/>
<path d="M223.929 23.5704H235.714V35.3584H223.929V23.5704Z" fill="#323136"/>
<path d="M235.714 23.5704H247.5V35.3584H235.714V23.5704Z" fill="#323136"/>
<path d="M247.5 23.5704H259.287V35.3584H247.5V23.5704Z" fill="#323136"/>
<path d="M165.001 35.3556H176.786V47.1409H165.001V35.3556Z" fill="#323136"/>
<path d="M176.786 35.3556H188.572V47.1409H176.786V35.3556Z" fill="#323136"/>
<path d="M188.572 35.3556H200.359V47.1409H188.572V35.3556Z" fill="#323136"/>
<path d="M200.359 35.3556H212.144V47.1409H200.359V35.3556Z" fill="#323136"/>
<path d="M259.287 35.3556H271.073V47.1409H259.287V35.3556Z" fill="#323136"/>
<path d="M153.215 47.1437H165.001V58.929H153.215V47.1437Z" fill="#323136"/>
<path d="M165.001 47.1437H176.786V58.929H165.001V47.1437Z" fill="#323136"/>
<path d="M176.786 47.1437H188.572V58.929H176.786V47.1437Z" fill="#323136"/>
<path d="M188.572 47.1437H200.359V58.929H188.572V47.1437Z" fill="#323136"/>
<path d="M153.215 58.9289H165.001V70.7141H153.215V58.9289Z" fill="#323136"/>
<path d="M165.001 58.9289H176.786V70.7141H165.001V58.9289Z" fill="#323136"/>
<path d="M176.786 58.9289H188.572V70.7141H176.786V58.9289Z" fill="#323136"/>
<path d="M141.429 70.714H153.216V82.4993H141.429V70.714Z" fill="#323136"/>
<path d="M153.215 70.714H165.001V82.502H153.215V70.714Z" fill="#323136"/>
<path d="M165 70.714H176.786V82.502H165V70.714Z" fill="#323136"/>
<path d="M176.786 70.714H188.572V82.502H176.786V70.714Z" fill="#323136"/>
<path d="M141.43 82.4992H153.215V94.2844H141.43V82.4992Z" fill="#323136"/>
<path d="M153.215 82.4992H165.001V94.2844H153.215V82.4992Z" fill="#323136"/>
<path d="M165.001 82.4992H176.786V94.2844H165.001V82.4992Z" fill="#323136"/>
<path d="M176.786 82.4992H188.572V94.2844H176.786V82.4992Z" fill="#323136"/>
<path d="M129.644 94.2873H141.43V106.073H129.644V94.2873Z" fill="#323136"/>
<path d="M141.43 94.2846H153.215V106.073H141.43V94.2846Z" fill="#323136"/>
<path d="M153.215 94.2873H165.001V106.073H153.215V94.2873Z" fill="#323136"/>
<path d="M165.001 94.2873H176.786V106.073H165.001V94.2873Z" fill="#323136"/>
<path d="M176.786 94.2873H188.572V106.073H176.786V94.2873Z" fill="#323136"/>
<path d="M117.858 106.072H129.644V117.858H117.858V106.072Z" fill="#323136"/>
<path d="M129.644 106.072H141.43V117.858H129.644V106.072Z" fill="#323136"/>
<path d="M141.43 106.07H153.215V117.855H141.43V106.07Z" fill="#323136"/>
<path d="M153.215 106.072H165.001V117.858H153.215V106.072Z" fill="#323136"/>
<path d="M165.001 106.072H176.786V117.858H165.001V106.072Z" fill="#323136"/>
<path d="M106.072 117.858H117.858V129.643H106.072V117.858Z" fill="#323136"/>
<path d="M117.858 117.858H129.644V129.643H117.858V117.858Z" fill="#323136"/>
<path d="M129.644 117.858H141.43V129.643H129.644V117.858Z" fill="#323136"/>
<path d="M141.43 117.855H153.215V129.643H141.43V117.855Z" fill="#323136"/>
<path d="M153.215 117.858H165.001V129.643H153.215V117.858Z" fill="#323136"/>
<path d="M94.2866 129.643H106.072V141.428H94.2866V129.643Z" fill="#323136"/>
<path d="M106.073 129.643H117.858V141.428H106.073V129.643Z" fill="#323136"/>
<path d="M117.858 129.643H129.644V141.428H117.858V129.643Z" fill="#323136"/>
<path d="M129.644 129.643H141.43V141.428H129.644V129.643Z" fill="#323136"/>
<path d="M141.43 129.64H153.215V141.426H141.43V129.64Z" fill="#323136"/>
<path d="M153.215 129.643H165.001V141.428H153.215V129.643Z" fill="#323136"/>
<path d="M94.2866 141.428H106.072V153.216H94.2866V141.428Z" fill="#323136"/>
<path d="M106.073 141.428H117.858V153.216H106.073V141.428Z" fill="#323136"/>
<path d="M117.858 141.428H129.644V153.216H117.858V141.428Z" fill="#323136"/>
<path d="M129.644 141.428H141.43V153.216H129.644V141.428Z" fill="#323136"/>
<path d="M141.43 141.428H153.215V153.213H141.43V141.428Z" fill="#323136"/>
<path d="M153.215 141.428H165.001V153.216H153.215V141.428Z" fill="#323136"/>
<path d="M94.2866 153.214H106.072V164.999H94.2866V153.214Z" fill="#323136"/>
<path d="M106.073 153.214H117.858V164.999H106.073V153.214Z" fill="#323136"/>
<path d="M117.858 153.214H129.644V164.999H117.858V153.214Z" fill="#323136"/>
<path d="M129.644 153.214H141.43V164.999H129.644V153.214Z" fill="#323136"/>
<path d="M82.501 153.214H94.2868V164.999H82.501V153.214Z" fill="#323136"/>
<path d="M141.43 153.214H153.215V164.999H141.43V153.214Z" fill="#323136"/>
<path d="M70.7146 165.001H82.5001V176.787H70.7146V165.001Z" fill="#323136"/>
<path d="M94.2864 165.001H106.072V176.787H94.2864V165.001Z" fill="#323136"/>
<path d="M106.072 165.001H117.858V176.787H106.072V165.001Z" fill="#323136"/>
<path d="M117.858 165.001H129.644V176.787H117.858V165.001Z" fill="#323136"/>
<path d="M129.644 165.001H141.43V176.787H129.644V165.001Z" fill="#323136"/>
<path d="M82.5007 164.999H94.2865V176.787H82.5007V164.999Z" fill="#323136"/>
<path d="M141.429 164.999H153.216V176.787H141.429V164.999Z" fill="#323136"/>
<path d="M58.929 176.787H70.7147V188.572H58.929V176.787Z" fill="#323136"/>
<path d="M70.7146 176.787H82.5001V188.572H70.7146V176.787Z" fill="#323136"/>
<path d="M94.2864 176.787H106.072V188.572H94.2864V176.787Z" fill="#323136"/>
<path d="M106.072 176.787H117.858V188.572H106.072V176.787Z" fill="#323136"/>
<path d="M117.858 176.787H129.644V188.572H117.858V176.787Z" fill="#323136"/>
<path d="M129.644 176.787H141.43V188.572H129.644V176.787Z" fill="#323136"/>
<path d="M82.5007 176.784H94.2865V188.572H82.5007V176.784Z" fill="#323136"/>
<path d="M47.1431 188.575H58.9288V200.36H47.1431V188.575Z" fill="#323136"/>
<path d="M58.929 188.575H70.7147V200.36H58.929V188.575Z" fill="#323136"/>
<path d="M70.7146 188.575H82.5001V200.36H70.7146V188.575Z" fill="#323136"/>
<path d="M94.2864 188.575H106.072V200.36H94.2864V188.575Z" fill="#323136"/>
<path d="M106.072 188.575H117.858V200.36H106.072V188.575Z" fill="#323136"/>
<path d="M117.858 188.575H129.644V200.36H117.858V188.575Z" fill="#323136"/>
<path d="M129.644 188.575H141.43V200.36H129.644V188.575Z" fill="#323136"/>
<path d="M82.5007 188.572H94.2865V200.357H82.5007V188.572Z" fill="#323136"/>
<path d="M35.3572 200.357H47.1429V212.145H35.3572V200.357Z" fill="#323136"/>
<path d="M47.1431 200.357H58.9288V212.145H47.1431V200.357Z" fill="#323136"/>
<path d="M58.929 200.357H70.7147V212.145H58.929V200.357Z" fill="#323136"/>
<path d="M70.7146 200.357H82.5001V212.145H70.7146V200.357Z" fill="#323136"/>
<path d="M94.2866 200.357H106.072V212.145H94.2866V200.357Z" fill="#323136"/>
<path d="M106.073 200.357H117.858V212.145H106.073V200.357Z" fill="#323136"/>
<path d="M117.858 200.357H129.644V212.145H117.858V200.357Z" fill="#323136"/>
<path d="M82.501 200.357H94.2868V212.142H82.501V200.357Z" fill="#323136"/>
<path d="M23.5715 212.145H35.3573V223.93H23.5715V212.145Z" fill="#323136"/>
<path d="M35.3572 212.145H47.1429V223.93H35.3572V212.145Z" fill="#323136"/>
<path d="M47.1431 212.145H58.9288V223.93H47.1431V212.145Z" fill="#323136"/>
<path d="M58.929 212.145H70.7147V223.93H58.929V212.145Z" fill="#323136"/>
<path d="M70.7146 212.145H82.5001V223.93H70.7146V212.145Z" fill="#323136"/>
<path d="M94.2864 212.145H106.072V223.93H94.2864V212.145Z" fill="#323136"/>
<path d="M82.5007 212.142H94.2865V223.927H82.5007V212.142Z" fill="#323136"/>
<path d="M47.1431 223.928H58.9288V235.716H47.1431V223.928Z" fill="#323136"/>
<path d="M58.929 223.928H70.7147V235.716H58.929V223.928Z" fill="#323136"/>
<path d="M70.7146 223.928H82.5001V235.716H70.7146V223.928Z" fill="#323136"/>
<path d="M153.215 153.214H165.001V164.999H153.215V153.214Z" fill="#909092"/>
<path d="M153.215 165.001H165.001V176.787H153.215V165.001Z" fill="#909092"/>
<path d="M141.43 176.784H153.215V188.572H141.43V176.784Z" fill="#909092"/>
<path d="M141.43 188.572H153.215V200.357H141.43V188.572Z" fill="#909092"/>
<path d="M129.644 200.357H141.43V212.145H129.644V200.357Z" fill="#909092"/>
<path d="M106.072 212.145H117.858V223.93H106.072V212.145Z" fill="#909092"/>
<path d="M117.858 212.145H129.644V223.93H117.858V212.145Z" fill="#909092"/>
<path d="M94.2866 223.928H106.072V235.716H94.2866V223.928Z" fill="#909092"/>
<path d="M82.501 223.927H94.2868V235.713H82.501V223.927Z" fill="#909092"/>
<path d="M212.144 47.1437H223.929V58.929H212.144V47.1437Z" fill="#FEF766"/>
<path d="M223.929 47.1437H235.714V58.929H223.929V47.1437Z" fill="#FEF766"/>
<path d="M235.714 47.1437H247.5V58.929H235.714V47.1437Z" fill="#FEF766"/>
<path d="M247.5 47.1437H259.287V58.929H247.5V47.1437Z" fill="#FEF766"/>
<path d="M200.359 58.9289H212.144V70.7141H200.359V58.9289Z" fill="#FEF766"/>
<path d="M212.144 58.9289H223.929V70.7141H212.144V58.9289Z" fill="#FEF766"/>
<path d="M235.714 58.9289H247.5V70.7141H235.714V58.9289Z" fill="#FEF766"/>
<path d="M247.5 58.9289H259.287V70.7141H247.5V58.9289Z" fill="#FEF766"/>
<path d="M259.287 58.9289H271.073V70.7141H259.287V58.9289Z" fill="#FEF766"/>
<path d="M200.359 70.714H212.144V82.502H200.359V70.714Z" fill="#FEF766"/>
<path d="M247.5 70.714H259.287V82.502H247.5V70.714Z" fill="#FEF766"/>
<path d="M200.359 82.4992H212.144V94.2844H200.359V82.4992Z" fill="#FEF766"/>
<path d="M247.5 82.4992H259.287V94.2844H247.5V82.4992Z" fill="#FEF766"/>
<path d="M200.359 94.2873H212.144V106.073H200.359V94.2873Z" fill="#FEF766"/>
<path d="M212.144 94.2873H223.929V106.073H212.144V94.2873Z" fill="#FEF766"/>
<path d="M235.714 94.2873H247.5V106.073H235.714V94.2873Z" fill="#FEF766"/>
<path d="M247.5 94.2873H259.287V106.073H247.5V94.2873Z" fill="#FEF766"/>
<path d="M259.287 94.2873H271.073V106.073H259.287V94.2873Z" fill="#FEF766"/>
<path d="M188.572 106.072H200.359V117.858H188.572V106.072Z" fill="#FEF766"/>
<path d="M200.359 106.072H212.144V117.858H200.359V106.072Z" fill="#FEF766"/>
<path d="M212.144 106.072H223.929V117.858H212.144V106.072Z" fill="#FEF766"/>
<path d="M223.929 106.072H235.714V117.858H223.929V106.072Z" fill="#FEF766"/>
<path d="M235.714 106.072H247.5V117.858H235.714V106.072Z" fill="#FEF766"/>
<path d="M247.5 106.072H259.287V117.858H247.5V106.072Z" fill="#FEF766"/>
<path d="M259.287 106.072H271.073V117.858H259.287V106.072Z" fill="#FEF766"/>
<path d="M176.786 117.858H188.572V129.643H176.786V117.858Z" fill="#FEF766"/>
<path d="M188.572 117.858H200.359V129.643H188.572V117.858Z" fill="#FEF766"/>
<path d="M200.359 117.858H212.144V129.643H200.359V117.858Z" fill="#FEF766"/>
<path d="M212.144 117.858H223.929V129.643H212.144V117.858Z" fill="#FEF766"/>
<path d="M223.929 117.858H235.714V129.643H223.929V117.858Z" fill="#FEF766"/>
<path d="M235.714 117.858H247.5V129.643H235.714V117.858Z" fill="#FEF766"/>
<path d="M247.5 117.858H259.287V129.643H247.5V117.858Z" fill="#FEF766"/>
<path d="M259.287 117.858H271.073V129.643H259.287V117.858Z" fill="#FEF766"/>
<path d="M271.073 117.858H282.858V129.643H271.073V117.858Z" fill="#FEF766"/>
<path d="M176.786 129.643H188.572V141.428H176.786V129.643Z" fill="#FEF766"/>
<path d="M188.572 129.643H200.359V141.428H188.572V129.643Z" fill="#FEF766"/>
<path d="M200.359 129.643H212.144V141.428H200.359V129.643Z" fill="#FEF766"/>
<path d="M212.144 129.643H223.929V141.428H212.144V129.643Z" fill="#FEF766"/>
<path d="M223.929 129.643H235.714V141.428H223.929V129.643Z" fill="#FEF766"/>
<path d="M235.714 129.643H247.5V141.428H235.714V129.643Z" fill="#FEF766"/>
<path d="M247.5 129.643H259.287V141.428H247.5V129.643Z" fill="#FEF766"/>
<path d="M259.287 129.643H271.073V141.428H259.287V129.643Z" fill="#FEF766"/>
<path d="M176.786 141.428H188.572V153.216H176.786V141.428Z" fill="#FEF766"/>
<path d="M188.572 141.428H200.359V153.216H188.572V141.428Z" fill="#FEF766"/>
<path d="M200.359 141.428H212.144V153.216H200.359V141.428Z" fill="#FEF766"/>
<path d="M212.144 141.428H223.929V153.216H212.144V141.428Z" fill="#FEF766"/>
<path d="M223.929 141.428H235.714V153.216H223.929V141.428Z" fill="#FEF766"/>
<path d="M235.714 141.428H247.5V153.216H235.714V141.428Z" fill="#FEF766"/>
<path d="M247.5 141.428H259.287V153.216H247.5V141.428Z" fill="#FEF766"/>
<path d="M259.287 141.428H271.073V153.216H259.287V141.428Z" fill="#FEF766"/>
<path d="M176.786 153.214H188.572V164.999H176.786V153.214Z" fill="#FEF766"/>
<path d="M188.572 153.214H200.359V164.999H188.572V153.214Z" fill="#FEF766"/>
<path d="M200.359 153.214H212.144V164.999H200.359V153.214Z" fill="#FEF766"/>
<path d="M212.144 153.214H223.929V164.999H212.144V153.214Z" fill="#FEF766"/>
<path d="M223.929 153.214H235.714V164.999H223.929V153.214Z" fill="#FEF766"/>
<path d="M235.714 153.214H247.502V164.999H235.714V153.214Z" fill="#FEF766"/>
<path d="M247.502 153.214H259.287V164.999H247.502V153.214Z" fill="#FEF766"/>
<path d="M259.287 153.214H271.073V164.999H259.287V153.214Z" fill="#FEF766"/>
<path d="M176.786 165.001H188.572V176.787H176.786V165.001Z" fill="#FEF766"/>
<path d="M188.572 165.001H200.359V176.787H188.572V165.001Z" fill="#FEF766"/>
<path d="M200.359 165.001H212.144V176.787H200.359V165.001Z" fill="#FEF766"/>
<path d="M212.144 165.001H223.929V176.787H212.144V165.001Z" fill="#FEF766"/>
<path d="M223.929 165.001H235.714V176.787H223.929V165.001Z" fill="#FEF766"/>
<path d="M235.714 165.001H247.5V176.787H235.714V165.001Z" fill="#FEF766"/>
<path d="M247.5 165.001H259.287V176.787H247.5V165.001Z" fill="#FEF766"/>
<path d="M259.287 165.001H271.073V176.787H259.287V165.001Z" fill="#FEF766"/>
<path d="M271.073 165.001H282.858V176.787H271.073V165.001Z" fill="#FEF766"/>
<path d="M188.572 176.787H200.359V188.572H188.572V176.787Z" fill="#FEF766"/>
<path d="M200.359 176.787H212.144V188.572H200.359V176.787Z" fill="#FEF766"/>
<path d="M212.144 176.787H223.929V188.572H212.144V176.787Z" fill="#FEF766"/>
<path d="M223.929 176.787H235.714V188.572H223.929V176.787Z" fill="#FEF766"/>
<path d="M235.714 176.787H247.5V188.572H235.714V176.787Z" fill="#FEF766"/>
<path d="M247.5 176.787H259.287V188.572H247.5V176.787Z" fill="#FEF766"/>
<path d="M259.287 176.787H271.073V188.572H259.287V176.787Z" fill="#FEF766"/>
<path d="M271.073 176.787H282.858V188.572H271.073V176.787Z" fill="#FEF766"/>
<path d="M188.572 188.575H200.359V200.36H188.572V188.575Z" fill="#FEF766"/>
<path d="M200.359 188.575H212.144V200.36H200.359V188.575Z" fill="#FEF766"/>
<path d="M212.144 188.575H223.929V200.36H212.144V188.575Z" fill="#FEF766"/>
<path d="M223.929 188.575H235.714V200.36H223.929V188.575Z" fill="#FEF766"/>
<path d="M235.714 188.575H247.5V200.36H235.714V188.575Z" fill="#FEF766"/>
<path d="M247.5 188.575H259.287V200.36H247.5V188.575Z" fill="#FEF766"/>
<path d="M259.287 188.575H271.073V200.36H259.287V188.575Z" fill="#FEF766"/>
<path d="M271.073 188.575H282.858V200.36H271.073V188.575Z" fill="#FEF766"/>
<path d="M200.359 200.357H212.144V212.145H200.359V200.357Z" fill="#FEF766"/>
<path d="M212.144 200.357H223.929V212.145H212.144V200.357Z" fill="#FEF766"/>
<path d="M223.929 200.357H235.714V212.145H223.929V200.357Z" fill="#FEF766"/>
<path d="M235.714 200.357H247.5V212.145H235.714V200.357Z" fill="#FEF766"/>
<path d="M247.5 200.357H259.287V212.145H247.5V200.357Z" fill="#FEF766"/>
<path d="M259.287 200.357H271.073V212.145H259.287V200.357Z" fill="#FEF766"/>
<path d="M271.073 200.357H282.858V212.145H271.073V200.357Z" fill="#FEF766"/>
<path d="M200.359 212.145H212.144V223.93H200.359V212.145Z" fill="#FEF766"/>
<path d="M212.144 212.145H223.929V223.93H212.144V212.145Z" fill="#FEF766"/>
<path d="M223.929 212.145H235.714V223.93H223.929V212.145Z" fill="#FEF766"/>
<path d="M235.714 212.145H247.5V223.93H235.714V212.145Z" fill="#FEF766"/>
<path d="M247.5 212.145H259.287V223.93H247.5V212.145Z" fill="#FEF766"/>
<path d="M259.287 212.145H271.073V223.93H259.287V212.145Z" fill="#FEF766"/>
<path d="M271.073 212.145H282.858V223.93H271.073V212.145Z" fill="#FEF766"/>
<path d="M212.144 223.928H223.929V235.716H212.144V223.928Z" fill="#FEF766"/>
<path d="M223.929 223.928H235.714V235.716H223.929V223.928Z" fill="#FEF766"/>
<path d="M235.714 223.928H247.5V235.716H235.714V223.928Z" fill="#FEF766"/>
<path d="M247.5 223.928H259.287V235.716H247.5V223.928Z" fill="#FEF766"/>
<path d="M82.501 247.498H94.2868V259.286H82.501V247.498Z" fill="#353537"/>
<path d="M94.2864 259.289H106.072V271.074H94.2864V259.289Z" fill="#353537"/>
<path d="M106.073 271.071H117.858V282.859H106.073V271.071Z" fill="#353537"/>
<path d="M117.858 271.071H129.644V282.859H117.858V271.071Z" fill="#353537"/>
<path d="M129.644 282.859H141.43V294.644H129.644V282.859Z" fill="#353537"/>
<path d="M141.43 282.859H153.215V294.644H141.43V282.859Z" fill="#353537"/>
<path d="M165.001 176.787H176.786V188.572H165.001V176.787Z" fill="#323136"/>
<path d="M165.001 188.575H176.786V200.36H165.001V188.575Z" fill="#323136"/>
<path d="M153.215 200.357H165.001V212.145H153.215V200.357Z" fill="#323136"/>
<path d="M165.001 200.357H176.786V212.145H165.001V200.357Z" fill="#323136"/>
<path d="M176.786 200.357H188.572V212.145H176.786V200.357Z" fill="#323136"/>
<path d="M141.43 212.142H153.215V223.927H141.43V212.142Z" fill="#323136"/>
<path d="M153.215 212.145H165.001V223.93H153.215V212.145Z" fill="#323136"/>
<path d="M165.001 212.145H176.786V223.93H165.001V212.145Z" fill="#323136"/>
<path d="M176.786 212.145H188.572V223.93H176.786V212.145Z" fill="#323136"/>
<path d="M129.644 223.928H141.43V235.716H129.644V223.928Z" fill="#323136"/>
<path d="M141.43 223.927H153.215V235.713H141.43V223.927Z" fill="#323136"/>
<path d="M153.215 223.928H165.001V235.716H153.215V223.928Z" fill="#323136"/>
<path d="M165.001 223.928H176.786V235.716H165.001V223.928Z" fill="#323136"/>
<path d="M176.786 223.928H188.572V235.716H176.786V223.928Z" fill="#323136"/>
<path d="M188.572 223.928H200.359V235.716H188.572V223.928Z" fill="#323136"/>
<path d="M106.073 235.716H117.858V247.501H106.073V235.716Z" fill="#323136"/>
<path d="M117.858 235.716H129.644V247.501H117.858V235.716Z" fill="#323136"/>
<path d="M129.644 235.716H141.43V247.501H129.644V235.716Z" fill="#323136"/>
<path d="M141.43 235.716H153.215V247.501H141.43V235.716Z" fill="#323136"/>
<path d="M153.215 235.716H165.001V247.501H153.215V235.716Z" fill="#323136"/>
<path d="M165.001 235.716H176.786V247.501H165.001V235.716Z" fill="#323136"/>
<path d="M176.786 235.716H188.572V247.501H176.786V235.716Z" fill="#323136"/>
<path d="M188.572 235.716H200.359V247.501H188.572V235.716Z" fill="#323136"/>
<path d="M200.359 235.716H212.144V247.501H200.359V235.716Z" fill="#323136"/>
<path d="M259.287 235.716H271.073V247.501H259.287V235.716Z" fill="#323136"/>
<path d="M271.073 235.716H282.858V247.501H271.073V235.716Z" fill="#323136"/>
<path d="M94.2866 247.501H106.072V259.286H94.2866V247.501Z" fill="#323136"/>
<path d="M106.073 247.501H117.858V259.286H106.073V247.501Z" fill="#323136"/>
<path d="M117.858 247.501H129.644V259.286H117.858V247.501Z" fill="#323136"/>
<path d="M129.644 247.501H141.43V259.286H129.644V247.501Z" fill="#323136"/>
<path d="M141.43 247.498H153.215V259.286H141.43V247.498Z" fill="#323136"/>
<path d="M153.215 247.501H165.001V259.286H153.215V247.501Z" fill="#323136"/>
<path d="M165.001 247.501H176.786V259.286H165.001V247.501Z" fill="#323136"/>
<path d="M176.786 247.501H188.572V259.286H176.786V247.501Z" fill="#323136"/>
<path d="M188.572 247.501H200.359V259.286H188.572V247.501Z" fill="#323136"/>
<path d="M200.359 247.501H212.144V259.286H200.359V247.501Z" fill="#323136"/>
<path d="M212.144 247.501H223.929V259.286H212.144V247.501Z" fill="#323136"/>
<path d="M223.929 247.501H235.714V259.286H223.929V247.501Z" fill="#323136"/>
<path d="M235.714 247.501H247.502V259.286H235.714V247.501Z" fill="#323136"/>
<path d="M247.502 247.501H259.287V259.286H247.502V247.501Z" fill="#323136"/>
<path d="M259.287 247.501H271.073V259.286H259.287V247.501Z" fill="#323136"/>
<path d="M106.072 259.289H117.858V271.074H106.072V259.289Z" fill="#323136"/>
<path d="M117.858 259.289H129.644V271.074H117.858V259.289Z" fill="#323136"/>
<path d="M129.644 259.289H141.43V271.074H129.644V259.289Z" fill="#323136"/>
<path d="M141.43 259.286H153.215V271.071H141.43V259.286Z" fill="#323136"/>
<path d="M153.215 259.289H165.001V271.074H153.215V259.289Z" fill="#323136"/>
<path d="M165.001 259.289H176.786V271.074H165.001V259.289Z" fill="#323136"/>
<path d="M176.786 259.289H188.572V271.074H176.786V259.289Z" fill="#323136"/>
<path d="M188.572 259.289H200.359V271.074H188.572V259.289Z" fill="#323136"/>
<path d="M200.359 259.289H212.144V271.074H200.359V259.289Z" fill="#323136"/>
<path d="M212.144 259.289H223.929V271.074H212.144V259.289Z" fill="#323136"/>
<path d="M223.929 259.289H235.714V271.074H223.929V259.289Z" fill="#323136"/>
<path d="M235.714 259.289H247.5V271.074H235.714V259.289Z" fill="#323136"/>
<path d="M247.5 259.289H259.287V271.074H247.5V259.289Z" fill="#323136"/>
<path d="M259.287 259.289H271.073V271.074H259.287V259.289Z" fill="#323136"/>
<path d="M129.644 271.071H141.43V282.859H129.644V271.071Z" fill="#323136"/>
<path d="M141.43 271.071H153.215V282.856H141.43V271.071Z" fill="#323136"/>
<path d="M153.215 271.071H165.001V282.859H153.215V271.071Z" fill="#323136"/>
<path d="M165.001 271.071H176.786V282.859H165.001V271.071Z" fill="#323136"/>
<path d="M176.786 271.071H188.572V282.859H176.786V271.071Z" fill="#323136"/>
<path d="M188.572 271.071H200.359V282.859H188.572V271.071Z" fill="#323136"/>
<path d="M200.359 271.071H212.144V282.859H200.359V271.071Z" fill="#323136"/>
<path d="M212.144 271.071H223.929V282.859H212.144V271.071Z" fill="#323136"/>
<path d="M223.929 271.071H235.714V282.859H223.929V271.071Z" fill="#323136"/>
<path d="M235.714 271.071H247.5V282.859H235.714V271.071Z" fill="#323136"/>
<path d="M247.5 271.071H259.287V282.859H247.5V271.071Z" fill="#323136"/>
<path d="M165.001 282.859H176.786V294.644H165.001V282.859Z" fill="#323136"/>
<path d="M188.572 282.859H200.359V294.644H188.572V282.859Z" fill="#323136"/>
<path d="M200.359 282.859H212.144V294.644H200.359V282.859Z" fill="#323136"/>
<path d="M212.144 282.859H223.929V294.644H212.144V282.859Z" fill="#323136"/>
<path d="M223.929 282.859H235.714V294.644H223.929V282.859Z" fill="#323136"/>
<path d="M47.1433 247.501H58.9291V259.286H47.1433V247.501Z" fill="#2F2E34"/>
<path d="M58.929 247.501H70.7147V259.286H58.929V247.501Z" fill="#2F2E34"/>
<path d="M11.7854 259.289H23.5714V271.074H11.7854V259.289Z" fill="#2F2E34"/>
<path d="M23.5715 259.289H35.3573V271.074H23.5715V259.289Z" fill="#2F2E34"/>
<path d="M35.3572 259.289H47.1429V271.074H35.3572V259.289Z" fill="#2F2E34"/>
<path d="M70.7146 259.289H82.5001V271.074H70.7146V259.289Z" fill="#2F2E34"/>
<path d="M58.929 271.071H70.7147V282.859H58.929V271.071Z" fill="#2F2E34"/>
<path d="M23.5715 282.859H35.3573V294.644H23.5715V282.859Z" fill="#2F2E34"/>
<path d="M35.3572 282.859H47.1429V294.644H35.3572V282.859Z" fill="#2F2E34"/>
<path d="M47.1431 282.859H58.9288V294.644H47.1431V282.859Z" fill="#2F2E34"/>
<path d="M82.501 282.859H94.2868V294.644H82.501V282.859Z" fill="#2F2E34"/>
<path d="M70.7148 294.644H82.5003V306.429H70.7148V294.644Z" fill="#2F2E34"/>
<path d="M47.1431 306.43H58.9288V318.215H47.1431V306.43Z" fill="#2F2E34"/>
<path d="M58.929 306.43H70.7147V318.215H58.929V306.43Z" fill="#2F2E34"/>
<path d="M47.1431 259.289H58.9288V271.074H47.1431V259.289Z" fill="#909098"/>
<path d="M11.7859 271.071H23.5717V282.859H11.7859V271.071Z" fill="#909098"/>
<path d="M70.7146 271.071H82.5001V282.859H70.7146V271.071Z" fill="#909098"/>
<path d="M58.929 282.859H70.7147V294.644H58.929V282.859Z" fill="#909098"/>
<path d="M94.2866 282.859H106.072V294.644H94.2866V282.859Z" fill="#909098"/>
<path d="M35.3577 294.644H47.1434V306.429H35.3577V294.644Z" fill="#909098"/>
<path d="M82.501 294.641H94.2868V306.429H82.501V294.641Z" fill="#909098"/>
<path d="M70.7146 306.43H82.5001V318.215H70.7146V306.43Z" fill="#909098"/>
<path d="M153.215 294.644H165.001V306.429H153.215V294.644Z" fill="#B0C8DF"/>
<path d="M176.786 294.644H188.572V306.429H176.786V294.644Z" fill="#B0C8DF"/>
<path d="M235.714 294.644H247.502V306.429H235.714V294.644Z" fill="#B0C8DF"/>
<path d="M153.215 306.43H165.001V318.215H153.215V306.43Z" fill="#B0C8DF"/>
<path d="M176.786 306.43H188.572V318.215H176.786V306.43Z" fill="#B0C8DF"/>
<path d="M223.929 306.43H235.714V318.215H223.929V306.43Z" fill="#B0C8DF"/>
<path d="M271.073 47.1437H282.858V58.929H271.073V47.1437Z" fill="black"/>
<path d="M271.073 58.9289H282.858V70.7141H271.073V58.9289Z" fill="black"/>
<path d="M259.287 70.714H271.073V82.502H259.287V70.714Z" fill="black"/>
<path d="M282.858 23.5704H294.643V35.3584H282.858V23.5704Z" fill="black"/>
<path d="M294.643 23.5704H306.431V35.3584H294.643V23.5704Z" fill="black"/>
<path d="M318.216 23.5704H330.002V35.3584H318.216V23.5704Z" fill="black"/>
<path d="M306.431 23.5705H318.216V35.3557H306.431V23.5705Z" fill="black"/>
<path d="M271.073 35.3556H282.858V47.1409H271.073V35.3556Z" fill="black"/>
<path d="M330.002 35.3556H341.787V47.1409H330.002V35.3556Z" fill="black"/>
<path d="M341.787 35.3556H353.572V47.1409H341.787V35.3556Z" fill="black"/>
<path d="M353.572 35.3556H365.36V47.1409H353.572V35.3556Z" fill="black"/>
<path d="M365.36 35.3556H377.145V47.1409H365.36V35.3556Z" fill="black"/>
<path d="M377.145 47.1437H388.93V58.929H377.145V47.1437Z" fill="black"/>
<path d="M388.93 58.9289H400.716V70.7141H388.93V58.9289Z" fill="black"/>
<path d="M365.36 70.714H377.145V82.502H365.36V70.714Z" fill="black"/>
<path d="M377.145 70.714H388.93V82.502H377.145V70.714Z" fill="black"/>
<path d="M388.93 70.714H400.716V82.502H388.93V70.714Z" fill="black"/>
<path d="M400.716 70.714H412.501V82.502H400.716V70.714Z" fill="black"/>
<path d="M259.287 82.4992H271.073V94.2844H259.287V82.4992Z" fill="black"/>
<path d="M318.216 82.4992H330.002V94.2844H318.216V82.4992Z" fill="black"/>
<path d="M330.002 82.4992H341.787V94.2844H330.002V82.4992Z" fill="black"/>
<path d="M341.787 82.4992H353.572V94.2844H341.787V82.4992Z" fill="black"/>
<path d="M353.572 82.4992H365.36V94.2844H353.572V82.4992Z" fill="black"/>
<path d="M388.93 82.4992H400.716V94.2844H388.93V82.4992Z" fill="black"/>
<path d="M400.716 82.4992H412.501V94.2844H400.716V82.4992Z" fill="black"/>
<path d="M271.073 94.2873H282.858V106.073H271.073V94.2873Z" fill="black"/>
<path d="M282.858 94.2873H294.643V106.073H282.858V94.2873Z" fill="black"/>
<path d="M294.643 94.2873H306.431V106.073H294.643V94.2873Z" fill="black"/>
<path d="M306.431 94.2846H318.216V106.073H306.431V94.2846Z" fill="black"/>
<path d="M365.36 94.2873H377.145V106.073H365.36V94.2873Z" fill="black"/>
<path d="M377.145 94.2873H388.93V106.073H377.145V94.2873Z" fill="black"/>
<path d="M271.073 106.072H282.858V117.858H271.073V106.072Z" fill="black"/>
<path d="M330.002 106.072H341.787V117.858H330.002V106.072Z" fill="black"/>
<path d="M341.787 106.072H353.572V117.858H341.787V106.072Z" fill="black"/>
<path d="M353.572 106.072H365.36V117.858H353.572V106.072Z" fill="black"/>
<path d="M282.858 117.858H294.643V129.643H282.858V117.858Z" fill="black"/>
<path d="M294.643 117.858H306.431V129.643H294.643V117.858Z" fill="black"/>
<path d="M318.216 117.858H330.002V129.643H318.216V117.858Z" fill="black"/>
<path d="M306.431 117.855H318.216V129.643H306.431V117.855Z" fill="black"/>
<path d="M188.572 -7.74368e-05H200.359V11.7852H188.572V-7.74368e-05Z" fill="black"/>
<path d="M200.359 -7.74368e-05H212.144V11.7852H200.359V-7.74368e-05Z" fill="black"/>
<path d="M212.144 -7.74368e-05H223.929V11.7852H212.144V-7.74368e-05Z" fill="black"/>
<path d="M223.929 -7.74368e-05H235.714V11.7852H223.929V-7.74368e-05Z" fill="black"/>
<path d="M235.714 -7.74368e-05H247.5V11.7852H235.714V-7.74368e-05Z" fill="black"/>
<path d="M247.5 -7.74368e-05H259.287V11.7852H247.5V-7.74368e-05Z" fill="black"/>
<path d="M165.001 11.7851H176.786V23.5703H165.001V11.7851Z" fill="black"/>
<path d="M176.786 11.7851H188.572V23.5703H176.786V11.7851Z" fill="black"/>
<path d="M259.287 11.7851H271.073V23.5703H259.287V11.7851Z" fill="black"/>
<path d="M153.215 23.5704H165.001V35.3584H153.215V23.5704Z" fill="black"/>
<path d="M271.073 23.5704H282.858V35.3584H271.073V23.5704Z" fill="black"/>
<path d="M141.43 35.3556H153.215V47.1409H141.43V35.3556Z" fill="black"/>
<path d="M212.144 35.3556H223.929V47.1409H212.144V35.3556Z" fill="black"/>
<path d="M223.929 35.3556H235.714V47.1409H223.929V35.3556Z" fill="black"/>
<path d="M235.714 35.3556H247.5V47.1409H235.714V35.3556Z" fill="black"/>
<path d="M247.5 35.3556H259.287V47.1409H247.5V35.3556Z" fill="black"/>
<path d="M129.644 47.1437H141.43V58.929H129.644V47.1437Z" fill="black"/>
<path d="M200.359 47.1437H212.144V58.929H200.359V47.1437Z" fill="black"/>
<path d="M259.287 47.1437H271.073V58.929H259.287V47.1437Z" fill="black"/>
<path d="M129.644 58.9289H141.43V70.7141H129.644V58.9289Z" fill="black"/>
<path d="M188.572 58.9289H200.359V70.7141H188.572V58.9289Z" fill="black"/>
<path d="M117.858 70.714H129.644V82.502H117.858V70.714Z" fill="black"/>
<path d="M188.572 70.714H200.359V82.502H188.572V70.714Z" fill="black"/>
<path d="M117.858 82.4992H129.644V94.2844H117.858V82.4992Z" fill="black"/>
<path d="M188.572 82.4992H200.359V94.2844H188.572V82.4992Z" fill="black"/>
<path d="M106.072 94.2873H117.858V106.073H106.072V94.2873Z" fill="black"/>
<path d="M188.572 94.2873H200.359V106.073H188.572V94.2873Z" fill="black"/>
<path d="M94.2866 106.072H106.072V117.858H94.2866V106.072Z" fill="black"/>
<path d="M176.786 106.072H188.572V117.858H176.786V106.072Z" fill="black"/>
<path d="M94.2864 117.858H106.072V129.643H94.2864V117.858Z" fill="black"/>
<path d="M165.001 117.858H176.786V129.643H165.001V117.858Z" fill="black"/>
<path d="M82.501 129.64H94.2868V141.426H82.501V129.64Z" fill="black"/>
<path d="M165.001 129.643H176.786V141.428H165.001V129.643Z" fill="black"/>
<path d="M82.501 141.428H94.2868V153.213H82.501V141.428Z" fill="black"/>
<path d="M165.001 141.428H176.786V153.216H165.001V141.428Z" fill="black"/>
<path d="M70.7148 153.214H82.5003V164.999H70.7148V153.214Z" fill="black"/>
<path d="M165.001 153.214H176.786V164.999H165.001V153.214Z" fill="black"/>
<path d="M58.929 165.001H70.7147V176.787H58.929V165.001Z" fill="black"/>
<path d="M165 165.001H176.786V176.787H165V165.001Z" fill="black"/>
<path d="M47.1431 176.787H58.9288V188.572H47.1431V176.787Z" fill="black"/>
<path d="M153.215 176.787H165.001V188.572H153.215V176.787Z" fill="black"/>
<path d="M35.3572 188.575H47.1429V200.36H35.3572V188.575Z" fill="black"/>
<path d="M153.215 188.575H165.001V200.36H153.215V188.575Z" fill="black"/>
<path d="M23.5715 200.357H35.3573V212.145H23.5715V200.357Z" fill="black"/>
<path d="M141.43 200.357H153.215V212.142H141.43V200.357Z" fill="black"/>
<path d="M11.7854 212.145H23.5714V223.93H11.7854V212.145Z" fill="black"/>
<path d="M129.644 212.145H141.43V223.93H129.644V212.145Z" fill="black"/>
<path d="M23.5715 223.928H35.3573V235.716H23.5715V223.928Z" fill="black"/>
<path d="M35.3572 223.928H47.1429V235.716H35.3572V223.928Z" fill="black"/>
<path d="M106.073 223.928H117.858V235.716H106.073V223.928Z" fill="black"/>
<path d="M117.858 223.928H129.644V235.716H117.858V223.928Z" fill="black"/>
<path d="M47.1431 235.716H58.9288V247.501H47.1431V235.716Z" fill="black"/>
<path d="M58.929 235.716H70.7147V247.501H58.929V235.716Z" fill="black"/>
<path d="M70.7146 235.716H82.5001V247.501H70.7146V235.716Z" fill="black"/>
<path d="M94.2866 235.716H106.072V247.501H94.2866V235.716Z" fill="black"/>
<path d="M82.501 235.716H94.2868V247.501H82.501V235.716Z" fill="black"/>
<path d="M271.073 129.643H282.858V141.428H271.073V129.643Z" fill="black"/>
<path d="M271.073 141.428H282.858V153.216H271.073V141.428Z" fill="black"/>
<path d="M271.073 153.214H282.858V164.999H271.073V153.214Z" fill="black"/>
<path d="M282.858 165.001H294.643V176.787H282.858V165.001Z" fill="black"/>
<path d="M176.786 176.787H188.572V188.572H176.786V176.787Z" fill="black"/>
<path d="M282.858 176.787H294.643V188.572H282.858V176.787Z" fill="black"/>
<path d="M176.786 188.575H188.572V200.36H176.786V188.575Z" fill="black"/>
<path d="M282.858 188.575H294.643V200.36H282.858V188.575Z" fill="black"/>
<path d="M188.572 200.357H200.359V212.145H188.572V200.357Z" fill="black"/>
<path d="M282.858 200.357H294.643V212.145H282.858V200.357Z" fill="black"/>
<path d="M188.572 212.145H200.359V223.93H188.572V212.145Z" fill="black"/>
<path d="M282.858 212.145H294.643V223.93H282.858V212.145Z" fill="black"/>
<path d="M200.359 223.928H212.144V235.716H200.359V223.928Z" fill="black"/>
<path d="M259.287 223.928H271.073V235.716H259.287V223.928Z" fill="black"/>
<path d="M271.073 223.928H282.858V235.716H271.073V223.928Z" fill="black"/>
<path d="M212.144 235.716H223.929V247.501H212.144V235.716Z" fill="black"/>
<path d="M223.929 235.716H235.714V247.501H223.929V235.716Z" fill="black"/>
<path d="M235.714 235.716H247.5V247.501H235.714V235.716Z" fill="black"/>
<path d="M247.5 235.716H259.287V247.501H247.5V235.716Z" fill="black"/>
<path d="M11.7859 247.501H23.5717V259.286H11.7859V247.501Z" fill="black"/>
<path d="M23.5715 247.501H35.3573V259.286H23.5715V247.501Z" fill="black"/>
<path d="M35.3577 247.501H47.1434V259.286H35.3577V247.501Z" fill="black"/>
<path d="M70.7148 247.501H82.5003V259.286H70.7148V247.501Z" fill="black"/>
<path d="M0 259.289H11.7855V271.074H0V259.289Z" fill="black"/>
<path d="M58.929 259.289H70.7147V271.074H58.929V259.289Z" fill="black"/>
<path d="M82.5007 259.286H94.2865V271.071H82.5007V259.286Z" fill="black"/>
<path d="M0 271.071H11.7858V282.859H0V271.071Z" fill="black"/>
<path d="M23.5715 271.071H35.3573V282.859H23.5715V271.071Z" fill="black"/>
<path d="M35.3572 271.071H47.1429V282.859H35.3572V271.071Z" fill="black"/>
<path d="M47.1431 271.071H58.9288V282.859H47.1431V271.071Z" fill="black"/>
<path d="M94.2866 271.071H106.072V282.859H94.2866V271.071Z" fill="black"/>
<path d="M82.501 271.071H94.2868V282.856H82.501V271.071Z" fill="black"/>
<path d="M11.7859 282.859H23.5717V294.644H11.7859V282.859Z" fill="black"/>
<path d="M70.7146 282.859H82.5001V294.644H70.7146V282.859Z" fill="black"/>
<path d="M106.073 282.859H117.858V294.644H106.073V282.859Z" fill="black"/>
<path d="M117.858 282.859H129.644V294.644H117.858V282.859Z" fill="black"/>
<path d="M11.7859 294.644H23.5717V306.429H11.7859V294.644Z" fill="black"/>
<path d="M23.5715 294.644H35.3573V306.429H23.5715V294.644Z" fill="black"/>
<path d="M47.1433 294.644H58.9291V306.429H47.1433V294.644Z" fill="black"/>
<path d="M58.929 294.644H70.7147V306.429H58.929V294.644Z" fill="black"/>
<path d="M94.2866 294.644H106.072V306.429H94.2866V294.644Z" fill="black"/>
<path d="M129.644 294.644H141.43V306.429H129.644V294.644Z" fill="black"/>
<path d="M35.3572 306.43H47.1429V318.215H35.3572V306.43Z" fill="black"/>
<path d="M82.501 306.43H94.2868V318.215H82.501V306.43Z" fill="black"/>
<path d="M47.1433 318.215H58.9291V330H47.1433V318.215Z" fill="black"/>
<path d="M58.929 318.215H70.7147V330H58.929V318.215Z" fill="black"/>
<path d="M70.7148 318.215H82.5003V330H70.7148V318.215Z" fill="black"/>
<path d="M282.858 223.928H294.643V235.716H282.858V223.928Z" fill="black"/>
<path d="M282.858 235.716H294.643V247.501H282.858V235.716Z" fill="black"/>
<path d="M271.073 247.501H282.858V259.286H271.073V247.501Z" fill="black"/>
<path d="M271.073 259.289H282.858V271.074H271.073V259.289Z" fill="black"/>
<path d="M259.287 271.071H271.073V282.859H259.287V271.071Z" fill="black"/>
<path d="M153.215 282.859H165.001V294.644H153.215V282.859Z" fill="black"/>
<path d="M176.786 282.859H188.572V294.644H176.786V282.859Z" fill="black"/>
<path d="M235.714 282.859H247.5V294.644H235.714V282.859Z" fill="black"/>
<path d="M247.5 282.859H259.287V294.644H247.5V282.859Z" fill="black"/>
<path d="M141.43 294.641H153.215V306.429H141.43V294.641Z" fill="black"/>
<path d="M165.001 294.644H176.786V306.429H165.001V294.644Z" fill="black"/>
<path d="M188.572 294.644H200.359V306.429H188.572V294.644Z" fill="black"/>
<path d="M200.359 294.644H212.144V306.429H200.359V294.644Z" fill="black"/>
<path d="M212.144 294.644H223.929V306.429H212.144V294.644Z" fill="black"/>
<path d="M223.929 294.644H235.714V306.429H223.929V294.644Z" fill="black"/>
<path d="M247.502 294.644H259.287V306.429H247.502V294.644Z" fill="black"/>
<path d="M141.43 306.43H153.215V318.215H141.43V306.43Z" fill="black"/>
<path d="M165.001 306.43H176.786V318.215H165.001V306.43Z" fill="black"/>
<path d="M188.572 306.43H200.359V318.215H188.572V306.43Z" fill="black"/>
<path d="M212.144 306.43H223.929V318.215H212.144V306.43Z" fill="black"/>
<path d="M235.714 306.43H247.5V318.215H235.714V306.43Z" fill="black"/>
<path d="M247.5 306.43H259.287V318.215H247.5V306.43Z" fill="black"/>
<path d="M153.215 318.215H165.001V330H153.215V318.215Z" fill="black"/>
<path d="M165.001 318.215H176.786V330H165.001V318.215Z" fill="black"/>
<path d="M176.786 318.215H188.572V330H176.786V318.215Z" fill="black"/>
<path d="M188.572 318.215H200.359V330H188.572V318.215Z" fill="black"/>
<path d="M223.929 318.215H235.714V330H223.929V318.215Z" fill="black"/>
<path d="M235.714 318.215H247.502V330H235.714V318.215Z" fill="black"/>
</svg>
