<svg width="250" height="140" viewBox="0 0 250 140" fill="none" xmlns="http://www.w3.org/2000/svg">
<path d="M55.999 34.999H62.9989V42H55.999V34.999Z" fill="white"/>
<path d="M48.999 42.0002H55.999V49H48.999V42.0002Z" fill="white"/>
<path d="M48.999 27.9992H55.999V34.999H48.999V27.9992Z" fill="white"/>
<path d="M55.999 27.9992H62.9989V34.999H55.999V27.9992Z" fill="white"/>
<path d="M62.9985 27.9992H69.9985V34.999H62.9985V27.9992Z" fill="white"/>
<path d="M83.9985 27.9992H90.9984V34.999H83.9985V27.9992Z" fill="white"/>
<path d="M131 27.9992H138V34.999H131V27.9992Z" fill="white"/>
<path d="M180 27.9992H187V34.999H180V27.9992Z" fill="white"/>
<path d="M90.9983 27.9992H97.9981V34.999H90.9983V27.9992Z" fill="white"/>
<path d="M138 27.9992H145V34.999H138V27.9992Z" fill="white"/>
<path d="M187 27.9992H194V34.999H187V27.9992Z" fill="white"/>
<path d="M97.9983 27.9992H104.998V34.999H97.9983V27.9992Z" fill="white"/>
<path d="M145 27.9992H152V34.999H145V27.9992Z" fill="white"/>
<path d="M194 27.9992H201V34.999H194V27.9992Z" fill="white"/>
<path d="M41.999 34.999H48.9991V42H41.999V34.999Z" fill="white"/>
<path d="M48.999 34.999H55.999V42H48.999V34.999Z" fill="white"/>
<path d="M62.9985 34.999H69.9985V42H62.9985V34.999Z" fill="white"/>
<path d="M69.9985 34.999H76.9985V42H69.9985V34.999Z" fill="white"/>
<path d="M117 34.999H124V42H117V34.999Z" fill="white"/>
<path d="M166 34.999H173V42H166V34.999Z" fill="white"/>
<path d="M76.9983 34.999H83.9984V42H76.9983V34.999Z" fill="white"/>
<path d="M124 34.999H131V42H124V34.999Z" fill="white"/>
<path d="M173 34.999H180V42H173V34.999Z" fill="white"/>
<path d="M83.9985 34.999H90.9984V42H83.9985V34.999Z" fill="white"/>
<path d="M131 34.999H138V42H131V34.999Z" fill="white"/>
<path d="M180 34.999H187V42H180V34.999Z" fill="white"/>
<path d="M90.9983 34.999H97.9981V42H90.9983V34.999Z" fill="white"/>
<path d="M138 34.999H145V42H138V34.999Z" fill="white"/>
<path d="M187 34.999H194V42H187V34.999Z" fill="white"/>
<path d="M97.9983 34.999H104.998V42H97.9983V34.999Z" fill="white"/>
<path d="M145 34.999H152V42H145V34.999Z" fill="white"/>
<path d="M194 34.999H201V42H194V34.999Z" fill="white"/>
<path d="M104.998 34.999H111.998V42H104.998V34.999Z" fill="white"/>
<path d="M152 34.999H159V42H152V34.999Z" fill="white"/>
<path d="M201 34.999H208V42H201V34.999Z" fill="white"/>
<path d="M34.9993 42.0002H41.9991V49H34.9993V42.0002Z" fill="white"/>
<path d="M41.999 42.0002H48.9991V49H41.999V42.0002Z" fill="white"/>
<path d="M55.999 42.0002H62.9989V49H55.999V42.0002Z" fill="white"/>
<path d="M62.9985 42.0002H69.9985V49H62.9985V42.0002Z" fill="white"/>
<path d="M69.9985 42.0002H76.9985V49H69.9985V42.0002Z" fill="white"/>
<path d="M117 42.0002H124V49H117V42.0002Z" fill="white"/>
<path d="M166 42.0002H173V49H166V42.0002Z" fill="white"/>
<path d="M76.9983 42.0002H83.9984V49H76.9983V42.0002Z" fill="white"/>
<path d="M124 42.0002H131V49H124V42.0002Z" fill="white"/>
<path d="M173 42.0002H180V49H173V42.0002Z" fill="white"/>
<path d="M83.9985 42.0002H90.9984V49H83.9985V42.0002Z" fill="white"/>
<path d="M131 42.0002H138V49H131V42.0002Z" fill="white"/>
<path d="M180 42.0002H187V49H180V42.0002Z" fill="white"/>
<path d="M90.9983 42.0002H97.9981V49H90.9983V42.0002Z" fill="white"/>
<path d="M138 42.0002H145V49H138V42.0002Z" fill="white"/>
<path d="M187 42.0002H194V49H187V42.0002Z" fill="white"/>
<path d="M97.9983 42.0002H104.998V49H97.9983V42.0002Z" fill="white"/>
<path d="M145 42.0002H152V49H145V42.0002Z" fill="white"/>
<path d="M194 42.0002H201V49H194V42.0002Z" fill="white"/>
<path d="M104.998 42.0002H111.998V49H104.998V42.0002Z" fill="white"/>
<path d="M152 42.0002H159V49H152V42.0002Z" fill="white"/>
<path d="M201 42.0002H208V49H201V42.0002Z" fill="white"/>
<path d="M111.998 42.0002H118.998V49H111.998V42.0002Z" fill="white"/>
<path d="M159 42.0002H165.999V49H159V42.0002Z" fill="white"/>
<path d="M208 42.0002H214.999V49H208V42.0002Z" fill="white"/>
<path d="M34.9993 49.0002H41.9993V56H34.9993V49.0002Z" fill="white"/>
<path d="M41.9993 49.0002H48.9992V56H41.9993V49.0002Z" fill="white"/>
<path d="M48.9993 49.0002H55.9991V56H48.9993V49.0002Z" fill="white"/>
<path d="M55.999 49.0002H62.9987V56H55.999V49.0002Z" fill="white"/>
<path d="M62.9988 49.0002H69.9987V56H62.9988V49.0002Z" fill="white"/>
<path d="M69.9985 49.0002H76.9986V56H69.9985V49.0002Z" fill="white"/>
<path d="M117 49.0002H124V56H117V49.0002Z" fill="white"/>
<path d="M166 49.0002H173V56H166V49.0002Z" fill="white"/>
<path d="M76.9983 49.0002H83.9984V56H76.9983V49.0002Z" fill="white"/>
<path d="M124 49.0002H131V56H124V49.0002Z" fill="white"/>
<path d="M173 49.0002H180V56H173V49.0002Z" fill="white"/>
<path d="M83.9985 49.0002H90.9984V56H83.9985V49.0002Z" fill="white"/>
<path d="M131 49.0002H138V56H131V49.0002Z" fill="white"/>
<path d="M180 49.0002H187V56H180V49.0002Z" fill="white"/>
<path d="M90.9983 49.0002H97.9981V56H90.9983V49.0002Z" fill="white"/>
<path d="M138 49.0002H145V56H138V49.0002Z" fill="white"/>
<path d="M187 49.0002H194V56H187V49.0002Z" fill="white"/>
<path d="M97.9983 49.0002H104.998V56H97.9983V49.0002Z" fill="white"/>
<path d="M145 49.0002H152V56H145V49.0002Z" fill="white"/>
<path d="M194 49.0002H201V56H194V49.0002Z" fill="white"/>
<path d="M104.998 49.0002H111.998V56H104.998V49.0002Z" fill="white"/>
<path d="M152 49.0002H159V56H152V49.0002Z" fill="white"/>
<path d="M201 49.0002H208V56H201V49.0002Z" fill="white"/>
<path d="M111.998 49.0002H118.998V56H111.998V49.0002Z" fill="white"/>
<path d="M159 49.0002H165.999V56H159V49.0002Z" fill="white"/>
<path d="M208 49.0002H214.999V56H208V49.0002Z" fill="white"/>
<path d="M41.9993 55.9997H48.9991V62.9995H41.9993V55.9997Z" fill="white"/>
<path d="M48.999 55.9997H55.999V62.9995H48.999V55.9997Z" fill="white"/>
<path d="M55.999 55.9997H62.9987V62.9995H55.999V55.9997Z" fill="white"/>
<path d="M62.9988 55.9997H69.9987V62.9995H62.9988V55.9997Z" fill="white"/>
<path d="M69.9985 55.9997H76.9984V62.9995H69.9985V55.9997Z" fill="white"/>
<path d="M117 55.9997H124V62.9995H117V55.9997Z" fill="white"/>
<path d="M166 55.9997H173V62.9995H166V55.9997Z" fill="white"/>
<path d="M76.9983 55.9997H83.9984V62.9995H76.9983V55.9997Z" fill="white"/>
<path d="M124 55.9997H131V62.9995H124V55.9997Z" fill="white"/>
<path d="M173 55.9997H180V62.9995H173V55.9997Z" fill="white"/>
<path d="M83.9985 55.9997H90.9984V62.9995H83.9985V55.9997Z" fill="white"/>
<path d="M131 55.9997H138V62.9995H131V55.9997Z" fill="white"/>
<path d="M180 55.9997H187V62.9995H180V55.9997Z" fill="white"/>
<path d="M90.9983 55.9997H97.9981V62.9995H90.9983V55.9997Z" fill="white"/>
<path d="M138 55.9997H145V62.9995H138V55.9997Z" fill="white"/>
<path d="M187 55.9997H194V62.9995H187V55.9997Z" fill="white"/>
<path d="M97.9983 55.9997H104.998V62.9995H97.9983V55.9997Z" fill="white"/>
<path d="M145 55.9997H152V62.9995H145V55.9997Z" fill="white"/>
<path d="M194 55.9997H201V62.9995H194V55.9997Z" fill="white"/>
<path d="M104.998 55.9997H111.998V62.9995H104.998V55.9997Z" fill="white"/>
<path d="M152 55.9997H159V62.9995H152V55.9997Z" fill="white"/>
<path d="M201 55.9997H208V62.9995H201V55.9997Z" fill="white"/>
<path d="M48.999 62.9997H55.999V69.9995H48.999V62.9997Z" fill="white"/>
<path d="M55.999 62.9997H62.9987V69.9995H55.999V62.9997Z" fill="white"/>
<path d="M62.9988 62.9997H69.9987V69.9995H62.9988V62.9997Z" fill="white"/>
<path d="M69.9985 62.9992H76.9984V69.999H69.9985V62.9992Z" fill="white"/>
<path d="M117 62.9992H124V69.999H117V62.9992Z" fill="white"/>
<path d="M166 62.9997H173V69.9995H166V62.9997Z" fill="white"/>
<path d="M76.9983 62.9992H83.9984V69.999H76.9983V62.9992Z" fill="white"/>
<path d="M124 62.9992H131V69.999H124V62.9992Z" fill="white"/>
<path d="M173 62.9997H180V69.9995H173V62.9997Z" fill="white"/>
<path d="M83.9985 62.9992H90.9984V69.999H83.9985V62.9992Z" fill="white"/>
<path d="M131 62.9992H138V69.999H131V62.9992Z" fill="white"/>
<path d="M180 62.9997H187V69.9995H180V62.9997Z" fill="white"/>
<path d="M90.9983 62.9992H97.9981V69.999H90.9983V62.9992Z" fill="white"/>
<path d="M138 62.9992H145V69.999H138V62.9992Z" fill="white"/>
<path d="M187 62.9997H194V69.9995H187V62.9997Z" fill="white"/>
<path d="M97.9983 62.9992H104.998V69.999H97.9983V62.9992Z" fill="white"/>
<path d="M145 62.9992H152V69.999H145V62.9992Z" fill="white"/>
<path d="M194 62.9997H201V69.9995H194V62.9997Z" fill="white"/>
<path d="M55.999 69.9992H62.9989V76.999H55.999V69.9992Z" fill="white"/>
<path d="M62.9988 69.9992H69.9987V76.999H62.9988V69.9992Z" fill="white"/>
<path d="M69.9985 69.9992H76.9984V76.999H69.9985V69.9992Z" fill="white"/>
<path d="M117 69.9992H124V76.999H117V69.9992Z" fill="white"/>
<path d="M166 69.9992H173V76.999H166V69.9992Z" fill="white"/>
<path d="M76.9983 69.9992H83.9984V76.999H76.9983V69.9992Z" fill="white"/>
<path d="M124 69.9992H131V76.999H124V69.9992Z" fill="white"/>
<path d="M173 69.9992H180V76.999H173V69.9992Z" fill="white"/>
<path d="M83.9985 69.9992H90.9984V76.999H83.9985V69.9992Z" fill="white"/>
<path d="M131 69.9992H138V76.999H131V69.9992Z" fill="white"/>
<path d="M180 69.9992H187V76.999H180V69.9992Z" fill="white"/>
<path d="M90.9983 69.9992H97.9981V76.999H90.9983V69.9992Z" fill="white"/>
<path d="M138 69.9992H145V76.999H138V69.9992Z" fill="white"/>
<path d="M187 69.9992H194V76.999H187V69.9992Z" fill="white"/>
<path d="M62.9988 76.998H69.9987V83.999H62.9988V76.998Z" fill="white"/>
<path d="M69.9985 76.998H76.9984V83.999H69.9985V76.998Z" fill="white"/>
<path d="M117 76.998H124V83.999H117V76.998Z" fill="white"/>
<path d="M166 76.998H173V83.999H166V76.998Z" fill="white"/>
<path d="M76.9983 76.998H83.9984V83.999H76.9983V76.998Z" fill="white"/>
<path d="M124 76.998H131V83.999H124V76.998Z" fill="white"/>
<path d="M173 76.998H180V83.999H173V76.998Z" fill="white"/>
<path d="M83.9985 76.998H90.9984V83.999H83.9985V76.998Z" fill="white"/>
<path d="M131 76.998H138V83.999H131V76.998Z" fill="white"/>
<path d="M180 76.998H187V83.999H180V76.998Z" fill="white"/>
<path d="M69.9983 83.9992H76.9982V90.999H69.9983V83.9992Z" fill="white"/>
<path d="M117 83.9992H124V90.999H117V83.9992Z" fill="white"/>
<path d="M166 83.9992H173V90.999H166V83.9992Z" fill="white"/>
<path d="M76.9983 83.9992H83.9985V90.999H76.9983V83.9992Z" fill="white"/>
<path d="M124 83.9992H131V90.999H124V83.9992Z" fill="white"/>
<path d="M173 83.9992H180V90.999H173V83.9992Z" fill="white"/>
<path d="M34.9993 13.9997H41.9991V20.9995H34.9993V13.9997Z" fill="white"/>
<path d="M41.999 13.9997H48.9991V20.9995H41.999V13.9997Z" fill="white"/>
<path d="M48.999 13.9997H55.999V20.9995H48.999V13.9997Z" fill="white"/>
<path d="M55.999 13.9997H62.9989V20.9995H55.999V13.9997Z" fill="white"/>
<path d="M62.9985 13.9997H69.9985V20.9995H62.9985V13.9997Z" fill="white"/>
<path d="M69.9985 13.9992H76.9985V20.999H69.9985V13.9992Z" fill="white"/>
<path d="M117 13.9992H124V20.999H117V13.9992Z" fill="white"/>
<path d="M166 13.9997H173V20.9995H166V13.9997Z" fill="white"/>
<path d="M76.9983 13.9992H83.9984V20.999H76.9983V13.9992Z" fill="white"/>
<path d="M124 13.9992H131V20.999H124V13.9992Z" fill="white"/>
<path d="M173 13.9997H180V20.9995H173V13.9997Z" fill="white"/>
<path d="M83.9985 13.9992H90.9984V20.999H83.9985V13.9992Z" fill="white"/>
<path d="M131 13.9992H138V20.999H131V13.9992Z" fill="white"/>
<path d="M180 13.9997H187V20.9995H180V13.9997Z" fill="white"/>
<path d="M90.9983 13.9992H97.9981V20.999H90.9983V13.9992Z" fill="white"/>
<path d="M138 13.9992H145V20.999H138V13.9992Z" fill="white"/>
<path d="M187 13.9997H194V20.9995H187V13.9997Z" fill="white"/>
<path d="M97.9983 13.9992H104.998V20.999H97.9983V13.9992Z" fill="white"/>
<path d="M145 13.9992H152V20.999H145V13.9992Z" fill="white"/>
<path d="M194 13.9997H201V20.9995H194V13.9997Z" fill="white"/>
<path d="M104.998 13.9992H111.998V20.999H104.998V13.9992Z" fill="white"/>
<path d="M152 13.9992H159V20.999H152V13.9992Z" fill="white"/>
<path d="M201 13.9997H208V20.9995H201V13.9997Z" fill="white"/>
<path d="M111.998 13.9992H118.998V20.999H111.998V13.9992Z" fill="white"/>
<path d="M159 13.9992H165.999V20.999H159V13.9992Z" fill="white"/>
<path d="M208 13.9997H214.999V20.9995H208V13.9997Z" fill="white"/>
<path d="M20.9995 20.9992H27.9992V27.999H20.9995V20.9992Z" fill="white"/>
<path d="M27.9993 20.9992H34.9991V27.999H27.9993V20.9992Z" fill="white"/>
<path d="M34.9993 20.9992H41.9993V27.999H34.9993V20.9992Z" fill="white"/>
<path d="M41.9993 20.9992H48.9991V27.999H41.9993V20.9992Z" fill="white"/>
<path d="M48.999 20.9992H55.999V27.999H48.999V20.9992Z" fill="white"/>
<path d="M55.999 20.9992H62.9989V27.999H55.999V20.9992Z" fill="white"/>
<path d="M62.9988 20.9992H69.9987V27.999H62.9988V20.9992Z" fill="white"/>
<path d="M69.9985 20.9992H76.9984V27.999H69.9985V20.9992Z" fill="white"/>
<path d="M117 20.9992H124V27.999H117V20.9992Z" fill="white"/>
<path d="M166 20.9992H173V27.999H166V20.9992Z" fill="white"/>
<path d="M76.9983 20.9992H83.9984V27.999H76.9983V20.9992Z" fill="white"/>
<path d="M124 20.9992H131V27.999H124V20.9992Z" fill="white"/>
<path d="M173 20.9992H180V27.999H173V20.9992Z" fill="white"/>
<path d="M83.9985 20.9992H90.9984V27.999H83.9985V20.9992Z" fill="white"/>
<path d="M131 20.9992H138V27.999H131V20.9992Z" fill="white"/>
<path d="M180 20.9992H187V27.999H180V20.9992Z" fill="white"/>
<path d="M90.9983 20.9992H97.9981V27.999H90.9983V20.9992Z" fill="white"/>
<path d="M138 20.9992H145V27.999H138V20.9992Z" fill="white"/>
<path d="M187 20.9992H194V27.999H187V20.9992Z" fill="white"/>
<path d="M97.9983 20.9992H104.998V27.999H97.9983V20.9992Z" fill="white"/>
<path d="M145 20.9992H152V27.999H145V20.9992Z" fill="white"/>
<path d="M194 20.9992H201V27.999H194V20.9992Z" fill="white"/>
<path d="M104.998 20.9992H111.998V27.999H104.998V20.9992Z" fill="white"/>
<path d="M152 20.9992H159V27.999H152V20.9992Z" fill="white"/>
<path d="M201 20.9992H208V27.999H201V20.9992Z" fill="white"/>
<path d="M111.998 20.9992H118.998V27.999H111.998V20.9992Z" fill="white"/>
<path d="M159 20.9992H165.999V27.999H159V20.9992Z" fill="white"/>
<path d="M208 20.9992H214.999V27.999H208V20.9992Z" fill="white"/>
<path d="M215 20.9992H222V27.999H215V20.9992Z" fill="white"/>
<path d="M222 20.9992H229V27.999H222V20.9992Z" fill="white"/>
<path d="M20.9995 27.9992H27.9992V34.999H20.9995V27.9992Z" fill="white"/>
<path d="M27.9993 27.9992H34.9991V34.999H27.9993V27.9992Z" fill="white"/>
<path d="M34.9993 27.9992H41.9991V34.999H34.9993V27.9992Z" fill="white"/>
<path d="M41.999 27.9992H48.9991V34.999H41.999V27.9992Z" fill="white"/>
<path d="M69.9985 27.9992H76.9985V34.999H69.9985V27.9992Z" fill="white"/>
<path d="M117 27.9992H124V34.999H117V27.9992Z" fill="white"/>
<path d="M166 27.9992H173V34.999H166V27.9992Z" fill="white"/>
<path d="M76.9983 27.9992H83.9984V34.999H76.9983V27.9992Z" fill="white"/>
<path d="M124 27.9992H131V34.999H124V27.9992Z" fill="white"/>
<path d="M173 27.9992H180V34.999H173V27.9992Z" fill="white"/>
<path d="M104.998 27.9992H111.998V34.999H104.998V27.9992Z" fill="white"/>
<path d="M152 27.9992H159V34.999H152V27.9992Z" fill="white"/>
<path d="M201 27.9992H208V34.999H201V27.9992Z" fill="white"/>
<path d="M111.998 27.9992H118.998V34.999H111.998V27.9992Z" fill="white"/>
<path d="M159 27.9992H165.999V34.999H159V27.9992Z" fill="white"/>
<path d="M208 27.9992H214.999V34.999H208V27.9992Z" fill="white"/>
<path d="M215 27.9992H222V34.999H215V27.9992Z" fill="white"/>
<path d="M222 27.9992H229V34.999H222V27.9992Z" fill="white"/>
<path d="M13.9998 34.999H20.9997V42H13.9998V34.999Z" fill="white"/>
<path d="M20.9995 34.999H27.9992V42H20.9995V34.999Z" fill="white"/>
<path d="M27.9993 34.999H34.9991V42H27.9993V34.999Z" fill="white"/>
<path d="M34.9993 34.999H41.9991V42H34.9993V34.999Z" fill="white"/>
<path d="M111.998 34.999H118.998V42H111.998V34.999Z" fill="white"/>
<path d="M159 34.999H165.999V42H159V34.999Z" fill="white"/>
<path d="M208 34.999H214.999V42H208V34.999Z" fill="white"/>
<path d="M215 34.999H222V42H215V34.999Z" fill="white"/>
<path d="M222 34.999H229V42H222V34.999Z" fill="white"/>
<path d="M229 34.999H236V42H229V34.999Z" fill="white"/>
<path d="M13.9998 42.0002H20.9997V49H13.9998V42.0002Z" fill="white"/>
<path d="M20.9995 42.0002H27.9993V49H20.9995V42.0002Z" fill="white"/>
<path d="M27.9993 42.0002H34.9991V49H27.9993V42.0002Z" fill="white"/>
<path d="M215 42.0002H222V49H215V42.0002Z" fill="white"/>
<path d="M222 42.0002H229V49H222V42.0002Z" fill="white"/>
<path d="M229 42.0002H236V49H229V42.0002Z" fill="white"/>
<path d="M13.9998 49.0002H20.9997V56H13.9998V49.0002Z" fill="white"/>
<path d="M20.9995 49.0002H27.9993V56H20.9995V49.0002Z" fill="white"/>
<path d="M27.9995 49.0002H34.9992V56H27.9995V49.0002Z" fill="white"/>
<path d="M215 49.0002H222V56H215V49.0002Z" fill="white"/>
<path d="M222 49.0002H229V56H222V49.0002Z" fill="white"/>
<path d="M229 49.0002H236V56H229V49.0002Z" fill="white"/>
<path d="M13.9998 55.9997H20.9996V62.9995H13.9998V55.9997Z" fill="white"/>
<path d="M20.9995 55.9997H27.9993V62.9995H20.9995V55.9997Z" fill="white"/>
<path d="M27.9995 55.9997H34.9992V62.9995H27.9995V55.9997Z" fill="white"/>
<path d="M34.9993 55.9997H41.9993V62.9995H34.9993V55.9997Z" fill="white"/>
<path d="M111.998 55.9997H118.998V62.9995H111.998V55.9997Z" fill="white"/>
<path d="M159 55.9997H165.999V62.9995H159V55.9997Z" fill="white"/>
<path d="M208 55.9997H214.999V62.9995H208V55.9997Z" fill="white"/>
<path d="M215 56.0002H222V63H215V56.0002Z" fill="white"/>
<path d="M222 56.0002H229V63H222V56.0002Z" fill="white"/>
<path d="M229 56.0002H236V63H229V56.0002Z" fill="white"/>
<path d="M13.9998 62.9997H20.9996V69.9995H13.9998V62.9997Z" fill="white"/>
<path d="M20.9995 62.9997H27.9993V69.9995H20.9995V62.9997Z" fill="white"/>
<path d="M27.9995 62.9997H34.9992V69.9995H27.9995V62.9997Z" fill="white"/>
<path d="M34.9993 62.9997H41.9993V69.9995H34.9993V62.9997Z" fill="white"/>
<path d="M41.9993 62.9997H48.9991V69.9995H41.9993V62.9997Z" fill="white"/>
<path d="M104.998 62.9992H111.998V69.999H104.998V62.9992Z" fill="white"/>
<path d="M152 62.9992H159V69.999H152V62.9992Z" fill="white"/>
<path d="M201 62.9997H208V69.9995H201V62.9997Z" fill="white"/>
<path d="M111.998 62.9992H118.998V69.999H111.998V62.9992Z" fill="white"/>
<path d="M159 62.9992H165.999V69.999H159V62.9992Z" fill="white"/>
<path d="M208 62.9997H214.999V69.9995H208V62.9997Z" fill="white"/>
<path d="M215 62.9997H222V69.9995H215V62.9997Z" fill="white"/>
<path d="M222 62.9997H229V69.9995H222V62.9997Z" fill="white"/>
<path d="M229 62.9997H236V69.9995H229V62.9997Z" fill="white"/>
<path d="M13.9998 69.9992H20.9996V76.999H13.9998V69.9992Z" fill="white"/>
<path d="M20.9995 69.9992H27.9992V76.999H20.9995V69.9992Z" fill="white"/>
<path d="M27.9993 69.9992H34.9991V76.999H27.9993V69.9992Z" fill="white"/>
<path d="M34.9993 69.9992H41.9993V76.999H34.9993V69.9992Z" fill="white"/>
<path d="M41.9993 69.9992H48.9991V76.999H41.9993V69.9992Z" fill="white"/>
<path d="M48.999 69.9992H55.999V76.999H48.999V69.9992Z" fill="white"/>
<path d="M97.9983 69.9992H104.998V76.999H97.9983V69.9992Z" fill="white"/>
<path d="M145 69.9992H152V76.999H145V69.9992Z" fill="white"/>
<path d="M194 69.9992H201V76.999H194V69.9992Z" fill="white"/>
<path d="M104.998 69.9992H111.998V76.999H104.998V69.9992Z" fill="white"/>
<path d="M152 69.9992H159V76.999H152V69.9992Z" fill="white"/>
<path d="M201 69.9992H208V76.999H201V69.9992Z" fill="white"/>
<path d="M111.998 69.9992H118.998V76.999H111.998V69.9992Z" fill="white"/>
<path d="M159 69.9992H165.999V76.999H159V69.9992Z" fill="white"/>
<path d="M208 69.9992H214.999V76.999H208V69.9992Z" fill="white"/>
<path d="M215 69.9992H222V76.999H215V69.9992Z" fill="white"/>
<path d="M222 69.9992H229V76.999H222V69.9992Z" fill="white"/>
<path d="M229 69.9992H236V76.999H229V69.9992Z" fill="white"/>
<path d="M20.9995 76.998H27.9993V83.999H20.9995V76.998Z" fill="white"/>
<path d="M27.9995 76.998H34.9992V83.999H27.9995V76.998Z" fill="white"/>
<path d="M34.9993 76.998H41.9993V83.999H34.9993V76.998Z" fill="white"/>
<path d="M41.9993 76.998H48.9991V83.999H41.9993V76.998Z" fill="white"/>
<path d="M48.999 76.998H55.999V83.999H48.999V76.998Z" fill="white"/>
<path d="M55.999 76.998H62.9987V83.999H55.999V76.998Z" fill="white"/>
<path d="M90.9983 76.998H97.9981V83.999H90.9983V76.998Z" fill="white"/>
<path d="M138 76.998H145V83.999H138V76.998Z" fill="white"/>
<path d="M187 76.998H194V83.999H187V76.998Z" fill="white"/>
<path d="M97.9983 76.998H104.998V83.999H97.9983V76.998Z" fill="white"/>
<path d="M145 76.998H152V83.999H145V76.998Z" fill="white"/>
<path d="M194 76.998H201V83.999H194V76.998Z" fill="white"/>
<path d="M104.998 76.998H111.998V83.999H104.998V76.998Z" fill="white"/>
<path d="M152 76.998H159V83.999H152V76.998Z" fill="white"/>
<path d="M201 76.998H208V83.999H201V76.998Z" fill="white"/>
<path d="M111.998 76.998H118.998V83.999H111.998V76.998Z" fill="white"/>
<path d="M159 76.998H165.999V83.999H159V76.998Z" fill="white"/>
<path d="M208 76.998H214.999V83.999H208V76.998Z" fill="white"/>
<path d="M215 76.998H222V83.999H215V76.998Z" fill="white"/>
<path d="M222 76.998H229V83.999H222V76.998Z" fill="white"/>
<path d="M20.9993 83.9992H27.9992V90.999H20.9993V83.9992Z" fill="white"/>
<path d="M27.9993 83.9992H34.999V90.999H27.9993V83.9992Z" fill="white"/>
<path d="M34.999 83.9992H41.999V90.999H34.999V83.9992Z" fill="white"/>
<path d="M41.9988 83.9992H48.9987V90.999H41.9988V83.9992Z" fill="white"/>
<path d="M48.9988 83.9992H55.9986V90.999H48.9988V83.9992Z" fill="white"/>
<path d="M55.9985 83.9992H62.9984V90.999H55.9985V83.9992Z" fill="white"/>
<path d="M62.9985 83.9992H69.9985V90.999H62.9985V83.9992Z" fill="white"/>
<path d="M83.9985 83.9992H90.9984V90.999H83.9985V83.9992Z" fill="white"/>
<path d="M131 83.9992H138V90.999H131V83.9992Z" fill="white"/>
<path d="M180 83.9992H187V90.999H180V83.9992Z" fill="white"/>
<path d="M90.9983 83.9992H97.9981V90.999H90.9983V83.9992Z" fill="white"/>
<path d="M138 83.9992H145V90.999H138V83.9992Z" fill="white"/>
<path d="M187 83.9992H194V90.999H187V83.9992Z" fill="white"/>
<path d="M97.9983 83.9992H104.998V90.999H97.9983V83.9992Z" fill="white"/>
<path d="M145 83.9992H152V90.999H145V83.9992Z" fill="white"/>
<path d="M194 83.9992H201V90.999H194V83.9992Z" fill="white"/>
<path d="M104.998 83.9992H111.998V90.999H104.998V83.9992Z" fill="white"/>
<path d="M152 83.9992H159V90.999H152V83.9992Z" fill="white"/>
<path d="M201 83.9992H208V90.999H201V83.9992Z" fill="white"/>
<path d="M111.998 83.9992H118.998V90.999H111.998V83.9992Z" fill="white"/>
<path d="M159 83.9992H165.999V90.999H159V83.9992Z" fill="white"/>
<path d="M208 83.9992H214.999V90.999H208V83.9992Z" fill="white"/>
<path d="M215 83.9992H222V90.999H215V83.9992Z" fill="white"/>
<path d="M222 83.9992H229V90.999H222V83.9992Z" fill="white"/>
<path d="M34.999 90.999H41.999V98H34.999V90.999Z" fill="white"/>
<path d="M41.9988 90.999H48.9987V98H41.9988V90.999Z" fill="white"/>
<path d="M48.9988 90.999H55.9986V98H48.9988V90.999Z" fill="white"/>
<path d="M55.9985 90.999H62.9984V98H55.9985V90.999Z" fill="white"/>
<path d="M62.9985 90.999H69.9985V98H62.9985V90.999Z" fill="white"/>
<path d="M69.9983 90.999H76.9981V98H69.9983V90.999Z" fill="white"/>
<path d="M117 90.999H124V98H117V90.999Z" fill="white"/>
<path d="M166 90.999H173V98H166V90.999Z" fill="white"/>
<path d="M76.9983 90.999H83.9986V98H76.9983V90.999Z" fill="white"/>
<path d="M124 90.999H131V98H124V90.999Z" fill="white"/>
<path d="M173 90.999H180V98H173V90.999Z" fill="white"/>
<path d="M83.9985 90.999H90.9984V98H83.9985V90.999Z" fill="white"/>
<path d="M131 90.999H138V98H131V90.999Z" fill="white"/>
<path d="M180 90.999H187V98H180V90.999Z" fill="white"/>
<path d="M90.9983 90.999H97.9981V98H90.9983V90.999Z" fill="white"/>
<path d="M138 90.999H145V98H138V90.999Z" fill="white"/>
<path d="M187 90.999H194V98H187V90.999Z" fill="white"/>
<path d="M97.9983 90.999H104.998V98H97.9983V90.999Z" fill="white"/>
<path d="M145 90.999H152V98H145V90.999Z" fill="white"/>
<path d="M194 90.999H201V98H194V90.999Z" fill="white"/>
<path d="M104.998 90.999H111.998V98H104.998V90.999Z" fill="white"/>
<path d="M152 90.999H159V98H152V90.999Z" fill="white"/>
<path d="M201 90.999H208V98H201V90.999Z" fill="white"/>
<path d="M111.998 90.999H118.998V98H111.998V90.999Z" fill="white"/>
<path d="M159 90.999H165.999V98H159V90.999Z" fill="white"/>
<path d="M208 90.999H214.999V98H208V90.999Z" fill="white"/>
<path d="M48.9988 97.9997H55.9986V105H48.9988V97.9997Z" fill="white"/>
<path d="M55.9985 97.9997H62.9984V105H55.9985V97.9997Z" fill="white"/>
<path d="M62.9985 97.9997H69.9985V105H62.9985V97.9997Z" fill="white"/>
<path d="M48.9988 105H55.9986V112H48.9988V105Z" fill="white"/>
<path d="M55.9985 105H62.9984V112H55.9985V105Z" fill="white"/>
<path d="M48.9988 112H55.9986V119H48.9988V112Z" fill="white"/>
<path d="M7 34.9992H13.9998V41.999H7V34.9992Z" fill="black"/>
<path d="M7 41.9987H13.9998V48.9985H7V41.9987Z" fill="black"/>
<path d="M7 48.9987H14V55.9985H7V48.9987Z" fill="black"/>
<path d="M7 55.9982H14V62.998H7V55.9982Z" fill="black"/>
<path d="M7 62.9982H14V69.998H7V62.9982Z" fill="black"/>
<path d="M7 69.9982H13.9998V76.998H7V69.9982Z" fill="black"/>
<path d="M34.9993 6.99968H41.9993V13.9995H34.9993V6.99968Z" fill="black"/>
<path d="M41.9993 6.99968H48.9991V13.9995H41.9993V6.99968Z" fill="black"/>
<path d="M48.999 6.99968H55.999V13.9995H48.999V6.99968Z" fill="black"/>
<path d="M55.999 6.99968H62.9989V13.9995H55.999V6.99968Z" fill="black"/>
<path d="M62.9988 6.99968H69.9987V13.9995H62.9988V6.99968Z" fill="black"/>
<path d="M69.9985 6.99968H76.9984V13.9995H69.9985V6.99968Z" fill="black"/>
<path d="M117 6.99968H124V13.9995H117V6.99968Z" fill="black"/>
<path d="M166 6.99968H173V13.9995H166V6.99968Z" fill="black"/>
<path d="M76.9983 6.99968H83.9984V13.9995H76.9983V6.99968Z" fill="black"/>
<path d="M124 6.99968H131V13.9995H124V6.99968Z" fill="black"/>
<path d="M173 6.99968H180V13.9995H173V6.99968Z" fill="black"/>
<path d="M83.9985 6.99968H90.9984V13.9995H83.9985V6.99968Z" fill="black"/>
<path d="M131 6.99968H138V13.9995H131V6.99968Z" fill="black"/>
<path d="M180 6.99968H187V13.9995H180V6.99968Z" fill="black"/>
<path d="M90.9983 6.99968H97.9981V13.9995H90.9983V6.99968Z" fill="black"/>
<path d="M138 6.99968H145V13.9995H138V6.99968Z" fill="black"/>
<path d="M187 6.99968H194V13.9995H187V6.99968Z" fill="black"/>
<path d="M97.9983 6.99968H104.998V13.9995H97.9983V6.99968Z" fill="black"/>
<path d="M145 6.99968H152V13.9995H145V6.99968Z" fill="black"/>
<path d="M194 6.99968H201V13.9995H194V6.99968Z" fill="black"/>
<path d="M104.998 6.99968H111.998V13.9995H104.998V6.99968Z" fill="black"/>
<path d="M152 6.99968H159V13.9995H152V6.99968Z" fill="black"/>
<path d="M201 6.99968H208V13.9995H201V6.99968Z" fill="black"/>
<path d="M111.998 6.99968H118.998V13.9995H111.998V6.99968Z" fill="black"/>
<path d="M159 6.99968H165.999V13.9995H159V6.99968Z" fill="black"/>
<path d="M208 6.99968H214.999V13.9995H208V6.99968Z" fill="black"/>
<path d="M20.9995 13.9997H27.9992V20.9995H20.9995V13.9997Z" fill="black"/>
<path d="M27.9993 13.9997H34.9991V20.9995H27.9993V13.9997Z" fill="black"/>
<path d="M215 13.9997H222V20.9995H215V13.9997Z" fill="black"/>
<path d="M222 13.9997H229V20.9995H222V13.9997Z" fill="black"/>
<path d="M13.9998 20.9992H20.9997V27.999H13.9998V20.9992Z" fill="black"/>
<path d="M229 20.9992H236V27.999H229V20.9992Z" fill="black"/>
<path d="M13.9998 27.9992H20.9997V34.999H13.9998V27.9992Z" fill="black"/>
<path d="M229 27.9992H236V34.999H229V27.9992Z" fill="black"/>
<path d="M13.9998 76.998H20.9996V83.999H13.9998V76.998Z" fill="black"/>
<path d="M229 76.998H236V83.999H229V76.998Z" fill="black"/>
<path d="M236 34.9992H242.999V41.999H236V34.9992Z" fill="black"/>
<path d="M236 41.9992H242.999V48.999H236V41.9992Z" fill="black"/>
<path d="M236 48.9992H242.999V55.999H236V48.9992Z" fill="black"/>
<path d="M236 55.9987H242.999V62.9985H236V55.9987Z" fill="black"/>
<path d="M236 62.9982H242.999V69.998H236V62.9982Z" fill="black"/>
<path d="M236 69.9982H242.999V76.998H236V69.9982Z" fill="black"/>
<path d="M13.9993 83.9992H20.9993V90.999H13.9993V83.9992Z" fill="black"/>
<path d="M229 83.9992H236V90.999H229V83.9992Z" fill="black"/>
<path d="M20.9993 90.999H27.9992V98H20.9993V90.999Z" fill="black"/>
<path d="M27.9993 90.999H34.999V98H27.9993V90.999Z" fill="black"/>
<path d="M215 90.999H222V98H215V90.999Z" fill="black"/>
<path d="M222 90.999H229V98H222V90.999Z" fill="black"/>
<path d="M34.999 97.9997H41.999V105H34.999V97.9997Z" fill="black"/>
<path d="M41.9988 97.9997H48.9987V105H41.9988V97.9997Z" fill="black"/>
<path d="M69.9983 97.9997H76.9982V105H69.9983V97.9997Z" fill="black"/>
<path d="M117 97.9997H124V105H117V97.9997Z" fill="black"/>
<path d="M166 97.9997H173V105H166V97.9997Z" fill="black"/>
<path d="M76.9983 97.9997H83.9985V105H76.9983V97.9997Z" fill="black"/>
<path d="M124 97.9997H131V105H124V97.9997Z" fill="black"/>
<path d="M173 97.9997H180V105H173V97.9997Z" fill="black"/>
<path d="M83.9985 97.9997H90.9984V105H83.9985V97.9997Z" fill="black"/>
<path d="M131 97.9997H138V105H131V97.9997Z" fill="black"/>
<path d="M180 97.9997H187V105H180V97.9997Z" fill="black"/>
<path d="M90.9983 97.9997H97.9981V105H90.9983V97.9997Z" fill="black"/>
<path d="M138 97.9997H145V105H138V97.9997Z" fill="black"/>
<path d="M187 97.9997H194V105H187V97.9997Z" fill="black"/>
<path d="M97.9983 97.9997H104.998V105H97.9983V97.9997Z" fill="black"/>
<path d="M145 97.9997H152V105H145V97.9997Z" fill="black"/>
<path d="M194 97.9997H201V105H194V97.9997Z" fill="black"/>
<path d="M104.998 97.9997H111.998V105H104.998V97.9997Z" fill="black"/>
<path d="M152 97.9997H159V105H152V97.9997Z" fill="black"/>
<path d="M201 97.9997H208V105H201V97.9997Z" fill="black"/>
<path d="M111.998 97.9997H118.998V105H111.998V97.9997Z" fill="black"/>
<path d="M159 97.9997H165.999V105H159V97.9997Z" fill="black"/>
<path d="M208 97.9997H214.999V105H208V97.9997Z" fill="black"/>
<path d="M41.9988 105H48.9987V112H41.9988V105Z" fill="black"/>
<path d="M62.9985 105H69.9985V112H62.9985V105Z" fill="black"/>
<path d="M41.9988 112H48.9987V119H41.9988V112Z" fill="black"/>
<path d="M55.9985 112H62.9984V119H55.9985V112Z" fill="black"/>
<path d="M41.9988 118.999H48.9986V125.999H41.9988V118.999Z" fill="black"/>
<path d="M48.9988 118.999H55.9986V125.999H48.9988V118.999Z" fill="black"/>
<path d="M41.9988 125.999H48.9987V132.999H41.9988V125.999Z" fill="black"/>
<path d="M7 20.998H13.9998V27.999H7V20.998Z" fill="white"/>
<path d="M7 27.9992H13.9998V34.999H7V27.9992Z" fill="white"/>
<path d="M0 34.9992H6.99995V41.999H0V34.9992Z" fill="white"/>
<path d="M0 41.9987H6.99983V48.9985H0V41.9987Z" fill="white"/>
<path d="M0 48.9987H6.99983V55.9985H0V48.9987Z" fill="white"/>
<path d="M0 55.9982H6.99983V62.998H0V55.9982Z" fill="white"/>
<path d="M0 62.9982H6.99983V69.998H0V62.9982Z" fill="white"/>
<path d="M0 69.9982H6.99995V76.998H0V69.9982Z" fill="white"/>
<path d="M7 76.9982H14V83.998H7V76.9982Z" fill="white"/>
<path d="M34.9993 0.000170231H41.9993V7H34.9993V0.000170231Z" fill="white"/>
<path d="M41.9993 0.000170231H48.9991V7H41.9993V0.000170231Z" fill="white"/>
<path d="M48.999 0.000170231H55.999V7H48.999V0.000170231Z" fill="white"/>
<path d="M55.999 0.000170231H62.9989V7H55.999V0.000170231Z" fill="white"/>
<path d="M62.9988 0.000170231H69.9987V7H62.9988V0.000170231Z" fill="white"/>
<path d="M69.9985 0.000170231H76.9984V7H69.9985V0.000170231Z" fill="white"/>
<path d="M117 0.000170231H124V7H117V0.000170231Z" fill="white"/>
<path d="M166 0.000170231H173V7H166V0.000170231Z" fill="white"/>
<path d="M76.9983 0.000170231H83.9984V7H76.9983V0.000170231Z" fill="white"/>
<path d="M124 0.000170231H131V7H124V0.000170231Z" fill="white"/>
<path d="M173 0.000170231H180V7H173V0.000170231Z" fill="white"/>
<path d="M83.9985 0.000170231H90.9984V7H83.9985V0.000170231Z" fill="white"/>
<path d="M131 0.000170231H138V7H131V0.000170231Z" fill="white"/>
<path d="M180 0.000170231H187V7H180V0.000170231Z" fill="white"/>
<path d="M90.9983 0.000170231H97.9981V7H90.9983V0.000170231Z" fill="white"/>
<path d="M138 0.000170231H145V7H138V0.000170231Z" fill="white"/>
<path d="M187 0.000170231H194V7H187V0.000170231Z" fill="white"/>
<path d="M97.9983 0.000170231H104.998V7H97.9983V0.000170231Z" fill="white"/>
<path d="M145 0.000170231H152V7H145V0.000170231Z" fill="white"/>
<path d="M194 0.000170231H201V7H194V0.000170231Z" fill="white"/>
<path d="M104.998 0.000170231H111.998V7H104.998V0.000170231Z" fill="white"/>
<path d="M152 0.000170231H159V7H152V0.000170231Z" fill="white"/>
<path d="M201 0.000170231H208V7H201V0.000170231Z" fill="white"/>
<path d="M111.998 0.000170231H118.998V7H111.998V0.000170231Z" fill="white"/>
<path d="M159 0.000170231H165.999V7H159V0.000170231Z" fill="white"/>
<path d="M208 0.000170231H214.999V7H208V0.000170231Z" fill="white"/>
<path d="M20.9995 6.99968H27.9992V13.9995H20.9995V6.99968Z" fill="white"/>
<path d="M27.9993 6.99968H34.9991V13.9995H27.9993V6.99968Z" fill="white"/>
<path d="M215 7.00017H222V14H215V7.00017Z" fill="white"/>
<path d="M222 7.00017H229V14H222V7.00017Z" fill="white"/>
<path d="M13.9998 13.9997H20.9997V20.9995H13.9998V13.9997Z" fill="white"/>
<path d="M229 13.9997H236V20.9995H229V13.9997Z" fill="white"/>
<path d="M236 20.998H242.999V27.999H236V20.998Z" fill="white"/>
<path d="M236 27.9992H242.999V34.999H236V27.9992Z" fill="white"/>
<path d="M243 34.9992H249.999V41.999H243V34.9992Z" fill="white"/>
<path d="M243 41.9992H249.999V48.999H243V41.9992Z" fill="white"/>
<path d="M243 48.9992H249.999V55.999H243V48.9992Z" fill="white"/>
<path d="M243 55.9987H249.999V62.9985H243V55.9987Z" fill="white"/>
<path d="M243 62.9982H249.999V69.998H243V62.9982Z" fill="white"/>
<path d="M243 69.9982H249.999V76.998H243V69.9982Z" fill="white"/>
<path d="M236 76.9982H242.999V83.998H236V76.9982Z" fill="white"/>
<path d="M6.99951 83.9992H13.9996V90.999H6.99951V83.9992Z" fill="white"/>
<path d="M13.9993 90.999H20.9991V98H13.9993V90.999Z" fill="white"/>
<path d="M229 90.999H236V98H229V90.999Z" fill="white"/>
<path d="M20.9993 97.9997H27.9992V105H20.9993V97.9997Z" fill="white"/>
<path d="M27.9993 97.9997H34.999V105H27.9993V97.9997Z" fill="white"/>
<path d="M215 98.0002H222V105H215V98.0002Z" fill="white"/>
<path d="M222 98.0002H229V105H222V98.0002Z" fill="white"/>
<path d="M34.999 105H41.999V112H34.999V105Z" fill="white"/>
<path d="M76.9983 105H83.9986V112H76.9983V105Z" fill="white"/>
<path d="M124 105H131V112H124V105Z" fill="white"/>
<path d="M173 105H180V112H173V105Z" fill="white"/>
<path d="M83.9985 105H90.9984V112H83.9985V105Z" fill="white"/>
<path d="M131 105H138V112H131V105Z" fill="white"/>
<path d="M180 105H187V112H180V105Z" fill="white"/>
<path d="M90.9983 105H97.9981V112H90.9983V105Z" fill="white"/>
<path d="M138 105H145V112H138V105Z" fill="white"/>
<path d="M187 105H194V112H187V105Z" fill="white"/>
<path d="M97.9983 105H104.998V112H97.9983V105Z" fill="white"/>
<path d="M145 105H152V112H145V105Z" fill="white"/>
<path d="M194 105H201V112H194V105Z" fill="white"/>
<path d="M104.998 105H111.998V112H104.998V105Z" fill="white"/>
<path d="M152 105H159V112H152V105Z" fill="white"/>
<path d="M201 105H208V112H201V105Z" fill="white"/>
<path d="M111.998 105H118.998V112H111.998V105Z" fill="white"/>
<path d="M159 105H165.999V112H159V105Z" fill="white"/>
<path d="M208 105H214.999V112H208V105Z" fill="white"/>
<path d="M34.999 112H41.999V119H34.999V112Z" fill="white"/>
<path d="M69.9983 105H76.9981V112H69.9983V105Z" fill="white"/>
<path d="M117 105H124V112H117V105Z" fill="white"/>
<path d="M166 105H173V112H166V105Z" fill="white"/>
<path d="M34.999 118.999H41.999V125.999H34.999V118.999Z" fill="white"/>
<path d="M62.9985 112H69.9985V119H62.9985V112Z" fill="white"/>
<path d="M34.999 125.999H41.9989V132.999H34.999V125.999Z" fill="white"/>
<path d="M55.999 118.999H62.9987V125.999H55.999V118.999Z" fill="white"/>
<path d="M41.9988 132.999H48.9987V140H41.9988V132.999Z" fill="white"/>
<path d="M48.9988 125.999H55.9986V132.999H48.9988V125.999Z" fill="white"/>
<path d="M236 83.9992H242.999V90.999H236V83.9992Z" fill="white"/>
<path d="M34.999 132.999H41.9989V140H34.999V132.999Z" fill="white"/>
<path d="M35.92 68.384V65.184H38.832V51.04H35.92V47.808H44.976V51.04H42.032V65.184H44.976V68.384H35.92ZM52.0895 53.92H50.2975V52.128H51.7695V51.04H48.8575V47.808H52.0895V50.72H53.5295V52.448H52.0895V53.92ZM57.3888 68.384V53.6H66.4448V56.512H69.0048V53.6H75.1808V56.512H78.0608V68.384H74.8608V56.8H69.3248V68.384H66.1248V56.8H60.6208V68.384H57.3888ZM91.5583 68.384H88.3263V47.808H91.5583V56.512H94.1183V53.6H100.262V56.512H103.206V68.384H99.9423V56.8H94.4383V59.68H91.5583V68.384ZM109.363 65.504H106.451V53.6H109.683V65.184H118.067V53.6H121.331V65.504H118.387V68.384H109.363V65.504ZM128.433 68.384H125.201V53.6H137.137V56.512H140.081V68.384H136.817V56.8H128.433V68.384ZM146.238 71.296H143.326V68.096H146.558V70.976H154.974V65.504H146.238V62.592H143.326V56.512H146.238V53.6H155.294V56.512H158.206V71.296H155.294V74.176H146.238V71.296ZM146.558 56.8V62.272H154.974V56.8H146.558ZM162.076 68.384V56.512H164.988V53.6H174.012V56.512H176.956V59.68H173.692V56.8H165.308V68.384H162.076ZM180.201 71.296V68.096H183.433V70.976H191.849V65.504H183.113V62.592H180.201V53.6H183.433V62.272H191.849V53.6H195.081V71.296H192.169V74.176H183.113V71.296H180.201ZM202.183 68.384H198.951V65.184H202.183V68.384ZM202.183 62.592H198.951V47.808H202.183V62.592Z" fill="black"/>
</svg>
